G04 #@! TF.GenerationSoftware,KiCad,Pcbnew,7.0.10*
G04 #@! TF.CreationDate,2024-02-19T15:39:12-05:00*
G04 #@! TF.ProjectId,sdt_lpf,7364745f-6c70-4662-9e6b-696361645f70,rev?*
G04 #@! TF.SameCoordinates,PX62de0f0PY8af5bb0*
G04 #@! TF.FileFunction,Copper,L2,Bot*
G04 #@! TF.FilePolarity,Positive*
%FSLAX46Y46*%
G04 Gerber Fmt 4.6, Leading zero omitted, Abs format (unit mm)*
G04 Created by KiCad (PCBNEW 7.0.10) date 2024-02-19 15:39:12*
%MOMM*%
%LPD*%
G01*
G04 APERTURE LIST*
G04 Aperture macros list*
%AMRoundRect*
0 Rectangle with rounded corners*
0 $1 Rounding radius*
0 $2 $3 $4 $5 $6 $7 $8 $9 X,Y pos of 4 corners*
0 Add a 4 corners polygon primitive as box body*
4,1,4,$2,$3,$4,$5,$6,$7,$8,$9,$2,$3,0*
0 Add four circle primitives for the rounded corners*
1,1,$1+$1,$2,$3*
1,1,$1+$1,$4,$5*
1,1,$1+$1,$6,$7*
1,1,$1+$1,$8,$9*
0 Add four rect primitives between the rounded corners*
20,1,$1+$1,$2,$3,$4,$5,0*
20,1,$1+$1,$4,$5,$6,$7,0*
20,1,$1+$1,$6,$7,$8,$9,0*
20,1,$1+$1,$8,$9,$2,$3,0*%
G04 Aperture macros list end*
G04 #@! TA.AperFunction,ComponentPad*
%ADD10C,2.020000*%
G04 #@! TD*
G04 #@! TA.AperFunction,ComponentPad*
%ADD11C,2.600000*%
G04 #@! TD*
G04 #@! TA.AperFunction,ComponentPad*
%ADD12C,2.500000*%
G04 #@! TD*
G04 #@! TA.AperFunction,ComponentPad*
%ADD13RoundRect,0.250000X-0.600000X-0.600000X0.600000X-0.600000X0.600000X0.600000X-0.600000X0.600000X0*%
G04 #@! TD*
G04 #@! TA.AperFunction,ComponentPad*
%ADD14C,1.700000*%
G04 #@! TD*
G04 #@! TA.AperFunction,SMDPad,CuDef*
%ADD15RoundRect,0.250000X0.325000X0.650000X-0.325000X0.650000X-0.325000X-0.650000X0.325000X-0.650000X0*%
G04 #@! TD*
G04 #@! TA.AperFunction,SMDPad,CuDef*
%ADD16R,1.050000X0.600000*%
G04 #@! TD*
G04 #@! TA.AperFunction,ViaPad*
%ADD17C,1.000000*%
G04 #@! TD*
G04 #@! TA.AperFunction,Conductor*
%ADD18C,0.250000*%
G04 #@! TD*
G04 #@! TA.AperFunction,Conductor*
%ADD19C,0.500000*%
G04 #@! TD*
G04 APERTURE END LIST*
D10*
X2300000Y10800000D03*
X-240000Y10800000D03*
D11*
X-1180000Y50200000D03*
X-1180000Y45120000D03*
X3900000Y50200000D03*
X3900000Y45120000D03*
D12*
X1460000Y47735000D03*
D13*
X-250000Y30130000D03*
D14*
X2290000Y30130000D03*
X-250000Y27590000D03*
X2290000Y27590000D03*
X-250000Y25050000D03*
X2290000Y25050000D03*
X-250000Y22510000D03*
X2290000Y22510000D03*
X-250000Y19970000D03*
X2290000Y19970000D03*
D11*
X65800000Y48800000D03*
X65800000Y43720000D03*
X70880000Y48800000D03*
X70880000Y43720000D03*
D12*
X68440000Y46335000D03*
D15*
X5250000Y16450000D03*
X2300000Y16450000D03*
D16*
X15350000Y47700000D03*
X15350000Y46750000D03*
X15350000Y45800000D03*
X12650000Y45800000D03*
X12650000Y47700000D03*
X15350000Y57200000D03*
X15350000Y56250000D03*
X15350000Y55300000D03*
X12650000Y55300000D03*
X12650000Y57200000D03*
D15*
X8725000Y22450000D03*
X5775000Y22450000D03*
D16*
X15300000Y43050000D03*
X15300000Y42100000D03*
X15300000Y41150000D03*
X12600000Y41150000D03*
X12600000Y43050000D03*
X53550000Y55300000D03*
X53550000Y56250000D03*
X53550000Y57200000D03*
X56250000Y57200000D03*
X56250000Y55300000D03*
X53550000Y41100000D03*
X53550000Y42050000D03*
X53550000Y43000000D03*
X56250000Y43000000D03*
X56250000Y41100000D03*
X15300000Y38250000D03*
X15300000Y37300000D03*
X15300000Y36350000D03*
X12600000Y36350000D03*
X12600000Y38250000D03*
X15350000Y52400000D03*
X15350000Y51450000D03*
X15350000Y50500000D03*
X12650000Y50500000D03*
X12650000Y52400000D03*
D15*
X8825000Y27500000D03*
X5875000Y27500000D03*
D16*
X53550000Y45800000D03*
X53550000Y46750000D03*
X53550000Y47700000D03*
X56250000Y47700000D03*
X56250000Y45800000D03*
X53550000Y36450000D03*
X53550000Y37400000D03*
X53550000Y38350000D03*
X56250000Y38350000D03*
X56250000Y36450000D03*
D15*
X8775000Y30600000D03*
X5825000Y30600000D03*
D16*
X53550000Y50500000D03*
X53550000Y51450000D03*
X53550000Y52400000D03*
X56250000Y52400000D03*
X56250000Y50500000D03*
D15*
X5225000Y34350000D03*
X2275000Y34350000D03*
D17*
X3220000Y39100000D03*
X18430000Y65510000D03*
X50470000Y66660000D03*
X53025000Y58975000D03*
X7075000Y16450000D03*
X4500000Y18425000D03*
X47500000Y40400000D03*
X20300000Y40600000D03*
X-2200000Y57550000D03*
X-1850000Y26300000D03*
X19900000Y-1550000D03*
X52300000Y43150000D03*
X4250000Y24250000D03*
X61910000Y55640000D03*
X36900000Y21900000D03*
X45750000Y22000000D03*
X11050000Y37100000D03*
X34200000Y73300000D03*
X57750000Y42550000D03*
X34100000Y30400000D03*
X13700000Y58550000D03*
X34150000Y-1750000D03*
X37250000Y42350000D03*
X6950000Y34350000D03*
X63150000Y-2050000D03*
X61925000Y37200000D03*
X37050000Y32250000D03*
X5950000Y73150000D03*
X16850000Y50300000D03*
X47800000Y30300000D03*
X48200000Y60950000D03*
X7850000Y38575000D03*
X20300000Y61000000D03*
X71200000Y25200000D03*
X7400000Y19250000D03*
X57750000Y47000000D03*
X37150000Y52450000D03*
X56500000Y39750000D03*
X15000000Y16750000D03*
X12400000Y44400000D03*
X31650000Y22000000D03*
X15400000Y32850000D03*
X31750000Y32300000D03*
X55650000Y34100000D03*
X56550000Y49150000D03*
X20000000Y73300000D03*
X57750000Y51700000D03*
X20300000Y30500000D03*
X56450000Y53850000D03*
X19900000Y29000000D03*
X53600000Y14500000D03*
X6200000Y-1700000D03*
X45450000Y32300000D03*
X22400000Y32250000D03*
X34000000Y50550000D03*
X14825000Y39825000D03*
X33600000Y14250000D03*
X34200000Y60700000D03*
X10350000Y32000000D03*
X16900000Y55100000D03*
X47950000Y49500000D03*
X45700000Y51950000D03*
X9950000Y24400000D03*
X9725000Y58125000D03*
X12250000Y30350000D03*
X37450000Y62750000D03*
X15500000Y34850000D03*
X22300000Y62650000D03*
X49600000Y-1700000D03*
X70950000Y64350000D03*
X16750000Y45800000D03*
X71100000Y34500000D03*
X54050000Y25350000D03*
X63000000Y73150000D03*
X57750000Y56500000D03*
X50450000Y55350000D03*
X71100000Y6700000D03*
X44350000Y42300000D03*
X31200000Y62750000D03*
X31600000Y42350000D03*
X-1850000Y33100000D03*
X11050000Y45750000D03*
X11100000Y41950000D03*
X20100000Y50750000D03*
X22400000Y42300000D03*
X70900000Y57000000D03*
X52200000Y48200000D03*
X56400000Y44450000D03*
X6100000Y56100000D03*
X12200000Y33750000D03*
X71100000Y16150000D03*
X47800000Y20250000D03*
X22100000Y22150000D03*
X48400000Y73200000D03*
X31500000Y52550000D03*
X20100000Y20550000D03*
X57650000Y37600000D03*
X13600000Y19950000D03*
X46250000Y62650000D03*
X-2000000Y5350000D03*
X34100000Y20250000D03*
X22050000Y52450000D03*
X-2050000Y64750000D03*
X34100000Y40400000D03*
X13950000Y53950000D03*
X15400000Y31300000D03*
X16200000Y39200000D03*
X53600000Y35300000D03*
X16000000Y44300000D03*
X16600000Y27250000D03*
X53650000Y39800000D03*
X16100000Y49050000D03*
X53450000Y44500000D03*
X5800000Y25350000D03*
X17000000Y24650000D03*
X15250000Y58500000D03*
X19150000Y18750000D03*
X10650000Y22150000D03*
X52250000Y55300000D03*
X10191636Y29158364D03*
X14000000Y49300000D03*
X17450000Y23450000D03*
X15900000Y53650000D03*
X53100000Y49150000D03*
X14000000Y44600000D03*
X54750000Y58700000D03*
X54850000Y53400000D03*
X15050000Y29150000D03*
X14200000Y22400000D03*
X13950000Y35100000D03*
X13200000Y39850000D03*
X54950000Y39500000D03*
X55000000Y48950000D03*
X54850000Y44250000D03*
D18*
X5970000Y18830000D02*
X6800000Y18000000D01*
X5775000Y22450000D02*
X5775000Y19025000D01*
X5775000Y19025000D02*
X5970000Y18830000D01*
D19*
X2290000Y19970000D02*
X2290000Y16460000D01*
X2290000Y16460000D02*
X2300000Y16450000D01*
X13950000Y54000000D02*
X12650000Y55300000D01*
X13950000Y53950000D02*
X13950000Y54000000D01*
D18*
X16700000Y31300000D02*
X16700000Y37300000D01*
X16700000Y21350000D02*
X16700000Y16100000D01*
X16700000Y31300000D02*
X15400000Y31300000D01*
X15650000Y28200000D02*
X15650000Y21350000D01*
X52100000Y37100000D02*
X52100000Y35300000D01*
X16700000Y38700000D02*
X16200000Y39200000D01*
X16700000Y16100000D02*
X52100000Y16100000D01*
X16700000Y28200000D02*
X15650000Y28200000D01*
X16700000Y37300000D02*
X16700000Y38700000D01*
X52100000Y16100000D02*
X52100000Y35300000D01*
X15650000Y21350000D02*
X16700000Y21350000D01*
X15300000Y37300000D02*
X16700000Y37300000D01*
X53600000Y35300000D02*
X52100000Y35300000D01*
X52400000Y37400000D02*
X52100000Y37100000D01*
X53550000Y37400000D02*
X52400000Y37400000D01*
X16700000Y31300000D02*
X16700000Y28200000D01*
X16100000Y21850000D02*
X17200000Y21850000D01*
X17250000Y40675000D02*
X17250000Y28150000D01*
X17250000Y21800000D02*
X17250000Y16800000D01*
X51650000Y40925000D02*
X51650000Y39800000D01*
D19*
X2290000Y30130000D02*
X2290000Y34335000D01*
D18*
X53650000Y39800000D02*
X51650000Y39800000D01*
X17250000Y16800000D02*
X51600000Y16800000D01*
X52775000Y42050000D02*
X53550000Y42050000D01*
X16600000Y27250000D02*
X16600000Y26250000D01*
X2290000Y34335000D02*
X2275000Y34350000D01*
X15300000Y42100000D02*
X17250000Y42100000D01*
X16600000Y27250000D02*
X17250000Y27900000D01*
X16600000Y26250000D02*
X16100000Y25750000D01*
X17200000Y21850000D02*
X17250000Y21800000D01*
X17250000Y43050000D02*
X17250000Y42100000D01*
X51650000Y40925000D02*
X52775000Y42050000D01*
X16100000Y25750000D02*
X16100000Y21850000D01*
X51650000Y16850000D02*
X51600000Y16800000D01*
X17250000Y27900000D02*
X17250000Y28150000D01*
X16000000Y44300000D02*
X17250000Y43050000D01*
X51650000Y39800000D02*
X51650000Y16850000D01*
X17250000Y42100000D02*
X17250000Y40675000D01*
X17700000Y26000000D02*
X17700000Y46700000D01*
X52775000Y46750000D02*
X51200000Y45175000D01*
X17700000Y46700000D02*
X17650000Y46750000D01*
X51200000Y17400000D02*
X51150000Y17350000D01*
X16200000Y46825000D02*
X16125000Y46750000D01*
X4262500Y26887500D02*
X4162500Y26787500D01*
X5875000Y27500000D02*
X4850000Y27500000D01*
X5800000Y25350000D02*
X4262500Y26887500D01*
X17700000Y22000000D02*
X17700000Y21850000D01*
X1115000Y26225000D02*
X-250000Y27590000D01*
X17700000Y25350000D02*
X17700000Y26000000D01*
X17000000Y24650000D02*
X16625000Y24275000D01*
X17000000Y24650000D02*
X17700000Y25350000D01*
X51250000Y44500000D02*
X51200000Y44550000D01*
X3600000Y26225000D02*
X1115000Y26225000D01*
X4162500Y26787500D02*
X3600000Y26225000D01*
X53450000Y44500000D02*
X51250000Y44500000D01*
X4850000Y27500000D02*
X4850000Y27475000D01*
X16100000Y49050000D02*
X16200000Y48950000D01*
X17700000Y17350000D02*
X17700000Y21850000D01*
X16125000Y46750000D02*
X15350000Y46750000D01*
X16200000Y48950000D02*
X16200000Y46825000D01*
X4850000Y27475000D02*
X4262500Y26887500D01*
X16625000Y23075000D02*
X17700000Y22000000D01*
X51200000Y45175000D02*
X51200000Y44550000D01*
X17650000Y46750000D02*
X15350000Y46750000D01*
X16625000Y24275000D02*
X16625000Y23075000D01*
X51150000Y17350000D02*
X17700000Y17350000D01*
X51200000Y44550000D02*
X51200000Y17400000D01*
X53550000Y46750000D02*
X52775000Y46750000D01*
X16650000Y57750000D02*
X16650000Y56250000D01*
X15350000Y56250000D02*
X16125000Y56250000D01*
X50300000Y49650000D02*
X52250000Y51600000D01*
X16650000Y56250000D02*
X18600000Y56250000D01*
X10900000Y23650000D02*
X10900000Y25150000D01*
X19150000Y18750000D02*
X49600000Y18750000D01*
X53550000Y56250000D02*
X53175000Y56250000D01*
X10900000Y25150000D02*
X10191636Y25858364D01*
X16125000Y56250000D02*
X16650000Y56250000D01*
X15250000Y58500000D02*
X15900000Y58500000D01*
X10191636Y25858364D02*
X10191636Y28191636D01*
X52250000Y51600000D02*
X52250000Y55300000D01*
X10650000Y23400000D02*
X10900000Y23650000D01*
X18600000Y56250000D02*
X18600000Y20200000D01*
X19150000Y19650000D02*
X18600000Y20200000D01*
X10650000Y22150000D02*
X10650000Y23400000D01*
X49600000Y18750000D02*
X50300000Y19450000D01*
X53200000Y56250000D02*
X52250000Y55300000D01*
X19150000Y18750000D02*
X19150000Y19650000D01*
X53550000Y56250000D02*
X53200000Y56250000D01*
X15900000Y58500000D02*
X16650000Y57750000D01*
X10191636Y28191636D02*
X10191636Y29158364D01*
X50300000Y19450000D02*
X50300000Y49650000D01*
D19*
X14000000Y49300000D02*
X13850000Y49300000D01*
X13850000Y49300000D02*
X12650000Y50500000D01*
D18*
X52450000Y49150000D02*
X51587500Y50012500D01*
D19*
X5825000Y30600000D02*
X4425000Y29200000D01*
X4425000Y29200000D02*
X3900000Y29200000D01*
D18*
X18933273Y17800000D02*
X50100000Y17800000D01*
X16150000Y51450000D02*
X18150000Y51450000D01*
X15350000Y51450000D02*
X16150000Y51450000D01*
X50750000Y49175000D02*
X51587500Y50012500D01*
X17450000Y23450000D02*
X18150000Y22750000D01*
X17450000Y23450000D02*
X18150000Y24150000D01*
X15900000Y53650000D02*
X16200000Y53350000D01*
X50100000Y17800000D02*
X50750000Y18450000D01*
X18150000Y18583273D02*
X18933273Y17800000D01*
X16200000Y53350000D02*
X16200000Y51500000D01*
X16200000Y51500000D02*
X16150000Y51450000D01*
X18150000Y51450000D02*
X18150000Y24150000D01*
X53550000Y51450000D02*
X53025000Y51450000D01*
X53025000Y51450000D02*
X51587500Y50012500D01*
X53100000Y49150000D02*
X52450000Y49150000D01*
X50750000Y18450000D02*
X50750000Y49175000D01*
D19*
X2290000Y27590000D02*
X3900000Y29200000D01*
D18*
X18150000Y22750000D02*
X18150000Y18583273D01*
D19*
X12800000Y45800000D02*
X14000000Y44600000D01*
X12650000Y45800000D02*
X12800000Y45800000D01*
D18*
X56250000Y57200000D02*
X54750000Y58700000D01*
X56250000Y52400000D02*
X55850000Y52400000D01*
X55850000Y52400000D02*
X54850000Y53400000D01*
X6800000Y18000000D02*
X15050000Y18000000D01*
X52550000Y15913604D02*
X52550000Y32750000D01*
X60650000Y55300000D02*
X56250000Y55300000D01*
X60650000Y45800000D02*
X60650000Y41100000D01*
X5715000Y22510000D02*
X5775000Y22450000D01*
X9050000Y52400000D02*
X9050000Y47700000D01*
X9050000Y38250000D02*
X12600000Y38250000D01*
X9050000Y43050000D02*
X11050000Y43050000D01*
X16250000Y15913604D02*
X16513604Y15650000D01*
X15050000Y22400000D02*
X15050000Y18000000D01*
X11050000Y43050000D02*
X12600000Y43050000D01*
X15050000Y29150000D02*
X9050000Y35150000D01*
X52550000Y32750000D02*
X56250000Y36450000D01*
X60650000Y50500000D02*
X60650000Y55300000D01*
X52286396Y15650000D02*
X52550000Y15913604D01*
X60650000Y41100000D02*
X56250000Y41100000D01*
X9050000Y43050000D02*
X9050000Y38250000D01*
X2290000Y22510000D02*
X5715000Y22510000D01*
X56250000Y36450000D02*
X60650000Y36450000D01*
X14200000Y22400000D02*
X15050000Y22400000D01*
X12650000Y57200000D02*
X9050000Y57200000D01*
X16513604Y15650000D02*
X52286396Y15650000D01*
X57550000Y45800000D02*
X60650000Y45800000D01*
X57550000Y45800000D02*
X56250000Y45800000D01*
X57550000Y50500000D02*
X56250000Y50500000D01*
X60650000Y50500000D02*
X57550000Y50500000D01*
X15050000Y29150000D02*
X15050000Y22400000D01*
X9050000Y35150000D02*
X9050000Y38250000D01*
X9050000Y52400000D02*
X12650000Y52400000D01*
X9050000Y57200000D02*
X9050000Y52400000D01*
X11050000Y47700000D02*
X12650000Y47700000D01*
X60650000Y45800000D02*
X60650000Y50500000D01*
X60650000Y36450000D02*
X60650000Y41100000D01*
X9050000Y47700000D02*
X11050000Y47700000D01*
X15050000Y18000000D02*
X16250000Y18000000D01*
X9050000Y47700000D02*
X9050000Y43050000D01*
X16250000Y18000000D02*
X16250000Y15913604D01*
D19*
X12600000Y36350000D02*
X12700000Y36350000D01*
X12700000Y36350000D02*
X13950000Y35100000D01*
X13200000Y39850000D02*
X12600000Y40450000D01*
X12600000Y40450000D02*
X12600000Y41150000D01*
D18*
X55100000Y39500000D02*
X56250000Y38350000D01*
X54800000Y39500000D02*
X55100000Y39500000D01*
X56250000Y47700000D02*
X55000000Y48950000D01*
X55000000Y44250000D02*
X56250000Y43000000D01*
X54850000Y44250000D02*
X55000000Y44250000D01*
G04 #@! TA.AperFunction,Conductor*
G36*
X72408691Y74080593D02*
G01*
X72444655Y74031093D01*
X72449500Y74000500D01*
X72449500Y49652047D01*
X72430593Y49593856D01*
X72381093Y49557892D01*
X72319907Y49557892D01*
X72270407Y49593856D01*
X72266089Y49600320D01*
X72178432Y49743363D01*
X72178428Y49743368D01*
X72112588Y49820457D01*
X71542089Y49249959D01*
X71509423Y49301948D01*
X71381948Y49429423D01*
X71329956Y49462092D01*
X71900455Y50032590D01*
X71823367Y50098429D01*
X71823362Y50098433D01*
X71608640Y50230015D01*
X71608628Y50230021D01*
X71375957Y50326396D01*
X71375958Y50326396D01*
X71131067Y50385189D01*
X70880000Y50404948D01*
X70628932Y50385189D01*
X70384042Y50326396D01*
X70151371Y50230021D01*
X70151359Y50230015D01*
X69936637Y50098433D01*
X69936633Y50098430D01*
X69859543Y50032590D01*
X70430042Y49462091D01*
X70378052Y49429423D01*
X70250577Y49301948D01*
X70217909Y49249958D01*
X69647410Y49820457D01*
X69581570Y49743367D01*
X69581567Y49743363D01*
X69449985Y49528641D01*
X69449979Y49528629D01*
X69353604Y49295958D01*
X69294811Y49051068D01*
X69275052Y48800000D01*
X69294811Y48548933D01*
X69353604Y48304043D01*
X69449979Y48071372D01*
X69449985Y48071360D01*
X69581567Y47856638D01*
X69581571Y47856633D01*
X69647410Y47779545D01*
X70217908Y48350044D01*
X70250577Y48298052D01*
X70378052Y48170577D01*
X70430041Y48137911D01*
X69859543Y47567412D01*
X69936632Y47501572D01*
X69936637Y47501568D01*
X70151359Y47369986D01*
X70151371Y47369980D01*
X70384042Y47273605D01*
X70384041Y47273605D01*
X70628932Y47214812D01*
X70880000Y47195053D01*
X71131067Y47214812D01*
X71375957Y47273605D01*
X71608628Y47369980D01*
X71608640Y47369986D01*
X71823357Y47501565D01*
X71823370Y47501575D01*
X71900455Y47567412D01*
X71329957Y48137910D01*
X71381948Y48170577D01*
X71509423Y48298052D01*
X71542090Y48350043D01*
X72112588Y47779545D01*
X72178425Y47856630D01*
X72178435Y47856643D01*
X72266089Y47999681D01*
X72312614Y48039418D01*
X72373611Y48044219D01*
X72425780Y48012249D01*
X72449195Y47955722D01*
X72449500Y47947954D01*
X72449500Y44572047D01*
X72430593Y44513856D01*
X72381093Y44477892D01*
X72319907Y44477892D01*
X72270407Y44513856D01*
X72266089Y44520320D01*
X72178432Y44663363D01*
X72178428Y44663368D01*
X72112588Y44740457D01*
X71542089Y44169959D01*
X71509423Y44221948D01*
X71381948Y44349423D01*
X71329956Y44382092D01*
X71900455Y44952590D01*
X71823367Y45018429D01*
X71823362Y45018433D01*
X71608640Y45150015D01*
X71608628Y45150021D01*
X71375957Y45246396D01*
X71375958Y45246396D01*
X71131067Y45305189D01*
X70880000Y45324948D01*
X70628932Y45305189D01*
X70384042Y45246396D01*
X70151371Y45150021D01*
X70151359Y45150015D01*
X69936637Y45018433D01*
X69936633Y45018430D01*
X69859543Y44952590D01*
X70430042Y44382091D01*
X70378052Y44349423D01*
X70250577Y44221948D01*
X70217909Y44169958D01*
X69647410Y44740457D01*
X69581570Y44663367D01*
X69581567Y44663363D01*
X69449985Y44448641D01*
X69449979Y44448629D01*
X69353604Y44215958D01*
X69294811Y43971068D01*
X69275052Y43720000D01*
X69294811Y43468933D01*
X69353604Y43224043D01*
X69449979Y42991372D01*
X69449985Y42991360D01*
X69581567Y42776638D01*
X69581571Y42776633D01*
X69647410Y42699545D01*
X70217908Y43270044D01*
X70250577Y43218052D01*
X70378052Y43090577D01*
X70430041Y43057911D01*
X69859543Y42487412D01*
X69936632Y42421572D01*
X69936637Y42421568D01*
X70151359Y42289986D01*
X70151371Y42289980D01*
X70384042Y42193605D01*
X70384041Y42193605D01*
X70628932Y42134812D01*
X70880000Y42115053D01*
X71131067Y42134812D01*
X71375957Y42193605D01*
X71608628Y42289980D01*
X71608640Y42289986D01*
X71823357Y42421565D01*
X71823370Y42421575D01*
X71900455Y42487412D01*
X71329957Y43057910D01*
X71381948Y43090577D01*
X71509423Y43218052D01*
X71542090Y43270043D01*
X72112588Y42699545D01*
X72178425Y42776630D01*
X72178435Y42776643D01*
X72266089Y42919681D01*
X72312614Y42959418D01*
X72373611Y42964219D01*
X72425780Y42932249D01*
X72449195Y42875722D01*
X72449500Y42867954D01*
X72449500Y-2900500D01*
X72430593Y-2958691D01*
X72381093Y-2994655D01*
X72350500Y-2999500D01*
X-2900500Y-2999500D01*
X-2958691Y-2980593D01*
X-2994655Y-2931093D01*
X-2999500Y-2900500D01*
X-2999500Y-67765D01*
X-1854212Y-67765D01*
X-1824586Y-337020D01*
X-1790003Y-469301D01*
X-1756072Y-599088D01*
X-1650130Y-848390D01*
X-1578001Y-966577D01*
X-1509017Y-1079612D01*
X-1419748Y-1186880D01*
X-1335745Y-1287820D01*
X-1134002Y-1468582D01*
X-911376Y-1615870D01*
X-908087Y-1618046D01*
X-775900Y-1680012D01*
X-662824Y-1733020D01*
X-517372Y-1776780D01*
X-403445Y-1811056D01*
X-403441Y-1811057D01*
X-403431Y-1811060D01*
X-236160Y-1835677D01*
X-135440Y-1850500D01*
X-135439Y-1850500D01*
X67631Y-1850500D01*
X270156Y-1835677D01*
X534553Y-1776780D01*
X787558Y-1680014D01*
X1023777Y-1547441D01*
X1238177Y-1381888D01*
X1426186Y-1186881D01*
X1583799Y-966579D01*
X1707656Y-725675D01*
X1795118Y-469305D01*
X1844319Y-202933D01*
X1849259Y-67765D01*
X67645788Y-67765D01*
X67675414Y-337020D01*
X67709997Y-469301D01*
X67743928Y-599088D01*
X67849870Y-848390D01*
X67921999Y-966577D01*
X67990983Y-1079612D01*
X68080252Y-1186880D01*
X68164255Y-1287820D01*
X68365998Y-1468582D01*
X68588624Y-1615870D01*
X68591913Y-1618046D01*
X68724100Y-1680012D01*
X68837176Y-1733020D01*
X68982628Y-1776780D01*
X69096555Y-1811056D01*
X69096559Y-1811057D01*
X69096569Y-1811060D01*
X69263840Y-1835677D01*
X69364560Y-1850500D01*
X69364561Y-1850500D01*
X69567631Y-1850500D01*
X69770156Y-1835677D01*
X70034553Y-1776780D01*
X70287558Y-1680014D01*
X70523777Y-1547441D01*
X70738177Y-1381888D01*
X70926186Y-1186881D01*
X71083799Y-966579D01*
X71207656Y-725675D01*
X71295118Y-469305D01*
X71344319Y-202933D01*
X71354212Y67765D01*
X71324586Y337018D01*
X71256072Y599088D01*
X71150130Y848390D01*
X71009018Y1079610D01*
X70835745Y1287820D01*
X70730754Y1381892D01*
X70634007Y1468578D01*
X70634004Y1468580D01*
X70634002Y1468582D01*
X70484489Y1567499D01*
X70408086Y1618047D01*
X70162822Y1733021D01*
X69903444Y1811057D01*
X69903428Y1811061D01*
X69635440Y1850500D01*
X69635439Y1850500D01*
X69432369Y1850500D01*
X69229848Y1835678D01*
X68965450Y1776781D01*
X68712439Y1680013D01*
X68476219Y1547439D01*
X68261826Y1381892D01*
X68073814Y1186881D01*
X67916199Y966578D01*
X67792342Y725672D01*
X67704884Y469313D01*
X67704881Y469302D01*
X67655680Y202931D01*
X67645788Y-67765D01*
X1849259Y-67765D01*
X1854212Y67765D01*
X1824586Y337018D01*
X1756072Y599088D01*
X1650130Y848390D01*
X1509018Y1079610D01*
X1335745Y1287820D01*
X1230754Y1381892D01*
X1134007Y1468578D01*
X1134004Y1468580D01*
X1134002Y1468582D01*
X984489Y1567499D01*
X908086Y1618047D01*
X662822Y1733021D01*
X403444Y1811057D01*
X403428Y1811061D01*
X135440Y1850500D01*
X135439Y1850500D01*
X-67631Y1850500D01*
X-270152Y1835678D01*
X-534550Y1776781D01*
X-787561Y1680013D01*
X-1023781Y1547439D01*
X-1238174Y1381892D01*
X-1426186Y1186881D01*
X-1583801Y966578D01*
X-1707658Y725672D01*
X-1795116Y469313D01*
X-1795119Y469302D01*
X-1844320Y202931D01*
X-1854212Y-67765D01*
X-2999500Y-67765D01*
X-2999500Y10799997D01*
X-1555004Y10799997D01*
X-1535028Y10571660D01*
X-1475699Y10350238D01*
X-1378833Y10142508D01*
X-1378829Y10142501D01*
X-1267965Y9984170D01*
X-692052Y10560084D01*
X-629395Y10462587D01*
X-518562Y10366549D01*
X-479266Y10348604D01*
X-1055832Y9772037D01*
X-897500Y9661172D01*
X-897493Y9661168D01*
X-689762Y9564302D01*
X-689763Y9564302D01*
X-468341Y9504973D01*
X-240003Y9484996D01*
X-239997Y9484996D01*
X-11660Y9504973D01*
X209762Y9564302D01*
X417493Y9661169D01*
X417503Y9661174D01*
X575830Y9772037D01*
X-736Y10348603D01*
X38562Y10366549D01*
X149395Y10462587D01*
X212051Y10560082D01*
X787963Y9984170D01*
X898826Y10142497D01*
X898826Y10142498D01*
X939999Y10230793D01*
X981727Y10275541D01*
X1041789Y10287216D01*
X1097241Y10261358D01*
X1119449Y10230793D01*
X1160619Y10142501D01*
X1160738Y10142247D01*
X1292264Y9954409D01*
X1454409Y9792264D01*
X1642247Y9660738D01*
X1850070Y9563829D01*
X2071565Y9504479D01*
X2071569Y9504479D01*
X2071572Y9504478D01*
X2299997Y9484494D01*
X2300000Y9484494D01*
X2300003Y9484494D01*
X2528427Y9504478D01*
X2528428Y9504479D01*
X2528435Y9504479D01*
X2749930Y9563829D01*
X2957753Y9660738D01*
X3145591Y9792264D01*
X3307736Y9954409D01*
X3439262Y10142247D01*
X3536171Y10350070D01*
X3595521Y10571565D01*
X3595530Y10571660D01*
X3615506Y10799997D01*
X3615506Y10800004D01*
X3595522Y11028428D01*
X3595521Y11028431D01*
X3595521Y11028435D01*
X3536171Y11249930D01*
X3439262Y11457753D01*
X3307736Y11645591D01*
X3145591Y11807736D01*
X3145587Y11807739D01*
X3145586Y11807740D01*
X2958371Y11938829D01*
X2957753Y11939262D01*
X2749930Y12036171D01*
X2528435Y12095521D01*
X2528434Y12095522D01*
X2528427Y12095523D01*
X2300003Y12115506D01*
X2299997Y12115506D01*
X2071572Y12095523D01*
X2071565Y12095521D01*
X1850070Y12036171D01*
X1753162Y11990983D01*
X1642248Y11939263D01*
X1454413Y11807740D01*
X1292260Y11645587D01*
X1160737Y11457752D01*
X1119449Y11369208D01*
X1077720Y11324460D01*
X1017659Y11312785D01*
X962206Y11338643D01*
X939999Y11369208D01*
X898827Y11457501D01*
X787963Y11615832D01*
X212050Y11039920D01*
X149395Y11137413D01*
X38562Y11233451D01*
X-737Y11251399D01*
X575830Y11827965D01*
X417499Y11938829D01*
X417492Y11938833D01*
X209761Y12035699D01*
X209762Y12035699D01*
X-11660Y12095028D01*
X-239997Y12115004D01*
X-240003Y12115004D01*
X-468341Y12095028D01*
X-689763Y12035699D01*
X-897493Y11938833D01*
X-897500Y11938829D01*
X-1055832Y11827965D01*
X-479265Y11251398D01*
X-518562Y11233451D01*
X-629395Y11137413D01*
X-692052Y11039919D01*
X-1267965Y11615832D01*
X-1378829Y11457500D01*
X-1378833Y11457493D01*
X-1475699Y11249763D01*
X-1535028Y11028341D01*
X-1555004Y10800004D01*
X-1555004Y10799997D01*
X-2999500Y10799997D01*
X-2999500Y19970000D01*
X-1404927Y19970000D01*
X-1385262Y19757784D01*
X-1326936Y19552790D01*
X-1231941Y19362013D01*
X-1231932Y19361998D01*
X-1162319Y19269817D01*
X-694817Y19737319D01*
X-631761Y19639202D01*
X-523100Y19545048D01*
X-481720Y19526150D01*
X-953073Y19054796D01*
X-945997Y19048347D01*
X-945995Y19048346D01*
X-764798Y18936154D01*
X-764796Y18936153D01*
X-566059Y18859162D01*
X-356563Y18820000D01*
X-143437Y18820000D01*
X66058Y18859162D01*
X264793Y18936153D01*
X446001Y19048351D01*
X453071Y19054796D01*
X-18283Y19526150D01*
X23100Y19545048D01*
X131761Y19639202D01*
X194815Y19737318D01*
X662316Y19269817D01*
X731937Y19362008D01*
X731942Y19362017D01*
X826935Y19552790D01*
X885261Y19757784D01*
X904926Y19970000D01*
X1134571Y19970000D01*
X1154227Y19757868D01*
X1154244Y19757690D01*
X1212595Y19552611D01*
X1307634Y19361745D01*
X1436128Y19191593D01*
X1436135Y19191587D01*
X1593692Y19047953D01*
X1593693Y19047953D01*
X1593698Y19047948D01*
X1692619Y18986699D01*
X1732138Y18939992D01*
X1739500Y18902529D01*
X1739500Y17661472D01*
X1720593Y17603281D01*
X1700320Y17582589D01*
X1582082Y17492926D01*
X1582075Y17492919D01*
X1490640Y17372344D01*
X1490637Y17372340D01*
X1435123Y17231566D01*
X1424500Y17143107D01*
X1424500Y15756894D01*
X1435123Y15668435D01*
X1490637Y15527661D01*
X1490638Y15527659D01*
X1490639Y15527658D01*
X1582078Y15407078D01*
X1702658Y15315639D01*
X1702659Y15315639D01*
X1702660Y15315638D01*
X1738580Y15301473D01*
X1843436Y15260123D01*
X1931898Y15249500D01*
X1931900Y15249500D01*
X2668100Y15249500D01*
X2668102Y15249500D01*
X2756564Y15260123D01*
X2897342Y15315639D01*
X3017922Y15407078D01*
X3096592Y15510820D01*
X3146818Y15545762D01*
X3175475Y15550000D01*
X4375152Y15550000D01*
X4433343Y15531093D01*
X4454036Y15510820D01*
X4532435Y15407436D01*
X4652904Y15316081D01*
X4793556Y15260614D01*
X4881935Y15250001D01*
X4881942Y15250000D01*
X5099999Y15250000D01*
X5100000Y15250001D01*
X5400000Y15250001D01*
X5400001Y15250000D01*
X5618058Y15250000D01*
X5618064Y15250001D01*
X5706443Y15260614D01*
X5847095Y15316081D01*
X5967564Y15407436D01*
X6058919Y15527905D01*
X6114386Y15668557D01*
X6124999Y15756936D01*
X6125000Y15756942D01*
X6125000Y16299999D01*
X6124999Y16300000D01*
X5400001Y16300000D01*
X5400000Y16299999D01*
X5400000Y15250001D01*
X5100000Y15250001D01*
X5100000Y16600001D01*
X5400000Y16600001D01*
X5400001Y16600000D01*
X6124999Y16600000D01*
X6125000Y16600001D01*
X6125000Y17143059D01*
X6124999Y17143065D01*
X6114386Y17231444D01*
X6058919Y17372096D01*
X5967564Y17492565D01*
X5847095Y17583920D01*
X5706443Y17639387D01*
X5618064Y17650000D01*
X5400001Y17650000D01*
X5400000Y17649999D01*
X5400000Y16600001D01*
X5100000Y16600001D01*
X5100000Y17649999D01*
X5099999Y17650000D01*
X4881935Y17650000D01*
X4793556Y17639387D01*
X4652904Y17583920D01*
X4532435Y17492565D01*
X4454036Y17389180D01*
X4403809Y17354238D01*
X4375152Y17350000D01*
X3175475Y17350000D01*
X3117284Y17368907D01*
X3096592Y17389180D01*
X3017922Y17492922D01*
X3010145Y17498820D01*
X2897340Y17584363D01*
X2891438Y17587681D01*
X2892996Y17590453D01*
X2855964Y17621027D01*
X2840500Y17674156D01*
X2840500Y18902529D01*
X2859407Y18960720D01*
X2887379Y18986698D01*
X2986302Y19047948D01*
X3143872Y19191593D01*
X3272366Y19361745D01*
X3367405Y19552611D01*
X3425756Y19757690D01*
X3445429Y19970000D01*
X3425756Y20182310D01*
X3367405Y20387389D01*
X3272366Y20578255D01*
X3143872Y20748407D01*
X2993812Y20885206D01*
X2986307Y20892048D01*
X2986300Y20892054D01*
X2805024Y21004295D01*
X2805019Y21004298D01*
X2606195Y21081322D01*
X2396610Y21120500D01*
X2183390Y21120500D01*
X1973804Y21081322D01*
X1774980Y21004298D01*
X1774975Y21004295D01*
X1593699Y20892054D01*
X1593692Y20892048D01*
X1436135Y20748414D01*
X1436131Y20748411D01*
X1436128Y20748407D01*
X1436125Y20748403D01*
X1307635Y20578257D01*
X1307630Y20578248D01*
X1212596Y20387392D01*
X1154244Y20182312D01*
X1134571Y19970000D01*
X904926Y19970000D01*
X885261Y20182217D01*
X826935Y20387211D01*
X731940Y20577988D01*
X731935Y20577997D01*
X662316Y20670185D01*
X194814Y20202684D01*
X131761Y20300798D01*
X23100Y20394952D01*
X-18284Y20413852D01*
X453071Y20885206D01*
X445996Y20891654D01*
X264797Y21003847D01*
X264795Y21003848D01*
X66058Y21080839D01*
X-143437Y21120000D01*
X-356563Y21120000D01*
X-566059Y21080839D01*
X-764796Y21003848D01*
X-764798Y21003847D01*
X-945998Y20891653D01*
X-953073Y20885206D01*
X-481718Y20413851D01*
X-523100Y20394952D01*
X-631761Y20300798D01*
X-694816Y20202683D01*
X-1162318Y20670185D01*
X-1231938Y20577993D01*
X-1231943Y20577984D01*
X-1326936Y20387211D01*
X-1385262Y20182217D01*
X-1404927Y19970000D01*
X-2999500Y19970000D01*
X-2999500Y22510000D01*
X-1405429Y22510000D01*
X-1385756Y22297689D01*
X-1363863Y22220745D01*
X-1327405Y22092611D01*
X-1232366Y21901745D01*
X-1103872Y21731593D01*
X-1103865Y21731587D01*
X-946308Y21587953D01*
X-946301Y21587947D01*
X-849334Y21527908D01*
X-765019Y21475702D01*
X-566198Y21398679D01*
X-356610Y21359500D01*
X-143390Y21359500D01*
X66198Y21398679D01*
X265019Y21475702D01*
X446302Y21587948D01*
X603872Y21731593D01*
X732366Y21901745D01*
X827405Y22092611D01*
X885756Y22297690D01*
X905429Y22510000D01*
X1134571Y22510000D01*
X1154244Y22297689D01*
X1176137Y22220745D01*
X1212595Y22092611D01*
X1307634Y21901745D01*
X1436128Y21731593D01*
X1436135Y21731587D01*
X1593692Y21587953D01*
X1593699Y21587947D01*
X1690666Y21527908D01*
X1774981Y21475702D01*
X1973802Y21398679D01*
X2183390Y21359500D01*
X2396610Y21359500D01*
X2606198Y21398679D01*
X2805019Y21475702D01*
X2986302Y21587948D01*
X3143872Y21731593D01*
X3272366Y21901745D01*
X3336043Y22029627D01*
X3378905Y22073290D01*
X3424664Y22084500D01*
X4800500Y22084500D01*
X4858691Y22065593D01*
X4894655Y22016093D01*
X4899500Y21985500D01*
X4899500Y21756894D01*
X4910123Y21668435D01*
X4965637Y21527661D01*
X4965638Y21527659D01*
X4965639Y21527658D01*
X5057078Y21407078D01*
X5177658Y21315639D01*
X5177659Y21315639D01*
X5177660Y21315638D01*
X5286819Y21272591D01*
X5334016Y21233655D01*
X5349500Y21180494D01*
X5349500Y19092393D01*
X5349500Y18957607D01*
X5355224Y18939992D01*
X5357569Y18932775D01*
X5361195Y18917671D01*
X5365281Y18891874D01*
X5365281Y18891873D01*
X5377135Y18868609D01*
X5383079Y18854259D01*
X5391150Y18829421D01*
X5391151Y18829419D01*
X5406497Y18808298D01*
X5414615Y18795050D01*
X5426470Y18771782D01*
X5426471Y18771780D01*
X5450445Y18747806D01*
X5450446Y18747806D01*
X6451472Y17746780D01*
X6451471Y17746780D01*
X6546778Y17651473D01*
X6546779Y17651473D01*
X6546780Y17651472D01*
X6570050Y17639616D01*
X6583284Y17631506D01*
X6604419Y17616151D01*
X6629253Y17608083D01*
X6643604Y17602138D01*
X6666536Y17590453D01*
X6666874Y17590281D01*
X6692666Y17586197D01*
X6707776Y17582569D01*
X6732607Y17574500D01*
X6766512Y17574500D01*
X15008721Y17574500D01*
X15024207Y17573282D01*
X15050000Y17569196D01*
X15075792Y17573282D01*
X15091279Y17574500D01*
X15725500Y17574500D01*
X15783691Y17555593D01*
X15819655Y17506093D01*
X15824500Y17475500D01*
X15824500Y15980997D01*
X15824500Y15846211D01*
X15832566Y15821388D01*
X15832569Y15821379D01*
X15836195Y15806275D01*
X15840281Y15780478D01*
X15840281Y15780477D01*
X15852135Y15757213D01*
X15858079Y15742863D01*
X15866150Y15718025D01*
X15881497Y15696902D01*
X15889615Y15683654D01*
X15901470Y15660386D01*
X15901471Y15660384D01*
X15925445Y15636410D01*
X15925446Y15636410D01*
X16165076Y15396780D01*
X16165075Y15396780D01*
X16260382Y15301473D01*
X16260383Y15301473D01*
X16260384Y15301472D01*
X16283654Y15289616D01*
X16296888Y15281506D01*
X16318023Y15266151D01*
X16342857Y15258083D01*
X16357208Y15252138D01*
X16380476Y15240282D01*
X16380478Y15240281D01*
X16406270Y15236197D01*
X16421379Y15232569D01*
X16446211Y15224500D01*
X52353790Y15224500D01*
X52363271Y15227582D01*
X52378618Y15232569D01*
X52393724Y15236197D01*
X52419522Y15240281D01*
X52442801Y15252144D01*
X52457134Y15258080D01*
X52481977Y15266151D01*
X52503103Y15281502D01*
X52516346Y15289617D01*
X52539616Y15301472D01*
X52634924Y15396780D01*
X52874553Y15636409D01*
X52874554Y15636410D01*
X52898528Y15660384D01*
X52910385Y15683657D01*
X52918494Y15696890D01*
X52933849Y15718023D01*
X52941920Y15742866D01*
X52947856Y15757199D01*
X52959719Y15780478D01*
X52963803Y15806276D01*
X52967431Y15821382D01*
X52975500Y15846211D01*
X52975500Y15980997D01*
X52975500Y32532746D01*
X52994407Y32590937D01*
X53004490Y32602744D01*
X56222251Y35820506D01*
X56276768Y35848282D01*
X56292255Y35849501D01*
X56819861Y35849501D01*
X56819864Y35849501D01*
X56844991Y35852415D01*
X56947765Y35897794D01*
X57027206Y35977235D01*
X57027206Y35977236D01*
X57027208Y35977237D01*
X57030094Y35981449D01*
X57078578Y36018771D01*
X57111768Y36024500D01*
X60608721Y36024500D01*
X60624207Y36023282D01*
X60650000Y36019196D01*
X60783126Y36040281D01*
X60903220Y36101472D01*
X60998528Y36196780D01*
X61059719Y36316874D01*
X61075500Y36416512D01*
X61080804Y36450000D01*
X61076719Y36475793D01*
X61075500Y36491280D01*
X61075500Y37785493D01*
X61094407Y37843684D01*
X61143907Y37879648D01*
X61205093Y37879648D01*
X61244504Y37855497D01*
X61250000Y37850001D01*
X61250000Y37850000D01*
X61250001Y37850000D01*
X62899999Y37850000D01*
X62900000Y37850000D01*
X62900000Y43720000D01*
X64195052Y43720000D01*
X64214811Y43468933D01*
X64273604Y43224043D01*
X64369979Y42991372D01*
X64369985Y42991360D01*
X64501567Y42776638D01*
X64501571Y42776633D01*
X64567410Y42699545D01*
X65137908Y43270044D01*
X65170577Y43218052D01*
X65298052Y43090577D01*
X65350041Y43057911D01*
X64779543Y42487412D01*
X64856632Y42421572D01*
X64856637Y42421568D01*
X65071359Y42289986D01*
X65071371Y42289980D01*
X65304042Y42193605D01*
X65304041Y42193605D01*
X65548932Y42134812D01*
X65800000Y42115053D01*
X66051067Y42134812D01*
X66295957Y42193605D01*
X66528628Y42289980D01*
X66528640Y42289986D01*
X66743357Y42421565D01*
X66743370Y42421575D01*
X66820455Y42487412D01*
X66249957Y43057910D01*
X66301948Y43090577D01*
X66429423Y43218052D01*
X66462090Y43270043D01*
X67032588Y42699545D01*
X67098425Y42776630D01*
X67098435Y42776643D01*
X67230014Y42991360D01*
X67230020Y42991372D01*
X67326395Y43224043D01*
X67385188Y43468933D01*
X67404947Y43720000D01*
X67385188Y43971068D01*
X67326395Y44215958D01*
X67230020Y44448629D01*
X67230014Y44448641D01*
X67098432Y44663363D01*
X67098428Y44663368D01*
X67032588Y44740457D01*
X66462089Y44169959D01*
X66429423Y44221948D01*
X66301948Y44349423D01*
X66249956Y44382092D01*
X66820455Y44952590D01*
X66743367Y45018429D01*
X66743362Y45018433D01*
X66528640Y45150015D01*
X66528628Y45150021D01*
X66295957Y45246396D01*
X66295958Y45246396D01*
X66051067Y45305189D01*
X65800000Y45324948D01*
X65548932Y45305189D01*
X65304042Y45246396D01*
X65071371Y45150021D01*
X65071359Y45150015D01*
X64856637Y45018433D01*
X64856633Y45018430D01*
X64779543Y44952590D01*
X65350042Y44382091D01*
X65298052Y44349423D01*
X65170577Y44221948D01*
X65137909Y44169958D01*
X64567410Y44740457D01*
X64501570Y44663367D01*
X64501567Y44663363D01*
X64369985Y44448641D01*
X64369979Y44448629D01*
X64273604Y44215958D01*
X64214811Y43971068D01*
X64195052Y43720000D01*
X62900000Y43720000D01*
X62900000Y46335000D01*
X66884706Y46335000D01*
X66903853Y46091700D01*
X66960828Y45854387D01*
X66960829Y45854384D01*
X67054219Y45628919D01*
X67054224Y45628908D01*
X67181739Y45420824D01*
X67181745Y45420816D01*
X67335507Y45240783D01*
X67340241Y45235241D01*
X67340247Y45235236D01*
X67340250Y45235233D01*
X67525815Y45076746D01*
X67525821Y45076741D01*
X67560377Y45055565D01*
X67733907Y44949225D01*
X67733918Y44949220D01*
X67930861Y44867644D01*
X67959388Y44855828D01*
X68196698Y44798854D01*
X68440000Y44779706D01*
X68683302Y44798854D01*
X68920612Y44855828D01*
X69146089Y44949223D01*
X69354179Y45076741D01*
X69539759Y45235241D01*
X69698259Y45420821D01*
X69825777Y45628911D01*
X69919172Y45854388D01*
X69976146Y46091698D01*
X69995294Y46335000D01*
X69976146Y46578302D01*
X69919172Y46815612D01*
X69919170Y46815617D01*
X69825780Y47041082D01*
X69825775Y47041093D01*
X69731823Y47194407D01*
X69698259Y47249179D01*
X69629122Y47330128D01*
X69539767Y47434750D01*
X69539764Y47434753D01*
X69539759Y47434759D01*
X69539752Y47434765D01*
X69539749Y47434768D01*
X69354184Y47593255D01*
X69354176Y47593261D01*
X69146092Y47720776D01*
X69146081Y47720781D01*
X68920616Y47814171D01*
X68920613Y47814172D01*
X68683300Y47871147D01*
X68440000Y47890294D01*
X68196699Y47871147D01*
X67959386Y47814172D01*
X67959383Y47814171D01*
X67733918Y47720781D01*
X67733907Y47720776D01*
X67525823Y47593261D01*
X67525815Y47593255D01*
X67340250Y47434768D01*
X67340232Y47434750D01*
X67181745Y47249185D01*
X67181739Y47249177D01*
X67054224Y47041093D01*
X67054219Y47041082D01*
X66960829Y46815617D01*
X66960828Y46815614D01*
X66903853Y46578301D01*
X66884706Y46335000D01*
X62900000Y46335000D01*
X62900000Y48800000D01*
X64195052Y48800000D01*
X64214811Y48548933D01*
X64273604Y48304043D01*
X64369979Y48071372D01*
X64369985Y48071360D01*
X64501567Y47856638D01*
X64501571Y47856633D01*
X64567410Y47779545D01*
X65137908Y48350044D01*
X65170577Y48298052D01*
X65298052Y48170577D01*
X65350041Y48137911D01*
X64779543Y47567412D01*
X64856632Y47501572D01*
X64856637Y47501568D01*
X65071359Y47369986D01*
X65071371Y47369980D01*
X65304042Y47273605D01*
X65304041Y47273605D01*
X65548932Y47214812D01*
X65800000Y47195053D01*
X66051067Y47214812D01*
X66295957Y47273605D01*
X66528628Y47369980D01*
X66528640Y47369986D01*
X66743357Y47501565D01*
X66743370Y47501575D01*
X66820455Y47567412D01*
X66249957Y48137910D01*
X66301948Y48170577D01*
X66429423Y48298052D01*
X66462090Y48350043D01*
X67032588Y47779545D01*
X67098425Y47856630D01*
X67098435Y47856643D01*
X67230014Y48071360D01*
X67230020Y48071372D01*
X67326395Y48304043D01*
X67385188Y48548933D01*
X67404947Y48800000D01*
X67385188Y49051068D01*
X67326395Y49295958D01*
X67230020Y49528629D01*
X67230014Y49528641D01*
X67098432Y49743363D01*
X67098428Y49743368D01*
X67032588Y49820457D01*
X66462089Y49249959D01*
X66429423Y49301948D01*
X66301948Y49429423D01*
X66249956Y49462092D01*
X66820455Y50032590D01*
X66743367Y50098429D01*
X66743362Y50098433D01*
X66528640Y50230015D01*
X66528628Y50230021D01*
X66295957Y50326396D01*
X66295958Y50326396D01*
X66051067Y50385189D01*
X65800000Y50404948D01*
X65548932Y50385189D01*
X65304042Y50326396D01*
X65071371Y50230021D01*
X65071359Y50230015D01*
X64856637Y50098433D01*
X64856633Y50098430D01*
X64779543Y50032590D01*
X65350042Y49462091D01*
X65298052Y49429423D01*
X65170577Y49301948D01*
X65137909Y49249958D01*
X64567410Y49820457D01*
X64501570Y49743367D01*
X64501567Y49743363D01*
X64369985Y49528641D01*
X64369979Y49528629D01*
X64273604Y49295958D01*
X64214811Y49051068D01*
X64195052Y48800000D01*
X62900000Y48800000D01*
X62900000Y54950000D01*
X61250000Y54950000D01*
X61250000Y54949999D01*
X61244504Y54944503D01*
X61189987Y54916726D01*
X61129555Y54926297D01*
X61086290Y54969562D01*
X61075500Y55014507D01*
X61075500Y55258722D01*
X61076719Y55274210D01*
X61080804Y55300001D01*
X61076835Y55325055D01*
X61059719Y55433126D01*
X60998528Y55553220D01*
X60903220Y55648528D01*
X60903217Y55648530D01*
X60783132Y55709717D01*
X60783127Y55709719D01*
X60783126Y55709719D01*
X60683488Y55725500D01*
X60650000Y55730804D01*
X60624207Y55726719D01*
X60608721Y55725500D01*
X57111768Y55725500D01*
X57053577Y55744407D01*
X57030094Y55768551D01*
X57027208Y55772764D01*
X56947766Y55852205D01*
X56947765Y55852206D01*
X56844991Y55897585D01*
X56844990Y55897586D01*
X56844988Y55897586D01*
X56819868Y55900500D01*
X55680139Y55900500D01*
X55680136Y55900499D01*
X55655009Y55897586D01*
X55552235Y55852206D01*
X55472794Y55772765D01*
X55427414Y55669989D01*
X55424500Y55644870D01*
X55424500Y54955140D01*
X55424501Y54955137D01*
X55427414Y54930010D01*
X55433280Y54916726D01*
X55472794Y54827235D01*
X55552235Y54747794D01*
X55655009Y54702415D01*
X55680135Y54699500D01*
X56819864Y54699501D01*
X56844991Y54702415D01*
X56947765Y54747794D01*
X57027206Y54827235D01*
X57027206Y54827236D01*
X57027208Y54827237D01*
X57030094Y54831449D01*
X57078578Y54868771D01*
X57111768Y54874500D01*
X58235493Y54874500D01*
X58293684Y54855593D01*
X58329648Y54806093D01*
X58329648Y54744907D01*
X58305497Y54705496D01*
X58300001Y54700000D01*
X58300000Y54700000D01*
X58300000Y51100000D01*
X58300001Y51100000D01*
X58305497Y51094504D01*
X58333274Y51039987D01*
X58323703Y50979555D01*
X58280438Y50936290D01*
X58235493Y50925500D01*
X57111768Y50925500D01*
X57053577Y50944407D01*
X57030094Y50968551D01*
X57027208Y50972764D01*
X56947766Y51052205D01*
X56947765Y51052206D01*
X56844991Y51097585D01*
X56844990Y51097586D01*
X56844988Y51097586D01*
X56819868Y51100500D01*
X55680139Y51100500D01*
X55680136Y51100499D01*
X55655009Y51097586D01*
X55552235Y51052206D01*
X55472794Y50972765D01*
X55427414Y50869989D01*
X55424500Y50844870D01*
X55424500Y50155140D01*
X55424501Y50155137D01*
X55427414Y50130010D01*
X55447126Y50085368D01*
X55472794Y50027235D01*
X55552235Y49947794D01*
X55655009Y49902415D01*
X55680135Y49899500D01*
X56819864Y49899501D01*
X56844991Y49902415D01*
X56947765Y49947794D01*
X57027206Y50027235D01*
X57027206Y50027236D01*
X57027208Y50027237D01*
X57030094Y50031449D01*
X57078578Y50068771D01*
X57111768Y50074500D01*
X57516512Y50074500D01*
X58235493Y50074500D01*
X58293684Y50055593D01*
X58329648Y50006093D01*
X58329648Y49944907D01*
X58305497Y49905496D01*
X58300001Y49900000D01*
X58300000Y49900000D01*
X58300000Y46400000D01*
X58300001Y46400000D01*
X58305497Y46394504D01*
X58333274Y46339987D01*
X58323703Y46279555D01*
X58280438Y46236290D01*
X58235493Y46225500D01*
X57111768Y46225500D01*
X57053577Y46244407D01*
X57030094Y46268551D01*
X57027208Y46272764D01*
X56947766Y46352205D01*
X56947765Y46352206D01*
X56844991Y46397585D01*
X56844990Y46397586D01*
X56844988Y46397586D01*
X56819868Y46400500D01*
X55680139Y46400500D01*
X55680136Y46400499D01*
X55655009Y46397586D01*
X55552235Y46352206D01*
X55472794Y46272765D01*
X55427414Y46169989D01*
X55424500Y46144870D01*
X55424500Y45455140D01*
X55424501Y45455137D01*
X55427414Y45430010D01*
X55431474Y45420816D01*
X55472794Y45327235D01*
X55552235Y45247794D01*
X55655009Y45202415D01*
X55680135Y45199500D01*
X56819864Y45199501D01*
X56844991Y45202415D01*
X56947765Y45247794D01*
X57027206Y45327235D01*
X57027206Y45327236D01*
X57027208Y45327237D01*
X57030094Y45331449D01*
X57078578Y45368771D01*
X57111768Y45374500D01*
X57516512Y45374500D01*
X58185493Y45374500D01*
X58243684Y45355593D01*
X58279648Y45306093D01*
X58279648Y45244907D01*
X58255497Y45205496D01*
X58250001Y45200000D01*
X58250000Y45200000D01*
X58250000Y41700000D01*
X58250001Y41700000D01*
X58255497Y41694504D01*
X58283274Y41639987D01*
X58273703Y41579555D01*
X58230438Y41536290D01*
X58185493Y41525500D01*
X57111768Y41525500D01*
X57053577Y41544407D01*
X57030094Y41568551D01*
X57027208Y41572764D01*
X56947766Y41652205D01*
X56947765Y41652206D01*
X56844991Y41697585D01*
X56844990Y41697586D01*
X56844988Y41697586D01*
X56819868Y41700500D01*
X55680139Y41700500D01*
X55680136Y41700499D01*
X55655009Y41697586D01*
X55552235Y41652206D01*
X55472794Y41572765D01*
X55427414Y41469989D01*
X55424500Y41444870D01*
X55424500Y40755140D01*
X55424501Y40755137D01*
X55427414Y40730010D01*
X55436917Y40708488D01*
X55472794Y40627235D01*
X55552235Y40547794D01*
X55655009Y40502415D01*
X55680135Y40499500D01*
X56819864Y40499501D01*
X56844991Y40502415D01*
X56947765Y40547794D01*
X57027206Y40627235D01*
X57027206Y40627236D01*
X57027208Y40627237D01*
X57030094Y40631449D01*
X57078578Y40668771D01*
X57111768Y40674500D01*
X58085493Y40674500D01*
X58143684Y40655593D01*
X58179648Y40606093D01*
X58179648Y40544907D01*
X58155497Y40505496D01*
X58150001Y40500000D01*
X58150000Y40500000D01*
X58150000Y37050000D01*
X58150001Y37050000D01*
X58155497Y37044504D01*
X58183274Y36989987D01*
X58173703Y36929555D01*
X58130438Y36886290D01*
X58085493Y36875500D01*
X57111768Y36875500D01*
X57053577Y36894407D01*
X57030094Y36918551D01*
X57027208Y36922764D01*
X56947766Y37002205D01*
X56947765Y37002206D01*
X56844991Y37047585D01*
X56844990Y37047586D01*
X56844988Y37047586D01*
X56819868Y37050500D01*
X55680139Y37050500D01*
X55680136Y37050499D01*
X55655009Y37047586D01*
X55552235Y37002206D01*
X55472794Y36922765D01*
X55427414Y36819989D01*
X55424500Y36794870D01*
X55424500Y36267257D01*
X55405593Y36209066D01*
X55395504Y36197253D01*
X54560315Y35362064D01*
X54505798Y35334287D01*
X54445366Y35343858D01*
X54402101Y35387123D01*
X54391933Y35420982D01*
X54385368Y35479255D01*
X54383581Y35484361D01*
X54342326Y35602262D01*
X54325789Y35649522D01*
X54317698Y35662399D01*
X54241882Y35783060D01*
X54226932Y35842391D01*
X54249711Y35899178D01*
X54255694Y35905724D01*
X54327206Y35977235D01*
X54372585Y36080009D01*
X54375500Y36105135D01*
X54375499Y36794864D01*
X54372585Y36819991D01*
X54343874Y36885014D01*
X54337666Y36945882D01*
X54343871Y36964978D01*
X54372585Y37030009D01*
X54375500Y37055135D01*
X54375499Y37744864D01*
X54372585Y37769991D01*
X54343601Y37835632D01*
X54337394Y37896501D01*
X54343602Y37915607D01*
X54372090Y37980128D01*
X54374999Y38005203D01*
X54375000Y38005205D01*
X54375000Y38199999D01*
X54374999Y38200000D01*
X52725002Y38200000D01*
X52725001Y38199999D01*
X52725001Y38005209D01*
X52727909Y37980126D01*
X52727910Y37980124D01*
X52734814Y37964489D01*
X52741023Y37903620D01*
X52710268Y37850726D01*
X52654296Y37826011D01*
X52644250Y37825500D01*
X52332606Y37825500D01*
X52307765Y37817429D01*
X52292665Y37813804D01*
X52266872Y37809719D01*
X52243601Y37797862D01*
X52229253Y37791919D01*
X52205094Y37784069D01*
X52143908Y37784068D01*
X52094408Y37820031D01*
X52075500Y37878222D01*
X52075500Y39275500D01*
X52094407Y39333691D01*
X52143907Y39369655D01*
X52174500Y39374500D01*
X52917235Y39374500D01*
X52975426Y39355593D01*
X53001060Y39328172D01*
X53020179Y39297744D01*
X53020182Y39297741D01*
X53020184Y39297738D01*
X53147738Y39170184D01*
X53147741Y39170182D01*
X53147740Y39170182D01*
X53207193Y39132826D01*
X53246405Y39085857D01*
X53250521Y39024811D01*
X53217969Y38973003D01*
X53161182Y38950224D01*
X53154523Y38950000D01*
X52980210Y38950000D01*
X52980208Y38949999D01*
X52955125Y38947091D01*
X52852522Y38901787D01*
X52773213Y38822478D01*
X52727909Y38719873D01*
X52725000Y38694798D01*
X52725000Y38500001D01*
X52725001Y38500000D01*
X54374998Y38500000D01*
X54374999Y38500001D01*
X54374999Y38694790D01*
X54374998Y38694792D01*
X54371232Y38727274D01*
X54374440Y38727647D01*
X54376722Y38774825D01*
X54415034Y38822530D01*
X54474070Y38838605D01*
X54521960Y38823547D01*
X54599500Y38774825D01*
X54600478Y38774211D01*
X54656392Y38754646D01*
X54770738Y38714634D01*
X54770742Y38714633D01*
X54770745Y38714632D01*
X54950000Y38694435D01*
X55129255Y38714632D01*
X55184890Y38734101D01*
X55246059Y38735474D01*
X55287592Y38710660D01*
X55395504Y38602748D01*
X55423281Y38548231D01*
X55424500Y38532744D01*
X55424500Y38005140D01*
X55424501Y38005137D01*
X55427414Y37980010D01*
X55439691Y37952206D01*
X55472794Y37877235D01*
X55552235Y37797794D01*
X55655009Y37752415D01*
X55680135Y37749500D01*
X56819864Y37749501D01*
X56844991Y37752415D01*
X56947765Y37797794D01*
X57027206Y37877235D01*
X57072585Y37980009D01*
X57075500Y38005135D01*
X57075499Y38694864D01*
X57072585Y38719991D01*
X57027206Y38822765D01*
X56947765Y38902206D01*
X56844991Y38947585D01*
X56844990Y38947586D01*
X56844988Y38947586D01*
X56819869Y38950500D01*
X56819865Y38950500D01*
X56292256Y38950500D01*
X56234065Y38969407D01*
X56222252Y38979496D01*
X55783826Y39417922D01*
X55756049Y39472439D01*
X55755454Y39499017D01*
X55755565Y39500000D01*
X55735368Y39679255D01*
X55725457Y39707578D01*
X55682683Y39829819D01*
X55675789Y39849522D01*
X55675203Y39850454D01*
X55579818Y40002259D01*
X55579817Y40002260D01*
X55579816Y40002262D01*
X55452262Y40129816D01*
X55452259Y40129818D01*
X55452258Y40129819D01*
X55299523Y40225789D01*
X55129261Y40285367D01*
X55129257Y40285368D01*
X54950000Y40305565D01*
X54770742Y40285368D01*
X54770738Y40285367D01*
X54600477Y40225789D01*
X54600475Y40225789D01*
X54488857Y40155654D01*
X54429526Y40140704D01*
X54372739Y40163483D01*
X54352360Y40186809D01*
X54279818Y40302259D01*
X54279817Y40302260D01*
X54279816Y40302262D01*
X54201862Y40380216D01*
X54174087Y40434730D01*
X54183658Y40495162D01*
X54226923Y40538427D01*
X54231850Y40540768D01*
X54247765Y40547794D01*
X54327206Y40627235D01*
X54372585Y40730009D01*
X54375500Y40755135D01*
X54375499Y41444864D01*
X54372585Y41469991D01*
X54343874Y41535014D01*
X54337666Y41595882D01*
X54343871Y41614978D01*
X54372585Y41680009D01*
X54375500Y41705135D01*
X54375499Y42394864D01*
X54372585Y42419991D01*
X54343601Y42485632D01*
X54337394Y42546501D01*
X54343602Y42565607D01*
X54372090Y42630128D01*
X54374999Y42655203D01*
X54375000Y42655205D01*
X54375000Y42849999D01*
X54374999Y42850000D01*
X52725002Y42850000D01*
X52725001Y42849999D01*
X52725001Y42655209D01*
X52727909Y42630126D01*
X52727910Y42630124D01*
X52740662Y42601243D01*
X52746870Y42540374D01*
X52716113Y42487480D01*
X52665587Y42463475D01*
X52641872Y42459719D01*
X52618601Y42447862D01*
X52604253Y42441919D01*
X52579424Y42433852D01*
X52579418Y42433849D01*
X52558286Y42418497D01*
X52545051Y42410387D01*
X52521782Y42398530D01*
X52521777Y42398526D01*
X52497804Y42374554D01*
X52497805Y42374553D01*
X51794504Y41671252D01*
X51739987Y41643475D01*
X51679555Y41653046D01*
X51636290Y41696311D01*
X51625500Y41741256D01*
X51625500Y43975500D01*
X51644407Y44033691D01*
X51693907Y44069655D01*
X51724500Y44074500D01*
X52717235Y44074500D01*
X52775426Y44055593D01*
X52801060Y44028172D01*
X52820179Y43997744D01*
X52820182Y43997741D01*
X52820184Y43997738D01*
X52947738Y43870184D01*
X52947741Y43870182D01*
X52947740Y43870182D01*
X53036017Y43814715D01*
X53086768Y43782826D01*
X53125980Y43735857D01*
X53130096Y43674811D01*
X53097544Y43623003D01*
X53040757Y43600224D01*
X53034099Y43600000D01*
X52980210Y43600000D01*
X52980208Y43599999D01*
X52955125Y43597091D01*
X52852522Y43551787D01*
X52773213Y43472478D01*
X52727909Y43369873D01*
X52725000Y43344798D01*
X52725000Y43150001D01*
X52725001Y43150000D01*
X54374998Y43150000D01*
X54374999Y43150001D01*
X54374999Y43344790D01*
X54374998Y43344792D01*
X54372090Y43369875D01*
X54372089Y43369877D01*
X54359140Y43399204D01*
X54352931Y43460074D01*
X54383686Y43512968D01*
X54439658Y43537682D01*
X54495032Y43525734D01*
X54495462Y43526626D01*
X54499168Y43524842D01*
X54499467Y43524777D01*
X54500111Y43524388D01*
X54500474Y43524214D01*
X54500478Y43524211D01*
X54585653Y43494407D01*
X54670738Y43464634D01*
X54670742Y43464633D01*
X54670745Y43464632D01*
X54850000Y43444435D01*
X55029255Y43464632D01*
X55084890Y43484101D01*
X55146059Y43485474D01*
X55187592Y43460660D01*
X55395504Y43252748D01*
X55423281Y43198231D01*
X55424500Y43182744D01*
X55424500Y42655140D01*
X55424501Y42655137D01*
X55427414Y42630010D01*
X55447866Y42583691D01*
X55472794Y42527235D01*
X55552235Y42447794D01*
X55655009Y42402415D01*
X55680135Y42399500D01*
X56819864Y42399501D01*
X56844991Y42402415D01*
X56947765Y42447794D01*
X57027206Y42527235D01*
X57072585Y42630009D01*
X57075500Y42655135D01*
X57075499Y43344864D01*
X57072585Y43369991D01*
X57027206Y43472765D01*
X56947765Y43552206D01*
X56844991Y43597585D01*
X56844990Y43597586D01*
X56844988Y43597586D01*
X56819869Y43600500D01*
X56819865Y43600500D01*
X56292256Y43600500D01*
X56234065Y43619407D01*
X56222252Y43629496D01*
X55683826Y44167922D01*
X55656049Y44222439D01*
X55655454Y44249017D01*
X55655565Y44250000D01*
X55635368Y44429255D01*
X55575789Y44599522D01*
X55560381Y44624043D01*
X55479818Y44752259D01*
X55479817Y44752260D01*
X55479816Y44752262D01*
X55352262Y44879816D01*
X55352259Y44879818D01*
X55352258Y44879819D01*
X55199523Y44975789D01*
X55029261Y45035367D01*
X55029257Y45035368D01*
X54850000Y45055565D01*
X54670742Y45035368D01*
X54670738Y45035367D01*
X54500477Y44975789D01*
X54500476Y44975789D01*
X54347741Y44879819D01*
X54347740Y44879819D01*
X54318232Y44850310D01*
X54263715Y44822534D01*
X54203283Y44832106D01*
X54164403Y44867644D01*
X54079818Y45002259D01*
X54079817Y45002260D01*
X54079816Y45002262D01*
X54051578Y45030500D01*
X54023803Y45085014D01*
X54033374Y45145446D01*
X54076639Y45188711D01*
X54117060Y45198415D01*
X54117007Y45199336D01*
X54119846Y45199501D01*
X54119864Y45199501D01*
X54144991Y45202415D01*
X54247765Y45247794D01*
X54327206Y45327235D01*
X54372585Y45430009D01*
X54375500Y45455135D01*
X54375499Y46144864D01*
X54372585Y46169991D01*
X54343874Y46235014D01*
X54337666Y46295882D01*
X54343871Y46314978D01*
X54372585Y46380009D01*
X54375500Y46405135D01*
X54375499Y47094864D01*
X54372585Y47119991D01*
X54343601Y47185632D01*
X54337394Y47246501D01*
X54343602Y47265607D01*
X54372090Y47330128D01*
X54374999Y47355203D01*
X54375000Y47355205D01*
X54375000Y47549999D01*
X54374999Y47550000D01*
X52725002Y47550000D01*
X52725001Y47549999D01*
X52725001Y47355209D01*
X52727909Y47330126D01*
X52727910Y47330124D01*
X52740662Y47301243D01*
X52746870Y47240374D01*
X52716113Y47187480D01*
X52665587Y47163475D01*
X52641872Y47159719D01*
X52618601Y47147862D01*
X52604253Y47141919D01*
X52579424Y47133852D01*
X52579418Y47133849D01*
X52558286Y47118497D01*
X52545051Y47110387D01*
X52521782Y47098530D01*
X52521777Y47098526D01*
X52497805Y47074555D01*
X52497806Y47074554D01*
X51344504Y45921252D01*
X51289987Y45893475D01*
X51229555Y45903046D01*
X51186290Y45946311D01*
X51175500Y45991256D01*
X51175500Y48957746D01*
X51194407Y49015937D01*
X51204490Y49027743D01*
X51517497Y49340751D01*
X51572012Y49368527D01*
X51632444Y49358956D01*
X51657503Y49340750D01*
X52101471Y48896782D01*
X52101472Y48896780D01*
X52196780Y48801472D01*
X52220052Y48789615D01*
X52233291Y48781502D01*
X52254419Y48766151D01*
X52279259Y48758081D01*
X52293597Y48752142D01*
X52316874Y48740281D01*
X52342666Y48736197D01*
X52357775Y48732569D01*
X52390017Y48722092D01*
X52389564Y48720700D01*
X52436393Y48696845D01*
X52450222Y48679506D01*
X52470179Y48647744D01*
X52470181Y48647742D01*
X52470184Y48647738D01*
X52597738Y48520184D01*
X52597740Y48520183D01*
X52597741Y48520182D01*
X52723616Y48441089D01*
X52750478Y48424211D01*
X52756211Y48422205D01*
X52805084Y48405103D01*
X52853765Y48368037D01*
X52871361Y48309437D01*
X52851152Y48251685D01*
X52842390Y48241656D01*
X52773214Y48172480D01*
X52727909Y48069873D01*
X52725000Y48044798D01*
X52725000Y47850001D01*
X52725001Y47850000D01*
X53399999Y47850000D01*
X53400000Y47850001D01*
X53700000Y47850001D01*
X53700001Y47850000D01*
X54374998Y47850000D01*
X54374999Y47850001D01*
X54374999Y48044790D01*
X54374998Y48044792D01*
X54372090Y48069875D01*
X54326786Y48172478D01*
X54247477Y48251787D01*
X54144872Y48297091D01*
X54119797Y48300000D01*
X53700001Y48300000D01*
X53700000Y48299999D01*
X53700000Y47850001D01*
X53400000Y47850001D01*
X53400000Y48338379D01*
X53418907Y48396570D01*
X53446329Y48422205D01*
X53449522Y48424211D01*
X53602262Y48520184D01*
X53729816Y48647738D01*
X53825789Y48800478D01*
X53878109Y48950000D01*
X54194435Y48950000D01*
X54214632Y48770743D01*
X54214633Y48770739D01*
X54274211Y48600478D01*
X54274211Y48600477D01*
X54370181Y48447742D01*
X54370184Y48447738D01*
X54497738Y48320184D01*
X54497740Y48320183D01*
X54497741Y48320182D01*
X54601329Y48255093D01*
X54650478Y48224211D01*
X54675047Y48215614D01*
X54820738Y48164634D01*
X54820742Y48164633D01*
X54820745Y48164632D01*
X55000000Y48144435D01*
X55000001Y48144436D01*
X55000003Y48144435D01*
X55092717Y48154882D01*
X55135800Y48159736D01*
X55195742Y48147464D01*
X55216889Y48131363D01*
X55395504Y47952748D01*
X55423281Y47898231D01*
X55424500Y47882744D01*
X55424500Y47355140D01*
X55424501Y47355137D01*
X55427414Y47330010D01*
X55439691Y47302206D01*
X55472794Y47227235D01*
X55552235Y47147794D01*
X55655009Y47102415D01*
X55680135Y47099500D01*
X56819864Y47099501D01*
X56844991Y47102415D01*
X56947765Y47147794D01*
X57027206Y47227235D01*
X57072585Y47330009D01*
X57075500Y47355135D01*
X57075499Y48044864D01*
X57072585Y48069991D01*
X57027206Y48172765D01*
X56947765Y48252206D01*
X56844991Y48297585D01*
X56844990Y48297586D01*
X56844988Y48297586D01*
X56819869Y48300500D01*
X56819865Y48300500D01*
X56292256Y48300500D01*
X56234065Y48319407D01*
X56222252Y48329496D01*
X55818637Y48733111D01*
X55790860Y48787628D01*
X55790264Y48814200D01*
X55792580Y48834750D01*
X55799569Y48896782D01*
X55805565Y48949996D01*
X55805565Y48949997D01*
X55803228Y48970739D01*
X55785368Y49129255D01*
X55784615Y49131406D01*
X55750374Y49229262D01*
X55725789Y49299522D01*
X55707106Y49329255D01*
X55629818Y49452259D01*
X55629817Y49452260D01*
X55629816Y49452262D01*
X55502262Y49579816D01*
X55502259Y49579818D01*
X55502258Y49579819D01*
X55349523Y49675789D01*
X55179261Y49735367D01*
X55179257Y49735368D01*
X55000000Y49755565D01*
X54820742Y49735368D01*
X54820738Y49735367D01*
X54650477Y49675789D01*
X54650476Y49675789D01*
X54497741Y49579819D01*
X54370181Y49452259D01*
X54274211Y49299524D01*
X54274211Y49299523D01*
X54214633Y49129262D01*
X54214632Y49129258D01*
X54194435Y48950000D01*
X53878109Y48950000D01*
X53885368Y48970745D01*
X53905565Y49150000D01*
X53885368Y49329255D01*
X53825789Y49499522D01*
X53807492Y49528641D01*
X53729818Y49652259D01*
X53729817Y49652260D01*
X53729816Y49652262D01*
X53651578Y49730500D01*
X53623803Y49785014D01*
X53633374Y49845446D01*
X53676639Y49888711D01*
X53721584Y49899501D01*
X54119861Y49899501D01*
X54119864Y49899501D01*
X54144991Y49902415D01*
X54247765Y49947794D01*
X54327206Y50027235D01*
X54372585Y50130009D01*
X54375500Y50155135D01*
X54375499Y50844864D01*
X54372585Y50869991D01*
X54343874Y50935014D01*
X54337666Y50995882D01*
X54343871Y51014978D01*
X54372585Y51080009D01*
X54375500Y51105135D01*
X54375499Y51794864D01*
X54372585Y51819991D01*
X54343601Y51885632D01*
X54337394Y51946501D01*
X54343602Y51965607D01*
X54372090Y52030128D01*
X54374999Y52055203D01*
X54375000Y52055205D01*
X54375000Y52249999D01*
X54374999Y52250000D01*
X53499000Y52250000D01*
X53440809Y52268907D01*
X53404845Y52318407D01*
X53400000Y52349000D01*
X53400000Y52550001D01*
X53700000Y52550001D01*
X53700001Y52550000D01*
X54374998Y52550000D01*
X54374999Y52550001D01*
X54374999Y52578591D01*
X54393906Y52636782D01*
X54443406Y52672746D01*
X54504592Y52672746D01*
X54506697Y52672035D01*
X54670738Y52614634D01*
X54670742Y52614633D01*
X54670745Y52614632D01*
X54850000Y52594435D01*
X54850001Y52594436D01*
X54850003Y52594435D01*
X54942717Y52604882D01*
X54985800Y52609736D01*
X55045742Y52597464D01*
X55066889Y52581363D01*
X55395504Y52252748D01*
X55423281Y52198231D01*
X55424500Y52182745D01*
X55424500Y52055139D01*
X55424501Y52055136D01*
X55427414Y52030010D01*
X55439691Y52002206D01*
X55472794Y51927235D01*
X55552235Y51847794D01*
X55655009Y51802415D01*
X55680135Y51799500D01*
X56819864Y51799501D01*
X56844991Y51802415D01*
X56947765Y51847794D01*
X57027206Y51927235D01*
X57072585Y52030009D01*
X57075500Y52055135D01*
X57075499Y52744864D01*
X57072585Y52769991D01*
X57027206Y52872765D01*
X56947765Y52952206D01*
X56844991Y52997585D01*
X56844990Y52997586D01*
X56844988Y52997586D01*
X56819869Y53000500D01*
X56819865Y53000500D01*
X55892256Y53000500D01*
X55834065Y53019407D01*
X55822252Y53029496D01*
X55668637Y53183111D01*
X55640860Y53237628D01*
X55640264Y53264200D01*
X55655565Y53399996D01*
X55655565Y53399997D01*
X55650186Y53447738D01*
X55635368Y53579255D01*
X55575789Y53749522D01*
X55562457Y53770739D01*
X55479818Y53902259D01*
X55479817Y53902260D01*
X55479816Y53902262D01*
X55352262Y54029816D01*
X55352259Y54029818D01*
X55352258Y54029819D01*
X55199523Y54125789D01*
X55029261Y54185367D01*
X55029257Y54185368D01*
X54850000Y54205565D01*
X54670742Y54185368D01*
X54670738Y54185367D01*
X54500477Y54125789D01*
X54500476Y54125789D01*
X54347741Y54029819D01*
X54220181Y53902259D01*
X54124211Y53749524D01*
X54124211Y53749523D01*
X54064633Y53579262D01*
X54064632Y53579258D01*
X54044435Y53400000D01*
X54064632Y53220743D01*
X54064633Y53220739D01*
X54095791Y53131698D01*
X54097165Y53070528D01*
X54062321Y53020234D01*
X54004569Y53000025D01*
X54002347Y53000000D01*
X53700001Y53000000D01*
X53700000Y52999999D01*
X53700000Y52550001D01*
X53400000Y52550001D01*
X53400000Y52999999D01*
X53399999Y53000000D01*
X52980210Y53000000D01*
X52980207Y52999999D01*
X52955125Y52997091D01*
X52852522Y52951787D01*
X52844504Y52943768D01*
X52789987Y52915991D01*
X52729555Y52925562D01*
X52686290Y52968827D01*
X52675500Y53013772D01*
X52675500Y54567237D01*
X52694407Y54625428D01*
X52721825Y54651060D01*
X52752262Y54670184D01*
X52788769Y54706692D01*
X52843282Y54734469D01*
X52898757Y54727253D01*
X52955009Y54702415D01*
X52980135Y54699500D01*
X54119864Y54699501D01*
X54144991Y54702415D01*
X54247765Y54747794D01*
X54327206Y54827235D01*
X54372585Y54930009D01*
X54375500Y54955135D01*
X54375499Y55644864D01*
X54372585Y55669991D01*
X54343874Y55735014D01*
X54337666Y55795882D01*
X54343871Y55814978D01*
X54372585Y55880009D01*
X54375500Y55905135D01*
X54375499Y56594864D01*
X54372585Y56619991D01*
X54343601Y56685632D01*
X54337394Y56746501D01*
X54343602Y56765607D01*
X54372090Y56830128D01*
X54374999Y56855203D01*
X54375000Y56855205D01*
X54375000Y57049999D01*
X54374999Y57050000D01*
X52725002Y57050000D01*
X52725001Y57049999D01*
X52725001Y56855209D01*
X52727909Y56830126D01*
X52727910Y56830124D01*
X52756397Y56765605D01*
X52762604Y56704735D01*
X52756397Y56685631D01*
X52727415Y56619992D01*
X52727414Y56619989D01*
X52724500Y56594870D01*
X52724500Y56417257D01*
X52705593Y56359066D01*
X52695503Y56347253D01*
X52466887Y56118638D01*
X52412371Y56090861D01*
X52385801Y56090265D01*
X52250000Y56105565D01*
X52070742Y56085368D01*
X52070738Y56085367D01*
X51900477Y56025789D01*
X51900476Y56025789D01*
X51747741Y55929819D01*
X51620181Y55802259D01*
X51524211Y55649524D01*
X51524211Y55649523D01*
X51464633Y55479262D01*
X51464632Y55479258D01*
X51444435Y55300000D01*
X51464632Y55120743D01*
X51464633Y55120739D01*
X51524211Y54950478D01*
X51524211Y54950477D01*
X51614934Y54806093D01*
X51620184Y54797738D01*
X51747738Y54670184D01*
X51778172Y54651062D01*
X51817383Y54604096D01*
X51824500Y54567237D01*
X51824500Y51817257D01*
X51805593Y51759066D01*
X51795504Y51747253D01*
X51769004Y51720753D01*
X51714487Y51692976D01*
X51654055Y51702547D01*
X51610790Y51745812D01*
X51600000Y51790757D01*
X51600000Y54499999D01*
X51600000Y54500000D01*
X51599999Y54500000D01*
X49799000Y54500000D01*
X49740809Y54518907D01*
X49704845Y54568407D01*
X49700000Y54599000D01*
X49700000Y57350001D01*
X52725000Y57350001D01*
X52725001Y57350000D01*
X53399999Y57350000D01*
X53400000Y57350001D01*
X53700000Y57350001D01*
X53700001Y57350000D01*
X54374998Y57350000D01*
X54374999Y57350001D01*
X54374999Y57544790D01*
X54374998Y57544792D01*
X54372090Y57569875D01*
X54326786Y57672478D01*
X54247477Y57751787D01*
X54144872Y57797091D01*
X54119797Y57800000D01*
X53700001Y57800000D01*
X53700000Y57799999D01*
X53700000Y57350001D01*
X53400000Y57350001D01*
X53400000Y57799999D01*
X53399999Y57800000D01*
X52980210Y57800000D01*
X52980207Y57799999D01*
X52955125Y57797091D01*
X52852522Y57751787D01*
X52773213Y57672478D01*
X52727909Y57569873D01*
X52725000Y57544798D01*
X52725000Y57350001D01*
X49700000Y57350001D01*
X49700000Y58700000D01*
X53944435Y58700000D01*
X53964632Y58520743D01*
X53964633Y58520739D01*
X54024211Y58350478D01*
X54024211Y58350477D01*
X54042897Y58320739D01*
X54120184Y58197738D01*
X54247738Y58070184D01*
X54247740Y58070183D01*
X54247741Y58070182D01*
X54363028Y57997742D01*
X54400478Y57974211D01*
X54421935Y57966703D01*
X54570738Y57914634D01*
X54570742Y57914633D01*
X54570745Y57914632D01*
X54750000Y57894435D01*
X54750001Y57894436D01*
X54750003Y57894435D01*
X54856140Y57906394D01*
X54885800Y57909736D01*
X54945742Y57897464D01*
X54966889Y57881363D01*
X55395504Y57452748D01*
X55423281Y57398231D01*
X55424500Y57382744D01*
X55424500Y56855140D01*
X55424501Y56855137D01*
X55427414Y56830010D01*
X55439691Y56802206D01*
X55472794Y56727235D01*
X55552235Y56647794D01*
X55655009Y56602415D01*
X55680135Y56599500D01*
X56819864Y56599501D01*
X56844991Y56602415D01*
X56947765Y56647794D01*
X57027206Y56727235D01*
X57072585Y56830009D01*
X57075500Y56855135D01*
X57075499Y57544864D01*
X57072585Y57569991D01*
X57027206Y57672765D01*
X56947765Y57752206D01*
X56844991Y57797585D01*
X56844990Y57797586D01*
X56844988Y57797586D01*
X56819869Y57800500D01*
X56819865Y57800500D01*
X56292256Y57800500D01*
X56234065Y57819407D01*
X56222252Y57829496D01*
X55568637Y58483111D01*
X55540860Y58537628D01*
X55540264Y58564200D01*
X55555565Y58699996D01*
X55555565Y58699997D01*
X55541531Y58824555D01*
X55535368Y58879255D01*
X55533760Y58883849D01*
X55492326Y59002262D01*
X55475789Y59049522D01*
X55379816Y59202262D01*
X55252262Y59329816D01*
X55252259Y59329818D01*
X55252258Y59329819D01*
X55099523Y59425789D01*
X54929261Y59485367D01*
X54929257Y59485368D01*
X54750000Y59505565D01*
X54570742Y59485368D01*
X54570738Y59485367D01*
X54400477Y59425789D01*
X54400476Y59425789D01*
X54247741Y59329819D01*
X54120181Y59202259D01*
X54024211Y59049524D01*
X54024211Y59049523D01*
X53964633Y58879262D01*
X53964632Y58879258D01*
X53944435Y58700000D01*
X49700000Y58700000D01*
X49700000Y58899999D01*
X49700000Y58900000D01*
X44600000Y58900000D01*
X44600000Y56350000D01*
X45951000Y56350000D01*
X46009191Y56331093D01*
X46045155Y56281593D01*
X46050000Y56251000D01*
X46050000Y54500000D01*
X46050000Y53000000D01*
X48499785Y53000000D01*
X48557976Y52981093D01*
X48593940Y52931593D01*
X48598777Y52899794D01*
X48551205Y48998752D01*
X48551193Y48997793D01*
X48531577Y48939837D01*
X48481642Y48904479D01*
X48452200Y48900000D01*
X44300000Y48900000D01*
X44300000Y46150000D01*
X45851000Y46150000D01*
X45909191Y46131093D01*
X45945155Y46081593D01*
X45950000Y46051000D01*
X45950000Y43400000D01*
X45950001Y43400000D01*
X49699999Y43400000D01*
X49700000Y43400000D01*
X49700000Y43400001D01*
X49705496Y43405497D01*
X49760013Y43433274D01*
X49820445Y43423703D01*
X49863710Y43380438D01*
X49874500Y43335493D01*
X49874500Y28514507D01*
X49855593Y28456316D01*
X49806093Y28420352D01*
X49744907Y28420352D01*
X49705496Y28444503D01*
X49700000Y28449999D01*
X49700000Y28450000D01*
X44300000Y28450000D01*
X44300000Y25950000D01*
X45951000Y25950000D01*
X46009191Y25931093D01*
X46045155Y25881593D01*
X46050000Y25851000D01*
X46050000Y23300000D01*
X46050001Y23300000D01*
X49699999Y23300000D01*
X49700000Y23300000D01*
X49700000Y23300001D01*
X49705496Y23305497D01*
X49760013Y23333274D01*
X49820445Y23323703D01*
X49863710Y23280438D01*
X49874500Y23235493D01*
X49874500Y19667256D01*
X49855593Y19609065D01*
X49845504Y19597252D01*
X49452748Y19204496D01*
X49398231Y19176719D01*
X49382744Y19175500D01*
X19882765Y19175500D01*
X19824574Y19194407D01*
X19798940Y19221828D01*
X19779820Y19252257D01*
X19779817Y19252260D01*
X19779816Y19252262D01*
X19652262Y19379816D01*
X19652259Y19379818D01*
X19652256Y19379821D01*
X19621828Y19398940D01*
X19582616Y19445909D01*
X19575500Y19482765D01*
X19575500Y19717394D01*
X19567431Y19742225D01*
X19563803Y19757335D01*
X19563356Y19760156D01*
X19559719Y19783126D01*
X19547862Y19806396D01*
X19541917Y19820747D01*
X19533849Y19845581D01*
X19518494Y19866716D01*
X19510383Y19879953D01*
X19501131Y19898111D01*
X19498528Y19903220D01*
X19498527Y19903221D01*
X19498527Y19903222D01*
X19403220Y19998529D01*
X19403220Y19998528D01*
X19054496Y20347252D01*
X19026719Y20401769D01*
X19025500Y20417256D01*
X19025500Y28350000D01*
X19250000Y28350000D01*
X19250000Y23650000D01*
X19250001Y23650000D01*
X21749999Y23650000D01*
X21750000Y23650000D01*
X21750000Y25701000D01*
X21768907Y25759191D01*
X21818407Y25795155D01*
X21849000Y25800000D01*
X23849999Y25800000D01*
X23850000Y25800000D01*
X23850000Y28350000D01*
X19250000Y28350000D01*
X19025500Y28350000D01*
X19025500Y28850000D01*
X30750000Y28850000D01*
X30750000Y23400000D01*
X30750001Y23400000D01*
X37399999Y23400000D01*
X37400000Y23400000D01*
X37400000Y28850000D01*
X30750000Y28850000D01*
X19025500Y28850000D01*
X19025500Y34135493D01*
X19044407Y34193684D01*
X19093907Y34229648D01*
X19155093Y34229648D01*
X19194504Y34205497D01*
X19200000Y34200001D01*
X19200000Y34200000D01*
X19200001Y34200000D01*
X21699999Y34200000D01*
X21700000Y34200000D01*
X21700000Y36001000D01*
X21718907Y36059191D01*
X21768407Y36095155D01*
X21799000Y36100000D01*
X23849999Y36100000D01*
X23850000Y36100000D01*
X23850000Y38650000D01*
X19200000Y38650000D01*
X19200000Y38649999D01*
X19194504Y38644503D01*
X19139987Y38616726D01*
X19079555Y38626297D01*
X19036290Y38669562D01*
X19025500Y38714507D01*
X19025500Y39000000D01*
X30700000Y39000000D01*
X30700000Y33450000D01*
X30700001Y33450000D01*
X37349999Y33450000D01*
X37350000Y33450000D01*
X37350000Y38850000D01*
X44300000Y38850000D01*
X44300000Y36100000D01*
X46051000Y36100000D01*
X46109191Y36081093D01*
X46145155Y36031593D01*
X46150000Y36001000D01*
X46150000Y33600000D01*
X46150001Y33600000D01*
X49649999Y33600000D01*
X49650000Y33600000D01*
X49650000Y38850000D01*
X44300000Y38850000D01*
X37350000Y38850000D01*
X37350000Y39000000D01*
X30700000Y39000000D01*
X19025500Y39000000D01*
X19025500Y48750000D01*
X19250000Y48750000D01*
X19250000Y43750000D01*
X19250001Y43750000D01*
X22249999Y43750000D01*
X22250000Y43750000D01*
X22250000Y46051000D01*
X22268907Y46109191D01*
X22318407Y46145155D01*
X22349000Y46150000D01*
X23899999Y46150000D01*
X23900000Y46150000D01*
X23900000Y48750000D01*
X19250000Y48750000D01*
X19025500Y48750000D01*
X19025500Y49050000D01*
X30750000Y49050000D01*
X30750000Y43500000D01*
X30750001Y43500000D01*
X37399999Y43500000D01*
X37400000Y43500000D01*
X37400000Y49050000D01*
X30750000Y49050000D01*
X19025500Y49050000D01*
X19025500Y54101000D01*
X19044407Y54159191D01*
X19093907Y54195155D01*
X19124500Y54200000D01*
X21799999Y54200000D01*
X21800000Y54200000D01*
X21800000Y56201000D01*
X21818907Y56259191D01*
X21868407Y56295155D01*
X21899000Y56300000D01*
X23749999Y56300000D01*
X23750000Y56300000D01*
X23750000Y59000000D01*
X18950000Y59000000D01*
X18950000Y58999999D01*
X18950000Y56710770D01*
X18931093Y56652579D01*
X18881593Y56616615D01*
X18820407Y56616615D01*
X18806055Y56622560D01*
X18733126Y56659719D01*
X18633488Y56675500D01*
X18600000Y56680804D01*
X18574207Y56676719D01*
X18558721Y56675500D01*
X17174500Y56675500D01*
X17116309Y56694407D01*
X17080345Y56743907D01*
X17075500Y56774500D01*
X17075500Y57817394D01*
X17067431Y57842225D01*
X17063803Y57857335D01*
X17061768Y57870184D01*
X17059719Y57883126D01*
X17047858Y57906403D01*
X17041919Y57920741D01*
X17033849Y57945581D01*
X17018498Y57966709D01*
X17010383Y57979952D01*
X17001319Y57997742D01*
X16998528Y58003220D01*
X16903220Y58098528D01*
X16903218Y58098529D01*
X16177194Y58824554D01*
X16177194Y58824555D01*
X16153220Y58848529D01*
X16153218Y58848530D01*
X16129950Y58860385D01*
X16116705Y58868501D01*
X16095581Y58883849D01*
X16095579Y58883850D01*
X16070741Y58891921D01*
X16056391Y58897865D01*
X16033126Y58909719D01*
X16007329Y58913805D01*
X15992229Y58917430D01*
X15967393Y58925500D01*
X15967391Y58925500D01*
X15959983Y58927907D01*
X15960434Y58929298D01*
X15913594Y58953168D01*
X15899776Y58970496D01*
X15879818Y59002259D01*
X15879817Y59002260D01*
X15879816Y59002262D01*
X15752262Y59129816D01*
X15752259Y59129818D01*
X15752258Y59129819D01*
X15599523Y59225789D01*
X15429261Y59285367D01*
X15429257Y59285368D01*
X15250000Y59305565D01*
X15070742Y59285368D01*
X15070738Y59285367D01*
X14900477Y59225789D01*
X14900476Y59225789D01*
X14747741Y59129819D01*
X14620181Y59002259D01*
X14524211Y58849524D01*
X14524211Y58849523D01*
X14464633Y58679262D01*
X14464632Y58679258D01*
X14444435Y58500000D01*
X14464632Y58320743D01*
X14464633Y58320739D01*
X14524211Y58150478D01*
X14524211Y58150477D01*
X14556853Y58098528D01*
X14620184Y57997738D01*
X14698136Y57919786D01*
X14725912Y57865271D01*
X14716341Y57804839D01*
X14673076Y57761574D01*
X14668119Y57759220D01*
X14652237Y57752208D01*
X14572794Y57672765D01*
X14527414Y57569989D01*
X14524500Y57544870D01*
X14524500Y56855140D01*
X14524501Y56855137D01*
X14527414Y56830010D01*
X14539691Y56802206D01*
X14556125Y56764987D01*
X14562333Y56704119D01*
X14556126Y56685017D01*
X14544957Y56659719D01*
X14527414Y56619989D01*
X14524500Y56594870D01*
X14524500Y55905140D01*
X14524501Y55905137D01*
X14527414Y55880010D01*
X14527415Y55880008D01*
X14556397Y55814369D01*
X14562605Y55753500D01*
X14556397Y55734396D01*
X14527911Y55669879D01*
X14527909Y55669873D01*
X14525000Y55644798D01*
X14525000Y55450001D01*
X14525001Y55450000D01*
X16174998Y55450000D01*
X16174999Y55450001D01*
X16174999Y55644790D01*
X16174998Y55644792D01*
X16172090Y55669875D01*
X16172089Y55669877D01*
X16165186Y55685511D01*
X16158977Y55746380D01*
X16189732Y55799274D01*
X16245704Y55823989D01*
X16255750Y55824500D01*
X16608721Y55824500D01*
X16624207Y55823282D01*
X16650000Y55819196D01*
X16675792Y55823282D01*
X16691279Y55824500D01*
X18075500Y55824500D01*
X18133691Y55805593D01*
X18169655Y55756093D01*
X18174500Y55725500D01*
X18174500Y51974500D01*
X18155593Y51916309D01*
X18106093Y51880345D01*
X18075500Y51875500D01*
X16724500Y51875500D01*
X16666309Y51894407D01*
X16630345Y51943907D01*
X16625500Y51974500D01*
X16625500Y53282831D01*
X16631056Y53315529D01*
X16685366Y53470739D01*
X16685367Y53470743D01*
X16685368Y53470745D01*
X16705565Y53650000D01*
X16685368Y53829255D01*
X16625789Y53999522D01*
X16592217Y54052951D01*
X16529818Y54152259D01*
X16529817Y54152260D01*
X16529816Y54152262D01*
X16402262Y54279816D01*
X16402259Y54279818D01*
X16402258Y54279819D01*
X16249523Y54375789D01*
X16079261Y54435367D01*
X16079257Y54435368D01*
X15900000Y54455565D01*
X15720742Y54435368D01*
X15720738Y54435367D01*
X15550477Y54375789D01*
X15550476Y54375789D01*
X15397741Y54279819D01*
X15270181Y54152259D01*
X15174211Y53999524D01*
X15174211Y53999523D01*
X15114633Y53829262D01*
X15114632Y53829258D01*
X15094435Y53650000D01*
X15114632Y53470743D01*
X15114633Y53470739D01*
X15174211Y53300478D01*
X15174211Y53300477D01*
X15267398Y53152171D01*
X15282348Y53092840D01*
X15259569Y53036053D01*
X15207762Y53003501D01*
X15183572Y53000500D01*
X14780139Y53000500D01*
X14780136Y53000499D01*
X14755009Y52997586D01*
X14652235Y52952206D01*
X14572794Y52872765D01*
X14527414Y52769989D01*
X14524500Y52744870D01*
X14524500Y52055140D01*
X14524501Y52055137D01*
X14527414Y52030010D01*
X14539691Y52002206D01*
X14556125Y51964987D01*
X14562333Y51904119D01*
X14556126Y51885017D01*
X14539692Y51847796D01*
X14527414Y51819989D01*
X14524500Y51794870D01*
X14524500Y51105140D01*
X14524501Y51105137D01*
X14527414Y51080010D01*
X14527415Y51080008D01*
X14556397Y51014369D01*
X14562605Y50953500D01*
X14556397Y50934396D01*
X14527911Y50869879D01*
X14527909Y50869873D01*
X14525000Y50844798D01*
X14525000Y50650001D01*
X14525001Y50650000D01*
X16174998Y50650000D01*
X16174999Y50650001D01*
X16174999Y50844790D01*
X16174998Y50844792D01*
X16172090Y50869875D01*
X16172089Y50869877D01*
X16165186Y50885511D01*
X16158977Y50946380D01*
X16189732Y50999274D01*
X16245704Y51023989D01*
X16255750Y51024500D01*
X17625500Y51024500D01*
X17683691Y51005593D01*
X17719655Y50956093D01*
X17724500Y50925500D01*
X17724500Y47274500D01*
X17705593Y47216309D01*
X17656093Y47180345D01*
X17625500Y47175500D01*
X16724500Y47175500D01*
X16666309Y47194407D01*
X16630345Y47243907D01*
X16625500Y47274500D01*
X16625500Y48402415D01*
X16644407Y48460606D01*
X16654490Y48472413D01*
X16729816Y48547738D01*
X16825789Y48700478D01*
X16885368Y48870745D01*
X16905565Y49050000D01*
X16885368Y49229255D01*
X16875786Y49256638D01*
X16850374Y49329262D01*
X16825789Y49399522D01*
X16775689Y49479255D01*
X16729818Y49552259D01*
X16729817Y49552260D01*
X16729816Y49552262D01*
X16602262Y49679816D01*
X16602259Y49679818D01*
X16602258Y49679819D01*
X16449523Y49775789D01*
X16279261Y49835367D01*
X16279258Y49835368D01*
X16234723Y49840386D01*
X16173810Y49847249D01*
X16118105Y49872552D01*
X16087909Y49925768D01*
X16094760Y49986568D01*
X16114895Y50015631D01*
X16126786Y50027522D01*
X16172090Y50130128D01*
X16174999Y50155203D01*
X16175000Y50155205D01*
X16175000Y50349999D01*
X16174999Y50350000D01*
X15500001Y50350000D01*
X15500000Y50349999D01*
X15500000Y49900002D01*
X15500001Y49900001D01*
X15604523Y49900001D01*
X15662714Y49881094D01*
X15698678Y49831594D01*
X15698678Y49770408D01*
X15662714Y49720908D01*
X15657194Y49717175D01*
X15597741Y49679819D01*
X15470181Y49552259D01*
X15374211Y49399524D01*
X15374211Y49399523D01*
X15314633Y49229262D01*
X15314632Y49229258D01*
X15294435Y49050000D01*
X15314632Y48870743D01*
X15314633Y48870739D01*
X15374211Y48700478D01*
X15374211Y48700477D01*
X15469433Y48548933D01*
X15470184Y48547738D01*
X15548420Y48469502D01*
X15576196Y48414987D01*
X15566625Y48354555D01*
X15523360Y48311290D01*
X15478415Y48300500D01*
X14780139Y48300500D01*
X14780136Y48300499D01*
X14755009Y48297586D01*
X14652235Y48252206D01*
X14572794Y48172765D01*
X14527414Y48069989D01*
X14524500Y48044870D01*
X14524500Y47355140D01*
X14524501Y47355137D01*
X14527414Y47330010D01*
X14539691Y47302206D01*
X14556125Y47264987D01*
X14562333Y47204119D01*
X14556126Y47185017D01*
X14554064Y47180345D01*
X14527414Y47119989D01*
X14524500Y47094870D01*
X14524500Y46405140D01*
X14524501Y46405137D01*
X14527414Y46380010D01*
X14527415Y46380008D01*
X14556397Y46314369D01*
X14562605Y46253500D01*
X14556397Y46234396D01*
X14527911Y46169879D01*
X14527909Y46169873D01*
X14525000Y46144798D01*
X14525000Y45950001D01*
X14525001Y45950000D01*
X16174998Y45950000D01*
X16174999Y45950001D01*
X16174999Y46144790D01*
X16174998Y46144792D01*
X16172090Y46169875D01*
X16172089Y46169877D01*
X16165186Y46185511D01*
X16158977Y46246380D01*
X16189732Y46299274D01*
X16245704Y46323989D01*
X16255750Y46324500D01*
X17175500Y46324500D01*
X17233691Y46305593D01*
X17269655Y46256093D01*
X17274500Y46225500D01*
X17274500Y43866256D01*
X17255593Y43808065D01*
X17206093Y43772101D01*
X17144907Y43772101D01*
X17105496Y43796252D01*
X16818637Y44083111D01*
X16790860Y44137628D01*
X16790264Y44164200D01*
X16790684Y44167922D01*
X16799822Y44249026D01*
X16805565Y44299996D01*
X16805565Y44299997D01*
X16805565Y44300000D01*
X16785368Y44479255D01*
X16781406Y44490577D01*
X16744499Y44596051D01*
X16725789Y44649522D01*
X16644270Y44779258D01*
X16629818Y44802259D01*
X16629817Y44802260D01*
X16629816Y44802262D01*
X16502262Y44929816D01*
X16502259Y44929818D01*
X16502258Y44929819D01*
X16349523Y45025789D01*
X16179261Y45085367D01*
X16179249Y45085370D01*
X16118749Y45092186D01*
X16063041Y45117489D01*
X16032846Y45170705D01*
X16039697Y45231506D01*
X16059831Y45260567D01*
X16126785Y45327522D01*
X16172090Y45430128D01*
X16174999Y45455203D01*
X16175000Y45455205D01*
X16175000Y45649999D01*
X16174999Y45650000D01*
X15500001Y45650000D01*
X15500000Y45649999D01*
X15500000Y45200002D01*
X15500001Y45200001D01*
X15584097Y45200001D01*
X15642288Y45181094D01*
X15678252Y45131594D01*
X15678252Y45070408D01*
X15642288Y45020908D01*
X15636768Y45017175D01*
X15497741Y44929819D01*
X15370181Y44802259D01*
X15274211Y44649524D01*
X15274211Y44649523D01*
X15214633Y44479262D01*
X15214632Y44479258D01*
X15194435Y44300000D01*
X15214632Y44120743D01*
X15214633Y44120739D01*
X15274211Y43950478D01*
X15274211Y43950477D01*
X15367398Y43802171D01*
X15382348Y43742840D01*
X15359569Y43686053D01*
X15307762Y43653501D01*
X15283572Y43650500D01*
X14730139Y43650500D01*
X14730136Y43650499D01*
X14705009Y43647586D01*
X14602235Y43602206D01*
X14522794Y43522765D01*
X14477414Y43419989D01*
X14474500Y43394870D01*
X14474500Y42705140D01*
X14474501Y42705137D01*
X14477414Y42680010D01*
X14484268Y42664488D01*
X14506125Y42614987D01*
X14512333Y42554119D01*
X14506126Y42535017D01*
X14504064Y42530345D01*
X14477414Y42469989D01*
X14474500Y42444870D01*
X14474500Y41755140D01*
X14474501Y41755137D01*
X14477414Y41730010D01*
X14477415Y41730008D01*
X14506397Y41664369D01*
X14512605Y41603500D01*
X14506397Y41584396D01*
X14477911Y41519879D01*
X14477909Y41519873D01*
X14475000Y41494798D01*
X14475000Y41300001D01*
X14475001Y41300000D01*
X16124998Y41300000D01*
X16124999Y41300001D01*
X16124999Y41494790D01*
X16124998Y41494792D01*
X16122090Y41519875D01*
X16122089Y41519877D01*
X16115186Y41535511D01*
X16108977Y41596380D01*
X16139732Y41649274D01*
X16195704Y41673989D01*
X16205750Y41674500D01*
X16725500Y41674500D01*
X16783691Y41655593D01*
X16819655Y41606093D01*
X16824500Y41575500D01*
X16824500Y39932137D01*
X16805593Y39873946D01*
X16756093Y39837982D01*
X16694907Y39837982D01*
X16672829Y39848311D01*
X16549523Y39925789D01*
X16379261Y39985367D01*
X16379257Y39985368D01*
X16200000Y40005565D01*
X16020742Y39985368D01*
X16020738Y39985367D01*
X15850477Y39925789D01*
X15850476Y39925789D01*
X15697741Y39829819D01*
X15570181Y39702259D01*
X15474211Y39549524D01*
X15474211Y39549523D01*
X15414633Y39379262D01*
X15414632Y39379258D01*
X15394435Y39200000D01*
X15414632Y39020743D01*
X15428120Y38982197D01*
X15429492Y38921027D01*
X15394647Y38870733D01*
X15336895Y38850525D01*
X15334675Y38850500D01*
X14730139Y38850500D01*
X14730136Y38850499D01*
X14705009Y38847586D01*
X14602235Y38802206D01*
X14522794Y38722765D01*
X14477414Y38619989D01*
X14474500Y38594870D01*
X14474500Y37905140D01*
X14474501Y37905137D01*
X14477414Y37880010D01*
X14488238Y37855497D01*
X14506125Y37814987D01*
X14512333Y37754119D01*
X14506126Y37735017D01*
X14501925Y37725500D01*
X14477414Y37669989D01*
X14474500Y37644870D01*
X14474500Y36955140D01*
X14474501Y36955137D01*
X14477414Y36930010D01*
X14477415Y36930008D01*
X14506397Y36864369D01*
X14512605Y36803500D01*
X14506397Y36784396D01*
X14477911Y36719879D01*
X14477909Y36719873D01*
X14475000Y36694798D01*
X14475000Y36500001D01*
X14475001Y36500000D01*
X15351000Y36500000D01*
X15409191Y36481093D01*
X15445155Y36431593D01*
X15450000Y36401000D01*
X15450000Y35750002D01*
X15450001Y35750001D01*
X15869790Y35750001D01*
X15869791Y35750002D01*
X15894874Y35752910D01*
X15997477Y35798214D01*
X16076787Y35877524D01*
X16084935Y35895977D01*
X16125735Y35941573D01*
X16185543Y35954479D01*
X16241516Y35929766D01*
X16272272Y35876873D01*
X16274500Y35855990D01*
X16274500Y31824500D01*
X16255593Y31766309D01*
X16206093Y31730345D01*
X16175500Y31725500D01*
X16132765Y31725500D01*
X16074574Y31744407D01*
X16048940Y31771828D01*
X16029820Y31802257D01*
X16029817Y31802260D01*
X16029816Y31802262D01*
X15902262Y31929816D01*
X15902259Y31929818D01*
X15902258Y31929819D01*
X15749523Y32025789D01*
X15579261Y32085367D01*
X15579257Y32085368D01*
X15400000Y32105565D01*
X15220742Y32085368D01*
X15220738Y32085367D01*
X15050477Y32025789D01*
X15050476Y32025789D01*
X14897741Y31929819D01*
X14770181Y31802259D01*
X14674211Y31649524D01*
X14674211Y31649523D01*
X14614633Y31479262D01*
X14614632Y31479258D01*
X14594435Y31300000D01*
X14614632Y31120743D01*
X14614633Y31120739D01*
X14674211Y30950478D01*
X14674211Y30950477D01*
X14721951Y30874500D01*
X14770184Y30797738D01*
X14897738Y30670184D01*
X15050478Y30574211D01*
X15118657Y30550354D01*
X15220738Y30514634D01*
X15220742Y30514633D01*
X15220745Y30514632D01*
X15400000Y30494435D01*
X15579255Y30514632D01*
X15749522Y30574211D01*
X15902262Y30670184D01*
X16029816Y30797738D01*
X16035066Y30806093D01*
X16048940Y30828172D01*
X16095909Y30867384D01*
X16132765Y30874500D01*
X16175500Y30874500D01*
X16233691Y30855593D01*
X16269655Y30806093D01*
X16274500Y30775500D01*
X16274500Y28724500D01*
X16255593Y28666309D01*
X16206093Y28630345D01*
X16175500Y28625500D01*
X15844970Y28625500D01*
X15786779Y28644407D01*
X15750815Y28693907D01*
X15750815Y28755093D01*
X15761145Y28777173D01*
X15775789Y28800478D01*
X15835366Y28970739D01*
X15835367Y28970743D01*
X15835368Y28970745D01*
X15855565Y29150000D01*
X15835368Y29329255D01*
X15834236Y29332489D01*
X15801596Y29425770D01*
X15775789Y29499522D01*
X15770532Y29507888D01*
X15679818Y29652259D01*
X15679817Y29652260D01*
X15679816Y29652262D01*
X15552262Y29779816D01*
X15552259Y29779818D01*
X15552258Y29779819D01*
X15399523Y29875789D01*
X15229261Y29935367D01*
X15229257Y29935368D01*
X15109751Y29948833D01*
X15050000Y29955565D01*
X15049999Y29955565D01*
X14914198Y29940264D01*
X14854256Y29952538D01*
X14833110Y29968638D01*
X9504496Y35297252D01*
X9476719Y35351769D01*
X9475500Y35367256D01*
X9475500Y36005140D01*
X11774500Y36005140D01*
X11774501Y36005137D01*
X11777414Y35980010D01*
X11794386Y35941573D01*
X11822794Y35877235D01*
X11902235Y35797794D01*
X12005009Y35752415D01*
X12030135Y35749500D01*
X12480966Y35749501D01*
X12539157Y35730594D01*
X12550970Y35720505D01*
X13116506Y35154969D01*
X13144283Y35100452D01*
X13144879Y35096050D01*
X13164630Y34920751D01*
X13164633Y34920739D01*
X13224211Y34750478D01*
X13224211Y34750477D01*
X13274663Y34670184D01*
X13320184Y34597738D01*
X13447738Y34470184D01*
X13600478Y34374211D01*
X13668657Y34350354D01*
X13770738Y34314634D01*
X13770742Y34314633D01*
X13770745Y34314632D01*
X13950000Y34294435D01*
X14129255Y34314632D01*
X14299522Y34374211D01*
X14452262Y34470184D01*
X14579816Y34597738D01*
X14675789Y34750478D01*
X14735368Y34920745D01*
X14755565Y35100000D01*
X14735368Y35279255D01*
X14718924Y35326248D01*
X14697623Y35387123D01*
X14675789Y35449522D01*
X14657106Y35479255D01*
X14612340Y35550500D01*
X14579816Y35602262D01*
X14579812Y35602266D01*
X14577538Y35605118D01*
X14556033Y35662399D01*
X14572305Y35721381D01*
X14620137Y35759535D01*
X14681261Y35762286D01*
X14694920Y35757416D01*
X14705124Y35752911D01*
X14705127Y35752910D01*
X14730203Y35750001D01*
X15149998Y35750001D01*
X15150000Y35750002D01*
X15150000Y36199999D01*
X15149999Y36200000D01*
X14475002Y36200000D01*
X14475001Y36199999D01*
X14475001Y36005209D01*
X14477909Y35980126D01*
X14510058Y35907316D01*
X14516266Y35846446D01*
X14485510Y35793553D01*
X14429537Y35768839D01*
X14369729Y35781745D01*
X14366822Y35783502D01*
X14299523Y35825789D01*
X14129261Y35885367D01*
X14129249Y35885370D01*
X13953950Y35905121D01*
X13898242Y35930424D01*
X13895031Y35933494D01*
X13454495Y36374030D01*
X13426718Y36428547D01*
X13425499Y36444034D01*
X13425499Y36694861D01*
X13425499Y36694864D01*
X13422585Y36719991D01*
X13377206Y36822765D01*
X13297765Y36902206D01*
X13194991Y36947585D01*
X13194990Y36947586D01*
X13194988Y36947586D01*
X13169868Y36950500D01*
X12030139Y36950500D01*
X12030136Y36950499D01*
X12005009Y36947586D01*
X11902235Y36902206D01*
X11822794Y36822765D01*
X11777414Y36719989D01*
X11774500Y36694870D01*
X11774500Y36005140D01*
X9475500Y36005140D01*
X9475500Y37725500D01*
X9494407Y37783691D01*
X9543907Y37819655D01*
X9574500Y37824500D01*
X11738232Y37824500D01*
X11796423Y37805593D01*
X11819906Y37781449D01*
X11822791Y37777237D01*
X11865017Y37735012D01*
X11902235Y37697794D01*
X12005009Y37652415D01*
X12030135Y37649500D01*
X13169864Y37649501D01*
X13194991Y37652415D01*
X13297765Y37697794D01*
X13377206Y37777235D01*
X13422585Y37880009D01*
X13425500Y37905135D01*
X13425499Y38594864D01*
X13422585Y38619991D01*
X13377206Y38722765D01*
X13297765Y38802206D01*
X13194991Y38847585D01*
X13194990Y38847586D01*
X13194988Y38847586D01*
X13187805Y38849540D01*
X13188271Y38851254D01*
X13178384Y38855785D01*
X13158362Y38850500D01*
X12030139Y38850500D01*
X12030136Y38850499D01*
X12005009Y38847586D01*
X11912991Y38806956D01*
X11908774Y38805093D01*
X11902233Y38802205D01*
X11822791Y38722764D01*
X11819906Y38718551D01*
X11771422Y38681229D01*
X11738232Y38675500D01*
X11664507Y38675500D01*
X11606316Y38694407D01*
X11570352Y38743907D01*
X11570352Y38805093D01*
X11594503Y38844504D01*
X11599999Y38850000D01*
X11600000Y38850000D01*
X11600000Y40712505D01*
X11618907Y40770696D01*
X11668407Y40806660D01*
X11729593Y40806660D01*
X11779093Y40770696D01*
X11789562Y40752498D01*
X11822794Y40677235D01*
X11902235Y40597794D01*
X11990489Y40558827D01*
X12036083Y40518028D01*
X12049500Y40468263D01*
X12049500Y40461080D01*
X12049442Y40457701D01*
X12047238Y40393177D01*
X12047238Y40393172D01*
X12057266Y40352023D01*
X12059159Y40342065D01*
X12064930Y40300079D01*
X12064930Y40300078D01*
X12072931Y40281659D01*
X12078313Y40265655D01*
X12083065Y40246154D01*
X12083066Y40246150D01*
X12083067Y40246148D01*
X12094676Y40225500D01*
X12103833Y40209215D01*
X12108340Y40200140D01*
X12111428Y40193031D01*
X12125220Y40161279D01*
X12137891Y40145705D01*
X12147388Y40131751D01*
X12157234Y40114241D01*
X12187197Y40084279D01*
X12193990Y40076751D01*
X12220720Y40043894D01*
X12220722Y40043892D01*
X12237126Y40032313D01*
X12250039Y40021436D01*
X12366505Y39904971D01*
X12394283Y39850454D01*
X12394879Y39846052D01*
X12414630Y39670751D01*
X12414633Y39670739D01*
X12474211Y39500478D01*
X12474211Y39500477D01*
X12565248Y39355593D01*
X12570184Y39347738D01*
X12697738Y39220184D01*
X12697740Y39220183D01*
X12697741Y39220182D01*
X12777315Y39170182D01*
X12850478Y39124211D01*
X12918657Y39100354D01*
X13020738Y39064634D01*
X13020742Y39064633D01*
X13020745Y39064632D01*
X13169447Y39047878D01*
X13185773Y39040462D01*
X13197045Y39044103D01*
X13199995Y39044436D01*
X13200000Y39044435D01*
X13379255Y39064632D01*
X13549522Y39124211D01*
X13702262Y39220184D01*
X13829816Y39347738D01*
X13925789Y39500478D01*
X13985368Y39670745D01*
X14005565Y39850000D01*
X13985368Y40029255D01*
X13980246Y40043892D01*
X13944620Y40145705D01*
X13925789Y40199522D01*
X13919698Y40209215D01*
X13829818Y40352259D01*
X13829817Y40352260D01*
X13829816Y40352262D01*
X13702262Y40479816D01*
X13702259Y40479818D01*
X13702258Y40479819D01*
X13549524Y40575788D01*
X13549523Y40575789D01*
X13549522Y40575789D01*
X13522776Y40585148D01*
X13462620Y40606198D01*
X13413940Y40643264D01*
X13396344Y40701864D01*
X13404753Y40739624D01*
X13422585Y40780009D01*
X13425500Y40805135D01*
X13425500Y40805209D01*
X14475001Y40805209D01*
X14477909Y40780126D01*
X14523213Y40677523D01*
X14602522Y40598214D01*
X14705127Y40552910D01*
X14730203Y40550001D01*
X15149998Y40550001D01*
X15150000Y40550002D01*
X15450000Y40550002D01*
X15450001Y40550001D01*
X15869790Y40550001D01*
X15869791Y40550002D01*
X15894874Y40552910D01*
X15997477Y40598214D01*
X16076786Y40677523D01*
X16122090Y40780128D01*
X16124999Y40805203D01*
X16125000Y40805205D01*
X16125000Y40999999D01*
X16124999Y41000000D01*
X15450001Y41000000D01*
X15450000Y40999999D01*
X15450000Y40550002D01*
X15150000Y40550002D01*
X15150000Y40999999D01*
X15149999Y41000000D01*
X14475002Y41000000D01*
X14475001Y40999999D01*
X14475001Y40805209D01*
X13425500Y40805209D01*
X13425499Y41494864D01*
X13422585Y41519991D01*
X13377206Y41622765D01*
X13297765Y41702206D01*
X13194991Y41747585D01*
X13194990Y41747586D01*
X13194988Y41747586D01*
X13169868Y41750500D01*
X12030139Y41750500D01*
X12030136Y41750499D01*
X12005009Y41747586D01*
X11902235Y41702206D01*
X11822794Y41622765D01*
X11777414Y41519989D01*
X11775286Y41501647D01*
X11749796Y41446024D01*
X11696480Y41416007D01*
X11635702Y41423061D01*
X11606942Y41443057D01*
X11600000Y41449999D01*
X11600000Y41450000D01*
X9650000Y41450000D01*
X9650000Y41449999D01*
X9644504Y41444503D01*
X9589987Y41416726D01*
X9529555Y41426297D01*
X9486290Y41469562D01*
X9475500Y41514507D01*
X9475500Y42525500D01*
X9494407Y42583691D01*
X9543907Y42619655D01*
X9574500Y42624500D01*
X11016512Y42624500D01*
X11738232Y42624500D01*
X11796423Y42605593D01*
X11819906Y42581449D01*
X11822791Y42577237D01*
X11865017Y42535012D01*
X11902235Y42497794D01*
X12005009Y42452415D01*
X12030135Y42449500D01*
X13169864Y42449501D01*
X13194991Y42452415D01*
X13297765Y42497794D01*
X13377206Y42577235D01*
X13422585Y42680009D01*
X13425500Y42705135D01*
X13425499Y43394864D01*
X13422585Y43419991D01*
X13377206Y43522765D01*
X13297765Y43602206D01*
X13194991Y43647585D01*
X13194990Y43647586D01*
X13194988Y43647586D01*
X13169868Y43650500D01*
X12030139Y43650500D01*
X12030136Y43650499D01*
X12005009Y43647586D01*
X11940059Y43618907D01*
X11908774Y43605093D01*
X11902233Y43602205D01*
X11822791Y43522764D01*
X11819906Y43518551D01*
X11771422Y43481229D01*
X11738232Y43475500D01*
X11114507Y43475500D01*
X11056316Y43494407D01*
X11020352Y43543907D01*
X11020352Y43605093D01*
X11044503Y43644504D01*
X11049999Y43650000D01*
X11050000Y43650000D01*
X11050000Y45200000D01*
X9650000Y45200000D01*
X9650000Y45199999D01*
X9644504Y45194503D01*
X9589987Y45166726D01*
X9529555Y45176297D01*
X9486290Y45219562D01*
X9475500Y45264507D01*
X9475500Y45455140D01*
X11824500Y45455140D01*
X11824501Y45455137D01*
X11827414Y45430010D01*
X11831474Y45420816D01*
X11872794Y45327235D01*
X11952235Y45247794D01*
X12055009Y45202415D01*
X12080135Y45199500D01*
X12580966Y45199501D01*
X12639157Y45180594D01*
X12650970Y45170505D01*
X13166506Y44654970D01*
X13194283Y44600453D01*
X13194879Y44596051D01*
X13214630Y44420751D01*
X13214633Y44420739D01*
X13274211Y44250478D01*
X13274211Y44250477D01*
X13370181Y44097742D01*
X13370184Y44097738D01*
X13497738Y43970184D01*
X13497740Y43970183D01*
X13497741Y43970182D01*
X13637513Y43882357D01*
X13650478Y43874211D01*
X13718657Y43850354D01*
X13820738Y43814634D01*
X13820742Y43814633D01*
X13820745Y43814632D01*
X14000000Y43794435D01*
X14179255Y43814632D01*
X14349522Y43874211D01*
X14502262Y43970184D01*
X14629816Y44097738D01*
X14725789Y44250478D01*
X14785368Y44420745D01*
X14805565Y44600000D01*
X14785368Y44779255D01*
X14785210Y44779706D01*
X14740364Y44907868D01*
X14725789Y44949522D01*
X14725788Y44949524D01*
X14661585Y45051703D01*
X14646635Y45111034D01*
X14669414Y45167821D01*
X14721221Y45200373D01*
X14756825Y45202714D01*
X14780208Y45200001D01*
X15199998Y45200001D01*
X15200000Y45200002D01*
X15200000Y45649999D01*
X15199999Y45650000D01*
X14525002Y45650000D01*
X14525001Y45649999D01*
X14525001Y45455209D01*
X14527909Y45430126D01*
X14527910Y45430123D01*
X14529506Y45426509D01*
X14535711Y45365640D01*
X14504952Y45312748D01*
X14448979Y45288036D01*
X14389171Y45300945D01*
X14386267Y45302701D01*
X14349526Y45325788D01*
X14349522Y45325789D01*
X14179261Y45385367D01*
X14179249Y45385370D01*
X14003949Y45405121D01*
X13948241Y45430424D01*
X13945030Y45433495D01*
X13504495Y45874031D01*
X13476718Y45928547D01*
X13475499Y45944034D01*
X13475499Y46144861D01*
X13475499Y46144864D01*
X13472585Y46169991D01*
X13427206Y46272765D01*
X13347765Y46352206D01*
X13244991Y46397585D01*
X13244990Y46397586D01*
X13244988Y46397586D01*
X13219868Y46400500D01*
X12080139Y46400500D01*
X12080136Y46400499D01*
X12055009Y46397586D01*
X11952235Y46352206D01*
X11872794Y46272765D01*
X11827414Y46169989D01*
X11824500Y46144870D01*
X11824500Y45455140D01*
X9475500Y45455140D01*
X9475500Y46235751D01*
X9494407Y46293942D01*
X9543907Y46329906D01*
X9605093Y46329906D01*
X9646419Y46303785D01*
X9650000Y46300000D01*
X11049999Y46300000D01*
X11050000Y46300000D01*
X11050000Y47175500D01*
X11068907Y47233691D01*
X11118407Y47269655D01*
X11149000Y47274500D01*
X11788232Y47274500D01*
X11846423Y47255593D01*
X11869906Y47231449D01*
X11872791Y47227237D01*
X11912549Y47187480D01*
X11952235Y47147794D01*
X12055009Y47102415D01*
X12080135Y47099500D01*
X13219864Y47099501D01*
X13244991Y47102415D01*
X13347765Y47147794D01*
X13427206Y47227235D01*
X13472585Y47330009D01*
X13475500Y47355135D01*
X13475499Y48044864D01*
X13472585Y48069991D01*
X13427206Y48172765D01*
X13347765Y48252206D01*
X13244991Y48297585D01*
X13244990Y48297586D01*
X13244988Y48297586D01*
X13219868Y48300500D01*
X12080139Y48300500D01*
X12080136Y48300499D01*
X12055009Y48297586D01*
X11962991Y48256956D01*
X11958774Y48255093D01*
X11952233Y48252205D01*
X11872791Y48172764D01*
X11869906Y48168551D01*
X11821422Y48131229D01*
X11788232Y48125500D01*
X11714507Y48125500D01*
X11656316Y48144407D01*
X11620352Y48193907D01*
X11620352Y48255093D01*
X11644503Y48294504D01*
X11649999Y48300000D01*
X11650000Y48300000D01*
X11650000Y50062505D01*
X11668907Y50120696D01*
X11718407Y50156660D01*
X11779593Y50156660D01*
X11829093Y50120696D01*
X11839562Y50102498D01*
X11872794Y50027235D01*
X11952235Y49947794D01*
X12055009Y49902415D01*
X12080135Y49899500D01*
X12430966Y49899501D01*
X12489157Y49880594D01*
X12500970Y49870505D01*
X13185553Y49185923D01*
X13213330Y49131406D01*
X13213926Y49127007D01*
X13214631Y49120749D01*
X13214633Y49120739D01*
X13274211Y48950478D01*
X13274211Y48950477D01*
X13370181Y48797742D01*
X13370184Y48797738D01*
X13497738Y48670184D01*
X13497740Y48670183D01*
X13497741Y48670182D01*
X13533460Y48647738D01*
X13650478Y48574211D01*
X13718657Y48550354D01*
X13820738Y48514634D01*
X13820742Y48514633D01*
X13820745Y48514632D01*
X14000000Y48494435D01*
X14179255Y48514632D01*
X14349522Y48574211D01*
X14502262Y48670184D01*
X14629816Y48797738D01*
X14725789Y48950478D01*
X14785368Y49120745D01*
X14805565Y49300000D01*
X14785368Y49479255D01*
X14778276Y49499522D01*
X14743117Y49600000D01*
X14725789Y49649522D01*
X14725788Y49649524D01*
X14661585Y49751703D01*
X14646635Y49811034D01*
X14669414Y49867821D01*
X14721221Y49900373D01*
X14756825Y49902714D01*
X14780208Y49900001D01*
X15199998Y49900001D01*
X15200000Y49900002D01*
X15200000Y50349999D01*
X15199999Y50350000D01*
X14525002Y50350000D01*
X14525001Y50349999D01*
X14525001Y50155209D01*
X14527909Y50130126D01*
X14527910Y50130123D01*
X14529506Y50126509D01*
X14535711Y50065640D01*
X14504952Y50012748D01*
X14448979Y49988036D01*
X14389171Y50000945D01*
X14386267Y50002701D01*
X14349526Y50025788D01*
X14349522Y50025789D01*
X14179261Y50085367D01*
X14179257Y50085368D01*
X14059751Y50098833D01*
X14000000Y50105565D01*
X13999999Y50105565D01*
X13888260Y50092976D01*
X13828319Y50105250D01*
X13807173Y50121351D01*
X13504495Y50424030D01*
X13476718Y50478546D01*
X13475499Y50494033D01*
X13475499Y50844861D01*
X13475499Y50844864D01*
X13472585Y50869991D01*
X13427206Y50972765D01*
X13347765Y51052206D01*
X13244991Y51097585D01*
X13244990Y51097586D01*
X13244988Y51097586D01*
X13219868Y51100500D01*
X12080139Y51100500D01*
X12080136Y51100499D01*
X12055009Y51097586D01*
X11952235Y51052206D01*
X11872794Y50972765D01*
X11839563Y50897506D01*
X11798764Y50851911D01*
X11738955Y50839006D01*
X11682983Y50863720D01*
X11652227Y50916613D01*
X11650000Y50937495D01*
X11650000Y51799999D01*
X11650000Y51800000D01*
X11649999Y51800000D01*
X11644503Y51805496D01*
X11616726Y51860013D01*
X11626297Y51920445D01*
X11669562Y51963710D01*
X11714507Y51974500D01*
X11788232Y51974500D01*
X11846423Y51955593D01*
X11869906Y51931449D01*
X11872791Y51927237D01*
X11914398Y51885631D01*
X11952235Y51847794D01*
X12055009Y51802415D01*
X12080135Y51799500D01*
X13219864Y51799501D01*
X13244991Y51802415D01*
X13347765Y51847794D01*
X13427206Y51927235D01*
X13472585Y52030009D01*
X13475500Y52055135D01*
X13475499Y52744864D01*
X13472585Y52769991D01*
X13427206Y52872765D01*
X13347765Y52952206D01*
X13244991Y52997585D01*
X13244990Y52997586D01*
X13244988Y52997586D01*
X13219868Y53000500D01*
X12080139Y53000500D01*
X12080136Y53000499D01*
X12055009Y52997586D01*
X11962991Y52956956D01*
X11958774Y52955093D01*
X11952233Y52952205D01*
X11872791Y52872764D01*
X11869906Y52868551D01*
X11821422Y52831229D01*
X11788232Y52825500D01*
X11064507Y52825500D01*
X11006316Y52844407D01*
X10970352Y52893907D01*
X10970352Y52955093D01*
X10994503Y52994504D01*
X10999999Y53000000D01*
X11000000Y53000000D01*
X11000000Y56600000D01*
X10999999Y56600000D01*
X10994503Y56605496D01*
X10966726Y56660013D01*
X10976297Y56720445D01*
X11019562Y56763710D01*
X11064507Y56774500D01*
X11451000Y56774500D01*
X11509191Y56755593D01*
X11545155Y56706093D01*
X11550000Y56675500D01*
X11550000Y55300000D01*
X11725501Y55300000D01*
X11783692Y55281093D01*
X11819656Y55231593D01*
X11824501Y55201000D01*
X11824501Y54955137D01*
X11827414Y54930010D01*
X11833280Y54916726D01*
X11872794Y54827235D01*
X11952235Y54747794D01*
X12055009Y54702415D01*
X12080135Y54699500D01*
X12430966Y54699501D01*
X12489157Y54680594D01*
X12500970Y54670505D01*
X13118524Y54052951D01*
X13146301Y53998434D01*
X13146898Y53971866D01*
X13144435Y53950002D01*
X13144435Y53950000D01*
X13150069Y53900000D01*
X13164632Y53770743D01*
X13164633Y53770739D01*
X13224211Y53600478D01*
X13224211Y53600477D01*
X13305731Y53470739D01*
X13320184Y53447738D01*
X13447738Y53320184D01*
X13600478Y53224211D01*
X13619623Y53217512D01*
X13770738Y53164634D01*
X13770742Y53164633D01*
X13770745Y53164632D01*
X13950000Y53144435D01*
X14129255Y53164632D01*
X14299522Y53224211D01*
X14452262Y53320184D01*
X14579816Y53447738D01*
X14675789Y53600478D01*
X14735368Y53770745D01*
X14755565Y53950000D01*
X14735368Y54129255D01*
X14675789Y54299522D01*
X14579816Y54452262D01*
X14452262Y54579816D01*
X14452259Y54579818D01*
X14452258Y54579819D01*
X14299523Y54675789D01*
X14129261Y54735367D01*
X14129249Y54735370D01*
X14010299Y54748772D01*
X13954591Y54774075D01*
X13951380Y54777145D01*
X13773316Y54955209D01*
X14525001Y54955209D01*
X14527909Y54930126D01*
X14573213Y54827523D01*
X14652522Y54748214D01*
X14755127Y54702910D01*
X14780203Y54700001D01*
X15199998Y54700001D01*
X15200000Y54700002D01*
X15500000Y54700002D01*
X15500001Y54700001D01*
X15919790Y54700001D01*
X15919791Y54700002D01*
X15944874Y54702910D01*
X16047477Y54748214D01*
X16126786Y54827523D01*
X16172090Y54930128D01*
X16174999Y54955203D01*
X16175000Y54955205D01*
X16175000Y55149999D01*
X16174999Y55150000D01*
X15500001Y55150000D01*
X15500000Y55149999D01*
X15500000Y54700002D01*
X15200000Y54700002D01*
X15200000Y55149999D01*
X15199999Y55150000D01*
X14525002Y55150000D01*
X14525001Y55149999D01*
X14525001Y54955209D01*
X13773316Y54955209D01*
X13504495Y55224030D01*
X13476718Y55278547D01*
X13475499Y55294034D01*
X13475499Y55644861D01*
X13475499Y55644864D01*
X13472585Y55669991D01*
X13427206Y55772765D01*
X13347765Y55852206D01*
X13244991Y55897585D01*
X13244990Y55897586D01*
X13244988Y55897586D01*
X13219868Y55900500D01*
X12080139Y55900500D01*
X12080136Y55900499D01*
X12055009Y55897586D01*
X11988988Y55868434D01*
X11928118Y55862226D01*
X11875225Y55892982D01*
X11850511Y55948954D01*
X11850000Y55958999D01*
X11850000Y56541002D01*
X11868907Y56599193D01*
X11918407Y56635157D01*
X11979593Y56635157D01*
X11988971Y56631574D01*
X12055009Y56602415D01*
X12080135Y56599500D01*
X13219864Y56599501D01*
X13244991Y56602415D01*
X13347765Y56647794D01*
X13427206Y56727235D01*
X13472585Y56830009D01*
X13475500Y56855135D01*
X13475499Y57544864D01*
X13472585Y57569991D01*
X13427206Y57672765D01*
X13347765Y57752206D01*
X13244991Y57797585D01*
X13244990Y57797586D01*
X13244988Y57797586D01*
X13219868Y57800500D01*
X12080139Y57800500D01*
X12080136Y57800499D01*
X12055009Y57797586D01*
X11952233Y57752205D01*
X11872791Y57672764D01*
X11869906Y57668551D01*
X11821422Y57631229D01*
X11788232Y57625500D01*
X9091279Y57625500D01*
X9075792Y57626719D01*
X9050000Y57630804D01*
X9016512Y57625500D01*
X8916874Y57609719D01*
X8916867Y57609717D01*
X8796782Y57548530D01*
X8701470Y57453218D01*
X8640282Y57333130D01*
X8640281Y57333128D01*
X8619196Y57200001D01*
X8623281Y57174210D01*
X8624500Y57158722D01*
X8624500Y52441280D01*
X8623281Y52425793D01*
X8619196Y52400001D01*
X8623281Y52374210D01*
X8624500Y52358722D01*
X8624500Y47741280D01*
X8623281Y47725793D01*
X8619196Y47700001D01*
X8623281Y47674210D01*
X8624500Y47658722D01*
X8624500Y43091280D01*
X8623281Y43075793D01*
X8619196Y43050001D01*
X8623281Y43024210D01*
X8624500Y43008722D01*
X8624500Y38291280D01*
X8623281Y38275793D01*
X8619196Y38250001D01*
X8623281Y38224210D01*
X8624500Y38208722D01*
X8624500Y35217393D01*
X8624500Y35082607D01*
X8632569Y35057775D01*
X8636195Y35042671D01*
X8640281Y35016874D01*
X8640281Y35016873D01*
X8652135Y34993609D01*
X8658079Y34979259D01*
X8666150Y34954421D01*
X8681497Y34933298D01*
X8689615Y34920050D01*
X8701470Y34896782D01*
X8701471Y34896780D01*
X8725445Y34872806D01*
X8725446Y34872806D01*
X14231362Y29366890D01*
X14259139Y29312373D01*
X14259736Y29285802D01*
X14245378Y29158365D01*
X14244435Y29150000D01*
X14245891Y29137078D01*
X14264632Y28970743D01*
X14264633Y28970739D01*
X14324211Y28800478D01*
X14324211Y28800477D01*
X14420181Y28647742D01*
X14420184Y28647738D01*
X14547738Y28520184D01*
X14578172Y28501062D01*
X14617383Y28454096D01*
X14624500Y28417237D01*
X14624500Y23239081D01*
X14605593Y23180890D01*
X14556093Y23144926D01*
X14494907Y23144926D01*
X14492802Y23145637D01*
X14379262Y23185367D01*
X14379257Y23185368D01*
X14200000Y23205565D01*
X14020742Y23185368D01*
X14020738Y23185367D01*
X13850477Y23125789D01*
X13850476Y23125789D01*
X13697741Y23029819D01*
X13570181Y22902259D01*
X13474211Y22749524D01*
X13474211Y22749523D01*
X13414633Y22579262D01*
X13414632Y22579258D01*
X13394435Y22400000D01*
X13414632Y22220743D01*
X13414633Y22220739D01*
X13474211Y22050478D01*
X13474211Y22050477D01*
X13570181Y21897742D01*
X13570184Y21897738D01*
X13697738Y21770184D01*
X13697740Y21770183D01*
X13697741Y21770182D01*
X13775499Y21721323D01*
X13850478Y21674211D01*
X13918657Y21650354D01*
X14020738Y21614634D01*
X14020742Y21614633D01*
X14020745Y21614632D01*
X14200000Y21594435D01*
X14379255Y21614632D01*
X14492802Y21654365D01*
X14553972Y21655738D01*
X14604266Y21620894D01*
X14624475Y21563142D01*
X14624500Y21560920D01*
X14624500Y18524500D01*
X14605593Y18466309D01*
X14556093Y18430345D01*
X14525500Y18425500D01*
X7017256Y18425500D01*
X6959065Y18444407D01*
X6947252Y18454496D01*
X6229496Y19172252D01*
X6201719Y19226769D01*
X6200500Y19242256D01*
X6200500Y21180494D01*
X6219407Y21238685D01*
X6263181Y21272591D01*
X6372339Y21315638D01*
X6372338Y21315638D01*
X6372342Y21315639D01*
X6492922Y21407078D01*
X6584361Y21527658D01*
X6598354Y21563142D01*
X6607889Y21587319D01*
X6646826Y21634516D01*
X6699986Y21650000D01*
X7800552Y21650000D01*
X7858743Y21631093D01*
X7892649Y21587319D01*
X7916077Y21527908D01*
X8007435Y21407436D01*
X8127904Y21316081D01*
X8268556Y21260614D01*
X8356935Y21250001D01*
X8356942Y21250000D01*
X8574999Y21250000D01*
X8575000Y21250001D01*
X8875000Y21250001D01*
X8875001Y21250000D01*
X9093058Y21250000D01*
X9093064Y21250001D01*
X9181443Y21260614D01*
X9322095Y21316081D01*
X9442564Y21407436D01*
X9533919Y21527905D01*
X9589386Y21668557D01*
X9599999Y21756936D01*
X9600000Y21756942D01*
X9600000Y22299999D01*
X9599999Y22300000D01*
X8875001Y22300000D01*
X8875000Y22299999D01*
X8875000Y21250001D01*
X8575000Y21250001D01*
X8575000Y22600001D01*
X8875000Y22600001D01*
X8875001Y22600000D01*
X9599999Y22600000D01*
X9600000Y22600001D01*
X9600000Y23143059D01*
X9599999Y23143065D01*
X9589386Y23231444D01*
X9533919Y23372096D01*
X9442564Y23492565D01*
X9322095Y23583920D01*
X9181443Y23639387D01*
X9093064Y23650000D01*
X8875001Y23650000D01*
X8875000Y23649999D01*
X8875000Y22600001D01*
X8575000Y22600001D01*
X8575000Y23649999D01*
X8574999Y23650000D01*
X8356935Y23650000D01*
X8268556Y23639387D01*
X8127904Y23583920D01*
X8007435Y23492565D01*
X7929036Y23389180D01*
X7878809Y23354238D01*
X7850152Y23350000D01*
X6650475Y23350000D01*
X6592284Y23368907D01*
X6571592Y23389180D01*
X6492922Y23492922D01*
X6372342Y23584361D01*
X6372341Y23584362D01*
X6372339Y23584363D01*
X6231565Y23639877D01*
X6143106Y23650500D01*
X6143102Y23650500D01*
X5406898Y23650500D01*
X5406893Y23650500D01*
X5318434Y23639877D01*
X5177660Y23584363D01*
X5177656Y23584360D01*
X5057081Y23492925D01*
X5057075Y23492919D01*
X4965640Y23372344D01*
X4965637Y23372340D01*
X4910123Y23231566D01*
X4899500Y23143107D01*
X4899500Y23034500D01*
X4880593Y22976309D01*
X4831093Y22940345D01*
X4800500Y22935500D01*
X3424664Y22935500D01*
X3366473Y22954407D01*
X3336043Y22990373D01*
X3272371Y23118245D01*
X3272369Y23118248D01*
X3272366Y23118255D01*
X3143872Y23288407D01*
X3071659Y23354238D01*
X2986307Y23432048D01*
X2986300Y23432054D01*
X2805024Y23544295D01*
X2805019Y23544298D01*
X2701606Y23584360D01*
X2606198Y23621321D01*
X2606197Y23621322D01*
X2606195Y23621322D01*
X2396610Y23660500D01*
X2183390Y23660500D01*
X1973804Y23621322D01*
X1774980Y23544298D01*
X1774975Y23544295D01*
X1593699Y23432054D01*
X1593692Y23432048D01*
X1436135Y23288414D01*
X1436131Y23288411D01*
X1436128Y23288407D01*
X1436125Y23288403D01*
X1307635Y23118257D01*
X1307630Y23118248D01*
X1212596Y22927392D01*
X1154244Y22722312D01*
X1134571Y22510000D01*
X905429Y22510000D01*
X885756Y22722310D01*
X827405Y22927389D01*
X732366Y23118255D01*
X603872Y23288407D01*
X531659Y23354238D01*
X446307Y23432048D01*
X446300Y23432054D01*
X265024Y23544295D01*
X265019Y23544298D01*
X161606Y23584360D01*
X66198Y23621321D01*
X66197Y23621322D01*
X66195Y23621322D01*
X-143390Y23660500D01*
X-356610Y23660500D01*
X-566196Y23621322D01*
X-765020Y23544298D01*
X-765025Y23544295D01*
X-946301Y23432054D01*
X-946308Y23432048D01*
X-1103865Y23288414D01*
X-1103869Y23288411D01*
X-1103872Y23288407D01*
X-1103875Y23288403D01*
X-1232365Y23118257D01*
X-1232370Y23118248D01*
X-1327404Y22927392D01*
X-1385756Y22722312D01*
X-1405429Y22510000D01*
X-2999500Y22510000D01*
X-2999500Y25050000D01*
X-1405429Y25050000D01*
X-1386688Y24847742D01*
X-1385756Y24837690D01*
X-1327405Y24632611D01*
X-1232366Y24441745D01*
X-1103872Y24271593D01*
X-1103865Y24271587D01*
X-946308Y24127953D01*
X-946301Y24127947D01*
X-842611Y24063745D01*
X-765019Y24015702D01*
X-566198Y23938679D01*
X-356610Y23899500D01*
X-143390Y23899500D01*
X66198Y23938679D01*
X265019Y24015702D01*
X446302Y24127948D01*
X603872Y24271593D01*
X732366Y24441745D01*
X827405Y24632611D01*
X885756Y24837690D01*
X905429Y25050000D01*
X885756Y25262310D01*
X827405Y25467389D01*
X732366Y25658255D01*
X603872Y25828407D01*
X470491Y25950001D01*
X446307Y25972048D01*
X446300Y25972054D01*
X265024Y26084295D01*
X265019Y26084298D01*
X206273Y26107056D01*
X66198Y26161321D01*
X66197Y26161322D01*
X66195Y26161322D01*
X-143390Y26200500D01*
X-356610Y26200500D01*
X-566196Y26161322D01*
X-765020Y26084298D01*
X-765025Y26084295D01*
X-946301Y25972054D01*
X-946308Y25972048D01*
X-1103865Y25828414D01*
X-1103869Y25828411D01*
X-1103872Y25828407D01*
X-1103875Y25828403D01*
X-1232365Y25658257D01*
X-1232370Y25658248D01*
X-1327404Y25467392D01*
X-1385756Y25262312D01*
X-1405429Y25050000D01*
X-2999500Y25050000D01*
X-2999500Y27590000D01*
X-1405429Y27590000D01*
X-1385756Y27377689D01*
X-1385753Y27377680D01*
X-1327405Y27172611D01*
X-1232366Y26981745D01*
X-1103872Y26811593D01*
X-1069318Y26780093D01*
X-946308Y26667953D01*
X-946301Y26667947D01*
X-869162Y26620185D01*
X-765019Y26555702D01*
X-566198Y26478679D01*
X-356610Y26439500D01*
X-143390Y26439500D01*
X66198Y26478679D01*
X145425Y26509373D01*
X206515Y26512762D01*
X251191Y26487061D01*
X766472Y25971780D01*
X766471Y25971780D01*
X856659Y25881593D01*
X861780Y25876472D01*
X885050Y25864616D01*
X898289Y25856503D01*
X919420Y25841150D01*
X944261Y25833079D01*
X958605Y25827137D01*
X981874Y25815281D01*
X1007671Y25811196D01*
X1022765Y25807573D01*
X1047607Y25799500D01*
X1081512Y25799500D01*
X1218075Y25799500D01*
X1276266Y25780593D01*
X1312230Y25731093D01*
X1312230Y25669907D01*
X1306696Y25656372D01*
X1212596Y25467392D01*
X1154244Y25262312D01*
X1134571Y25050000D01*
X1153312Y24847742D01*
X1154244Y24837690D01*
X1212595Y24632611D01*
X1307634Y24441745D01*
X1436128Y24271593D01*
X1436135Y24271587D01*
X1593692Y24127953D01*
X1593699Y24127947D01*
X1697389Y24063745D01*
X1774981Y24015702D01*
X1973802Y23938679D01*
X2183390Y23899500D01*
X2396610Y23899500D01*
X2606198Y23938679D01*
X2805019Y24015702D01*
X2986302Y24127948D01*
X3143872Y24271593D01*
X3272366Y24441745D01*
X3367405Y24632611D01*
X3425756Y24837690D01*
X3445429Y25050000D01*
X3425756Y25262310D01*
X3367405Y25467389D01*
X3283769Y25635355D01*
X3273304Y25656372D01*
X3264291Y25716890D01*
X3292572Y25771148D01*
X3347343Y25798420D01*
X3361925Y25799500D01*
X3667394Y25799500D01*
X3676875Y25802582D01*
X3692222Y25807569D01*
X3707328Y25811197D01*
X3733126Y25815281D01*
X3756405Y25827144D01*
X3770738Y25833080D01*
X3795581Y25841151D01*
X3816707Y25856502D01*
X3829953Y25864618D01*
X3853220Y25876472D01*
X3948528Y25971780D01*
X3948528Y25971781D01*
X4192496Y26215751D01*
X4247011Y26243527D01*
X4307443Y26233956D01*
X4332502Y26215750D01*
X4981362Y25566890D01*
X5009139Y25512373D01*
X5009736Y25485802D01*
X4994435Y25350001D01*
X5014632Y25170743D01*
X5014633Y25170739D01*
X5074211Y25000478D01*
X5074211Y25000477D01*
X5116771Y24932744D01*
X5170184Y24847738D01*
X5297738Y24720184D01*
X5297740Y24720183D01*
X5297741Y24720182D01*
X5437112Y24632609D01*
X5450478Y24624211D01*
X5518657Y24600354D01*
X5620738Y24564634D01*
X5620742Y24564633D01*
X5620745Y24564632D01*
X5800000Y24544435D01*
X5979255Y24564632D01*
X6149522Y24624211D01*
X6302262Y24720184D01*
X6429816Y24847738D01*
X6525789Y25000478D01*
X6585368Y25170745D01*
X6605565Y25350000D01*
X6585368Y25529255D01*
X6584236Y25532489D01*
X6546035Y25641662D01*
X6525789Y25699522D01*
X6524860Y25701000D01*
X6429818Y25852259D01*
X6429817Y25852260D01*
X6429816Y25852262D01*
X6302262Y25979816D01*
X6302259Y25979818D01*
X6302258Y25979819D01*
X6149523Y26075789D01*
X6060167Y26107056D01*
X6011487Y26144121D01*
X5993890Y26202722D01*
X6014098Y26260473D01*
X6064393Y26295317D01*
X6092865Y26299500D01*
X6243100Y26299500D01*
X6243102Y26299500D01*
X6331564Y26310123D01*
X6472342Y26365639D01*
X6592922Y26457078D01*
X6684361Y26577658D01*
X6692525Y26598360D01*
X6707889Y26637319D01*
X6746825Y26684516D01*
X6799986Y26700000D01*
X7900552Y26700000D01*
X7958743Y26681093D01*
X7992649Y26637319D01*
X8016077Y26577908D01*
X8107435Y26457436D01*
X8227904Y26366081D01*
X8368556Y26310614D01*
X8456935Y26300001D01*
X8456942Y26300000D01*
X8674999Y26300000D01*
X8675000Y26300001D01*
X8675000Y28699999D01*
X8674999Y28700000D01*
X8456935Y28700000D01*
X8368556Y28689387D01*
X8227904Y28633920D01*
X8158820Y28581531D01*
X8101028Y28561436D01*
X8042463Y28579147D01*
X8005492Y28627900D01*
X8000000Y28660415D01*
X8000000Y29401669D01*
X8018907Y29459860D01*
X8068407Y29495824D01*
X8129593Y29495824D01*
X8158820Y29480552D01*
X8177902Y29466082D01*
X8318556Y29410614D01*
X8406935Y29400001D01*
X8406942Y29400000D01*
X8624999Y29400000D01*
X8625000Y29400001D01*
X8925000Y29400001D01*
X8925001Y29400000D01*
X9143058Y29400000D01*
X9143064Y29400001D01*
X9231445Y29410615D01*
X9269876Y29425770D01*
X9330946Y29429529D01*
X9382562Y29396675D01*
X9405009Y29339756D01*
X9404574Y29322589D01*
X9386071Y29158365D01*
X9406268Y28979107D01*
X9406269Y28979103D01*
X9465847Y28808842D01*
X9465851Y28808833D01*
X9465870Y28808803D01*
X9465874Y28808785D01*
X9468262Y28803826D01*
X9467247Y28803338D01*
X9480819Y28749472D01*
X9458038Y28692686D01*
X9406229Y28660135D01*
X9345724Y28664037D01*
X9281443Y28689387D01*
X9193064Y28700000D01*
X8975001Y28700000D01*
X8975000Y28699999D01*
X8975000Y26300001D01*
X8975001Y26300000D01*
X9193058Y26300000D01*
X9193064Y26300001D01*
X9281443Y26310614D01*
X9422095Y26366081D01*
X9542564Y26457436D01*
X9542567Y26457439D01*
X9588252Y26517683D01*
X9638478Y26552625D01*
X9699651Y26551372D01*
X9748404Y26514402D01*
X9766136Y26457864D01*
X9766136Y25925757D01*
X9766136Y25790971D01*
X9772577Y25771148D01*
X9774205Y25766139D01*
X9777831Y25751035D01*
X9781917Y25725238D01*
X9781917Y25725237D01*
X9793771Y25701973D01*
X9799715Y25687623D01*
X9805472Y25669907D01*
X9807787Y25662783D01*
X9811077Y25658255D01*
X9823133Y25641662D01*
X9831251Y25628414D01*
X9843106Y25605146D01*
X9843107Y25605144D01*
X9867081Y25581170D01*
X9867082Y25581170D01*
X10445504Y25002748D01*
X10473281Y24948231D01*
X10474500Y24932744D01*
X10474500Y23867256D01*
X10455593Y23809065D01*
X10445504Y23797252D01*
X10396780Y23748528D01*
X10396779Y23748529D01*
X10301472Y23653222D01*
X10301470Y23653218D01*
X10289614Y23629950D01*
X10281500Y23616709D01*
X10266150Y23595582D01*
X10258081Y23570747D01*
X10252138Y23556399D01*
X10240281Y23533128D01*
X10236196Y23507335D01*
X10232571Y23492235D01*
X10224500Y23467394D01*
X10224500Y22882765D01*
X10205593Y22824574D01*
X10178172Y22798940D01*
X10147743Y22779821D01*
X10020181Y22652259D01*
X9924211Y22499524D01*
X9924211Y22499523D01*
X9864633Y22329262D01*
X9864632Y22329258D01*
X9844435Y22150000D01*
X9864632Y21970743D01*
X9864633Y21970739D01*
X9924211Y21800478D01*
X9924211Y21800477D01*
X10020181Y21647742D01*
X10020184Y21647738D01*
X10147738Y21520184D01*
X10147740Y21520183D01*
X10147741Y21520182D01*
X10218530Y21475702D01*
X10300478Y21424211D01*
X10349447Y21407076D01*
X10470738Y21364634D01*
X10470742Y21364633D01*
X10470745Y21364632D01*
X10650000Y21344435D01*
X10829255Y21364632D01*
X10999522Y21424211D01*
X11152262Y21520184D01*
X11279816Y21647738D01*
X11375789Y21800478D01*
X11435368Y21970745D01*
X11455565Y22150000D01*
X11435368Y22329255D01*
X11375789Y22499522D01*
X11329775Y22572752D01*
X11279818Y22652259D01*
X11279817Y22652260D01*
X11279816Y22652262D01*
X11152262Y22779816D01*
X11152259Y22779818D01*
X11152256Y22779821D01*
X11121828Y22798940D01*
X11082616Y22845909D01*
X11075500Y22882765D01*
X11075500Y23182744D01*
X11094407Y23240935D01*
X11104496Y23252748D01*
X11248528Y23396780D01*
X11260385Y23420053D01*
X11268494Y23433286D01*
X11283849Y23454419D01*
X11291920Y23479262D01*
X11297856Y23493595D01*
X11309719Y23516874D01*
X11313803Y23542672D01*
X11317431Y23557778D01*
X11325500Y23582607D01*
X11325500Y23717393D01*
X11325500Y25183488D01*
X11325500Y25217393D01*
X11317431Y25242225D01*
X11313803Y25257335D01*
X11313015Y25262312D01*
X11309719Y25283126D01*
X11297858Y25306403D01*
X11291919Y25320741D01*
X11283849Y25345581D01*
X11268498Y25366709D01*
X11260384Y25379950D01*
X11248528Y25403220D01*
X11210887Y25440861D01*
X11153220Y25498529D01*
X11153220Y25498528D01*
X10646132Y26005616D01*
X10618355Y26060133D01*
X10617136Y26075620D01*
X10617136Y28425601D01*
X10636043Y28483792D01*
X10663461Y28509424D01*
X10693898Y28528548D01*
X10821452Y28656102D01*
X10917425Y28808842D01*
X10977004Y28979109D01*
X10997201Y29158364D01*
X10977004Y29337619D01*
X10976256Y29339756D01*
X10932208Y29465638D01*
X10917425Y29507886D01*
X10908717Y29521744D01*
X10821454Y29660623D01*
X10821453Y29660624D01*
X10821452Y29660626D01*
X10693898Y29788180D01*
X10693895Y29788182D01*
X10693894Y29788183D01*
X10541159Y29884153D01*
X10370897Y29943731D01*
X10370893Y29943732D01*
X10191636Y29963929D01*
X10012378Y29943732D01*
X10012374Y29943731D01*
X9842113Y29884153D01*
X9842107Y29884150D01*
X9801670Y29858742D01*
X9742339Y29843792D01*
X9685553Y29866572D01*
X9653000Y29918379D01*
X9650000Y29942568D01*
X9650000Y30449999D01*
X9649999Y30450000D01*
X8925001Y30450000D01*
X8925000Y30449999D01*
X8925000Y29400001D01*
X8625000Y29400001D01*
X8625000Y30750001D01*
X8925000Y30750001D01*
X8925001Y30750000D01*
X9649999Y30750000D01*
X9650000Y30750001D01*
X9650000Y31293059D01*
X9649999Y31293065D01*
X9639386Y31381444D01*
X9583919Y31522096D01*
X9492564Y31642565D01*
X9372095Y31733920D01*
X9231443Y31789387D01*
X9143064Y31800000D01*
X8925001Y31800000D01*
X8925000Y31799999D01*
X8925000Y30750001D01*
X8625000Y30750001D01*
X8625000Y31799999D01*
X8624999Y31800000D01*
X8406935Y31800000D01*
X8318556Y31789387D01*
X8177904Y31733920D01*
X8057435Y31642565D01*
X7966077Y31522093D01*
X7942649Y31462681D01*
X7903713Y31415484D01*
X7850552Y31400000D01*
X6749986Y31400000D01*
X6691795Y31418907D01*
X6657889Y31462681D01*
X6634362Y31522339D01*
X6634361Y31522342D01*
X6542922Y31642922D01*
X6422342Y31734361D01*
X6422341Y31734362D01*
X6422339Y31734363D01*
X6281565Y31789877D01*
X6193106Y31800500D01*
X6193102Y31800500D01*
X5456898Y31800500D01*
X5456893Y31800500D01*
X5368434Y31789877D01*
X5227660Y31734363D01*
X5227656Y31734360D01*
X5107081Y31642925D01*
X5107075Y31642919D01*
X5015640Y31522344D01*
X5015637Y31522340D01*
X4960123Y31381566D01*
X4949500Y31293107D01*
X4949500Y30544033D01*
X4930593Y30485842D01*
X4920504Y30474029D01*
X4225971Y29779496D01*
X4171454Y29751719D01*
X4155967Y29750500D01*
X3911079Y29750500D01*
X3907700Y29750558D01*
X3843175Y29752762D01*
X3843174Y29752762D01*
X3843173Y29752762D01*
X3843166Y29752761D01*
X3802020Y29742734D01*
X3792063Y29740841D01*
X3750080Y29735071D01*
X3731657Y29727068D01*
X3715659Y29721688D01*
X3696149Y29716934D01*
X3696144Y29716932D01*
X3659218Y29696170D01*
X3650146Y29691664D01*
X3611279Y29674780D01*
X3595698Y29662105D01*
X3581752Y29652613D01*
X3564241Y29642767D01*
X3534276Y29612803D01*
X3526760Y29606021D01*
X3523480Y29603352D01*
X3466411Y29581289D01*
X3407273Y29596985D01*
X3368655Y29644443D01*
X3365308Y29705537D01*
X3366175Y29708203D01*
X3366152Y29708209D01*
X3367403Y29712609D01*
X3367405Y29712611D01*
X3425756Y29917690D01*
X3445429Y30130000D01*
X3425756Y30342310D01*
X3367405Y30547389D01*
X3272366Y30738255D01*
X3143872Y30908407D01*
X3097723Y30950478D01*
X2986303Y31052052D01*
X2986300Y31052055D01*
X2887383Y31113302D01*
X2847862Y31160011D01*
X2840500Y31197473D01*
X2840500Y33142321D01*
X2859407Y33200512D01*
X2879678Y33221203D01*
X2992922Y33307078D01*
X3071592Y33410820D01*
X3121818Y33445762D01*
X3150475Y33450000D01*
X4350152Y33450000D01*
X4408343Y33431093D01*
X4429036Y33410820D01*
X4507435Y33307436D01*
X4627904Y33216081D01*
X4768556Y33160614D01*
X4856935Y33150001D01*
X4856942Y33150000D01*
X5074999Y33150000D01*
X5075000Y33150001D01*
X5375000Y33150001D01*
X5375001Y33150000D01*
X5593058Y33150000D01*
X5593064Y33150001D01*
X5681443Y33160614D01*
X5822095Y33216081D01*
X5942564Y33307436D01*
X6033919Y33427905D01*
X6089386Y33568557D01*
X6099999Y33656936D01*
X6100000Y33656942D01*
X6100000Y34199999D01*
X6099999Y34200000D01*
X5375001Y34200000D01*
X5375000Y34199999D01*
X5375000Y33150001D01*
X5075000Y33150001D01*
X5075000Y34500001D01*
X5375000Y34500001D01*
X5375001Y34500000D01*
X6099999Y34500000D01*
X6100000Y34500001D01*
X6100000Y35043059D01*
X6099999Y35043065D01*
X6089386Y35131444D01*
X6033919Y35272096D01*
X5942564Y35392565D01*
X5822095Y35483920D01*
X5681443Y35539387D01*
X5593064Y35550000D01*
X5375001Y35550000D01*
X5375000Y35549999D01*
X5375000Y34500001D01*
X5075000Y34500001D01*
X5075000Y35549999D01*
X5074999Y35550000D01*
X4856935Y35550000D01*
X4768556Y35539387D01*
X4627904Y35483920D01*
X4507435Y35392565D01*
X4507431Y35392561D01*
X4447993Y35314180D01*
X4397767Y35279238D01*
X4369110Y35275000D01*
X3131517Y35275000D01*
X3073326Y35293907D01*
X3052633Y35314181D01*
X3012385Y35367256D01*
X2992922Y35392922D01*
X2872342Y35484361D01*
X2872341Y35484362D01*
X2872339Y35484363D01*
X2731565Y35539877D01*
X2643106Y35550500D01*
X2643102Y35550500D01*
X1906898Y35550500D01*
X1906893Y35550500D01*
X1818434Y35539877D01*
X1677660Y35484363D01*
X1677656Y35484360D01*
X1557081Y35392925D01*
X1557075Y35392919D01*
X1465640Y35272344D01*
X1465637Y35272340D01*
X1410123Y35131566D01*
X1399500Y35043107D01*
X1399500Y33656894D01*
X1410123Y33568435D01*
X1465637Y33427661D01*
X1465638Y33427659D01*
X1465639Y33427658D01*
X1557078Y33307078D01*
X1677658Y33215639D01*
X1677663Y33215637D01*
X1683560Y33212321D01*
X1682825Y33211014D01*
X1724015Y33177036D01*
X1739500Y33123873D01*
X1739500Y31197473D01*
X1720593Y31139282D01*
X1692617Y31113302D01*
X1593699Y31052055D01*
X1593696Y31052052D01*
X1436135Y30908414D01*
X1436131Y30908411D01*
X1436128Y30908407D01*
X1436125Y30908403D01*
X1307635Y30738257D01*
X1307630Y30738248D01*
X1212596Y30547392D01*
X1154244Y30342312D01*
X1134571Y30130000D01*
X1154244Y29917689D01*
X1171016Y29858742D01*
X1212595Y29712611D01*
X1307634Y29521745D01*
X1436128Y29351593D01*
X1467944Y29322589D01*
X1593692Y29207953D01*
X1593699Y29207947D01*
X1673777Y29158365D01*
X1774981Y29095702D01*
X1973802Y29018679D01*
X2183390Y28979500D01*
X2396610Y28979500D01*
X2606198Y29018679D01*
X2713726Y29060336D01*
X2774813Y29063725D01*
X2826230Y29030560D01*
X2848333Y28973506D01*
X2832679Y28914357D01*
X2819489Y28898016D01*
X2657080Y28735607D01*
X2602563Y28707830D01*
X2568885Y28708297D01*
X2396610Y28740500D01*
X2183390Y28740500D01*
X1973804Y28701322D01*
X1774980Y28624298D01*
X1774975Y28624295D01*
X1593699Y28512054D01*
X1593692Y28512048D01*
X1436135Y28368414D01*
X1436131Y28368411D01*
X1436128Y28368407D01*
X1436125Y28368403D01*
X1307635Y28198257D01*
X1307630Y28198248D01*
X1212596Y28007392D01*
X1154244Y27802312D01*
X1134571Y27590000D01*
X1154244Y27377689D01*
X1154247Y27377680D01*
X1212595Y27172611D01*
X1307634Y26981745D01*
X1307639Y26981738D01*
X1307640Y26981737D01*
X1437964Y26809161D01*
X1457944Y26751330D01*
X1440116Y26692800D01*
X1391289Y26655927D01*
X1358961Y26650500D01*
X1332256Y26650500D01*
X1274065Y26669407D01*
X1262252Y26679496D01*
X855636Y27086112D01*
X827859Y27140629D01*
X830420Y27183209D01*
X832958Y27192126D01*
X885756Y27377690D01*
X905429Y27590000D01*
X885756Y27802310D01*
X827405Y28007389D01*
X732366Y28198255D01*
X603872Y28368407D01*
X520399Y28444503D01*
X446307Y28512048D01*
X446300Y28512054D01*
X265024Y28624295D01*
X265019Y28624298D01*
X249410Y28630345D01*
X66198Y28701321D01*
X66197Y28701322D01*
X66195Y28701322D01*
X-143390Y28740500D01*
X-356610Y28740500D01*
X-566196Y28701322D01*
X-765020Y28624298D01*
X-765025Y28624295D01*
X-946301Y28512054D01*
X-946308Y28512048D01*
X-1103865Y28368414D01*
X-1103869Y28368411D01*
X-1103872Y28368407D01*
X-1103875Y28368403D01*
X-1232365Y28198257D01*
X-1232370Y28198248D01*
X-1327404Y28007392D01*
X-1385756Y27802312D01*
X-1405429Y27590000D01*
X-2999500Y27590000D01*
X-2999500Y29486894D01*
X-1400500Y29486894D01*
X-1389877Y29398435D01*
X-1334363Y29257661D01*
X-1334362Y29257659D01*
X-1334361Y29257658D01*
X-1242922Y29137078D01*
X-1122342Y29045639D01*
X-1122341Y29045639D01*
X-1122340Y29045638D01*
X-1084105Y29030560D01*
X-981564Y28990123D01*
X-893102Y28979500D01*
X-893100Y28979500D01*
X393100Y28979500D01*
X393102Y28979500D01*
X481564Y28990123D01*
X622342Y29045639D01*
X742922Y29137078D01*
X834361Y29257658D01*
X889877Y29398436D01*
X900500Y29486898D01*
X900500Y30773102D01*
X889877Y30861564D01*
X834361Y31002342D01*
X742922Y31122922D01*
X622342Y31214361D01*
X622341Y31214362D01*
X622339Y31214363D01*
X481565Y31269877D01*
X393106Y31280500D01*
X393102Y31280500D01*
X-893102Y31280500D01*
X-893107Y31280500D01*
X-981566Y31269877D01*
X-1122340Y31214363D01*
X-1122344Y31214360D01*
X-1242919Y31122925D01*
X-1242925Y31122919D01*
X-1334360Y31002344D01*
X-1334363Y31002340D01*
X-1389877Y30861566D01*
X-1400500Y30773107D01*
X-1400500Y29486894D01*
X-2999500Y29486894D01*
X-2999500Y39200000D01*
X6700000Y39200000D01*
X6700001Y39200000D01*
X8399999Y39200000D01*
X8400000Y39200000D01*
X8350000Y55950000D01*
X6750000Y55950000D01*
X6700000Y39200000D01*
X-2999500Y39200000D01*
X-2999500Y45120000D01*
X-2784948Y45120000D01*
X-2765189Y44868933D01*
X-2706396Y44624043D01*
X-2610021Y44391372D01*
X-2610015Y44391360D01*
X-2478433Y44176638D01*
X-2478429Y44176633D01*
X-2412590Y44099545D01*
X-1842092Y44670044D01*
X-1809423Y44618052D01*
X-1681948Y44490577D01*
X-1629959Y44457911D01*
X-2200457Y43887412D01*
X-2123368Y43821572D01*
X-2123363Y43821568D01*
X-1908641Y43689986D01*
X-1908629Y43689980D01*
X-1675958Y43593605D01*
X-1675959Y43593605D01*
X-1431068Y43534812D01*
X-1180000Y43515053D01*
X-928933Y43534812D01*
X-684043Y43593605D01*
X-451372Y43689980D01*
X-451360Y43689986D01*
X-236643Y43821565D01*
X-236630Y43821575D01*
X-159545Y43887412D01*
X-730043Y44457910D01*
X-678052Y44490577D01*
X-550577Y44618052D01*
X-517910Y44670043D01*
X52588Y44099545D01*
X118425Y44176630D01*
X118435Y44176643D01*
X250014Y44391360D01*
X250020Y44391372D01*
X346395Y44624043D01*
X405188Y44868933D01*
X424947Y45120000D01*
X2295052Y45120000D01*
X2314811Y44868933D01*
X2373604Y44624043D01*
X2469979Y44391372D01*
X2469985Y44391360D01*
X2601567Y44176638D01*
X2601571Y44176633D01*
X2667410Y44099545D01*
X3237908Y44670044D01*
X3270577Y44618052D01*
X3398052Y44490577D01*
X3450041Y44457911D01*
X2879543Y43887412D01*
X2956632Y43821572D01*
X2956637Y43821568D01*
X3171359Y43689986D01*
X3171371Y43689980D01*
X3404042Y43593605D01*
X3404041Y43593605D01*
X3648932Y43534812D01*
X3900000Y43515053D01*
X4151067Y43534812D01*
X4395957Y43593605D01*
X4628628Y43689980D01*
X4628640Y43689986D01*
X4843357Y43821565D01*
X4843370Y43821575D01*
X4920455Y43887412D01*
X4349957Y44457910D01*
X4401948Y44490577D01*
X4529423Y44618052D01*
X4562090Y44670043D01*
X5132588Y44099545D01*
X5198425Y44176630D01*
X5198435Y44176643D01*
X5330014Y44391360D01*
X5330020Y44391372D01*
X5426395Y44624043D01*
X5485188Y44868933D01*
X5504947Y45120000D01*
X5485188Y45371068D01*
X5426395Y45615958D01*
X5330020Y45848629D01*
X5330014Y45848641D01*
X5198432Y46063363D01*
X5198428Y46063368D01*
X5132588Y46140457D01*
X4562089Y45569959D01*
X4529423Y45621948D01*
X4401948Y45749423D01*
X4349956Y45782092D01*
X4920455Y46352590D01*
X4843367Y46418429D01*
X4843362Y46418433D01*
X4628640Y46550015D01*
X4628628Y46550021D01*
X4395957Y46646396D01*
X4395958Y46646396D01*
X4151067Y46705189D01*
X3900000Y46724948D01*
X3648932Y46705189D01*
X3404042Y46646396D01*
X3171371Y46550021D01*
X3171359Y46550015D01*
X2956637Y46418433D01*
X2956633Y46418430D01*
X2879543Y46352590D01*
X3450042Y45782091D01*
X3398052Y45749423D01*
X3270577Y45621948D01*
X3237909Y45569958D01*
X2667410Y46140457D01*
X2601570Y46063367D01*
X2601567Y46063363D01*
X2469985Y45848641D01*
X2469979Y45848629D01*
X2373604Y45615958D01*
X2314811Y45371068D01*
X2295052Y45120000D01*
X424947Y45120000D01*
X405188Y45371068D01*
X346395Y45615958D01*
X250020Y45848629D01*
X250014Y45848641D01*
X118432Y46063363D01*
X118428Y46063368D01*
X52588Y46140457D01*
X-517911Y45569959D01*
X-550577Y45621948D01*
X-678052Y45749423D01*
X-730044Y45782092D01*
X-159545Y46352590D01*
X-236633Y46418429D01*
X-236638Y46418433D01*
X-451360Y46550015D01*
X-451372Y46550021D01*
X-684043Y46646396D01*
X-684042Y46646396D01*
X-928933Y46705189D01*
X-1180000Y46724948D01*
X-1431068Y46705189D01*
X-1675958Y46646396D01*
X-1908629Y46550021D01*
X-1908641Y46550015D01*
X-2123363Y46418433D01*
X-2123367Y46418430D01*
X-2200457Y46352590D01*
X-1629958Y45782091D01*
X-1681948Y45749423D01*
X-1809423Y45621948D01*
X-1842091Y45569958D01*
X-2412590Y46140457D01*
X-2478430Y46063367D01*
X-2478433Y46063363D01*
X-2610015Y45848641D01*
X-2610021Y45848629D01*
X-2706396Y45615958D01*
X-2765189Y45371068D01*
X-2784948Y45120000D01*
X-2999500Y45120000D01*
X-2999500Y47735000D01*
X-95294Y47735000D01*
X-76147Y47491700D01*
X-19172Y47254387D01*
X-19171Y47254384D01*
X74219Y47028919D01*
X74224Y47028908D01*
X201739Y46820824D01*
X201745Y46820816D01*
X350713Y46646396D01*
X360241Y46635241D01*
X545821Y46476741D01*
X545823Y46476740D01*
X753907Y46349225D01*
X753918Y46349220D01*
X948672Y46268551D01*
X979388Y46255828D01*
X1216698Y46198854D01*
X1460000Y46179706D01*
X1703302Y46198854D01*
X1940612Y46255828D01*
X2166089Y46349223D01*
X2374179Y46476741D01*
X2559759Y46635241D01*
X2718259Y46820821D01*
X2845777Y47028911D01*
X2939172Y47254388D01*
X2996146Y47491698D01*
X3015294Y47735000D01*
X2996146Y47978302D01*
X2939172Y48215612D01*
X2905218Y48297585D01*
X2845780Y48441082D01*
X2845775Y48441093D01*
X2760765Y48579816D01*
X2718259Y48649179D01*
X2692357Y48679506D01*
X2559767Y48834750D01*
X2559764Y48834753D01*
X2559759Y48834759D01*
X2559752Y48834765D01*
X2559749Y48834768D01*
X2374184Y48993255D01*
X2374176Y48993261D01*
X2166092Y49120776D01*
X2166081Y49120781D01*
X1940616Y49214171D01*
X1940613Y49214172D01*
X1703300Y49271147D01*
X1460000Y49290294D01*
X1216699Y49271147D01*
X979386Y49214172D01*
X979383Y49214171D01*
X753918Y49120781D01*
X753907Y49120776D01*
X545823Y48993261D01*
X545815Y48993255D01*
X360250Y48834768D01*
X360232Y48834750D01*
X201745Y48649185D01*
X201739Y48649177D01*
X74224Y48441093D01*
X74219Y48441082D01*
X-19171Y48215617D01*
X-19172Y48215614D01*
X-76147Y47978301D01*
X-95294Y47735000D01*
X-2999500Y47735000D01*
X-2999500Y50200000D01*
X-2784948Y50200000D01*
X-2765189Y49948933D01*
X-2706396Y49704043D01*
X-2610021Y49471372D01*
X-2610015Y49471360D01*
X-2478433Y49256638D01*
X-2478429Y49256633D01*
X-2412590Y49179545D01*
X-1842092Y49750044D01*
X-1809423Y49698052D01*
X-1681948Y49570577D01*
X-1629959Y49537911D01*
X-2200457Y48967412D01*
X-2123368Y48901572D01*
X-2123363Y48901568D01*
X-1908641Y48769986D01*
X-1908629Y48769980D01*
X-1675958Y48673605D01*
X-1675959Y48673605D01*
X-1431068Y48614812D01*
X-1180000Y48595053D01*
X-928933Y48614812D01*
X-684043Y48673605D01*
X-451372Y48769980D01*
X-451360Y48769986D01*
X-236643Y48901565D01*
X-236630Y48901575D01*
X-159545Y48967412D01*
X-730043Y49537910D01*
X-678052Y49570577D01*
X-550577Y49698052D01*
X-517910Y49750043D01*
X52588Y49179545D01*
X118425Y49256630D01*
X118435Y49256643D01*
X250014Y49471360D01*
X250020Y49471372D01*
X346395Y49704043D01*
X405188Y49948933D01*
X424947Y50200000D01*
X2295052Y50200000D01*
X2314811Y49948933D01*
X2373604Y49704043D01*
X2469979Y49471372D01*
X2469985Y49471360D01*
X2601567Y49256638D01*
X2601571Y49256633D01*
X2667410Y49179545D01*
X3237908Y49750044D01*
X3270577Y49698052D01*
X3398052Y49570577D01*
X3450041Y49537911D01*
X2879543Y48967412D01*
X2956632Y48901572D01*
X2956637Y48901568D01*
X3171359Y48769986D01*
X3171371Y48769980D01*
X3404042Y48673605D01*
X3404041Y48673605D01*
X3648932Y48614812D01*
X3900000Y48595053D01*
X4151067Y48614812D01*
X4395957Y48673605D01*
X4628628Y48769980D01*
X4628640Y48769986D01*
X4843357Y48901565D01*
X4843370Y48901575D01*
X4920455Y48967412D01*
X4349957Y49537910D01*
X4401948Y49570577D01*
X4529423Y49698052D01*
X4562090Y49750043D01*
X5132588Y49179545D01*
X5198425Y49256630D01*
X5198435Y49256643D01*
X5330014Y49471360D01*
X5330020Y49471372D01*
X5426395Y49704043D01*
X5485188Y49948933D01*
X5504947Y50200000D01*
X5485188Y50451068D01*
X5426395Y50695958D01*
X5330020Y50928629D01*
X5330014Y50928641D01*
X5198432Y51143363D01*
X5198428Y51143368D01*
X5132588Y51220457D01*
X4562089Y50649959D01*
X4529423Y50701948D01*
X4401948Y50829423D01*
X4349956Y50862092D01*
X4920455Y51432590D01*
X4843367Y51498429D01*
X4843362Y51498433D01*
X4628640Y51630015D01*
X4628628Y51630021D01*
X4395957Y51726396D01*
X4395958Y51726396D01*
X4151067Y51785189D01*
X3900000Y51804948D01*
X3648932Y51785189D01*
X3404042Y51726396D01*
X3171371Y51630021D01*
X3171359Y51630015D01*
X2956637Y51498433D01*
X2956633Y51498430D01*
X2879543Y51432590D01*
X3450042Y50862091D01*
X3398052Y50829423D01*
X3270577Y50701948D01*
X3237909Y50649958D01*
X2667410Y51220457D01*
X2601570Y51143367D01*
X2601567Y51143363D01*
X2469985Y50928641D01*
X2469979Y50928629D01*
X2373604Y50695958D01*
X2314811Y50451068D01*
X2295052Y50200000D01*
X424947Y50200000D01*
X405188Y50451068D01*
X346395Y50695958D01*
X250020Y50928629D01*
X250014Y50928641D01*
X118432Y51143363D01*
X118428Y51143368D01*
X52588Y51220457D01*
X-517911Y50649959D01*
X-550577Y50701948D01*
X-678052Y50829423D01*
X-730044Y50862092D01*
X-159545Y51432590D01*
X-236633Y51498429D01*
X-236638Y51498433D01*
X-451360Y51630015D01*
X-451372Y51630021D01*
X-684043Y51726396D01*
X-684042Y51726396D01*
X-928933Y51785189D01*
X-1180000Y51804948D01*
X-1431068Y51785189D01*
X-1675958Y51726396D01*
X-1908629Y51630021D01*
X-1908641Y51630015D01*
X-2123363Y51498433D01*
X-2123367Y51498430D01*
X-2200457Y51432590D01*
X-1629958Y50862091D01*
X-1681948Y50829423D01*
X-1809423Y50701948D01*
X-1842091Y50649958D01*
X-2412590Y51220457D01*
X-2478430Y51143367D01*
X-2478433Y51143363D01*
X-2610015Y50928641D01*
X-2610021Y50928629D01*
X-2706396Y50695958D01*
X-2765189Y50451068D01*
X-2784948Y50200000D01*
X-2999500Y50200000D01*
X-2999500Y59500000D01*
X30750000Y59500000D01*
X30750000Y53900000D01*
X30750001Y53900000D01*
X37399999Y53900000D01*
X37400000Y53900000D01*
X37400000Y59500000D01*
X30750000Y59500000D01*
X-2999500Y59500000D01*
X-2999500Y69200000D01*
X19100000Y69200000D01*
X19100000Y64350000D01*
X19100001Y64350000D01*
X21999999Y64350000D01*
X22000000Y64350000D01*
X22000000Y66201000D01*
X22018907Y66259191D01*
X22068407Y66295155D01*
X22099000Y66300000D01*
X23849999Y66300000D01*
X23850000Y66300000D01*
X23850000Y69200000D01*
X19100000Y69200000D01*
X-2999500Y69200000D01*
X-2999500Y71082235D01*
X-1904212Y71082235D01*
X-1874586Y70812980D01*
X-1861514Y70762980D01*
X-1806072Y70550912D01*
X-1700130Y70301610D01*
X-1669616Y70251611D01*
X-1559017Y70070388D01*
X-1428137Y69913119D01*
X-1385745Y69862180D01*
X-1184002Y69681418D01*
X-989236Y69552562D01*
X-958087Y69531954D01*
X-851426Y69481954D01*
X-712824Y69416980D01*
X-567372Y69373220D01*
X-453445Y69338944D01*
X-453441Y69338943D01*
X-453431Y69338940D01*
X-286160Y69314323D01*
X-185440Y69299500D01*
X-185439Y69299500D01*
X17631Y69299500D01*
X220156Y69314323D01*
X484553Y69373220D01*
X737558Y69469986D01*
X973777Y69602559D01*
X1099968Y69700000D01*
X30600000Y69700000D01*
X30600000Y63950000D01*
X30600001Y63950000D01*
X37749999Y63950000D01*
X37750000Y63950000D01*
X37750000Y69100000D01*
X44450000Y69100000D01*
X44450000Y66250000D01*
X46201000Y66250000D01*
X46259191Y66231093D01*
X46295155Y66181593D01*
X46300000Y66151000D01*
X46300000Y64500000D01*
X46300001Y64500000D01*
X49849999Y64500000D01*
X49850000Y64500000D01*
X49850000Y69100000D01*
X44450000Y69100000D01*
X37750000Y69100000D01*
X37750000Y69700000D01*
X30600000Y69700000D01*
X1099968Y69700000D01*
X1188177Y69768112D01*
X1376186Y69963119D01*
X1533799Y70183421D01*
X1657656Y70424325D01*
X1745118Y70680695D01*
X1794319Y70947067D01*
X1797432Y71032235D01*
X67645788Y71032235D01*
X67675414Y70762980D01*
X67730856Y70550912D01*
X67743928Y70500912D01*
X67849870Y70251610D01*
X67921999Y70133423D01*
X67990983Y70020388D01*
X68164253Y69812182D01*
X68310194Y69681418D01*
X68365998Y69631418D01*
X68516335Y69531956D01*
X68591913Y69481954D01*
X68724100Y69419988D01*
X68837176Y69366980D01*
X68930377Y69338940D01*
X69096555Y69288944D01*
X69096559Y69288943D01*
X69096569Y69288940D01*
X69263840Y69264323D01*
X69364560Y69249500D01*
X69364561Y69249500D01*
X69567631Y69249500D01*
X69770156Y69264323D01*
X70034553Y69323220D01*
X70287558Y69419986D01*
X70523777Y69552559D01*
X70738177Y69718112D01*
X70926186Y69913119D01*
X71083799Y70133421D01*
X71207656Y70374325D01*
X71295118Y70630695D01*
X71344319Y70897067D01*
X71354212Y71167765D01*
X71324586Y71437018D01*
X71256072Y71699088D01*
X71150130Y71948390D01*
X71009018Y72179610D01*
X70967405Y72229613D01*
X70835746Y72387819D01*
X70634007Y72568578D01*
X70634004Y72568580D01*
X70634002Y72568582D01*
X70484489Y72667499D01*
X70408086Y72718047D01*
X70162822Y72833021D01*
X69903444Y72911057D01*
X69903428Y72911061D01*
X69635440Y72950500D01*
X69635439Y72950500D01*
X69432369Y72950500D01*
X69229848Y72935678D01*
X68965450Y72876781D01*
X68712439Y72780013D01*
X68476219Y72647439D01*
X68261826Y72481892D01*
X68073814Y72286881D01*
X67916199Y72066578D01*
X67792342Y71825672D01*
X67704884Y71569313D01*
X67704881Y71569302D01*
X67655680Y71302931D01*
X67645788Y71032235D01*
X1797432Y71032235D01*
X1804212Y71217765D01*
X1774586Y71487018D01*
X1706072Y71749088D01*
X1600130Y71998390D01*
X1459018Y72229610D01*
X1285745Y72437820D01*
X1139810Y72568578D01*
X1084007Y72618578D01*
X1084004Y72618580D01*
X1084002Y72618582D01*
X933661Y72718047D01*
X858086Y72768047D01*
X612822Y72883021D01*
X353444Y72961057D01*
X353428Y72961061D01*
X85440Y73000500D01*
X85439Y73000500D01*
X-117631Y73000500D01*
X-320152Y72985678D01*
X-584550Y72926781D01*
X-584553Y72926781D01*
X-584553Y72926780D01*
X-625662Y72911057D01*
X-837561Y72830013D01*
X-1073781Y72697439D01*
X-1288174Y72531892D01*
X-1476186Y72336881D01*
X-1633801Y72116578D01*
X-1757658Y71875672D01*
X-1845116Y71619313D01*
X-1845119Y71619302D01*
X-1894320Y71352931D01*
X-1904212Y71082235D01*
X-2999500Y71082235D01*
X-2999500Y74000500D01*
X-2980593Y74058691D01*
X-2931093Y74094655D01*
X-2900500Y74099500D01*
X72350500Y74099500D01*
X72408691Y74080593D01*
G37*
G04 #@! TD.AperFunction*
M02*
