G04 #@! TF.GenerationSoftware,KiCad,Pcbnew,7.0.10*
G04 #@! TF.CreationDate,2024-02-19T15:39:12-05:00*
G04 #@! TF.ProjectId,sdt_lpf,7364745f-6c70-4662-9e6b-696361645f70,rev?*
G04 #@! TF.SameCoordinates,PX62de0f0PY8af5bb0*
G04 #@! TF.FileFunction,Soldermask,Bot*
G04 #@! TF.FilePolarity,Negative*
%FSLAX46Y46*%
G04 Gerber Fmt 4.6, Leading zero omitted, Abs format (unit mm)*
G04 Created by KiCad (PCBNEW 7.0.10) date 2024-02-19 15:39:12*
%MOMM*%
%LPD*%
G01*
G04 APERTURE LIST*
G04 Aperture macros list*
%AMRoundRect*
0 Rectangle with rounded corners*
0 $1 Rounding radius*
0 $2 $3 $4 $5 $6 $7 $8 $9 X,Y pos of 4 corners*
0 Add a 4 corners polygon primitive as box body*
4,1,4,$2,$3,$4,$5,$6,$7,$8,$9,$2,$3,0*
0 Add four circle primitives for the rounded corners*
1,1,$1+$1,$2,$3*
1,1,$1+$1,$4,$5*
1,1,$1+$1,$6,$7*
1,1,$1+$1,$8,$9*
0 Add four rect primitives between the rounded corners*
20,1,$1+$1,$2,$3,$4,$5,0*
20,1,$1+$1,$4,$5,$6,$7,0*
20,1,$1+$1,$6,$7,$8,$9,0*
20,1,$1+$1,$8,$9,$2,$3,0*%
G04 Aperture macros list end*
%ADD10C,2.020000*%
%ADD11C,3.200000*%
%ADD12C,2.600000*%
%ADD13C,2.500000*%
%ADD14RoundRect,0.250000X-0.600000X-0.600000X0.600000X-0.600000X0.600000X0.600000X-0.600000X0.600000X0*%
%ADD15C,1.700000*%
%ADD16RoundRect,0.250000X0.325000X0.650000X-0.325000X0.650000X-0.325000X-0.650000X0.325000X-0.650000X0*%
%ADD17RoundRect,0.070000X-0.525000X0.300000X-0.525000X-0.300000X0.525000X-0.300000X0.525000X0.300000X0*%
%ADD18RoundRect,0.070000X0.525000X-0.300000X0.525000X0.300000X-0.525000X0.300000X-0.525000X-0.300000X0*%
G04 APERTURE END LIST*
D10*
X2300000Y10800000D03*
X-240000Y10800000D03*
D11*
X-50000Y71150000D03*
X69500000Y71100000D03*
D12*
X-1180000Y50200000D03*
X-1180000Y45120000D03*
X3900000Y50200000D03*
X3900000Y45120000D03*
D13*
X1460000Y47735000D03*
D14*
X-250000Y30130000D03*
D15*
X2290000Y30130000D03*
X-250000Y27590000D03*
X2290000Y27590000D03*
X-250000Y25050000D03*
X2290000Y25050000D03*
X-250000Y22510000D03*
X2290000Y22510000D03*
X-250000Y19970000D03*
X2290000Y19970000D03*
D12*
X65800000Y48800000D03*
X65800000Y43720000D03*
X70880000Y48800000D03*
X70880000Y43720000D03*
D13*
X68440000Y46335000D03*
D16*
X5250000Y16450000D03*
X2300000Y16450000D03*
D11*
X69500000Y0D03*
X0Y0D03*
D17*
X15350000Y47700000D03*
X15350000Y46750000D03*
X15350000Y45800000D03*
X12650000Y45800000D03*
X12650000Y47700000D03*
X15350000Y57200000D03*
X15350000Y56250000D03*
X15350000Y55300000D03*
X12650000Y55300000D03*
X12650000Y57200000D03*
D16*
X8725000Y22450000D03*
X5775000Y22450000D03*
D17*
X15300000Y43050000D03*
X15300000Y42100000D03*
X15300000Y41150000D03*
X12600000Y41150000D03*
X12600000Y43050000D03*
D18*
X53550000Y55300000D03*
X53550000Y56250000D03*
X53550000Y57200000D03*
X56250000Y57200000D03*
X56250000Y55300000D03*
X53550000Y41100000D03*
X53550000Y42050000D03*
X53550000Y43000000D03*
X56250000Y43000000D03*
X56250000Y41100000D03*
D17*
X15300000Y38250000D03*
X15300000Y37300000D03*
X15300000Y36350000D03*
X12600000Y36350000D03*
X12600000Y38250000D03*
X15350000Y52400000D03*
X15350000Y51450000D03*
X15350000Y50500000D03*
X12650000Y50500000D03*
X12650000Y52400000D03*
D16*
X8825000Y27500000D03*
X5875000Y27500000D03*
D18*
X53550000Y45800000D03*
X53550000Y46750000D03*
X53550000Y47700000D03*
X56250000Y47700000D03*
X56250000Y45800000D03*
X53550000Y36450000D03*
X53550000Y37400000D03*
X53550000Y38350000D03*
X56250000Y38350000D03*
X56250000Y36450000D03*
D16*
X8775000Y30600000D03*
X5825000Y30600000D03*
D18*
X53550000Y50500000D03*
X53550000Y51450000D03*
X53550000Y52400000D03*
X56250000Y52400000D03*
X56250000Y50500000D03*
D16*
X5225000Y34350000D03*
X2275000Y34350000D03*
M02*
