M48
INCH,TZ
T1C0.0197
T2C0.0394
T3C0.0402
T4C0.0591
T5C0.0630
%
G90
G05
T1
X-866Y22657
X-807Y25492
X-787Y2106
X-728Y13031
X-728Y10354
X1268Y15394
X1673Y9547
X1772Y7254
X2283Y9980
X2343Y28799
X2402Y22087
X2441Y-669
X2736Y13524
X2785Y6476
X2913Y7579
X3091Y15187
X3829Y22884
X3917Y9606
X4012Y11480
X4075Y12598
X4193Y8720
X4350Y18012
X4350Y14606
X4370Y16516
X4803Y13287
X4823Y11949
X4882Y17480
X5197Y15689
X5354Y7854
X5394Y23051
X5492Y21240
X5492Y13819
X5512Y19409
X5512Y17559
X5591Y8819
X5837Y15679
X5906Y6594
X5925Y11476
X6004Y23031
X6063Y12933
X6063Y12323
X6102Y13720
X6260Y21122
X6299Y17441
X6339Y19311
X6378Y15433
X6535Y10728
X6594Y18031
X6634Y19803
X6654Y21693
X6693Y9705
X6870Y9232
X7256Y25791
X7539Y7382
X7835Y11417
X7835Y-610
X7874Y28858
X7913Y19980
X7913Y8091
X7992Y24016
X7992Y15984
X7992Y12008
X8681Y20650
X8701Y8720
X8780Y24665
X8819Y16654
X8819Y12697
X12283Y24705
X12402Y20689
X12441Y16673
X12461Y8661
X12500Y12717
X13228Y5610
X13386Y19902
X13425Y15906
X13425Y11969
X13425Y7972
X13445Y-689
X13465Y28858
X13465Y23898
X14528Y8622
X14587Y12697
X14626Y20650
X14665Y16673
X14744Y24705
X17461Y16654
X17894Y12717
X17992Y20453
X18012Y8661
X18209Y24665
X18701Y15906
X18819Y11929
X18819Y7972
X18878Y19488
X18976Y23996
X19055Y28819
X19528Y-669
X19862Y21791
X19870Y26244
X20551Y18976
X20571Y21772
X20591Y16988
X20876Y23219
X20906Y19350
X21043Y17520
X21102Y13898
X21102Y5709
X21122Y15669
X21280Y9980
X21555Y23110
X21594Y21024
X21594Y17421
X21634Y15551
X21654Y19272
X21909Y13425
X22205Y17500
X22224Y21201
X22244Y15650
X22264Y19350
X22697Y14803
X22736Y22244
X22736Y20354
X22736Y18504
X22736Y16752
X24374Y21906
X24380Y14646
X24803Y28799
X24862Y-807
X27913Y22441
X27933Y25335
X27992Y13583
X27992Y6358
X27992Y2638
X28031Y9921
T2
X-98Y11862
X-98Y10862
X-98Y9862
X-98Y8862
X-98Y7862
X902Y11862
X902Y10862
X902Y9862
X902Y8862
X902Y7862
T3
X-94Y4252
X906Y4252
T4
X575Y18793
X26945Y18242
T5
X-465Y19764
X-465Y17764
X1535Y19764
X1535Y17764
X25906Y19213
X25906Y17213
X27906Y19213
X27906Y17213
M30
