G04 #@! TF.GenerationSoftware,KiCad,Pcbnew,7.0.10*
G04 #@! TF.CreationDate,2024-02-19T15:39:12-05:00*
G04 #@! TF.ProjectId,sdt_lpf,7364745f-6c70-4662-9e6b-696361645f70,rev?*
G04 #@! TF.SameCoordinates,PX62de0f0PY8af5bb0*
G04 #@! TF.FileFunction,Legend,Top*
G04 #@! TF.FilePolarity,Positive*
%FSLAX46Y46*%
G04 Gerber Fmt 4.6, Leading zero omitted, Abs format (unit mm)*
G04 Created by KiCad (PCBNEW 7.0.10) date 2024-02-19 15:39:12*
%MOMM*%
%LPD*%
G01*
G04 APERTURE LIST*
%ADD10C,0.300000*%
%ADD11C,0.150000*%
%ADD12C,0.100000*%
%ADD13C,0.120000*%
G04 APERTURE END LIST*
D10*
X18290225Y11349172D02*
X19147368Y11349172D01*
X18718796Y9849172D02*
X18718796Y11349172D01*
X20290225Y10849172D02*
X20290225Y9849172D01*
X19933082Y11420600D02*
X19575939Y10349172D01*
X19575939Y10349172D02*
X20504510Y10349172D01*
X21861653Y9849172D02*
X21004510Y9849172D01*
X21433081Y9849172D02*
X21433081Y11349172D01*
X21433081Y11349172D02*
X21290224Y11134886D01*
X21290224Y11134886D02*
X21147367Y10992029D01*
X21147367Y10992029D02*
X21004510Y10920600D01*
X23647366Y10634886D02*
X24147366Y10634886D01*
X24361652Y9849172D02*
X23647366Y9849172D01*
X23647366Y9849172D02*
X23647366Y11349172D01*
X23647366Y11349172D02*
X24361652Y11349172D01*
X24861652Y11349172D02*
X25861652Y9849172D01*
X25861652Y11349172D02*
X24861652Y9849172D01*
X26433080Y9849172D02*
X26433080Y11349172D01*
X26433080Y11349172D02*
X27004509Y11349172D01*
X27004509Y11349172D02*
X27147366Y11277743D01*
X27147366Y11277743D02*
X27218795Y11206315D01*
X27218795Y11206315D02*
X27290223Y11063458D01*
X27290223Y11063458D02*
X27290223Y10849172D01*
X27290223Y10849172D02*
X27218795Y10706315D01*
X27218795Y10706315D02*
X27147366Y10634886D01*
X27147366Y10634886D02*
X27004509Y10563458D01*
X27004509Y10563458D02*
X26433080Y10563458D01*
X27933080Y10634886D02*
X28433080Y10634886D01*
X28647366Y9849172D02*
X27933080Y9849172D01*
X27933080Y9849172D02*
X27933080Y11349172D01*
X27933080Y11349172D02*
X28647366Y11349172D01*
X30147366Y9849172D02*
X29647366Y10563458D01*
X29290223Y9849172D02*
X29290223Y11349172D01*
X29290223Y11349172D02*
X29861652Y11349172D01*
X29861652Y11349172D02*
X30004509Y11277743D01*
X30004509Y11277743D02*
X30075938Y11206315D01*
X30075938Y11206315D02*
X30147366Y11063458D01*
X30147366Y11063458D02*
X30147366Y10849172D01*
X30147366Y10849172D02*
X30075938Y10706315D01*
X30075938Y10706315D02*
X30004509Y10634886D01*
X30004509Y10634886D02*
X29861652Y10563458D01*
X29861652Y10563458D02*
X29290223Y10563458D01*
X30790223Y9849172D02*
X30790223Y11349172D01*
X31504509Y9849172D02*
X31504509Y11349172D01*
X31504509Y11349172D02*
X32004509Y10277743D01*
X32004509Y10277743D02*
X32504509Y11349172D01*
X32504509Y11349172D02*
X32504509Y9849172D01*
X33218795Y10634886D02*
X33718795Y10634886D01*
X33933081Y9849172D02*
X33218795Y9849172D01*
X33218795Y9849172D02*
X33218795Y11349172D01*
X33218795Y11349172D02*
X33933081Y11349172D01*
X34575938Y9849172D02*
X34575938Y11349172D01*
X34575938Y11349172D02*
X35433081Y9849172D01*
X35433081Y9849172D02*
X35433081Y11349172D01*
X35933082Y11349172D02*
X36790225Y11349172D01*
X36361653Y9849172D02*
X36361653Y11349172D01*
X37218796Y10277743D02*
X37933082Y10277743D01*
X37075939Y9849172D02*
X37575939Y11349172D01*
X37575939Y11349172D02*
X38075939Y9849172D01*
X39290224Y9849172D02*
X38575938Y9849172D01*
X38575938Y9849172D02*
X38575938Y11349172D01*
X40933081Y9849172D02*
X40933081Y11349172D01*
X40933081Y11349172D02*
X41504510Y11349172D01*
X41504510Y11349172D02*
X41647367Y11277743D01*
X41647367Y11277743D02*
X41718796Y11206315D01*
X41718796Y11206315D02*
X41790224Y11063458D01*
X41790224Y11063458D02*
X41790224Y10849172D01*
X41790224Y10849172D02*
X41718796Y10706315D01*
X41718796Y10706315D02*
X41647367Y10634886D01*
X41647367Y10634886D02*
X41504510Y10563458D01*
X41504510Y10563458D02*
X40933081Y10563458D01*
X43147367Y9849172D02*
X42433081Y9849172D01*
X42433081Y9849172D02*
X42433081Y11349172D01*
X43575939Y10277743D02*
X44290225Y10277743D01*
X43433082Y9849172D02*
X43933082Y11349172D01*
X43933082Y11349172D02*
X44433082Y9849172D01*
X44718796Y11349172D02*
X45575939Y11349172D01*
X45147367Y9849172D02*
X45147367Y11349172D01*
X46575938Y10634886D02*
X46075938Y10634886D01*
X46075938Y9849172D02*
X46075938Y11349172D01*
X46075938Y11349172D02*
X46790224Y11349172D01*
X47647367Y11349172D02*
X47933081Y11349172D01*
X47933081Y11349172D02*
X48075938Y11277743D01*
X48075938Y11277743D02*
X48218795Y11134886D01*
X48218795Y11134886D02*
X48290224Y10849172D01*
X48290224Y10849172D02*
X48290224Y10349172D01*
X48290224Y10349172D02*
X48218795Y10063458D01*
X48218795Y10063458D02*
X48075938Y9920600D01*
X48075938Y9920600D02*
X47933081Y9849172D01*
X47933081Y9849172D02*
X47647367Y9849172D01*
X47647367Y9849172D02*
X47504510Y9920600D01*
X47504510Y9920600D02*
X47361652Y10063458D01*
X47361652Y10063458D02*
X47290224Y10349172D01*
X47290224Y10349172D02*
X47290224Y10849172D01*
X47290224Y10849172D02*
X47361652Y11134886D01*
X47361652Y11134886D02*
X47504510Y11277743D01*
X47504510Y11277743D02*
X47647367Y11349172D01*
X49790224Y9849172D02*
X49290224Y10563458D01*
X48933081Y9849172D02*
X48933081Y11349172D01*
X48933081Y11349172D02*
X49504510Y11349172D01*
X49504510Y11349172D02*
X49647367Y11277743D01*
X49647367Y11277743D02*
X49718796Y11206315D01*
X49718796Y11206315D02*
X49790224Y11063458D01*
X49790224Y11063458D02*
X49790224Y10849172D01*
X49790224Y10849172D02*
X49718796Y10706315D01*
X49718796Y10706315D02*
X49647367Y10634886D01*
X49647367Y10634886D02*
X49504510Y10563458D01*
X49504510Y10563458D02*
X48933081Y10563458D01*
X50433081Y9849172D02*
X50433081Y11349172D01*
X50433081Y11349172D02*
X50933081Y10277743D01*
X50933081Y10277743D02*
X51433081Y11349172D01*
X51433081Y11349172D02*
X51433081Y9849172D01*
X59173558Y28660362D02*
X59173558Y30660362D01*
X60316415Y28660362D02*
X59459272Y29803220D01*
X60316415Y30660362D02*
X59173558Y29517505D01*
X61840225Y29707981D02*
X61173558Y29707981D01*
X61173558Y28660362D02*
X61173558Y30660362D01*
X61173558Y30660362D02*
X62125939Y30660362D01*
X63840225Y30660362D02*
X62887844Y30660362D01*
X62887844Y30660362D02*
X62792606Y29707981D01*
X62792606Y29707981D02*
X62887844Y29803220D01*
X62887844Y29803220D02*
X63078320Y29898458D01*
X63078320Y29898458D02*
X63554511Y29898458D01*
X63554511Y29898458D02*
X63744987Y29803220D01*
X63744987Y29803220D02*
X63840225Y29707981D01*
X63840225Y29707981D02*
X63935463Y29517505D01*
X63935463Y29517505D02*
X63935463Y29041315D01*
X63935463Y29041315D02*
X63840225Y28850839D01*
X63840225Y28850839D02*
X63744987Y28755600D01*
X63744987Y28755600D02*
X63554511Y28660362D01*
X63554511Y28660362D02*
X63078320Y28660362D01*
X63078320Y28660362D02*
X62887844Y28755600D01*
X62887844Y28755600D02*
X62792606Y28850839D01*
X64792606Y28660362D02*
X64792606Y30660362D01*
X64792606Y30660362D02*
X65935463Y28660362D01*
X65935463Y28660362D02*
X65935463Y30660362D01*
D11*
X50863095Y58070181D02*
X50863095Y57260658D01*
X50863095Y57260658D02*
X50910714Y57165420D01*
X50910714Y57165420D02*
X50958333Y57117800D01*
X50958333Y57117800D02*
X51053571Y57070181D01*
X51053571Y57070181D02*
X51244047Y57070181D01*
X51244047Y57070181D02*
X51339285Y57117800D01*
X51339285Y57117800D02*
X51386904Y57165420D01*
X51386904Y57165420D02*
X51434523Y57260658D01*
X51434523Y57260658D02*
X51434523Y58070181D01*
X52339285Y58070181D02*
X52148809Y58070181D01*
X52148809Y58070181D02*
X52053571Y58022562D01*
X52053571Y58022562D02*
X52005952Y57974943D01*
X52005952Y57974943D02*
X51910714Y57832086D01*
X51910714Y57832086D02*
X51863095Y57641610D01*
X51863095Y57641610D02*
X51863095Y57260658D01*
X51863095Y57260658D02*
X51910714Y57165420D01*
X51910714Y57165420D02*
X51958333Y57117800D01*
X51958333Y57117800D02*
X52053571Y57070181D01*
X52053571Y57070181D02*
X52244047Y57070181D01*
X52244047Y57070181D02*
X52339285Y57117800D01*
X52339285Y57117800D02*
X52386904Y57165420D01*
X52386904Y57165420D02*
X52434523Y57260658D01*
X52434523Y57260658D02*
X52434523Y57498753D01*
X52434523Y57498753D02*
X52386904Y57593991D01*
X52386904Y57593991D02*
X52339285Y57641610D01*
X52339285Y57641610D02*
X52244047Y57689229D01*
X52244047Y57689229D02*
X52053571Y57689229D01*
X52053571Y57689229D02*
X51958333Y57641610D01*
X51958333Y57641610D02*
X51910714Y57593991D01*
X51910714Y57593991D02*
X51863095Y57498753D01*
X36182142Y53440420D02*
X36134523Y53392800D01*
X36134523Y53392800D02*
X35991666Y53345181D01*
X35991666Y53345181D02*
X35896428Y53345181D01*
X35896428Y53345181D02*
X35753571Y53392800D01*
X35753571Y53392800D02*
X35658333Y53488039D01*
X35658333Y53488039D02*
X35610714Y53583277D01*
X35610714Y53583277D02*
X35563095Y53773753D01*
X35563095Y53773753D02*
X35563095Y53916610D01*
X35563095Y53916610D02*
X35610714Y54107086D01*
X35610714Y54107086D02*
X35658333Y54202324D01*
X35658333Y54202324D02*
X35753571Y54297562D01*
X35753571Y54297562D02*
X35896428Y54345181D01*
X35896428Y54345181D02*
X35991666Y54345181D01*
X35991666Y54345181D02*
X36134523Y54297562D01*
X36134523Y54297562D02*
X36182142Y54249943D01*
X37134523Y53345181D02*
X36563095Y53345181D01*
X36848809Y53345181D02*
X36848809Y54345181D01*
X36848809Y54345181D02*
X36753571Y54202324D01*
X36753571Y54202324D02*
X36658333Y54107086D01*
X36658333Y54107086D02*
X36563095Y54059467D01*
X37515476Y54249943D02*
X37563095Y54297562D01*
X37563095Y54297562D02*
X37658333Y54345181D01*
X37658333Y54345181D02*
X37896428Y54345181D01*
X37896428Y54345181D02*
X37991666Y54297562D01*
X37991666Y54297562D02*
X38039285Y54249943D01*
X38039285Y54249943D02*
X38086904Y54154705D01*
X38086904Y54154705D02*
X38086904Y54059467D01*
X38086904Y54059467D02*
X38039285Y53916610D01*
X38039285Y53916610D02*
X37467857Y53345181D01*
X37467857Y53345181D02*
X38086904Y53345181D01*
X51663095Y54320181D02*
X51663095Y53510658D01*
X51663095Y53510658D02*
X51710714Y53415420D01*
X51710714Y53415420D02*
X51758333Y53367800D01*
X51758333Y53367800D02*
X51853571Y53320181D01*
X51853571Y53320181D02*
X52044047Y53320181D01*
X52044047Y53320181D02*
X52139285Y53367800D01*
X52139285Y53367800D02*
X52186904Y53415420D01*
X52186904Y53415420D02*
X52234523Y53510658D01*
X52234523Y53510658D02*
X52234523Y54320181D01*
X52615476Y54320181D02*
X53282142Y54320181D01*
X53282142Y54320181D02*
X52853571Y53320181D01*
X16588095Y43295181D02*
X16588095Y42485658D01*
X16588095Y42485658D02*
X16635714Y42390420D01*
X16635714Y42390420D02*
X16683333Y42342800D01*
X16683333Y42342800D02*
X16778571Y42295181D01*
X16778571Y42295181D02*
X16969047Y42295181D01*
X16969047Y42295181D02*
X17064285Y42342800D01*
X17064285Y42342800D02*
X17111904Y42390420D01*
X17111904Y42390420D02*
X17159523Y42485658D01*
X17159523Y42485658D02*
X17159523Y43295181D01*
X18064285Y42961848D02*
X18064285Y42295181D01*
X17826190Y43342800D02*
X17588095Y42628515D01*
X17588095Y42628515D02*
X18207142Y42628515D01*
X36357142Y63640420D02*
X36309523Y63592800D01*
X36309523Y63592800D02*
X36166666Y63545181D01*
X36166666Y63545181D02*
X36071428Y63545181D01*
X36071428Y63545181D02*
X35928571Y63592800D01*
X35928571Y63592800D02*
X35833333Y63688039D01*
X35833333Y63688039D02*
X35785714Y63783277D01*
X35785714Y63783277D02*
X35738095Y63973753D01*
X35738095Y63973753D02*
X35738095Y64116610D01*
X35738095Y64116610D02*
X35785714Y64307086D01*
X35785714Y64307086D02*
X35833333Y64402324D01*
X35833333Y64402324D02*
X35928571Y64497562D01*
X35928571Y64497562D02*
X36071428Y64545181D01*
X36071428Y64545181D02*
X36166666Y64545181D01*
X36166666Y64545181D02*
X36309523Y64497562D01*
X36309523Y64497562D02*
X36357142Y64449943D01*
X37309523Y63545181D02*
X36738095Y63545181D01*
X37023809Y63545181D02*
X37023809Y64545181D01*
X37023809Y64545181D02*
X36928571Y64402324D01*
X36928571Y64402324D02*
X36833333Y64307086D01*
X36833333Y64307086D02*
X36738095Y64259467D01*
X38261904Y63545181D02*
X37690476Y63545181D01*
X37976190Y63545181D02*
X37976190Y64545181D01*
X37976190Y64545181D02*
X37880952Y64402324D01*
X37880952Y64402324D02*
X37785714Y64307086D01*
X37785714Y64307086D02*
X37690476Y64259467D01*
D12*
X27183333Y29967581D02*
X26707143Y29967581D01*
X26707143Y29967581D02*
X26707143Y30967581D01*
X27992857Y30967581D02*
X27516667Y30967581D01*
X27516667Y30967581D02*
X27469048Y30491391D01*
X27469048Y30491391D02*
X27516667Y30539010D01*
X27516667Y30539010D02*
X27611905Y30586629D01*
X27611905Y30586629D02*
X27850000Y30586629D01*
X27850000Y30586629D02*
X27945238Y30539010D01*
X27945238Y30539010D02*
X27992857Y30491391D01*
X27992857Y30491391D02*
X28040476Y30396153D01*
X28040476Y30396153D02*
X28040476Y30158058D01*
X28040476Y30158058D02*
X27992857Y30062820D01*
X27992857Y30062820D02*
X27945238Y30015200D01*
X27945238Y30015200D02*
X27850000Y29967581D01*
X27850000Y29967581D02*
X27611905Y29967581D01*
X27611905Y29967581D02*
X27516667Y30015200D01*
X27516667Y30015200D02*
X27469048Y30062820D01*
X40813333Y60392581D02*
X40337143Y60392581D01*
X40337143Y60392581D02*
X40337143Y61392581D01*
X41051429Y61392581D02*
X41718095Y61392581D01*
X41718095Y61392581D02*
X41289524Y60392581D01*
D11*
X36257142Y33265420D02*
X36209523Y33217800D01*
X36209523Y33217800D02*
X36066666Y33170181D01*
X36066666Y33170181D02*
X35971428Y33170181D01*
X35971428Y33170181D02*
X35828571Y33217800D01*
X35828571Y33217800D02*
X35733333Y33313039D01*
X35733333Y33313039D02*
X35685714Y33408277D01*
X35685714Y33408277D02*
X35638095Y33598753D01*
X35638095Y33598753D02*
X35638095Y33741610D01*
X35638095Y33741610D02*
X35685714Y33932086D01*
X35685714Y33932086D02*
X35733333Y34027324D01*
X35733333Y34027324D02*
X35828571Y34122562D01*
X35828571Y34122562D02*
X35971428Y34170181D01*
X35971428Y34170181D02*
X36066666Y34170181D01*
X36066666Y34170181D02*
X36209523Y34122562D01*
X36209523Y34122562D02*
X36257142Y34074943D01*
X37209523Y33170181D02*
X36638095Y33170181D01*
X36923809Y33170181D02*
X36923809Y34170181D01*
X36923809Y34170181D02*
X36828571Y34027324D01*
X36828571Y34027324D02*
X36733333Y33932086D01*
X36733333Y33932086D02*
X36638095Y33884467D01*
X38066666Y33836848D02*
X38066666Y33170181D01*
X37828571Y34217800D02*
X37590476Y33503515D01*
X37590476Y33503515D02*
X38209523Y33503515D01*
X516666Y6865181D02*
X516666Y6150896D01*
X516666Y6150896D02*
X469047Y6008039D01*
X469047Y6008039D02*
X373809Y5912800D01*
X373809Y5912800D02*
X230952Y5865181D01*
X230952Y5865181D02*
X135714Y5865181D01*
X897619Y6865181D02*
X1516666Y6865181D01*
X1516666Y6865181D02*
X1183333Y6484229D01*
X1183333Y6484229D02*
X1326190Y6484229D01*
X1326190Y6484229D02*
X1421428Y6436610D01*
X1421428Y6436610D02*
X1469047Y6388991D01*
X1469047Y6388991D02*
X1516666Y6293753D01*
X1516666Y6293753D02*
X1516666Y6055658D01*
X1516666Y6055658D02*
X1469047Y5960420D01*
X1469047Y5960420D02*
X1421428Y5912800D01*
X1421428Y5912800D02*
X1326190Y5865181D01*
X1326190Y5865181D02*
X1040476Y5865181D01*
X1040476Y5865181D02*
X945238Y5912800D01*
X945238Y5912800D02*
X897619Y5960420D01*
X49857142Y23135420D02*
X49809523Y23087800D01*
X49809523Y23087800D02*
X49666666Y23040181D01*
X49666666Y23040181D02*
X49571428Y23040181D01*
X49571428Y23040181D02*
X49428571Y23087800D01*
X49428571Y23087800D02*
X49333333Y23183039D01*
X49333333Y23183039D02*
X49285714Y23278277D01*
X49285714Y23278277D02*
X49238095Y23468753D01*
X49238095Y23468753D02*
X49238095Y23611610D01*
X49238095Y23611610D02*
X49285714Y23802086D01*
X49285714Y23802086D02*
X49333333Y23897324D01*
X49333333Y23897324D02*
X49428571Y23992562D01*
X49428571Y23992562D02*
X49571428Y24040181D01*
X49571428Y24040181D02*
X49666666Y24040181D01*
X49666666Y24040181D02*
X49809523Y23992562D01*
X49809523Y23992562D02*
X49857142Y23944943D01*
X50238095Y23944943D02*
X50285714Y23992562D01*
X50285714Y23992562D02*
X50380952Y24040181D01*
X50380952Y24040181D02*
X50619047Y24040181D01*
X50619047Y24040181D02*
X50714285Y23992562D01*
X50714285Y23992562D02*
X50761904Y23944943D01*
X50761904Y23944943D02*
X50809523Y23849705D01*
X50809523Y23849705D02*
X50809523Y23754467D01*
X50809523Y23754467D02*
X50761904Y23611610D01*
X50761904Y23611610D02*
X50190476Y23040181D01*
X50190476Y23040181D02*
X50809523Y23040181D01*
X51428571Y24040181D02*
X51523809Y24040181D01*
X51523809Y24040181D02*
X51619047Y23992562D01*
X51619047Y23992562D02*
X51666666Y23944943D01*
X51666666Y23944943D02*
X51714285Y23849705D01*
X51714285Y23849705D02*
X51761904Y23659229D01*
X51761904Y23659229D02*
X51761904Y23421134D01*
X51761904Y23421134D02*
X51714285Y23230658D01*
X51714285Y23230658D02*
X51666666Y23135420D01*
X51666666Y23135420D02*
X51619047Y23087800D01*
X51619047Y23087800D02*
X51523809Y23040181D01*
X51523809Y23040181D02*
X51428571Y23040181D01*
X51428571Y23040181D02*
X51333333Y23087800D01*
X51333333Y23087800D02*
X51285714Y23135420D01*
X51285714Y23135420D02*
X51238095Y23230658D01*
X51238095Y23230658D02*
X51190476Y23421134D01*
X51190476Y23421134D02*
X51190476Y23659229D01*
X51190476Y23659229D02*
X51238095Y23849705D01*
X51238095Y23849705D02*
X51285714Y23944943D01*
X51285714Y23944943D02*
X51333333Y23992562D01*
X51333333Y23992562D02*
X51428571Y24040181D01*
X-442858Y38690420D02*
X-490477Y38642800D01*
X-490477Y38642800D02*
X-633334Y38595181D01*
X-633334Y38595181D02*
X-728572Y38595181D01*
X-728572Y38595181D02*
X-871429Y38642800D01*
X-871429Y38642800D02*
X-966667Y38738039D01*
X-966667Y38738039D02*
X-1014286Y38833277D01*
X-1014286Y38833277D02*
X-1061905Y39023753D01*
X-1061905Y39023753D02*
X-1061905Y39166610D01*
X-1061905Y39166610D02*
X-1014286Y39357086D01*
X-1014286Y39357086D02*
X-966667Y39452324D01*
X-966667Y39452324D02*
X-871429Y39547562D01*
X-871429Y39547562D02*
X-728572Y39595181D01*
X-728572Y39595181D02*
X-633334Y39595181D01*
X-633334Y39595181D02*
X-490477Y39547562D01*
X-490477Y39547562D02*
X-442858Y39499943D01*
X-109524Y39595181D02*
X509523Y39595181D01*
X509523Y39595181D02*
X176190Y39214229D01*
X176190Y39214229D02*
X319047Y39214229D01*
X319047Y39214229D02*
X414285Y39166610D01*
X414285Y39166610D02*
X461904Y39118991D01*
X461904Y39118991D02*
X509523Y39023753D01*
X509523Y39023753D02*
X509523Y38785658D01*
X509523Y38785658D02*
X461904Y38690420D01*
X461904Y38690420D02*
X414285Y38642800D01*
X414285Y38642800D02*
X319047Y38595181D01*
X319047Y38595181D02*
X33333Y38595181D01*
X33333Y38595181D02*
X-61905Y38642800D01*
X-61905Y38642800D02*
X-109524Y38690420D01*
X1461904Y38595181D02*
X890476Y38595181D01*
X1176190Y38595181D02*
X1176190Y39595181D01*
X1176190Y39595181D02*
X1080952Y39452324D01*
X1080952Y39452324D02*
X985714Y39357086D01*
X985714Y39357086D02*
X890476Y39309467D01*
X59982142Y43990420D02*
X59934523Y43942800D01*
X59934523Y43942800D02*
X59791666Y43895181D01*
X59791666Y43895181D02*
X59696428Y43895181D01*
X59696428Y43895181D02*
X59553571Y43942800D01*
X59553571Y43942800D02*
X59458333Y44038039D01*
X59458333Y44038039D02*
X59410714Y44133277D01*
X59410714Y44133277D02*
X59363095Y44323753D01*
X59363095Y44323753D02*
X59363095Y44466610D01*
X59363095Y44466610D02*
X59410714Y44657086D01*
X59410714Y44657086D02*
X59458333Y44752324D01*
X59458333Y44752324D02*
X59553571Y44847562D01*
X59553571Y44847562D02*
X59696428Y44895181D01*
X59696428Y44895181D02*
X59791666Y44895181D01*
X59791666Y44895181D02*
X59934523Y44847562D01*
X59934523Y44847562D02*
X59982142Y44799943D01*
X60363095Y44799943D02*
X60410714Y44847562D01*
X60410714Y44847562D02*
X60505952Y44895181D01*
X60505952Y44895181D02*
X60744047Y44895181D01*
X60744047Y44895181D02*
X60839285Y44847562D01*
X60839285Y44847562D02*
X60886904Y44799943D01*
X60886904Y44799943D02*
X60934523Y44704705D01*
X60934523Y44704705D02*
X60934523Y44609467D01*
X60934523Y44609467D02*
X60886904Y44466610D01*
X60886904Y44466610D02*
X60315476Y43895181D01*
X60315476Y43895181D02*
X60934523Y43895181D01*
X61791666Y44561848D02*
X61791666Y43895181D01*
X61553571Y44942800D02*
X61315476Y44228515D01*
X61315476Y44228515D02*
X61934523Y44228515D01*
X50788095Y49545181D02*
X50788095Y48735658D01*
X50788095Y48735658D02*
X50835714Y48640420D01*
X50835714Y48640420D02*
X50883333Y48592800D01*
X50883333Y48592800D02*
X50978571Y48545181D01*
X50978571Y48545181D02*
X51169047Y48545181D01*
X51169047Y48545181D02*
X51264285Y48592800D01*
X51264285Y48592800D02*
X51311904Y48640420D01*
X51311904Y48640420D02*
X51359523Y48735658D01*
X51359523Y48735658D02*
X51359523Y49545181D01*
X51978571Y49116610D02*
X51883333Y49164229D01*
X51883333Y49164229D02*
X51835714Y49211848D01*
X51835714Y49211848D02*
X51788095Y49307086D01*
X51788095Y49307086D02*
X51788095Y49354705D01*
X51788095Y49354705D02*
X51835714Y49449943D01*
X51835714Y49449943D02*
X51883333Y49497562D01*
X51883333Y49497562D02*
X51978571Y49545181D01*
X51978571Y49545181D02*
X52169047Y49545181D01*
X52169047Y49545181D02*
X52264285Y49497562D01*
X52264285Y49497562D02*
X52311904Y49449943D01*
X52311904Y49449943D02*
X52359523Y49354705D01*
X52359523Y49354705D02*
X52359523Y49307086D01*
X52359523Y49307086D02*
X52311904Y49211848D01*
X52311904Y49211848D02*
X52264285Y49164229D01*
X52264285Y49164229D02*
X52169047Y49116610D01*
X52169047Y49116610D02*
X51978571Y49116610D01*
X51978571Y49116610D02*
X51883333Y49068991D01*
X51883333Y49068991D02*
X51835714Y49021372D01*
X51835714Y49021372D02*
X51788095Y48926134D01*
X51788095Y48926134D02*
X51788095Y48735658D01*
X51788095Y48735658D02*
X51835714Y48640420D01*
X51835714Y48640420D02*
X51883333Y48592800D01*
X51883333Y48592800D02*
X51978571Y48545181D01*
X51978571Y48545181D02*
X52169047Y48545181D01*
X52169047Y48545181D02*
X52264285Y48592800D01*
X52264285Y48592800D02*
X52311904Y48640420D01*
X52311904Y48640420D02*
X52359523Y48735658D01*
X52359523Y48735658D02*
X52359523Y48926134D01*
X52359523Y48926134D02*
X52311904Y49021372D01*
X52311904Y49021372D02*
X52264285Y49068991D01*
X52264285Y49068991D02*
X52169047Y49116610D01*
X16738095Y48445181D02*
X16738095Y47635658D01*
X16738095Y47635658D02*
X16785714Y47540420D01*
X16785714Y47540420D02*
X16833333Y47492800D01*
X16833333Y47492800D02*
X16928571Y47445181D01*
X16928571Y47445181D02*
X17119047Y47445181D01*
X17119047Y47445181D02*
X17214285Y47492800D01*
X17214285Y47492800D02*
X17261904Y47540420D01*
X17261904Y47540420D02*
X17309523Y47635658D01*
X17309523Y47635658D02*
X17309523Y48445181D01*
X17690476Y48445181D02*
X18309523Y48445181D01*
X18309523Y48445181D02*
X17976190Y48064229D01*
X17976190Y48064229D02*
X18119047Y48064229D01*
X18119047Y48064229D02*
X18214285Y48016610D01*
X18214285Y48016610D02*
X18261904Y47968991D01*
X18261904Y47968991D02*
X18309523Y47873753D01*
X18309523Y47873753D02*
X18309523Y47635658D01*
X18309523Y47635658D02*
X18261904Y47540420D01*
X18261904Y47540420D02*
X18214285Y47492800D01*
X18214285Y47492800D02*
X18119047Y47445181D01*
X18119047Y47445181D02*
X17833333Y47445181D01*
X17833333Y47445181D02*
X17738095Y47492800D01*
X17738095Y47492800D02*
X17690476Y47540420D01*
D12*
X40161142Y29967581D02*
X39684952Y29967581D01*
X39684952Y29967581D02*
X39684952Y30967581D01*
X41018285Y29967581D02*
X40446857Y29967581D01*
X40732571Y29967581D02*
X40732571Y30967581D01*
X40732571Y30967581D02*
X40637333Y30824724D01*
X40637333Y30824724D02*
X40542095Y30729486D01*
X40542095Y30729486D02*
X40446857Y30681867D01*
X41637333Y30967581D02*
X41732571Y30967581D01*
X41732571Y30967581D02*
X41827809Y30919962D01*
X41827809Y30919962D02*
X41875428Y30872343D01*
X41875428Y30872343D02*
X41923047Y30777105D01*
X41923047Y30777105D02*
X41970666Y30586629D01*
X41970666Y30586629D02*
X41970666Y30348534D01*
X41970666Y30348534D02*
X41923047Y30158058D01*
X41923047Y30158058D02*
X41875428Y30062820D01*
X41875428Y30062820D02*
X41827809Y30015200D01*
X41827809Y30015200D02*
X41732571Y29967581D01*
X41732571Y29967581D02*
X41637333Y29967581D01*
X41637333Y29967581D02*
X41542095Y30015200D01*
X41542095Y30015200D02*
X41494476Y30062820D01*
X41494476Y30062820D02*
X41446857Y30158058D01*
X41446857Y30158058D02*
X41399238Y30348534D01*
X41399238Y30348534D02*
X41399238Y30586629D01*
X41399238Y30586629D02*
X41446857Y30777105D01*
X41446857Y30777105D02*
X41494476Y30872343D01*
X41494476Y30872343D02*
X41542095Y30919962D01*
X41542095Y30919962D02*
X41637333Y30967581D01*
D11*
X59982142Y51490420D02*
X59934523Y51442800D01*
X59934523Y51442800D02*
X59791666Y51395181D01*
X59791666Y51395181D02*
X59696428Y51395181D01*
X59696428Y51395181D02*
X59553571Y51442800D01*
X59553571Y51442800D02*
X59458333Y51538039D01*
X59458333Y51538039D02*
X59410714Y51633277D01*
X59410714Y51633277D02*
X59363095Y51823753D01*
X59363095Y51823753D02*
X59363095Y51966610D01*
X59363095Y51966610D02*
X59410714Y52157086D01*
X59410714Y52157086D02*
X59458333Y52252324D01*
X59458333Y52252324D02*
X59553571Y52347562D01*
X59553571Y52347562D02*
X59696428Y52395181D01*
X59696428Y52395181D02*
X59791666Y52395181D01*
X59791666Y52395181D02*
X59934523Y52347562D01*
X59934523Y52347562D02*
X59982142Y52299943D01*
X60363095Y52299943D02*
X60410714Y52347562D01*
X60410714Y52347562D02*
X60505952Y52395181D01*
X60505952Y52395181D02*
X60744047Y52395181D01*
X60744047Y52395181D02*
X60839285Y52347562D01*
X60839285Y52347562D02*
X60886904Y52299943D01*
X60886904Y52299943D02*
X60934523Y52204705D01*
X60934523Y52204705D02*
X60934523Y52109467D01*
X60934523Y52109467D02*
X60886904Y51966610D01*
X60886904Y51966610D02*
X60315476Y51395181D01*
X60315476Y51395181D02*
X60934523Y51395181D01*
X61315476Y52299943D02*
X61363095Y52347562D01*
X61363095Y52347562D02*
X61458333Y52395181D01*
X61458333Y52395181D02*
X61696428Y52395181D01*
X61696428Y52395181D02*
X61791666Y52347562D01*
X61791666Y52347562D02*
X61839285Y52299943D01*
X61839285Y52299943D02*
X61886904Y52204705D01*
X61886904Y52204705D02*
X61886904Y52109467D01*
X61886904Y52109467D02*
X61839285Y51966610D01*
X61839285Y51966610D02*
X61267857Y51395181D01*
X61267857Y51395181D02*
X61886904Y51395181D01*
D12*
X27133333Y60392581D02*
X26657143Y60392581D01*
X26657143Y60392581D02*
X26657143Y61392581D01*
X27419048Y61297343D02*
X27466667Y61344962D01*
X27466667Y61344962D02*
X27561905Y61392581D01*
X27561905Y61392581D02*
X27800000Y61392581D01*
X27800000Y61392581D02*
X27895238Y61344962D01*
X27895238Y61344962D02*
X27942857Y61297343D01*
X27942857Y61297343D02*
X27990476Y61202105D01*
X27990476Y61202105D02*
X27990476Y61106867D01*
X27990476Y61106867D02*
X27942857Y60964010D01*
X27942857Y60964010D02*
X27371429Y60392581D01*
X27371429Y60392581D02*
X27990476Y60392581D01*
D11*
X47107142Y50090420D02*
X47059523Y50042800D01*
X47059523Y50042800D02*
X46916666Y49995181D01*
X46916666Y49995181D02*
X46821428Y49995181D01*
X46821428Y49995181D02*
X46678571Y50042800D01*
X46678571Y50042800D02*
X46583333Y50138039D01*
X46583333Y50138039D02*
X46535714Y50233277D01*
X46535714Y50233277D02*
X46488095Y50423753D01*
X46488095Y50423753D02*
X46488095Y50566610D01*
X46488095Y50566610D02*
X46535714Y50757086D01*
X46535714Y50757086D02*
X46583333Y50852324D01*
X46583333Y50852324D02*
X46678571Y50947562D01*
X46678571Y50947562D02*
X46821428Y50995181D01*
X46821428Y50995181D02*
X46916666Y50995181D01*
X46916666Y50995181D02*
X47059523Y50947562D01*
X47059523Y50947562D02*
X47107142Y50899943D01*
X47488095Y50899943D02*
X47535714Y50947562D01*
X47535714Y50947562D02*
X47630952Y50995181D01*
X47630952Y50995181D02*
X47869047Y50995181D01*
X47869047Y50995181D02*
X47964285Y50947562D01*
X47964285Y50947562D02*
X48011904Y50899943D01*
X48011904Y50899943D02*
X48059523Y50804705D01*
X48059523Y50804705D02*
X48059523Y50709467D01*
X48059523Y50709467D02*
X48011904Y50566610D01*
X48011904Y50566610D02*
X47440476Y49995181D01*
X47440476Y49995181D02*
X48059523Y49995181D01*
X48392857Y50995181D02*
X49059523Y50995181D01*
X49059523Y50995181D02*
X48630952Y49995181D01*
X44857142Y63765420D02*
X44809523Y63717800D01*
X44809523Y63717800D02*
X44666666Y63670181D01*
X44666666Y63670181D02*
X44571428Y63670181D01*
X44571428Y63670181D02*
X44428571Y63717800D01*
X44428571Y63717800D02*
X44333333Y63813039D01*
X44333333Y63813039D02*
X44285714Y63908277D01*
X44285714Y63908277D02*
X44238095Y64098753D01*
X44238095Y64098753D02*
X44238095Y64241610D01*
X44238095Y64241610D02*
X44285714Y64432086D01*
X44285714Y64432086D02*
X44333333Y64527324D01*
X44333333Y64527324D02*
X44428571Y64622562D01*
X44428571Y64622562D02*
X44571428Y64670181D01*
X44571428Y64670181D02*
X44666666Y64670181D01*
X44666666Y64670181D02*
X44809523Y64622562D01*
X44809523Y64622562D02*
X44857142Y64574943D01*
X45809523Y63670181D02*
X45238095Y63670181D01*
X45523809Y63670181D02*
X45523809Y64670181D01*
X45523809Y64670181D02*
X45428571Y64527324D01*
X45428571Y64527324D02*
X45333333Y64432086D01*
X45333333Y64432086D02*
X45238095Y64384467D01*
X46666666Y64670181D02*
X46476190Y64670181D01*
X46476190Y64670181D02*
X46380952Y64622562D01*
X46380952Y64622562D02*
X46333333Y64574943D01*
X46333333Y64574943D02*
X46238095Y64432086D01*
X46238095Y64432086D02*
X46190476Y64241610D01*
X46190476Y64241610D02*
X46190476Y63860658D01*
X46190476Y63860658D02*
X46238095Y63765420D01*
X46238095Y63765420D02*
X46285714Y63717800D01*
X46285714Y63717800D02*
X46380952Y63670181D01*
X46380952Y63670181D02*
X46571428Y63670181D01*
X46571428Y63670181D02*
X46666666Y63717800D01*
X46666666Y63717800D02*
X46714285Y63765420D01*
X46714285Y63765420D02*
X46761904Y63860658D01*
X46761904Y63860658D02*
X46761904Y64098753D01*
X46761904Y64098753D02*
X46714285Y64193991D01*
X46714285Y64193991D02*
X46666666Y64241610D01*
X46666666Y64241610D02*
X46571428Y64289229D01*
X46571428Y64289229D02*
X46380952Y64289229D01*
X46380952Y64289229D02*
X46285714Y64241610D01*
X46285714Y64241610D02*
X46238095Y64193991D01*
X46238095Y64193991D02*
X46190476Y64098753D01*
D12*
X27183333Y40142581D02*
X26707143Y40142581D01*
X26707143Y40142581D02*
X26707143Y41142581D01*
X27945238Y40809248D02*
X27945238Y40142581D01*
X27707143Y41190200D02*
X27469048Y40475915D01*
X27469048Y40475915D02*
X28088095Y40475915D01*
D11*
X22082142Y23215420D02*
X22034523Y23167800D01*
X22034523Y23167800D02*
X21891666Y23120181D01*
X21891666Y23120181D02*
X21796428Y23120181D01*
X21796428Y23120181D02*
X21653571Y23167800D01*
X21653571Y23167800D02*
X21558333Y23263039D01*
X21558333Y23263039D02*
X21510714Y23358277D01*
X21510714Y23358277D02*
X21463095Y23548753D01*
X21463095Y23548753D02*
X21463095Y23691610D01*
X21463095Y23691610D02*
X21510714Y23882086D01*
X21510714Y23882086D02*
X21558333Y23977324D01*
X21558333Y23977324D02*
X21653571Y24072562D01*
X21653571Y24072562D02*
X21796428Y24120181D01*
X21796428Y24120181D02*
X21891666Y24120181D01*
X21891666Y24120181D02*
X22034523Y24072562D01*
X22034523Y24072562D02*
X22082142Y24024943D01*
X23034523Y23120181D02*
X22463095Y23120181D01*
X22748809Y23120181D02*
X22748809Y24120181D01*
X22748809Y24120181D02*
X22653571Y23977324D01*
X22653571Y23977324D02*
X22558333Y23882086D01*
X22558333Y23882086D02*
X22463095Y23834467D01*
X23653571Y24120181D02*
X23748809Y24120181D01*
X23748809Y24120181D02*
X23844047Y24072562D01*
X23844047Y24072562D02*
X23891666Y24024943D01*
X23891666Y24024943D02*
X23939285Y23929705D01*
X23939285Y23929705D02*
X23986904Y23739229D01*
X23986904Y23739229D02*
X23986904Y23501134D01*
X23986904Y23501134D02*
X23939285Y23310658D01*
X23939285Y23310658D02*
X23891666Y23215420D01*
X23891666Y23215420D02*
X23844047Y23167800D01*
X23844047Y23167800D02*
X23748809Y23120181D01*
X23748809Y23120181D02*
X23653571Y23120181D01*
X23653571Y23120181D02*
X23558333Y23167800D01*
X23558333Y23167800D02*
X23510714Y23215420D01*
X23510714Y23215420D02*
X23463095Y23310658D01*
X23463095Y23310658D02*
X23415476Y23501134D01*
X23415476Y23501134D02*
X23415476Y23739229D01*
X23415476Y23739229D02*
X23463095Y23929705D01*
X23463095Y23929705D02*
X23510714Y24024943D01*
X23510714Y24024943D02*
X23558333Y24072562D01*
X23558333Y24072562D02*
X23653571Y24120181D01*
X36107142Y23115420D02*
X36059523Y23067800D01*
X36059523Y23067800D02*
X35916666Y23020181D01*
X35916666Y23020181D02*
X35821428Y23020181D01*
X35821428Y23020181D02*
X35678571Y23067800D01*
X35678571Y23067800D02*
X35583333Y23163039D01*
X35583333Y23163039D02*
X35535714Y23258277D01*
X35535714Y23258277D02*
X35488095Y23448753D01*
X35488095Y23448753D02*
X35488095Y23591610D01*
X35488095Y23591610D02*
X35535714Y23782086D01*
X35535714Y23782086D02*
X35583333Y23877324D01*
X35583333Y23877324D02*
X35678571Y23972562D01*
X35678571Y23972562D02*
X35821428Y24020181D01*
X35821428Y24020181D02*
X35916666Y24020181D01*
X35916666Y24020181D02*
X36059523Y23972562D01*
X36059523Y23972562D02*
X36107142Y23924943D01*
X37059523Y23020181D02*
X36488095Y23020181D01*
X36773809Y23020181D02*
X36773809Y24020181D01*
X36773809Y24020181D02*
X36678571Y23877324D01*
X36678571Y23877324D02*
X36583333Y23782086D01*
X36583333Y23782086D02*
X36488095Y23734467D01*
X37964285Y24020181D02*
X37488095Y24020181D01*
X37488095Y24020181D02*
X37440476Y23543991D01*
X37440476Y23543991D02*
X37488095Y23591610D01*
X37488095Y23591610D02*
X37583333Y23639229D01*
X37583333Y23639229D02*
X37821428Y23639229D01*
X37821428Y23639229D02*
X37916666Y23591610D01*
X37916666Y23591610D02*
X37964285Y23543991D01*
X37964285Y23543991D02*
X38011904Y23448753D01*
X38011904Y23448753D02*
X38011904Y23210658D01*
X38011904Y23210658D02*
X37964285Y23115420D01*
X37964285Y23115420D02*
X37916666Y23067800D01*
X37916666Y23067800D02*
X37821428Y23020181D01*
X37821428Y23020181D02*
X37583333Y23020181D01*
X37583333Y23020181D02*
X37488095Y23067800D01*
X37488095Y23067800D02*
X37440476Y23115420D01*
X8858333Y56290420D02*
X8810714Y56242800D01*
X8810714Y56242800D02*
X8667857Y56195181D01*
X8667857Y56195181D02*
X8572619Y56195181D01*
X8572619Y56195181D02*
X8429762Y56242800D01*
X8429762Y56242800D02*
X8334524Y56338039D01*
X8334524Y56338039D02*
X8286905Y56433277D01*
X8286905Y56433277D02*
X8239286Y56623753D01*
X8239286Y56623753D02*
X8239286Y56766610D01*
X8239286Y56766610D02*
X8286905Y56957086D01*
X8286905Y56957086D02*
X8334524Y57052324D01*
X8334524Y57052324D02*
X8429762Y57147562D01*
X8429762Y57147562D02*
X8572619Y57195181D01*
X8572619Y57195181D02*
X8667857Y57195181D01*
X8667857Y57195181D02*
X8810714Y57147562D01*
X8810714Y57147562D02*
X8858333Y57099943D01*
X9810714Y56195181D02*
X9239286Y56195181D01*
X9525000Y56195181D02*
X9525000Y57195181D01*
X9525000Y57195181D02*
X9429762Y57052324D01*
X9429762Y57052324D02*
X9334524Y56957086D01*
X9334524Y56957086D02*
X9239286Y56909467D01*
X8833333Y41790420D02*
X8785714Y41742800D01*
X8785714Y41742800D02*
X8642857Y41695181D01*
X8642857Y41695181D02*
X8547619Y41695181D01*
X8547619Y41695181D02*
X8404762Y41742800D01*
X8404762Y41742800D02*
X8309524Y41838039D01*
X8309524Y41838039D02*
X8261905Y41933277D01*
X8261905Y41933277D02*
X8214286Y42123753D01*
X8214286Y42123753D02*
X8214286Y42266610D01*
X8214286Y42266610D02*
X8261905Y42457086D01*
X8261905Y42457086D02*
X8309524Y42552324D01*
X8309524Y42552324D02*
X8404762Y42647562D01*
X8404762Y42647562D02*
X8547619Y42695181D01*
X8547619Y42695181D02*
X8642857Y42695181D01*
X8642857Y42695181D02*
X8785714Y42647562D01*
X8785714Y42647562D02*
X8833333Y42599943D01*
X9738095Y42695181D02*
X9261905Y42695181D01*
X9261905Y42695181D02*
X9214286Y42218991D01*
X9214286Y42218991D02*
X9261905Y42266610D01*
X9261905Y42266610D02*
X9357143Y42314229D01*
X9357143Y42314229D02*
X9595238Y42314229D01*
X9595238Y42314229D02*
X9690476Y42266610D01*
X9690476Y42266610D02*
X9738095Y42218991D01*
X9738095Y42218991D02*
X9785714Y42123753D01*
X9785714Y42123753D02*
X9785714Y41885658D01*
X9785714Y41885658D02*
X9738095Y41790420D01*
X9738095Y41790420D02*
X9690476Y41742800D01*
X9690476Y41742800D02*
X9595238Y41695181D01*
X9595238Y41695181D02*
X9357143Y41695181D01*
X9357143Y41695181D02*
X9261905Y41742800D01*
X9261905Y41742800D02*
X9214286Y41790420D01*
X1401666Y53005181D02*
X1401666Y52290896D01*
X1401666Y52290896D02*
X1354047Y52148039D01*
X1354047Y52148039D02*
X1258809Y52052800D01*
X1258809Y52052800D02*
X1115952Y52005181D01*
X1115952Y52005181D02*
X1020714Y52005181D01*
X2401666Y52005181D02*
X1830238Y52005181D01*
X2115952Y52005181D02*
X2115952Y53005181D01*
X2115952Y53005181D02*
X2020714Y52862324D01*
X2020714Y52862324D02*
X1925476Y52767086D01*
X1925476Y52767086D02*
X1830238Y52719467D01*
X22283333Y33365420D02*
X22235714Y33317800D01*
X22235714Y33317800D02*
X22092857Y33270181D01*
X22092857Y33270181D02*
X21997619Y33270181D01*
X21997619Y33270181D02*
X21854762Y33317800D01*
X21854762Y33317800D02*
X21759524Y33413039D01*
X21759524Y33413039D02*
X21711905Y33508277D01*
X21711905Y33508277D02*
X21664286Y33698753D01*
X21664286Y33698753D02*
X21664286Y33841610D01*
X21664286Y33841610D02*
X21711905Y34032086D01*
X21711905Y34032086D02*
X21759524Y34127324D01*
X21759524Y34127324D02*
X21854762Y34222562D01*
X21854762Y34222562D02*
X21997619Y34270181D01*
X21997619Y34270181D02*
X22092857Y34270181D01*
X22092857Y34270181D02*
X22235714Y34222562D01*
X22235714Y34222562D02*
X22283333Y34174943D01*
X22759524Y33270181D02*
X22950000Y33270181D01*
X22950000Y33270181D02*
X23045238Y33317800D01*
X23045238Y33317800D02*
X23092857Y33365420D01*
X23092857Y33365420D02*
X23188095Y33508277D01*
X23188095Y33508277D02*
X23235714Y33698753D01*
X23235714Y33698753D02*
X23235714Y34079705D01*
X23235714Y34079705D02*
X23188095Y34174943D01*
X23188095Y34174943D02*
X23140476Y34222562D01*
X23140476Y34222562D02*
X23045238Y34270181D01*
X23045238Y34270181D02*
X22854762Y34270181D01*
X22854762Y34270181D02*
X22759524Y34222562D01*
X22759524Y34222562D02*
X22711905Y34174943D01*
X22711905Y34174943D02*
X22664286Y34079705D01*
X22664286Y34079705D02*
X22664286Y33841610D01*
X22664286Y33841610D02*
X22711905Y33746372D01*
X22711905Y33746372D02*
X22759524Y33698753D01*
X22759524Y33698753D02*
X22854762Y33651134D01*
X22854762Y33651134D02*
X23045238Y33651134D01*
X23045238Y33651134D02*
X23140476Y33698753D01*
X23140476Y33698753D02*
X23188095Y33746372D01*
X23188095Y33746372D02*
X23235714Y33841610D01*
X59957142Y55290420D02*
X59909523Y55242800D01*
X59909523Y55242800D02*
X59766666Y55195181D01*
X59766666Y55195181D02*
X59671428Y55195181D01*
X59671428Y55195181D02*
X59528571Y55242800D01*
X59528571Y55242800D02*
X59433333Y55338039D01*
X59433333Y55338039D02*
X59385714Y55433277D01*
X59385714Y55433277D02*
X59338095Y55623753D01*
X59338095Y55623753D02*
X59338095Y55766610D01*
X59338095Y55766610D02*
X59385714Y55957086D01*
X59385714Y55957086D02*
X59433333Y56052324D01*
X59433333Y56052324D02*
X59528571Y56147562D01*
X59528571Y56147562D02*
X59671428Y56195181D01*
X59671428Y56195181D02*
X59766666Y56195181D01*
X59766666Y56195181D02*
X59909523Y56147562D01*
X59909523Y56147562D02*
X59957142Y56099943D01*
X60338095Y56099943D02*
X60385714Y56147562D01*
X60385714Y56147562D02*
X60480952Y56195181D01*
X60480952Y56195181D02*
X60719047Y56195181D01*
X60719047Y56195181D02*
X60814285Y56147562D01*
X60814285Y56147562D02*
X60861904Y56099943D01*
X60861904Y56099943D02*
X60909523Y56004705D01*
X60909523Y56004705D02*
X60909523Y55909467D01*
X60909523Y55909467D02*
X60861904Y55766610D01*
X60861904Y55766610D02*
X60290476Y55195181D01*
X60290476Y55195181D02*
X60909523Y55195181D01*
X61861904Y55195181D02*
X61290476Y55195181D01*
X61576190Y55195181D02*
X61576190Y56195181D01*
X61576190Y56195181D02*
X61480952Y56052324D01*
X61480952Y56052324D02*
X61385714Y55957086D01*
X61385714Y55957086D02*
X61290476Y55909467D01*
X8833333Y45490420D02*
X8785714Y45442800D01*
X8785714Y45442800D02*
X8642857Y45395181D01*
X8642857Y45395181D02*
X8547619Y45395181D01*
X8547619Y45395181D02*
X8404762Y45442800D01*
X8404762Y45442800D02*
X8309524Y45538039D01*
X8309524Y45538039D02*
X8261905Y45633277D01*
X8261905Y45633277D02*
X8214286Y45823753D01*
X8214286Y45823753D02*
X8214286Y45966610D01*
X8214286Y45966610D02*
X8261905Y46157086D01*
X8261905Y46157086D02*
X8309524Y46252324D01*
X8309524Y46252324D02*
X8404762Y46347562D01*
X8404762Y46347562D02*
X8547619Y46395181D01*
X8547619Y46395181D02*
X8642857Y46395181D01*
X8642857Y46395181D02*
X8785714Y46347562D01*
X8785714Y46347562D02*
X8833333Y46299943D01*
X9690476Y46061848D02*
X9690476Y45395181D01*
X9452381Y46442800D02*
X9214286Y45728515D01*
X9214286Y45728515D02*
X9833333Y45728515D01*
X22458333Y63765420D02*
X22410714Y63717800D01*
X22410714Y63717800D02*
X22267857Y63670181D01*
X22267857Y63670181D02*
X22172619Y63670181D01*
X22172619Y63670181D02*
X22029762Y63717800D01*
X22029762Y63717800D02*
X21934524Y63813039D01*
X21934524Y63813039D02*
X21886905Y63908277D01*
X21886905Y63908277D02*
X21839286Y64098753D01*
X21839286Y64098753D02*
X21839286Y64241610D01*
X21839286Y64241610D02*
X21886905Y64432086D01*
X21886905Y64432086D02*
X21934524Y64527324D01*
X21934524Y64527324D02*
X22029762Y64622562D01*
X22029762Y64622562D02*
X22172619Y64670181D01*
X22172619Y64670181D02*
X22267857Y64670181D01*
X22267857Y64670181D02*
X22410714Y64622562D01*
X22410714Y64622562D02*
X22458333Y64574943D01*
X23315476Y64670181D02*
X23125000Y64670181D01*
X23125000Y64670181D02*
X23029762Y64622562D01*
X23029762Y64622562D02*
X22982143Y64574943D01*
X22982143Y64574943D02*
X22886905Y64432086D01*
X22886905Y64432086D02*
X22839286Y64241610D01*
X22839286Y64241610D02*
X22839286Y63860658D01*
X22839286Y63860658D02*
X22886905Y63765420D01*
X22886905Y63765420D02*
X22934524Y63717800D01*
X22934524Y63717800D02*
X23029762Y63670181D01*
X23029762Y63670181D02*
X23220238Y63670181D01*
X23220238Y63670181D02*
X23315476Y63717800D01*
X23315476Y63717800D02*
X23363095Y63765420D01*
X23363095Y63765420D02*
X23410714Y63860658D01*
X23410714Y63860658D02*
X23410714Y64098753D01*
X23410714Y64098753D02*
X23363095Y64193991D01*
X23363095Y64193991D02*
X23315476Y64241610D01*
X23315476Y64241610D02*
X23220238Y64289229D01*
X23220238Y64289229D02*
X23029762Y64289229D01*
X23029762Y64289229D02*
X22934524Y64241610D01*
X22934524Y64241610D02*
X22886905Y64193991D01*
X22886905Y64193991D02*
X22839286Y64098753D01*
X36107142Y43290420D02*
X36059523Y43242800D01*
X36059523Y43242800D02*
X35916666Y43195181D01*
X35916666Y43195181D02*
X35821428Y43195181D01*
X35821428Y43195181D02*
X35678571Y43242800D01*
X35678571Y43242800D02*
X35583333Y43338039D01*
X35583333Y43338039D02*
X35535714Y43433277D01*
X35535714Y43433277D02*
X35488095Y43623753D01*
X35488095Y43623753D02*
X35488095Y43766610D01*
X35488095Y43766610D02*
X35535714Y43957086D01*
X35535714Y43957086D02*
X35583333Y44052324D01*
X35583333Y44052324D02*
X35678571Y44147562D01*
X35678571Y44147562D02*
X35821428Y44195181D01*
X35821428Y44195181D02*
X35916666Y44195181D01*
X35916666Y44195181D02*
X36059523Y44147562D01*
X36059523Y44147562D02*
X36107142Y44099943D01*
X37059523Y43195181D02*
X36488095Y43195181D01*
X36773809Y43195181D02*
X36773809Y44195181D01*
X36773809Y44195181D02*
X36678571Y44052324D01*
X36678571Y44052324D02*
X36583333Y43957086D01*
X36583333Y43957086D02*
X36488095Y43909467D01*
X37392857Y44195181D02*
X38011904Y44195181D01*
X38011904Y44195181D02*
X37678571Y43814229D01*
X37678571Y43814229D02*
X37821428Y43814229D01*
X37821428Y43814229D02*
X37916666Y43766610D01*
X37916666Y43766610D02*
X37964285Y43718991D01*
X37964285Y43718991D02*
X38011904Y43623753D01*
X38011904Y43623753D02*
X38011904Y43385658D01*
X38011904Y43385658D02*
X37964285Y43290420D01*
X37964285Y43290420D02*
X37916666Y43242800D01*
X37916666Y43242800D02*
X37821428Y43195181D01*
X37821428Y43195181D02*
X37535714Y43195181D01*
X37535714Y43195181D02*
X37440476Y43242800D01*
X37440476Y43242800D02*
X37392857Y43290420D01*
X44282142Y53540420D02*
X44234523Y53492800D01*
X44234523Y53492800D02*
X44091666Y53445181D01*
X44091666Y53445181D02*
X43996428Y53445181D01*
X43996428Y53445181D02*
X43853571Y53492800D01*
X43853571Y53492800D02*
X43758333Y53588039D01*
X43758333Y53588039D02*
X43710714Y53683277D01*
X43710714Y53683277D02*
X43663095Y53873753D01*
X43663095Y53873753D02*
X43663095Y54016610D01*
X43663095Y54016610D02*
X43710714Y54207086D01*
X43710714Y54207086D02*
X43758333Y54302324D01*
X43758333Y54302324D02*
X43853571Y54397562D01*
X43853571Y54397562D02*
X43996428Y54445181D01*
X43996428Y54445181D02*
X44091666Y54445181D01*
X44091666Y54445181D02*
X44234523Y54397562D01*
X44234523Y54397562D02*
X44282142Y54349943D01*
X45234523Y53445181D02*
X44663095Y53445181D01*
X44948809Y53445181D02*
X44948809Y54445181D01*
X44948809Y54445181D02*
X44853571Y54302324D01*
X44853571Y54302324D02*
X44758333Y54207086D01*
X44758333Y54207086D02*
X44663095Y54159467D01*
X45567857Y54445181D02*
X46234523Y54445181D01*
X46234523Y54445181D02*
X45805952Y53445181D01*
D12*
X40633333Y40167581D02*
X40157143Y40167581D01*
X40157143Y40167581D02*
X40157143Y41167581D01*
X41014286Y40167581D02*
X41204762Y40167581D01*
X41204762Y40167581D02*
X41300000Y40215200D01*
X41300000Y40215200D02*
X41347619Y40262820D01*
X41347619Y40262820D02*
X41442857Y40405677D01*
X41442857Y40405677D02*
X41490476Y40596153D01*
X41490476Y40596153D02*
X41490476Y40977105D01*
X41490476Y40977105D02*
X41442857Y41072343D01*
X41442857Y41072343D02*
X41395238Y41119962D01*
X41395238Y41119962D02*
X41300000Y41167581D01*
X41300000Y41167581D02*
X41109524Y41167581D01*
X41109524Y41167581D02*
X41014286Y41119962D01*
X41014286Y41119962D02*
X40966667Y41072343D01*
X40966667Y41072343D02*
X40919048Y40977105D01*
X40919048Y40977105D02*
X40919048Y40739010D01*
X40919048Y40739010D02*
X40966667Y40643772D01*
X40966667Y40643772D02*
X41014286Y40596153D01*
X41014286Y40596153D02*
X41109524Y40548534D01*
X41109524Y40548534D02*
X41300000Y40548534D01*
X41300000Y40548534D02*
X41395238Y40596153D01*
X41395238Y40596153D02*
X41442857Y40643772D01*
X41442857Y40643772D02*
X41490476Y40739010D01*
D11*
X-2183334Y36845181D02*
X-2183334Y36130896D01*
X-2183334Y36130896D02*
X-2230953Y35988039D01*
X-2230953Y35988039D02*
X-2326191Y35892800D01*
X-2326191Y35892800D02*
X-2469048Y35845181D01*
X-2469048Y35845181D02*
X-2564286Y35845181D01*
X-1278572Y36511848D02*
X-1278572Y35845181D01*
X-1516667Y36892800D02*
X-1754762Y36178515D01*
X-1754762Y36178515D02*
X-1135715Y36178515D01*
X68381666Y51605181D02*
X68381666Y50890896D01*
X68381666Y50890896D02*
X68334047Y50748039D01*
X68334047Y50748039D02*
X68238809Y50652800D01*
X68238809Y50652800D02*
X68095952Y50605181D01*
X68095952Y50605181D02*
X68000714Y50605181D01*
X68810238Y51509943D02*
X68857857Y51557562D01*
X68857857Y51557562D02*
X68953095Y51605181D01*
X68953095Y51605181D02*
X69191190Y51605181D01*
X69191190Y51605181D02*
X69286428Y51557562D01*
X69286428Y51557562D02*
X69334047Y51509943D01*
X69334047Y51509943D02*
X69381666Y51414705D01*
X69381666Y51414705D02*
X69381666Y51319467D01*
X69381666Y51319467D02*
X69334047Y51176610D01*
X69334047Y51176610D02*
X68762619Y50605181D01*
X68762619Y50605181D02*
X69381666Y50605181D01*
X50913095Y43620181D02*
X50913095Y42810658D01*
X50913095Y42810658D02*
X50960714Y42715420D01*
X50960714Y42715420D02*
X51008333Y42667800D01*
X51008333Y42667800D02*
X51103571Y42620181D01*
X51103571Y42620181D02*
X51294047Y42620181D01*
X51294047Y42620181D02*
X51389285Y42667800D01*
X51389285Y42667800D02*
X51436904Y42715420D01*
X51436904Y42715420D02*
X51484523Y42810658D01*
X51484523Y42810658D02*
X51484523Y43620181D01*
X52008333Y42620181D02*
X52198809Y42620181D01*
X52198809Y42620181D02*
X52294047Y42667800D01*
X52294047Y42667800D02*
X52341666Y42715420D01*
X52341666Y42715420D02*
X52436904Y42858277D01*
X52436904Y42858277D02*
X52484523Y43048753D01*
X52484523Y43048753D02*
X52484523Y43429705D01*
X52484523Y43429705D02*
X52436904Y43524943D01*
X52436904Y43524943D02*
X52389285Y43572562D01*
X52389285Y43572562D02*
X52294047Y43620181D01*
X52294047Y43620181D02*
X52103571Y43620181D01*
X52103571Y43620181D02*
X52008333Y43572562D01*
X52008333Y43572562D02*
X51960714Y43524943D01*
X51960714Y43524943D02*
X51913095Y43429705D01*
X51913095Y43429705D02*
X51913095Y43191610D01*
X51913095Y43191610D02*
X51960714Y43096372D01*
X51960714Y43096372D02*
X52008333Y43048753D01*
X52008333Y43048753D02*
X52103571Y43001134D01*
X52103571Y43001134D02*
X52294047Y43001134D01*
X52294047Y43001134D02*
X52389285Y43048753D01*
X52389285Y43048753D02*
X52436904Y43096372D01*
X52436904Y43096372D02*
X52484523Y43191610D01*
X8825705Y31165181D02*
X8825705Y30355658D01*
X8825705Y30355658D02*
X8873324Y30260420D01*
X8873324Y30260420D02*
X8920943Y30212800D01*
X8920943Y30212800D02*
X9016181Y30165181D01*
X9016181Y30165181D02*
X9206657Y30165181D01*
X9206657Y30165181D02*
X9301895Y30212800D01*
X9301895Y30212800D02*
X9349514Y30260420D01*
X9349514Y30260420D02*
X9397133Y30355658D01*
X9397133Y30355658D02*
X9397133Y31165181D01*
X10397133Y30165181D02*
X9825705Y30165181D01*
X10111419Y30165181D02*
X10111419Y31165181D01*
X10111419Y31165181D02*
X10016181Y31022324D01*
X10016181Y31022324D02*
X9920943Y30927086D01*
X9920943Y30927086D02*
X9825705Y30879467D01*
X10778086Y31069943D02*
X10825705Y31117562D01*
X10825705Y31117562D02*
X10920943Y31165181D01*
X10920943Y31165181D02*
X11159038Y31165181D01*
X11159038Y31165181D02*
X11254276Y31117562D01*
X11254276Y31117562D02*
X11301895Y31069943D01*
X11301895Y31069943D02*
X11349514Y30974705D01*
X11349514Y30974705D02*
X11349514Y30879467D01*
X11349514Y30879467D02*
X11301895Y30736610D01*
X11301895Y30736610D02*
X10730467Y30165181D01*
X10730467Y30165181D02*
X11349514Y30165181D01*
X16413095Y52695181D02*
X16413095Y51885658D01*
X16413095Y51885658D02*
X16460714Y51790420D01*
X16460714Y51790420D02*
X16508333Y51742800D01*
X16508333Y51742800D02*
X16603571Y51695181D01*
X16603571Y51695181D02*
X16794047Y51695181D01*
X16794047Y51695181D02*
X16889285Y51742800D01*
X16889285Y51742800D02*
X16936904Y51790420D01*
X16936904Y51790420D02*
X16984523Y51885658D01*
X16984523Y51885658D02*
X16984523Y52695181D01*
X17413095Y52599943D02*
X17460714Y52647562D01*
X17460714Y52647562D02*
X17555952Y52695181D01*
X17555952Y52695181D02*
X17794047Y52695181D01*
X17794047Y52695181D02*
X17889285Y52647562D01*
X17889285Y52647562D02*
X17936904Y52599943D01*
X17936904Y52599943D02*
X17984523Y52504705D01*
X17984523Y52504705D02*
X17984523Y52409467D01*
X17984523Y52409467D02*
X17936904Y52266610D01*
X17936904Y52266610D02*
X17365476Y51695181D01*
X17365476Y51695181D02*
X17984523Y51695181D01*
X53532142Y62765420D02*
X53484523Y62717800D01*
X53484523Y62717800D02*
X53341666Y62670181D01*
X53341666Y62670181D02*
X53246428Y62670181D01*
X53246428Y62670181D02*
X53103571Y62717800D01*
X53103571Y62717800D02*
X53008333Y62813039D01*
X53008333Y62813039D02*
X52960714Y62908277D01*
X52960714Y62908277D02*
X52913095Y63098753D01*
X52913095Y63098753D02*
X52913095Y63241610D01*
X52913095Y63241610D02*
X52960714Y63432086D01*
X52960714Y63432086D02*
X53008333Y63527324D01*
X53008333Y63527324D02*
X53103571Y63622562D01*
X53103571Y63622562D02*
X53246428Y63670181D01*
X53246428Y63670181D02*
X53341666Y63670181D01*
X53341666Y63670181D02*
X53484523Y63622562D01*
X53484523Y63622562D02*
X53532142Y63574943D01*
X53913095Y63574943D02*
X53960714Y63622562D01*
X53960714Y63622562D02*
X54055952Y63670181D01*
X54055952Y63670181D02*
X54294047Y63670181D01*
X54294047Y63670181D02*
X54389285Y63622562D01*
X54389285Y63622562D02*
X54436904Y63574943D01*
X54436904Y63574943D02*
X54484523Y63479705D01*
X54484523Y63479705D02*
X54484523Y63384467D01*
X54484523Y63384467D02*
X54436904Y63241610D01*
X54436904Y63241610D02*
X53865476Y62670181D01*
X53865476Y62670181D02*
X54484523Y62670181D01*
X55341666Y63670181D02*
X55151190Y63670181D01*
X55151190Y63670181D02*
X55055952Y63622562D01*
X55055952Y63622562D02*
X55008333Y63574943D01*
X55008333Y63574943D02*
X54913095Y63432086D01*
X54913095Y63432086D02*
X54865476Y63241610D01*
X54865476Y63241610D02*
X54865476Y62860658D01*
X54865476Y62860658D02*
X54913095Y62765420D01*
X54913095Y62765420D02*
X54960714Y62717800D01*
X54960714Y62717800D02*
X55055952Y62670181D01*
X55055952Y62670181D02*
X55246428Y62670181D01*
X55246428Y62670181D02*
X55341666Y62717800D01*
X55341666Y62717800D02*
X55389285Y62765420D01*
X55389285Y62765420D02*
X55436904Y62860658D01*
X55436904Y62860658D02*
X55436904Y63098753D01*
X55436904Y63098753D02*
X55389285Y63193991D01*
X55389285Y63193991D02*
X55341666Y63241610D01*
X55341666Y63241610D02*
X55246428Y63289229D01*
X55246428Y63289229D02*
X55055952Y63289229D01*
X55055952Y63289229D02*
X54960714Y63241610D01*
X54960714Y63241610D02*
X54913095Y63193991D01*
X54913095Y63193991D02*
X54865476Y63098753D01*
D12*
X27191333Y50192581D02*
X26715143Y50192581D01*
X26715143Y50192581D02*
X26715143Y51192581D01*
X27429429Y51192581D02*
X28048476Y51192581D01*
X28048476Y51192581D02*
X27715143Y50811629D01*
X27715143Y50811629D02*
X27858000Y50811629D01*
X27858000Y50811629D02*
X27953238Y50764010D01*
X27953238Y50764010D02*
X28000857Y50716391D01*
X28000857Y50716391D02*
X28048476Y50621153D01*
X28048476Y50621153D02*
X28048476Y50383058D01*
X28048476Y50383058D02*
X28000857Y50287820D01*
X28000857Y50287820D02*
X27953238Y50240200D01*
X27953238Y50240200D02*
X27858000Y50192581D01*
X27858000Y50192581D02*
X27572286Y50192581D01*
X27572286Y50192581D02*
X27477048Y50240200D01*
X27477048Y50240200D02*
X27429429Y50287820D01*
X40637333Y50192581D02*
X40161143Y50192581D01*
X40161143Y50192581D02*
X40161143Y51192581D01*
X41113524Y50764010D02*
X41018286Y50811629D01*
X41018286Y50811629D02*
X40970667Y50859248D01*
X40970667Y50859248D02*
X40923048Y50954486D01*
X40923048Y50954486D02*
X40923048Y51002105D01*
X40923048Y51002105D02*
X40970667Y51097343D01*
X40970667Y51097343D02*
X41018286Y51144962D01*
X41018286Y51144962D02*
X41113524Y51192581D01*
X41113524Y51192581D02*
X41304000Y51192581D01*
X41304000Y51192581D02*
X41399238Y51144962D01*
X41399238Y51144962D02*
X41446857Y51097343D01*
X41446857Y51097343D02*
X41494476Y51002105D01*
X41494476Y51002105D02*
X41494476Y50954486D01*
X41494476Y50954486D02*
X41446857Y50859248D01*
X41446857Y50859248D02*
X41399238Y50811629D01*
X41399238Y50811629D02*
X41304000Y50764010D01*
X41304000Y50764010D02*
X41113524Y50764010D01*
X41113524Y50764010D02*
X41018286Y50716391D01*
X41018286Y50716391D02*
X40970667Y50668772D01*
X40970667Y50668772D02*
X40923048Y50573534D01*
X40923048Y50573534D02*
X40923048Y50383058D01*
X40923048Y50383058D02*
X40970667Y50287820D01*
X40970667Y50287820D02*
X41018286Y50240200D01*
X41018286Y50240200D02*
X41113524Y50192581D01*
X41113524Y50192581D02*
X41304000Y50192581D01*
X41304000Y50192581D02*
X41399238Y50240200D01*
X41399238Y50240200D02*
X41446857Y50287820D01*
X41446857Y50287820D02*
X41494476Y50383058D01*
X41494476Y50383058D02*
X41494476Y50573534D01*
X41494476Y50573534D02*
X41446857Y50668772D01*
X41446857Y50668772D02*
X41399238Y50716391D01*
X41399238Y50716391D02*
X41304000Y50764010D01*
D11*
X53482142Y32840420D02*
X53434523Y32792800D01*
X53434523Y32792800D02*
X53291666Y32745181D01*
X53291666Y32745181D02*
X53196428Y32745181D01*
X53196428Y32745181D02*
X53053571Y32792800D01*
X53053571Y32792800D02*
X52958333Y32888039D01*
X52958333Y32888039D02*
X52910714Y32983277D01*
X52910714Y32983277D02*
X52863095Y33173753D01*
X52863095Y33173753D02*
X52863095Y33316610D01*
X52863095Y33316610D02*
X52910714Y33507086D01*
X52910714Y33507086D02*
X52958333Y33602324D01*
X52958333Y33602324D02*
X53053571Y33697562D01*
X53053571Y33697562D02*
X53196428Y33745181D01*
X53196428Y33745181D02*
X53291666Y33745181D01*
X53291666Y33745181D02*
X53434523Y33697562D01*
X53434523Y33697562D02*
X53482142Y33649943D01*
X53815476Y33745181D02*
X54434523Y33745181D01*
X54434523Y33745181D02*
X54101190Y33364229D01*
X54101190Y33364229D02*
X54244047Y33364229D01*
X54244047Y33364229D02*
X54339285Y33316610D01*
X54339285Y33316610D02*
X54386904Y33268991D01*
X54386904Y33268991D02*
X54434523Y33173753D01*
X54434523Y33173753D02*
X54434523Y32935658D01*
X54434523Y32935658D02*
X54386904Y32840420D01*
X54386904Y32840420D02*
X54339285Y32792800D01*
X54339285Y32792800D02*
X54244047Y32745181D01*
X54244047Y32745181D02*
X53958333Y32745181D01*
X53958333Y32745181D02*
X53863095Y32792800D01*
X53863095Y32792800D02*
X53815476Y32840420D01*
X55053571Y33745181D02*
X55148809Y33745181D01*
X55148809Y33745181D02*
X55244047Y33697562D01*
X55244047Y33697562D02*
X55291666Y33649943D01*
X55291666Y33649943D02*
X55339285Y33554705D01*
X55339285Y33554705D02*
X55386904Y33364229D01*
X55386904Y33364229D02*
X55386904Y33126134D01*
X55386904Y33126134D02*
X55339285Y32935658D01*
X55339285Y32935658D02*
X55291666Y32840420D01*
X55291666Y32840420D02*
X55244047Y32792800D01*
X55244047Y32792800D02*
X55148809Y32745181D01*
X55148809Y32745181D02*
X55053571Y32745181D01*
X55053571Y32745181D02*
X54958333Y32792800D01*
X54958333Y32792800D02*
X54910714Y32840420D01*
X54910714Y32840420D02*
X54863095Y32935658D01*
X54863095Y32935658D02*
X54815476Y33126134D01*
X54815476Y33126134D02*
X54815476Y33364229D01*
X54815476Y33364229D02*
X54863095Y33554705D01*
X54863095Y33554705D02*
X54910714Y33649943D01*
X54910714Y33649943D02*
X54958333Y33697562D01*
X54958333Y33697562D02*
X55053571Y33745181D01*
X44082142Y43390420D02*
X44034523Y43342800D01*
X44034523Y43342800D02*
X43891666Y43295181D01*
X43891666Y43295181D02*
X43796428Y43295181D01*
X43796428Y43295181D02*
X43653571Y43342800D01*
X43653571Y43342800D02*
X43558333Y43438039D01*
X43558333Y43438039D02*
X43510714Y43533277D01*
X43510714Y43533277D02*
X43463095Y43723753D01*
X43463095Y43723753D02*
X43463095Y43866610D01*
X43463095Y43866610D02*
X43510714Y44057086D01*
X43510714Y44057086D02*
X43558333Y44152324D01*
X43558333Y44152324D02*
X43653571Y44247562D01*
X43653571Y44247562D02*
X43796428Y44295181D01*
X43796428Y44295181D02*
X43891666Y44295181D01*
X43891666Y44295181D02*
X44034523Y44247562D01*
X44034523Y44247562D02*
X44082142Y44199943D01*
X45034523Y43295181D02*
X44463095Y43295181D01*
X44748809Y43295181D02*
X44748809Y44295181D01*
X44748809Y44295181D02*
X44653571Y44152324D01*
X44653571Y44152324D02*
X44558333Y44057086D01*
X44558333Y44057086D02*
X44463095Y44009467D01*
X45605952Y43866610D02*
X45510714Y43914229D01*
X45510714Y43914229D02*
X45463095Y43961848D01*
X45463095Y43961848D02*
X45415476Y44057086D01*
X45415476Y44057086D02*
X45415476Y44104705D01*
X45415476Y44104705D02*
X45463095Y44199943D01*
X45463095Y44199943D02*
X45510714Y44247562D01*
X45510714Y44247562D02*
X45605952Y44295181D01*
X45605952Y44295181D02*
X45796428Y44295181D01*
X45796428Y44295181D02*
X45891666Y44247562D01*
X45891666Y44247562D02*
X45939285Y44199943D01*
X45939285Y44199943D02*
X45986904Y44104705D01*
X45986904Y44104705D02*
X45986904Y44057086D01*
X45986904Y44057086D02*
X45939285Y43961848D01*
X45939285Y43961848D02*
X45891666Y43914229D01*
X45891666Y43914229D02*
X45796428Y43866610D01*
X45796428Y43866610D02*
X45605952Y43866610D01*
X45605952Y43866610D02*
X45510714Y43818991D01*
X45510714Y43818991D02*
X45463095Y43771372D01*
X45463095Y43771372D02*
X45415476Y43676134D01*
X45415476Y43676134D02*
X45415476Y43485658D01*
X45415476Y43485658D02*
X45463095Y43390420D01*
X45463095Y43390420D02*
X45510714Y43342800D01*
X45510714Y43342800D02*
X45605952Y43295181D01*
X45605952Y43295181D02*
X45796428Y43295181D01*
X45796428Y43295181D02*
X45891666Y43342800D01*
X45891666Y43342800D02*
X45939285Y43390420D01*
X45939285Y43390420D02*
X45986904Y43485658D01*
X45986904Y43485658D02*
X45986904Y43676134D01*
X45986904Y43676134D02*
X45939285Y43771372D01*
X45939285Y43771372D02*
X45891666Y43818991D01*
X45891666Y43818991D02*
X45796428Y43866610D01*
X22358333Y43365420D02*
X22310714Y43317800D01*
X22310714Y43317800D02*
X22167857Y43270181D01*
X22167857Y43270181D02*
X22072619Y43270181D01*
X22072619Y43270181D02*
X21929762Y43317800D01*
X21929762Y43317800D02*
X21834524Y43413039D01*
X21834524Y43413039D02*
X21786905Y43508277D01*
X21786905Y43508277D02*
X21739286Y43698753D01*
X21739286Y43698753D02*
X21739286Y43841610D01*
X21739286Y43841610D02*
X21786905Y44032086D01*
X21786905Y44032086D02*
X21834524Y44127324D01*
X21834524Y44127324D02*
X21929762Y44222562D01*
X21929762Y44222562D02*
X22072619Y44270181D01*
X22072619Y44270181D02*
X22167857Y44270181D01*
X22167857Y44270181D02*
X22310714Y44222562D01*
X22310714Y44222562D02*
X22358333Y44174943D01*
X22929762Y43841610D02*
X22834524Y43889229D01*
X22834524Y43889229D02*
X22786905Y43936848D01*
X22786905Y43936848D02*
X22739286Y44032086D01*
X22739286Y44032086D02*
X22739286Y44079705D01*
X22739286Y44079705D02*
X22786905Y44174943D01*
X22786905Y44174943D02*
X22834524Y44222562D01*
X22834524Y44222562D02*
X22929762Y44270181D01*
X22929762Y44270181D02*
X23120238Y44270181D01*
X23120238Y44270181D02*
X23215476Y44222562D01*
X23215476Y44222562D02*
X23263095Y44174943D01*
X23263095Y44174943D02*
X23310714Y44079705D01*
X23310714Y44079705D02*
X23310714Y44032086D01*
X23310714Y44032086D02*
X23263095Y43936848D01*
X23263095Y43936848D02*
X23215476Y43889229D01*
X23215476Y43889229D02*
X23120238Y43841610D01*
X23120238Y43841610D02*
X22929762Y43841610D01*
X22929762Y43841610D02*
X22834524Y43793991D01*
X22834524Y43793991D02*
X22786905Y43746372D01*
X22786905Y43746372D02*
X22739286Y43651134D01*
X22739286Y43651134D02*
X22739286Y43460658D01*
X22739286Y43460658D02*
X22786905Y43365420D01*
X22786905Y43365420D02*
X22834524Y43317800D01*
X22834524Y43317800D02*
X22929762Y43270181D01*
X22929762Y43270181D02*
X23120238Y43270181D01*
X23120238Y43270181D02*
X23215476Y43317800D01*
X23215476Y43317800D02*
X23263095Y43365420D01*
X23263095Y43365420D02*
X23310714Y43460658D01*
X23310714Y43460658D02*
X23310714Y43651134D01*
X23310714Y43651134D02*
X23263095Y43746372D01*
X23263095Y43746372D02*
X23215476Y43793991D01*
X23215476Y43793991D02*
X23120238Y43841610D01*
D12*
X40913333Y70542581D02*
X40437143Y70542581D01*
X40437143Y70542581D02*
X40437143Y71542581D01*
X41675238Y71542581D02*
X41484762Y71542581D01*
X41484762Y71542581D02*
X41389524Y71494962D01*
X41389524Y71494962D02*
X41341905Y71447343D01*
X41341905Y71447343D02*
X41246667Y71304486D01*
X41246667Y71304486D02*
X41199048Y71114010D01*
X41199048Y71114010D02*
X41199048Y70733058D01*
X41199048Y70733058D02*
X41246667Y70637820D01*
X41246667Y70637820D02*
X41294286Y70590200D01*
X41294286Y70590200D02*
X41389524Y70542581D01*
X41389524Y70542581D02*
X41580000Y70542581D01*
X41580000Y70542581D02*
X41675238Y70590200D01*
X41675238Y70590200D02*
X41722857Y70637820D01*
X41722857Y70637820D02*
X41770476Y70733058D01*
X41770476Y70733058D02*
X41770476Y70971153D01*
X41770476Y70971153D02*
X41722857Y71066391D01*
X41722857Y71066391D02*
X41675238Y71114010D01*
X41675238Y71114010D02*
X41580000Y71161629D01*
X41580000Y71161629D02*
X41389524Y71161629D01*
X41389524Y71161629D02*
X41294286Y71114010D01*
X41294286Y71114010D02*
X41246667Y71066391D01*
X41246667Y71066391D02*
X41199048Y70971153D01*
X27183333Y70592581D02*
X26707143Y70592581D01*
X26707143Y70592581D02*
X26707143Y71592581D01*
X28040476Y70592581D02*
X27469048Y70592581D01*
X27754762Y70592581D02*
X27754762Y71592581D01*
X27754762Y71592581D02*
X27659524Y71449724D01*
X27659524Y71449724D02*
X27564286Y71354486D01*
X27564286Y71354486D02*
X27469048Y71306867D01*
D11*
X22133333Y53565420D02*
X22085714Y53517800D01*
X22085714Y53517800D02*
X21942857Y53470181D01*
X21942857Y53470181D02*
X21847619Y53470181D01*
X21847619Y53470181D02*
X21704762Y53517800D01*
X21704762Y53517800D02*
X21609524Y53613039D01*
X21609524Y53613039D02*
X21561905Y53708277D01*
X21561905Y53708277D02*
X21514286Y53898753D01*
X21514286Y53898753D02*
X21514286Y54041610D01*
X21514286Y54041610D02*
X21561905Y54232086D01*
X21561905Y54232086D02*
X21609524Y54327324D01*
X21609524Y54327324D02*
X21704762Y54422562D01*
X21704762Y54422562D02*
X21847619Y54470181D01*
X21847619Y54470181D02*
X21942857Y54470181D01*
X21942857Y54470181D02*
X22085714Y54422562D01*
X22085714Y54422562D02*
X22133333Y54374943D01*
X22466667Y54470181D02*
X23133333Y54470181D01*
X23133333Y54470181D02*
X22704762Y53470181D01*
X44232142Y33290420D02*
X44184523Y33242800D01*
X44184523Y33242800D02*
X44041666Y33195181D01*
X44041666Y33195181D02*
X43946428Y33195181D01*
X43946428Y33195181D02*
X43803571Y33242800D01*
X43803571Y33242800D02*
X43708333Y33338039D01*
X43708333Y33338039D02*
X43660714Y33433277D01*
X43660714Y33433277D02*
X43613095Y33623753D01*
X43613095Y33623753D02*
X43613095Y33766610D01*
X43613095Y33766610D02*
X43660714Y33957086D01*
X43660714Y33957086D02*
X43708333Y34052324D01*
X43708333Y34052324D02*
X43803571Y34147562D01*
X43803571Y34147562D02*
X43946428Y34195181D01*
X43946428Y34195181D02*
X44041666Y34195181D01*
X44041666Y34195181D02*
X44184523Y34147562D01*
X44184523Y34147562D02*
X44232142Y34099943D01*
X45184523Y33195181D02*
X44613095Y33195181D01*
X44898809Y33195181D02*
X44898809Y34195181D01*
X44898809Y34195181D02*
X44803571Y34052324D01*
X44803571Y34052324D02*
X44708333Y33957086D01*
X44708333Y33957086D02*
X44613095Y33909467D01*
X45660714Y33195181D02*
X45851190Y33195181D01*
X45851190Y33195181D02*
X45946428Y33242800D01*
X45946428Y33242800D02*
X45994047Y33290420D01*
X45994047Y33290420D02*
X46089285Y33433277D01*
X46089285Y33433277D02*
X46136904Y33623753D01*
X46136904Y33623753D02*
X46136904Y34004705D01*
X46136904Y34004705D02*
X46089285Y34099943D01*
X46089285Y34099943D02*
X46041666Y34147562D01*
X46041666Y34147562D02*
X45946428Y34195181D01*
X45946428Y34195181D02*
X45755952Y34195181D01*
X45755952Y34195181D02*
X45660714Y34147562D01*
X45660714Y34147562D02*
X45613095Y34099943D01*
X45613095Y34099943D02*
X45565476Y34004705D01*
X45565476Y34004705D02*
X45565476Y33766610D01*
X45565476Y33766610D02*
X45613095Y33671372D01*
X45613095Y33671372D02*
X45660714Y33623753D01*
X45660714Y33623753D02*
X45755952Y33576134D01*
X45755952Y33576134D02*
X45946428Y33576134D01*
X45946428Y33576134D02*
X46041666Y33623753D01*
X46041666Y33623753D02*
X46089285Y33671372D01*
X46089285Y33671372D02*
X46136904Y33766610D01*
X16638095Y38795181D02*
X16638095Y37985658D01*
X16638095Y37985658D02*
X16685714Y37890420D01*
X16685714Y37890420D02*
X16733333Y37842800D01*
X16733333Y37842800D02*
X16828571Y37795181D01*
X16828571Y37795181D02*
X17019047Y37795181D01*
X17019047Y37795181D02*
X17114285Y37842800D01*
X17114285Y37842800D02*
X17161904Y37890420D01*
X17161904Y37890420D02*
X17209523Y37985658D01*
X17209523Y37985658D02*
X17209523Y38795181D01*
X18161904Y38795181D02*
X17685714Y38795181D01*
X17685714Y38795181D02*
X17638095Y38318991D01*
X17638095Y38318991D02*
X17685714Y38366610D01*
X17685714Y38366610D02*
X17780952Y38414229D01*
X17780952Y38414229D02*
X18019047Y38414229D01*
X18019047Y38414229D02*
X18114285Y38366610D01*
X18114285Y38366610D02*
X18161904Y38318991D01*
X18161904Y38318991D02*
X18209523Y38223753D01*
X18209523Y38223753D02*
X18209523Y37985658D01*
X18209523Y37985658D02*
X18161904Y37890420D01*
X18161904Y37890420D02*
X18114285Y37842800D01*
X18114285Y37842800D02*
X18019047Y37795181D01*
X18019047Y37795181D02*
X17780952Y37795181D01*
X17780952Y37795181D02*
X17685714Y37842800D01*
X17685714Y37842800D02*
X17638095Y37890420D01*
X8833333Y52690420D02*
X8785714Y52642800D01*
X8785714Y52642800D02*
X8642857Y52595181D01*
X8642857Y52595181D02*
X8547619Y52595181D01*
X8547619Y52595181D02*
X8404762Y52642800D01*
X8404762Y52642800D02*
X8309524Y52738039D01*
X8309524Y52738039D02*
X8261905Y52833277D01*
X8261905Y52833277D02*
X8214286Y53023753D01*
X8214286Y53023753D02*
X8214286Y53166610D01*
X8214286Y53166610D02*
X8261905Y53357086D01*
X8261905Y53357086D02*
X8309524Y53452324D01*
X8309524Y53452324D02*
X8404762Y53547562D01*
X8404762Y53547562D02*
X8547619Y53595181D01*
X8547619Y53595181D02*
X8642857Y53595181D01*
X8642857Y53595181D02*
X8785714Y53547562D01*
X8785714Y53547562D02*
X8833333Y53499943D01*
X9214286Y53499943D02*
X9261905Y53547562D01*
X9261905Y53547562D02*
X9357143Y53595181D01*
X9357143Y53595181D02*
X9595238Y53595181D01*
X9595238Y53595181D02*
X9690476Y53547562D01*
X9690476Y53547562D02*
X9738095Y53499943D01*
X9738095Y53499943D02*
X9785714Y53404705D01*
X9785714Y53404705D02*
X9785714Y53309467D01*
X9785714Y53309467D02*
X9738095Y53166610D01*
X9738095Y53166610D02*
X9166667Y52595181D01*
X9166667Y52595181D02*
X9785714Y52595181D01*
X59957142Y40490420D02*
X59909523Y40442800D01*
X59909523Y40442800D02*
X59766666Y40395181D01*
X59766666Y40395181D02*
X59671428Y40395181D01*
X59671428Y40395181D02*
X59528571Y40442800D01*
X59528571Y40442800D02*
X59433333Y40538039D01*
X59433333Y40538039D02*
X59385714Y40633277D01*
X59385714Y40633277D02*
X59338095Y40823753D01*
X59338095Y40823753D02*
X59338095Y40966610D01*
X59338095Y40966610D02*
X59385714Y41157086D01*
X59385714Y41157086D02*
X59433333Y41252324D01*
X59433333Y41252324D02*
X59528571Y41347562D01*
X59528571Y41347562D02*
X59671428Y41395181D01*
X59671428Y41395181D02*
X59766666Y41395181D01*
X59766666Y41395181D02*
X59909523Y41347562D01*
X59909523Y41347562D02*
X59957142Y41299943D01*
X60338095Y41299943D02*
X60385714Y41347562D01*
X60385714Y41347562D02*
X60480952Y41395181D01*
X60480952Y41395181D02*
X60719047Y41395181D01*
X60719047Y41395181D02*
X60814285Y41347562D01*
X60814285Y41347562D02*
X60861904Y41299943D01*
X60861904Y41299943D02*
X60909523Y41204705D01*
X60909523Y41204705D02*
X60909523Y41109467D01*
X60909523Y41109467D02*
X60861904Y40966610D01*
X60861904Y40966610D02*
X60290476Y40395181D01*
X60290476Y40395181D02*
X60909523Y40395181D01*
X61814285Y41395181D02*
X61338095Y41395181D01*
X61338095Y41395181D02*
X61290476Y40918991D01*
X61290476Y40918991D02*
X61338095Y40966610D01*
X61338095Y40966610D02*
X61433333Y41014229D01*
X61433333Y41014229D02*
X61671428Y41014229D01*
X61671428Y41014229D02*
X61766666Y40966610D01*
X61766666Y40966610D02*
X61814285Y40918991D01*
X61814285Y40918991D02*
X61861904Y40823753D01*
X61861904Y40823753D02*
X61861904Y40585658D01*
X61861904Y40585658D02*
X61814285Y40490420D01*
X61814285Y40490420D02*
X61766666Y40442800D01*
X61766666Y40442800D02*
X61671428Y40395181D01*
X61671428Y40395181D02*
X61433333Y40395181D01*
X61433333Y40395181D02*
X61338095Y40442800D01*
X61338095Y40442800D02*
X61290476Y40490420D01*
X48959580Y47057143D02*
X49007200Y47009524D01*
X49007200Y47009524D02*
X49054819Y46866667D01*
X49054819Y46866667D02*
X49054819Y46771429D01*
X49054819Y46771429D02*
X49007200Y46628572D01*
X49007200Y46628572D02*
X48911961Y46533334D01*
X48911961Y46533334D02*
X48816723Y46485715D01*
X48816723Y46485715D02*
X48626247Y46438096D01*
X48626247Y46438096D02*
X48483390Y46438096D01*
X48483390Y46438096D02*
X48292914Y46485715D01*
X48292914Y46485715D02*
X48197676Y46533334D01*
X48197676Y46533334D02*
X48102438Y46628572D01*
X48102438Y46628572D02*
X48054819Y46771429D01*
X48054819Y46771429D02*
X48054819Y46866667D01*
X48054819Y46866667D02*
X48102438Y47009524D01*
X48102438Y47009524D02*
X48150057Y47057143D01*
X48150057Y47438096D02*
X48102438Y47485715D01*
X48102438Y47485715D02*
X48054819Y47580953D01*
X48054819Y47580953D02*
X48054819Y47819048D01*
X48054819Y47819048D02*
X48102438Y47914286D01*
X48102438Y47914286D02*
X48150057Y47961905D01*
X48150057Y47961905D02*
X48245295Y48009524D01*
X48245295Y48009524D02*
X48340533Y48009524D01*
X48340533Y48009524D02*
X48483390Y47961905D01*
X48483390Y47961905D02*
X49054819Y47390477D01*
X49054819Y47390477D02*
X49054819Y48009524D01*
X48483390Y48580953D02*
X48435771Y48485715D01*
X48435771Y48485715D02*
X48388152Y48438096D01*
X48388152Y48438096D02*
X48292914Y48390477D01*
X48292914Y48390477D02*
X48245295Y48390477D01*
X48245295Y48390477D02*
X48150057Y48438096D01*
X48150057Y48438096D02*
X48102438Y48485715D01*
X48102438Y48485715D02*
X48054819Y48580953D01*
X48054819Y48580953D02*
X48054819Y48771429D01*
X48054819Y48771429D02*
X48102438Y48866667D01*
X48102438Y48866667D02*
X48150057Y48914286D01*
X48150057Y48914286D02*
X48245295Y48961905D01*
X48245295Y48961905D02*
X48292914Y48961905D01*
X48292914Y48961905D02*
X48388152Y48914286D01*
X48388152Y48914286D02*
X48435771Y48866667D01*
X48435771Y48866667D02*
X48483390Y48771429D01*
X48483390Y48771429D02*
X48483390Y48580953D01*
X48483390Y48580953D02*
X48531009Y48485715D01*
X48531009Y48485715D02*
X48578628Y48438096D01*
X48578628Y48438096D02*
X48673866Y48390477D01*
X48673866Y48390477D02*
X48864342Y48390477D01*
X48864342Y48390477D02*
X48959580Y48438096D01*
X48959580Y48438096D02*
X49007200Y48485715D01*
X49007200Y48485715D02*
X49054819Y48580953D01*
X49054819Y48580953D02*
X49054819Y48771429D01*
X49054819Y48771429D02*
X49007200Y48866667D01*
X49007200Y48866667D02*
X48959580Y48914286D01*
X48959580Y48914286D02*
X48864342Y48961905D01*
X48864342Y48961905D02*
X48673866Y48961905D01*
X48673866Y48961905D02*
X48578628Y48914286D01*
X48578628Y48914286D02*
X48531009Y48866667D01*
X48531009Y48866667D02*
X48483390Y48771429D01*
X59982142Y47790420D02*
X59934523Y47742800D01*
X59934523Y47742800D02*
X59791666Y47695181D01*
X59791666Y47695181D02*
X59696428Y47695181D01*
X59696428Y47695181D02*
X59553571Y47742800D01*
X59553571Y47742800D02*
X59458333Y47838039D01*
X59458333Y47838039D02*
X59410714Y47933277D01*
X59410714Y47933277D02*
X59363095Y48123753D01*
X59363095Y48123753D02*
X59363095Y48266610D01*
X59363095Y48266610D02*
X59410714Y48457086D01*
X59410714Y48457086D02*
X59458333Y48552324D01*
X59458333Y48552324D02*
X59553571Y48647562D01*
X59553571Y48647562D02*
X59696428Y48695181D01*
X59696428Y48695181D02*
X59791666Y48695181D01*
X59791666Y48695181D02*
X59934523Y48647562D01*
X59934523Y48647562D02*
X59982142Y48599943D01*
X60363095Y48599943D02*
X60410714Y48647562D01*
X60410714Y48647562D02*
X60505952Y48695181D01*
X60505952Y48695181D02*
X60744047Y48695181D01*
X60744047Y48695181D02*
X60839285Y48647562D01*
X60839285Y48647562D02*
X60886904Y48599943D01*
X60886904Y48599943D02*
X60934523Y48504705D01*
X60934523Y48504705D02*
X60934523Y48409467D01*
X60934523Y48409467D02*
X60886904Y48266610D01*
X60886904Y48266610D02*
X60315476Y47695181D01*
X60315476Y47695181D02*
X60934523Y47695181D01*
X61267857Y48695181D02*
X61886904Y48695181D01*
X61886904Y48695181D02*
X61553571Y48314229D01*
X61553571Y48314229D02*
X61696428Y48314229D01*
X61696428Y48314229D02*
X61791666Y48266610D01*
X61791666Y48266610D02*
X61839285Y48218991D01*
X61839285Y48218991D02*
X61886904Y48123753D01*
X61886904Y48123753D02*
X61886904Y47885658D01*
X61886904Y47885658D02*
X61839285Y47790420D01*
X61839285Y47790420D02*
X61791666Y47742800D01*
X61791666Y47742800D02*
X61696428Y47695181D01*
X61696428Y47695181D02*
X61410714Y47695181D01*
X61410714Y47695181D02*
X61315476Y47742800D01*
X61315476Y47742800D02*
X61267857Y47790420D01*
X49861905Y37295181D02*
X49861905Y36485658D01*
X49861905Y36485658D02*
X49909524Y36390420D01*
X49909524Y36390420D02*
X49957143Y36342800D01*
X49957143Y36342800D02*
X50052381Y36295181D01*
X50052381Y36295181D02*
X50242857Y36295181D01*
X50242857Y36295181D02*
X50338095Y36342800D01*
X50338095Y36342800D02*
X50385714Y36390420D01*
X50385714Y36390420D02*
X50433333Y36485658D01*
X50433333Y36485658D02*
X50433333Y37295181D01*
X51433333Y36295181D02*
X50861905Y36295181D01*
X51147619Y36295181D02*
X51147619Y37295181D01*
X51147619Y37295181D02*
X51052381Y37152324D01*
X51052381Y37152324D02*
X50957143Y37057086D01*
X50957143Y37057086D02*
X50861905Y37009467D01*
X52052381Y37295181D02*
X52147619Y37295181D01*
X52147619Y37295181D02*
X52242857Y37247562D01*
X52242857Y37247562D02*
X52290476Y37199943D01*
X52290476Y37199943D02*
X52338095Y37104705D01*
X52338095Y37104705D02*
X52385714Y36914229D01*
X52385714Y36914229D02*
X52385714Y36676134D01*
X52385714Y36676134D02*
X52338095Y36485658D01*
X52338095Y36485658D02*
X52290476Y36390420D01*
X52290476Y36390420D02*
X52242857Y36342800D01*
X52242857Y36342800D02*
X52147619Y36295181D01*
X52147619Y36295181D02*
X52052381Y36295181D01*
X52052381Y36295181D02*
X51957143Y36342800D01*
X51957143Y36342800D02*
X51909524Y36390420D01*
X51909524Y36390420D02*
X51861905Y36485658D01*
X51861905Y36485658D02*
X51814286Y36676134D01*
X51814286Y36676134D02*
X51814286Y36914229D01*
X51814286Y36914229D02*
X51861905Y37104705D01*
X51861905Y37104705D02*
X51909524Y37199943D01*
X51909524Y37199943D02*
X51957143Y37247562D01*
X51957143Y37247562D02*
X52052381Y37295181D01*
X48909580Y39357143D02*
X48957200Y39309524D01*
X48957200Y39309524D02*
X49004819Y39166667D01*
X49004819Y39166667D02*
X49004819Y39071429D01*
X49004819Y39071429D02*
X48957200Y38928572D01*
X48957200Y38928572D02*
X48861961Y38833334D01*
X48861961Y38833334D02*
X48766723Y38785715D01*
X48766723Y38785715D02*
X48576247Y38738096D01*
X48576247Y38738096D02*
X48433390Y38738096D01*
X48433390Y38738096D02*
X48242914Y38785715D01*
X48242914Y38785715D02*
X48147676Y38833334D01*
X48147676Y38833334D02*
X48052438Y38928572D01*
X48052438Y38928572D02*
X48004819Y39071429D01*
X48004819Y39071429D02*
X48004819Y39166667D01*
X48004819Y39166667D02*
X48052438Y39309524D01*
X48052438Y39309524D02*
X48100057Y39357143D01*
X48100057Y39738096D02*
X48052438Y39785715D01*
X48052438Y39785715D02*
X48004819Y39880953D01*
X48004819Y39880953D02*
X48004819Y40119048D01*
X48004819Y40119048D02*
X48052438Y40214286D01*
X48052438Y40214286D02*
X48100057Y40261905D01*
X48100057Y40261905D02*
X48195295Y40309524D01*
X48195295Y40309524D02*
X48290533Y40309524D01*
X48290533Y40309524D02*
X48433390Y40261905D01*
X48433390Y40261905D02*
X49004819Y39690477D01*
X49004819Y39690477D02*
X49004819Y40309524D01*
X49004819Y40785715D02*
X49004819Y40976191D01*
X49004819Y40976191D02*
X48957200Y41071429D01*
X48957200Y41071429D02*
X48909580Y41119048D01*
X48909580Y41119048D02*
X48766723Y41214286D01*
X48766723Y41214286D02*
X48576247Y41261905D01*
X48576247Y41261905D02*
X48195295Y41261905D01*
X48195295Y41261905D02*
X48100057Y41214286D01*
X48100057Y41214286D02*
X48052438Y41166667D01*
X48052438Y41166667D02*
X48004819Y41071429D01*
X48004819Y41071429D02*
X48004819Y40880953D01*
X48004819Y40880953D02*
X48052438Y40785715D01*
X48052438Y40785715D02*
X48100057Y40738096D01*
X48100057Y40738096D02*
X48195295Y40690477D01*
X48195295Y40690477D02*
X48433390Y40690477D01*
X48433390Y40690477D02*
X48528628Y40738096D01*
X48528628Y40738096D02*
X48576247Y40785715D01*
X48576247Y40785715D02*
X48623866Y40880953D01*
X48623866Y40880953D02*
X48623866Y41071429D01*
X48623866Y41071429D02*
X48576247Y41166667D01*
X48576247Y41166667D02*
X48528628Y41214286D01*
X48528628Y41214286D02*
X48433390Y41261905D01*
X16588095Y55445181D02*
X16588095Y54635658D01*
X16588095Y54635658D02*
X16635714Y54540420D01*
X16635714Y54540420D02*
X16683333Y54492800D01*
X16683333Y54492800D02*
X16778571Y54445181D01*
X16778571Y54445181D02*
X16969047Y54445181D01*
X16969047Y54445181D02*
X17064285Y54492800D01*
X17064285Y54492800D02*
X17111904Y54540420D01*
X17111904Y54540420D02*
X17159523Y54635658D01*
X17159523Y54635658D02*
X17159523Y55445181D01*
X18159523Y54445181D02*
X17588095Y54445181D01*
X17873809Y54445181D02*
X17873809Y55445181D01*
X17873809Y55445181D02*
X17778571Y55302324D01*
X17778571Y55302324D02*
X17683333Y55207086D01*
X17683333Y55207086D02*
X17588095Y55159467D01*
X8833333Y49190420D02*
X8785714Y49142800D01*
X8785714Y49142800D02*
X8642857Y49095181D01*
X8642857Y49095181D02*
X8547619Y49095181D01*
X8547619Y49095181D02*
X8404762Y49142800D01*
X8404762Y49142800D02*
X8309524Y49238039D01*
X8309524Y49238039D02*
X8261905Y49333277D01*
X8261905Y49333277D02*
X8214286Y49523753D01*
X8214286Y49523753D02*
X8214286Y49666610D01*
X8214286Y49666610D02*
X8261905Y49857086D01*
X8261905Y49857086D02*
X8309524Y49952324D01*
X8309524Y49952324D02*
X8404762Y50047562D01*
X8404762Y50047562D02*
X8547619Y50095181D01*
X8547619Y50095181D02*
X8642857Y50095181D01*
X8642857Y50095181D02*
X8785714Y50047562D01*
X8785714Y50047562D02*
X8833333Y49999943D01*
X9166667Y50095181D02*
X9785714Y50095181D01*
X9785714Y50095181D02*
X9452381Y49714229D01*
X9452381Y49714229D02*
X9595238Y49714229D01*
X9595238Y49714229D02*
X9690476Y49666610D01*
X9690476Y49666610D02*
X9738095Y49618991D01*
X9738095Y49618991D02*
X9785714Y49523753D01*
X9785714Y49523753D02*
X9785714Y49285658D01*
X9785714Y49285658D02*
X9738095Y49190420D01*
X9738095Y49190420D02*
X9690476Y49142800D01*
X9690476Y49142800D02*
X9595238Y49095181D01*
X9595238Y49095181D02*
X9309524Y49095181D01*
X9309524Y49095181D02*
X9214286Y49142800D01*
X9214286Y49142800D02*
X9166667Y49190420D01*
D13*
X54762500Y54690000D02*
X56562500Y54690000D01*
X54762500Y54690000D02*
X53962500Y54690000D01*
X54762500Y57810000D02*
X55562500Y57810000D01*
X54762500Y57810000D02*
X53962500Y57810000D01*
X34930000Y54511252D02*
X34930000Y53088748D01*
X33110000Y54511252D02*
X33110000Y53088748D01*
X54812500Y49890000D02*
X56612500Y49890000D01*
X54812500Y49890000D02*
X54012500Y49890000D01*
X54812500Y53010000D02*
X55612500Y53010000D01*
X54812500Y53010000D02*
X54012500Y53010000D01*
X14137500Y43710000D02*
X12337500Y43710000D01*
X14137500Y43710000D02*
X14937500Y43710000D01*
X14137500Y40590000D02*
X13337500Y40590000D01*
X14137500Y40590000D02*
X14937500Y40590000D01*
X35110000Y64711252D02*
X35110000Y63288748D01*
X33290000Y64711252D02*
X33290000Y63288748D01*
X35010000Y34336252D02*
X35010000Y32913748D01*
X33190000Y34336252D02*
X33190000Y32913748D01*
D12*
X3600000Y7500000D02*
X3600000Y8000000D01*
X3600000Y7500000D02*
X3100000Y7500000D01*
X3600000Y14100000D02*
X3600000Y13600000D01*
X3600000Y14100000D02*
X3100000Y14100000D01*
X-1540000Y7520000D02*
X-1040000Y7520000D01*
X-1540000Y7520000D02*
X-1540000Y8020000D01*
X-1550000Y14090000D02*
X-1050000Y14090000D01*
X-1550000Y14090000D02*
X-1550000Y13590000D01*
D13*
X48710000Y24206252D02*
X48710000Y22783748D01*
X46890000Y24206252D02*
X46890000Y22783748D01*
X2461252Y36290000D02*
X1038748Y36290000D01*
X2461252Y38110000D02*
X1038748Y38110000D01*
X59913748Y43410000D02*
X61336252Y43410000D01*
X59913748Y41590000D02*
X61336252Y41590000D01*
X54812500Y45140000D02*
X56612500Y45140000D01*
X54812500Y45140000D02*
X54012500Y45140000D01*
X54812500Y48260000D02*
X55612500Y48260000D01*
X54812500Y48260000D02*
X54012500Y48260000D01*
X14137500Y48310000D02*
X12337500Y48310000D01*
X14137500Y48310000D02*
X14937500Y48310000D01*
X14137500Y45190000D02*
X13337500Y45190000D01*
X14137500Y45190000D02*
X14937500Y45190000D01*
X59913748Y50910000D02*
X61336252Y50910000D01*
X59913748Y49090000D02*
X61336252Y49090000D01*
X51360000Y53086252D02*
X51360000Y51663748D01*
X49540000Y53086252D02*
X49540000Y51663748D01*
X49110000Y64836252D02*
X49110000Y63413748D01*
X47290000Y64836252D02*
X47290000Y63413748D01*
X21010000Y24311252D02*
X21010000Y22888748D01*
X19190000Y24311252D02*
X19190000Y22888748D01*
X35010000Y24206252D02*
X35010000Y22783748D01*
X33190000Y24206252D02*
X33190000Y22783748D01*
X8313748Y55710000D02*
X9736252Y55710000D01*
X8313748Y53890000D02*
X9736252Y53890000D01*
X8288748Y41210000D02*
X9711252Y41210000D01*
X8288748Y39390000D02*
X9711252Y39390000D01*
D12*
X-1965000Y46435000D02*
X-1965000Y48885000D01*
X60000Y44335000D02*
X2610000Y44335000D01*
X210000Y51010000D02*
X2535000Y51010000D01*
X4760000Y48810000D02*
X4760000Y46635000D01*
D13*
X21210000Y34436252D02*
X21210000Y33013748D01*
X19390000Y34436252D02*
X19390000Y33013748D01*
X59888748Y54710000D02*
X61311252Y54710000D01*
X59888748Y52890000D02*
X61311252Y52890000D01*
X8288748Y44910000D02*
X9711252Y44910000D01*
X8288748Y43090000D02*
X9711252Y43090000D01*
X21210000Y64836252D02*
X21210000Y63413748D01*
X19390000Y64836252D02*
X19390000Y63413748D01*
X35010000Y44386252D02*
X35010000Y42963748D01*
X33190000Y44386252D02*
X33190000Y42963748D01*
X48560000Y54611252D02*
X48560000Y53188748D01*
X46740000Y54611252D02*
X46740000Y53188748D01*
X-3171000Y35337000D02*
X5580000Y35340000D01*
X-3171000Y27100000D02*
X-2230000Y27100000D01*
X-2230000Y34040000D02*
X4270000Y34040000D01*
X-2230000Y27100000D02*
X-2230000Y34040000D01*
X-2230000Y23000000D02*
X-3171000Y23000000D01*
X-2230000Y23000000D02*
X-2230000Y23000000D01*
X-2230000Y16060000D02*
X-2230000Y23000000D01*
X4270000Y34040000D02*
X4270000Y16060000D01*
X4270000Y16060000D02*
X-2230000Y16060000D01*
X5580000Y35340000D02*
X5580000Y14760000D01*
X5580000Y14760000D02*
X-3171000Y14763000D01*
D12*
X65015000Y45035000D02*
X65015000Y47485000D01*
X67040000Y42935000D02*
X69590000Y42935000D01*
X67190000Y49610000D02*
X69515000Y49610000D01*
X71740000Y47410000D02*
X71740000Y45235000D01*
D13*
X54812500Y40440000D02*
X56612500Y40440000D01*
X54812500Y40440000D02*
X54012500Y40440000D01*
X54812500Y43560000D02*
X55612500Y43560000D01*
X54812500Y43560000D02*
X54012500Y43560000D01*
X10063800Y29775000D02*
X6613800Y29775000D01*
X10063800Y29775000D02*
X12013800Y29775000D01*
X10063800Y20905000D02*
X8113800Y20905000D01*
X10063800Y20905000D02*
X12013800Y20905000D01*
X14137500Y53010000D02*
X12337500Y53010000D01*
X14137500Y53010000D02*
X14937500Y53010000D01*
X14137500Y49890000D02*
X13337500Y49890000D01*
X14137500Y49890000D02*
X14937500Y49890000D01*
X52460000Y63136252D02*
X52460000Y61713748D01*
X50640000Y63136252D02*
X50640000Y61713748D01*
X50590000Y31938748D02*
X50590000Y33361252D01*
X52410000Y31938748D02*
X52410000Y33361252D01*
X48410000Y44486252D02*
X48410000Y43063748D01*
X46590000Y44486252D02*
X46590000Y43063748D01*
X21210000Y44436252D02*
X21210000Y43013748D01*
X19390000Y44436252D02*
X19390000Y43013748D01*
X21010000Y54636252D02*
X21010000Y53213748D01*
X19190000Y54636252D02*
X19190000Y53213748D01*
X48710000Y34336252D02*
X48710000Y32913748D01*
X46890000Y34336252D02*
X46890000Y32913748D01*
X14112500Y38860000D02*
X12312500Y38860000D01*
X14112500Y38860000D02*
X14912500Y38860000D01*
X14112500Y35740000D02*
X13312500Y35740000D01*
X14112500Y35740000D02*
X14912500Y35740000D01*
X8288748Y52310000D02*
X9711252Y52310000D01*
X8288748Y50490000D02*
X9711252Y50490000D01*
X59888748Y39910000D02*
X61311252Y39910000D01*
X59888748Y38090000D02*
X61311252Y38090000D01*
X49590000Y45338748D02*
X49590000Y46761252D01*
X51410000Y45338748D02*
X51410000Y46761252D01*
X59913748Y47210000D02*
X61336252Y47210000D01*
X59913748Y45390000D02*
X61336252Y45390000D01*
X54737500Y35790000D02*
X56537500Y35790000D01*
X54737500Y35790000D02*
X53937500Y35790000D01*
X54737500Y38910000D02*
X55537500Y38910000D01*
X54737500Y38910000D02*
X53937500Y38910000D01*
X49490000Y39288748D02*
X49490000Y40711252D01*
X51310000Y39288748D02*
X51310000Y40711252D01*
X14137500Y57810000D02*
X12337500Y57810000D01*
X14137500Y57810000D02*
X14937500Y57810000D01*
X14137500Y54690000D02*
X13337500Y54690000D01*
X14137500Y54690000D02*
X14937500Y54690000D01*
X8288748Y48610000D02*
X9711252Y48610000D01*
X8288748Y46790000D02*
X9711252Y46790000D01*
M02*
