M48
; DRILL file {KiCad 8.0.2} date 2024-05-05T06:41:14-0400
; FORMAT={-:-/ absolute / metric / decimal}
; #@! TF.CreationDate,2024-05-05T06:41:14-04:00
; #@! TF.GenerationSoftware,Kicad,Pcbnew,8.0.2
; #@! TF.FileFunction,Plated,1,2,PTH
FMAT,2
METRIC
; #@! TA.AperFunction,Plated,PTH,ViaDrill
T1C0.500
; #@! TA.AperFunction,Plated,PTH,ComponentDrill
T2C1.000
; #@! TA.AperFunction,Plated,PTH,ComponentDrill
T3C1.500
; #@! TA.AperFunction,Plated,PTH,ComponentDrill
T4C1.600
%
G90
G05
T1
X-2.2Y57.55
X-2.05Y64.75
X-2.0Y5.35
X-1.85Y33.1
X-1.85Y26.3
X3.22Y39.1
X3.95Y23.95
X3.95Y21.2
X5.8Y25.35
X5.95Y73.15
X6.1Y56.1
X6.2Y-1.7
X6.95Y34.35
X7.075Y16.45
X7.4Y19.25
X7.85Y38.575
X9.8Y58.4
X9.95Y24.4
X10.192Y29.158
X10.35Y32.0
X10.65Y22.15
X11.05Y37.1
X12.15Y53.84
X12.2Y33.75
X12.25Y30.35
X12.35Y49.08
X12.4Y44.4
X12.6Y39.9
X13.6Y19.95
X13.7Y58.55
X13.95Y53.95
X13.95Y35.1
X14.0Y49.3
X14.0Y44.6
X14.1Y39.85
X14.2Y22.4
X14.5Y16.8
X15.05Y29.15
X15.25Y58.5
X15.4Y32.85
X15.4Y31.3
X15.5Y34.85
X15.9Y53.65
X16.0Y44.3
X16.1Y49.05
X16.2Y39.2
X16.6Y27.25
X16.75Y45.8
X16.85Y50.3
X16.9Y55.1
X17.0Y24.65
X17.45Y23.45
X18.43Y65.51
X19.15Y18.75
X19.9Y-1.55
X20.0Y73.3
X20.1Y50.75
X20.1Y20.55
X20.3Y61.0
X20.3Y40.6
X20.3Y30.75
X20.5Y28.85
X22.05Y52.45
X22.1Y22.15
X22.3Y62.65
X22.4Y42.3
X22.4Y32.25
X31.9Y42.2
X32.05Y52.3
X32.05Y32.15
X32.05Y22.0
X32.15Y62.55
X33.6Y14.25
X34.05Y50.7
X34.1Y40.4
X34.1Y30.4
X34.1Y20.35
X34.15Y-1.75
X34.2Y73.3
X34.2Y60.8
X36.0Y52.3
X36.1Y32.15
X36.15Y22.0
X36.25Y62.5
X36.25Y42.2
X44.35Y42.3
X45.7Y51.95
X45.75Y22.0
X45.8Y32.15
X46.25Y62.65
X47.5Y40.4
X47.8Y30.5
X47.8Y20.25
X47.95Y49.5
X48.2Y60.95
X48.4Y73.2
X49.6Y-1.7
X50.45Y55.35
X50.47Y66.66
X52.2Y48.2
X52.25Y55.3
X52.3Y43.15
X52.9Y15.45
X53.025Y58.975
X53.1Y49.15
X53.45Y44.5
X53.6Y35.3
X53.65Y39.8
X54.05Y25.35
X54.75Y58.7
X54.85Y53.4
X54.85Y44.25
X54.95Y39.5
X55.0Y48.95
X55.65Y34.1
X56.4Y44.45
X56.45Y53.85
X56.5Y39.75
X56.55Y49.15
X57.65Y37.6
X57.75Y56.5
X57.75Y51.7
X57.75Y47.0
X57.75Y42.55
X61.925Y37.2
X62.3Y55.75
X63.0Y73.15
X63.15Y-2.05
X70.9Y57.0
X70.95Y64.35
X71.1Y34.5
X71.1Y16.15
X71.1Y6.7
X71.2Y25.2
T2
X-0.25Y30.13
X-0.25Y27.59
X-0.25Y25.05
X-0.25Y22.51
X-0.25Y19.97
X2.29Y30.13
X2.29Y27.59
X2.29Y25.05
X2.29Y22.51
X2.29Y19.97
T3
X1.46Y47.735
X68.44Y46.335
T4
X-1.18Y50.2
X-1.18Y45.12
X3.9Y50.2
X3.9Y45.12
X65.8Y48.8
X65.8Y43.72
X70.88Y48.8
X70.88Y43.72
M30
