G04 #@! TF.GenerationSoftware,KiCad,Pcbnew,8.0.2*
G04 #@! TF.CreationDate,2024-05-05T06:41:10-04:00*
G04 #@! TF.ProjectId,sdt_lpf,7364745f-6c70-4662-9e6b-696361645f70,rev?*
G04 #@! TF.SameCoordinates,PX62de0f0PY8af5bb0*
G04 #@! TF.FileFunction,Legend,Top*
G04 #@! TF.FilePolarity,Positive*
%FSLAX46Y46*%
G04 Gerber Fmt 4.6, Leading zero omitted, Abs format (unit mm)*
G04 Created by KiCad (PCBNEW 8.0.2) date 2024-05-05 06:41:10*
%MOMM*%
%LPD*%
G01*
G04 APERTURE LIST*
%ADD10C,0.300000*%
%ADD11C,0.200000*%
%ADD12C,0.150000*%
%ADD13C,0.120000*%
%ADD14C,0.100000*%
G04 APERTURE END LIST*
D10*
X18290225Y11349172D02*
X19147368Y11349172D01*
X18718796Y9849172D02*
X18718796Y11349172D01*
X20290225Y10849172D02*
X20290225Y9849172D01*
X19933082Y11420600D02*
X19575939Y10349172D01*
X19575939Y10349172D02*
X20504510Y10349172D01*
X21861653Y9849172D02*
X21004510Y9849172D01*
X21433081Y9849172D02*
X21433081Y11349172D01*
X21433081Y11349172D02*
X21290224Y11134886D01*
X21290224Y11134886D02*
X21147367Y10992029D01*
X21147367Y10992029D02*
X21004510Y10920600D01*
X23647366Y10634886D02*
X24147366Y10634886D01*
X24361652Y9849172D02*
X23647366Y9849172D01*
X23647366Y9849172D02*
X23647366Y11349172D01*
X23647366Y11349172D02*
X24361652Y11349172D01*
X24861652Y11349172D02*
X25861652Y9849172D01*
X25861652Y11349172D02*
X24861652Y9849172D01*
X26433080Y9849172D02*
X26433080Y11349172D01*
X26433080Y11349172D02*
X27004509Y11349172D01*
X27004509Y11349172D02*
X27147366Y11277743D01*
X27147366Y11277743D02*
X27218795Y11206315D01*
X27218795Y11206315D02*
X27290223Y11063458D01*
X27290223Y11063458D02*
X27290223Y10849172D01*
X27290223Y10849172D02*
X27218795Y10706315D01*
X27218795Y10706315D02*
X27147366Y10634886D01*
X27147366Y10634886D02*
X27004509Y10563458D01*
X27004509Y10563458D02*
X26433080Y10563458D01*
X27933080Y10634886D02*
X28433080Y10634886D01*
X28647366Y9849172D02*
X27933080Y9849172D01*
X27933080Y9849172D02*
X27933080Y11349172D01*
X27933080Y11349172D02*
X28647366Y11349172D01*
X30147366Y9849172D02*
X29647366Y10563458D01*
X29290223Y9849172D02*
X29290223Y11349172D01*
X29290223Y11349172D02*
X29861652Y11349172D01*
X29861652Y11349172D02*
X30004509Y11277743D01*
X30004509Y11277743D02*
X30075938Y11206315D01*
X30075938Y11206315D02*
X30147366Y11063458D01*
X30147366Y11063458D02*
X30147366Y10849172D01*
X30147366Y10849172D02*
X30075938Y10706315D01*
X30075938Y10706315D02*
X30004509Y10634886D01*
X30004509Y10634886D02*
X29861652Y10563458D01*
X29861652Y10563458D02*
X29290223Y10563458D01*
X30790223Y9849172D02*
X30790223Y11349172D01*
X31504509Y9849172D02*
X31504509Y11349172D01*
X31504509Y11349172D02*
X32004509Y10277743D01*
X32004509Y10277743D02*
X32504509Y11349172D01*
X32504509Y11349172D02*
X32504509Y9849172D01*
X33218795Y10634886D02*
X33718795Y10634886D01*
X33933081Y9849172D02*
X33218795Y9849172D01*
X33218795Y9849172D02*
X33218795Y11349172D01*
X33218795Y11349172D02*
X33933081Y11349172D01*
X34575938Y9849172D02*
X34575938Y11349172D01*
X34575938Y11349172D02*
X35433081Y9849172D01*
X35433081Y9849172D02*
X35433081Y11349172D01*
X35933082Y11349172D02*
X36790225Y11349172D01*
X36361653Y9849172D02*
X36361653Y11349172D01*
X37218796Y10277743D02*
X37933082Y10277743D01*
X37075939Y9849172D02*
X37575939Y11349172D01*
X37575939Y11349172D02*
X38075939Y9849172D01*
X39290224Y9849172D02*
X38575938Y9849172D01*
X38575938Y9849172D02*
X38575938Y11349172D01*
X40933081Y9849172D02*
X40933081Y11349172D01*
X40933081Y11349172D02*
X41504510Y11349172D01*
X41504510Y11349172D02*
X41647367Y11277743D01*
X41647367Y11277743D02*
X41718796Y11206315D01*
X41718796Y11206315D02*
X41790224Y11063458D01*
X41790224Y11063458D02*
X41790224Y10849172D01*
X41790224Y10849172D02*
X41718796Y10706315D01*
X41718796Y10706315D02*
X41647367Y10634886D01*
X41647367Y10634886D02*
X41504510Y10563458D01*
X41504510Y10563458D02*
X40933081Y10563458D01*
X43147367Y9849172D02*
X42433081Y9849172D01*
X42433081Y9849172D02*
X42433081Y11349172D01*
X43575939Y10277743D02*
X44290225Y10277743D01*
X43433082Y9849172D02*
X43933082Y11349172D01*
X43933082Y11349172D02*
X44433082Y9849172D01*
X44718796Y11349172D02*
X45575939Y11349172D01*
X45147367Y9849172D02*
X45147367Y11349172D01*
X46575938Y10634886D02*
X46075938Y10634886D01*
X46075938Y9849172D02*
X46075938Y11349172D01*
X46075938Y11349172D02*
X46790224Y11349172D01*
X47647367Y11349172D02*
X47933081Y11349172D01*
X47933081Y11349172D02*
X48075938Y11277743D01*
X48075938Y11277743D02*
X48218795Y11134886D01*
X48218795Y11134886D02*
X48290224Y10849172D01*
X48290224Y10849172D02*
X48290224Y10349172D01*
X48290224Y10349172D02*
X48218795Y10063458D01*
X48218795Y10063458D02*
X48075938Y9920600D01*
X48075938Y9920600D02*
X47933081Y9849172D01*
X47933081Y9849172D02*
X47647367Y9849172D01*
X47647367Y9849172D02*
X47504510Y9920600D01*
X47504510Y9920600D02*
X47361652Y10063458D01*
X47361652Y10063458D02*
X47290224Y10349172D01*
X47290224Y10349172D02*
X47290224Y10849172D01*
X47290224Y10849172D02*
X47361652Y11134886D01*
X47361652Y11134886D02*
X47504510Y11277743D01*
X47504510Y11277743D02*
X47647367Y11349172D01*
X49790224Y9849172D02*
X49290224Y10563458D01*
X48933081Y9849172D02*
X48933081Y11349172D01*
X48933081Y11349172D02*
X49504510Y11349172D01*
X49504510Y11349172D02*
X49647367Y11277743D01*
X49647367Y11277743D02*
X49718796Y11206315D01*
X49718796Y11206315D02*
X49790224Y11063458D01*
X49790224Y11063458D02*
X49790224Y10849172D01*
X49790224Y10849172D02*
X49718796Y10706315D01*
X49718796Y10706315D02*
X49647367Y10634886D01*
X49647367Y10634886D02*
X49504510Y10563458D01*
X49504510Y10563458D02*
X48933081Y10563458D01*
X50433081Y9849172D02*
X50433081Y11349172D01*
X50433081Y11349172D02*
X50933081Y10277743D01*
X50933081Y10277743D02*
X51433081Y11349172D01*
X51433081Y11349172D02*
X51433081Y9849172D01*
D11*
X19217292Y50651115D02*
X19288720Y50722543D01*
X19288720Y50722543D02*
X19431578Y50793972D01*
X19431578Y50793972D02*
X19788720Y50793972D01*
X19788720Y50793972D02*
X19931578Y50722543D01*
X19931578Y50722543D02*
X20003006Y50651115D01*
X20003006Y50651115D02*
X20074435Y50508258D01*
X20074435Y50508258D02*
X20074435Y50365400D01*
X20074435Y50365400D02*
X20003006Y50151115D01*
X20003006Y50151115D02*
X19145863Y49293972D01*
X19145863Y49293972D02*
X20074435Y49293972D01*
X21003006Y50793972D02*
X21145863Y50793972D01*
X21145863Y50793972D02*
X21288720Y50722543D01*
X21288720Y50722543D02*
X21360149Y50651115D01*
X21360149Y50651115D02*
X21431577Y50508258D01*
X21431577Y50508258D02*
X21503006Y50222543D01*
X21503006Y50222543D02*
X21503006Y49865400D01*
X21503006Y49865400D02*
X21431577Y49579686D01*
X21431577Y49579686D02*
X21360149Y49436829D01*
X21360149Y49436829D02*
X21288720Y49365400D01*
X21288720Y49365400D02*
X21145863Y49293972D01*
X21145863Y49293972D02*
X21003006Y49293972D01*
X21003006Y49293972D02*
X20860149Y49365400D01*
X20860149Y49365400D02*
X20788720Y49436829D01*
X20788720Y49436829D02*
X20717291Y49579686D01*
X20717291Y49579686D02*
X20645863Y49865400D01*
X20645863Y49865400D02*
X20645863Y50222543D01*
X20645863Y50222543D02*
X20717291Y50508258D01*
X20717291Y50508258D02*
X20788720Y50651115D01*
X20788720Y50651115D02*
X20860149Y50722543D01*
X20860149Y50722543D02*
X21003006Y50793972D01*
X22145862Y49293972D02*
X22145862Y50793972D01*
X22145862Y50793972D02*
X22645862Y49722543D01*
X22645862Y49722543D02*
X23145862Y50793972D01*
X23145862Y50793972D02*
X23145862Y49293972D01*
X19981578Y39843972D02*
X19981578Y38843972D01*
X19624435Y40415400D02*
X19267292Y39343972D01*
X19267292Y39343972D02*
X20195863Y39343972D01*
X21053006Y40343972D02*
X21195863Y40343972D01*
X21195863Y40343972D02*
X21338720Y40272543D01*
X21338720Y40272543D02*
X21410149Y40201115D01*
X21410149Y40201115D02*
X21481577Y40058258D01*
X21481577Y40058258D02*
X21553006Y39772543D01*
X21553006Y39772543D02*
X21553006Y39415400D01*
X21553006Y39415400D02*
X21481577Y39129686D01*
X21481577Y39129686D02*
X21410149Y38986829D01*
X21410149Y38986829D02*
X21338720Y38915400D01*
X21338720Y38915400D02*
X21195863Y38843972D01*
X21195863Y38843972D02*
X21053006Y38843972D01*
X21053006Y38843972D02*
X20910149Y38915400D01*
X20910149Y38915400D02*
X20838720Y38986829D01*
X20838720Y38986829D02*
X20767291Y39129686D01*
X20767291Y39129686D02*
X20695863Y39415400D01*
X20695863Y39415400D02*
X20695863Y39772543D01*
X20695863Y39772543D02*
X20767291Y40058258D01*
X20767291Y40058258D02*
X20838720Y40201115D01*
X20838720Y40201115D02*
X20910149Y40272543D01*
X20910149Y40272543D02*
X21053006Y40343972D01*
X22195862Y38843972D02*
X22195862Y40343972D01*
X22195862Y40343972D02*
X22695862Y39272543D01*
X22695862Y39272543D02*
X23195862Y40343972D01*
X23195862Y40343972D02*
X23195862Y38843972D01*
D10*
X2228796Y66414088D02*
X1514510Y66414088D01*
X1514510Y66414088D02*
X1443082Y65699802D01*
X1443082Y65699802D02*
X1514510Y65771231D01*
X1514510Y65771231D02*
X1657368Y65842659D01*
X1657368Y65842659D02*
X2014510Y65842659D01*
X2014510Y65842659D02*
X2157368Y65771231D01*
X2157368Y65771231D02*
X2228796Y65699802D01*
X2228796Y65699802D02*
X2300225Y65556945D01*
X2300225Y65556945D02*
X2300225Y65199802D01*
X2300225Y65199802D02*
X2228796Y65056945D01*
X2228796Y65056945D02*
X2157368Y64985516D01*
X2157368Y64985516D02*
X2014510Y64914088D01*
X2014510Y64914088D02*
X1657368Y64914088D01*
X1657368Y64914088D02*
X1514510Y64985516D01*
X1514510Y64985516D02*
X1443082Y65056945D01*
X4585938Y65699802D02*
X4800224Y65628374D01*
X4800224Y65628374D02*
X4871653Y65556945D01*
X4871653Y65556945D02*
X4943081Y65414088D01*
X4943081Y65414088D02*
X4943081Y65199802D01*
X4943081Y65199802D02*
X4871653Y65056945D01*
X4871653Y65056945D02*
X4800224Y64985516D01*
X4800224Y64985516D02*
X4657367Y64914088D01*
X4657367Y64914088D02*
X4085938Y64914088D01*
X4085938Y64914088D02*
X4085938Y66414088D01*
X4085938Y66414088D02*
X4585938Y66414088D01*
X4585938Y66414088D02*
X4728796Y66342659D01*
X4728796Y66342659D02*
X4800224Y66271231D01*
X4800224Y66271231D02*
X4871653Y66128374D01*
X4871653Y66128374D02*
X4871653Y65985516D01*
X4871653Y65985516D02*
X4800224Y65842659D01*
X4800224Y65842659D02*
X4728796Y65771231D01*
X4728796Y65771231D02*
X4585938Y65699802D01*
X4585938Y65699802D02*
X4085938Y65699802D01*
X5514510Y65342659D02*
X6228796Y65342659D01*
X5371653Y64914088D02*
X5871653Y66414088D01*
X5871653Y66414088D02*
X6371653Y64914088D01*
X6871652Y64914088D02*
X6871652Y66414088D01*
X6871652Y66414088D02*
X7728795Y64914088D01*
X7728795Y64914088D02*
X7728795Y66414088D01*
X8443081Y64914088D02*
X8443081Y66414088D01*
X8443081Y66414088D02*
X8800224Y66414088D01*
X8800224Y66414088D02*
X9014510Y66342659D01*
X9014510Y66342659D02*
X9157367Y66199802D01*
X9157367Y66199802D02*
X9228796Y66056945D01*
X9228796Y66056945D02*
X9300224Y65771231D01*
X9300224Y65771231D02*
X9300224Y65556945D01*
X9300224Y65556945D02*
X9228796Y65271231D01*
X9228796Y65271231D02*
X9157367Y65128374D01*
X9157367Y65128374D02*
X9014510Y64985516D01*
X9014510Y64985516D02*
X8800224Y64914088D01*
X8800224Y64914088D02*
X8443081Y64914088D01*
X11800224Y64914088D02*
X11085938Y64914088D01*
X11085938Y64914088D02*
X11085938Y66414088D01*
X12585939Y66414088D02*
X12871653Y66414088D01*
X12871653Y66414088D02*
X13014510Y66342659D01*
X13014510Y66342659D02*
X13157367Y66199802D01*
X13157367Y66199802D02*
X13228796Y65914088D01*
X13228796Y65914088D02*
X13228796Y65414088D01*
X13228796Y65414088D02*
X13157367Y65128374D01*
X13157367Y65128374D02*
X13014510Y64985516D01*
X13014510Y64985516D02*
X12871653Y64914088D01*
X12871653Y64914088D02*
X12585939Y64914088D01*
X12585939Y64914088D02*
X12443082Y64985516D01*
X12443082Y64985516D02*
X12300224Y65128374D01*
X12300224Y65128374D02*
X12228796Y65414088D01*
X12228796Y65414088D02*
X12228796Y65914088D01*
X12228796Y65914088D02*
X12300224Y66199802D01*
X12300224Y66199802D02*
X12443082Y66342659D01*
X12443082Y66342659D02*
X12585939Y66414088D01*
X13728796Y66414088D02*
X14085939Y64914088D01*
X14085939Y64914088D02*
X14371653Y65985516D01*
X14371653Y65985516D02*
X14657368Y64914088D01*
X14657368Y64914088D02*
X15014511Y66414088D01*
X1514510Y62499172D02*
X1514510Y63999172D01*
X1514510Y63999172D02*
X2085939Y63999172D01*
X2085939Y63999172D02*
X2228796Y63927743D01*
X2228796Y63927743D02*
X2300225Y63856315D01*
X2300225Y63856315D02*
X2371653Y63713458D01*
X2371653Y63713458D02*
X2371653Y63499172D01*
X2371653Y63499172D02*
X2300225Y63356315D01*
X2300225Y63356315D02*
X2228796Y63284886D01*
X2228796Y63284886D02*
X2085939Y63213458D01*
X2085939Y63213458D02*
X1514510Y63213458D01*
X2943082Y62927743D02*
X3657368Y62927743D01*
X2800225Y62499172D02*
X3300225Y63999172D01*
X3300225Y63999172D02*
X3800225Y62499172D01*
X4228796Y62570600D02*
X4443082Y62499172D01*
X4443082Y62499172D02*
X4800224Y62499172D01*
X4800224Y62499172D02*
X4943082Y62570600D01*
X4943082Y62570600D02*
X5014510Y62642029D01*
X5014510Y62642029D02*
X5085939Y62784886D01*
X5085939Y62784886D02*
X5085939Y62927743D01*
X5085939Y62927743D02*
X5014510Y63070600D01*
X5014510Y63070600D02*
X4943082Y63142029D01*
X4943082Y63142029D02*
X4800224Y63213458D01*
X4800224Y63213458D02*
X4514510Y63284886D01*
X4514510Y63284886D02*
X4371653Y63356315D01*
X4371653Y63356315D02*
X4300224Y63427743D01*
X4300224Y63427743D02*
X4228796Y63570600D01*
X4228796Y63570600D02*
X4228796Y63713458D01*
X4228796Y63713458D02*
X4300224Y63856315D01*
X4300224Y63856315D02*
X4371653Y63927743D01*
X4371653Y63927743D02*
X4514510Y63999172D01*
X4514510Y63999172D02*
X4871653Y63999172D01*
X4871653Y63999172D02*
X5085939Y63927743D01*
X5657367Y62570600D02*
X5871653Y62499172D01*
X5871653Y62499172D02*
X6228795Y62499172D01*
X6228795Y62499172D02*
X6371653Y62570600D01*
X6371653Y62570600D02*
X6443081Y62642029D01*
X6443081Y62642029D02*
X6514510Y62784886D01*
X6514510Y62784886D02*
X6514510Y62927743D01*
X6514510Y62927743D02*
X6443081Y63070600D01*
X6443081Y63070600D02*
X6371653Y63142029D01*
X6371653Y63142029D02*
X6228795Y63213458D01*
X6228795Y63213458D02*
X5943081Y63284886D01*
X5943081Y63284886D02*
X5800224Y63356315D01*
X5800224Y63356315D02*
X5728795Y63427743D01*
X5728795Y63427743D02*
X5657367Y63570600D01*
X5657367Y63570600D02*
X5657367Y63713458D01*
X5657367Y63713458D02*
X5728795Y63856315D01*
X5728795Y63856315D02*
X5800224Y63927743D01*
X5800224Y63927743D02*
X5943081Y63999172D01*
X5943081Y63999172D02*
X6300224Y63999172D01*
X6300224Y63999172D02*
X6514510Y63927743D01*
X8800223Y63284886D02*
X8300223Y63284886D01*
X8300223Y62499172D02*
X8300223Y63999172D01*
X8300223Y63999172D02*
X9014509Y63999172D01*
X9585937Y62499172D02*
X9585937Y63999172D01*
X11014509Y62499172D02*
X10300223Y62499172D01*
X10300223Y62499172D02*
X10300223Y63999172D01*
X11300224Y63999172D02*
X12157367Y63999172D01*
X11728795Y62499172D02*
X11728795Y63999172D01*
X12657366Y63284886D02*
X13157366Y63284886D01*
X13371652Y62499172D02*
X12657366Y62499172D01*
X12657366Y62499172D02*
X12657366Y63999172D01*
X12657366Y63999172D02*
X13371652Y63999172D01*
X14871652Y62499172D02*
X14371652Y63213458D01*
X14014509Y62499172D02*
X14014509Y63999172D01*
X14014509Y63999172D02*
X14585938Y63999172D01*
X14585938Y63999172D02*
X14728795Y63927743D01*
X14728795Y63927743D02*
X14800224Y63856315D01*
X14800224Y63856315D02*
X14871652Y63713458D01*
X14871652Y63713458D02*
X14871652Y63499172D01*
X14871652Y63499172D02*
X14800224Y63356315D01*
X14800224Y63356315D02*
X14728795Y63284886D01*
X14728795Y63284886D02*
X14585938Y63213458D01*
X14585938Y63213458D02*
X14014509Y63213458D01*
D11*
X19724435Y59093972D02*
X18867292Y59093972D01*
X19295863Y59093972D02*
X19295863Y60593972D01*
X19295863Y60593972D02*
X19153006Y60379686D01*
X19153006Y60379686D02*
X19010149Y60236829D01*
X19010149Y60236829D02*
X18867292Y60165400D01*
X21081577Y60593972D02*
X20367291Y60593972D01*
X20367291Y60593972D02*
X20295863Y59879686D01*
X20295863Y59879686D02*
X20367291Y59951115D01*
X20367291Y59951115D02*
X20510149Y60022543D01*
X20510149Y60022543D02*
X20867291Y60022543D01*
X20867291Y60022543D02*
X21010149Y59951115D01*
X21010149Y59951115D02*
X21081577Y59879686D01*
X21081577Y59879686D02*
X21153006Y59736829D01*
X21153006Y59736829D02*
X21153006Y59379686D01*
X21153006Y59379686D02*
X21081577Y59236829D01*
X21081577Y59236829D02*
X21010149Y59165400D01*
X21010149Y59165400D02*
X20867291Y59093972D01*
X20867291Y59093972D02*
X20510149Y59093972D01*
X20510149Y59093972D02*
X20367291Y59165400D01*
X20367291Y59165400D02*
X20295863Y59236829D01*
X21795862Y59093972D02*
X21795862Y60593972D01*
X21795862Y60593972D02*
X22295862Y59522543D01*
X22295862Y59522543D02*
X22795862Y60593972D01*
X22795862Y60593972D02*
X22795862Y59093972D01*
D10*
X59173558Y28660362D02*
X59173558Y30660362D01*
X60316415Y28660362D02*
X59459272Y29803220D01*
X60316415Y30660362D02*
X59173558Y29517505D01*
X61840225Y29707981D02*
X61173558Y29707981D01*
X61173558Y28660362D02*
X61173558Y30660362D01*
X61173558Y30660362D02*
X62125939Y30660362D01*
X63840225Y30660362D02*
X62887844Y30660362D01*
X62887844Y30660362D02*
X62792606Y29707981D01*
X62792606Y29707981D02*
X62887844Y29803220D01*
X62887844Y29803220D02*
X63078320Y29898458D01*
X63078320Y29898458D02*
X63554511Y29898458D01*
X63554511Y29898458D02*
X63744987Y29803220D01*
X63744987Y29803220D02*
X63840225Y29707981D01*
X63840225Y29707981D02*
X63935463Y29517505D01*
X63935463Y29517505D02*
X63935463Y29041315D01*
X63935463Y29041315D02*
X63840225Y28850839D01*
X63840225Y28850839D02*
X63744987Y28755600D01*
X63744987Y28755600D02*
X63554511Y28660362D01*
X63554511Y28660362D02*
X63078320Y28660362D01*
X63078320Y28660362D02*
X62887844Y28755600D01*
X62887844Y28755600D02*
X62792606Y28850839D01*
X64792606Y28660362D02*
X64792606Y30660362D01*
X64792606Y30660362D02*
X65935463Y28660362D01*
X65935463Y28660362D02*
X65935463Y30660362D01*
D11*
X18874435Y69393972D02*
X18017292Y69393972D01*
X18445863Y69393972D02*
X18445863Y70893972D01*
X18445863Y70893972D02*
X18303006Y70679686D01*
X18303006Y70679686D02*
X18160149Y70536829D01*
X18160149Y70536829D02*
X18017292Y70465400D01*
X19803006Y70893972D02*
X19945863Y70893972D01*
X19945863Y70893972D02*
X20088720Y70822543D01*
X20088720Y70822543D02*
X20160149Y70751115D01*
X20160149Y70751115D02*
X20231577Y70608258D01*
X20231577Y70608258D02*
X20303006Y70322543D01*
X20303006Y70322543D02*
X20303006Y69965400D01*
X20303006Y69965400D02*
X20231577Y69679686D01*
X20231577Y69679686D02*
X20160149Y69536829D01*
X20160149Y69536829D02*
X20088720Y69465400D01*
X20088720Y69465400D02*
X19945863Y69393972D01*
X19945863Y69393972D02*
X19803006Y69393972D01*
X19803006Y69393972D02*
X19660149Y69465400D01*
X19660149Y69465400D02*
X19588720Y69536829D01*
X19588720Y69536829D02*
X19517291Y69679686D01*
X19517291Y69679686D02*
X19445863Y69965400D01*
X19445863Y69965400D02*
X19445863Y70322543D01*
X19445863Y70322543D02*
X19517291Y70608258D01*
X19517291Y70608258D02*
X19588720Y70751115D01*
X19588720Y70751115D02*
X19660149Y70822543D01*
X19660149Y70822543D02*
X19803006Y70893972D01*
X20945862Y69393972D02*
X20945862Y70893972D01*
X20945862Y70893972D02*
X21445862Y69822543D01*
X21445862Y69822543D02*
X21945862Y70893972D01*
X21945862Y70893972D02*
X21945862Y69393972D01*
D10*
X58237844Y66210362D02*
X58904510Y64210362D01*
X58904510Y64210362D02*
X59571177Y66210362D01*
X61285463Y64210362D02*
X60142606Y64210362D01*
X60714034Y64210362D02*
X60714034Y66210362D01*
X60714034Y66210362D02*
X60523558Y65924648D01*
X60523558Y65924648D02*
X60333082Y65734172D01*
X60333082Y65734172D02*
X60142606Y65638934D01*
X62142606Y64400839D02*
X62237844Y64305600D01*
X62237844Y64305600D02*
X62142606Y64210362D01*
X62142606Y64210362D02*
X62047368Y64305600D01*
X62047368Y64305600D02*
X62142606Y64400839D01*
X62142606Y64400839D02*
X62142606Y64210362D01*
X63475939Y66210362D02*
X63666416Y66210362D01*
X63666416Y66210362D02*
X63856892Y66115124D01*
X63856892Y66115124D02*
X63952130Y66019886D01*
X63952130Y66019886D02*
X64047368Y65829410D01*
X64047368Y65829410D02*
X64142606Y65448458D01*
X64142606Y65448458D02*
X64142606Y64972267D01*
X64142606Y64972267D02*
X64047368Y64591315D01*
X64047368Y64591315D02*
X63952130Y64400839D01*
X63952130Y64400839D02*
X63856892Y64305600D01*
X63856892Y64305600D02*
X63666416Y64210362D01*
X63666416Y64210362D02*
X63475939Y64210362D01*
X63475939Y64210362D02*
X63285463Y64305600D01*
X63285463Y64305600D02*
X63190225Y64400839D01*
X63190225Y64400839D02*
X63094987Y64591315D01*
X63094987Y64591315D02*
X62999749Y64972267D01*
X62999749Y64972267D02*
X62999749Y65448458D01*
X62999749Y65448458D02*
X63094987Y65829410D01*
X63094987Y65829410D02*
X63190225Y66019886D01*
X63190225Y66019886D02*
X63285463Y66115124D01*
X63285463Y66115124D02*
X63475939Y66210362D01*
D11*
X19453006Y30051115D02*
X19310149Y30122543D01*
X19310149Y30122543D02*
X19238720Y30193972D01*
X19238720Y30193972D02*
X19167292Y30336829D01*
X19167292Y30336829D02*
X19167292Y30408258D01*
X19167292Y30408258D02*
X19238720Y30551115D01*
X19238720Y30551115D02*
X19310149Y30622543D01*
X19310149Y30622543D02*
X19453006Y30693972D01*
X19453006Y30693972D02*
X19738720Y30693972D01*
X19738720Y30693972D02*
X19881578Y30622543D01*
X19881578Y30622543D02*
X19953006Y30551115D01*
X19953006Y30551115D02*
X20024435Y30408258D01*
X20024435Y30408258D02*
X20024435Y30336829D01*
X20024435Y30336829D02*
X19953006Y30193972D01*
X19953006Y30193972D02*
X19881578Y30122543D01*
X19881578Y30122543D02*
X19738720Y30051115D01*
X19738720Y30051115D02*
X19453006Y30051115D01*
X19453006Y30051115D02*
X19310149Y29979686D01*
X19310149Y29979686D02*
X19238720Y29908258D01*
X19238720Y29908258D02*
X19167292Y29765400D01*
X19167292Y29765400D02*
X19167292Y29479686D01*
X19167292Y29479686D02*
X19238720Y29336829D01*
X19238720Y29336829D02*
X19310149Y29265400D01*
X19310149Y29265400D02*
X19453006Y29193972D01*
X19453006Y29193972D02*
X19738720Y29193972D01*
X19738720Y29193972D02*
X19881578Y29265400D01*
X19881578Y29265400D02*
X19953006Y29336829D01*
X19953006Y29336829D02*
X20024435Y29479686D01*
X20024435Y29479686D02*
X20024435Y29765400D01*
X20024435Y29765400D02*
X19953006Y29908258D01*
X19953006Y29908258D02*
X19881578Y29979686D01*
X19881578Y29979686D02*
X19738720Y30051115D01*
X20953006Y30693972D02*
X21095863Y30693972D01*
X21095863Y30693972D02*
X21238720Y30622543D01*
X21238720Y30622543D02*
X21310149Y30551115D01*
X21310149Y30551115D02*
X21381577Y30408258D01*
X21381577Y30408258D02*
X21453006Y30122543D01*
X21453006Y30122543D02*
X21453006Y29765400D01*
X21453006Y29765400D02*
X21381577Y29479686D01*
X21381577Y29479686D02*
X21310149Y29336829D01*
X21310149Y29336829D02*
X21238720Y29265400D01*
X21238720Y29265400D02*
X21095863Y29193972D01*
X21095863Y29193972D02*
X20953006Y29193972D01*
X20953006Y29193972D02*
X20810149Y29265400D01*
X20810149Y29265400D02*
X20738720Y29336829D01*
X20738720Y29336829D02*
X20667291Y29479686D01*
X20667291Y29479686D02*
X20595863Y29765400D01*
X20595863Y29765400D02*
X20595863Y30122543D01*
X20595863Y30122543D02*
X20667291Y30408258D01*
X20667291Y30408258D02*
X20738720Y30551115D01*
X20738720Y30551115D02*
X20810149Y30622543D01*
X20810149Y30622543D02*
X20953006Y30693972D01*
X22095862Y29193972D02*
X22095862Y30693972D01*
X22095862Y30693972D02*
X22595862Y29622543D01*
X22595862Y29622543D02*
X23095862Y30693972D01*
X23095862Y30693972D02*
X23095862Y29193972D01*
D12*
X50863095Y58070181D02*
X50863095Y57260658D01*
X50863095Y57260658D02*
X50910714Y57165420D01*
X50910714Y57165420D02*
X50958333Y57117800D01*
X50958333Y57117800D02*
X51053571Y57070181D01*
X51053571Y57070181D02*
X51244047Y57070181D01*
X51244047Y57070181D02*
X51339285Y57117800D01*
X51339285Y57117800D02*
X51386904Y57165420D01*
X51386904Y57165420D02*
X51434523Y57260658D01*
X51434523Y57260658D02*
X51434523Y58070181D01*
X52339285Y58070181D02*
X52148809Y58070181D01*
X52148809Y58070181D02*
X52053571Y58022562D01*
X52053571Y58022562D02*
X52005952Y57974943D01*
X52005952Y57974943D02*
X51910714Y57832086D01*
X51910714Y57832086D02*
X51863095Y57641610D01*
X51863095Y57641610D02*
X51863095Y57260658D01*
X51863095Y57260658D02*
X51910714Y57165420D01*
X51910714Y57165420D02*
X51958333Y57117800D01*
X51958333Y57117800D02*
X52053571Y57070181D01*
X52053571Y57070181D02*
X52244047Y57070181D01*
X52244047Y57070181D02*
X52339285Y57117800D01*
X52339285Y57117800D02*
X52386904Y57165420D01*
X52386904Y57165420D02*
X52434523Y57260658D01*
X52434523Y57260658D02*
X52434523Y57498753D01*
X52434523Y57498753D02*
X52386904Y57593991D01*
X52386904Y57593991D02*
X52339285Y57641610D01*
X52339285Y57641610D02*
X52244047Y57689229D01*
X52244047Y57689229D02*
X52053571Y57689229D01*
X52053571Y57689229D02*
X51958333Y57641610D01*
X51958333Y57641610D02*
X51910714Y57593991D01*
X51910714Y57593991D02*
X51863095Y57498753D01*
X36257142Y54690420D02*
X36209523Y54642800D01*
X36209523Y54642800D02*
X36066666Y54595181D01*
X36066666Y54595181D02*
X35971428Y54595181D01*
X35971428Y54595181D02*
X35828571Y54642800D01*
X35828571Y54642800D02*
X35733333Y54738039D01*
X35733333Y54738039D02*
X35685714Y54833277D01*
X35685714Y54833277D02*
X35638095Y55023753D01*
X35638095Y55023753D02*
X35638095Y55166610D01*
X35638095Y55166610D02*
X35685714Y55357086D01*
X35685714Y55357086D02*
X35733333Y55452324D01*
X35733333Y55452324D02*
X35828571Y55547562D01*
X35828571Y55547562D02*
X35971428Y55595181D01*
X35971428Y55595181D02*
X36066666Y55595181D01*
X36066666Y55595181D02*
X36209523Y55547562D01*
X36209523Y55547562D02*
X36257142Y55499943D01*
X37209523Y54595181D02*
X36638095Y54595181D01*
X36923809Y54595181D02*
X36923809Y55595181D01*
X36923809Y55595181D02*
X36828571Y55452324D01*
X36828571Y55452324D02*
X36733333Y55357086D01*
X36733333Y55357086D02*
X36638095Y55309467D01*
X37590476Y55499943D02*
X37638095Y55547562D01*
X37638095Y55547562D02*
X37733333Y55595181D01*
X37733333Y55595181D02*
X37971428Y55595181D01*
X37971428Y55595181D02*
X38066666Y55547562D01*
X38066666Y55547562D02*
X38114285Y55499943D01*
X38114285Y55499943D02*
X38161904Y55404705D01*
X38161904Y55404705D02*
X38161904Y55309467D01*
X38161904Y55309467D02*
X38114285Y55166610D01*
X38114285Y55166610D02*
X37542857Y54595181D01*
X37542857Y54595181D02*
X38161904Y54595181D01*
X36076190Y53145181D02*
X35504762Y53145181D01*
X35790476Y53145181D02*
X35790476Y54145181D01*
X35790476Y54145181D02*
X35695238Y54002324D01*
X35695238Y54002324D02*
X35600000Y53907086D01*
X35600000Y53907086D02*
X35504762Y53859467D01*
X36457143Y54049943D02*
X36504762Y54097562D01*
X36504762Y54097562D02*
X36600000Y54145181D01*
X36600000Y54145181D02*
X36838095Y54145181D01*
X36838095Y54145181D02*
X36933333Y54097562D01*
X36933333Y54097562D02*
X36980952Y54049943D01*
X36980952Y54049943D02*
X37028571Y53954705D01*
X37028571Y53954705D02*
X37028571Y53859467D01*
X37028571Y53859467D02*
X36980952Y53716610D01*
X36980952Y53716610D02*
X36409524Y53145181D01*
X36409524Y53145181D02*
X37028571Y53145181D01*
X37647619Y54145181D02*
X37742857Y54145181D01*
X37742857Y54145181D02*
X37838095Y54097562D01*
X37838095Y54097562D02*
X37885714Y54049943D01*
X37885714Y54049943D02*
X37933333Y53954705D01*
X37933333Y53954705D02*
X37980952Y53764229D01*
X37980952Y53764229D02*
X37980952Y53526134D01*
X37980952Y53526134D02*
X37933333Y53335658D01*
X37933333Y53335658D02*
X37885714Y53240420D01*
X37885714Y53240420D02*
X37838095Y53192800D01*
X37838095Y53192800D02*
X37742857Y53145181D01*
X37742857Y53145181D02*
X37647619Y53145181D01*
X37647619Y53145181D02*
X37552381Y53192800D01*
X37552381Y53192800D02*
X37504762Y53240420D01*
X37504762Y53240420D02*
X37457143Y53335658D01*
X37457143Y53335658D02*
X37409524Y53526134D01*
X37409524Y53526134D02*
X37409524Y53764229D01*
X37409524Y53764229D02*
X37457143Y53954705D01*
X37457143Y53954705D02*
X37504762Y54049943D01*
X37504762Y54049943D02*
X37552381Y54097562D01*
X37552381Y54097562D02*
X37647619Y54145181D01*
X38600000Y54145181D02*
X38695238Y54145181D01*
X38695238Y54145181D02*
X38790476Y54097562D01*
X38790476Y54097562D02*
X38838095Y54049943D01*
X38838095Y54049943D02*
X38885714Y53954705D01*
X38885714Y53954705D02*
X38933333Y53764229D01*
X38933333Y53764229D02*
X38933333Y53526134D01*
X38933333Y53526134D02*
X38885714Y53335658D01*
X38885714Y53335658D02*
X38838095Y53240420D01*
X38838095Y53240420D02*
X38790476Y53192800D01*
X38790476Y53192800D02*
X38695238Y53145181D01*
X38695238Y53145181D02*
X38600000Y53145181D01*
X38600000Y53145181D02*
X38504762Y53192800D01*
X38504762Y53192800D02*
X38457143Y53240420D01*
X38457143Y53240420D02*
X38409524Y53335658D01*
X38409524Y53335658D02*
X38361905Y53526134D01*
X38361905Y53526134D02*
X38361905Y53764229D01*
X38361905Y53764229D02*
X38409524Y53954705D01*
X38409524Y53954705D02*
X38457143Y54049943D01*
X38457143Y54049943D02*
X38504762Y54097562D01*
X38504762Y54097562D02*
X38600000Y54145181D01*
X39361905Y53811848D02*
X39361905Y52811848D01*
X39361905Y53764229D02*
X39457143Y53811848D01*
X39457143Y53811848D02*
X39647619Y53811848D01*
X39647619Y53811848D02*
X39742857Y53764229D01*
X39742857Y53764229D02*
X39790476Y53716610D01*
X39790476Y53716610D02*
X39838095Y53621372D01*
X39838095Y53621372D02*
X39838095Y53335658D01*
X39838095Y53335658D02*
X39790476Y53240420D01*
X39790476Y53240420D02*
X39742857Y53192800D01*
X39742857Y53192800D02*
X39647619Y53145181D01*
X39647619Y53145181D02*
X39457143Y53145181D01*
X39457143Y53145181D02*
X39361905Y53192800D01*
X40600000Y53668991D02*
X40266667Y53668991D01*
X40266667Y53145181D02*
X40266667Y54145181D01*
X40266667Y54145181D02*
X40742857Y54145181D01*
X51663095Y54320181D02*
X51663095Y53510658D01*
X51663095Y53510658D02*
X51710714Y53415420D01*
X51710714Y53415420D02*
X51758333Y53367800D01*
X51758333Y53367800D02*
X51853571Y53320181D01*
X51853571Y53320181D02*
X52044047Y53320181D01*
X52044047Y53320181D02*
X52139285Y53367800D01*
X52139285Y53367800D02*
X52186904Y53415420D01*
X52186904Y53415420D02*
X52234523Y53510658D01*
X52234523Y53510658D02*
X52234523Y54320181D01*
X52615476Y54320181D02*
X53282142Y54320181D01*
X53282142Y54320181D02*
X52853571Y53320181D01*
X16588095Y43295181D02*
X16588095Y42485658D01*
X16588095Y42485658D02*
X16635714Y42390420D01*
X16635714Y42390420D02*
X16683333Y42342800D01*
X16683333Y42342800D02*
X16778571Y42295181D01*
X16778571Y42295181D02*
X16969047Y42295181D01*
X16969047Y42295181D02*
X17064285Y42342800D01*
X17064285Y42342800D02*
X17111904Y42390420D01*
X17111904Y42390420D02*
X17159523Y42485658D01*
X17159523Y42485658D02*
X17159523Y43295181D01*
X18064285Y42961848D02*
X18064285Y42295181D01*
X17826190Y43342800D02*
X17588095Y42628515D01*
X17588095Y42628515D02*
X18207142Y42628515D01*
X36357142Y63640420D02*
X36309523Y63592800D01*
X36309523Y63592800D02*
X36166666Y63545181D01*
X36166666Y63545181D02*
X36071428Y63545181D01*
X36071428Y63545181D02*
X35928571Y63592800D01*
X35928571Y63592800D02*
X35833333Y63688039D01*
X35833333Y63688039D02*
X35785714Y63783277D01*
X35785714Y63783277D02*
X35738095Y63973753D01*
X35738095Y63973753D02*
X35738095Y64116610D01*
X35738095Y64116610D02*
X35785714Y64307086D01*
X35785714Y64307086D02*
X35833333Y64402324D01*
X35833333Y64402324D02*
X35928571Y64497562D01*
X35928571Y64497562D02*
X36071428Y64545181D01*
X36071428Y64545181D02*
X36166666Y64545181D01*
X36166666Y64545181D02*
X36309523Y64497562D01*
X36309523Y64497562D02*
X36357142Y64449943D01*
X37309523Y63545181D02*
X36738095Y63545181D01*
X37023809Y63545181D02*
X37023809Y64545181D01*
X37023809Y64545181D02*
X36928571Y64402324D01*
X36928571Y64402324D02*
X36833333Y64307086D01*
X36833333Y64307086D02*
X36738095Y64259467D01*
X38261904Y63545181D02*
X37690476Y63545181D01*
X37976190Y63545181D02*
X37976190Y64545181D01*
X37976190Y64545181D02*
X37880952Y64402324D01*
X37880952Y64402324D02*
X37785714Y64307086D01*
X37785714Y64307086D02*
X37690476Y64259467D01*
X36783333Y63095181D02*
X37449999Y63095181D01*
X37449999Y63095181D02*
X37021428Y62095181D01*
X38307142Y63095181D02*
X37830952Y63095181D01*
X37830952Y63095181D02*
X37783333Y62618991D01*
X37783333Y62618991D02*
X37830952Y62666610D01*
X37830952Y62666610D02*
X37926190Y62714229D01*
X37926190Y62714229D02*
X38164285Y62714229D01*
X38164285Y62714229D02*
X38259523Y62666610D01*
X38259523Y62666610D02*
X38307142Y62618991D01*
X38307142Y62618991D02*
X38354761Y62523753D01*
X38354761Y62523753D02*
X38354761Y62285658D01*
X38354761Y62285658D02*
X38307142Y62190420D01*
X38307142Y62190420D02*
X38259523Y62142800D01*
X38259523Y62142800D02*
X38164285Y62095181D01*
X38164285Y62095181D02*
X37926190Y62095181D01*
X37926190Y62095181D02*
X37830952Y62142800D01*
X37830952Y62142800D02*
X37783333Y62190420D01*
X38973809Y63095181D02*
X39069047Y63095181D01*
X39069047Y63095181D02*
X39164285Y63047562D01*
X39164285Y63047562D02*
X39211904Y62999943D01*
X39211904Y62999943D02*
X39259523Y62904705D01*
X39259523Y62904705D02*
X39307142Y62714229D01*
X39307142Y62714229D02*
X39307142Y62476134D01*
X39307142Y62476134D02*
X39259523Y62285658D01*
X39259523Y62285658D02*
X39211904Y62190420D01*
X39211904Y62190420D02*
X39164285Y62142800D01*
X39164285Y62142800D02*
X39069047Y62095181D01*
X39069047Y62095181D02*
X38973809Y62095181D01*
X38973809Y62095181D02*
X38878571Y62142800D01*
X38878571Y62142800D02*
X38830952Y62190420D01*
X38830952Y62190420D02*
X38783333Y62285658D01*
X38783333Y62285658D02*
X38735714Y62476134D01*
X38735714Y62476134D02*
X38735714Y62714229D01*
X38735714Y62714229D02*
X38783333Y62904705D01*
X38783333Y62904705D02*
X38830952Y62999943D01*
X38830952Y62999943D02*
X38878571Y63047562D01*
X38878571Y63047562D02*
X38973809Y63095181D01*
X39735714Y62761848D02*
X39735714Y61761848D01*
X39735714Y62714229D02*
X39830952Y62761848D01*
X39830952Y62761848D02*
X40021428Y62761848D01*
X40021428Y62761848D02*
X40116666Y62714229D01*
X40116666Y62714229D02*
X40164285Y62666610D01*
X40164285Y62666610D02*
X40211904Y62571372D01*
X40211904Y62571372D02*
X40211904Y62285658D01*
X40211904Y62285658D02*
X40164285Y62190420D01*
X40164285Y62190420D02*
X40116666Y62142800D01*
X40116666Y62142800D02*
X40021428Y62095181D01*
X40021428Y62095181D02*
X39830952Y62095181D01*
X39830952Y62095181D02*
X39735714Y62142800D01*
X40973809Y62618991D02*
X40640476Y62618991D01*
X40640476Y62095181D02*
X40640476Y63095181D01*
X40640476Y63095181D02*
X41116666Y63095181D01*
X24333333Y29895181D02*
X23857143Y29895181D01*
X23857143Y29895181D02*
X23857143Y30895181D01*
X25142857Y30895181D02*
X24666667Y30895181D01*
X24666667Y30895181D02*
X24619048Y30418991D01*
X24619048Y30418991D02*
X24666667Y30466610D01*
X24666667Y30466610D02*
X24761905Y30514229D01*
X24761905Y30514229D02*
X25000000Y30514229D01*
X25000000Y30514229D02*
X25095238Y30466610D01*
X25095238Y30466610D02*
X25142857Y30418991D01*
X25142857Y30418991D02*
X25190476Y30323753D01*
X25190476Y30323753D02*
X25190476Y30085658D01*
X25190476Y30085658D02*
X25142857Y29990420D01*
X25142857Y29990420D02*
X25095238Y29942800D01*
X25095238Y29942800D02*
X25000000Y29895181D01*
X25000000Y29895181D02*
X24761905Y29895181D01*
X24761905Y29895181D02*
X24666667Y29942800D01*
X24666667Y29942800D02*
X24619048Y29990420D01*
X27595238Y29845181D02*
X27023810Y29845181D01*
X27309524Y29845181D02*
X27309524Y30845181D01*
X27309524Y30845181D02*
X27214286Y30702324D01*
X27214286Y30702324D02*
X27119048Y30607086D01*
X27119048Y30607086D02*
X27023810Y30559467D01*
X28023810Y29940420D02*
X28071429Y29892800D01*
X28071429Y29892800D02*
X28023810Y29845181D01*
X28023810Y29845181D02*
X27976191Y29892800D01*
X27976191Y29892800D02*
X28023810Y29940420D01*
X28023810Y29940420D02*
X28023810Y29845181D01*
X28690476Y30845181D02*
X28785714Y30845181D01*
X28785714Y30845181D02*
X28880952Y30797562D01*
X28880952Y30797562D02*
X28928571Y30749943D01*
X28928571Y30749943D02*
X28976190Y30654705D01*
X28976190Y30654705D02*
X29023809Y30464229D01*
X29023809Y30464229D02*
X29023809Y30226134D01*
X29023809Y30226134D02*
X28976190Y30035658D01*
X28976190Y30035658D02*
X28928571Y29940420D01*
X28928571Y29940420D02*
X28880952Y29892800D01*
X28880952Y29892800D02*
X28785714Y29845181D01*
X28785714Y29845181D02*
X28690476Y29845181D01*
X28690476Y29845181D02*
X28595238Y29892800D01*
X28595238Y29892800D02*
X28547619Y29940420D01*
X28547619Y29940420D02*
X28500000Y30035658D01*
X28500000Y30035658D02*
X28452381Y30226134D01*
X28452381Y30226134D02*
X28452381Y30464229D01*
X28452381Y30464229D02*
X28500000Y30654705D01*
X28500000Y30654705D02*
X28547619Y30749943D01*
X28547619Y30749943D02*
X28595238Y30797562D01*
X28595238Y30797562D02*
X28690476Y30845181D01*
X29880952Y30511848D02*
X29880952Y29845181D01*
X29452381Y30511848D02*
X29452381Y29988039D01*
X29452381Y29988039D02*
X29500000Y29892800D01*
X29500000Y29892800D02*
X29595238Y29845181D01*
X29595238Y29845181D02*
X29738095Y29845181D01*
X29738095Y29845181D02*
X29833333Y29892800D01*
X29833333Y29892800D02*
X29880952Y29940420D01*
X30357143Y29845181D02*
X30357143Y30845181D01*
X30357143Y30368991D02*
X30928571Y30368991D01*
X30928571Y29845181D02*
X30928571Y30845181D01*
X37783333Y60295181D02*
X37307143Y60295181D01*
X37307143Y60295181D02*
X37307143Y61295181D01*
X38021429Y61295181D02*
X38688095Y61295181D01*
X38688095Y61295181D02*
X38259524Y60295181D01*
X40435714Y61295181D02*
X40530952Y61295181D01*
X40530952Y61295181D02*
X40626190Y61247562D01*
X40626190Y61247562D02*
X40673809Y61199943D01*
X40673809Y61199943D02*
X40721428Y61104705D01*
X40721428Y61104705D02*
X40769047Y60914229D01*
X40769047Y60914229D02*
X40769047Y60676134D01*
X40769047Y60676134D02*
X40721428Y60485658D01*
X40721428Y60485658D02*
X40673809Y60390420D01*
X40673809Y60390420D02*
X40626190Y60342800D01*
X40626190Y60342800D02*
X40530952Y60295181D01*
X40530952Y60295181D02*
X40435714Y60295181D01*
X40435714Y60295181D02*
X40340476Y60342800D01*
X40340476Y60342800D02*
X40292857Y60390420D01*
X40292857Y60390420D02*
X40245238Y60485658D01*
X40245238Y60485658D02*
X40197619Y60676134D01*
X40197619Y60676134D02*
X40197619Y60914229D01*
X40197619Y60914229D02*
X40245238Y61104705D01*
X40245238Y61104705D02*
X40292857Y61199943D01*
X40292857Y61199943D02*
X40340476Y61247562D01*
X40340476Y61247562D02*
X40435714Y61295181D01*
X41197619Y60390420D02*
X41245238Y60342800D01*
X41245238Y60342800D02*
X41197619Y60295181D01*
X41197619Y60295181D02*
X41150000Y60342800D01*
X41150000Y60342800D02*
X41197619Y60390420D01*
X41197619Y60390420D02*
X41197619Y60295181D01*
X42197618Y60295181D02*
X41626190Y60295181D01*
X41911904Y60295181D02*
X41911904Y61295181D01*
X41911904Y61295181D02*
X41816666Y61152324D01*
X41816666Y61152324D02*
X41721428Y61057086D01*
X41721428Y61057086D02*
X41626190Y61009467D01*
X43054761Y61295181D02*
X42864285Y61295181D01*
X42864285Y61295181D02*
X42769047Y61247562D01*
X42769047Y61247562D02*
X42721428Y61199943D01*
X42721428Y61199943D02*
X42626190Y61057086D01*
X42626190Y61057086D02*
X42578571Y60866610D01*
X42578571Y60866610D02*
X42578571Y60485658D01*
X42578571Y60485658D02*
X42626190Y60390420D01*
X42626190Y60390420D02*
X42673809Y60342800D01*
X42673809Y60342800D02*
X42769047Y60295181D01*
X42769047Y60295181D02*
X42959523Y60295181D01*
X42959523Y60295181D02*
X43054761Y60342800D01*
X43054761Y60342800D02*
X43102380Y60390420D01*
X43102380Y60390420D02*
X43149999Y60485658D01*
X43149999Y60485658D02*
X43149999Y60723753D01*
X43149999Y60723753D02*
X43102380Y60818991D01*
X43102380Y60818991D02*
X43054761Y60866610D01*
X43054761Y60866610D02*
X42959523Y60914229D01*
X42959523Y60914229D02*
X42769047Y60914229D01*
X42769047Y60914229D02*
X42673809Y60866610D01*
X42673809Y60866610D02*
X42626190Y60818991D01*
X42626190Y60818991D02*
X42578571Y60723753D01*
X44007142Y60961848D02*
X44007142Y60295181D01*
X43578571Y60961848D02*
X43578571Y60438039D01*
X43578571Y60438039D02*
X43626190Y60342800D01*
X43626190Y60342800D02*
X43721428Y60295181D01*
X43721428Y60295181D02*
X43864285Y60295181D01*
X43864285Y60295181D02*
X43959523Y60342800D01*
X43959523Y60342800D02*
X44007142Y60390420D01*
X44483333Y60295181D02*
X44483333Y61295181D01*
X44483333Y60818991D02*
X45054761Y60818991D01*
X45054761Y60295181D02*
X45054761Y61295181D01*
X36257142Y34940420D02*
X36209523Y34892800D01*
X36209523Y34892800D02*
X36066666Y34845181D01*
X36066666Y34845181D02*
X35971428Y34845181D01*
X35971428Y34845181D02*
X35828571Y34892800D01*
X35828571Y34892800D02*
X35733333Y34988039D01*
X35733333Y34988039D02*
X35685714Y35083277D01*
X35685714Y35083277D02*
X35638095Y35273753D01*
X35638095Y35273753D02*
X35638095Y35416610D01*
X35638095Y35416610D02*
X35685714Y35607086D01*
X35685714Y35607086D02*
X35733333Y35702324D01*
X35733333Y35702324D02*
X35828571Y35797562D01*
X35828571Y35797562D02*
X35971428Y35845181D01*
X35971428Y35845181D02*
X36066666Y35845181D01*
X36066666Y35845181D02*
X36209523Y35797562D01*
X36209523Y35797562D02*
X36257142Y35749943D01*
X37209523Y34845181D02*
X36638095Y34845181D01*
X36923809Y34845181D02*
X36923809Y35845181D01*
X36923809Y35845181D02*
X36828571Y35702324D01*
X36828571Y35702324D02*
X36733333Y35607086D01*
X36733333Y35607086D02*
X36638095Y35559467D01*
X38066666Y35511848D02*
X38066666Y34845181D01*
X37828571Y35892800D02*
X37590476Y35178515D01*
X37590476Y35178515D02*
X38209523Y35178515D01*
X35504762Y34049943D02*
X35552381Y34097562D01*
X35552381Y34097562D02*
X35647619Y34145181D01*
X35647619Y34145181D02*
X35885714Y34145181D01*
X35885714Y34145181D02*
X35980952Y34097562D01*
X35980952Y34097562D02*
X36028571Y34049943D01*
X36028571Y34049943D02*
X36076190Y33954705D01*
X36076190Y33954705D02*
X36076190Y33859467D01*
X36076190Y33859467D02*
X36028571Y33716610D01*
X36028571Y33716610D02*
X35457143Y33145181D01*
X35457143Y33145181D02*
X36076190Y33145181D01*
X36409524Y34145181D02*
X37076190Y34145181D01*
X37076190Y34145181D02*
X36647619Y33145181D01*
X37647619Y34145181D02*
X37742857Y34145181D01*
X37742857Y34145181D02*
X37838095Y34097562D01*
X37838095Y34097562D02*
X37885714Y34049943D01*
X37885714Y34049943D02*
X37933333Y33954705D01*
X37933333Y33954705D02*
X37980952Y33764229D01*
X37980952Y33764229D02*
X37980952Y33526134D01*
X37980952Y33526134D02*
X37933333Y33335658D01*
X37933333Y33335658D02*
X37885714Y33240420D01*
X37885714Y33240420D02*
X37838095Y33192800D01*
X37838095Y33192800D02*
X37742857Y33145181D01*
X37742857Y33145181D02*
X37647619Y33145181D01*
X37647619Y33145181D02*
X37552381Y33192800D01*
X37552381Y33192800D02*
X37504762Y33240420D01*
X37504762Y33240420D02*
X37457143Y33335658D01*
X37457143Y33335658D02*
X37409524Y33526134D01*
X37409524Y33526134D02*
X37409524Y33764229D01*
X37409524Y33764229D02*
X37457143Y33954705D01*
X37457143Y33954705D02*
X37504762Y34049943D01*
X37504762Y34049943D02*
X37552381Y34097562D01*
X37552381Y34097562D02*
X37647619Y34145181D01*
X38600000Y34145181D02*
X38695238Y34145181D01*
X38695238Y34145181D02*
X38790476Y34097562D01*
X38790476Y34097562D02*
X38838095Y34049943D01*
X38838095Y34049943D02*
X38885714Y33954705D01*
X38885714Y33954705D02*
X38933333Y33764229D01*
X38933333Y33764229D02*
X38933333Y33526134D01*
X38933333Y33526134D02*
X38885714Y33335658D01*
X38885714Y33335658D02*
X38838095Y33240420D01*
X38838095Y33240420D02*
X38790476Y33192800D01*
X38790476Y33192800D02*
X38695238Y33145181D01*
X38695238Y33145181D02*
X38600000Y33145181D01*
X38600000Y33145181D02*
X38504762Y33192800D01*
X38504762Y33192800D02*
X38457143Y33240420D01*
X38457143Y33240420D02*
X38409524Y33335658D01*
X38409524Y33335658D02*
X38361905Y33526134D01*
X38361905Y33526134D02*
X38361905Y33764229D01*
X38361905Y33764229D02*
X38409524Y33954705D01*
X38409524Y33954705D02*
X38457143Y34049943D01*
X38457143Y34049943D02*
X38504762Y34097562D01*
X38504762Y34097562D02*
X38600000Y34145181D01*
X39361905Y33811848D02*
X39361905Y32811848D01*
X39361905Y33764229D02*
X39457143Y33811848D01*
X39457143Y33811848D02*
X39647619Y33811848D01*
X39647619Y33811848D02*
X39742857Y33764229D01*
X39742857Y33764229D02*
X39790476Y33716610D01*
X39790476Y33716610D02*
X39838095Y33621372D01*
X39838095Y33621372D02*
X39838095Y33335658D01*
X39838095Y33335658D02*
X39790476Y33240420D01*
X39790476Y33240420D02*
X39742857Y33192800D01*
X39742857Y33192800D02*
X39647619Y33145181D01*
X39647619Y33145181D02*
X39457143Y33145181D01*
X39457143Y33145181D02*
X39361905Y33192800D01*
X40600000Y33668991D02*
X40266667Y33668991D01*
X40266667Y33145181D02*
X40266667Y34145181D01*
X40266667Y34145181D02*
X40742857Y34145181D01*
X49907142Y23740420D02*
X49859523Y23692800D01*
X49859523Y23692800D02*
X49716666Y23645181D01*
X49716666Y23645181D02*
X49621428Y23645181D01*
X49621428Y23645181D02*
X49478571Y23692800D01*
X49478571Y23692800D02*
X49383333Y23788039D01*
X49383333Y23788039D02*
X49335714Y23883277D01*
X49335714Y23883277D02*
X49288095Y24073753D01*
X49288095Y24073753D02*
X49288095Y24216610D01*
X49288095Y24216610D02*
X49335714Y24407086D01*
X49335714Y24407086D02*
X49383333Y24502324D01*
X49383333Y24502324D02*
X49478571Y24597562D01*
X49478571Y24597562D02*
X49621428Y24645181D01*
X49621428Y24645181D02*
X49716666Y24645181D01*
X49716666Y24645181D02*
X49859523Y24597562D01*
X49859523Y24597562D02*
X49907142Y24549943D01*
X50288095Y24549943D02*
X50335714Y24597562D01*
X50335714Y24597562D02*
X50430952Y24645181D01*
X50430952Y24645181D02*
X50669047Y24645181D01*
X50669047Y24645181D02*
X50764285Y24597562D01*
X50764285Y24597562D02*
X50811904Y24549943D01*
X50811904Y24549943D02*
X50859523Y24454705D01*
X50859523Y24454705D02*
X50859523Y24359467D01*
X50859523Y24359467D02*
X50811904Y24216610D01*
X50811904Y24216610D02*
X50240476Y23645181D01*
X50240476Y23645181D02*
X50859523Y23645181D01*
X51478571Y24645181D02*
X51573809Y24645181D01*
X51573809Y24645181D02*
X51669047Y24597562D01*
X51669047Y24597562D02*
X51716666Y24549943D01*
X51716666Y24549943D02*
X51764285Y24454705D01*
X51764285Y24454705D02*
X51811904Y24264229D01*
X51811904Y24264229D02*
X51811904Y24026134D01*
X51811904Y24026134D02*
X51764285Y23835658D01*
X51764285Y23835658D02*
X51716666Y23740420D01*
X51716666Y23740420D02*
X51669047Y23692800D01*
X51669047Y23692800D02*
X51573809Y23645181D01*
X51573809Y23645181D02*
X51478571Y23645181D01*
X51478571Y23645181D02*
X51383333Y23692800D01*
X51383333Y23692800D02*
X51335714Y23740420D01*
X51335714Y23740420D02*
X51288095Y23835658D01*
X51288095Y23835658D02*
X51240476Y24026134D01*
X51240476Y24026134D02*
X51240476Y24264229D01*
X51240476Y24264229D02*
X51288095Y24454705D01*
X51288095Y24454705D02*
X51335714Y24549943D01*
X51335714Y24549943D02*
X51383333Y24597562D01*
X51383333Y24597562D02*
X51478571Y24645181D01*
X49354762Y23049943D02*
X49402381Y23097562D01*
X49402381Y23097562D02*
X49497619Y23145181D01*
X49497619Y23145181D02*
X49735714Y23145181D01*
X49735714Y23145181D02*
X49830952Y23097562D01*
X49830952Y23097562D02*
X49878571Y23049943D01*
X49878571Y23049943D02*
X49926190Y22954705D01*
X49926190Y22954705D02*
X49926190Y22859467D01*
X49926190Y22859467D02*
X49878571Y22716610D01*
X49878571Y22716610D02*
X49307143Y22145181D01*
X49307143Y22145181D02*
X49926190Y22145181D01*
X50545238Y23145181D02*
X50640476Y23145181D01*
X50640476Y23145181D02*
X50735714Y23097562D01*
X50735714Y23097562D02*
X50783333Y23049943D01*
X50783333Y23049943D02*
X50830952Y22954705D01*
X50830952Y22954705D02*
X50878571Y22764229D01*
X50878571Y22764229D02*
X50878571Y22526134D01*
X50878571Y22526134D02*
X50830952Y22335658D01*
X50830952Y22335658D02*
X50783333Y22240420D01*
X50783333Y22240420D02*
X50735714Y22192800D01*
X50735714Y22192800D02*
X50640476Y22145181D01*
X50640476Y22145181D02*
X50545238Y22145181D01*
X50545238Y22145181D02*
X50450000Y22192800D01*
X50450000Y22192800D02*
X50402381Y22240420D01*
X50402381Y22240420D02*
X50354762Y22335658D01*
X50354762Y22335658D02*
X50307143Y22526134D01*
X50307143Y22526134D02*
X50307143Y22764229D01*
X50307143Y22764229D02*
X50354762Y22954705D01*
X50354762Y22954705D02*
X50402381Y23049943D01*
X50402381Y23049943D02*
X50450000Y23097562D01*
X50450000Y23097562D02*
X50545238Y23145181D01*
X51497619Y23145181D02*
X51592857Y23145181D01*
X51592857Y23145181D02*
X51688095Y23097562D01*
X51688095Y23097562D02*
X51735714Y23049943D01*
X51735714Y23049943D02*
X51783333Y22954705D01*
X51783333Y22954705D02*
X51830952Y22764229D01*
X51830952Y22764229D02*
X51830952Y22526134D01*
X51830952Y22526134D02*
X51783333Y22335658D01*
X51783333Y22335658D02*
X51735714Y22240420D01*
X51735714Y22240420D02*
X51688095Y22192800D01*
X51688095Y22192800D02*
X51592857Y22145181D01*
X51592857Y22145181D02*
X51497619Y22145181D01*
X51497619Y22145181D02*
X51402381Y22192800D01*
X51402381Y22192800D02*
X51354762Y22240420D01*
X51354762Y22240420D02*
X51307143Y22335658D01*
X51307143Y22335658D02*
X51259524Y22526134D01*
X51259524Y22526134D02*
X51259524Y22764229D01*
X51259524Y22764229D02*
X51307143Y22954705D01*
X51307143Y22954705D02*
X51354762Y23049943D01*
X51354762Y23049943D02*
X51402381Y23097562D01*
X51402381Y23097562D02*
X51497619Y23145181D01*
X52450000Y23145181D02*
X52545238Y23145181D01*
X52545238Y23145181D02*
X52640476Y23097562D01*
X52640476Y23097562D02*
X52688095Y23049943D01*
X52688095Y23049943D02*
X52735714Y22954705D01*
X52735714Y22954705D02*
X52783333Y22764229D01*
X52783333Y22764229D02*
X52783333Y22526134D01*
X52783333Y22526134D02*
X52735714Y22335658D01*
X52735714Y22335658D02*
X52688095Y22240420D01*
X52688095Y22240420D02*
X52640476Y22192800D01*
X52640476Y22192800D02*
X52545238Y22145181D01*
X52545238Y22145181D02*
X52450000Y22145181D01*
X52450000Y22145181D02*
X52354762Y22192800D01*
X52354762Y22192800D02*
X52307143Y22240420D01*
X52307143Y22240420D02*
X52259524Y22335658D01*
X52259524Y22335658D02*
X52211905Y22526134D01*
X52211905Y22526134D02*
X52211905Y22764229D01*
X52211905Y22764229D02*
X52259524Y22954705D01*
X52259524Y22954705D02*
X52307143Y23049943D01*
X52307143Y23049943D02*
X52354762Y23097562D01*
X52354762Y23097562D02*
X52450000Y23145181D01*
X53211905Y22811848D02*
X53211905Y21811848D01*
X53211905Y22764229D02*
X53307143Y22811848D01*
X53307143Y22811848D02*
X53497619Y22811848D01*
X53497619Y22811848D02*
X53592857Y22764229D01*
X53592857Y22764229D02*
X53640476Y22716610D01*
X53640476Y22716610D02*
X53688095Y22621372D01*
X53688095Y22621372D02*
X53688095Y22335658D01*
X53688095Y22335658D02*
X53640476Y22240420D01*
X53640476Y22240420D02*
X53592857Y22192800D01*
X53592857Y22192800D02*
X53497619Y22145181D01*
X53497619Y22145181D02*
X53307143Y22145181D01*
X53307143Y22145181D02*
X53211905Y22192800D01*
X54450000Y22668991D02*
X54116667Y22668991D01*
X54116667Y22145181D02*
X54116667Y23145181D01*
X54116667Y23145181D02*
X54592857Y23145181D01*
X-392858Y40140420D02*
X-440477Y40092800D01*
X-440477Y40092800D02*
X-583334Y40045181D01*
X-583334Y40045181D02*
X-678572Y40045181D01*
X-678572Y40045181D02*
X-821429Y40092800D01*
X-821429Y40092800D02*
X-916667Y40188039D01*
X-916667Y40188039D02*
X-964286Y40283277D01*
X-964286Y40283277D02*
X-1011905Y40473753D01*
X-1011905Y40473753D02*
X-1011905Y40616610D01*
X-1011905Y40616610D02*
X-964286Y40807086D01*
X-964286Y40807086D02*
X-916667Y40902324D01*
X-916667Y40902324D02*
X-821429Y40997562D01*
X-821429Y40997562D02*
X-678572Y41045181D01*
X-678572Y41045181D02*
X-583334Y41045181D01*
X-583334Y41045181D02*
X-440477Y40997562D01*
X-440477Y40997562D02*
X-392858Y40949943D01*
X-59524Y41045181D02*
X559523Y41045181D01*
X559523Y41045181D02*
X226190Y40664229D01*
X226190Y40664229D02*
X369047Y40664229D01*
X369047Y40664229D02*
X464285Y40616610D01*
X464285Y40616610D02*
X511904Y40568991D01*
X511904Y40568991D02*
X559523Y40473753D01*
X559523Y40473753D02*
X559523Y40235658D01*
X559523Y40235658D02*
X511904Y40140420D01*
X511904Y40140420D02*
X464285Y40092800D01*
X464285Y40092800D02*
X369047Y40045181D01*
X369047Y40045181D02*
X83333Y40045181D01*
X83333Y40045181D02*
X-11905Y40092800D01*
X-11905Y40092800D02*
X-59524Y40140420D01*
X1511904Y40045181D02*
X940476Y40045181D01*
X1226190Y40045181D02*
X1226190Y41045181D01*
X1226190Y41045181D02*
X1130952Y40902324D01*
X1130952Y40902324D02*
X1035714Y40807086D01*
X1035714Y40807086D02*
X940476Y40759467D01*
X-1014286Y39695181D02*
X-919048Y39695181D01*
X-919048Y39695181D02*
X-823810Y39647562D01*
X-823810Y39647562D02*
X-776191Y39599943D01*
X-776191Y39599943D02*
X-728572Y39504705D01*
X-728572Y39504705D02*
X-680953Y39314229D01*
X-680953Y39314229D02*
X-680953Y39076134D01*
X-680953Y39076134D02*
X-728572Y38885658D01*
X-728572Y38885658D02*
X-776191Y38790420D01*
X-776191Y38790420D02*
X-823810Y38742800D01*
X-823810Y38742800D02*
X-919048Y38695181D01*
X-919048Y38695181D02*
X-1014286Y38695181D01*
X-1014286Y38695181D02*
X-1109524Y38742800D01*
X-1109524Y38742800D02*
X-1157143Y38790420D01*
X-1157143Y38790420D02*
X-1204762Y38885658D01*
X-1204762Y38885658D02*
X-1252381Y39076134D01*
X-1252381Y39076134D02*
X-1252381Y39314229D01*
X-1252381Y39314229D02*
X-1204762Y39504705D01*
X-1204762Y39504705D02*
X-1157143Y39599943D01*
X-1157143Y39599943D02*
X-1109524Y39647562D01*
X-1109524Y39647562D02*
X-1014286Y39695181D01*
X-252381Y38790420D02*
X-204762Y38742800D01*
X-204762Y38742800D02*
X-252381Y38695181D01*
X-252381Y38695181D02*
X-300000Y38742800D01*
X-300000Y38742800D02*
X-252381Y38790420D01*
X-252381Y38790420D02*
X-252381Y38695181D01*
X747618Y38695181D02*
X176190Y38695181D01*
X461904Y38695181D02*
X461904Y39695181D01*
X461904Y39695181D02*
X366666Y39552324D01*
X366666Y39552324D02*
X271428Y39457086D01*
X271428Y39457086D02*
X176190Y39409467D01*
X1604761Y39361848D02*
X1604761Y38695181D01*
X1176190Y39361848D02*
X1176190Y38838039D01*
X1176190Y38838039D02*
X1223809Y38742800D01*
X1223809Y38742800D02*
X1319047Y38695181D01*
X1319047Y38695181D02*
X1461904Y38695181D01*
X1461904Y38695181D02*
X1557142Y38742800D01*
X1557142Y38742800D02*
X1604761Y38790420D01*
X59982142Y43990420D02*
X59934523Y43942800D01*
X59934523Y43942800D02*
X59791666Y43895181D01*
X59791666Y43895181D02*
X59696428Y43895181D01*
X59696428Y43895181D02*
X59553571Y43942800D01*
X59553571Y43942800D02*
X59458333Y44038039D01*
X59458333Y44038039D02*
X59410714Y44133277D01*
X59410714Y44133277D02*
X59363095Y44323753D01*
X59363095Y44323753D02*
X59363095Y44466610D01*
X59363095Y44466610D02*
X59410714Y44657086D01*
X59410714Y44657086D02*
X59458333Y44752324D01*
X59458333Y44752324D02*
X59553571Y44847562D01*
X59553571Y44847562D02*
X59696428Y44895181D01*
X59696428Y44895181D02*
X59791666Y44895181D01*
X59791666Y44895181D02*
X59934523Y44847562D01*
X59934523Y44847562D02*
X59982142Y44799943D01*
X60363095Y44799943D02*
X60410714Y44847562D01*
X60410714Y44847562D02*
X60505952Y44895181D01*
X60505952Y44895181D02*
X60744047Y44895181D01*
X60744047Y44895181D02*
X60839285Y44847562D01*
X60839285Y44847562D02*
X60886904Y44799943D01*
X60886904Y44799943D02*
X60934523Y44704705D01*
X60934523Y44704705D02*
X60934523Y44609467D01*
X60934523Y44609467D02*
X60886904Y44466610D01*
X60886904Y44466610D02*
X60315476Y43895181D01*
X60315476Y43895181D02*
X60934523Y43895181D01*
X61791666Y44561848D02*
X61791666Y43895181D01*
X61553571Y44942800D02*
X61315476Y44228515D01*
X61315476Y44228515D02*
X61934523Y44228515D01*
X50788095Y49545181D02*
X50788095Y48735658D01*
X50788095Y48735658D02*
X50835714Y48640420D01*
X50835714Y48640420D02*
X50883333Y48592800D01*
X50883333Y48592800D02*
X50978571Y48545181D01*
X50978571Y48545181D02*
X51169047Y48545181D01*
X51169047Y48545181D02*
X51264285Y48592800D01*
X51264285Y48592800D02*
X51311904Y48640420D01*
X51311904Y48640420D02*
X51359523Y48735658D01*
X51359523Y48735658D02*
X51359523Y49545181D01*
X51978571Y49116610D02*
X51883333Y49164229D01*
X51883333Y49164229D02*
X51835714Y49211848D01*
X51835714Y49211848D02*
X51788095Y49307086D01*
X51788095Y49307086D02*
X51788095Y49354705D01*
X51788095Y49354705D02*
X51835714Y49449943D01*
X51835714Y49449943D02*
X51883333Y49497562D01*
X51883333Y49497562D02*
X51978571Y49545181D01*
X51978571Y49545181D02*
X52169047Y49545181D01*
X52169047Y49545181D02*
X52264285Y49497562D01*
X52264285Y49497562D02*
X52311904Y49449943D01*
X52311904Y49449943D02*
X52359523Y49354705D01*
X52359523Y49354705D02*
X52359523Y49307086D01*
X52359523Y49307086D02*
X52311904Y49211848D01*
X52311904Y49211848D02*
X52264285Y49164229D01*
X52264285Y49164229D02*
X52169047Y49116610D01*
X52169047Y49116610D02*
X51978571Y49116610D01*
X51978571Y49116610D02*
X51883333Y49068991D01*
X51883333Y49068991D02*
X51835714Y49021372D01*
X51835714Y49021372D02*
X51788095Y48926134D01*
X51788095Y48926134D02*
X51788095Y48735658D01*
X51788095Y48735658D02*
X51835714Y48640420D01*
X51835714Y48640420D02*
X51883333Y48592800D01*
X51883333Y48592800D02*
X51978571Y48545181D01*
X51978571Y48545181D02*
X52169047Y48545181D01*
X52169047Y48545181D02*
X52264285Y48592800D01*
X52264285Y48592800D02*
X52311904Y48640420D01*
X52311904Y48640420D02*
X52359523Y48735658D01*
X52359523Y48735658D02*
X52359523Y48926134D01*
X52359523Y48926134D02*
X52311904Y49021372D01*
X52311904Y49021372D02*
X52264285Y49068991D01*
X52264285Y49068991D02*
X52169047Y49116610D01*
X16738095Y48445181D02*
X16738095Y47635658D01*
X16738095Y47635658D02*
X16785714Y47540420D01*
X16785714Y47540420D02*
X16833333Y47492800D01*
X16833333Y47492800D02*
X16928571Y47445181D01*
X16928571Y47445181D02*
X17119047Y47445181D01*
X17119047Y47445181D02*
X17214285Y47492800D01*
X17214285Y47492800D02*
X17261904Y47540420D01*
X17261904Y47540420D02*
X17309523Y47635658D01*
X17309523Y47635658D02*
X17309523Y48445181D01*
X17690476Y48445181D02*
X18309523Y48445181D01*
X18309523Y48445181D02*
X17976190Y48064229D01*
X17976190Y48064229D02*
X18119047Y48064229D01*
X18119047Y48064229D02*
X18214285Y48016610D01*
X18214285Y48016610D02*
X18261904Y47968991D01*
X18261904Y47968991D02*
X18309523Y47873753D01*
X18309523Y47873753D02*
X18309523Y47635658D01*
X18309523Y47635658D02*
X18261904Y47540420D01*
X18261904Y47540420D02*
X18214285Y47492800D01*
X18214285Y47492800D02*
X18119047Y47445181D01*
X18119047Y47445181D02*
X17833333Y47445181D01*
X17833333Y47445181D02*
X17738095Y47492800D01*
X17738095Y47492800D02*
X17690476Y47540420D01*
X37557142Y29895181D02*
X37080952Y29895181D01*
X37080952Y29895181D02*
X37080952Y30895181D01*
X38414285Y29895181D02*
X37842857Y29895181D01*
X38128571Y29895181D02*
X38128571Y30895181D01*
X38128571Y30895181D02*
X38033333Y30752324D01*
X38033333Y30752324D02*
X37938095Y30657086D01*
X37938095Y30657086D02*
X37842857Y30609467D01*
X39033333Y30895181D02*
X39128571Y30895181D01*
X39128571Y30895181D02*
X39223809Y30847562D01*
X39223809Y30847562D02*
X39271428Y30799943D01*
X39271428Y30799943D02*
X39319047Y30704705D01*
X39319047Y30704705D02*
X39366666Y30514229D01*
X39366666Y30514229D02*
X39366666Y30276134D01*
X39366666Y30276134D02*
X39319047Y30085658D01*
X39319047Y30085658D02*
X39271428Y29990420D01*
X39271428Y29990420D02*
X39223809Y29942800D01*
X39223809Y29942800D02*
X39128571Y29895181D01*
X39128571Y29895181D02*
X39033333Y29895181D01*
X39033333Y29895181D02*
X38938095Y29942800D01*
X38938095Y29942800D02*
X38890476Y29990420D01*
X38890476Y29990420D02*
X38842857Y30085658D01*
X38842857Y30085658D02*
X38795238Y30276134D01*
X38795238Y30276134D02*
X38795238Y30514229D01*
X38795238Y30514229D02*
X38842857Y30704705D01*
X38842857Y30704705D02*
X38890476Y30799943D01*
X38890476Y30799943D02*
X38938095Y30847562D01*
X38938095Y30847562D02*
X39033333Y30895181D01*
X41495238Y29895181D02*
X40923810Y29895181D01*
X41209524Y29895181D02*
X41209524Y30895181D01*
X41209524Y30895181D02*
X41114286Y30752324D01*
X41114286Y30752324D02*
X41019048Y30657086D01*
X41019048Y30657086D02*
X40923810Y30609467D01*
X41923810Y29990420D02*
X41971429Y29942800D01*
X41971429Y29942800D02*
X41923810Y29895181D01*
X41923810Y29895181D02*
X41876191Y29942800D01*
X41876191Y29942800D02*
X41923810Y29990420D01*
X41923810Y29990420D02*
X41923810Y29895181D01*
X42590476Y30895181D02*
X42685714Y30895181D01*
X42685714Y30895181D02*
X42780952Y30847562D01*
X42780952Y30847562D02*
X42828571Y30799943D01*
X42828571Y30799943D02*
X42876190Y30704705D01*
X42876190Y30704705D02*
X42923809Y30514229D01*
X42923809Y30514229D02*
X42923809Y30276134D01*
X42923809Y30276134D02*
X42876190Y30085658D01*
X42876190Y30085658D02*
X42828571Y29990420D01*
X42828571Y29990420D02*
X42780952Y29942800D01*
X42780952Y29942800D02*
X42685714Y29895181D01*
X42685714Y29895181D02*
X42590476Y29895181D01*
X42590476Y29895181D02*
X42495238Y29942800D01*
X42495238Y29942800D02*
X42447619Y29990420D01*
X42447619Y29990420D02*
X42400000Y30085658D01*
X42400000Y30085658D02*
X42352381Y30276134D01*
X42352381Y30276134D02*
X42352381Y30514229D01*
X42352381Y30514229D02*
X42400000Y30704705D01*
X42400000Y30704705D02*
X42447619Y30799943D01*
X42447619Y30799943D02*
X42495238Y30847562D01*
X42495238Y30847562D02*
X42590476Y30895181D01*
X43780952Y30561848D02*
X43780952Y29895181D01*
X43352381Y30561848D02*
X43352381Y30038039D01*
X43352381Y30038039D02*
X43400000Y29942800D01*
X43400000Y29942800D02*
X43495238Y29895181D01*
X43495238Y29895181D02*
X43638095Y29895181D01*
X43638095Y29895181D02*
X43733333Y29942800D01*
X43733333Y29942800D02*
X43780952Y29990420D01*
X44257143Y29895181D02*
X44257143Y30895181D01*
X44257143Y30418991D02*
X44828571Y30418991D01*
X44828571Y29895181D02*
X44828571Y30895181D01*
X59982142Y51490420D02*
X59934523Y51442800D01*
X59934523Y51442800D02*
X59791666Y51395181D01*
X59791666Y51395181D02*
X59696428Y51395181D01*
X59696428Y51395181D02*
X59553571Y51442800D01*
X59553571Y51442800D02*
X59458333Y51538039D01*
X59458333Y51538039D02*
X59410714Y51633277D01*
X59410714Y51633277D02*
X59363095Y51823753D01*
X59363095Y51823753D02*
X59363095Y51966610D01*
X59363095Y51966610D02*
X59410714Y52157086D01*
X59410714Y52157086D02*
X59458333Y52252324D01*
X59458333Y52252324D02*
X59553571Y52347562D01*
X59553571Y52347562D02*
X59696428Y52395181D01*
X59696428Y52395181D02*
X59791666Y52395181D01*
X59791666Y52395181D02*
X59934523Y52347562D01*
X59934523Y52347562D02*
X59982142Y52299943D01*
X60363095Y52299943D02*
X60410714Y52347562D01*
X60410714Y52347562D02*
X60505952Y52395181D01*
X60505952Y52395181D02*
X60744047Y52395181D01*
X60744047Y52395181D02*
X60839285Y52347562D01*
X60839285Y52347562D02*
X60886904Y52299943D01*
X60886904Y52299943D02*
X60934523Y52204705D01*
X60934523Y52204705D02*
X60934523Y52109467D01*
X60934523Y52109467D02*
X60886904Y51966610D01*
X60886904Y51966610D02*
X60315476Y51395181D01*
X60315476Y51395181D02*
X60934523Y51395181D01*
X61315476Y52299943D02*
X61363095Y52347562D01*
X61363095Y52347562D02*
X61458333Y52395181D01*
X61458333Y52395181D02*
X61696428Y52395181D01*
X61696428Y52395181D02*
X61791666Y52347562D01*
X61791666Y52347562D02*
X61839285Y52299943D01*
X61839285Y52299943D02*
X61886904Y52204705D01*
X61886904Y52204705D02*
X61886904Y52109467D01*
X61886904Y52109467D02*
X61839285Y51966610D01*
X61839285Y51966610D02*
X61267857Y51395181D01*
X61267857Y51395181D02*
X61886904Y51395181D01*
X24083333Y60295181D02*
X23607143Y60295181D01*
X23607143Y60295181D02*
X23607143Y61295181D01*
X24369048Y61199943D02*
X24416667Y61247562D01*
X24416667Y61247562D02*
X24511905Y61295181D01*
X24511905Y61295181D02*
X24750000Y61295181D01*
X24750000Y61295181D02*
X24845238Y61247562D01*
X24845238Y61247562D02*
X24892857Y61199943D01*
X24892857Y61199943D02*
X24940476Y61104705D01*
X24940476Y61104705D02*
X24940476Y61009467D01*
X24940476Y61009467D02*
X24892857Y60866610D01*
X24892857Y60866610D02*
X24321429Y60295181D01*
X24321429Y60295181D02*
X24940476Y60295181D01*
X26685714Y61295181D02*
X26780952Y61295181D01*
X26780952Y61295181D02*
X26876190Y61247562D01*
X26876190Y61247562D02*
X26923809Y61199943D01*
X26923809Y61199943D02*
X26971428Y61104705D01*
X26971428Y61104705D02*
X27019047Y60914229D01*
X27019047Y60914229D02*
X27019047Y60676134D01*
X27019047Y60676134D02*
X26971428Y60485658D01*
X26971428Y60485658D02*
X26923809Y60390420D01*
X26923809Y60390420D02*
X26876190Y60342800D01*
X26876190Y60342800D02*
X26780952Y60295181D01*
X26780952Y60295181D02*
X26685714Y60295181D01*
X26685714Y60295181D02*
X26590476Y60342800D01*
X26590476Y60342800D02*
X26542857Y60390420D01*
X26542857Y60390420D02*
X26495238Y60485658D01*
X26495238Y60485658D02*
X26447619Y60676134D01*
X26447619Y60676134D02*
X26447619Y60914229D01*
X26447619Y60914229D02*
X26495238Y61104705D01*
X26495238Y61104705D02*
X26542857Y61199943D01*
X26542857Y61199943D02*
X26590476Y61247562D01*
X26590476Y61247562D02*
X26685714Y61295181D01*
X27447619Y60390420D02*
X27495238Y60342800D01*
X27495238Y60342800D02*
X27447619Y60295181D01*
X27447619Y60295181D02*
X27400000Y60342800D01*
X27400000Y60342800D02*
X27447619Y60390420D01*
X27447619Y60390420D02*
X27447619Y60295181D01*
X28447618Y60295181D02*
X27876190Y60295181D01*
X28161904Y60295181D02*
X28161904Y61295181D01*
X28161904Y61295181D02*
X28066666Y61152324D01*
X28066666Y61152324D02*
X27971428Y61057086D01*
X27971428Y61057086D02*
X27876190Y61009467D01*
X29304761Y61295181D02*
X29114285Y61295181D01*
X29114285Y61295181D02*
X29019047Y61247562D01*
X29019047Y61247562D02*
X28971428Y61199943D01*
X28971428Y61199943D02*
X28876190Y61057086D01*
X28876190Y61057086D02*
X28828571Y60866610D01*
X28828571Y60866610D02*
X28828571Y60485658D01*
X28828571Y60485658D02*
X28876190Y60390420D01*
X28876190Y60390420D02*
X28923809Y60342800D01*
X28923809Y60342800D02*
X29019047Y60295181D01*
X29019047Y60295181D02*
X29209523Y60295181D01*
X29209523Y60295181D02*
X29304761Y60342800D01*
X29304761Y60342800D02*
X29352380Y60390420D01*
X29352380Y60390420D02*
X29399999Y60485658D01*
X29399999Y60485658D02*
X29399999Y60723753D01*
X29399999Y60723753D02*
X29352380Y60818991D01*
X29352380Y60818991D02*
X29304761Y60866610D01*
X29304761Y60866610D02*
X29209523Y60914229D01*
X29209523Y60914229D02*
X29019047Y60914229D01*
X29019047Y60914229D02*
X28923809Y60866610D01*
X28923809Y60866610D02*
X28876190Y60818991D01*
X28876190Y60818991D02*
X28828571Y60723753D01*
X30257142Y60961848D02*
X30257142Y60295181D01*
X29828571Y60961848D02*
X29828571Y60438039D01*
X29828571Y60438039D02*
X29876190Y60342800D01*
X29876190Y60342800D02*
X29971428Y60295181D01*
X29971428Y60295181D02*
X30114285Y60295181D01*
X30114285Y60295181D02*
X30209523Y60342800D01*
X30209523Y60342800D02*
X30257142Y60390420D01*
X30733333Y60295181D02*
X30733333Y61295181D01*
X30733333Y60818991D02*
X31304761Y60818991D01*
X31304761Y60295181D02*
X31304761Y61295181D01*
X47107142Y50090420D02*
X47059523Y50042800D01*
X47059523Y50042800D02*
X46916666Y49995181D01*
X46916666Y49995181D02*
X46821428Y49995181D01*
X46821428Y49995181D02*
X46678571Y50042800D01*
X46678571Y50042800D02*
X46583333Y50138039D01*
X46583333Y50138039D02*
X46535714Y50233277D01*
X46535714Y50233277D02*
X46488095Y50423753D01*
X46488095Y50423753D02*
X46488095Y50566610D01*
X46488095Y50566610D02*
X46535714Y50757086D01*
X46535714Y50757086D02*
X46583333Y50852324D01*
X46583333Y50852324D02*
X46678571Y50947562D01*
X46678571Y50947562D02*
X46821428Y50995181D01*
X46821428Y50995181D02*
X46916666Y50995181D01*
X46916666Y50995181D02*
X47059523Y50947562D01*
X47059523Y50947562D02*
X47107142Y50899943D01*
X47488095Y50899943D02*
X47535714Y50947562D01*
X47535714Y50947562D02*
X47630952Y50995181D01*
X47630952Y50995181D02*
X47869047Y50995181D01*
X47869047Y50995181D02*
X47964285Y50947562D01*
X47964285Y50947562D02*
X48011904Y50899943D01*
X48011904Y50899943D02*
X48059523Y50804705D01*
X48059523Y50804705D02*
X48059523Y50709467D01*
X48059523Y50709467D02*
X48011904Y50566610D01*
X48011904Y50566610D02*
X47440476Y49995181D01*
X47440476Y49995181D02*
X48059523Y49995181D01*
X48392857Y50995181D02*
X49059523Y50995181D01*
X49059523Y50995181D02*
X48630952Y49995181D01*
X43857142Y64940420D02*
X43809523Y64892800D01*
X43809523Y64892800D02*
X43666666Y64845181D01*
X43666666Y64845181D02*
X43571428Y64845181D01*
X43571428Y64845181D02*
X43428571Y64892800D01*
X43428571Y64892800D02*
X43333333Y64988039D01*
X43333333Y64988039D02*
X43285714Y65083277D01*
X43285714Y65083277D02*
X43238095Y65273753D01*
X43238095Y65273753D02*
X43238095Y65416610D01*
X43238095Y65416610D02*
X43285714Y65607086D01*
X43285714Y65607086D02*
X43333333Y65702324D01*
X43333333Y65702324D02*
X43428571Y65797562D01*
X43428571Y65797562D02*
X43571428Y65845181D01*
X43571428Y65845181D02*
X43666666Y65845181D01*
X43666666Y65845181D02*
X43809523Y65797562D01*
X43809523Y65797562D02*
X43857142Y65749943D01*
X44809523Y64845181D02*
X44238095Y64845181D01*
X44523809Y64845181D02*
X44523809Y65845181D01*
X44523809Y65845181D02*
X44428571Y65702324D01*
X44428571Y65702324D02*
X44333333Y65607086D01*
X44333333Y65607086D02*
X44238095Y65559467D01*
X45666666Y65845181D02*
X45476190Y65845181D01*
X45476190Y65845181D02*
X45380952Y65797562D01*
X45380952Y65797562D02*
X45333333Y65749943D01*
X45333333Y65749943D02*
X45238095Y65607086D01*
X45238095Y65607086D02*
X45190476Y65416610D01*
X45190476Y65416610D02*
X45190476Y65035658D01*
X45190476Y65035658D02*
X45238095Y64940420D01*
X45238095Y64940420D02*
X45285714Y64892800D01*
X45285714Y64892800D02*
X45380952Y64845181D01*
X45380952Y64845181D02*
X45571428Y64845181D01*
X45571428Y64845181D02*
X45666666Y64892800D01*
X45666666Y64892800D02*
X45714285Y64940420D01*
X45714285Y64940420D02*
X45761904Y65035658D01*
X45761904Y65035658D02*
X45761904Y65273753D01*
X45761904Y65273753D02*
X45714285Y65368991D01*
X45714285Y65368991D02*
X45666666Y65416610D01*
X45666666Y65416610D02*
X45571428Y65464229D01*
X45571428Y65464229D02*
X45380952Y65464229D01*
X45380952Y65464229D02*
X45285714Y65416610D01*
X45285714Y65416610D02*
X45238095Y65368991D01*
X45238095Y65368991D02*
X45190476Y65273753D01*
X42480952Y64349943D02*
X42528571Y64397562D01*
X42528571Y64397562D02*
X42623809Y64445181D01*
X42623809Y64445181D02*
X42861904Y64445181D01*
X42861904Y64445181D02*
X42957142Y64397562D01*
X42957142Y64397562D02*
X43004761Y64349943D01*
X43004761Y64349943D02*
X43052380Y64254705D01*
X43052380Y64254705D02*
X43052380Y64159467D01*
X43052380Y64159467D02*
X43004761Y64016610D01*
X43004761Y64016610D02*
X42433333Y63445181D01*
X42433333Y63445181D02*
X43052380Y63445181D01*
X43385714Y64445181D02*
X44052380Y64445181D01*
X44052380Y64445181D02*
X43623809Y63445181D01*
X44623809Y64445181D02*
X44719047Y64445181D01*
X44719047Y64445181D02*
X44814285Y64397562D01*
X44814285Y64397562D02*
X44861904Y64349943D01*
X44861904Y64349943D02*
X44909523Y64254705D01*
X44909523Y64254705D02*
X44957142Y64064229D01*
X44957142Y64064229D02*
X44957142Y63826134D01*
X44957142Y63826134D02*
X44909523Y63635658D01*
X44909523Y63635658D02*
X44861904Y63540420D01*
X44861904Y63540420D02*
X44814285Y63492800D01*
X44814285Y63492800D02*
X44719047Y63445181D01*
X44719047Y63445181D02*
X44623809Y63445181D01*
X44623809Y63445181D02*
X44528571Y63492800D01*
X44528571Y63492800D02*
X44480952Y63540420D01*
X44480952Y63540420D02*
X44433333Y63635658D01*
X44433333Y63635658D02*
X44385714Y63826134D01*
X44385714Y63826134D02*
X44385714Y64064229D01*
X44385714Y64064229D02*
X44433333Y64254705D01*
X44433333Y64254705D02*
X44480952Y64349943D01*
X44480952Y64349943D02*
X44528571Y64397562D01*
X44528571Y64397562D02*
X44623809Y64445181D01*
X45385714Y64111848D02*
X45385714Y63111848D01*
X45385714Y64064229D02*
X45480952Y64111848D01*
X45480952Y64111848D02*
X45671428Y64111848D01*
X45671428Y64111848D02*
X45766666Y64064229D01*
X45766666Y64064229D02*
X45814285Y64016610D01*
X45814285Y64016610D02*
X45861904Y63921372D01*
X45861904Y63921372D02*
X45861904Y63635658D01*
X45861904Y63635658D02*
X45814285Y63540420D01*
X45814285Y63540420D02*
X45766666Y63492800D01*
X45766666Y63492800D02*
X45671428Y63445181D01*
X45671428Y63445181D02*
X45480952Y63445181D01*
X45480952Y63445181D02*
X45385714Y63492800D01*
X46623809Y63968991D02*
X46290476Y63968991D01*
X46290476Y63445181D02*
X46290476Y64445181D01*
X46290476Y64445181D02*
X46766666Y64445181D01*
X24333333Y40095181D02*
X23857143Y40095181D01*
X23857143Y40095181D02*
X23857143Y41095181D01*
X25095238Y40761848D02*
X25095238Y40095181D01*
X24857143Y41142800D02*
X24619048Y40428515D01*
X24619048Y40428515D02*
X25238095Y40428515D01*
X26785714Y41095181D02*
X26880952Y41095181D01*
X26880952Y41095181D02*
X26976190Y41047562D01*
X26976190Y41047562D02*
X27023809Y40999943D01*
X27023809Y40999943D02*
X27071428Y40904705D01*
X27071428Y40904705D02*
X27119047Y40714229D01*
X27119047Y40714229D02*
X27119047Y40476134D01*
X27119047Y40476134D02*
X27071428Y40285658D01*
X27071428Y40285658D02*
X27023809Y40190420D01*
X27023809Y40190420D02*
X26976190Y40142800D01*
X26976190Y40142800D02*
X26880952Y40095181D01*
X26880952Y40095181D02*
X26785714Y40095181D01*
X26785714Y40095181D02*
X26690476Y40142800D01*
X26690476Y40142800D02*
X26642857Y40190420D01*
X26642857Y40190420D02*
X26595238Y40285658D01*
X26595238Y40285658D02*
X26547619Y40476134D01*
X26547619Y40476134D02*
X26547619Y40714229D01*
X26547619Y40714229D02*
X26595238Y40904705D01*
X26595238Y40904705D02*
X26642857Y40999943D01*
X26642857Y40999943D02*
X26690476Y41047562D01*
X26690476Y41047562D02*
X26785714Y41095181D01*
X27547619Y40190420D02*
X27595238Y40142800D01*
X27595238Y40142800D02*
X27547619Y40095181D01*
X27547619Y40095181D02*
X27500000Y40142800D01*
X27500000Y40142800D02*
X27547619Y40190420D01*
X27547619Y40190420D02*
X27547619Y40095181D01*
X28499999Y41095181D02*
X28023809Y41095181D01*
X28023809Y41095181D02*
X27976190Y40618991D01*
X27976190Y40618991D02*
X28023809Y40666610D01*
X28023809Y40666610D02*
X28119047Y40714229D01*
X28119047Y40714229D02*
X28357142Y40714229D01*
X28357142Y40714229D02*
X28452380Y40666610D01*
X28452380Y40666610D02*
X28499999Y40618991D01*
X28499999Y40618991D02*
X28547618Y40523753D01*
X28547618Y40523753D02*
X28547618Y40285658D01*
X28547618Y40285658D02*
X28499999Y40190420D01*
X28499999Y40190420D02*
X28452380Y40142800D01*
X28452380Y40142800D02*
X28357142Y40095181D01*
X28357142Y40095181D02*
X28119047Y40095181D01*
X28119047Y40095181D02*
X28023809Y40142800D01*
X28023809Y40142800D02*
X27976190Y40190420D01*
X29452380Y41095181D02*
X28976190Y41095181D01*
X28976190Y41095181D02*
X28928571Y40618991D01*
X28928571Y40618991D02*
X28976190Y40666610D01*
X28976190Y40666610D02*
X29071428Y40714229D01*
X29071428Y40714229D02*
X29309523Y40714229D01*
X29309523Y40714229D02*
X29404761Y40666610D01*
X29404761Y40666610D02*
X29452380Y40618991D01*
X29452380Y40618991D02*
X29499999Y40523753D01*
X29499999Y40523753D02*
X29499999Y40285658D01*
X29499999Y40285658D02*
X29452380Y40190420D01*
X29452380Y40190420D02*
X29404761Y40142800D01*
X29404761Y40142800D02*
X29309523Y40095181D01*
X29309523Y40095181D02*
X29071428Y40095181D01*
X29071428Y40095181D02*
X28976190Y40142800D01*
X28976190Y40142800D02*
X28928571Y40190420D01*
X30357142Y40761848D02*
X30357142Y40095181D01*
X29928571Y40761848D02*
X29928571Y40238039D01*
X29928571Y40238039D02*
X29976190Y40142800D01*
X29976190Y40142800D02*
X30071428Y40095181D01*
X30071428Y40095181D02*
X30214285Y40095181D01*
X30214285Y40095181D02*
X30309523Y40142800D01*
X30309523Y40142800D02*
X30357142Y40190420D01*
X30833333Y40095181D02*
X30833333Y41095181D01*
X30833333Y40618991D02*
X31404761Y40618991D01*
X31404761Y40095181D02*
X31404761Y41095181D01*
X22207142Y24690420D02*
X22159523Y24642800D01*
X22159523Y24642800D02*
X22016666Y24595181D01*
X22016666Y24595181D02*
X21921428Y24595181D01*
X21921428Y24595181D02*
X21778571Y24642800D01*
X21778571Y24642800D02*
X21683333Y24738039D01*
X21683333Y24738039D02*
X21635714Y24833277D01*
X21635714Y24833277D02*
X21588095Y25023753D01*
X21588095Y25023753D02*
X21588095Y25166610D01*
X21588095Y25166610D02*
X21635714Y25357086D01*
X21635714Y25357086D02*
X21683333Y25452324D01*
X21683333Y25452324D02*
X21778571Y25547562D01*
X21778571Y25547562D02*
X21921428Y25595181D01*
X21921428Y25595181D02*
X22016666Y25595181D01*
X22016666Y25595181D02*
X22159523Y25547562D01*
X22159523Y25547562D02*
X22207142Y25499943D01*
X23159523Y24595181D02*
X22588095Y24595181D01*
X22873809Y24595181D02*
X22873809Y25595181D01*
X22873809Y25595181D02*
X22778571Y25452324D01*
X22778571Y25452324D02*
X22683333Y25357086D01*
X22683333Y25357086D02*
X22588095Y25309467D01*
X23778571Y25595181D02*
X23873809Y25595181D01*
X23873809Y25595181D02*
X23969047Y25547562D01*
X23969047Y25547562D02*
X24016666Y25499943D01*
X24016666Y25499943D02*
X24064285Y25404705D01*
X24064285Y25404705D02*
X24111904Y25214229D01*
X24111904Y25214229D02*
X24111904Y24976134D01*
X24111904Y24976134D02*
X24064285Y24785658D01*
X24064285Y24785658D02*
X24016666Y24690420D01*
X24016666Y24690420D02*
X23969047Y24642800D01*
X23969047Y24642800D02*
X23873809Y24595181D01*
X23873809Y24595181D02*
X23778571Y24595181D01*
X23778571Y24595181D02*
X23683333Y24642800D01*
X23683333Y24642800D02*
X23635714Y24690420D01*
X23635714Y24690420D02*
X23588095Y24785658D01*
X23588095Y24785658D02*
X23540476Y24976134D01*
X23540476Y24976134D02*
X23540476Y25214229D01*
X23540476Y25214229D02*
X23588095Y25404705D01*
X23588095Y25404705D02*
X23635714Y25499943D01*
X23635714Y25499943D02*
X23683333Y25547562D01*
X23683333Y25547562D02*
X23778571Y25595181D01*
X21704762Y24049943D02*
X21752381Y24097562D01*
X21752381Y24097562D02*
X21847619Y24145181D01*
X21847619Y24145181D02*
X22085714Y24145181D01*
X22085714Y24145181D02*
X22180952Y24097562D01*
X22180952Y24097562D02*
X22228571Y24049943D01*
X22228571Y24049943D02*
X22276190Y23954705D01*
X22276190Y23954705D02*
X22276190Y23859467D01*
X22276190Y23859467D02*
X22228571Y23716610D01*
X22228571Y23716610D02*
X21657143Y23145181D01*
X21657143Y23145181D02*
X22276190Y23145181D01*
X22895238Y24145181D02*
X22990476Y24145181D01*
X22990476Y24145181D02*
X23085714Y24097562D01*
X23085714Y24097562D02*
X23133333Y24049943D01*
X23133333Y24049943D02*
X23180952Y23954705D01*
X23180952Y23954705D02*
X23228571Y23764229D01*
X23228571Y23764229D02*
X23228571Y23526134D01*
X23228571Y23526134D02*
X23180952Y23335658D01*
X23180952Y23335658D02*
X23133333Y23240420D01*
X23133333Y23240420D02*
X23085714Y23192800D01*
X23085714Y23192800D02*
X22990476Y23145181D01*
X22990476Y23145181D02*
X22895238Y23145181D01*
X22895238Y23145181D02*
X22800000Y23192800D01*
X22800000Y23192800D02*
X22752381Y23240420D01*
X22752381Y23240420D02*
X22704762Y23335658D01*
X22704762Y23335658D02*
X22657143Y23526134D01*
X22657143Y23526134D02*
X22657143Y23764229D01*
X22657143Y23764229D02*
X22704762Y23954705D01*
X22704762Y23954705D02*
X22752381Y24049943D01*
X22752381Y24049943D02*
X22800000Y24097562D01*
X22800000Y24097562D02*
X22895238Y24145181D01*
X23847619Y24145181D02*
X23942857Y24145181D01*
X23942857Y24145181D02*
X24038095Y24097562D01*
X24038095Y24097562D02*
X24085714Y24049943D01*
X24085714Y24049943D02*
X24133333Y23954705D01*
X24133333Y23954705D02*
X24180952Y23764229D01*
X24180952Y23764229D02*
X24180952Y23526134D01*
X24180952Y23526134D02*
X24133333Y23335658D01*
X24133333Y23335658D02*
X24085714Y23240420D01*
X24085714Y23240420D02*
X24038095Y23192800D01*
X24038095Y23192800D02*
X23942857Y23145181D01*
X23942857Y23145181D02*
X23847619Y23145181D01*
X23847619Y23145181D02*
X23752381Y23192800D01*
X23752381Y23192800D02*
X23704762Y23240420D01*
X23704762Y23240420D02*
X23657143Y23335658D01*
X23657143Y23335658D02*
X23609524Y23526134D01*
X23609524Y23526134D02*
X23609524Y23764229D01*
X23609524Y23764229D02*
X23657143Y23954705D01*
X23657143Y23954705D02*
X23704762Y24049943D01*
X23704762Y24049943D02*
X23752381Y24097562D01*
X23752381Y24097562D02*
X23847619Y24145181D01*
X24800000Y24145181D02*
X24895238Y24145181D01*
X24895238Y24145181D02*
X24990476Y24097562D01*
X24990476Y24097562D02*
X25038095Y24049943D01*
X25038095Y24049943D02*
X25085714Y23954705D01*
X25085714Y23954705D02*
X25133333Y23764229D01*
X25133333Y23764229D02*
X25133333Y23526134D01*
X25133333Y23526134D02*
X25085714Y23335658D01*
X25085714Y23335658D02*
X25038095Y23240420D01*
X25038095Y23240420D02*
X24990476Y23192800D01*
X24990476Y23192800D02*
X24895238Y23145181D01*
X24895238Y23145181D02*
X24800000Y23145181D01*
X24800000Y23145181D02*
X24704762Y23192800D01*
X24704762Y23192800D02*
X24657143Y23240420D01*
X24657143Y23240420D02*
X24609524Y23335658D01*
X24609524Y23335658D02*
X24561905Y23526134D01*
X24561905Y23526134D02*
X24561905Y23764229D01*
X24561905Y23764229D02*
X24609524Y23954705D01*
X24609524Y23954705D02*
X24657143Y24049943D01*
X24657143Y24049943D02*
X24704762Y24097562D01*
X24704762Y24097562D02*
X24800000Y24145181D01*
X25561905Y23811848D02*
X25561905Y22811848D01*
X25561905Y23764229D02*
X25657143Y23811848D01*
X25657143Y23811848D02*
X25847619Y23811848D01*
X25847619Y23811848D02*
X25942857Y23764229D01*
X25942857Y23764229D02*
X25990476Y23716610D01*
X25990476Y23716610D02*
X26038095Y23621372D01*
X26038095Y23621372D02*
X26038095Y23335658D01*
X26038095Y23335658D02*
X25990476Y23240420D01*
X25990476Y23240420D02*
X25942857Y23192800D01*
X25942857Y23192800D02*
X25847619Y23145181D01*
X25847619Y23145181D02*
X25657143Y23145181D01*
X25657143Y23145181D02*
X25561905Y23192800D01*
X26800000Y23668991D02*
X26466667Y23668991D01*
X26466667Y23145181D02*
X26466667Y24145181D01*
X26466667Y24145181D02*
X26942857Y24145181D01*
X36207142Y24140420D02*
X36159523Y24092800D01*
X36159523Y24092800D02*
X36016666Y24045181D01*
X36016666Y24045181D02*
X35921428Y24045181D01*
X35921428Y24045181D02*
X35778571Y24092800D01*
X35778571Y24092800D02*
X35683333Y24188039D01*
X35683333Y24188039D02*
X35635714Y24283277D01*
X35635714Y24283277D02*
X35588095Y24473753D01*
X35588095Y24473753D02*
X35588095Y24616610D01*
X35588095Y24616610D02*
X35635714Y24807086D01*
X35635714Y24807086D02*
X35683333Y24902324D01*
X35683333Y24902324D02*
X35778571Y24997562D01*
X35778571Y24997562D02*
X35921428Y25045181D01*
X35921428Y25045181D02*
X36016666Y25045181D01*
X36016666Y25045181D02*
X36159523Y24997562D01*
X36159523Y24997562D02*
X36207142Y24949943D01*
X37159523Y24045181D02*
X36588095Y24045181D01*
X36873809Y24045181D02*
X36873809Y25045181D01*
X36873809Y25045181D02*
X36778571Y24902324D01*
X36778571Y24902324D02*
X36683333Y24807086D01*
X36683333Y24807086D02*
X36588095Y24759467D01*
X38064285Y25045181D02*
X37588095Y25045181D01*
X37588095Y25045181D02*
X37540476Y24568991D01*
X37540476Y24568991D02*
X37588095Y24616610D01*
X37588095Y24616610D02*
X37683333Y24664229D01*
X37683333Y24664229D02*
X37921428Y24664229D01*
X37921428Y24664229D02*
X38016666Y24616610D01*
X38016666Y24616610D02*
X38064285Y24568991D01*
X38064285Y24568991D02*
X38111904Y24473753D01*
X38111904Y24473753D02*
X38111904Y24235658D01*
X38111904Y24235658D02*
X38064285Y24140420D01*
X38064285Y24140420D02*
X38016666Y24092800D01*
X38016666Y24092800D02*
X37921428Y24045181D01*
X37921428Y24045181D02*
X37683333Y24045181D01*
X37683333Y24045181D02*
X37588095Y24092800D01*
X37588095Y24092800D02*
X37540476Y24140420D01*
X35980952Y23211848D02*
X35980952Y22545181D01*
X35742857Y23592800D02*
X35504762Y22878515D01*
X35504762Y22878515D02*
X36123809Y22878515D01*
X36409524Y23545181D02*
X37076190Y23545181D01*
X37076190Y23545181D02*
X36647619Y22545181D01*
X37647619Y23545181D02*
X37742857Y23545181D01*
X37742857Y23545181D02*
X37838095Y23497562D01*
X37838095Y23497562D02*
X37885714Y23449943D01*
X37885714Y23449943D02*
X37933333Y23354705D01*
X37933333Y23354705D02*
X37980952Y23164229D01*
X37980952Y23164229D02*
X37980952Y22926134D01*
X37980952Y22926134D02*
X37933333Y22735658D01*
X37933333Y22735658D02*
X37885714Y22640420D01*
X37885714Y22640420D02*
X37838095Y22592800D01*
X37838095Y22592800D02*
X37742857Y22545181D01*
X37742857Y22545181D02*
X37647619Y22545181D01*
X37647619Y22545181D02*
X37552381Y22592800D01*
X37552381Y22592800D02*
X37504762Y22640420D01*
X37504762Y22640420D02*
X37457143Y22735658D01*
X37457143Y22735658D02*
X37409524Y22926134D01*
X37409524Y22926134D02*
X37409524Y23164229D01*
X37409524Y23164229D02*
X37457143Y23354705D01*
X37457143Y23354705D02*
X37504762Y23449943D01*
X37504762Y23449943D02*
X37552381Y23497562D01*
X37552381Y23497562D02*
X37647619Y23545181D01*
X38600000Y23545181D02*
X38695238Y23545181D01*
X38695238Y23545181D02*
X38790476Y23497562D01*
X38790476Y23497562D02*
X38838095Y23449943D01*
X38838095Y23449943D02*
X38885714Y23354705D01*
X38885714Y23354705D02*
X38933333Y23164229D01*
X38933333Y23164229D02*
X38933333Y22926134D01*
X38933333Y22926134D02*
X38885714Y22735658D01*
X38885714Y22735658D02*
X38838095Y22640420D01*
X38838095Y22640420D02*
X38790476Y22592800D01*
X38790476Y22592800D02*
X38695238Y22545181D01*
X38695238Y22545181D02*
X38600000Y22545181D01*
X38600000Y22545181D02*
X38504762Y22592800D01*
X38504762Y22592800D02*
X38457143Y22640420D01*
X38457143Y22640420D02*
X38409524Y22735658D01*
X38409524Y22735658D02*
X38361905Y22926134D01*
X38361905Y22926134D02*
X38361905Y23164229D01*
X38361905Y23164229D02*
X38409524Y23354705D01*
X38409524Y23354705D02*
X38457143Y23449943D01*
X38457143Y23449943D02*
X38504762Y23497562D01*
X38504762Y23497562D02*
X38600000Y23545181D01*
X39361905Y23211848D02*
X39361905Y22211848D01*
X39361905Y23164229D02*
X39457143Y23211848D01*
X39457143Y23211848D02*
X39647619Y23211848D01*
X39647619Y23211848D02*
X39742857Y23164229D01*
X39742857Y23164229D02*
X39790476Y23116610D01*
X39790476Y23116610D02*
X39838095Y23021372D01*
X39838095Y23021372D02*
X39838095Y22735658D01*
X39838095Y22735658D02*
X39790476Y22640420D01*
X39790476Y22640420D02*
X39742857Y22592800D01*
X39742857Y22592800D02*
X39647619Y22545181D01*
X39647619Y22545181D02*
X39457143Y22545181D01*
X39457143Y22545181D02*
X39361905Y22592800D01*
X40600000Y23068991D02*
X40266667Y23068991D01*
X40266667Y22545181D02*
X40266667Y23545181D01*
X40266667Y23545181D02*
X40742857Y23545181D01*
X8858333Y56290420D02*
X8810714Y56242800D01*
X8810714Y56242800D02*
X8667857Y56195181D01*
X8667857Y56195181D02*
X8572619Y56195181D01*
X8572619Y56195181D02*
X8429762Y56242800D01*
X8429762Y56242800D02*
X8334524Y56338039D01*
X8334524Y56338039D02*
X8286905Y56433277D01*
X8286905Y56433277D02*
X8239286Y56623753D01*
X8239286Y56623753D02*
X8239286Y56766610D01*
X8239286Y56766610D02*
X8286905Y56957086D01*
X8286905Y56957086D02*
X8334524Y57052324D01*
X8334524Y57052324D02*
X8429762Y57147562D01*
X8429762Y57147562D02*
X8572619Y57195181D01*
X8572619Y57195181D02*
X8667857Y57195181D01*
X8667857Y57195181D02*
X8810714Y57147562D01*
X8810714Y57147562D02*
X8858333Y57099943D01*
X9810714Y56195181D02*
X9239286Y56195181D01*
X9525000Y56195181D02*
X9525000Y57195181D01*
X9525000Y57195181D02*
X9429762Y57052324D01*
X9429762Y57052324D02*
X9334524Y56957086D01*
X9334524Y56957086D02*
X9239286Y56909467D01*
X8833333Y41790420D02*
X8785714Y41742800D01*
X8785714Y41742800D02*
X8642857Y41695181D01*
X8642857Y41695181D02*
X8547619Y41695181D01*
X8547619Y41695181D02*
X8404762Y41742800D01*
X8404762Y41742800D02*
X8309524Y41838039D01*
X8309524Y41838039D02*
X8261905Y41933277D01*
X8261905Y41933277D02*
X8214286Y42123753D01*
X8214286Y42123753D02*
X8214286Y42266610D01*
X8214286Y42266610D02*
X8261905Y42457086D01*
X8261905Y42457086D02*
X8309524Y42552324D01*
X8309524Y42552324D02*
X8404762Y42647562D01*
X8404762Y42647562D02*
X8547619Y42695181D01*
X8547619Y42695181D02*
X8642857Y42695181D01*
X8642857Y42695181D02*
X8785714Y42647562D01*
X8785714Y42647562D02*
X8833333Y42599943D01*
X9738095Y42695181D02*
X9261905Y42695181D01*
X9261905Y42695181D02*
X9214286Y42218991D01*
X9214286Y42218991D02*
X9261905Y42266610D01*
X9261905Y42266610D02*
X9357143Y42314229D01*
X9357143Y42314229D02*
X9595238Y42314229D01*
X9595238Y42314229D02*
X9690476Y42266610D01*
X9690476Y42266610D02*
X9738095Y42218991D01*
X9738095Y42218991D02*
X9785714Y42123753D01*
X9785714Y42123753D02*
X9785714Y41885658D01*
X9785714Y41885658D02*
X9738095Y41790420D01*
X9738095Y41790420D02*
X9690476Y41742800D01*
X9690476Y41742800D02*
X9595238Y41695181D01*
X9595238Y41695181D02*
X9357143Y41695181D01*
X9357143Y41695181D02*
X9261905Y41742800D01*
X9261905Y41742800D02*
X9214286Y41790420D01*
X7309524Y38995181D02*
X7404762Y38995181D01*
X7404762Y38995181D02*
X7500000Y38947562D01*
X7500000Y38947562D02*
X7547619Y38899943D01*
X7547619Y38899943D02*
X7595238Y38804705D01*
X7595238Y38804705D02*
X7642857Y38614229D01*
X7642857Y38614229D02*
X7642857Y38376134D01*
X7642857Y38376134D02*
X7595238Y38185658D01*
X7595238Y38185658D02*
X7547619Y38090420D01*
X7547619Y38090420D02*
X7500000Y38042800D01*
X7500000Y38042800D02*
X7404762Y37995181D01*
X7404762Y37995181D02*
X7309524Y37995181D01*
X7309524Y37995181D02*
X7214286Y38042800D01*
X7214286Y38042800D02*
X7166667Y38090420D01*
X7166667Y38090420D02*
X7119048Y38185658D01*
X7119048Y38185658D02*
X7071429Y38376134D01*
X7071429Y38376134D02*
X7071429Y38614229D01*
X7071429Y38614229D02*
X7119048Y38804705D01*
X7119048Y38804705D02*
X7166667Y38899943D01*
X7166667Y38899943D02*
X7214286Y38947562D01*
X7214286Y38947562D02*
X7309524Y38995181D01*
X8071429Y38090420D02*
X8119048Y38042800D01*
X8119048Y38042800D02*
X8071429Y37995181D01*
X8071429Y37995181D02*
X8023810Y38042800D01*
X8023810Y38042800D02*
X8071429Y38090420D01*
X8071429Y38090420D02*
X8071429Y37995181D01*
X8738095Y38995181D02*
X8833333Y38995181D01*
X8833333Y38995181D02*
X8928571Y38947562D01*
X8928571Y38947562D02*
X8976190Y38899943D01*
X8976190Y38899943D02*
X9023809Y38804705D01*
X9023809Y38804705D02*
X9071428Y38614229D01*
X9071428Y38614229D02*
X9071428Y38376134D01*
X9071428Y38376134D02*
X9023809Y38185658D01*
X9023809Y38185658D02*
X8976190Y38090420D01*
X8976190Y38090420D02*
X8928571Y38042800D01*
X8928571Y38042800D02*
X8833333Y37995181D01*
X8833333Y37995181D02*
X8738095Y37995181D01*
X8738095Y37995181D02*
X8642857Y38042800D01*
X8642857Y38042800D02*
X8595238Y38090420D01*
X8595238Y38090420D02*
X8547619Y38185658D01*
X8547619Y38185658D02*
X8500000Y38376134D01*
X8500000Y38376134D02*
X8500000Y38614229D01*
X8500000Y38614229D02*
X8547619Y38804705D01*
X8547619Y38804705D02*
X8595238Y38899943D01*
X8595238Y38899943D02*
X8642857Y38947562D01*
X8642857Y38947562D02*
X8738095Y38995181D01*
X10023809Y37995181D02*
X9452381Y37995181D01*
X9738095Y37995181D02*
X9738095Y38995181D01*
X9738095Y38995181D02*
X9642857Y38852324D01*
X9642857Y38852324D02*
X9547619Y38757086D01*
X9547619Y38757086D02*
X9452381Y38709467D01*
X10880952Y38661848D02*
X10880952Y37995181D01*
X10452381Y38661848D02*
X10452381Y38138039D01*
X10452381Y38138039D02*
X10500000Y38042800D01*
X10500000Y38042800D02*
X10595238Y37995181D01*
X10595238Y37995181D02*
X10738095Y37995181D01*
X10738095Y37995181D02*
X10833333Y38042800D01*
X10833333Y38042800D02*
X10880952Y38090420D01*
X1016666Y53145181D02*
X1016666Y52430896D01*
X1016666Y52430896D02*
X969047Y52288039D01*
X969047Y52288039D02*
X873809Y52192800D01*
X873809Y52192800D02*
X730952Y52145181D01*
X730952Y52145181D02*
X635714Y52145181D01*
X2016666Y52145181D02*
X1445238Y52145181D01*
X1730952Y52145181D02*
X1730952Y53145181D01*
X1730952Y53145181D02*
X1635714Y53002324D01*
X1635714Y53002324D02*
X1540476Y52907086D01*
X1540476Y52907086D02*
X1445238Y52859467D01*
X22383333Y34840420D02*
X22335714Y34792800D01*
X22335714Y34792800D02*
X22192857Y34745181D01*
X22192857Y34745181D02*
X22097619Y34745181D01*
X22097619Y34745181D02*
X21954762Y34792800D01*
X21954762Y34792800D02*
X21859524Y34888039D01*
X21859524Y34888039D02*
X21811905Y34983277D01*
X21811905Y34983277D02*
X21764286Y35173753D01*
X21764286Y35173753D02*
X21764286Y35316610D01*
X21764286Y35316610D02*
X21811905Y35507086D01*
X21811905Y35507086D02*
X21859524Y35602324D01*
X21859524Y35602324D02*
X21954762Y35697562D01*
X21954762Y35697562D02*
X22097619Y35745181D01*
X22097619Y35745181D02*
X22192857Y35745181D01*
X22192857Y35745181D02*
X22335714Y35697562D01*
X22335714Y35697562D02*
X22383333Y35649943D01*
X22859524Y34745181D02*
X23050000Y34745181D01*
X23050000Y34745181D02*
X23145238Y34792800D01*
X23145238Y34792800D02*
X23192857Y34840420D01*
X23192857Y34840420D02*
X23288095Y34983277D01*
X23288095Y34983277D02*
X23335714Y35173753D01*
X23335714Y35173753D02*
X23335714Y35554705D01*
X23335714Y35554705D02*
X23288095Y35649943D01*
X23288095Y35649943D02*
X23240476Y35697562D01*
X23240476Y35697562D02*
X23145238Y35745181D01*
X23145238Y35745181D02*
X22954762Y35745181D01*
X22954762Y35745181D02*
X22859524Y35697562D01*
X22859524Y35697562D02*
X22811905Y35649943D01*
X22811905Y35649943D02*
X22764286Y35554705D01*
X22764286Y35554705D02*
X22764286Y35316610D01*
X22764286Y35316610D02*
X22811905Y35221372D01*
X22811905Y35221372D02*
X22859524Y35173753D01*
X22859524Y35173753D02*
X22954762Y35126134D01*
X22954762Y35126134D02*
X23145238Y35126134D01*
X23145238Y35126134D02*
X23240476Y35173753D01*
X23240476Y35173753D02*
X23288095Y35221372D01*
X23288095Y35221372D02*
X23335714Y35316610D01*
X22376190Y33245181D02*
X21804762Y33245181D01*
X22090476Y33245181D02*
X22090476Y34245181D01*
X22090476Y34245181D02*
X21995238Y34102324D01*
X21995238Y34102324D02*
X21900000Y34007086D01*
X21900000Y34007086D02*
X21804762Y33959467D01*
X23328571Y33245181D02*
X22757143Y33245181D01*
X23042857Y33245181D02*
X23042857Y34245181D01*
X23042857Y34245181D02*
X22947619Y34102324D01*
X22947619Y34102324D02*
X22852381Y34007086D01*
X22852381Y34007086D02*
X22757143Y33959467D01*
X23947619Y34245181D02*
X24042857Y34245181D01*
X24042857Y34245181D02*
X24138095Y34197562D01*
X24138095Y34197562D02*
X24185714Y34149943D01*
X24185714Y34149943D02*
X24233333Y34054705D01*
X24233333Y34054705D02*
X24280952Y33864229D01*
X24280952Y33864229D02*
X24280952Y33626134D01*
X24280952Y33626134D02*
X24233333Y33435658D01*
X24233333Y33435658D02*
X24185714Y33340420D01*
X24185714Y33340420D02*
X24138095Y33292800D01*
X24138095Y33292800D02*
X24042857Y33245181D01*
X24042857Y33245181D02*
X23947619Y33245181D01*
X23947619Y33245181D02*
X23852381Y33292800D01*
X23852381Y33292800D02*
X23804762Y33340420D01*
X23804762Y33340420D02*
X23757143Y33435658D01*
X23757143Y33435658D02*
X23709524Y33626134D01*
X23709524Y33626134D02*
X23709524Y33864229D01*
X23709524Y33864229D02*
X23757143Y34054705D01*
X23757143Y34054705D02*
X23804762Y34149943D01*
X23804762Y34149943D02*
X23852381Y34197562D01*
X23852381Y34197562D02*
X23947619Y34245181D01*
X24900000Y34245181D02*
X24995238Y34245181D01*
X24995238Y34245181D02*
X25090476Y34197562D01*
X25090476Y34197562D02*
X25138095Y34149943D01*
X25138095Y34149943D02*
X25185714Y34054705D01*
X25185714Y34054705D02*
X25233333Y33864229D01*
X25233333Y33864229D02*
X25233333Y33626134D01*
X25233333Y33626134D02*
X25185714Y33435658D01*
X25185714Y33435658D02*
X25138095Y33340420D01*
X25138095Y33340420D02*
X25090476Y33292800D01*
X25090476Y33292800D02*
X24995238Y33245181D01*
X24995238Y33245181D02*
X24900000Y33245181D01*
X24900000Y33245181D02*
X24804762Y33292800D01*
X24804762Y33292800D02*
X24757143Y33340420D01*
X24757143Y33340420D02*
X24709524Y33435658D01*
X24709524Y33435658D02*
X24661905Y33626134D01*
X24661905Y33626134D02*
X24661905Y33864229D01*
X24661905Y33864229D02*
X24709524Y34054705D01*
X24709524Y34054705D02*
X24757143Y34149943D01*
X24757143Y34149943D02*
X24804762Y34197562D01*
X24804762Y34197562D02*
X24900000Y34245181D01*
X25661905Y33911848D02*
X25661905Y32911848D01*
X25661905Y33864229D02*
X25757143Y33911848D01*
X25757143Y33911848D02*
X25947619Y33911848D01*
X25947619Y33911848D02*
X26042857Y33864229D01*
X26042857Y33864229D02*
X26090476Y33816610D01*
X26090476Y33816610D02*
X26138095Y33721372D01*
X26138095Y33721372D02*
X26138095Y33435658D01*
X26138095Y33435658D02*
X26090476Y33340420D01*
X26090476Y33340420D02*
X26042857Y33292800D01*
X26042857Y33292800D02*
X25947619Y33245181D01*
X25947619Y33245181D02*
X25757143Y33245181D01*
X25757143Y33245181D02*
X25661905Y33292800D01*
X26900000Y33768991D02*
X26566667Y33768991D01*
X26566667Y33245181D02*
X26566667Y34245181D01*
X26566667Y34245181D02*
X27042857Y34245181D01*
X59957142Y55290420D02*
X59909523Y55242800D01*
X59909523Y55242800D02*
X59766666Y55195181D01*
X59766666Y55195181D02*
X59671428Y55195181D01*
X59671428Y55195181D02*
X59528571Y55242800D01*
X59528571Y55242800D02*
X59433333Y55338039D01*
X59433333Y55338039D02*
X59385714Y55433277D01*
X59385714Y55433277D02*
X59338095Y55623753D01*
X59338095Y55623753D02*
X59338095Y55766610D01*
X59338095Y55766610D02*
X59385714Y55957086D01*
X59385714Y55957086D02*
X59433333Y56052324D01*
X59433333Y56052324D02*
X59528571Y56147562D01*
X59528571Y56147562D02*
X59671428Y56195181D01*
X59671428Y56195181D02*
X59766666Y56195181D01*
X59766666Y56195181D02*
X59909523Y56147562D01*
X59909523Y56147562D02*
X59957142Y56099943D01*
X60338095Y56099943D02*
X60385714Y56147562D01*
X60385714Y56147562D02*
X60480952Y56195181D01*
X60480952Y56195181D02*
X60719047Y56195181D01*
X60719047Y56195181D02*
X60814285Y56147562D01*
X60814285Y56147562D02*
X60861904Y56099943D01*
X60861904Y56099943D02*
X60909523Y56004705D01*
X60909523Y56004705D02*
X60909523Y55909467D01*
X60909523Y55909467D02*
X60861904Y55766610D01*
X60861904Y55766610D02*
X60290476Y55195181D01*
X60290476Y55195181D02*
X60909523Y55195181D01*
X61861904Y55195181D02*
X61290476Y55195181D01*
X61576190Y55195181D02*
X61576190Y56195181D01*
X61576190Y56195181D02*
X61480952Y56052324D01*
X61480952Y56052324D02*
X61385714Y55957086D01*
X61385714Y55957086D02*
X61290476Y55909467D01*
X8833333Y45490420D02*
X8785714Y45442800D01*
X8785714Y45442800D02*
X8642857Y45395181D01*
X8642857Y45395181D02*
X8547619Y45395181D01*
X8547619Y45395181D02*
X8404762Y45442800D01*
X8404762Y45442800D02*
X8309524Y45538039D01*
X8309524Y45538039D02*
X8261905Y45633277D01*
X8261905Y45633277D02*
X8214286Y45823753D01*
X8214286Y45823753D02*
X8214286Y45966610D01*
X8214286Y45966610D02*
X8261905Y46157086D01*
X8261905Y46157086D02*
X8309524Y46252324D01*
X8309524Y46252324D02*
X8404762Y46347562D01*
X8404762Y46347562D02*
X8547619Y46395181D01*
X8547619Y46395181D02*
X8642857Y46395181D01*
X8642857Y46395181D02*
X8785714Y46347562D01*
X8785714Y46347562D02*
X8833333Y46299943D01*
X9690476Y46061848D02*
X9690476Y45395181D01*
X9452381Y46442800D02*
X9214286Y45728515D01*
X9214286Y45728515D02*
X9833333Y45728515D01*
X22483333Y65290420D02*
X22435714Y65242800D01*
X22435714Y65242800D02*
X22292857Y65195181D01*
X22292857Y65195181D02*
X22197619Y65195181D01*
X22197619Y65195181D02*
X22054762Y65242800D01*
X22054762Y65242800D02*
X21959524Y65338039D01*
X21959524Y65338039D02*
X21911905Y65433277D01*
X21911905Y65433277D02*
X21864286Y65623753D01*
X21864286Y65623753D02*
X21864286Y65766610D01*
X21864286Y65766610D02*
X21911905Y65957086D01*
X21911905Y65957086D02*
X21959524Y66052324D01*
X21959524Y66052324D02*
X22054762Y66147562D01*
X22054762Y66147562D02*
X22197619Y66195181D01*
X22197619Y66195181D02*
X22292857Y66195181D01*
X22292857Y66195181D02*
X22435714Y66147562D01*
X22435714Y66147562D02*
X22483333Y66099943D01*
X23340476Y66195181D02*
X23150000Y66195181D01*
X23150000Y66195181D02*
X23054762Y66147562D01*
X23054762Y66147562D02*
X23007143Y66099943D01*
X23007143Y66099943D02*
X22911905Y65957086D01*
X22911905Y65957086D02*
X22864286Y65766610D01*
X22864286Y65766610D02*
X22864286Y65385658D01*
X22864286Y65385658D02*
X22911905Y65290420D01*
X22911905Y65290420D02*
X22959524Y65242800D01*
X22959524Y65242800D02*
X23054762Y65195181D01*
X23054762Y65195181D02*
X23245238Y65195181D01*
X23245238Y65195181D02*
X23340476Y65242800D01*
X23340476Y65242800D02*
X23388095Y65290420D01*
X23388095Y65290420D02*
X23435714Y65385658D01*
X23435714Y65385658D02*
X23435714Y65623753D01*
X23435714Y65623753D02*
X23388095Y65718991D01*
X23388095Y65718991D02*
X23340476Y65766610D01*
X23340476Y65766610D02*
X23245238Y65814229D01*
X23245238Y65814229D02*
X23054762Y65814229D01*
X23054762Y65814229D02*
X22959524Y65766610D01*
X22959524Y65766610D02*
X22911905Y65718991D01*
X22911905Y65718991D02*
X22864286Y65623753D01*
X21930952Y64649943D02*
X21978571Y64697562D01*
X21978571Y64697562D02*
X22073809Y64745181D01*
X22073809Y64745181D02*
X22311904Y64745181D01*
X22311904Y64745181D02*
X22407142Y64697562D01*
X22407142Y64697562D02*
X22454761Y64649943D01*
X22454761Y64649943D02*
X22502380Y64554705D01*
X22502380Y64554705D02*
X22502380Y64459467D01*
X22502380Y64459467D02*
X22454761Y64316610D01*
X22454761Y64316610D02*
X21883333Y63745181D01*
X21883333Y63745181D02*
X22502380Y63745181D01*
X22835714Y64745181D02*
X23502380Y64745181D01*
X23502380Y64745181D02*
X23073809Y63745181D01*
X24073809Y64745181D02*
X24169047Y64745181D01*
X24169047Y64745181D02*
X24264285Y64697562D01*
X24264285Y64697562D02*
X24311904Y64649943D01*
X24311904Y64649943D02*
X24359523Y64554705D01*
X24359523Y64554705D02*
X24407142Y64364229D01*
X24407142Y64364229D02*
X24407142Y64126134D01*
X24407142Y64126134D02*
X24359523Y63935658D01*
X24359523Y63935658D02*
X24311904Y63840420D01*
X24311904Y63840420D02*
X24264285Y63792800D01*
X24264285Y63792800D02*
X24169047Y63745181D01*
X24169047Y63745181D02*
X24073809Y63745181D01*
X24073809Y63745181D02*
X23978571Y63792800D01*
X23978571Y63792800D02*
X23930952Y63840420D01*
X23930952Y63840420D02*
X23883333Y63935658D01*
X23883333Y63935658D02*
X23835714Y64126134D01*
X23835714Y64126134D02*
X23835714Y64364229D01*
X23835714Y64364229D02*
X23883333Y64554705D01*
X23883333Y64554705D02*
X23930952Y64649943D01*
X23930952Y64649943D02*
X23978571Y64697562D01*
X23978571Y64697562D02*
X24073809Y64745181D01*
X24835714Y64411848D02*
X24835714Y63411848D01*
X24835714Y64364229D02*
X24930952Y64411848D01*
X24930952Y64411848D02*
X25121428Y64411848D01*
X25121428Y64411848D02*
X25216666Y64364229D01*
X25216666Y64364229D02*
X25264285Y64316610D01*
X25264285Y64316610D02*
X25311904Y64221372D01*
X25311904Y64221372D02*
X25311904Y63935658D01*
X25311904Y63935658D02*
X25264285Y63840420D01*
X25264285Y63840420D02*
X25216666Y63792800D01*
X25216666Y63792800D02*
X25121428Y63745181D01*
X25121428Y63745181D02*
X24930952Y63745181D01*
X24930952Y63745181D02*
X24835714Y63792800D01*
X26073809Y64268991D02*
X25740476Y64268991D01*
X25740476Y63745181D02*
X25740476Y64745181D01*
X25740476Y64745181D02*
X26216666Y64745181D01*
X36157142Y44840420D02*
X36109523Y44792800D01*
X36109523Y44792800D02*
X35966666Y44745181D01*
X35966666Y44745181D02*
X35871428Y44745181D01*
X35871428Y44745181D02*
X35728571Y44792800D01*
X35728571Y44792800D02*
X35633333Y44888039D01*
X35633333Y44888039D02*
X35585714Y44983277D01*
X35585714Y44983277D02*
X35538095Y45173753D01*
X35538095Y45173753D02*
X35538095Y45316610D01*
X35538095Y45316610D02*
X35585714Y45507086D01*
X35585714Y45507086D02*
X35633333Y45602324D01*
X35633333Y45602324D02*
X35728571Y45697562D01*
X35728571Y45697562D02*
X35871428Y45745181D01*
X35871428Y45745181D02*
X35966666Y45745181D01*
X35966666Y45745181D02*
X36109523Y45697562D01*
X36109523Y45697562D02*
X36157142Y45649943D01*
X37109523Y44745181D02*
X36538095Y44745181D01*
X36823809Y44745181D02*
X36823809Y45745181D01*
X36823809Y45745181D02*
X36728571Y45602324D01*
X36728571Y45602324D02*
X36633333Y45507086D01*
X36633333Y45507086D02*
X36538095Y45459467D01*
X37442857Y45745181D02*
X38061904Y45745181D01*
X38061904Y45745181D02*
X37728571Y45364229D01*
X37728571Y45364229D02*
X37871428Y45364229D01*
X37871428Y45364229D02*
X37966666Y45316610D01*
X37966666Y45316610D02*
X38014285Y45268991D01*
X38014285Y45268991D02*
X38061904Y45173753D01*
X38061904Y45173753D02*
X38061904Y44935658D01*
X38061904Y44935658D02*
X38014285Y44840420D01*
X38014285Y44840420D02*
X37966666Y44792800D01*
X37966666Y44792800D02*
X37871428Y44745181D01*
X37871428Y44745181D02*
X37585714Y44745181D01*
X37585714Y44745181D02*
X37490476Y44792800D01*
X37490476Y44792800D02*
X37442857Y44840420D01*
X36176190Y43145181D02*
X35604762Y43145181D01*
X35890476Y43145181D02*
X35890476Y44145181D01*
X35890476Y44145181D02*
X35795238Y44002324D01*
X35795238Y44002324D02*
X35700000Y43907086D01*
X35700000Y43907086D02*
X35604762Y43859467D01*
X36509524Y44145181D02*
X37128571Y44145181D01*
X37128571Y44145181D02*
X36795238Y43764229D01*
X36795238Y43764229D02*
X36938095Y43764229D01*
X36938095Y43764229D02*
X37033333Y43716610D01*
X37033333Y43716610D02*
X37080952Y43668991D01*
X37080952Y43668991D02*
X37128571Y43573753D01*
X37128571Y43573753D02*
X37128571Y43335658D01*
X37128571Y43335658D02*
X37080952Y43240420D01*
X37080952Y43240420D02*
X37033333Y43192800D01*
X37033333Y43192800D02*
X36938095Y43145181D01*
X36938095Y43145181D02*
X36652381Y43145181D01*
X36652381Y43145181D02*
X36557143Y43192800D01*
X36557143Y43192800D02*
X36509524Y43240420D01*
X37747619Y44145181D02*
X37842857Y44145181D01*
X37842857Y44145181D02*
X37938095Y44097562D01*
X37938095Y44097562D02*
X37985714Y44049943D01*
X37985714Y44049943D02*
X38033333Y43954705D01*
X38033333Y43954705D02*
X38080952Y43764229D01*
X38080952Y43764229D02*
X38080952Y43526134D01*
X38080952Y43526134D02*
X38033333Y43335658D01*
X38033333Y43335658D02*
X37985714Y43240420D01*
X37985714Y43240420D02*
X37938095Y43192800D01*
X37938095Y43192800D02*
X37842857Y43145181D01*
X37842857Y43145181D02*
X37747619Y43145181D01*
X37747619Y43145181D02*
X37652381Y43192800D01*
X37652381Y43192800D02*
X37604762Y43240420D01*
X37604762Y43240420D02*
X37557143Y43335658D01*
X37557143Y43335658D02*
X37509524Y43526134D01*
X37509524Y43526134D02*
X37509524Y43764229D01*
X37509524Y43764229D02*
X37557143Y43954705D01*
X37557143Y43954705D02*
X37604762Y44049943D01*
X37604762Y44049943D02*
X37652381Y44097562D01*
X37652381Y44097562D02*
X37747619Y44145181D01*
X38700000Y44145181D02*
X38795238Y44145181D01*
X38795238Y44145181D02*
X38890476Y44097562D01*
X38890476Y44097562D02*
X38938095Y44049943D01*
X38938095Y44049943D02*
X38985714Y43954705D01*
X38985714Y43954705D02*
X39033333Y43764229D01*
X39033333Y43764229D02*
X39033333Y43526134D01*
X39033333Y43526134D02*
X38985714Y43335658D01*
X38985714Y43335658D02*
X38938095Y43240420D01*
X38938095Y43240420D02*
X38890476Y43192800D01*
X38890476Y43192800D02*
X38795238Y43145181D01*
X38795238Y43145181D02*
X38700000Y43145181D01*
X38700000Y43145181D02*
X38604762Y43192800D01*
X38604762Y43192800D02*
X38557143Y43240420D01*
X38557143Y43240420D02*
X38509524Y43335658D01*
X38509524Y43335658D02*
X38461905Y43526134D01*
X38461905Y43526134D02*
X38461905Y43764229D01*
X38461905Y43764229D02*
X38509524Y43954705D01*
X38509524Y43954705D02*
X38557143Y44049943D01*
X38557143Y44049943D02*
X38604762Y44097562D01*
X38604762Y44097562D02*
X38700000Y44145181D01*
X39461905Y43811848D02*
X39461905Y42811848D01*
X39461905Y43764229D02*
X39557143Y43811848D01*
X39557143Y43811848D02*
X39747619Y43811848D01*
X39747619Y43811848D02*
X39842857Y43764229D01*
X39842857Y43764229D02*
X39890476Y43716610D01*
X39890476Y43716610D02*
X39938095Y43621372D01*
X39938095Y43621372D02*
X39938095Y43335658D01*
X39938095Y43335658D02*
X39890476Y43240420D01*
X39890476Y43240420D02*
X39842857Y43192800D01*
X39842857Y43192800D02*
X39747619Y43145181D01*
X39747619Y43145181D02*
X39557143Y43145181D01*
X39557143Y43145181D02*
X39461905Y43192800D01*
X40700000Y43668991D02*
X40366667Y43668991D01*
X40366667Y43145181D02*
X40366667Y44145181D01*
X40366667Y44145181D02*
X40842857Y44145181D01*
X42957142Y54740420D02*
X42909523Y54692800D01*
X42909523Y54692800D02*
X42766666Y54645181D01*
X42766666Y54645181D02*
X42671428Y54645181D01*
X42671428Y54645181D02*
X42528571Y54692800D01*
X42528571Y54692800D02*
X42433333Y54788039D01*
X42433333Y54788039D02*
X42385714Y54883277D01*
X42385714Y54883277D02*
X42338095Y55073753D01*
X42338095Y55073753D02*
X42338095Y55216610D01*
X42338095Y55216610D02*
X42385714Y55407086D01*
X42385714Y55407086D02*
X42433333Y55502324D01*
X42433333Y55502324D02*
X42528571Y55597562D01*
X42528571Y55597562D02*
X42671428Y55645181D01*
X42671428Y55645181D02*
X42766666Y55645181D01*
X42766666Y55645181D02*
X42909523Y55597562D01*
X42909523Y55597562D02*
X42957142Y55549943D01*
X43909523Y54645181D02*
X43338095Y54645181D01*
X43623809Y54645181D02*
X43623809Y55645181D01*
X43623809Y55645181D02*
X43528571Y55502324D01*
X43528571Y55502324D02*
X43433333Y55407086D01*
X43433333Y55407086D02*
X43338095Y55359467D01*
X44242857Y55645181D02*
X44909523Y55645181D01*
X44909523Y55645181D02*
X44480952Y54645181D01*
X41783333Y54245181D02*
X42402380Y54245181D01*
X42402380Y54245181D02*
X42069047Y53864229D01*
X42069047Y53864229D02*
X42211904Y53864229D01*
X42211904Y53864229D02*
X42307142Y53816610D01*
X42307142Y53816610D02*
X42354761Y53768991D01*
X42354761Y53768991D02*
X42402380Y53673753D01*
X42402380Y53673753D02*
X42402380Y53435658D01*
X42402380Y53435658D02*
X42354761Y53340420D01*
X42354761Y53340420D02*
X42307142Y53292800D01*
X42307142Y53292800D02*
X42211904Y53245181D01*
X42211904Y53245181D02*
X41926190Y53245181D01*
X41926190Y53245181D02*
X41830952Y53292800D01*
X41830952Y53292800D02*
X41783333Y53340420D01*
X42878571Y53245181D02*
X43069047Y53245181D01*
X43069047Y53245181D02*
X43164285Y53292800D01*
X43164285Y53292800D02*
X43211904Y53340420D01*
X43211904Y53340420D02*
X43307142Y53483277D01*
X43307142Y53483277D02*
X43354761Y53673753D01*
X43354761Y53673753D02*
X43354761Y54054705D01*
X43354761Y54054705D02*
X43307142Y54149943D01*
X43307142Y54149943D02*
X43259523Y54197562D01*
X43259523Y54197562D02*
X43164285Y54245181D01*
X43164285Y54245181D02*
X42973809Y54245181D01*
X42973809Y54245181D02*
X42878571Y54197562D01*
X42878571Y54197562D02*
X42830952Y54149943D01*
X42830952Y54149943D02*
X42783333Y54054705D01*
X42783333Y54054705D02*
X42783333Y53816610D01*
X42783333Y53816610D02*
X42830952Y53721372D01*
X42830952Y53721372D02*
X42878571Y53673753D01*
X42878571Y53673753D02*
X42973809Y53626134D01*
X42973809Y53626134D02*
X43164285Y53626134D01*
X43164285Y53626134D02*
X43259523Y53673753D01*
X43259523Y53673753D02*
X43307142Y53721372D01*
X43307142Y53721372D02*
X43354761Y53816610D01*
X43973809Y54245181D02*
X44069047Y54245181D01*
X44069047Y54245181D02*
X44164285Y54197562D01*
X44164285Y54197562D02*
X44211904Y54149943D01*
X44211904Y54149943D02*
X44259523Y54054705D01*
X44259523Y54054705D02*
X44307142Y53864229D01*
X44307142Y53864229D02*
X44307142Y53626134D01*
X44307142Y53626134D02*
X44259523Y53435658D01*
X44259523Y53435658D02*
X44211904Y53340420D01*
X44211904Y53340420D02*
X44164285Y53292800D01*
X44164285Y53292800D02*
X44069047Y53245181D01*
X44069047Y53245181D02*
X43973809Y53245181D01*
X43973809Y53245181D02*
X43878571Y53292800D01*
X43878571Y53292800D02*
X43830952Y53340420D01*
X43830952Y53340420D02*
X43783333Y53435658D01*
X43783333Y53435658D02*
X43735714Y53626134D01*
X43735714Y53626134D02*
X43735714Y53864229D01*
X43735714Y53864229D02*
X43783333Y54054705D01*
X43783333Y54054705D02*
X43830952Y54149943D01*
X43830952Y54149943D02*
X43878571Y54197562D01*
X43878571Y54197562D02*
X43973809Y54245181D01*
X44735714Y53911848D02*
X44735714Y52911848D01*
X44735714Y53864229D02*
X44830952Y53911848D01*
X44830952Y53911848D02*
X45021428Y53911848D01*
X45021428Y53911848D02*
X45116666Y53864229D01*
X45116666Y53864229D02*
X45164285Y53816610D01*
X45164285Y53816610D02*
X45211904Y53721372D01*
X45211904Y53721372D02*
X45211904Y53435658D01*
X45211904Y53435658D02*
X45164285Y53340420D01*
X45164285Y53340420D02*
X45116666Y53292800D01*
X45116666Y53292800D02*
X45021428Y53245181D01*
X45021428Y53245181D02*
X44830952Y53245181D01*
X44830952Y53245181D02*
X44735714Y53292800D01*
X45973809Y53768991D02*
X45640476Y53768991D01*
X45640476Y53245181D02*
X45640476Y54245181D01*
X45640476Y54245181D02*
X46116666Y54245181D01*
X37533333Y40145181D02*
X37057143Y40145181D01*
X37057143Y40145181D02*
X37057143Y41145181D01*
X37914286Y40145181D02*
X38104762Y40145181D01*
X38104762Y40145181D02*
X38200000Y40192800D01*
X38200000Y40192800D02*
X38247619Y40240420D01*
X38247619Y40240420D02*
X38342857Y40383277D01*
X38342857Y40383277D02*
X38390476Y40573753D01*
X38390476Y40573753D02*
X38390476Y40954705D01*
X38390476Y40954705D02*
X38342857Y41049943D01*
X38342857Y41049943D02*
X38295238Y41097562D01*
X38295238Y41097562D02*
X38200000Y41145181D01*
X38200000Y41145181D02*
X38009524Y41145181D01*
X38009524Y41145181D02*
X37914286Y41097562D01*
X37914286Y41097562D02*
X37866667Y41049943D01*
X37866667Y41049943D02*
X37819048Y40954705D01*
X37819048Y40954705D02*
X37819048Y40716610D01*
X37819048Y40716610D02*
X37866667Y40621372D01*
X37866667Y40621372D02*
X37914286Y40573753D01*
X37914286Y40573753D02*
X38009524Y40526134D01*
X38009524Y40526134D02*
X38200000Y40526134D01*
X38200000Y40526134D02*
X38295238Y40573753D01*
X38295238Y40573753D02*
X38342857Y40621372D01*
X38342857Y40621372D02*
X38390476Y40716610D01*
X40285714Y41145181D02*
X40380952Y41145181D01*
X40380952Y41145181D02*
X40476190Y41097562D01*
X40476190Y41097562D02*
X40523809Y41049943D01*
X40523809Y41049943D02*
X40571428Y40954705D01*
X40571428Y40954705D02*
X40619047Y40764229D01*
X40619047Y40764229D02*
X40619047Y40526134D01*
X40619047Y40526134D02*
X40571428Y40335658D01*
X40571428Y40335658D02*
X40523809Y40240420D01*
X40523809Y40240420D02*
X40476190Y40192800D01*
X40476190Y40192800D02*
X40380952Y40145181D01*
X40380952Y40145181D02*
X40285714Y40145181D01*
X40285714Y40145181D02*
X40190476Y40192800D01*
X40190476Y40192800D02*
X40142857Y40240420D01*
X40142857Y40240420D02*
X40095238Y40335658D01*
X40095238Y40335658D02*
X40047619Y40526134D01*
X40047619Y40526134D02*
X40047619Y40764229D01*
X40047619Y40764229D02*
X40095238Y40954705D01*
X40095238Y40954705D02*
X40142857Y41049943D01*
X40142857Y41049943D02*
X40190476Y41097562D01*
X40190476Y41097562D02*
X40285714Y41145181D01*
X41047619Y40240420D02*
X41095238Y40192800D01*
X41095238Y40192800D02*
X41047619Y40145181D01*
X41047619Y40145181D02*
X41000000Y40192800D01*
X41000000Y40192800D02*
X41047619Y40240420D01*
X41047619Y40240420D02*
X41047619Y40145181D01*
X41999999Y41145181D02*
X41523809Y41145181D01*
X41523809Y41145181D02*
X41476190Y40668991D01*
X41476190Y40668991D02*
X41523809Y40716610D01*
X41523809Y40716610D02*
X41619047Y40764229D01*
X41619047Y40764229D02*
X41857142Y40764229D01*
X41857142Y40764229D02*
X41952380Y40716610D01*
X41952380Y40716610D02*
X41999999Y40668991D01*
X41999999Y40668991D02*
X42047618Y40573753D01*
X42047618Y40573753D02*
X42047618Y40335658D01*
X42047618Y40335658D02*
X41999999Y40240420D01*
X41999999Y40240420D02*
X41952380Y40192800D01*
X41952380Y40192800D02*
X41857142Y40145181D01*
X41857142Y40145181D02*
X41619047Y40145181D01*
X41619047Y40145181D02*
X41523809Y40192800D01*
X41523809Y40192800D02*
X41476190Y40240420D01*
X42952380Y41145181D02*
X42476190Y41145181D01*
X42476190Y41145181D02*
X42428571Y40668991D01*
X42428571Y40668991D02*
X42476190Y40716610D01*
X42476190Y40716610D02*
X42571428Y40764229D01*
X42571428Y40764229D02*
X42809523Y40764229D01*
X42809523Y40764229D02*
X42904761Y40716610D01*
X42904761Y40716610D02*
X42952380Y40668991D01*
X42952380Y40668991D02*
X42999999Y40573753D01*
X42999999Y40573753D02*
X42999999Y40335658D01*
X42999999Y40335658D02*
X42952380Y40240420D01*
X42952380Y40240420D02*
X42904761Y40192800D01*
X42904761Y40192800D02*
X42809523Y40145181D01*
X42809523Y40145181D02*
X42571428Y40145181D01*
X42571428Y40145181D02*
X42476190Y40192800D01*
X42476190Y40192800D02*
X42428571Y40240420D01*
X43857142Y40811848D02*
X43857142Y40145181D01*
X43428571Y40811848D02*
X43428571Y40288039D01*
X43428571Y40288039D02*
X43476190Y40192800D01*
X43476190Y40192800D02*
X43571428Y40145181D01*
X43571428Y40145181D02*
X43714285Y40145181D01*
X43714285Y40145181D02*
X43809523Y40192800D01*
X43809523Y40192800D02*
X43857142Y40240420D01*
X44333333Y40145181D02*
X44333333Y41145181D01*
X44333333Y40668991D02*
X44904761Y40668991D01*
X44904761Y40145181D02*
X44904761Y41145181D01*
X816666Y13845181D02*
X816666Y13130896D01*
X816666Y13130896D02*
X769047Y12988039D01*
X769047Y12988039D02*
X673809Y12892800D01*
X673809Y12892800D02*
X530952Y12845181D01*
X530952Y12845181D02*
X435714Y12845181D01*
X1721428Y13511848D02*
X1721428Y12845181D01*
X1483333Y13892800D02*
X1245238Y13178515D01*
X1245238Y13178515D02*
X1864285Y13178515D01*
X68016666Y51605181D02*
X68016666Y50890896D01*
X68016666Y50890896D02*
X67969047Y50748039D01*
X67969047Y50748039D02*
X67873809Y50652800D01*
X67873809Y50652800D02*
X67730952Y50605181D01*
X67730952Y50605181D02*
X67635714Y50605181D01*
X68445238Y51509943D02*
X68492857Y51557562D01*
X68492857Y51557562D02*
X68588095Y51605181D01*
X68588095Y51605181D02*
X68826190Y51605181D01*
X68826190Y51605181D02*
X68921428Y51557562D01*
X68921428Y51557562D02*
X68969047Y51509943D01*
X68969047Y51509943D02*
X69016666Y51414705D01*
X69016666Y51414705D02*
X69016666Y51319467D01*
X69016666Y51319467D02*
X68969047Y51176610D01*
X68969047Y51176610D02*
X68397619Y50605181D01*
X68397619Y50605181D02*
X69016666Y50605181D01*
X50913095Y43620181D02*
X50913095Y42810658D01*
X50913095Y42810658D02*
X50960714Y42715420D01*
X50960714Y42715420D02*
X51008333Y42667800D01*
X51008333Y42667800D02*
X51103571Y42620181D01*
X51103571Y42620181D02*
X51294047Y42620181D01*
X51294047Y42620181D02*
X51389285Y42667800D01*
X51389285Y42667800D02*
X51436904Y42715420D01*
X51436904Y42715420D02*
X51484523Y42810658D01*
X51484523Y42810658D02*
X51484523Y43620181D01*
X52008333Y42620181D02*
X52198809Y42620181D01*
X52198809Y42620181D02*
X52294047Y42667800D01*
X52294047Y42667800D02*
X52341666Y42715420D01*
X52341666Y42715420D02*
X52436904Y42858277D01*
X52436904Y42858277D02*
X52484523Y43048753D01*
X52484523Y43048753D02*
X52484523Y43429705D01*
X52484523Y43429705D02*
X52436904Y43524943D01*
X52436904Y43524943D02*
X52389285Y43572562D01*
X52389285Y43572562D02*
X52294047Y43620181D01*
X52294047Y43620181D02*
X52103571Y43620181D01*
X52103571Y43620181D02*
X52008333Y43572562D01*
X52008333Y43572562D02*
X51960714Y43524943D01*
X51960714Y43524943D02*
X51913095Y43429705D01*
X51913095Y43429705D02*
X51913095Y43191610D01*
X51913095Y43191610D02*
X51960714Y43096372D01*
X51960714Y43096372D02*
X52008333Y43048753D01*
X52008333Y43048753D02*
X52103571Y43001134D01*
X52103571Y43001134D02*
X52294047Y43001134D01*
X52294047Y43001134D02*
X52389285Y43048753D01*
X52389285Y43048753D02*
X52436904Y43096372D01*
X52436904Y43096372D02*
X52484523Y43191610D01*
X8825705Y31165181D02*
X8825705Y30355658D01*
X8825705Y30355658D02*
X8873324Y30260420D01*
X8873324Y30260420D02*
X8920943Y30212800D01*
X8920943Y30212800D02*
X9016181Y30165181D01*
X9016181Y30165181D02*
X9206657Y30165181D01*
X9206657Y30165181D02*
X9301895Y30212800D01*
X9301895Y30212800D02*
X9349514Y30260420D01*
X9349514Y30260420D02*
X9397133Y30355658D01*
X9397133Y30355658D02*
X9397133Y31165181D01*
X10397133Y30165181D02*
X9825705Y30165181D01*
X10111419Y30165181D02*
X10111419Y31165181D01*
X10111419Y31165181D02*
X10016181Y31022324D01*
X10016181Y31022324D02*
X9920943Y30927086D01*
X9920943Y30927086D02*
X9825705Y30879467D01*
X10778086Y31069943D02*
X10825705Y31117562D01*
X10825705Y31117562D02*
X10920943Y31165181D01*
X10920943Y31165181D02*
X11159038Y31165181D01*
X11159038Y31165181D02*
X11254276Y31117562D01*
X11254276Y31117562D02*
X11301895Y31069943D01*
X11301895Y31069943D02*
X11349514Y30974705D01*
X11349514Y30974705D02*
X11349514Y30879467D01*
X11349514Y30879467D02*
X11301895Y30736610D01*
X11301895Y30736610D02*
X10730467Y30165181D01*
X10730467Y30165181D02*
X11349514Y30165181D01*
X16413095Y52695181D02*
X16413095Y51885658D01*
X16413095Y51885658D02*
X16460714Y51790420D01*
X16460714Y51790420D02*
X16508333Y51742800D01*
X16508333Y51742800D02*
X16603571Y51695181D01*
X16603571Y51695181D02*
X16794047Y51695181D01*
X16794047Y51695181D02*
X16889285Y51742800D01*
X16889285Y51742800D02*
X16936904Y51790420D01*
X16936904Y51790420D02*
X16984523Y51885658D01*
X16984523Y51885658D02*
X16984523Y52695181D01*
X17413095Y52599943D02*
X17460714Y52647562D01*
X17460714Y52647562D02*
X17555952Y52695181D01*
X17555952Y52695181D02*
X17794047Y52695181D01*
X17794047Y52695181D02*
X17889285Y52647562D01*
X17889285Y52647562D02*
X17936904Y52599943D01*
X17936904Y52599943D02*
X17984523Y52504705D01*
X17984523Y52504705D02*
X17984523Y52409467D01*
X17984523Y52409467D02*
X17936904Y52266610D01*
X17936904Y52266610D02*
X17365476Y51695181D01*
X17365476Y51695181D02*
X17984523Y51695181D01*
X53532142Y62765420D02*
X53484523Y62717800D01*
X53484523Y62717800D02*
X53341666Y62670181D01*
X53341666Y62670181D02*
X53246428Y62670181D01*
X53246428Y62670181D02*
X53103571Y62717800D01*
X53103571Y62717800D02*
X53008333Y62813039D01*
X53008333Y62813039D02*
X52960714Y62908277D01*
X52960714Y62908277D02*
X52913095Y63098753D01*
X52913095Y63098753D02*
X52913095Y63241610D01*
X52913095Y63241610D02*
X52960714Y63432086D01*
X52960714Y63432086D02*
X53008333Y63527324D01*
X53008333Y63527324D02*
X53103571Y63622562D01*
X53103571Y63622562D02*
X53246428Y63670181D01*
X53246428Y63670181D02*
X53341666Y63670181D01*
X53341666Y63670181D02*
X53484523Y63622562D01*
X53484523Y63622562D02*
X53532142Y63574943D01*
X53913095Y63574943D02*
X53960714Y63622562D01*
X53960714Y63622562D02*
X54055952Y63670181D01*
X54055952Y63670181D02*
X54294047Y63670181D01*
X54294047Y63670181D02*
X54389285Y63622562D01*
X54389285Y63622562D02*
X54436904Y63574943D01*
X54436904Y63574943D02*
X54484523Y63479705D01*
X54484523Y63479705D02*
X54484523Y63384467D01*
X54484523Y63384467D02*
X54436904Y63241610D01*
X54436904Y63241610D02*
X53865476Y62670181D01*
X53865476Y62670181D02*
X54484523Y62670181D01*
X55341666Y63670181D02*
X55151190Y63670181D01*
X55151190Y63670181D02*
X55055952Y63622562D01*
X55055952Y63622562D02*
X55008333Y63574943D01*
X55008333Y63574943D02*
X54913095Y63432086D01*
X54913095Y63432086D02*
X54865476Y63241610D01*
X54865476Y63241610D02*
X54865476Y62860658D01*
X54865476Y62860658D02*
X54913095Y62765420D01*
X54913095Y62765420D02*
X54960714Y62717800D01*
X54960714Y62717800D02*
X55055952Y62670181D01*
X55055952Y62670181D02*
X55246428Y62670181D01*
X55246428Y62670181D02*
X55341666Y62717800D01*
X55341666Y62717800D02*
X55389285Y62765420D01*
X55389285Y62765420D02*
X55436904Y62860658D01*
X55436904Y62860658D02*
X55436904Y63098753D01*
X55436904Y63098753D02*
X55389285Y63193991D01*
X55389285Y63193991D02*
X55341666Y63241610D01*
X55341666Y63241610D02*
X55246428Y63289229D01*
X55246428Y63289229D02*
X55055952Y63289229D01*
X55055952Y63289229D02*
X54960714Y63241610D01*
X54960714Y63241610D02*
X54913095Y63193991D01*
X54913095Y63193991D02*
X54865476Y63098753D01*
X53159524Y62220181D02*
X53254762Y62220181D01*
X53254762Y62220181D02*
X53350000Y62172562D01*
X53350000Y62172562D02*
X53397619Y62124943D01*
X53397619Y62124943D02*
X53445238Y62029705D01*
X53445238Y62029705D02*
X53492857Y61839229D01*
X53492857Y61839229D02*
X53492857Y61601134D01*
X53492857Y61601134D02*
X53445238Y61410658D01*
X53445238Y61410658D02*
X53397619Y61315420D01*
X53397619Y61315420D02*
X53350000Y61267800D01*
X53350000Y61267800D02*
X53254762Y61220181D01*
X53254762Y61220181D02*
X53159524Y61220181D01*
X53159524Y61220181D02*
X53064286Y61267800D01*
X53064286Y61267800D02*
X53016667Y61315420D01*
X53016667Y61315420D02*
X52969048Y61410658D01*
X52969048Y61410658D02*
X52921429Y61601134D01*
X52921429Y61601134D02*
X52921429Y61839229D01*
X52921429Y61839229D02*
X52969048Y62029705D01*
X52969048Y62029705D02*
X53016667Y62124943D01*
X53016667Y62124943D02*
X53064286Y62172562D01*
X53064286Y62172562D02*
X53159524Y62220181D01*
X53921429Y61315420D02*
X53969048Y61267800D01*
X53969048Y61267800D02*
X53921429Y61220181D01*
X53921429Y61220181D02*
X53873810Y61267800D01*
X53873810Y61267800D02*
X53921429Y61315420D01*
X53921429Y61315420D02*
X53921429Y61220181D01*
X54588095Y62220181D02*
X54683333Y62220181D01*
X54683333Y62220181D02*
X54778571Y62172562D01*
X54778571Y62172562D02*
X54826190Y62124943D01*
X54826190Y62124943D02*
X54873809Y62029705D01*
X54873809Y62029705D02*
X54921428Y61839229D01*
X54921428Y61839229D02*
X54921428Y61601134D01*
X54921428Y61601134D02*
X54873809Y61410658D01*
X54873809Y61410658D02*
X54826190Y61315420D01*
X54826190Y61315420D02*
X54778571Y61267800D01*
X54778571Y61267800D02*
X54683333Y61220181D01*
X54683333Y61220181D02*
X54588095Y61220181D01*
X54588095Y61220181D02*
X54492857Y61267800D01*
X54492857Y61267800D02*
X54445238Y61315420D01*
X54445238Y61315420D02*
X54397619Y61410658D01*
X54397619Y61410658D02*
X54350000Y61601134D01*
X54350000Y61601134D02*
X54350000Y61839229D01*
X54350000Y61839229D02*
X54397619Y62029705D01*
X54397619Y62029705D02*
X54445238Y62124943D01*
X54445238Y62124943D02*
X54492857Y62172562D01*
X54492857Y62172562D02*
X54588095Y62220181D01*
X55873809Y61220181D02*
X55302381Y61220181D01*
X55588095Y61220181D02*
X55588095Y62220181D01*
X55588095Y62220181D02*
X55492857Y62077324D01*
X55492857Y62077324D02*
X55397619Y61982086D01*
X55397619Y61982086D02*
X55302381Y61934467D01*
X56730952Y61886848D02*
X56730952Y61220181D01*
X56302381Y61886848D02*
X56302381Y61363039D01*
X56302381Y61363039D02*
X56350000Y61267800D01*
X56350000Y61267800D02*
X56445238Y61220181D01*
X56445238Y61220181D02*
X56588095Y61220181D01*
X56588095Y61220181D02*
X56683333Y61267800D01*
X56683333Y61267800D02*
X56730952Y61315420D01*
X24333333Y50145181D02*
X23857143Y50145181D01*
X23857143Y50145181D02*
X23857143Y51145181D01*
X24571429Y51145181D02*
X25190476Y51145181D01*
X25190476Y51145181D02*
X24857143Y50764229D01*
X24857143Y50764229D02*
X25000000Y50764229D01*
X25000000Y50764229D02*
X25095238Y50716610D01*
X25095238Y50716610D02*
X25142857Y50668991D01*
X25142857Y50668991D02*
X25190476Y50573753D01*
X25190476Y50573753D02*
X25190476Y50335658D01*
X25190476Y50335658D02*
X25142857Y50240420D01*
X25142857Y50240420D02*
X25095238Y50192800D01*
X25095238Y50192800D02*
X25000000Y50145181D01*
X25000000Y50145181D02*
X24714286Y50145181D01*
X24714286Y50145181D02*
X24619048Y50192800D01*
X24619048Y50192800D02*
X24571429Y50240420D01*
X26985714Y51145181D02*
X27080952Y51145181D01*
X27080952Y51145181D02*
X27176190Y51097562D01*
X27176190Y51097562D02*
X27223809Y51049943D01*
X27223809Y51049943D02*
X27271428Y50954705D01*
X27271428Y50954705D02*
X27319047Y50764229D01*
X27319047Y50764229D02*
X27319047Y50526134D01*
X27319047Y50526134D02*
X27271428Y50335658D01*
X27271428Y50335658D02*
X27223809Y50240420D01*
X27223809Y50240420D02*
X27176190Y50192800D01*
X27176190Y50192800D02*
X27080952Y50145181D01*
X27080952Y50145181D02*
X26985714Y50145181D01*
X26985714Y50145181D02*
X26890476Y50192800D01*
X26890476Y50192800D02*
X26842857Y50240420D01*
X26842857Y50240420D02*
X26795238Y50335658D01*
X26795238Y50335658D02*
X26747619Y50526134D01*
X26747619Y50526134D02*
X26747619Y50764229D01*
X26747619Y50764229D02*
X26795238Y50954705D01*
X26795238Y50954705D02*
X26842857Y51049943D01*
X26842857Y51049943D02*
X26890476Y51097562D01*
X26890476Y51097562D02*
X26985714Y51145181D01*
X27747619Y50240420D02*
X27795238Y50192800D01*
X27795238Y50192800D02*
X27747619Y50145181D01*
X27747619Y50145181D02*
X27700000Y50192800D01*
X27700000Y50192800D02*
X27747619Y50240420D01*
X27747619Y50240420D02*
X27747619Y50145181D01*
X28176190Y51049943D02*
X28223809Y51097562D01*
X28223809Y51097562D02*
X28319047Y51145181D01*
X28319047Y51145181D02*
X28557142Y51145181D01*
X28557142Y51145181D02*
X28652380Y51097562D01*
X28652380Y51097562D02*
X28699999Y51049943D01*
X28699999Y51049943D02*
X28747618Y50954705D01*
X28747618Y50954705D02*
X28747618Y50859467D01*
X28747618Y50859467D02*
X28699999Y50716610D01*
X28699999Y50716610D02*
X28128571Y50145181D01*
X28128571Y50145181D02*
X28747618Y50145181D01*
X29319047Y50716610D02*
X29223809Y50764229D01*
X29223809Y50764229D02*
X29176190Y50811848D01*
X29176190Y50811848D02*
X29128571Y50907086D01*
X29128571Y50907086D02*
X29128571Y50954705D01*
X29128571Y50954705D02*
X29176190Y51049943D01*
X29176190Y51049943D02*
X29223809Y51097562D01*
X29223809Y51097562D02*
X29319047Y51145181D01*
X29319047Y51145181D02*
X29509523Y51145181D01*
X29509523Y51145181D02*
X29604761Y51097562D01*
X29604761Y51097562D02*
X29652380Y51049943D01*
X29652380Y51049943D02*
X29699999Y50954705D01*
X29699999Y50954705D02*
X29699999Y50907086D01*
X29699999Y50907086D02*
X29652380Y50811848D01*
X29652380Y50811848D02*
X29604761Y50764229D01*
X29604761Y50764229D02*
X29509523Y50716610D01*
X29509523Y50716610D02*
X29319047Y50716610D01*
X29319047Y50716610D02*
X29223809Y50668991D01*
X29223809Y50668991D02*
X29176190Y50621372D01*
X29176190Y50621372D02*
X29128571Y50526134D01*
X29128571Y50526134D02*
X29128571Y50335658D01*
X29128571Y50335658D02*
X29176190Y50240420D01*
X29176190Y50240420D02*
X29223809Y50192800D01*
X29223809Y50192800D02*
X29319047Y50145181D01*
X29319047Y50145181D02*
X29509523Y50145181D01*
X29509523Y50145181D02*
X29604761Y50192800D01*
X29604761Y50192800D02*
X29652380Y50240420D01*
X29652380Y50240420D02*
X29699999Y50335658D01*
X29699999Y50335658D02*
X29699999Y50526134D01*
X29699999Y50526134D02*
X29652380Y50621372D01*
X29652380Y50621372D02*
X29604761Y50668991D01*
X29604761Y50668991D02*
X29509523Y50716610D01*
X30557142Y50811848D02*
X30557142Y50145181D01*
X30128571Y50811848D02*
X30128571Y50288039D01*
X30128571Y50288039D02*
X30176190Y50192800D01*
X30176190Y50192800D02*
X30271428Y50145181D01*
X30271428Y50145181D02*
X30414285Y50145181D01*
X30414285Y50145181D02*
X30509523Y50192800D01*
X30509523Y50192800D02*
X30557142Y50240420D01*
X31033333Y50145181D02*
X31033333Y51145181D01*
X31033333Y50668991D02*
X31604761Y50668991D01*
X31604761Y50145181D02*
X31604761Y51145181D01*
X37633333Y50145181D02*
X37157143Y50145181D01*
X37157143Y50145181D02*
X37157143Y51145181D01*
X38109524Y50716610D02*
X38014286Y50764229D01*
X38014286Y50764229D02*
X37966667Y50811848D01*
X37966667Y50811848D02*
X37919048Y50907086D01*
X37919048Y50907086D02*
X37919048Y50954705D01*
X37919048Y50954705D02*
X37966667Y51049943D01*
X37966667Y51049943D02*
X38014286Y51097562D01*
X38014286Y51097562D02*
X38109524Y51145181D01*
X38109524Y51145181D02*
X38300000Y51145181D01*
X38300000Y51145181D02*
X38395238Y51097562D01*
X38395238Y51097562D02*
X38442857Y51049943D01*
X38442857Y51049943D02*
X38490476Y50954705D01*
X38490476Y50954705D02*
X38490476Y50907086D01*
X38490476Y50907086D02*
X38442857Y50811848D01*
X38442857Y50811848D02*
X38395238Y50764229D01*
X38395238Y50764229D02*
X38300000Y50716610D01*
X38300000Y50716610D02*
X38109524Y50716610D01*
X38109524Y50716610D02*
X38014286Y50668991D01*
X38014286Y50668991D02*
X37966667Y50621372D01*
X37966667Y50621372D02*
X37919048Y50526134D01*
X37919048Y50526134D02*
X37919048Y50335658D01*
X37919048Y50335658D02*
X37966667Y50240420D01*
X37966667Y50240420D02*
X38014286Y50192800D01*
X38014286Y50192800D02*
X38109524Y50145181D01*
X38109524Y50145181D02*
X38300000Y50145181D01*
X38300000Y50145181D02*
X38395238Y50192800D01*
X38395238Y50192800D02*
X38442857Y50240420D01*
X38442857Y50240420D02*
X38490476Y50335658D01*
X38490476Y50335658D02*
X38490476Y50526134D01*
X38490476Y50526134D02*
X38442857Y50621372D01*
X38442857Y50621372D02*
X38395238Y50668991D01*
X38395238Y50668991D02*
X38300000Y50716610D01*
X40135714Y51145181D02*
X40230952Y51145181D01*
X40230952Y51145181D02*
X40326190Y51097562D01*
X40326190Y51097562D02*
X40373809Y51049943D01*
X40373809Y51049943D02*
X40421428Y50954705D01*
X40421428Y50954705D02*
X40469047Y50764229D01*
X40469047Y50764229D02*
X40469047Y50526134D01*
X40469047Y50526134D02*
X40421428Y50335658D01*
X40421428Y50335658D02*
X40373809Y50240420D01*
X40373809Y50240420D02*
X40326190Y50192800D01*
X40326190Y50192800D02*
X40230952Y50145181D01*
X40230952Y50145181D02*
X40135714Y50145181D01*
X40135714Y50145181D02*
X40040476Y50192800D01*
X40040476Y50192800D02*
X39992857Y50240420D01*
X39992857Y50240420D02*
X39945238Y50335658D01*
X39945238Y50335658D02*
X39897619Y50526134D01*
X39897619Y50526134D02*
X39897619Y50764229D01*
X39897619Y50764229D02*
X39945238Y50954705D01*
X39945238Y50954705D02*
X39992857Y51049943D01*
X39992857Y51049943D02*
X40040476Y51097562D01*
X40040476Y51097562D02*
X40135714Y51145181D01*
X40897619Y50240420D02*
X40945238Y50192800D01*
X40945238Y50192800D02*
X40897619Y50145181D01*
X40897619Y50145181D02*
X40850000Y50192800D01*
X40850000Y50192800D02*
X40897619Y50240420D01*
X40897619Y50240420D02*
X40897619Y50145181D01*
X41326190Y51049943D02*
X41373809Y51097562D01*
X41373809Y51097562D02*
X41469047Y51145181D01*
X41469047Y51145181D02*
X41707142Y51145181D01*
X41707142Y51145181D02*
X41802380Y51097562D01*
X41802380Y51097562D02*
X41849999Y51049943D01*
X41849999Y51049943D02*
X41897618Y50954705D01*
X41897618Y50954705D02*
X41897618Y50859467D01*
X41897618Y50859467D02*
X41849999Y50716610D01*
X41849999Y50716610D02*
X41278571Y50145181D01*
X41278571Y50145181D02*
X41897618Y50145181D01*
X42469047Y50716610D02*
X42373809Y50764229D01*
X42373809Y50764229D02*
X42326190Y50811848D01*
X42326190Y50811848D02*
X42278571Y50907086D01*
X42278571Y50907086D02*
X42278571Y50954705D01*
X42278571Y50954705D02*
X42326190Y51049943D01*
X42326190Y51049943D02*
X42373809Y51097562D01*
X42373809Y51097562D02*
X42469047Y51145181D01*
X42469047Y51145181D02*
X42659523Y51145181D01*
X42659523Y51145181D02*
X42754761Y51097562D01*
X42754761Y51097562D02*
X42802380Y51049943D01*
X42802380Y51049943D02*
X42849999Y50954705D01*
X42849999Y50954705D02*
X42849999Y50907086D01*
X42849999Y50907086D02*
X42802380Y50811848D01*
X42802380Y50811848D02*
X42754761Y50764229D01*
X42754761Y50764229D02*
X42659523Y50716610D01*
X42659523Y50716610D02*
X42469047Y50716610D01*
X42469047Y50716610D02*
X42373809Y50668991D01*
X42373809Y50668991D02*
X42326190Y50621372D01*
X42326190Y50621372D02*
X42278571Y50526134D01*
X42278571Y50526134D02*
X42278571Y50335658D01*
X42278571Y50335658D02*
X42326190Y50240420D01*
X42326190Y50240420D02*
X42373809Y50192800D01*
X42373809Y50192800D02*
X42469047Y50145181D01*
X42469047Y50145181D02*
X42659523Y50145181D01*
X42659523Y50145181D02*
X42754761Y50192800D01*
X42754761Y50192800D02*
X42802380Y50240420D01*
X42802380Y50240420D02*
X42849999Y50335658D01*
X42849999Y50335658D02*
X42849999Y50526134D01*
X42849999Y50526134D02*
X42802380Y50621372D01*
X42802380Y50621372D02*
X42754761Y50668991D01*
X42754761Y50668991D02*
X42659523Y50716610D01*
X43707142Y50811848D02*
X43707142Y50145181D01*
X43278571Y50811848D02*
X43278571Y50288039D01*
X43278571Y50288039D02*
X43326190Y50192800D01*
X43326190Y50192800D02*
X43421428Y50145181D01*
X43421428Y50145181D02*
X43564285Y50145181D01*
X43564285Y50145181D02*
X43659523Y50192800D01*
X43659523Y50192800D02*
X43707142Y50240420D01*
X44183333Y50145181D02*
X44183333Y51145181D01*
X44183333Y50668991D02*
X44754761Y50668991D01*
X44754761Y50145181D02*
X44754761Y51145181D01*
X53482142Y32840420D02*
X53434523Y32792800D01*
X53434523Y32792800D02*
X53291666Y32745181D01*
X53291666Y32745181D02*
X53196428Y32745181D01*
X53196428Y32745181D02*
X53053571Y32792800D01*
X53053571Y32792800D02*
X52958333Y32888039D01*
X52958333Y32888039D02*
X52910714Y32983277D01*
X52910714Y32983277D02*
X52863095Y33173753D01*
X52863095Y33173753D02*
X52863095Y33316610D01*
X52863095Y33316610D02*
X52910714Y33507086D01*
X52910714Y33507086D02*
X52958333Y33602324D01*
X52958333Y33602324D02*
X53053571Y33697562D01*
X53053571Y33697562D02*
X53196428Y33745181D01*
X53196428Y33745181D02*
X53291666Y33745181D01*
X53291666Y33745181D02*
X53434523Y33697562D01*
X53434523Y33697562D02*
X53482142Y33649943D01*
X53815476Y33745181D02*
X54434523Y33745181D01*
X54434523Y33745181D02*
X54101190Y33364229D01*
X54101190Y33364229D02*
X54244047Y33364229D01*
X54244047Y33364229D02*
X54339285Y33316610D01*
X54339285Y33316610D02*
X54386904Y33268991D01*
X54386904Y33268991D02*
X54434523Y33173753D01*
X54434523Y33173753D02*
X54434523Y32935658D01*
X54434523Y32935658D02*
X54386904Y32840420D01*
X54386904Y32840420D02*
X54339285Y32792800D01*
X54339285Y32792800D02*
X54244047Y32745181D01*
X54244047Y32745181D02*
X53958333Y32745181D01*
X53958333Y32745181D02*
X53863095Y32792800D01*
X53863095Y32792800D02*
X53815476Y32840420D01*
X55053571Y33745181D02*
X55148809Y33745181D01*
X55148809Y33745181D02*
X55244047Y33697562D01*
X55244047Y33697562D02*
X55291666Y33649943D01*
X55291666Y33649943D02*
X55339285Y33554705D01*
X55339285Y33554705D02*
X55386904Y33364229D01*
X55386904Y33364229D02*
X55386904Y33126134D01*
X55386904Y33126134D02*
X55339285Y32935658D01*
X55339285Y32935658D02*
X55291666Y32840420D01*
X55291666Y32840420D02*
X55244047Y32792800D01*
X55244047Y32792800D02*
X55148809Y32745181D01*
X55148809Y32745181D02*
X55053571Y32745181D01*
X55053571Y32745181D02*
X54958333Y32792800D01*
X54958333Y32792800D02*
X54910714Y32840420D01*
X54910714Y32840420D02*
X54863095Y32935658D01*
X54863095Y32935658D02*
X54815476Y33126134D01*
X54815476Y33126134D02*
X54815476Y33364229D01*
X54815476Y33364229D02*
X54863095Y33554705D01*
X54863095Y33554705D02*
X54910714Y33649943D01*
X54910714Y33649943D02*
X54958333Y33697562D01*
X54958333Y33697562D02*
X55053571Y33745181D01*
X53134524Y32395181D02*
X53229762Y32395181D01*
X53229762Y32395181D02*
X53325000Y32347562D01*
X53325000Y32347562D02*
X53372619Y32299943D01*
X53372619Y32299943D02*
X53420238Y32204705D01*
X53420238Y32204705D02*
X53467857Y32014229D01*
X53467857Y32014229D02*
X53467857Y31776134D01*
X53467857Y31776134D02*
X53420238Y31585658D01*
X53420238Y31585658D02*
X53372619Y31490420D01*
X53372619Y31490420D02*
X53325000Y31442800D01*
X53325000Y31442800D02*
X53229762Y31395181D01*
X53229762Y31395181D02*
X53134524Y31395181D01*
X53134524Y31395181D02*
X53039286Y31442800D01*
X53039286Y31442800D02*
X52991667Y31490420D01*
X52991667Y31490420D02*
X52944048Y31585658D01*
X52944048Y31585658D02*
X52896429Y31776134D01*
X52896429Y31776134D02*
X52896429Y32014229D01*
X52896429Y32014229D02*
X52944048Y32204705D01*
X52944048Y32204705D02*
X52991667Y32299943D01*
X52991667Y32299943D02*
X53039286Y32347562D01*
X53039286Y32347562D02*
X53134524Y32395181D01*
X53896429Y31490420D02*
X53944048Y31442800D01*
X53944048Y31442800D02*
X53896429Y31395181D01*
X53896429Y31395181D02*
X53848810Y31442800D01*
X53848810Y31442800D02*
X53896429Y31490420D01*
X53896429Y31490420D02*
X53896429Y31395181D01*
X54563095Y32395181D02*
X54658333Y32395181D01*
X54658333Y32395181D02*
X54753571Y32347562D01*
X54753571Y32347562D02*
X54801190Y32299943D01*
X54801190Y32299943D02*
X54848809Y32204705D01*
X54848809Y32204705D02*
X54896428Y32014229D01*
X54896428Y32014229D02*
X54896428Y31776134D01*
X54896428Y31776134D02*
X54848809Y31585658D01*
X54848809Y31585658D02*
X54801190Y31490420D01*
X54801190Y31490420D02*
X54753571Y31442800D01*
X54753571Y31442800D02*
X54658333Y31395181D01*
X54658333Y31395181D02*
X54563095Y31395181D01*
X54563095Y31395181D02*
X54467857Y31442800D01*
X54467857Y31442800D02*
X54420238Y31490420D01*
X54420238Y31490420D02*
X54372619Y31585658D01*
X54372619Y31585658D02*
X54325000Y31776134D01*
X54325000Y31776134D02*
X54325000Y32014229D01*
X54325000Y32014229D02*
X54372619Y32204705D01*
X54372619Y32204705D02*
X54420238Y32299943D01*
X54420238Y32299943D02*
X54467857Y32347562D01*
X54467857Y32347562D02*
X54563095Y32395181D01*
X55848809Y31395181D02*
X55277381Y31395181D01*
X55563095Y31395181D02*
X55563095Y32395181D01*
X55563095Y32395181D02*
X55467857Y32252324D01*
X55467857Y32252324D02*
X55372619Y32157086D01*
X55372619Y32157086D02*
X55277381Y32109467D01*
X56705952Y32061848D02*
X56705952Y31395181D01*
X56277381Y32061848D02*
X56277381Y31538039D01*
X56277381Y31538039D02*
X56325000Y31442800D01*
X56325000Y31442800D02*
X56420238Y31395181D01*
X56420238Y31395181D02*
X56563095Y31395181D01*
X56563095Y31395181D02*
X56658333Y31442800D01*
X56658333Y31442800D02*
X56705952Y31490420D01*
X43957142Y45090420D02*
X43909523Y45042800D01*
X43909523Y45042800D02*
X43766666Y44995181D01*
X43766666Y44995181D02*
X43671428Y44995181D01*
X43671428Y44995181D02*
X43528571Y45042800D01*
X43528571Y45042800D02*
X43433333Y45138039D01*
X43433333Y45138039D02*
X43385714Y45233277D01*
X43385714Y45233277D02*
X43338095Y45423753D01*
X43338095Y45423753D02*
X43338095Y45566610D01*
X43338095Y45566610D02*
X43385714Y45757086D01*
X43385714Y45757086D02*
X43433333Y45852324D01*
X43433333Y45852324D02*
X43528571Y45947562D01*
X43528571Y45947562D02*
X43671428Y45995181D01*
X43671428Y45995181D02*
X43766666Y45995181D01*
X43766666Y45995181D02*
X43909523Y45947562D01*
X43909523Y45947562D02*
X43957142Y45899943D01*
X44909523Y44995181D02*
X44338095Y44995181D01*
X44623809Y44995181D02*
X44623809Y45995181D01*
X44623809Y45995181D02*
X44528571Y45852324D01*
X44528571Y45852324D02*
X44433333Y45757086D01*
X44433333Y45757086D02*
X44338095Y45709467D01*
X45480952Y45566610D02*
X45385714Y45614229D01*
X45385714Y45614229D02*
X45338095Y45661848D01*
X45338095Y45661848D02*
X45290476Y45757086D01*
X45290476Y45757086D02*
X45290476Y45804705D01*
X45290476Y45804705D02*
X45338095Y45899943D01*
X45338095Y45899943D02*
X45385714Y45947562D01*
X45385714Y45947562D02*
X45480952Y45995181D01*
X45480952Y45995181D02*
X45671428Y45995181D01*
X45671428Y45995181D02*
X45766666Y45947562D01*
X45766666Y45947562D02*
X45814285Y45899943D01*
X45814285Y45899943D02*
X45861904Y45804705D01*
X45861904Y45804705D02*
X45861904Y45757086D01*
X45861904Y45757086D02*
X45814285Y45661848D01*
X45814285Y45661848D02*
X45766666Y45614229D01*
X45766666Y45614229D02*
X45671428Y45566610D01*
X45671428Y45566610D02*
X45480952Y45566610D01*
X45480952Y45566610D02*
X45385714Y45518991D01*
X45385714Y45518991D02*
X45338095Y45471372D01*
X45338095Y45471372D02*
X45290476Y45376134D01*
X45290476Y45376134D02*
X45290476Y45185658D01*
X45290476Y45185658D02*
X45338095Y45090420D01*
X45338095Y45090420D02*
X45385714Y45042800D01*
X45385714Y45042800D02*
X45480952Y44995181D01*
X45480952Y44995181D02*
X45671428Y44995181D01*
X45671428Y44995181D02*
X45766666Y45042800D01*
X45766666Y45042800D02*
X45814285Y45090420D01*
X45814285Y45090420D02*
X45861904Y45185658D01*
X45861904Y45185658D02*
X45861904Y45376134D01*
X45861904Y45376134D02*
X45814285Y45471372D01*
X45814285Y45471372D02*
X45766666Y45518991D01*
X45766666Y45518991D02*
X45671428Y45566610D01*
X42254761Y44595181D02*
X41778571Y44595181D01*
X41778571Y44595181D02*
X41730952Y44118991D01*
X41730952Y44118991D02*
X41778571Y44166610D01*
X41778571Y44166610D02*
X41873809Y44214229D01*
X41873809Y44214229D02*
X42111904Y44214229D01*
X42111904Y44214229D02*
X42207142Y44166610D01*
X42207142Y44166610D02*
X42254761Y44118991D01*
X42254761Y44118991D02*
X42302380Y44023753D01*
X42302380Y44023753D02*
X42302380Y43785658D01*
X42302380Y43785658D02*
X42254761Y43690420D01*
X42254761Y43690420D02*
X42207142Y43642800D01*
X42207142Y43642800D02*
X42111904Y43595181D01*
X42111904Y43595181D02*
X41873809Y43595181D01*
X41873809Y43595181D02*
X41778571Y43642800D01*
X41778571Y43642800D02*
X41730952Y43690420D01*
X43254761Y43595181D02*
X42683333Y43595181D01*
X42969047Y43595181D02*
X42969047Y44595181D01*
X42969047Y44595181D02*
X42873809Y44452324D01*
X42873809Y44452324D02*
X42778571Y44357086D01*
X42778571Y44357086D02*
X42683333Y44309467D01*
X43873809Y44595181D02*
X43969047Y44595181D01*
X43969047Y44595181D02*
X44064285Y44547562D01*
X44064285Y44547562D02*
X44111904Y44499943D01*
X44111904Y44499943D02*
X44159523Y44404705D01*
X44159523Y44404705D02*
X44207142Y44214229D01*
X44207142Y44214229D02*
X44207142Y43976134D01*
X44207142Y43976134D02*
X44159523Y43785658D01*
X44159523Y43785658D02*
X44111904Y43690420D01*
X44111904Y43690420D02*
X44064285Y43642800D01*
X44064285Y43642800D02*
X43969047Y43595181D01*
X43969047Y43595181D02*
X43873809Y43595181D01*
X43873809Y43595181D02*
X43778571Y43642800D01*
X43778571Y43642800D02*
X43730952Y43690420D01*
X43730952Y43690420D02*
X43683333Y43785658D01*
X43683333Y43785658D02*
X43635714Y43976134D01*
X43635714Y43976134D02*
X43635714Y44214229D01*
X43635714Y44214229D02*
X43683333Y44404705D01*
X43683333Y44404705D02*
X43730952Y44499943D01*
X43730952Y44499943D02*
X43778571Y44547562D01*
X43778571Y44547562D02*
X43873809Y44595181D01*
X44635714Y44261848D02*
X44635714Y43261848D01*
X44635714Y44214229D02*
X44730952Y44261848D01*
X44730952Y44261848D02*
X44921428Y44261848D01*
X44921428Y44261848D02*
X45016666Y44214229D01*
X45016666Y44214229D02*
X45064285Y44166610D01*
X45064285Y44166610D02*
X45111904Y44071372D01*
X45111904Y44071372D02*
X45111904Y43785658D01*
X45111904Y43785658D02*
X45064285Y43690420D01*
X45064285Y43690420D02*
X45016666Y43642800D01*
X45016666Y43642800D02*
X44921428Y43595181D01*
X44921428Y43595181D02*
X44730952Y43595181D01*
X44730952Y43595181D02*
X44635714Y43642800D01*
X45873809Y44118991D02*
X45540476Y44118991D01*
X45540476Y43595181D02*
X45540476Y44595181D01*
X45540476Y44595181D02*
X46016666Y44595181D01*
X22483333Y44590420D02*
X22435714Y44542800D01*
X22435714Y44542800D02*
X22292857Y44495181D01*
X22292857Y44495181D02*
X22197619Y44495181D01*
X22197619Y44495181D02*
X22054762Y44542800D01*
X22054762Y44542800D02*
X21959524Y44638039D01*
X21959524Y44638039D02*
X21911905Y44733277D01*
X21911905Y44733277D02*
X21864286Y44923753D01*
X21864286Y44923753D02*
X21864286Y45066610D01*
X21864286Y45066610D02*
X21911905Y45257086D01*
X21911905Y45257086D02*
X21959524Y45352324D01*
X21959524Y45352324D02*
X22054762Y45447562D01*
X22054762Y45447562D02*
X22197619Y45495181D01*
X22197619Y45495181D02*
X22292857Y45495181D01*
X22292857Y45495181D02*
X22435714Y45447562D01*
X22435714Y45447562D02*
X22483333Y45399943D01*
X23054762Y45066610D02*
X22959524Y45114229D01*
X22959524Y45114229D02*
X22911905Y45161848D01*
X22911905Y45161848D02*
X22864286Y45257086D01*
X22864286Y45257086D02*
X22864286Y45304705D01*
X22864286Y45304705D02*
X22911905Y45399943D01*
X22911905Y45399943D02*
X22959524Y45447562D01*
X22959524Y45447562D02*
X23054762Y45495181D01*
X23054762Y45495181D02*
X23245238Y45495181D01*
X23245238Y45495181D02*
X23340476Y45447562D01*
X23340476Y45447562D02*
X23388095Y45399943D01*
X23388095Y45399943D02*
X23435714Y45304705D01*
X23435714Y45304705D02*
X23435714Y45257086D01*
X23435714Y45257086D02*
X23388095Y45161848D01*
X23388095Y45161848D02*
X23340476Y45114229D01*
X23340476Y45114229D02*
X23245238Y45066610D01*
X23245238Y45066610D02*
X23054762Y45066610D01*
X23054762Y45066610D02*
X22959524Y45018991D01*
X22959524Y45018991D02*
X22911905Y44971372D01*
X22911905Y44971372D02*
X22864286Y44876134D01*
X22864286Y44876134D02*
X22864286Y44685658D01*
X22864286Y44685658D02*
X22911905Y44590420D01*
X22911905Y44590420D02*
X22959524Y44542800D01*
X22959524Y44542800D02*
X23054762Y44495181D01*
X23054762Y44495181D02*
X23245238Y44495181D01*
X23245238Y44495181D02*
X23340476Y44542800D01*
X23340476Y44542800D02*
X23388095Y44590420D01*
X23388095Y44590420D02*
X23435714Y44685658D01*
X23435714Y44685658D02*
X23435714Y44876134D01*
X23435714Y44876134D02*
X23388095Y44971372D01*
X23388095Y44971372D02*
X23340476Y45018991D01*
X23340476Y45018991D02*
X23245238Y45066610D01*
X22454761Y44095181D02*
X21978571Y44095181D01*
X21978571Y44095181D02*
X21930952Y43618991D01*
X21930952Y43618991D02*
X21978571Y43666610D01*
X21978571Y43666610D02*
X22073809Y43714229D01*
X22073809Y43714229D02*
X22311904Y43714229D01*
X22311904Y43714229D02*
X22407142Y43666610D01*
X22407142Y43666610D02*
X22454761Y43618991D01*
X22454761Y43618991D02*
X22502380Y43523753D01*
X22502380Y43523753D02*
X22502380Y43285658D01*
X22502380Y43285658D02*
X22454761Y43190420D01*
X22454761Y43190420D02*
X22407142Y43142800D01*
X22407142Y43142800D02*
X22311904Y43095181D01*
X22311904Y43095181D02*
X22073809Y43095181D01*
X22073809Y43095181D02*
X21978571Y43142800D01*
X21978571Y43142800D02*
X21930952Y43190420D01*
X23454761Y43095181D02*
X22883333Y43095181D01*
X23169047Y43095181D02*
X23169047Y44095181D01*
X23169047Y44095181D02*
X23073809Y43952324D01*
X23073809Y43952324D02*
X22978571Y43857086D01*
X22978571Y43857086D02*
X22883333Y43809467D01*
X24073809Y44095181D02*
X24169047Y44095181D01*
X24169047Y44095181D02*
X24264285Y44047562D01*
X24264285Y44047562D02*
X24311904Y43999943D01*
X24311904Y43999943D02*
X24359523Y43904705D01*
X24359523Y43904705D02*
X24407142Y43714229D01*
X24407142Y43714229D02*
X24407142Y43476134D01*
X24407142Y43476134D02*
X24359523Y43285658D01*
X24359523Y43285658D02*
X24311904Y43190420D01*
X24311904Y43190420D02*
X24264285Y43142800D01*
X24264285Y43142800D02*
X24169047Y43095181D01*
X24169047Y43095181D02*
X24073809Y43095181D01*
X24073809Y43095181D02*
X23978571Y43142800D01*
X23978571Y43142800D02*
X23930952Y43190420D01*
X23930952Y43190420D02*
X23883333Y43285658D01*
X23883333Y43285658D02*
X23835714Y43476134D01*
X23835714Y43476134D02*
X23835714Y43714229D01*
X23835714Y43714229D02*
X23883333Y43904705D01*
X23883333Y43904705D02*
X23930952Y43999943D01*
X23930952Y43999943D02*
X23978571Y44047562D01*
X23978571Y44047562D02*
X24073809Y44095181D01*
X24835714Y43761848D02*
X24835714Y42761848D01*
X24835714Y43714229D02*
X24930952Y43761848D01*
X24930952Y43761848D02*
X25121428Y43761848D01*
X25121428Y43761848D02*
X25216666Y43714229D01*
X25216666Y43714229D02*
X25264285Y43666610D01*
X25264285Y43666610D02*
X25311904Y43571372D01*
X25311904Y43571372D02*
X25311904Y43285658D01*
X25311904Y43285658D02*
X25264285Y43190420D01*
X25264285Y43190420D02*
X25216666Y43142800D01*
X25216666Y43142800D02*
X25121428Y43095181D01*
X25121428Y43095181D02*
X24930952Y43095181D01*
X24930952Y43095181D02*
X24835714Y43142800D01*
X26073809Y43618991D02*
X25740476Y43618991D01*
X25740476Y43095181D02*
X25740476Y44095181D01*
X25740476Y44095181D02*
X26216666Y44095181D01*
X37783333Y70495181D02*
X37307143Y70495181D01*
X37307143Y70495181D02*
X37307143Y71495181D01*
X38545238Y71495181D02*
X38354762Y71495181D01*
X38354762Y71495181D02*
X38259524Y71447562D01*
X38259524Y71447562D02*
X38211905Y71399943D01*
X38211905Y71399943D02*
X38116667Y71257086D01*
X38116667Y71257086D02*
X38069048Y71066610D01*
X38069048Y71066610D02*
X38069048Y70685658D01*
X38069048Y70685658D02*
X38116667Y70590420D01*
X38116667Y70590420D02*
X38164286Y70542800D01*
X38164286Y70542800D02*
X38259524Y70495181D01*
X38259524Y70495181D02*
X38450000Y70495181D01*
X38450000Y70495181D02*
X38545238Y70542800D01*
X38545238Y70542800D02*
X38592857Y70590420D01*
X38592857Y70590420D02*
X38640476Y70685658D01*
X38640476Y70685658D02*
X38640476Y70923753D01*
X38640476Y70923753D02*
X38592857Y71018991D01*
X38592857Y71018991D02*
X38545238Y71066610D01*
X38545238Y71066610D02*
X38450000Y71114229D01*
X38450000Y71114229D02*
X38259524Y71114229D01*
X38259524Y71114229D02*
X38164286Y71066610D01*
X38164286Y71066610D02*
X38116667Y71018991D01*
X38116667Y71018991D02*
X38069048Y70923753D01*
X40235714Y71495181D02*
X40330952Y71495181D01*
X40330952Y71495181D02*
X40426190Y71447562D01*
X40426190Y71447562D02*
X40473809Y71399943D01*
X40473809Y71399943D02*
X40521428Y71304705D01*
X40521428Y71304705D02*
X40569047Y71114229D01*
X40569047Y71114229D02*
X40569047Y70876134D01*
X40569047Y70876134D02*
X40521428Y70685658D01*
X40521428Y70685658D02*
X40473809Y70590420D01*
X40473809Y70590420D02*
X40426190Y70542800D01*
X40426190Y70542800D02*
X40330952Y70495181D01*
X40330952Y70495181D02*
X40235714Y70495181D01*
X40235714Y70495181D02*
X40140476Y70542800D01*
X40140476Y70542800D02*
X40092857Y70590420D01*
X40092857Y70590420D02*
X40045238Y70685658D01*
X40045238Y70685658D02*
X39997619Y70876134D01*
X39997619Y70876134D02*
X39997619Y71114229D01*
X39997619Y71114229D02*
X40045238Y71304705D01*
X40045238Y71304705D02*
X40092857Y71399943D01*
X40092857Y71399943D02*
X40140476Y71447562D01*
X40140476Y71447562D02*
X40235714Y71495181D01*
X40997619Y70590420D02*
X41045238Y70542800D01*
X41045238Y70542800D02*
X40997619Y70495181D01*
X40997619Y70495181D02*
X40950000Y70542800D01*
X40950000Y70542800D02*
X40997619Y70590420D01*
X40997619Y70590420D02*
X40997619Y70495181D01*
X41997618Y70495181D02*
X41426190Y70495181D01*
X41711904Y70495181D02*
X41711904Y71495181D01*
X41711904Y71495181D02*
X41616666Y71352324D01*
X41616666Y71352324D02*
X41521428Y71257086D01*
X41521428Y71257086D02*
X41426190Y71209467D01*
X42378571Y71399943D02*
X42426190Y71447562D01*
X42426190Y71447562D02*
X42521428Y71495181D01*
X42521428Y71495181D02*
X42759523Y71495181D01*
X42759523Y71495181D02*
X42854761Y71447562D01*
X42854761Y71447562D02*
X42902380Y71399943D01*
X42902380Y71399943D02*
X42949999Y71304705D01*
X42949999Y71304705D02*
X42949999Y71209467D01*
X42949999Y71209467D02*
X42902380Y71066610D01*
X42902380Y71066610D02*
X42330952Y70495181D01*
X42330952Y70495181D02*
X42949999Y70495181D01*
X43807142Y71161848D02*
X43807142Y70495181D01*
X43378571Y71161848D02*
X43378571Y70638039D01*
X43378571Y70638039D02*
X43426190Y70542800D01*
X43426190Y70542800D02*
X43521428Y70495181D01*
X43521428Y70495181D02*
X43664285Y70495181D01*
X43664285Y70495181D02*
X43759523Y70542800D01*
X43759523Y70542800D02*
X43807142Y70590420D01*
X44283333Y70495181D02*
X44283333Y71495181D01*
X44283333Y71018991D02*
X44854761Y71018991D01*
X44854761Y70495181D02*
X44854761Y71495181D01*
X24083333Y70445181D02*
X23607143Y70445181D01*
X23607143Y70445181D02*
X23607143Y71445181D01*
X24940476Y70445181D02*
X24369048Y70445181D01*
X24654762Y70445181D02*
X24654762Y71445181D01*
X24654762Y71445181D02*
X24559524Y71302324D01*
X24559524Y71302324D02*
X24464286Y71207086D01*
X24464286Y71207086D02*
X24369048Y71159467D01*
X26135714Y71445181D02*
X26230952Y71445181D01*
X26230952Y71445181D02*
X26326190Y71397562D01*
X26326190Y71397562D02*
X26373809Y71349943D01*
X26373809Y71349943D02*
X26421428Y71254705D01*
X26421428Y71254705D02*
X26469047Y71064229D01*
X26469047Y71064229D02*
X26469047Y70826134D01*
X26469047Y70826134D02*
X26421428Y70635658D01*
X26421428Y70635658D02*
X26373809Y70540420D01*
X26373809Y70540420D02*
X26326190Y70492800D01*
X26326190Y70492800D02*
X26230952Y70445181D01*
X26230952Y70445181D02*
X26135714Y70445181D01*
X26135714Y70445181D02*
X26040476Y70492800D01*
X26040476Y70492800D02*
X25992857Y70540420D01*
X25992857Y70540420D02*
X25945238Y70635658D01*
X25945238Y70635658D02*
X25897619Y70826134D01*
X25897619Y70826134D02*
X25897619Y71064229D01*
X25897619Y71064229D02*
X25945238Y71254705D01*
X25945238Y71254705D02*
X25992857Y71349943D01*
X25992857Y71349943D02*
X26040476Y71397562D01*
X26040476Y71397562D02*
X26135714Y71445181D01*
X26897619Y70540420D02*
X26945238Y70492800D01*
X26945238Y70492800D02*
X26897619Y70445181D01*
X26897619Y70445181D02*
X26850000Y70492800D01*
X26850000Y70492800D02*
X26897619Y70540420D01*
X26897619Y70540420D02*
X26897619Y70445181D01*
X27897618Y70445181D02*
X27326190Y70445181D01*
X27611904Y70445181D02*
X27611904Y71445181D01*
X27611904Y71445181D02*
X27516666Y71302324D01*
X27516666Y71302324D02*
X27421428Y71207086D01*
X27421428Y71207086D02*
X27326190Y71159467D01*
X28278571Y71349943D02*
X28326190Y71397562D01*
X28326190Y71397562D02*
X28421428Y71445181D01*
X28421428Y71445181D02*
X28659523Y71445181D01*
X28659523Y71445181D02*
X28754761Y71397562D01*
X28754761Y71397562D02*
X28802380Y71349943D01*
X28802380Y71349943D02*
X28849999Y71254705D01*
X28849999Y71254705D02*
X28849999Y71159467D01*
X28849999Y71159467D02*
X28802380Y71016610D01*
X28802380Y71016610D02*
X28230952Y70445181D01*
X28230952Y70445181D02*
X28849999Y70445181D01*
X29707142Y71111848D02*
X29707142Y70445181D01*
X29278571Y71111848D02*
X29278571Y70588039D01*
X29278571Y70588039D02*
X29326190Y70492800D01*
X29326190Y70492800D02*
X29421428Y70445181D01*
X29421428Y70445181D02*
X29564285Y70445181D01*
X29564285Y70445181D02*
X29659523Y70492800D01*
X29659523Y70492800D02*
X29707142Y70540420D01*
X30183333Y70445181D02*
X30183333Y71445181D01*
X30183333Y70968991D02*
X30754761Y70968991D01*
X30754761Y70445181D02*
X30754761Y71445181D01*
X22333333Y55040420D02*
X22285714Y54992800D01*
X22285714Y54992800D02*
X22142857Y54945181D01*
X22142857Y54945181D02*
X22047619Y54945181D01*
X22047619Y54945181D02*
X21904762Y54992800D01*
X21904762Y54992800D02*
X21809524Y55088039D01*
X21809524Y55088039D02*
X21761905Y55183277D01*
X21761905Y55183277D02*
X21714286Y55373753D01*
X21714286Y55373753D02*
X21714286Y55516610D01*
X21714286Y55516610D02*
X21761905Y55707086D01*
X21761905Y55707086D02*
X21809524Y55802324D01*
X21809524Y55802324D02*
X21904762Y55897562D01*
X21904762Y55897562D02*
X22047619Y55945181D01*
X22047619Y55945181D02*
X22142857Y55945181D01*
X22142857Y55945181D02*
X22285714Y55897562D01*
X22285714Y55897562D02*
X22333333Y55849943D01*
X22666667Y55945181D02*
X23333333Y55945181D01*
X23333333Y55945181D02*
X22904762Y54945181D01*
X21783333Y54395181D02*
X22402380Y54395181D01*
X22402380Y54395181D02*
X22069047Y54014229D01*
X22069047Y54014229D02*
X22211904Y54014229D01*
X22211904Y54014229D02*
X22307142Y53966610D01*
X22307142Y53966610D02*
X22354761Y53918991D01*
X22354761Y53918991D02*
X22402380Y53823753D01*
X22402380Y53823753D02*
X22402380Y53585658D01*
X22402380Y53585658D02*
X22354761Y53490420D01*
X22354761Y53490420D02*
X22307142Y53442800D01*
X22307142Y53442800D02*
X22211904Y53395181D01*
X22211904Y53395181D02*
X21926190Y53395181D01*
X21926190Y53395181D02*
X21830952Y53442800D01*
X21830952Y53442800D02*
X21783333Y53490420D01*
X22878571Y53395181D02*
X23069047Y53395181D01*
X23069047Y53395181D02*
X23164285Y53442800D01*
X23164285Y53442800D02*
X23211904Y53490420D01*
X23211904Y53490420D02*
X23307142Y53633277D01*
X23307142Y53633277D02*
X23354761Y53823753D01*
X23354761Y53823753D02*
X23354761Y54204705D01*
X23354761Y54204705D02*
X23307142Y54299943D01*
X23307142Y54299943D02*
X23259523Y54347562D01*
X23259523Y54347562D02*
X23164285Y54395181D01*
X23164285Y54395181D02*
X22973809Y54395181D01*
X22973809Y54395181D02*
X22878571Y54347562D01*
X22878571Y54347562D02*
X22830952Y54299943D01*
X22830952Y54299943D02*
X22783333Y54204705D01*
X22783333Y54204705D02*
X22783333Y53966610D01*
X22783333Y53966610D02*
X22830952Y53871372D01*
X22830952Y53871372D02*
X22878571Y53823753D01*
X22878571Y53823753D02*
X22973809Y53776134D01*
X22973809Y53776134D02*
X23164285Y53776134D01*
X23164285Y53776134D02*
X23259523Y53823753D01*
X23259523Y53823753D02*
X23307142Y53871372D01*
X23307142Y53871372D02*
X23354761Y53966610D01*
X23973809Y54395181D02*
X24069047Y54395181D01*
X24069047Y54395181D02*
X24164285Y54347562D01*
X24164285Y54347562D02*
X24211904Y54299943D01*
X24211904Y54299943D02*
X24259523Y54204705D01*
X24259523Y54204705D02*
X24307142Y54014229D01*
X24307142Y54014229D02*
X24307142Y53776134D01*
X24307142Y53776134D02*
X24259523Y53585658D01*
X24259523Y53585658D02*
X24211904Y53490420D01*
X24211904Y53490420D02*
X24164285Y53442800D01*
X24164285Y53442800D02*
X24069047Y53395181D01*
X24069047Y53395181D02*
X23973809Y53395181D01*
X23973809Y53395181D02*
X23878571Y53442800D01*
X23878571Y53442800D02*
X23830952Y53490420D01*
X23830952Y53490420D02*
X23783333Y53585658D01*
X23783333Y53585658D02*
X23735714Y53776134D01*
X23735714Y53776134D02*
X23735714Y54014229D01*
X23735714Y54014229D02*
X23783333Y54204705D01*
X23783333Y54204705D02*
X23830952Y54299943D01*
X23830952Y54299943D02*
X23878571Y54347562D01*
X23878571Y54347562D02*
X23973809Y54395181D01*
X24735714Y54061848D02*
X24735714Y53061848D01*
X24735714Y54014229D02*
X24830952Y54061848D01*
X24830952Y54061848D02*
X25021428Y54061848D01*
X25021428Y54061848D02*
X25116666Y54014229D01*
X25116666Y54014229D02*
X25164285Y53966610D01*
X25164285Y53966610D02*
X25211904Y53871372D01*
X25211904Y53871372D02*
X25211904Y53585658D01*
X25211904Y53585658D02*
X25164285Y53490420D01*
X25164285Y53490420D02*
X25116666Y53442800D01*
X25116666Y53442800D02*
X25021428Y53395181D01*
X25021428Y53395181D02*
X24830952Y53395181D01*
X24830952Y53395181D02*
X24735714Y53442800D01*
X25973809Y53918991D02*
X25640476Y53918991D01*
X25640476Y53395181D02*
X25640476Y54395181D01*
X25640476Y54395181D02*
X26116666Y54395181D01*
X44007142Y34790420D02*
X43959523Y34742800D01*
X43959523Y34742800D02*
X43816666Y34695181D01*
X43816666Y34695181D02*
X43721428Y34695181D01*
X43721428Y34695181D02*
X43578571Y34742800D01*
X43578571Y34742800D02*
X43483333Y34838039D01*
X43483333Y34838039D02*
X43435714Y34933277D01*
X43435714Y34933277D02*
X43388095Y35123753D01*
X43388095Y35123753D02*
X43388095Y35266610D01*
X43388095Y35266610D02*
X43435714Y35457086D01*
X43435714Y35457086D02*
X43483333Y35552324D01*
X43483333Y35552324D02*
X43578571Y35647562D01*
X43578571Y35647562D02*
X43721428Y35695181D01*
X43721428Y35695181D02*
X43816666Y35695181D01*
X43816666Y35695181D02*
X43959523Y35647562D01*
X43959523Y35647562D02*
X44007142Y35599943D01*
X44959523Y34695181D02*
X44388095Y34695181D01*
X44673809Y34695181D02*
X44673809Y35695181D01*
X44673809Y35695181D02*
X44578571Y35552324D01*
X44578571Y35552324D02*
X44483333Y35457086D01*
X44483333Y35457086D02*
X44388095Y35409467D01*
X45435714Y34695181D02*
X45626190Y34695181D01*
X45626190Y34695181D02*
X45721428Y34742800D01*
X45721428Y34742800D02*
X45769047Y34790420D01*
X45769047Y34790420D02*
X45864285Y34933277D01*
X45864285Y34933277D02*
X45911904Y35123753D01*
X45911904Y35123753D02*
X45911904Y35504705D01*
X45911904Y35504705D02*
X45864285Y35599943D01*
X45864285Y35599943D02*
X45816666Y35647562D01*
X45816666Y35647562D02*
X45721428Y35695181D01*
X45721428Y35695181D02*
X45530952Y35695181D01*
X45530952Y35695181D02*
X45435714Y35647562D01*
X45435714Y35647562D02*
X45388095Y35599943D01*
X45388095Y35599943D02*
X45340476Y35504705D01*
X45340476Y35504705D02*
X45340476Y35266610D01*
X45340476Y35266610D02*
X45388095Y35171372D01*
X45388095Y35171372D02*
X45435714Y35123753D01*
X45435714Y35123753D02*
X45530952Y35076134D01*
X45530952Y35076134D02*
X45721428Y35076134D01*
X45721428Y35076134D02*
X45816666Y35123753D01*
X45816666Y35123753D02*
X45864285Y35171372D01*
X45864285Y35171372D02*
X45911904Y35266610D01*
X41876190Y33145181D02*
X41304762Y33145181D01*
X41590476Y33145181D02*
X41590476Y34145181D01*
X41590476Y34145181D02*
X41495238Y34002324D01*
X41495238Y34002324D02*
X41400000Y33907086D01*
X41400000Y33907086D02*
X41304762Y33859467D01*
X42828571Y33145181D02*
X42257143Y33145181D01*
X42542857Y33145181D02*
X42542857Y34145181D01*
X42542857Y34145181D02*
X42447619Y34002324D01*
X42447619Y34002324D02*
X42352381Y33907086D01*
X42352381Y33907086D02*
X42257143Y33859467D01*
X43447619Y34145181D02*
X43542857Y34145181D01*
X43542857Y34145181D02*
X43638095Y34097562D01*
X43638095Y34097562D02*
X43685714Y34049943D01*
X43685714Y34049943D02*
X43733333Y33954705D01*
X43733333Y33954705D02*
X43780952Y33764229D01*
X43780952Y33764229D02*
X43780952Y33526134D01*
X43780952Y33526134D02*
X43733333Y33335658D01*
X43733333Y33335658D02*
X43685714Y33240420D01*
X43685714Y33240420D02*
X43638095Y33192800D01*
X43638095Y33192800D02*
X43542857Y33145181D01*
X43542857Y33145181D02*
X43447619Y33145181D01*
X43447619Y33145181D02*
X43352381Y33192800D01*
X43352381Y33192800D02*
X43304762Y33240420D01*
X43304762Y33240420D02*
X43257143Y33335658D01*
X43257143Y33335658D02*
X43209524Y33526134D01*
X43209524Y33526134D02*
X43209524Y33764229D01*
X43209524Y33764229D02*
X43257143Y33954705D01*
X43257143Y33954705D02*
X43304762Y34049943D01*
X43304762Y34049943D02*
X43352381Y34097562D01*
X43352381Y34097562D02*
X43447619Y34145181D01*
X44400000Y34145181D02*
X44495238Y34145181D01*
X44495238Y34145181D02*
X44590476Y34097562D01*
X44590476Y34097562D02*
X44638095Y34049943D01*
X44638095Y34049943D02*
X44685714Y33954705D01*
X44685714Y33954705D02*
X44733333Y33764229D01*
X44733333Y33764229D02*
X44733333Y33526134D01*
X44733333Y33526134D02*
X44685714Y33335658D01*
X44685714Y33335658D02*
X44638095Y33240420D01*
X44638095Y33240420D02*
X44590476Y33192800D01*
X44590476Y33192800D02*
X44495238Y33145181D01*
X44495238Y33145181D02*
X44400000Y33145181D01*
X44400000Y33145181D02*
X44304762Y33192800D01*
X44304762Y33192800D02*
X44257143Y33240420D01*
X44257143Y33240420D02*
X44209524Y33335658D01*
X44209524Y33335658D02*
X44161905Y33526134D01*
X44161905Y33526134D02*
X44161905Y33764229D01*
X44161905Y33764229D02*
X44209524Y33954705D01*
X44209524Y33954705D02*
X44257143Y34049943D01*
X44257143Y34049943D02*
X44304762Y34097562D01*
X44304762Y34097562D02*
X44400000Y34145181D01*
X45161905Y33811848D02*
X45161905Y32811848D01*
X45161905Y33764229D02*
X45257143Y33811848D01*
X45257143Y33811848D02*
X45447619Y33811848D01*
X45447619Y33811848D02*
X45542857Y33764229D01*
X45542857Y33764229D02*
X45590476Y33716610D01*
X45590476Y33716610D02*
X45638095Y33621372D01*
X45638095Y33621372D02*
X45638095Y33335658D01*
X45638095Y33335658D02*
X45590476Y33240420D01*
X45590476Y33240420D02*
X45542857Y33192800D01*
X45542857Y33192800D02*
X45447619Y33145181D01*
X45447619Y33145181D02*
X45257143Y33145181D01*
X45257143Y33145181D02*
X45161905Y33192800D01*
X46400000Y33668991D02*
X46066667Y33668991D01*
X46066667Y33145181D02*
X46066667Y34145181D01*
X46066667Y34145181D02*
X46542857Y34145181D01*
X16638095Y38795181D02*
X16638095Y37985658D01*
X16638095Y37985658D02*
X16685714Y37890420D01*
X16685714Y37890420D02*
X16733333Y37842800D01*
X16733333Y37842800D02*
X16828571Y37795181D01*
X16828571Y37795181D02*
X17019047Y37795181D01*
X17019047Y37795181D02*
X17114285Y37842800D01*
X17114285Y37842800D02*
X17161904Y37890420D01*
X17161904Y37890420D02*
X17209523Y37985658D01*
X17209523Y37985658D02*
X17209523Y38795181D01*
X18161904Y38795181D02*
X17685714Y38795181D01*
X17685714Y38795181D02*
X17638095Y38318991D01*
X17638095Y38318991D02*
X17685714Y38366610D01*
X17685714Y38366610D02*
X17780952Y38414229D01*
X17780952Y38414229D02*
X18019047Y38414229D01*
X18019047Y38414229D02*
X18114285Y38366610D01*
X18114285Y38366610D02*
X18161904Y38318991D01*
X18161904Y38318991D02*
X18209523Y38223753D01*
X18209523Y38223753D02*
X18209523Y37985658D01*
X18209523Y37985658D02*
X18161904Y37890420D01*
X18161904Y37890420D02*
X18114285Y37842800D01*
X18114285Y37842800D02*
X18019047Y37795181D01*
X18019047Y37795181D02*
X17780952Y37795181D01*
X17780952Y37795181D02*
X17685714Y37842800D01*
X17685714Y37842800D02*
X17638095Y37890420D01*
X8833333Y52690420D02*
X8785714Y52642800D01*
X8785714Y52642800D02*
X8642857Y52595181D01*
X8642857Y52595181D02*
X8547619Y52595181D01*
X8547619Y52595181D02*
X8404762Y52642800D01*
X8404762Y52642800D02*
X8309524Y52738039D01*
X8309524Y52738039D02*
X8261905Y52833277D01*
X8261905Y52833277D02*
X8214286Y53023753D01*
X8214286Y53023753D02*
X8214286Y53166610D01*
X8214286Y53166610D02*
X8261905Y53357086D01*
X8261905Y53357086D02*
X8309524Y53452324D01*
X8309524Y53452324D02*
X8404762Y53547562D01*
X8404762Y53547562D02*
X8547619Y53595181D01*
X8547619Y53595181D02*
X8642857Y53595181D01*
X8642857Y53595181D02*
X8785714Y53547562D01*
X8785714Y53547562D02*
X8833333Y53499943D01*
X9214286Y53499943D02*
X9261905Y53547562D01*
X9261905Y53547562D02*
X9357143Y53595181D01*
X9357143Y53595181D02*
X9595238Y53595181D01*
X9595238Y53595181D02*
X9690476Y53547562D01*
X9690476Y53547562D02*
X9738095Y53499943D01*
X9738095Y53499943D02*
X9785714Y53404705D01*
X9785714Y53404705D02*
X9785714Y53309467D01*
X9785714Y53309467D02*
X9738095Y53166610D01*
X9738095Y53166610D02*
X9166667Y52595181D01*
X9166667Y52595181D02*
X9785714Y52595181D01*
X59957142Y40490420D02*
X59909523Y40442800D01*
X59909523Y40442800D02*
X59766666Y40395181D01*
X59766666Y40395181D02*
X59671428Y40395181D01*
X59671428Y40395181D02*
X59528571Y40442800D01*
X59528571Y40442800D02*
X59433333Y40538039D01*
X59433333Y40538039D02*
X59385714Y40633277D01*
X59385714Y40633277D02*
X59338095Y40823753D01*
X59338095Y40823753D02*
X59338095Y40966610D01*
X59338095Y40966610D02*
X59385714Y41157086D01*
X59385714Y41157086D02*
X59433333Y41252324D01*
X59433333Y41252324D02*
X59528571Y41347562D01*
X59528571Y41347562D02*
X59671428Y41395181D01*
X59671428Y41395181D02*
X59766666Y41395181D01*
X59766666Y41395181D02*
X59909523Y41347562D01*
X59909523Y41347562D02*
X59957142Y41299943D01*
X60338095Y41299943D02*
X60385714Y41347562D01*
X60385714Y41347562D02*
X60480952Y41395181D01*
X60480952Y41395181D02*
X60719047Y41395181D01*
X60719047Y41395181D02*
X60814285Y41347562D01*
X60814285Y41347562D02*
X60861904Y41299943D01*
X60861904Y41299943D02*
X60909523Y41204705D01*
X60909523Y41204705D02*
X60909523Y41109467D01*
X60909523Y41109467D02*
X60861904Y40966610D01*
X60861904Y40966610D02*
X60290476Y40395181D01*
X60290476Y40395181D02*
X60909523Y40395181D01*
X61814285Y41395181D02*
X61338095Y41395181D01*
X61338095Y41395181D02*
X61290476Y40918991D01*
X61290476Y40918991D02*
X61338095Y40966610D01*
X61338095Y40966610D02*
X61433333Y41014229D01*
X61433333Y41014229D02*
X61671428Y41014229D01*
X61671428Y41014229D02*
X61766666Y40966610D01*
X61766666Y40966610D02*
X61814285Y40918991D01*
X61814285Y40918991D02*
X61861904Y40823753D01*
X61861904Y40823753D02*
X61861904Y40585658D01*
X61861904Y40585658D02*
X61814285Y40490420D01*
X61814285Y40490420D02*
X61766666Y40442800D01*
X61766666Y40442800D02*
X61671428Y40395181D01*
X61671428Y40395181D02*
X61433333Y40395181D01*
X61433333Y40395181D02*
X61338095Y40442800D01*
X61338095Y40442800D02*
X61290476Y40490420D01*
X58509524Y37645181D02*
X58604762Y37645181D01*
X58604762Y37645181D02*
X58700000Y37597562D01*
X58700000Y37597562D02*
X58747619Y37549943D01*
X58747619Y37549943D02*
X58795238Y37454705D01*
X58795238Y37454705D02*
X58842857Y37264229D01*
X58842857Y37264229D02*
X58842857Y37026134D01*
X58842857Y37026134D02*
X58795238Y36835658D01*
X58795238Y36835658D02*
X58747619Y36740420D01*
X58747619Y36740420D02*
X58700000Y36692800D01*
X58700000Y36692800D02*
X58604762Y36645181D01*
X58604762Y36645181D02*
X58509524Y36645181D01*
X58509524Y36645181D02*
X58414286Y36692800D01*
X58414286Y36692800D02*
X58366667Y36740420D01*
X58366667Y36740420D02*
X58319048Y36835658D01*
X58319048Y36835658D02*
X58271429Y37026134D01*
X58271429Y37026134D02*
X58271429Y37264229D01*
X58271429Y37264229D02*
X58319048Y37454705D01*
X58319048Y37454705D02*
X58366667Y37549943D01*
X58366667Y37549943D02*
X58414286Y37597562D01*
X58414286Y37597562D02*
X58509524Y37645181D01*
X59271429Y36740420D02*
X59319048Y36692800D01*
X59319048Y36692800D02*
X59271429Y36645181D01*
X59271429Y36645181D02*
X59223810Y36692800D01*
X59223810Y36692800D02*
X59271429Y36740420D01*
X59271429Y36740420D02*
X59271429Y36645181D01*
X59938095Y37645181D02*
X60033333Y37645181D01*
X60033333Y37645181D02*
X60128571Y37597562D01*
X60128571Y37597562D02*
X60176190Y37549943D01*
X60176190Y37549943D02*
X60223809Y37454705D01*
X60223809Y37454705D02*
X60271428Y37264229D01*
X60271428Y37264229D02*
X60271428Y37026134D01*
X60271428Y37026134D02*
X60223809Y36835658D01*
X60223809Y36835658D02*
X60176190Y36740420D01*
X60176190Y36740420D02*
X60128571Y36692800D01*
X60128571Y36692800D02*
X60033333Y36645181D01*
X60033333Y36645181D02*
X59938095Y36645181D01*
X59938095Y36645181D02*
X59842857Y36692800D01*
X59842857Y36692800D02*
X59795238Y36740420D01*
X59795238Y36740420D02*
X59747619Y36835658D01*
X59747619Y36835658D02*
X59700000Y37026134D01*
X59700000Y37026134D02*
X59700000Y37264229D01*
X59700000Y37264229D02*
X59747619Y37454705D01*
X59747619Y37454705D02*
X59795238Y37549943D01*
X59795238Y37549943D02*
X59842857Y37597562D01*
X59842857Y37597562D02*
X59938095Y37645181D01*
X61223809Y36645181D02*
X60652381Y36645181D01*
X60938095Y36645181D02*
X60938095Y37645181D01*
X60938095Y37645181D02*
X60842857Y37502324D01*
X60842857Y37502324D02*
X60747619Y37407086D01*
X60747619Y37407086D02*
X60652381Y37359467D01*
X62080952Y37311848D02*
X62080952Y36645181D01*
X61652381Y37311848D02*
X61652381Y36788039D01*
X61652381Y36788039D02*
X61700000Y36692800D01*
X61700000Y36692800D02*
X61795238Y36645181D01*
X61795238Y36645181D02*
X61938095Y36645181D01*
X61938095Y36645181D02*
X62033333Y36692800D01*
X62033333Y36692800D02*
X62080952Y36740420D01*
X48959580Y47057143D02*
X49007200Y47009524D01*
X49007200Y47009524D02*
X49054819Y46866667D01*
X49054819Y46866667D02*
X49054819Y46771429D01*
X49054819Y46771429D02*
X49007200Y46628572D01*
X49007200Y46628572D02*
X48911961Y46533334D01*
X48911961Y46533334D02*
X48816723Y46485715D01*
X48816723Y46485715D02*
X48626247Y46438096D01*
X48626247Y46438096D02*
X48483390Y46438096D01*
X48483390Y46438096D02*
X48292914Y46485715D01*
X48292914Y46485715D02*
X48197676Y46533334D01*
X48197676Y46533334D02*
X48102438Y46628572D01*
X48102438Y46628572D02*
X48054819Y46771429D01*
X48054819Y46771429D02*
X48054819Y46866667D01*
X48054819Y46866667D02*
X48102438Y47009524D01*
X48102438Y47009524D02*
X48150057Y47057143D01*
X48150057Y47438096D02*
X48102438Y47485715D01*
X48102438Y47485715D02*
X48054819Y47580953D01*
X48054819Y47580953D02*
X48054819Y47819048D01*
X48054819Y47819048D02*
X48102438Y47914286D01*
X48102438Y47914286D02*
X48150057Y47961905D01*
X48150057Y47961905D02*
X48245295Y48009524D01*
X48245295Y48009524D02*
X48340533Y48009524D01*
X48340533Y48009524D02*
X48483390Y47961905D01*
X48483390Y47961905D02*
X49054819Y47390477D01*
X49054819Y47390477D02*
X49054819Y48009524D01*
X48483390Y48580953D02*
X48435771Y48485715D01*
X48435771Y48485715D02*
X48388152Y48438096D01*
X48388152Y48438096D02*
X48292914Y48390477D01*
X48292914Y48390477D02*
X48245295Y48390477D01*
X48245295Y48390477D02*
X48150057Y48438096D01*
X48150057Y48438096D02*
X48102438Y48485715D01*
X48102438Y48485715D02*
X48054819Y48580953D01*
X48054819Y48580953D02*
X48054819Y48771429D01*
X48054819Y48771429D02*
X48102438Y48866667D01*
X48102438Y48866667D02*
X48150057Y48914286D01*
X48150057Y48914286D02*
X48245295Y48961905D01*
X48245295Y48961905D02*
X48292914Y48961905D01*
X48292914Y48961905D02*
X48388152Y48914286D01*
X48388152Y48914286D02*
X48435771Y48866667D01*
X48435771Y48866667D02*
X48483390Y48771429D01*
X48483390Y48771429D02*
X48483390Y48580953D01*
X48483390Y48580953D02*
X48531009Y48485715D01*
X48531009Y48485715D02*
X48578628Y48438096D01*
X48578628Y48438096D02*
X48673866Y48390477D01*
X48673866Y48390477D02*
X48864342Y48390477D01*
X48864342Y48390477D02*
X48959580Y48438096D01*
X48959580Y48438096D02*
X49007200Y48485715D01*
X49007200Y48485715D02*
X49054819Y48580953D01*
X49054819Y48580953D02*
X49054819Y48771429D01*
X49054819Y48771429D02*
X49007200Y48866667D01*
X49007200Y48866667D02*
X48959580Y48914286D01*
X48959580Y48914286D02*
X48864342Y48961905D01*
X48864342Y48961905D02*
X48673866Y48961905D01*
X48673866Y48961905D02*
X48578628Y48914286D01*
X48578628Y48914286D02*
X48531009Y48866667D01*
X48531009Y48866667D02*
X48483390Y48771429D01*
X59982142Y47790420D02*
X59934523Y47742800D01*
X59934523Y47742800D02*
X59791666Y47695181D01*
X59791666Y47695181D02*
X59696428Y47695181D01*
X59696428Y47695181D02*
X59553571Y47742800D01*
X59553571Y47742800D02*
X59458333Y47838039D01*
X59458333Y47838039D02*
X59410714Y47933277D01*
X59410714Y47933277D02*
X59363095Y48123753D01*
X59363095Y48123753D02*
X59363095Y48266610D01*
X59363095Y48266610D02*
X59410714Y48457086D01*
X59410714Y48457086D02*
X59458333Y48552324D01*
X59458333Y48552324D02*
X59553571Y48647562D01*
X59553571Y48647562D02*
X59696428Y48695181D01*
X59696428Y48695181D02*
X59791666Y48695181D01*
X59791666Y48695181D02*
X59934523Y48647562D01*
X59934523Y48647562D02*
X59982142Y48599943D01*
X60363095Y48599943D02*
X60410714Y48647562D01*
X60410714Y48647562D02*
X60505952Y48695181D01*
X60505952Y48695181D02*
X60744047Y48695181D01*
X60744047Y48695181D02*
X60839285Y48647562D01*
X60839285Y48647562D02*
X60886904Y48599943D01*
X60886904Y48599943D02*
X60934523Y48504705D01*
X60934523Y48504705D02*
X60934523Y48409467D01*
X60934523Y48409467D02*
X60886904Y48266610D01*
X60886904Y48266610D02*
X60315476Y47695181D01*
X60315476Y47695181D02*
X60934523Y47695181D01*
X61267857Y48695181D02*
X61886904Y48695181D01*
X61886904Y48695181D02*
X61553571Y48314229D01*
X61553571Y48314229D02*
X61696428Y48314229D01*
X61696428Y48314229D02*
X61791666Y48266610D01*
X61791666Y48266610D02*
X61839285Y48218991D01*
X61839285Y48218991D02*
X61886904Y48123753D01*
X61886904Y48123753D02*
X61886904Y47885658D01*
X61886904Y47885658D02*
X61839285Y47790420D01*
X61839285Y47790420D02*
X61791666Y47742800D01*
X61791666Y47742800D02*
X61696428Y47695181D01*
X61696428Y47695181D02*
X61410714Y47695181D01*
X61410714Y47695181D02*
X61315476Y47742800D01*
X61315476Y47742800D02*
X61267857Y47790420D01*
X49861905Y37295181D02*
X49861905Y36485658D01*
X49861905Y36485658D02*
X49909524Y36390420D01*
X49909524Y36390420D02*
X49957143Y36342800D01*
X49957143Y36342800D02*
X50052381Y36295181D01*
X50052381Y36295181D02*
X50242857Y36295181D01*
X50242857Y36295181D02*
X50338095Y36342800D01*
X50338095Y36342800D02*
X50385714Y36390420D01*
X50385714Y36390420D02*
X50433333Y36485658D01*
X50433333Y36485658D02*
X50433333Y37295181D01*
X51433333Y36295181D02*
X50861905Y36295181D01*
X51147619Y36295181D02*
X51147619Y37295181D01*
X51147619Y37295181D02*
X51052381Y37152324D01*
X51052381Y37152324D02*
X50957143Y37057086D01*
X50957143Y37057086D02*
X50861905Y37009467D01*
X52052381Y37295181D02*
X52147619Y37295181D01*
X52147619Y37295181D02*
X52242857Y37247562D01*
X52242857Y37247562D02*
X52290476Y37199943D01*
X52290476Y37199943D02*
X52338095Y37104705D01*
X52338095Y37104705D02*
X52385714Y36914229D01*
X52385714Y36914229D02*
X52385714Y36676134D01*
X52385714Y36676134D02*
X52338095Y36485658D01*
X52338095Y36485658D02*
X52290476Y36390420D01*
X52290476Y36390420D02*
X52242857Y36342800D01*
X52242857Y36342800D02*
X52147619Y36295181D01*
X52147619Y36295181D02*
X52052381Y36295181D01*
X52052381Y36295181D02*
X51957143Y36342800D01*
X51957143Y36342800D02*
X51909524Y36390420D01*
X51909524Y36390420D02*
X51861905Y36485658D01*
X51861905Y36485658D02*
X51814286Y36676134D01*
X51814286Y36676134D02*
X51814286Y36914229D01*
X51814286Y36914229D02*
X51861905Y37104705D01*
X51861905Y37104705D02*
X51909524Y37199943D01*
X51909524Y37199943D02*
X51957143Y37247562D01*
X51957143Y37247562D02*
X52052381Y37295181D01*
X48909580Y39357143D02*
X48957200Y39309524D01*
X48957200Y39309524D02*
X49004819Y39166667D01*
X49004819Y39166667D02*
X49004819Y39071429D01*
X49004819Y39071429D02*
X48957200Y38928572D01*
X48957200Y38928572D02*
X48861961Y38833334D01*
X48861961Y38833334D02*
X48766723Y38785715D01*
X48766723Y38785715D02*
X48576247Y38738096D01*
X48576247Y38738096D02*
X48433390Y38738096D01*
X48433390Y38738096D02*
X48242914Y38785715D01*
X48242914Y38785715D02*
X48147676Y38833334D01*
X48147676Y38833334D02*
X48052438Y38928572D01*
X48052438Y38928572D02*
X48004819Y39071429D01*
X48004819Y39071429D02*
X48004819Y39166667D01*
X48004819Y39166667D02*
X48052438Y39309524D01*
X48052438Y39309524D02*
X48100057Y39357143D01*
X48100057Y39738096D02*
X48052438Y39785715D01*
X48052438Y39785715D02*
X48004819Y39880953D01*
X48004819Y39880953D02*
X48004819Y40119048D01*
X48004819Y40119048D02*
X48052438Y40214286D01*
X48052438Y40214286D02*
X48100057Y40261905D01*
X48100057Y40261905D02*
X48195295Y40309524D01*
X48195295Y40309524D02*
X48290533Y40309524D01*
X48290533Y40309524D02*
X48433390Y40261905D01*
X48433390Y40261905D02*
X49004819Y39690477D01*
X49004819Y39690477D02*
X49004819Y40309524D01*
X49004819Y40785715D02*
X49004819Y40976191D01*
X49004819Y40976191D02*
X48957200Y41071429D01*
X48957200Y41071429D02*
X48909580Y41119048D01*
X48909580Y41119048D02*
X48766723Y41214286D01*
X48766723Y41214286D02*
X48576247Y41261905D01*
X48576247Y41261905D02*
X48195295Y41261905D01*
X48195295Y41261905D02*
X48100057Y41214286D01*
X48100057Y41214286D02*
X48052438Y41166667D01*
X48052438Y41166667D02*
X48004819Y41071429D01*
X48004819Y41071429D02*
X48004819Y40880953D01*
X48004819Y40880953D02*
X48052438Y40785715D01*
X48052438Y40785715D02*
X48100057Y40738096D01*
X48100057Y40738096D02*
X48195295Y40690477D01*
X48195295Y40690477D02*
X48433390Y40690477D01*
X48433390Y40690477D02*
X48528628Y40738096D01*
X48528628Y40738096D02*
X48576247Y40785715D01*
X48576247Y40785715D02*
X48623866Y40880953D01*
X48623866Y40880953D02*
X48623866Y41071429D01*
X48623866Y41071429D02*
X48576247Y41166667D01*
X48576247Y41166667D02*
X48528628Y41214286D01*
X48528628Y41214286D02*
X48433390Y41261905D01*
X16588095Y55445181D02*
X16588095Y54635658D01*
X16588095Y54635658D02*
X16635714Y54540420D01*
X16635714Y54540420D02*
X16683333Y54492800D01*
X16683333Y54492800D02*
X16778571Y54445181D01*
X16778571Y54445181D02*
X16969047Y54445181D01*
X16969047Y54445181D02*
X17064285Y54492800D01*
X17064285Y54492800D02*
X17111904Y54540420D01*
X17111904Y54540420D02*
X17159523Y54635658D01*
X17159523Y54635658D02*
X17159523Y55445181D01*
X18159523Y54445181D02*
X17588095Y54445181D01*
X17873809Y54445181D02*
X17873809Y55445181D01*
X17873809Y55445181D02*
X17778571Y55302324D01*
X17778571Y55302324D02*
X17683333Y55207086D01*
X17683333Y55207086D02*
X17588095Y55159467D01*
X8833333Y49190420D02*
X8785714Y49142800D01*
X8785714Y49142800D02*
X8642857Y49095181D01*
X8642857Y49095181D02*
X8547619Y49095181D01*
X8547619Y49095181D02*
X8404762Y49142800D01*
X8404762Y49142800D02*
X8309524Y49238039D01*
X8309524Y49238039D02*
X8261905Y49333277D01*
X8261905Y49333277D02*
X8214286Y49523753D01*
X8214286Y49523753D02*
X8214286Y49666610D01*
X8214286Y49666610D02*
X8261905Y49857086D01*
X8261905Y49857086D02*
X8309524Y49952324D01*
X8309524Y49952324D02*
X8404762Y50047562D01*
X8404762Y50047562D02*
X8547619Y50095181D01*
X8547619Y50095181D02*
X8642857Y50095181D01*
X8642857Y50095181D02*
X8785714Y50047562D01*
X8785714Y50047562D02*
X8833333Y49999943D01*
X9166667Y50095181D02*
X9785714Y50095181D01*
X9785714Y50095181D02*
X9452381Y49714229D01*
X9452381Y49714229D02*
X9595238Y49714229D01*
X9595238Y49714229D02*
X9690476Y49666610D01*
X9690476Y49666610D02*
X9738095Y49618991D01*
X9738095Y49618991D02*
X9785714Y49523753D01*
X9785714Y49523753D02*
X9785714Y49285658D01*
X9785714Y49285658D02*
X9738095Y49190420D01*
X9738095Y49190420D02*
X9690476Y49142800D01*
X9690476Y49142800D02*
X9595238Y49095181D01*
X9595238Y49095181D02*
X9309524Y49095181D01*
X9309524Y49095181D02*
X9214286Y49142800D01*
X9214286Y49142800D02*
X9166667Y49190420D01*
D13*
X54762500Y57810000D02*
X53962500Y57810000D01*
X54762500Y57810000D02*
X55562500Y57810000D01*
X54762500Y54690000D02*
X53962500Y54690000D01*
X54762500Y54690000D02*
X55562500Y54690000D01*
X56302500Y54410000D02*
X55822500Y54410000D01*
X56062500Y54740000D01*
X56302500Y54410000D01*
G36*
X56302500Y54410000D02*
G01*
X55822500Y54410000D01*
X56062500Y54740000D01*
X56302500Y54410000D01*
G37*
X33110000Y54511252D02*
X33110000Y53088748D01*
X34930000Y54511252D02*
X34930000Y53088748D01*
X54812500Y53010000D02*
X54012500Y53010000D01*
X54812500Y53010000D02*
X55612500Y53010000D01*
X54812500Y49890000D02*
X54012500Y49890000D01*
X54812500Y49890000D02*
X55612500Y49890000D01*
X56352500Y49610000D02*
X55872500Y49610000D01*
X56112500Y49940000D01*
X56352500Y49610000D01*
G36*
X56352500Y49610000D02*
G01*
X55872500Y49610000D01*
X56112500Y49940000D01*
X56352500Y49610000D01*
G37*
X14137500Y43710000D02*
X13337500Y43710000D01*
X14137500Y43710000D02*
X14937500Y43710000D01*
X14137500Y40590000D02*
X13337500Y40590000D01*
X14137500Y40590000D02*
X14937500Y40590000D01*
X12837500Y43660000D02*
X12597500Y43990000D01*
X13077500Y43990000D01*
X12837500Y43660000D01*
G36*
X12837500Y43660000D02*
G01*
X12597500Y43990000D01*
X13077500Y43990000D01*
X12837500Y43660000D01*
G37*
X33290000Y64711252D02*
X33290000Y63288748D01*
X35110000Y64711252D02*
X35110000Y63288748D01*
X33190000Y34336252D02*
X33190000Y32913748D01*
X35010000Y34336252D02*
X35010000Y32913748D01*
X46890000Y24206252D02*
X46890000Y22783748D01*
X48710000Y24206252D02*
X48710000Y22783748D01*
X2461252Y38110000D02*
X1038748Y38110000D01*
X2461252Y36290000D02*
X1038748Y36290000D01*
X59913748Y43410000D02*
X61336252Y43410000D01*
X59913748Y41590000D02*
X61336252Y41590000D01*
X54812500Y48260000D02*
X54012500Y48260000D01*
X54812500Y48260000D02*
X55612500Y48260000D01*
X54812500Y45140000D02*
X54012500Y45140000D01*
X54812500Y45140000D02*
X55612500Y45140000D01*
X56352500Y44860000D02*
X55872500Y44860000D01*
X56112500Y45190000D01*
X56352500Y44860000D01*
G36*
X56352500Y44860000D02*
G01*
X55872500Y44860000D01*
X56112500Y45190000D01*
X56352500Y44860000D01*
G37*
X14137500Y48310000D02*
X13337500Y48310000D01*
X14137500Y48310000D02*
X14937500Y48310000D01*
X14137500Y45190000D02*
X13337500Y45190000D01*
X14137500Y45190000D02*
X14937500Y45190000D01*
X12837500Y48260000D02*
X12597500Y48590000D01*
X13077500Y48590000D01*
X12837500Y48260000D01*
G36*
X12837500Y48260000D02*
G01*
X12597500Y48590000D01*
X13077500Y48590000D01*
X12837500Y48260000D01*
G37*
X59913748Y50910000D02*
X61336252Y50910000D01*
X59913748Y49090000D02*
X61336252Y49090000D01*
X49540000Y53086252D02*
X49540000Y51663748D01*
X51360000Y53086252D02*
X51360000Y51663748D01*
X47290000Y64836252D02*
X47290000Y63413748D01*
X49110000Y64836252D02*
X49110000Y63413748D01*
X19190000Y24311252D02*
X19190000Y22888748D01*
X21010000Y24311252D02*
X21010000Y22888748D01*
X33190000Y24206252D02*
X33190000Y22783748D01*
X35010000Y24206252D02*
X35010000Y22783748D01*
X8313748Y55710000D02*
X9736252Y55710000D01*
X8313748Y53890000D02*
X9736252Y53890000D01*
X8288748Y41210000D02*
X9711252Y41210000D01*
X8288748Y39390000D02*
X9711252Y39390000D01*
D14*
X-1965000Y46435000D02*
X-1965000Y48885000D01*
X60000Y44335000D02*
X2610000Y44335000D01*
X210000Y51010000D02*
X2535000Y51010000D01*
X4760000Y48810000D02*
X4760000Y46635000D01*
D13*
X19390000Y34436252D02*
X19390000Y33013748D01*
X21210000Y34436252D02*
X21210000Y33013748D01*
X59888748Y54710000D02*
X61311252Y54710000D01*
X59888748Y52890000D02*
X61311252Y52890000D01*
X8288748Y44910000D02*
X9711252Y44910000D01*
X8288748Y43090000D02*
X9711252Y43090000D01*
X19390000Y64836252D02*
X19390000Y63413748D01*
X21210000Y64836252D02*
X21210000Y63413748D01*
X33190000Y44386252D02*
X33190000Y42963748D01*
X35010000Y44386252D02*
X35010000Y42963748D01*
X46740000Y54611252D02*
X46740000Y53188748D01*
X48560000Y54611252D02*
X48560000Y53188748D01*
X-3171000Y35337000D02*
X5580000Y35340000D01*
X-3171000Y27100000D02*
X-2230000Y27100000D01*
X-2230000Y34040000D02*
X4270000Y34040000D01*
X-2230000Y27100000D02*
X-2230000Y34040000D01*
X-2230000Y23000000D02*
X-3171000Y23000000D01*
X-2230000Y23000000D02*
X-2230000Y23000000D01*
X-2230000Y16060000D02*
X-2230000Y23000000D01*
X4270000Y34040000D02*
X4270000Y16060000D01*
X4270000Y16060000D02*
X-2230000Y16060000D01*
X5580000Y35340000D02*
X5580000Y14760000D01*
X5580000Y14760000D02*
X-3171000Y14763000D01*
D14*
X65015000Y45035000D02*
X65015000Y47485000D01*
X67040000Y42935000D02*
X69590000Y42935000D01*
X67190000Y49610000D02*
X69515000Y49610000D01*
X71740000Y47410000D02*
X71740000Y45235000D01*
D13*
X54812500Y43560000D02*
X54012500Y43560000D01*
X54812500Y43560000D02*
X55612500Y43560000D01*
X54812500Y40440000D02*
X54012500Y40440000D01*
X54812500Y40440000D02*
X55612500Y40440000D01*
X56352500Y40160000D02*
X55872500Y40160000D01*
X56112500Y40490000D01*
X56352500Y40160000D01*
G36*
X56352500Y40160000D02*
G01*
X55872500Y40160000D01*
X56112500Y40490000D01*
X56352500Y40160000D01*
G37*
X10063800Y29775000D02*
X8113800Y29775000D01*
X10063800Y29775000D02*
X12013800Y29775000D01*
X10063800Y20905000D02*
X8113800Y20905000D01*
X10063800Y20905000D02*
X12013800Y20905000D01*
X7363800Y29710000D02*
X7123800Y30040000D01*
X7603800Y30040000D01*
X7363800Y29710000D01*
G36*
X7363800Y29710000D02*
G01*
X7123800Y30040000D01*
X7603800Y30040000D01*
X7363800Y29710000D01*
G37*
X14137500Y53010000D02*
X13337500Y53010000D01*
X14137500Y53010000D02*
X14937500Y53010000D01*
X14137500Y49890000D02*
X13337500Y49890000D01*
X14137500Y49890000D02*
X14937500Y49890000D01*
X12837500Y52960000D02*
X12597500Y53290000D01*
X13077500Y53290000D01*
X12837500Y52960000D01*
G36*
X12837500Y52960000D02*
G01*
X12597500Y53290000D01*
X13077500Y53290000D01*
X12837500Y52960000D01*
G37*
X50640000Y63136252D02*
X50640000Y61713748D01*
X52460000Y63136252D02*
X52460000Y61713748D01*
X50590000Y31938748D02*
X50590000Y33361252D01*
X52410000Y31938748D02*
X52410000Y33361252D01*
X46590000Y44486252D02*
X46590000Y43063748D01*
X48410000Y44486252D02*
X48410000Y43063748D01*
X19390000Y44436252D02*
X19390000Y43013748D01*
X21210000Y44436252D02*
X21210000Y43013748D01*
X19190000Y54636252D02*
X19190000Y53213748D01*
X21010000Y54636252D02*
X21010000Y53213748D01*
X46890000Y34336252D02*
X46890000Y32913748D01*
X48710000Y34336252D02*
X48710000Y32913748D01*
X14112500Y38860000D02*
X13312500Y38860000D01*
X14112500Y38860000D02*
X14912500Y38860000D01*
X14112500Y35740000D02*
X13312500Y35740000D01*
X14112500Y35740000D02*
X14912500Y35740000D01*
X12812500Y38810000D02*
X12572500Y39140000D01*
X13052500Y39140000D01*
X12812500Y38810000D01*
G36*
X12812500Y38810000D02*
G01*
X12572500Y39140000D01*
X13052500Y39140000D01*
X12812500Y38810000D01*
G37*
X8288748Y52310000D02*
X9711252Y52310000D01*
X8288748Y50490000D02*
X9711252Y50490000D01*
X59888748Y39910000D02*
X61311252Y39910000D01*
X59888748Y38090000D02*
X61311252Y38090000D01*
X49590000Y45338748D02*
X49590000Y46761252D01*
X51410000Y45338748D02*
X51410000Y46761252D01*
X59913748Y47210000D02*
X61336252Y47210000D01*
X59913748Y45390000D02*
X61336252Y45390000D01*
X54737500Y38910000D02*
X53937500Y38910000D01*
X54737500Y38910000D02*
X55537500Y38910000D01*
X54737500Y35790000D02*
X53937500Y35790000D01*
X54737500Y35790000D02*
X55537500Y35790000D01*
X56277500Y35510000D02*
X55797500Y35510000D01*
X56037500Y35840000D01*
X56277500Y35510000D01*
G36*
X56277500Y35510000D02*
G01*
X55797500Y35510000D01*
X56037500Y35840000D01*
X56277500Y35510000D01*
G37*
X49490000Y39288748D02*
X49490000Y40711252D01*
X51310000Y39288748D02*
X51310000Y40711252D01*
X14137500Y57810000D02*
X13337500Y57810000D01*
X14137500Y57810000D02*
X14937500Y57810000D01*
X14137500Y54690000D02*
X13337500Y54690000D01*
X14137500Y54690000D02*
X14937500Y54690000D01*
X12837500Y57760000D02*
X12597500Y58090000D01*
X13077500Y58090000D01*
X12837500Y57760000D01*
G36*
X12837500Y57760000D02*
G01*
X12597500Y58090000D01*
X13077500Y58090000D01*
X12837500Y57760000D01*
G37*
X8288748Y48610000D02*
X9711252Y48610000D01*
X8288748Y46790000D02*
X9711252Y46790000D01*
M02*
