G04 #@! TF.GenerationSoftware,KiCad,Pcbnew,8.0.2*
G04 #@! TF.CreationDate,2024-05-05T06:41:10-04:00*
G04 #@! TF.ProjectId,sdt_lpf,7364745f-6c70-4662-9e6b-696361645f70,rev?*
G04 #@! TF.SameCoordinates,PX62de0f0PY8af5bb0*
G04 #@! TF.FileFunction,Legend,Bot*
G04 #@! TF.FilePolarity,Positive*
%FSLAX46Y46*%
G04 Gerber Fmt 4.6, Leading zero omitted, Abs format (unit mm)*
G04 Created by KiCad (PCBNEW 8.0.2) date 2024-05-05 06:41:10*
%MOMM*%
%LPD*%
G01*
G04 APERTURE LIST*
%ADD10C,0.150000*%
%ADD11C,0.100000*%
%ADD12C,0.120000*%
G04 APERTURE END LIST*
D10*
X11638094Y47695181D02*
X11638094Y46885658D01*
X11638094Y46885658D02*
X11590475Y46790420D01*
X11590475Y46790420D02*
X11542856Y46742800D01*
X11542856Y46742800D02*
X11447618Y46695181D01*
X11447618Y46695181D02*
X11257142Y46695181D01*
X11257142Y46695181D02*
X11161904Y46742800D01*
X11161904Y46742800D02*
X11114285Y46790420D01*
X11114285Y46790420D02*
X11066666Y46885658D01*
X11066666Y46885658D02*
X11066666Y47695181D01*
X10066666Y46695181D02*
X10638094Y46695181D01*
X10352380Y46695181D02*
X10352380Y47695181D01*
X10352380Y47695181D02*
X10447618Y47552324D01*
X10447618Y47552324D02*
X10542856Y47457086D01*
X10542856Y47457086D02*
X10638094Y47409467D01*
X9733332Y47695181D02*
X9066666Y47695181D01*
X9066666Y47695181D02*
X9495237Y46695181D01*
X11438094Y56470181D02*
X11438094Y55660658D01*
X11438094Y55660658D02*
X11390475Y55565420D01*
X11390475Y55565420D02*
X11342856Y55517800D01*
X11342856Y55517800D02*
X11247618Y55470181D01*
X11247618Y55470181D02*
X11057142Y55470181D01*
X11057142Y55470181D02*
X10961904Y55517800D01*
X10961904Y55517800D02*
X10914285Y55565420D01*
X10914285Y55565420D02*
X10866666Y55660658D01*
X10866666Y55660658D02*
X10866666Y56470181D01*
X10438094Y56374943D02*
X10390475Y56422562D01*
X10390475Y56422562D02*
X10295237Y56470181D01*
X10295237Y56470181D02*
X10057142Y56470181D01*
X10057142Y56470181D02*
X9961904Y56422562D01*
X9961904Y56422562D02*
X9914285Y56374943D01*
X9914285Y56374943D02*
X9866666Y56279705D01*
X9866666Y56279705D02*
X9866666Y56184467D01*
X9866666Y56184467D02*
X9914285Y56041610D01*
X9914285Y56041610D02*
X10485713Y55470181D01*
X10485713Y55470181D02*
X9866666Y55470181D01*
X8914285Y55470181D02*
X9485713Y55470181D01*
X9199999Y55470181D02*
X9199999Y56470181D01*
X9199999Y56470181D02*
X9295237Y56327324D01*
X9295237Y56327324D02*
X9390475Y56232086D01*
X9390475Y56232086D02*
X9485713Y56184467D01*
X11767857Y22765420D02*
X11815476Y22717800D01*
X11815476Y22717800D02*
X11958333Y22670181D01*
X11958333Y22670181D02*
X12053571Y22670181D01*
X12053571Y22670181D02*
X12196428Y22717800D01*
X12196428Y22717800D02*
X12291666Y22813039D01*
X12291666Y22813039D02*
X12339285Y22908277D01*
X12339285Y22908277D02*
X12386904Y23098753D01*
X12386904Y23098753D02*
X12386904Y23241610D01*
X12386904Y23241610D02*
X12339285Y23432086D01*
X12339285Y23432086D02*
X12291666Y23527324D01*
X12291666Y23527324D02*
X12196428Y23622562D01*
X12196428Y23622562D02*
X12053571Y23670181D01*
X12053571Y23670181D02*
X11958333Y23670181D01*
X11958333Y23670181D02*
X11815476Y23622562D01*
X11815476Y23622562D02*
X11767857Y23574943D01*
X11434523Y23670181D02*
X10815476Y23670181D01*
X10815476Y23670181D02*
X11148809Y23289229D01*
X11148809Y23289229D02*
X11005952Y23289229D01*
X11005952Y23289229D02*
X10910714Y23241610D01*
X10910714Y23241610D02*
X10863095Y23193991D01*
X10863095Y23193991D02*
X10815476Y23098753D01*
X10815476Y23098753D02*
X10815476Y22860658D01*
X10815476Y22860658D02*
X10863095Y22765420D01*
X10863095Y22765420D02*
X10910714Y22717800D01*
X10910714Y22717800D02*
X11005952Y22670181D01*
X11005952Y22670181D02*
X11291666Y22670181D01*
X11291666Y22670181D02*
X11386904Y22717800D01*
X11386904Y22717800D02*
X11434523Y22765420D01*
X9958333Y23670181D02*
X10148809Y23670181D01*
X10148809Y23670181D02*
X10244047Y23622562D01*
X10244047Y23622562D02*
X10291666Y23574943D01*
X10291666Y23574943D02*
X10386904Y23432086D01*
X10386904Y23432086D02*
X10434523Y23241610D01*
X10434523Y23241610D02*
X10434523Y22860658D01*
X10434523Y22860658D02*
X10386904Y22765420D01*
X10386904Y22765420D02*
X10339285Y22717800D01*
X10339285Y22717800D02*
X10244047Y22670181D01*
X10244047Y22670181D02*
X10053571Y22670181D01*
X10053571Y22670181D02*
X9958333Y22717800D01*
X9958333Y22717800D02*
X9910714Y22765420D01*
X9910714Y22765420D02*
X9863095Y22860658D01*
X9863095Y22860658D02*
X9863095Y23098753D01*
X9863095Y23098753D02*
X9910714Y23193991D01*
X9910714Y23193991D02*
X9958333Y23241610D01*
X9958333Y23241610D02*
X10053571Y23289229D01*
X10053571Y23289229D02*
X10244047Y23289229D01*
X10244047Y23289229D02*
X10339285Y23241610D01*
X10339285Y23241610D02*
X10386904Y23193991D01*
X10386904Y23193991D02*
X10434523Y23098753D01*
X12539285Y22370181D02*
X12444047Y22370181D01*
X12444047Y22370181D02*
X12348809Y22322562D01*
X12348809Y22322562D02*
X12301190Y22274943D01*
X12301190Y22274943D02*
X12253571Y22179705D01*
X12253571Y22179705D02*
X12205952Y21989229D01*
X12205952Y21989229D02*
X12205952Y21751134D01*
X12205952Y21751134D02*
X12253571Y21560658D01*
X12253571Y21560658D02*
X12301190Y21465420D01*
X12301190Y21465420D02*
X12348809Y21417800D01*
X12348809Y21417800D02*
X12444047Y21370181D01*
X12444047Y21370181D02*
X12539285Y21370181D01*
X12539285Y21370181D02*
X12634523Y21417800D01*
X12634523Y21417800D02*
X12682142Y21465420D01*
X12682142Y21465420D02*
X12729761Y21560658D01*
X12729761Y21560658D02*
X12777380Y21751134D01*
X12777380Y21751134D02*
X12777380Y21989229D01*
X12777380Y21989229D02*
X12729761Y22179705D01*
X12729761Y22179705D02*
X12682142Y22274943D01*
X12682142Y22274943D02*
X12634523Y22322562D01*
X12634523Y22322562D02*
X12539285Y22370181D01*
X11777380Y21465420D02*
X11729761Y21417800D01*
X11729761Y21417800D02*
X11777380Y21370181D01*
X11777380Y21370181D02*
X11824999Y21417800D01*
X11824999Y21417800D02*
X11777380Y21465420D01*
X11777380Y21465420D02*
X11777380Y21370181D01*
X10777381Y21370181D02*
X11348809Y21370181D01*
X11063095Y21370181D02*
X11063095Y22370181D01*
X11063095Y22370181D02*
X11158333Y22227324D01*
X11158333Y22227324D02*
X11253571Y22132086D01*
X11253571Y22132086D02*
X11348809Y22084467D01*
X9920238Y22036848D02*
X9920238Y21370181D01*
X10348809Y22036848D02*
X10348809Y21513039D01*
X10348809Y21513039D02*
X10301190Y21417800D01*
X10301190Y21417800D02*
X10205952Y21370181D01*
X10205952Y21370181D02*
X10063095Y21370181D01*
X10063095Y21370181D02*
X9967857Y21417800D01*
X9967857Y21417800D02*
X9920238Y21465420D01*
X11488094Y43745181D02*
X11488094Y42935658D01*
X11488094Y42935658D02*
X11440475Y42840420D01*
X11440475Y42840420D02*
X11392856Y42792800D01*
X11392856Y42792800D02*
X11297618Y42745181D01*
X11297618Y42745181D02*
X11107142Y42745181D01*
X11107142Y42745181D02*
X11011904Y42792800D01*
X11011904Y42792800D02*
X10964285Y42840420D01*
X10964285Y42840420D02*
X10916666Y42935658D01*
X10916666Y42935658D02*
X10916666Y43745181D01*
X9916666Y42745181D02*
X10488094Y42745181D01*
X10202380Y42745181D02*
X10202380Y43745181D01*
X10202380Y43745181D02*
X10297618Y43602324D01*
X10297618Y43602324D02*
X10392856Y43507086D01*
X10392856Y43507086D02*
X10488094Y43459467D01*
X9059523Y43411848D02*
X9059523Y42745181D01*
X9297618Y43792800D02*
X9535713Y43078515D01*
X9535713Y43078515D02*
X8916666Y43078515D01*
X59838094Y58170181D02*
X59838094Y57360658D01*
X59838094Y57360658D02*
X59790475Y57265420D01*
X59790475Y57265420D02*
X59742856Y57217800D01*
X59742856Y57217800D02*
X59647618Y57170181D01*
X59647618Y57170181D02*
X59457142Y57170181D01*
X59457142Y57170181D02*
X59361904Y57217800D01*
X59361904Y57217800D02*
X59314285Y57265420D01*
X59314285Y57265420D02*
X59266666Y57360658D01*
X59266666Y57360658D02*
X59266666Y58170181D01*
X58838094Y58074943D02*
X58790475Y58122562D01*
X58790475Y58122562D02*
X58695237Y58170181D01*
X58695237Y58170181D02*
X58457142Y58170181D01*
X58457142Y58170181D02*
X58361904Y58122562D01*
X58361904Y58122562D02*
X58314285Y58074943D01*
X58314285Y58074943D02*
X58266666Y57979705D01*
X58266666Y57979705D02*
X58266666Y57884467D01*
X58266666Y57884467D02*
X58314285Y57741610D01*
X58314285Y57741610D02*
X58885713Y57170181D01*
X58885713Y57170181D02*
X58266666Y57170181D01*
X57885713Y58074943D02*
X57838094Y58122562D01*
X57838094Y58122562D02*
X57742856Y58170181D01*
X57742856Y58170181D02*
X57504761Y58170181D01*
X57504761Y58170181D02*
X57409523Y58122562D01*
X57409523Y58122562D02*
X57361904Y58074943D01*
X57361904Y58074943D02*
X57314285Y57979705D01*
X57314285Y57979705D02*
X57314285Y57884467D01*
X57314285Y57884467D02*
X57361904Y57741610D01*
X57361904Y57741610D02*
X57933332Y57170181D01*
X57933332Y57170181D02*
X57314285Y57170181D01*
X59863094Y44320181D02*
X59863094Y43510658D01*
X59863094Y43510658D02*
X59815475Y43415420D01*
X59815475Y43415420D02*
X59767856Y43367800D01*
X59767856Y43367800D02*
X59672618Y43320181D01*
X59672618Y43320181D02*
X59482142Y43320181D01*
X59482142Y43320181D02*
X59386904Y43367800D01*
X59386904Y43367800D02*
X59339285Y43415420D01*
X59339285Y43415420D02*
X59291666Y43510658D01*
X59291666Y43510658D02*
X59291666Y44320181D01*
X58291666Y43320181D02*
X58863094Y43320181D01*
X58577380Y43320181D02*
X58577380Y44320181D01*
X58577380Y44320181D02*
X58672618Y44177324D01*
X58672618Y44177324D02*
X58767856Y44082086D01*
X58767856Y44082086D02*
X58863094Y44034467D01*
X57434523Y44320181D02*
X57624999Y44320181D01*
X57624999Y44320181D02*
X57720237Y44272562D01*
X57720237Y44272562D02*
X57767856Y44224943D01*
X57767856Y44224943D02*
X57863094Y44082086D01*
X57863094Y44082086D02*
X57910713Y43891610D01*
X57910713Y43891610D02*
X57910713Y43510658D01*
X57910713Y43510658D02*
X57863094Y43415420D01*
X57863094Y43415420D02*
X57815475Y43367800D01*
X57815475Y43367800D02*
X57720237Y43320181D01*
X57720237Y43320181D02*
X57529761Y43320181D01*
X57529761Y43320181D02*
X57434523Y43367800D01*
X57434523Y43367800D02*
X57386904Y43415420D01*
X57386904Y43415420D02*
X57339285Y43510658D01*
X57339285Y43510658D02*
X57339285Y43748753D01*
X57339285Y43748753D02*
X57386904Y43843991D01*
X57386904Y43843991D02*
X57434523Y43891610D01*
X57434523Y43891610D02*
X57529761Y43939229D01*
X57529761Y43939229D02*
X57720237Y43939229D01*
X57720237Y43939229D02*
X57815475Y43891610D01*
X57815475Y43891610D02*
X57863094Y43843991D01*
X57863094Y43843991D02*
X57910713Y43748753D01*
X11463094Y38945181D02*
X11463094Y38135658D01*
X11463094Y38135658D02*
X11415475Y38040420D01*
X11415475Y38040420D02*
X11367856Y37992800D01*
X11367856Y37992800D02*
X11272618Y37945181D01*
X11272618Y37945181D02*
X11082142Y37945181D01*
X11082142Y37945181D02*
X10986904Y37992800D01*
X10986904Y37992800D02*
X10939285Y38040420D01*
X10939285Y38040420D02*
X10891666Y38135658D01*
X10891666Y38135658D02*
X10891666Y38945181D01*
X9891666Y37945181D02*
X10463094Y37945181D01*
X10177380Y37945181D02*
X10177380Y38945181D01*
X10177380Y38945181D02*
X10272618Y38802324D01*
X10272618Y38802324D02*
X10367856Y38707086D01*
X10367856Y38707086D02*
X10463094Y38659467D01*
X9558332Y38945181D02*
X8939285Y38945181D01*
X8939285Y38945181D02*
X9272618Y38564229D01*
X9272618Y38564229D02*
X9129761Y38564229D01*
X9129761Y38564229D02*
X9034523Y38516610D01*
X9034523Y38516610D02*
X8986904Y38468991D01*
X8986904Y38468991D02*
X8939285Y38373753D01*
X8939285Y38373753D02*
X8939285Y38135658D01*
X8939285Y38135658D02*
X8986904Y38040420D01*
X8986904Y38040420D02*
X9034523Y37992800D01*
X9034523Y37992800D02*
X9129761Y37945181D01*
X9129761Y37945181D02*
X9415475Y37945181D01*
X9415475Y37945181D02*
X9510713Y37992800D01*
X9510713Y37992800D02*
X9558332Y38040420D01*
X11513094Y51970181D02*
X11513094Y51160658D01*
X11513094Y51160658D02*
X11465475Y51065420D01*
X11465475Y51065420D02*
X11417856Y51017800D01*
X11417856Y51017800D02*
X11322618Y50970181D01*
X11322618Y50970181D02*
X11132142Y50970181D01*
X11132142Y50970181D02*
X11036904Y51017800D01*
X11036904Y51017800D02*
X10989285Y51065420D01*
X10989285Y51065420D02*
X10941666Y51160658D01*
X10941666Y51160658D02*
X10941666Y51970181D01*
X9941666Y50970181D02*
X10513094Y50970181D01*
X10227380Y50970181D02*
X10227380Y51970181D01*
X10227380Y51970181D02*
X10322618Y51827324D01*
X10322618Y51827324D02*
X10417856Y51732086D01*
X10417856Y51732086D02*
X10513094Y51684467D01*
X9370237Y51541610D02*
X9465475Y51589229D01*
X9465475Y51589229D02*
X9513094Y51636848D01*
X9513094Y51636848D02*
X9560713Y51732086D01*
X9560713Y51732086D02*
X9560713Y51779705D01*
X9560713Y51779705D02*
X9513094Y51874943D01*
X9513094Y51874943D02*
X9465475Y51922562D01*
X9465475Y51922562D02*
X9370237Y51970181D01*
X9370237Y51970181D02*
X9179761Y51970181D01*
X9179761Y51970181D02*
X9084523Y51922562D01*
X9084523Y51922562D02*
X9036904Y51874943D01*
X9036904Y51874943D02*
X8989285Y51779705D01*
X8989285Y51779705D02*
X8989285Y51732086D01*
X8989285Y51732086D02*
X9036904Y51636848D01*
X9036904Y51636848D02*
X9084523Y51589229D01*
X9084523Y51589229D02*
X9179761Y51541610D01*
X9179761Y51541610D02*
X9370237Y51541610D01*
X9370237Y51541610D02*
X9465475Y51493991D01*
X9465475Y51493991D02*
X9513094Y51446372D01*
X9513094Y51446372D02*
X9560713Y51351134D01*
X9560713Y51351134D02*
X9560713Y51160658D01*
X9560713Y51160658D02*
X9513094Y51065420D01*
X9513094Y51065420D02*
X9465475Y51017800D01*
X9465475Y51017800D02*
X9370237Y50970181D01*
X9370237Y50970181D02*
X9179761Y50970181D01*
X9179761Y50970181D02*
X9084523Y51017800D01*
X9084523Y51017800D02*
X9036904Y51065420D01*
X9036904Y51065420D02*
X8989285Y51160658D01*
X8989285Y51160658D02*
X8989285Y51351134D01*
X8989285Y51351134D02*
X9036904Y51446372D01*
X9036904Y51446372D02*
X9084523Y51493991D01*
X9084523Y51493991D02*
X9179761Y51541610D01*
X11867857Y27815420D02*
X11915476Y27767800D01*
X11915476Y27767800D02*
X12058333Y27720181D01*
X12058333Y27720181D02*
X12153571Y27720181D01*
X12153571Y27720181D02*
X12296428Y27767800D01*
X12296428Y27767800D02*
X12391666Y27863039D01*
X12391666Y27863039D02*
X12439285Y27958277D01*
X12439285Y27958277D02*
X12486904Y28148753D01*
X12486904Y28148753D02*
X12486904Y28291610D01*
X12486904Y28291610D02*
X12439285Y28482086D01*
X12439285Y28482086D02*
X12391666Y28577324D01*
X12391666Y28577324D02*
X12296428Y28672562D01*
X12296428Y28672562D02*
X12153571Y28720181D01*
X12153571Y28720181D02*
X12058333Y28720181D01*
X12058333Y28720181D02*
X11915476Y28672562D01*
X11915476Y28672562D02*
X11867857Y28624943D01*
X11534523Y28720181D02*
X10915476Y28720181D01*
X10915476Y28720181D02*
X11248809Y28339229D01*
X11248809Y28339229D02*
X11105952Y28339229D01*
X11105952Y28339229D02*
X11010714Y28291610D01*
X11010714Y28291610D02*
X10963095Y28243991D01*
X10963095Y28243991D02*
X10915476Y28148753D01*
X10915476Y28148753D02*
X10915476Y27910658D01*
X10915476Y27910658D02*
X10963095Y27815420D01*
X10963095Y27815420D02*
X11010714Y27767800D01*
X11010714Y27767800D02*
X11105952Y27720181D01*
X11105952Y27720181D02*
X11391666Y27720181D01*
X11391666Y27720181D02*
X11486904Y27767800D01*
X11486904Y27767800D02*
X11534523Y27815420D01*
X10582142Y28720181D02*
X9963095Y28720181D01*
X9963095Y28720181D02*
X10296428Y28339229D01*
X10296428Y28339229D02*
X10153571Y28339229D01*
X10153571Y28339229D02*
X10058333Y28291610D01*
X10058333Y28291610D02*
X10010714Y28243991D01*
X10010714Y28243991D02*
X9963095Y28148753D01*
X9963095Y28148753D02*
X9963095Y27910658D01*
X9963095Y27910658D02*
X10010714Y27815420D01*
X10010714Y27815420D02*
X10058333Y27767800D01*
X10058333Y27767800D02*
X10153571Y27720181D01*
X10153571Y27720181D02*
X10439285Y27720181D01*
X10439285Y27720181D02*
X10534523Y27767800D01*
X10534523Y27767800D02*
X10582142Y27815420D01*
X12489285Y27445181D02*
X12394047Y27445181D01*
X12394047Y27445181D02*
X12298809Y27397562D01*
X12298809Y27397562D02*
X12251190Y27349943D01*
X12251190Y27349943D02*
X12203571Y27254705D01*
X12203571Y27254705D02*
X12155952Y27064229D01*
X12155952Y27064229D02*
X12155952Y26826134D01*
X12155952Y26826134D02*
X12203571Y26635658D01*
X12203571Y26635658D02*
X12251190Y26540420D01*
X12251190Y26540420D02*
X12298809Y26492800D01*
X12298809Y26492800D02*
X12394047Y26445181D01*
X12394047Y26445181D02*
X12489285Y26445181D01*
X12489285Y26445181D02*
X12584523Y26492800D01*
X12584523Y26492800D02*
X12632142Y26540420D01*
X12632142Y26540420D02*
X12679761Y26635658D01*
X12679761Y26635658D02*
X12727380Y26826134D01*
X12727380Y26826134D02*
X12727380Y27064229D01*
X12727380Y27064229D02*
X12679761Y27254705D01*
X12679761Y27254705D02*
X12632142Y27349943D01*
X12632142Y27349943D02*
X12584523Y27397562D01*
X12584523Y27397562D02*
X12489285Y27445181D01*
X11727380Y26540420D02*
X11679761Y26492800D01*
X11679761Y26492800D02*
X11727380Y26445181D01*
X11727380Y26445181D02*
X11774999Y26492800D01*
X11774999Y26492800D02*
X11727380Y26540420D01*
X11727380Y26540420D02*
X11727380Y26445181D01*
X10727381Y26445181D02*
X11298809Y26445181D01*
X11013095Y26445181D02*
X11013095Y27445181D01*
X11013095Y27445181D02*
X11108333Y27302324D01*
X11108333Y27302324D02*
X11203571Y27207086D01*
X11203571Y27207086D02*
X11298809Y27159467D01*
X9870238Y27111848D02*
X9870238Y26445181D01*
X10298809Y27111848D02*
X10298809Y26588039D01*
X10298809Y26588039D02*
X10251190Y26492800D01*
X10251190Y26492800D02*
X10155952Y26445181D01*
X10155952Y26445181D02*
X10013095Y26445181D01*
X10013095Y26445181D02*
X9917857Y26492800D01*
X9917857Y26492800D02*
X9870238Y26540420D01*
X59913094Y48745181D02*
X59913094Y47935658D01*
X59913094Y47935658D02*
X59865475Y47840420D01*
X59865475Y47840420D02*
X59817856Y47792800D01*
X59817856Y47792800D02*
X59722618Y47745181D01*
X59722618Y47745181D02*
X59532142Y47745181D01*
X59532142Y47745181D02*
X59436904Y47792800D01*
X59436904Y47792800D02*
X59389285Y47840420D01*
X59389285Y47840420D02*
X59341666Y47935658D01*
X59341666Y47935658D02*
X59341666Y48745181D01*
X58341666Y47745181D02*
X58913094Y47745181D01*
X58627380Y47745181D02*
X58627380Y48745181D01*
X58627380Y48745181D02*
X58722618Y48602324D01*
X58722618Y48602324D02*
X58817856Y48507086D01*
X58817856Y48507086D02*
X58913094Y48459467D01*
X57865475Y47745181D02*
X57674999Y47745181D01*
X57674999Y47745181D02*
X57579761Y47792800D01*
X57579761Y47792800D02*
X57532142Y47840420D01*
X57532142Y47840420D02*
X57436904Y47983277D01*
X57436904Y47983277D02*
X57389285Y48173753D01*
X57389285Y48173753D02*
X57389285Y48554705D01*
X57389285Y48554705D02*
X57436904Y48649943D01*
X57436904Y48649943D02*
X57484523Y48697562D01*
X57484523Y48697562D02*
X57579761Y48745181D01*
X57579761Y48745181D02*
X57770237Y48745181D01*
X57770237Y48745181D02*
X57865475Y48697562D01*
X57865475Y48697562D02*
X57913094Y48649943D01*
X57913094Y48649943D02*
X57960713Y48554705D01*
X57960713Y48554705D02*
X57960713Y48316610D01*
X57960713Y48316610D02*
X57913094Y48221372D01*
X57913094Y48221372D02*
X57865475Y48173753D01*
X57865475Y48173753D02*
X57770237Y48126134D01*
X57770237Y48126134D02*
X57579761Y48126134D01*
X57579761Y48126134D02*
X57484523Y48173753D01*
X57484523Y48173753D02*
X57436904Y48221372D01*
X57436904Y48221372D02*
X57389285Y48316610D01*
X59913094Y39395181D02*
X59913094Y38585658D01*
X59913094Y38585658D02*
X59865475Y38490420D01*
X59865475Y38490420D02*
X59817856Y38442800D01*
X59817856Y38442800D02*
X59722618Y38395181D01*
X59722618Y38395181D02*
X59532142Y38395181D01*
X59532142Y38395181D02*
X59436904Y38442800D01*
X59436904Y38442800D02*
X59389285Y38490420D01*
X59389285Y38490420D02*
X59341666Y38585658D01*
X59341666Y38585658D02*
X59341666Y39395181D01*
X58341666Y38395181D02*
X58913094Y38395181D01*
X58627380Y38395181D02*
X58627380Y39395181D01*
X58627380Y39395181D02*
X58722618Y39252324D01*
X58722618Y39252324D02*
X58817856Y39157086D01*
X58817856Y39157086D02*
X58913094Y39109467D01*
X57436904Y39395181D02*
X57913094Y39395181D01*
X57913094Y39395181D02*
X57960713Y38918991D01*
X57960713Y38918991D02*
X57913094Y38966610D01*
X57913094Y38966610D02*
X57817856Y39014229D01*
X57817856Y39014229D02*
X57579761Y39014229D01*
X57579761Y39014229D02*
X57484523Y38966610D01*
X57484523Y38966610D02*
X57436904Y38918991D01*
X57436904Y38918991D02*
X57389285Y38823753D01*
X57389285Y38823753D02*
X57389285Y38585658D01*
X57389285Y38585658D02*
X57436904Y38490420D01*
X57436904Y38490420D02*
X57484523Y38442800D01*
X57484523Y38442800D02*
X57579761Y38395181D01*
X57579761Y38395181D02*
X57817856Y38395181D01*
X57817856Y38395181D02*
X57913094Y38442800D01*
X57913094Y38442800D02*
X57960713Y38490420D01*
X11917857Y30840420D02*
X11965476Y30792800D01*
X11965476Y30792800D02*
X12108333Y30745181D01*
X12108333Y30745181D02*
X12203571Y30745181D01*
X12203571Y30745181D02*
X12346428Y30792800D01*
X12346428Y30792800D02*
X12441666Y30888039D01*
X12441666Y30888039D02*
X12489285Y30983277D01*
X12489285Y30983277D02*
X12536904Y31173753D01*
X12536904Y31173753D02*
X12536904Y31316610D01*
X12536904Y31316610D02*
X12489285Y31507086D01*
X12489285Y31507086D02*
X12441666Y31602324D01*
X12441666Y31602324D02*
X12346428Y31697562D01*
X12346428Y31697562D02*
X12203571Y31745181D01*
X12203571Y31745181D02*
X12108333Y31745181D01*
X12108333Y31745181D02*
X11965476Y31697562D01*
X11965476Y31697562D02*
X11917857Y31649943D01*
X11584523Y31745181D02*
X10965476Y31745181D01*
X10965476Y31745181D02*
X11298809Y31364229D01*
X11298809Y31364229D02*
X11155952Y31364229D01*
X11155952Y31364229D02*
X11060714Y31316610D01*
X11060714Y31316610D02*
X11013095Y31268991D01*
X11013095Y31268991D02*
X10965476Y31173753D01*
X10965476Y31173753D02*
X10965476Y30935658D01*
X10965476Y30935658D02*
X11013095Y30840420D01*
X11013095Y30840420D02*
X11060714Y30792800D01*
X11060714Y30792800D02*
X11155952Y30745181D01*
X11155952Y30745181D02*
X11441666Y30745181D01*
X11441666Y30745181D02*
X11536904Y30792800D01*
X11536904Y30792800D02*
X11584523Y30840420D01*
X10108333Y31411848D02*
X10108333Y30745181D01*
X10346428Y31792800D02*
X10584523Y31078515D01*
X10584523Y31078515D02*
X9965476Y31078515D01*
X12489285Y30495181D02*
X12394047Y30495181D01*
X12394047Y30495181D02*
X12298809Y30447562D01*
X12298809Y30447562D02*
X12251190Y30399943D01*
X12251190Y30399943D02*
X12203571Y30304705D01*
X12203571Y30304705D02*
X12155952Y30114229D01*
X12155952Y30114229D02*
X12155952Y29876134D01*
X12155952Y29876134D02*
X12203571Y29685658D01*
X12203571Y29685658D02*
X12251190Y29590420D01*
X12251190Y29590420D02*
X12298809Y29542800D01*
X12298809Y29542800D02*
X12394047Y29495181D01*
X12394047Y29495181D02*
X12489285Y29495181D01*
X12489285Y29495181D02*
X12584523Y29542800D01*
X12584523Y29542800D02*
X12632142Y29590420D01*
X12632142Y29590420D02*
X12679761Y29685658D01*
X12679761Y29685658D02*
X12727380Y29876134D01*
X12727380Y29876134D02*
X12727380Y30114229D01*
X12727380Y30114229D02*
X12679761Y30304705D01*
X12679761Y30304705D02*
X12632142Y30399943D01*
X12632142Y30399943D02*
X12584523Y30447562D01*
X12584523Y30447562D02*
X12489285Y30495181D01*
X11727380Y29590420D02*
X11679761Y29542800D01*
X11679761Y29542800D02*
X11727380Y29495181D01*
X11727380Y29495181D02*
X11774999Y29542800D01*
X11774999Y29542800D02*
X11727380Y29590420D01*
X11727380Y29590420D02*
X11727380Y29495181D01*
X10727381Y29495181D02*
X11298809Y29495181D01*
X11013095Y29495181D02*
X11013095Y30495181D01*
X11013095Y30495181D02*
X11108333Y30352324D01*
X11108333Y30352324D02*
X11203571Y30257086D01*
X11203571Y30257086D02*
X11298809Y30209467D01*
X9870238Y30161848D02*
X9870238Y29495181D01*
X10298809Y30161848D02*
X10298809Y29638039D01*
X10298809Y29638039D02*
X10251190Y29542800D01*
X10251190Y29542800D02*
X10155952Y29495181D01*
X10155952Y29495181D02*
X10013095Y29495181D01*
X10013095Y29495181D02*
X9917857Y29542800D01*
X9917857Y29542800D02*
X9870238Y29590420D01*
X59838094Y53445181D02*
X59838094Y52635658D01*
X59838094Y52635658D02*
X59790475Y52540420D01*
X59790475Y52540420D02*
X59742856Y52492800D01*
X59742856Y52492800D02*
X59647618Y52445181D01*
X59647618Y52445181D02*
X59457142Y52445181D01*
X59457142Y52445181D02*
X59361904Y52492800D01*
X59361904Y52492800D02*
X59314285Y52540420D01*
X59314285Y52540420D02*
X59266666Y52635658D01*
X59266666Y52635658D02*
X59266666Y53445181D01*
X58838094Y53349943D02*
X58790475Y53397562D01*
X58790475Y53397562D02*
X58695237Y53445181D01*
X58695237Y53445181D02*
X58457142Y53445181D01*
X58457142Y53445181D02*
X58361904Y53397562D01*
X58361904Y53397562D02*
X58314285Y53349943D01*
X58314285Y53349943D02*
X58266666Y53254705D01*
X58266666Y53254705D02*
X58266666Y53159467D01*
X58266666Y53159467D02*
X58314285Y53016610D01*
X58314285Y53016610D02*
X58885713Y52445181D01*
X58885713Y52445181D02*
X58266666Y52445181D01*
X57647618Y53445181D02*
X57552380Y53445181D01*
X57552380Y53445181D02*
X57457142Y53397562D01*
X57457142Y53397562D02*
X57409523Y53349943D01*
X57409523Y53349943D02*
X57361904Y53254705D01*
X57361904Y53254705D02*
X57314285Y53064229D01*
X57314285Y53064229D02*
X57314285Y52826134D01*
X57314285Y52826134D02*
X57361904Y52635658D01*
X57361904Y52635658D02*
X57409523Y52540420D01*
X57409523Y52540420D02*
X57457142Y52492800D01*
X57457142Y52492800D02*
X57552380Y52445181D01*
X57552380Y52445181D02*
X57647618Y52445181D01*
X57647618Y52445181D02*
X57742856Y52492800D01*
X57742856Y52492800D02*
X57790475Y52540420D01*
X57790475Y52540420D02*
X57838094Y52635658D01*
X57838094Y52635658D02*
X57885713Y52826134D01*
X57885713Y52826134D02*
X57885713Y53064229D01*
X57885713Y53064229D02*
X57838094Y53254705D01*
X57838094Y53254705D02*
X57790475Y53349943D01*
X57790475Y53349943D02*
X57742856Y53397562D01*
X57742856Y53397562D02*
X57647618Y53445181D01*
X4392857Y35840420D02*
X4440476Y35792800D01*
X4440476Y35792800D02*
X4583333Y35745181D01*
X4583333Y35745181D02*
X4678571Y35745181D01*
X4678571Y35745181D02*
X4821428Y35792800D01*
X4821428Y35792800D02*
X4916666Y35888039D01*
X4916666Y35888039D02*
X4964285Y35983277D01*
X4964285Y35983277D02*
X5011904Y36173753D01*
X5011904Y36173753D02*
X5011904Y36316610D01*
X5011904Y36316610D02*
X4964285Y36507086D01*
X4964285Y36507086D02*
X4916666Y36602324D01*
X4916666Y36602324D02*
X4821428Y36697562D01*
X4821428Y36697562D02*
X4678571Y36745181D01*
X4678571Y36745181D02*
X4583333Y36745181D01*
X4583333Y36745181D02*
X4440476Y36697562D01*
X4440476Y36697562D02*
X4392857Y36649943D01*
X4059523Y36745181D02*
X3440476Y36745181D01*
X3440476Y36745181D02*
X3773809Y36364229D01*
X3773809Y36364229D02*
X3630952Y36364229D01*
X3630952Y36364229D02*
X3535714Y36316610D01*
X3535714Y36316610D02*
X3488095Y36268991D01*
X3488095Y36268991D02*
X3440476Y36173753D01*
X3440476Y36173753D02*
X3440476Y35935658D01*
X3440476Y35935658D02*
X3488095Y35840420D01*
X3488095Y35840420D02*
X3535714Y35792800D01*
X3535714Y35792800D02*
X3630952Y35745181D01*
X3630952Y35745181D02*
X3916666Y35745181D01*
X3916666Y35745181D02*
X4011904Y35792800D01*
X4011904Y35792800D02*
X4059523Y35840420D01*
X3059523Y36649943D02*
X3011904Y36697562D01*
X3011904Y36697562D02*
X2916666Y36745181D01*
X2916666Y36745181D02*
X2678571Y36745181D01*
X2678571Y36745181D02*
X2583333Y36697562D01*
X2583333Y36697562D02*
X2535714Y36649943D01*
X2535714Y36649943D02*
X2488095Y36554705D01*
X2488095Y36554705D02*
X2488095Y36459467D01*
X2488095Y36459467D02*
X2535714Y36316610D01*
X2535714Y36316610D02*
X3107142Y35745181D01*
X3107142Y35745181D02*
X2488095Y35745181D01*
X4964285Y33045181D02*
X4869047Y33045181D01*
X4869047Y33045181D02*
X4773809Y32997562D01*
X4773809Y32997562D02*
X4726190Y32949943D01*
X4726190Y32949943D02*
X4678571Y32854705D01*
X4678571Y32854705D02*
X4630952Y32664229D01*
X4630952Y32664229D02*
X4630952Y32426134D01*
X4630952Y32426134D02*
X4678571Y32235658D01*
X4678571Y32235658D02*
X4726190Y32140420D01*
X4726190Y32140420D02*
X4773809Y32092800D01*
X4773809Y32092800D02*
X4869047Y32045181D01*
X4869047Y32045181D02*
X4964285Y32045181D01*
X4964285Y32045181D02*
X5059523Y32092800D01*
X5059523Y32092800D02*
X5107142Y32140420D01*
X5107142Y32140420D02*
X5154761Y32235658D01*
X5154761Y32235658D02*
X5202380Y32426134D01*
X5202380Y32426134D02*
X5202380Y32664229D01*
X5202380Y32664229D02*
X5154761Y32854705D01*
X5154761Y32854705D02*
X5107142Y32949943D01*
X5107142Y32949943D02*
X5059523Y32997562D01*
X5059523Y32997562D02*
X4964285Y33045181D01*
X4202380Y32140420D02*
X4154761Y32092800D01*
X4154761Y32092800D02*
X4202380Y32045181D01*
X4202380Y32045181D02*
X4249999Y32092800D01*
X4249999Y32092800D02*
X4202380Y32140420D01*
X4202380Y32140420D02*
X4202380Y32045181D01*
X3202381Y32045181D02*
X3773809Y32045181D01*
X3488095Y32045181D02*
X3488095Y33045181D01*
X3488095Y33045181D02*
X3583333Y32902324D01*
X3583333Y32902324D02*
X3678571Y32807086D01*
X3678571Y32807086D02*
X3773809Y32759467D01*
X2345238Y32711848D02*
X2345238Y32045181D01*
X2773809Y32711848D02*
X2773809Y32188039D01*
X2773809Y32188039D02*
X2726190Y32092800D01*
X2726190Y32092800D02*
X2630952Y32045181D01*
X2630952Y32045181D02*
X2488095Y32045181D01*
X2488095Y32045181D02*
X2392857Y32092800D01*
X2392857Y32092800D02*
X2345238Y32140420D01*
D11*
X13000000Y48400000D02*
X13000000Y48150000D01*
X13000000Y45100000D02*
X13000000Y45350000D01*
X13300000Y48400000D02*
X13000000Y48400000D01*
X13325000Y45100000D02*
X13000000Y45100000D01*
X14300000Y48400000D02*
X14675000Y48400000D01*
X14700000Y45100000D02*
X15000000Y45100000D01*
X15000000Y48175000D02*
X14675000Y48400000D01*
X15000000Y48150000D02*
X15000000Y48175000D01*
X15000000Y45100000D02*
X15000000Y45350000D01*
X15525000Y48150000D02*
X15000000Y48150000D01*
X13000000Y57900000D02*
X13000000Y57650000D01*
X13000000Y54600000D02*
X13000000Y54850000D01*
X13300000Y57900000D02*
X13000000Y57900000D01*
X13325000Y54600000D02*
X13000000Y54600000D01*
X14300000Y57900000D02*
X14675000Y57900000D01*
X14700000Y54600000D02*
X15000000Y54600000D01*
X15000000Y57675000D02*
X14675000Y57900000D01*
X15000000Y57650000D02*
X15000000Y57675000D01*
X15000000Y54600000D02*
X15000000Y54850000D01*
X15525000Y57650000D02*
X15000000Y57650000D01*
D12*
X6538748Y23360000D02*
X7961252Y23360000D01*
X6538748Y21540000D02*
X7961252Y21540000D01*
D11*
X12950000Y43750000D02*
X12950000Y43500000D01*
X12950000Y40450000D02*
X12950000Y40700000D01*
X13250000Y43750000D02*
X12950000Y43750000D01*
X13275000Y40450000D02*
X12950000Y40450000D01*
X14250000Y43750000D02*
X14625000Y43750000D01*
X14650000Y40450000D02*
X14950000Y40450000D01*
X14950000Y43525000D02*
X14625000Y43750000D01*
X14950000Y43500000D02*
X14950000Y43525000D01*
X14950000Y40450000D02*
X14950000Y40700000D01*
X15475000Y43500000D02*
X14950000Y43500000D01*
X53375000Y54850000D02*
X53900000Y54850000D01*
X53900000Y57900000D02*
X53900000Y57650000D01*
X53900000Y54850000D02*
X53900000Y54825000D01*
X53900000Y54825000D02*
X54225000Y54600000D01*
X54200000Y57900000D02*
X53900000Y57900000D01*
X54600000Y54600000D02*
X54225000Y54600000D01*
X55575000Y57900000D02*
X55900000Y57900000D01*
X55600000Y54600000D02*
X55900000Y54600000D01*
X55900000Y57900000D02*
X55900000Y57650000D01*
X55900000Y54600000D02*
X55900000Y54850000D01*
X53375000Y40650000D02*
X53900000Y40650000D01*
X53900000Y43700000D02*
X53900000Y43450000D01*
X53900000Y40650000D02*
X53900000Y40625000D01*
X53900000Y40625000D02*
X54225000Y40400000D01*
X54200000Y43700000D02*
X53900000Y43700000D01*
X54600000Y40400000D02*
X54225000Y40400000D01*
X55575000Y43700000D02*
X55900000Y43700000D01*
X55600000Y40400000D02*
X55900000Y40400000D01*
X55900000Y43700000D02*
X55900000Y43450000D01*
X55900000Y40400000D02*
X55900000Y40650000D01*
X12950000Y38950000D02*
X12950000Y38700000D01*
X12950000Y35650000D02*
X12950000Y35900000D01*
X13250000Y38950000D02*
X12950000Y38950000D01*
X13275000Y35650000D02*
X12950000Y35650000D01*
X14250000Y38950000D02*
X14625000Y38950000D01*
X14650000Y35650000D02*
X14950000Y35650000D01*
X14950000Y38725000D02*
X14625000Y38950000D01*
X14950000Y38700000D02*
X14950000Y38725000D01*
X14950000Y35650000D02*
X14950000Y35900000D01*
X15475000Y38700000D02*
X14950000Y38700000D01*
X13000000Y53100000D02*
X13000000Y52850000D01*
X13000000Y49800000D02*
X13000000Y50050000D01*
X13300000Y53100000D02*
X13000000Y53100000D01*
X13325000Y49800000D02*
X13000000Y49800000D01*
X14300000Y53100000D02*
X14675000Y53100000D01*
X14700000Y49800000D02*
X15000000Y49800000D01*
X15000000Y52875000D02*
X14675000Y53100000D01*
X15000000Y52850000D02*
X15000000Y52875000D01*
X15000000Y49800000D02*
X15000000Y50050000D01*
X15525000Y52850000D02*
X15000000Y52850000D01*
D12*
X6638748Y28410000D02*
X8061252Y28410000D01*
X6638748Y26590000D02*
X8061252Y26590000D01*
D11*
X53375000Y45350000D02*
X53900000Y45350000D01*
X53900000Y48400000D02*
X53900000Y48150000D01*
X53900000Y45350000D02*
X53900000Y45325000D01*
X53900000Y45325000D02*
X54225000Y45100000D01*
X54200000Y48400000D02*
X53900000Y48400000D01*
X54600000Y45100000D02*
X54225000Y45100000D01*
X55575000Y48400000D02*
X55900000Y48400000D01*
X55600000Y45100000D02*
X55900000Y45100000D01*
X55900000Y48400000D02*
X55900000Y48150000D01*
X55900000Y45100000D02*
X55900000Y45350000D01*
X53375000Y36000000D02*
X53900000Y36000000D01*
X53900000Y39050000D02*
X53900000Y38800000D01*
X53900000Y36000000D02*
X53900000Y35975000D01*
X53900000Y35975000D02*
X54225000Y35750000D01*
X54200000Y39050000D02*
X53900000Y39050000D01*
X54600000Y35750000D02*
X54225000Y35750000D01*
X55575000Y39050000D02*
X55900000Y39050000D01*
X55600000Y35750000D02*
X55900000Y35750000D01*
X55900000Y39050000D02*
X55900000Y38800000D01*
X55900000Y35750000D02*
X55900000Y36000000D01*
D12*
X6588748Y31510000D02*
X8011252Y31510000D01*
X6588748Y29690000D02*
X8011252Y29690000D01*
D11*
X53375000Y50050000D02*
X53900000Y50050000D01*
X53900000Y53100000D02*
X53900000Y52850000D01*
X53900000Y50050000D02*
X53900000Y50025000D01*
X53900000Y50025000D02*
X54225000Y49800000D01*
X54200000Y53100000D02*
X53900000Y53100000D01*
X54600000Y49800000D02*
X54225000Y49800000D01*
X55575000Y53100000D02*
X55900000Y53100000D01*
X55600000Y49800000D02*
X55900000Y49800000D01*
X55900000Y53100000D02*
X55900000Y52850000D01*
X55900000Y49800000D02*
X55900000Y50050000D01*
D12*
X3038748Y35260000D02*
X4461252Y35260000D01*
X3038748Y33440000D02*
X4461252Y33440000D01*
M02*
