G04 #@! TF.GenerationSoftware,KiCad,Pcbnew,8.0.2*
G04 #@! TF.CreationDate,2024-05-05T06:41:10-04:00*
G04 #@! TF.ProjectId,sdt_lpf,7364745f-6c70-4662-9e6b-696361645f70,rev?*
G04 #@! TF.SameCoordinates,PX62de0f0PY8af5bb0*
G04 #@! TF.FileFunction,Copper,L2,Bot*
G04 #@! TF.FilePolarity,Positive*
%FSLAX46Y46*%
G04 Gerber Fmt 4.6, Leading zero omitted, Abs format (unit mm)*
G04 Created by KiCad (PCBNEW 8.0.2) date 2024-05-05 06:41:10*
%MOMM*%
%LPD*%
G01*
G04 APERTURE LIST*
G04 Aperture macros list*
%AMRoundRect*
0 Rectangle with rounded corners*
0 $1 Rounding radius*
0 $2 $3 $4 $5 $6 $7 $8 $9 X,Y pos of 4 corners*
0 Add a 4 corners polygon primitive as box body*
4,1,4,$2,$3,$4,$5,$6,$7,$8,$9,$2,$3,0*
0 Add four circle primitives for the rounded corners*
1,1,$1+$1,$2,$3*
1,1,$1+$1,$4,$5*
1,1,$1+$1,$6,$7*
1,1,$1+$1,$8,$9*
0 Add four rect primitives between the rounded corners*
20,1,$1+$1,$2,$3,$4,$5,0*
20,1,$1+$1,$4,$5,$6,$7,0*
20,1,$1+$1,$6,$7,$8,$9,0*
20,1,$1+$1,$8,$9,$2,$3,0*%
G04 Aperture macros list end*
G04 #@! TA.AperFunction,ComponentPad*
%ADD10C,2.600000*%
G04 #@! TD*
G04 #@! TA.AperFunction,ComponentPad*
%ADD11C,2.500000*%
G04 #@! TD*
G04 #@! TA.AperFunction,ComponentPad*
%ADD12RoundRect,0.250000X-0.600000X-0.600000X0.600000X-0.600000X0.600000X0.600000X-0.600000X0.600000X0*%
G04 #@! TD*
G04 #@! TA.AperFunction,ComponentPad*
%ADD13C,1.700000*%
G04 #@! TD*
G04 #@! TA.AperFunction,SMDPad,CuDef*
%ADD14R,1.050000X0.600000*%
G04 #@! TD*
G04 #@! TA.AperFunction,SMDPad,CuDef*
%ADD15RoundRect,0.250000X0.325000X0.650000X-0.325000X0.650000X-0.325000X-0.650000X0.325000X-0.650000X0*%
G04 #@! TD*
G04 #@! TA.AperFunction,ViaPad*
%ADD16C,1.000000*%
G04 #@! TD*
G04 #@! TA.AperFunction,Conductor*
%ADD17C,0.250000*%
G04 #@! TD*
G04 #@! TA.AperFunction,Conductor*
%ADD18C,0.500000*%
G04 #@! TD*
G04 APERTURE END LIST*
D10*
X-1180000Y50200000D03*
X-1180000Y45120000D03*
X3900000Y50200000D03*
X3900000Y45120000D03*
D11*
X1460000Y47735000D03*
D12*
X-250000Y30130000D03*
D13*
X2290000Y30130000D03*
X-250000Y27590000D03*
X2290000Y27590000D03*
X-250000Y25050000D03*
X2290000Y25050000D03*
X-250000Y22510000D03*
X2290000Y22510000D03*
X-250000Y19970000D03*
X2290000Y19970000D03*
D10*
X65800000Y48800000D03*
X65800000Y43720000D03*
X70880000Y48800000D03*
X70880000Y43720000D03*
D11*
X68440000Y46335000D03*
D14*
X15350000Y47700000D03*
X15350000Y46750000D03*
X15350000Y45800000D03*
X12650000Y45800000D03*
X12650000Y47700000D03*
X15350000Y57200000D03*
X15350000Y56250000D03*
X15350000Y55300000D03*
X12650000Y55300000D03*
X12650000Y57200000D03*
D15*
X8725000Y22450000D03*
X5775000Y22450000D03*
D14*
X15300000Y43050000D03*
X15300000Y42100000D03*
X15300000Y41150000D03*
X12600000Y41150000D03*
X12600000Y43050000D03*
X53550000Y55300000D03*
X53550000Y56250000D03*
X53550000Y57200000D03*
X56250000Y57200000D03*
X56250000Y55300000D03*
X53550000Y41100000D03*
X53550000Y42050000D03*
X53550000Y43000000D03*
X56250000Y43000000D03*
X56250000Y41100000D03*
X15300000Y38250000D03*
X15300000Y37300000D03*
X15300000Y36350000D03*
X12600000Y36350000D03*
X12600000Y38250000D03*
X15350000Y52400000D03*
X15350000Y51450000D03*
X15350000Y50500000D03*
X12650000Y50500000D03*
X12650000Y52400000D03*
D15*
X8825000Y27500000D03*
X5875000Y27500000D03*
D14*
X53550000Y45800000D03*
X53550000Y46750000D03*
X53550000Y47700000D03*
X56250000Y47700000D03*
X56250000Y45800000D03*
X53550000Y36450000D03*
X53550000Y37400000D03*
X53550000Y38350000D03*
X56250000Y38350000D03*
X56250000Y36450000D03*
D15*
X8775000Y30600000D03*
X5825000Y30600000D03*
D14*
X53550000Y50500000D03*
X53550000Y51450000D03*
X53550000Y52400000D03*
X56250000Y52400000D03*
X56250000Y50500000D03*
D15*
X5225000Y34350000D03*
X2275000Y34350000D03*
D16*
X47500000Y40400000D03*
X20300000Y40600000D03*
X-2200000Y57550000D03*
X-1850000Y26300000D03*
X19900000Y-1550000D03*
X52300000Y43150000D03*
X3220000Y39100000D03*
X3950000Y23950000D03*
X62300000Y55750000D03*
X36150000Y22000000D03*
X45750000Y22000000D03*
X12600000Y39900000D03*
X11050000Y37100000D03*
X34200000Y73300000D03*
X57750000Y42550000D03*
X34100000Y30400000D03*
X13700000Y58550000D03*
X34150000Y-1750000D03*
X36250000Y42200000D03*
X6950000Y34350000D03*
X7075000Y16450000D03*
X63150000Y-2050000D03*
X61925000Y37200000D03*
X36100000Y32150000D03*
X5950000Y73150000D03*
X16850000Y50300000D03*
X47800000Y30500000D03*
X48200000Y60950000D03*
X7850000Y38575000D03*
X20300000Y61000000D03*
X71200000Y25200000D03*
X7400000Y19250000D03*
X57750000Y47000000D03*
X36000000Y52300000D03*
X56500000Y39750000D03*
X14500000Y16800000D03*
X12400000Y44400000D03*
X32050000Y22000000D03*
X15400000Y32850000D03*
X32050000Y32150000D03*
X55650000Y34100000D03*
X56550000Y49150000D03*
X20000000Y73300000D03*
X57750000Y51700000D03*
X20300000Y30750000D03*
X56450000Y53850000D03*
X20500000Y28850000D03*
X50470000Y66660000D03*
X52900000Y15450000D03*
X6200000Y-1700000D03*
X45800000Y32150000D03*
X22400000Y32250000D03*
X12350000Y49080000D03*
X34050000Y50700000D03*
X33600000Y14250000D03*
X34200000Y60800000D03*
X10350000Y32000000D03*
X16900000Y55100000D03*
X47950000Y49500000D03*
X45700000Y51950000D03*
X9950000Y24400000D03*
X9800000Y58400000D03*
X12250000Y30350000D03*
X36250000Y62500000D03*
X53025000Y58975000D03*
X15500000Y34850000D03*
X22300000Y62650000D03*
X49600000Y-1700000D03*
X70950000Y64350000D03*
X16750000Y45800000D03*
X71100000Y34500000D03*
X54050000Y25350000D03*
X63000000Y73150000D03*
X57750000Y56500000D03*
X50450000Y55350000D03*
X71100000Y6700000D03*
X44350000Y42300000D03*
X32150000Y62550000D03*
X31900000Y42200000D03*
X-1850000Y33100000D03*
X18430000Y65510000D03*
X20100000Y50750000D03*
X22400000Y42300000D03*
X70900000Y57000000D03*
X52200000Y48200000D03*
X56400000Y44450000D03*
X6100000Y56100000D03*
X12200000Y33750000D03*
X71100000Y16150000D03*
X47800000Y20250000D03*
X22100000Y22150000D03*
X48400000Y73200000D03*
X3950000Y21200000D03*
X32050000Y52300000D03*
X20100000Y20550000D03*
X57650000Y37600000D03*
X13600000Y19950000D03*
X46250000Y62650000D03*
X-2000000Y5350000D03*
X12150000Y53840000D03*
X34100000Y20350000D03*
X22050000Y52450000D03*
X-2050000Y64750000D03*
X34100000Y40400000D03*
X13950000Y53950000D03*
X15400000Y31300000D03*
X16200000Y39200000D03*
X53600000Y35300000D03*
X16000000Y44300000D03*
X16600000Y27250000D03*
X53650000Y39800000D03*
X16100000Y49050000D03*
X53450000Y44500000D03*
X5800000Y25350000D03*
X17000000Y24650000D03*
X15250000Y58500000D03*
X19150000Y18750000D03*
X10650000Y22150000D03*
X52250000Y55300000D03*
X10191636Y29158364D03*
X14000000Y49300000D03*
X17450000Y23450000D03*
X15900000Y53650000D03*
X53100000Y49150000D03*
X14000000Y44600000D03*
X54750000Y58700000D03*
X54850000Y53400000D03*
X15050000Y29150000D03*
X14200000Y22400000D03*
X13950000Y35100000D03*
X14100000Y39850000D03*
X54950000Y39500000D03*
X55000000Y48950000D03*
X54850000Y44250000D03*
D17*
X54900000Y45600000D02*
X54900000Y45850000D01*
X55400000Y45100000D02*
X54900000Y45600000D01*
X55000000Y50100000D02*
X55400000Y49700000D01*
X12100000Y44400000D02*
X11700000Y44800000D01*
X56550000Y49150000D02*
X56000000Y49700000D01*
X55400000Y45100000D02*
X56050000Y44450000D01*
X11700000Y44800000D02*
X11700000Y46700000D01*
X11565000Y40335000D02*
X11565000Y42100000D01*
X55400000Y40200000D02*
X54900000Y40700000D01*
X12600000Y39900000D02*
X12000000Y39900000D01*
X12400000Y44400000D02*
X12100000Y44400000D01*
X56250000Y39750000D02*
X55800000Y40200000D01*
X12120000Y49080000D02*
X11600000Y49600000D01*
X56000000Y49700000D02*
X55400000Y49700000D01*
X11600000Y49600000D02*
X11600000Y51500000D01*
X56400000Y44450000D02*
X56050000Y44450000D01*
X56500000Y39750000D02*
X56250000Y39750000D01*
X55800000Y40200000D02*
X55400000Y40200000D01*
X12000000Y39900000D02*
X11565000Y40335000D01*
X12350000Y49080000D02*
X12120000Y49080000D01*
D18*
X13950000Y54000000D02*
X12650000Y55300000D01*
X13950000Y53950000D02*
X13950000Y54000000D01*
D17*
X16700000Y31300000D02*
X16700000Y37300000D01*
X16700000Y31300000D02*
X15400000Y31300000D01*
X52100000Y37100000D02*
X52100000Y35300000D01*
X16700000Y38700000D02*
X16200000Y39200000D01*
X52100000Y35300000D02*
X52100000Y17800000D01*
X16700000Y37300000D02*
X16700000Y38700000D01*
X16700000Y21350000D02*
X15650000Y22400000D01*
X16700000Y28200000D02*
X16700000Y31300000D01*
X50400000Y16100000D02*
X18200000Y16100000D01*
X16700000Y17600000D02*
X16700000Y21350000D01*
X15300000Y37300000D02*
X16700000Y37300000D01*
X18200000Y16100000D02*
X16700000Y17600000D01*
X15650000Y22400000D02*
X15650000Y28200000D01*
X53600000Y35300000D02*
X52100000Y35300000D01*
X52400000Y37400000D02*
X52100000Y37100000D01*
X53550000Y37400000D02*
X52400000Y37400000D01*
X52100000Y17800000D02*
X50400000Y16100000D01*
X15650000Y28200000D02*
X16700000Y28200000D01*
X17250000Y42100000D02*
X17250000Y27900000D01*
X16100000Y25750000D02*
X16600000Y26250000D01*
X17250000Y21800000D02*
X16100000Y22950000D01*
X51650000Y40925000D02*
X51650000Y39800000D01*
D18*
X2290000Y30130000D02*
X2290000Y34335000D01*
D17*
X18400000Y16800000D02*
X17250000Y17950000D01*
X53650000Y39800000D02*
X51650000Y39800000D01*
X51650000Y39800000D02*
X51650000Y18150000D01*
X52775000Y42050000D02*
X53550000Y42050000D01*
X15300000Y42100000D02*
X17250000Y42100000D01*
X16600000Y27250000D02*
X17250000Y27900000D01*
X16100000Y22950000D02*
X16100000Y25750000D01*
X17250000Y17950000D02*
X17250000Y21800000D01*
X17250000Y43050000D02*
X17250000Y42100000D01*
X51650000Y40925000D02*
X52775000Y42050000D01*
X16000000Y44300000D02*
X17250000Y43050000D01*
X50300000Y16800000D02*
X18400000Y16800000D01*
X51650000Y18150000D02*
X50300000Y16800000D01*
X16600000Y26250000D02*
X16600000Y27250000D01*
X17700000Y25350000D02*
X17700000Y46700000D01*
X52775000Y46750000D02*
X51200000Y45175000D01*
X17700000Y46700000D02*
X17650000Y46750000D01*
X16200000Y46825000D02*
X16125000Y46750000D01*
X17700000Y22000000D02*
X16625000Y23075000D01*
X3600000Y26225000D02*
X4262500Y26887500D01*
X5875000Y27500000D02*
X4850000Y27500000D01*
X51200000Y44550000D02*
X51200000Y18500000D01*
X5800000Y25350000D02*
X4262500Y26887500D01*
X50050000Y17350000D02*
X18650000Y17350000D01*
X1115000Y26225000D02*
X-250000Y27590000D01*
X17000000Y24650000D02*
X17700000Y25350000D01*
X51200000Y18500000D02*
X50050000Y17350000D01*
X51250000Y44500000D02*
X51200000Y44550000D01*
X16625000Y23075000D02*
X16625000Y24275000D01*
X3600000Y26225000D02*
X1115000Y26225000D01*
X53450000Y44500000D02*
X51250000Y44500000D01*
X4850000Y27500000D02*
X4850000Y27475000D01*
X16100000Y49050000D02*
X16200000Y48950000D01*
X16625000Y24275000D02*
X17000000Y24650000D01*
X16125000Y46750000D02*
X15350000Y46750000D01*
X16200000Y48950000D02*
X16200000Y46825000D01*
X4850000Y27475000D02*
X4262500Y26887500D01*
X17700000Y18300000D02*
X17700000Y22000000D01*
X51200000Y45175000D02*
X51200000Y44550000D01*
X17650000Y46750000D02*
X15350000Y46750000D01*
X18650000Y17350000D02*
X17700000Y18300000D01*
X53550000Y46750000D02*
X52775000Y46750000D01*
X16650000Y57750000D02*
X16650000Y56250000D01*
X15350000Y56250000D02*
X16650000Y56250000D01*
X50300000Y49650000D02*
X52250000Y51600000D01*
X16650000Y56250000D02*
X18600000Y56250000D01*
X10900000Y23650000D02*
X10900000Y25150000D01*
X19150000Y18750000D02*
X49600000Y18750000D01*
X10900000Y25150000D02*
X10191636Y25858364D01*
X15250000Y58500000D02*
X15900000Y58500000D01*
X10191636Y25858364D02*
X10191636Y29158364D01*
X52250000Y51600000D02*
X52250000Y55300000D01*
X10650000Y23400000D02*
X10900000Y23650000D01*
X18600000Y56250000D02*
X18600000Y20200000D01*
X19150000Y19650000D02*
X18600000Y20200000D01*
X10650000Y22150000D02*
X10650000Y23400000D01*
X49600000Y18750000D02*
X50300000Y19450000D01*
X53200000Y56250000D02*
X52250000Y55300000D01*
X19150000Y18750000D02*
X19150000Y19650000D01*
X15900000Y58500000D02*
X16650000Y57750000D01*
X50300000Y19450000D02*
X50300000Y49650000D01*
D18*
X14000000Y49300000D02*
X13850000Y49300000D01*
X13850000Y49300000D02*
X12650000Y50500000D01*
D17*
X52450000Y49150000D02*
X51587500Y50012500D01*
D18*
X5825000Y30600000D02*
X4425000Y29200000D01*
X4425000Y29200000D02*
X3900000Y29200000D01*
D17*
X16150000Y51450000D02*
X18150000Y51450000D01*
X50750000Y19000000D02*
X49550000Y17800000D01*
X15350000Y51450000D02*
X16150000Y51450000D01*
X18150000Y18583273D02*
X18150000Y22750000D01*
X18933273Y17800000D02*
X18150000Y18583273D01*
X17450000Y23450000D02*
X18150000Y24150000D01*
X50750000Y49175000D02*
X50750000Y19000000D01*
X51587500Y50012500D02*
X50750000Y49175000D01*
X49550000Y17800000D02*
X18933273Y17800000D01*
X15900000Y53650000D02*
X16200000Y53350000D01*
X18150000Y22750000D02*
X17450000Y23450000D01*
X16200000Y53350000D02*
X16200000Y51500000D01*
X16200000Y51500000D02*
X16150000Y51450000D01*
X18150000Y51450000D02*
X18150000Y24150000D01*
X53550000Y51450000D02*
X53025000Y51450000D01*
X53025000Y51450000D02*
X51587500Y50012500D01*
X53100000Y49150000D02*
X52450000Y49150000D01*
D18*
X2290000Y27590000D02*
X3900000Y29200000D01*
X12800000Y45800000D02*
X14000000Y44600000D01*
D17*
X56250000Y57200000D02*
X54750000Y58700000D01*
X55850000Y52400000D02*
X54850000Y53400000D01*
X56250000Y36450000D02*
X52550000Y32750000D01*
X6800000Y18000000D02*
X15050000Y18000000D01*
X5775000Y22450000D02*
X5775000Y19025000D01*
X5775000Y19025000D02*
X6800000Y18000000D01*
X60650000Y55300000D02*
X56250000Y55300000D01*
X17400000Y15650000D02*
X15050000Y18000000D01*
X60650000Y45800000D02*
X60650000Y41100000D01*
X9050000Y52400000D02*
X9050000Y47700000D01*
X9050000Y38250000D02*
X12600000Y38250000D01*
X9050000Y43050000D02*
X12600000Y43050000D01*
X15050000Y22400000D02*
X15050000Y18000000D01*
X52550000Y32750000D02*
X52550000Y17400000D01*
X15050000Y29150000D02*
X9050000Y35150000D01*
X60650000Y50500000D02*
X60650000Y55300000D01*
X60650000Y41100000D02*
X56250000Y41100000D01*
X9050000Y43050000D02*
X9050000Y38250000D01*
X2290000Y22510000D02*
X5715000Y22510000D01*
X50800000Y15650000D02*
X17400000Y15650000D01*
X56250000Y36450000D02*
X60650000Y36450000D01*
X14200000Y22400000D02*
X15050000Y22400000D01*
X12650000Y57200000D02*
X9050000Y57200000D01*
X56250000Y45800000D02*
X60650000Y45800000D01*
X56250000Y50500000D02*
X60650000Y50500000D01*
X52550000Y17400000D02*
X50800000Y15650000D01*
X15050000Y29150000D02*
X15050000Y22400000D01*
X9050000Y35150000D02*
X9050000Y38250000D01*
X9050000Y52400000D02*
X12650000Y52400000D01*
X9050000Y57200000D02*
X9050000Y52400000D01*
X9050000Y47700000D02*
X12650000Y47700000D01*
X60650000Y45800000D02*
X60650000Y50500000D01*
X60650000Y36450000D02*
X60650000Y41100000D01*
X9050000Y47700000D02*
X9050000Y43050000D01*
D18*
X12700000Y36350000D02*
X13950000Y35100000D01*
D17*
X12800000Y41150000D02*
X14100000Y39850000D01*
X55100000Y39500000D02*
X56250000Y38350000D01*
X56250000Y47700000D02*
X55000000Y48950000D01*
X55000000Y44250000D02*
X56250000Y43000000D01*
X54850000Y44250000D02*
X55000000Y44250000D01*
G04 #@! TA.AperFunction,Conductor*
G36*
X1104855Y21843454D02*
G01*
X1121575Y21824158D01*
X1251501Y21638604D01*
X1251506Y21638598D01*
X1418597Y21471507D01*
X1418603Y21471502D01*
X1604158Y21341575D01*
X1647783Y21286998D01*
X1654977Y21217500D01*
X1623454Y21155145D01*
X1604158Y21138425D01*
X1418597Y21008495D01*
X1251505Y20841403D01*
X1115965Y20647831D01*
X1115964Y20647829D01*
X1022150Y20446645D01*
X975977Y20394206D01*
X908784Y20375054D01*
X841903Y20395270D01*
X798767Y20443779D01*
X731936Y20577995D01*
X662315Y20670185D01*
X193670Y20201540D01*
X150099Y20277007D01*
X57007Y20370099D01*
X-18462Y20413671D01*
X453072Y20885205D01*
X445998Y20891653D01*
X445996Y20891654D01*
X264798Y21003847D01*
X264786Y21003853D01*
X236055Y21014983D01*
X180654Y21057556D01*
X157064Y21123323D01*
X172776Y21191404D01*
X222800Y21240182D01*
X228428Y21242983D01*
X427830Y21335965D01*
X621401Y21471505D01*
X788495Y21638599D01*
X918425Y21824158D01*
X973002Y21867783D01*
X1042500Y21874977D01*
X1104855Y21843454D01*
G37*
G04 #@! TD.AperFunction*
G04 #@! TA.AperFunction,Conductor*
G36*
X13735635Y38915010D02*
G01*
X13903868Y38863976D01*
X14100000Y38844659D01*
X14162491Y38850814D01*
X14231137Y38837795D01*
X14281847Y38789730D01*
X14298522Y38721880D01*
X14290828Y38684081D01*
X14280910Y38657488D01*
X14280909Y38657485D01*
X14280909Y38657483D01*
X14274500Y38597873D01*
X14274500Y38597866D01*
X14274500Y38597865D01*
X14274500Y37902130D01*
X14274501Y37902124D01*
X14280909Y37842516D01*
X14289929Y37818330D01*
X14294911Y37748639D01*
X14289929Y37731670D01*
X14280910Y37707488D01*
X14280909Y37707485D01*
X14280909Y37707483D01*
X14274500Y37647873D01*
X14274500Y37647866D01*
X14274500Y37647865D01*
X14274500Y36952130D01*
X14274501Y36952124D01*
X14280908Y36892517D01*
X14331202Y36757672D01*
X14331206Y36757665D01*
X14417451Y36642457D01*
X14417452Y36642456D01*
X14417454Y36642454D01*
X14425312Y36636572D01*
X14467182Y36580639D01*
X14475000Y36537306D01*
X14475000Y36500000D01*
X14715833Y36500000D01*
X14723811Y36499573D01*
X14723817Y36499678D01*
X14727102Y36499503D01*
X14727127Y36499500D01*
X15326001Y36499501D01*
X15393039Y36479817D01*
X15438794Y36427013D01*
X15450000Y36375501D01*
X15450000Y35750001D01*
X15869786Y35750001D01*
X15869808Y35750003D01*
X15894869Y35752909D01*
X15894872Y35752910D01*
X15900413Y35755356D01*
X15969691Y35764428D01*
X16032876Y35734605D01*
X16069908Y35675356D01*
X16074500Y35641922D01*
X16074500Y32294250D01*
X16054815Y32227211D01*
X16002011Y32181456D01*
X15932853Y32171512D01*
X15902809Y32179788D01*
X15855013Y32199703D01*
X15796567Y32224055D01*
X15794459Y32224845D01*
X15790424Y32226666D01*
X15790350Y32226485D01*
X15784726Y32228815D01*
X15783904Y32229064D01*
X15776450Y32231588D01*
X15762000Y32236998D01*
X15751545Y32240285D01*
X15745477Y32242192D01*
X15745473Y32242193D01*
X15745469Y32242194D01*
X15745330Y32242214D01*
X15727240Y32246254D01*
X15596132Y32286024D01*
X15400000Y32305341D01*
X15203870Y32286025D01*
X15015266Y32228812D01*
X14841467Y32135914D01*
X14841460Y32135910D01*
X14689116Y32010884D01*
X14564090Y31858540D01*
X14564086Y31858533D01*
X14471188Y31684734D01*
X14413975Y31496130D01*
X14394659Y31300000D01*
X14413975Y31103871D01*
X14413976Y31103868D01*
X14458929Y30955679D01*
X14459552Y30885814D01*
X14422304Y30826701D01*
X14359010Y30797110D01*
X14289766Y30806435D01*
X14252587Y30832004D01*
X9711819Y35372772D01*
X9678334Y35434095D01*
X9675500Y35460453D01*
X9675500Y36697873D01*
X11574500Y36697873D01*
X11574500Y36697866D01*
X11574500Y36697865D01*
X11574500Y36002130D01*
X11574501Y36002124D01*
X11580908Y35942517D01*
X11631202Y35807672D01*
X11631206Y35807665D01*
X11717452Y35692456D01*
X11717455Y35692453D01*
X11832664Y35606207D01*
X11832671Y35606203D01*
X11868843Y35592712D01*
X11967517Y35555909D01*
X12027127Y35549500D01*
X12282357Y35549501D01*
X12349396Y35529817D01*
X12354456Y35526386D01*
X12446714Y35460453D01*
X12653893Y35312389D01*
X12688837Y35274094D01*
X12957087Y34815293D01*
X13027090Y34695563D01*
X13027091Y34695562D01*
X13046543Y34662290D01*
X13056534Y34645925D01*
X13057973Y34643947D01*
X13067049Y34629466D01*
X13114090Y34541461D01*
X13239116Y34389117D01*
X13391460Y34264091D01*
X13391467Y34264087D01*
X13565266Y34171189D01*
X13565269Y34171189D01*
X13565273Y34171186D01*
X13753868Y34113976D01*
X13950000Y34094659D01*
X14146132Y34113976D01*
X14334727Y34171186D01*
X14508538Y34264090D01*
X14660883Y34389117D01*
X14785910Y34541462D01*
X14847705Y34657072D01*
X14878811Y34715267D01*
X14878811Y34715268D01*
X14878814Y34715273D01*
X14936024Y34903868D01*
X14955341Y35100000D01*
X14936024Y35296132D01*
X14878814Y35484727D01*
X14878811Y35484731D01*
X14878811Y35484734D01*
X14834546Y35567548D01*
X14820304Y35635951D01*
X14845304Y35701195D01*
X14901609Y35742565D01*
X14943904Y35750001D01*
X15149999Y35750001D01*
X15150000Y35750002D01*
X15150000Y36200000D01*
X14475001Y36200000D01*
X14475001Y36168559D01*
X14455316Y36101520D01*
X14402512Y36055765D01*
X14333354Y36045821D01*
X14288416Y36061512D01*
X14254360Y36081423D01*
X14254353Y36081426D01*
X13751189Y36375614D01*
X13722453Y36398779D01*
X13658176Y36468759D01*
X13627323Y36531448D01*
X13625499Y36552640D01*
X13625499Y36697871D01*
X13625498Y36697877D01*
X13619091Y36757484D01*
X13568797Y36892329D01*
X13568793Y36892336D01*
X13482547Y37007545D01*
X13482544Y37007548D01*
X13367335Y37093794D01*
X13367328Y37093798D01*
X13232482Y37144092D01*
X13232483Y37144092D01*
X13172883Y37150499D01*
X13172881Y37150500D01*
X13172873Y37150500D01*
X13172864Y37150500D01*
X12027129Y37150500D01*
X12027123Y37150499D01*
X11967516Y37144092D01*
X11832671Y37093798D01*
X11832664Y37093794D01*
X11717455Y37007548D01*
X11717452Y37007545D01*
X11631206Y36892336D01*
X11631202Y36892329D01*
X11580910Y36757487D01*
X11580909Y36757483D01*
X11574500Y36697873D01*
X9675500Y36697873D01*
X9675500Y37500500D01*
X9695185Y37567539D01*
X9747989Y37613294D01*
X9799500Y37624500D01*
X11596244Y37624500D01*
X11658723Y37607610D01*
X11814463Y37516761D01*
X11814478Y37516754D01*
X11814479Y37516753D01*
X11816770Y37515610D01*
X11827001Y37509299D01*
X11832663Y37506207D01*
X11832666Y37506206D01*
X11832669Y37506204D01*
X11838204Y37504140D01*
X11850215Y37498921D01*
X11873416Y37487343D01*
X11876223Y37486164D01*
X11911275Y37476130D01*
X11915329Y37474969D01*
X11924536Y37471940D01*
X11967517Y37455909D01*
X11976076Y37454989D01*
X11985114Y37454017D01*
X11990150Y37453371D01*
X11991455Y37453177D01*
X11991457Y37453176D01*
X11991458Y37453176D01*
X11993437Y37452881D01*
X11998759Y37452551D01*
X12027127Y37449500D01*
X13172872Y37449501D01*
X13232483Y37455909D01*
X13367331Y37506204D01*
X13482546Y37592454D01*
X13568796Y37707669D01*
X13619091Y37842517D01*
X13625500Y37902127D01*
X13625499Y38597872D01*
X13619091Y38657483D01*
X13619089Y38657488D01*
X13583460Y38753015D01*
X13578476Y38822707D01*
X13611961Y38884030D01*
X13673284Y38917514D01*
X13735635Y38915010D01*
G37*
G04 #@! TD.AperFunction*
G04 #@! TA.AperFunction,Conductor*
G36*
X58093039Y40454815D02*
G01*
X58138794Y40402011D01*
X58150000Y40350500D01*
X58150000Y37199500D01*
X58130315Y37132461D01*
X58077511Y37086706D01*
X58026000Y37075500D01*
X57253757Y37075500D01*
X57191277Y37092391D01*
X57165297Y37107546D01*
X57035534Y37183241D01*
X57035525Y37183246D01*
X57035517Y37183250D01*
X57033226Y37184393D01*
X57023002Y37190700D01*
X57017336Y37193793D01*
X57017334Y37193794D01*
X57017331Y37193796D01*
X57011787Y37195864D01*
X56999774Y37201085D01*
X56976559Y37212669D01*
X56973752Y37213848D01*
X56973754Y37213848D01*
X56934598Y37225058D01*
X56925398Y37228085D01*
X56912835Y37232771D01*
X56882483Y37244091D01*
X56882481Y37244092D01*
X56882479Y37244092D01*
X56864876Y37245985D01*
X56859852Y37246629D01*
X56856623Y37247111D01*
X56851343Y37247440D01*
X56822874Y37250500D01*
X55677129Y37250500D01*
X55677123Y37250499D01*
X55617516Y37244092D01*
X55482671Y37193798D01*
X55482664Y37193794D01*
X55367455Y37107548D01*
X55367452Y37107545D01*
X55281206Y36992336D01*
X55281202Y36992329D01*
X55230908Y36857483D01*
X55224501Y36797884D01*
X55224501Y36797877D01*
X55224500Y36797865D01*
X55224500Y36443268D01*
X55221244Y36415037D01*
X55195973Y36306952D01*
X55162910Y36247502D01*
X54740858Y35825450D01*
X54679535Y35791965D01*
X54609843Y35796949D01*
X54553910Y35838821D01*
X54529493Y35904285D01*
X54536994Y35956462D01*
X54569091Y36042517D01*
X54575500Y36102127D01*
X54575499Y36797872D01*
X54569091Y36857483D01*
X54560070Y36881667D01*
X54555085Y36951356D01*
X54560066Y36968323D01*
X54569091Y36992517D01*
X54575500Y37052127D01*
X54575499Y37747872D01*
X54569091Y37807483D01*
X54565045Y37818330D01*
X54518797Y37942329D01*
X54518793Y37942336D01*
X54432548Y38057543D01*
X54432546Y38057546D01*
X54424689Y38063428D01*
X54382818Y38119359D01*
X54374999Y38162698D01*
X54375000Y38200000D01*
X54134167Y38200000D01*
X54126188Y38200428D01*
X54126183Y38200322D01*
X54122879Y38200500D01*
X54122873Y38200500D01*
X54122866Y38200500D01*
X52977120Y38200500D01*
X52973816Y38200322D01*
X52973810Y38200427D01*
X52965842Y38200000D01*
X52725001Y38200000D01*
X52725001Y38181442D01*
X52705315Y38114403D01*
X52663483Y38074336D01*
X52608724Y38042392D01*
X52546242Y38025500D01*
X52399500Y38025500D01*
X52332461Y38045185D01*
X52286706Y38097989D01*
X52275500Y38149500D01*
X52275500Y39050500D01*
X52295185Y39117539D01*
X52347989Y39163294D01*
X52399500Y39174500D01*
X52512100Y39174500D01*
X52559792Y39164962D01*
X52781281Y39072676D01*
X52835591Y39028722D01*
X52857517Y38962382D01*
X52840096Y38894719D01*
X52821269Y38870535D01*
X52773214Y38822480D01*
X52773211Y38822475D01*
X52727910Y38719878D01*
X52727910Y38719876D01*
X52725000Y38694795D01*
X52725000Y38500000D01*
X54374999Y38500000D01*
X54389129Y38514131D01*
X54394684Y38533047D01*
X54447488Y38578802D01*
X54516646Y38588746D01*
X54557452Y38575367D01*
X54565273Y38571186D01*
X54587294Y38564507D01*
X54611262Y38557235D01*
X54625353Y38552009D01*
X54635046Y38547729D01*
X54731855Y38520624D01*
X54734419Y38519876D01*
X54753357Y38514131D01*
X54753868Y38513976D01*
X54753878Y38513976D01*
X54755151Y38513722D01*
X54764397Y38511513D01*
X55133936Y38408043D01*
X55193183Y38371013D01*
X55223006Y38307827D01*
X55224500Y38288636D01*
X55224500Y38002131D01*
X55224501Y38002124D01*
X55230908Y37942517D01*
X55281202Y37807672D01*
X55281206Y37807665D01*
X55367452Y37692456D01*
X55367455Y37692453D01*
X55482664Y37606207D01*
X55482671Y37606203D01*
X55617517Y37555909D01*
X55617516Y37555909D01*
X55624444Y37555165D01*
X55677127Y37549500D01*
X56822872Y37549501D01*
X56882483Y37555909D01*
X57017331Y37606204D01*
X57132546Y37692454D01*
X57218796Y37807669D01*
X57269091Y37942517D01*
X57275500Y38002127D01*
X57275499Y38697872D01*
X57269091Y38757483D01*
X57257292Y38789117D01*
X57218797Y38892329D01*
X57218793Y38892336D01*
X57132547Y39007545D01*
X57132544Y39007548D01*
X57017335Y39093794D01*
X57017328Y39093798D01*
X56882482Y39144092D01*
X56882483Y39144092D01*
X56822883Y39150499D01*
X56822881Y39150500D01*
X56822873Y39150500D01*
X56822865Y39150500D01*
X56544659Y39150500D01*
X56485036Y39165775D01*
X56255843Y39291461D01*
X56217320Y39312587D01*
X56168139Y39361836D01*
X55860529Y39924597D01*
X55847207Y39947519D01*
X55847206Y39947521D01*
X55844201Y39951811D01*
X55844634Y39952115D01*
X55835766Y39965263D01*
X55785910Y40058538D01*
X55773219Y40074001D01*
X55754480Y40096836D01*
X55727167Y40161146D01*
X55738958Y40230014D01*
X55786110Y40281574D01*
X55850329Y40299501D01*
X56822872Y40299501D01*
X56836569Y40300974D01*
X56839512Y40301226D01*
X56839956Y40301286D01*
X56843494Y40301719D01*
X56882483Y40305909D01*
X56890720Y40308982D01*
X56898963Y40311732D01*
X56902195Y40312687D01*
X56902202Y40312688D01*
X56918284Y40319211D01*
X56921442Y40320441D01*
X57017331Y40356204D01*
X57017332Y40356206D01*
X57017335Y40356206D01*
X57023464Y40359554D01*
X57033992Y40366003D01*
X57035516Y40366753D01*
X57035535Y40366760D01*
X57152973Y40435265D01*
X57191278Y40457609D01*
X57253757Y40474500D01*
X58026000Y40474500D01*
X58093039Y40454815D01*
G37*
G04 #@! TD.AperFunction*
G04 #@! TA.AperFunction,Conductor*
G36*
X11645203Y40584241D02*
G01*
X11663264Y40564842D01*
X11717454Y40492454D01*
X11749354Y40468574D01*
X11832664Y40406207D01*
X11832671Y40406203D01*
X11843911Y40402011D01*
X11967517Y40355909D01*
X12027127Y40349500D01*
X12365517Y40349501D01*
X12413270Y40339937D01*
X12459907Y40320476D01*
X12845980Y40159372D01*
X12900267Y40115390D01*
X12912886Y40092150D01*
X13094957Y39649978D01*
X13094959Y39649973D01*
X13166179Y39477011D01*
X13167108Y39474970D01*
X13168680Y39470819D01*
X13168858Y39470892D01*
X13171185Y39465273D01*
X13171589Y39464518D01*
X13175076Y39457462D01*
X13181471Y39443414D01*
X13181472Y39443412D01*
X13189499Y39428024D01*
X13189569Y39427930D01*
X13199525Y39412254D01*
X13264090Y39291461D01*
X13297469Y39250789D01*
X13324782Y39186479D01*
X13312991Y39117611D01*
X13265839Y39066051D01*
X13198296Y39048168D01*
X13188380Y39048833D01*
X13172873Y39050500D01*
X13172864Y39050500D01*
X12027126Y39050500D01*
X12013477Y39049033D01*
X12010484Y39048775D01*
X12009941Y39048701D01*
X12006535Y39048287D01*
X11967516Y39044091D01*
X11967511Y39044090D01*
X11959271Y39041017D01*
X11951072Y39038281D01*
X11947798Y39037315D01*
X11931684Y39030781D01*
X11928431Y39029515D01*
X11832665Y38993795D01*
X11826584Y38990475D01*
X11816055Y38984024D01*
X11814469Y38983245D01*
X11658723Y38892392D01*
X11596243Y38875500D01*
X11564000Y38875500D01*
X11496961Y38895185D01*
X11451206Y38947989D01*
X11440000Y38999500D01*
X11440000Y40490528D01*
X11459685Y40557567D01*
X11512489Y40603322D01*
X11581647Y40613266D01*
X11645203Y40584241D01*
G37*
G04 #@! TD.AperFunction*
G04 #@! TA.AperFunction,Conductor*
G36*
X13769422Y43624426D02*
G01*
X13790289Y43618096D01*
X13803867Y43613976D01*
X13823184Y43612074D01*
X14000000Y43594659D01*
X14148041Y43609240D01*
X14216685Y43596221D01*
X14267395Y43548156D01*
X14284070Y43480306D01*
X14280964Y43457989D01*
X14280909Y43457486D01*
X14280909Y43457483D01*
X14274500Y43397873D01*
X14274500Y43397866D01*
X14274500Y43397865D01*
X14274500Y42702130D01*
X14274501Y42702124D01*
X14280909Y42642516D01*
X14289929Y42618330D01*
X14294911Y42548639D01*
X14289929Y42531670D01*
X14280910Y42507488D01*
X14280909Y42507485D01*
X14280909Y42507483D01*
X14274500Y42447873D01*
X14274500Y42447866D01*
X14274500Y42447865D01*
X14274500Y41752130D01*
X14274501Y41752124D01*
X14280908Y41692517D01*
X14331202Y41557672D01*
X14331206Y41557665D01*
X14417451Y41442457D01*
X14417452Y41442456D01*
X14417454Y41442454D01*
X14425312Y41436572D01*
X14467182Y41380639D01*
X14475000Y41337306D01*
X14475000Y41300000D01*
X14715833Y41300000D01*
X14723811Y41299573D01*
X14723817Y41299678D01*
X14727102Y41299503D01*
X14727127Y41299500D01*
X15872872Y41299501D01*
X15872880Y41299502D01*
X15876180Y41299679D01*
X15876185Y41299573D01*
X15884156Y41300000D01*
X16124999Y41300000D01*
X16124999Y41318559D01*
X16144684Y41385598D01*
X16186518Y41425668D01*
X16241279Y41457610D01*
X16303757Y41474500D01*
X16500500Y41474500D01*
X16567539Y41454815D01*
X16613294Y41402011D01*
X16624500Y41350500D01*
X16624500Y40283944D01*
X16604815Y40216905D01*
X16552011Y40171150D01*
X16482853Y40161206D01*
X16464506Y40165283D01*
X16445018Y40171195D01*
X16396130Y40186025D01*
X16200000Y40205341D01*
X16003870Y40186025D01*
X15815266Y40128812D01*
X15641467Y40035914D01*
X15641460Y40035910D01*
X15489116Y39910884D01*
X15364090Y39758540D01*
X15329713Y39694225D01*
X15280749Y39644382D01*
X15212612Y39628922D01*
X15146932Y39652755D01*
X15104564Y39708313D01*
X15096952Y39764831D01*
X15105341Y39850000D01*
X15086024Y40046132D01*
X15028814Y40234727D01*
X14994191Y40299502D01*
X14957820Y40367548D01*
X14943578Y40435950D01*
X14968578Y40501194D01*
X15024883Y40542565D01*
X15067178Y40550001D01*
X15150000Y40550001D01*
X15450000Y40550001D01*
X15869786Y40550001D01*
X15869808Y40550003D01*
X15894869Y40552909D01*
X15894873Y40552910D01*
X15997474Y40598212D01*
X15997479Y40598215D01*
X16076785Y40677521D01*
X16076788Y40677526D01*
X16122089Y40780123D01*
X16122089Y40780125D01*
X16124999Y40805206D01*
X16125000Y40805209D01*
X16125000Y41000000D01*
X15450000Y41000000D01*
X15450000Y40550001D01*
X15150000Y40550001D01*
X15150000Y41000000D01*
X14475001Y41000000D01*
X14475001Y40968153D01*
X14455316Y40901114D01*
X14402512Y40855359D01*
X14333354Y40845415D01*
X14303788Y40853493D01*
X13814745Y41054863D01*
X13760250Y41098590D01*
X13758628Y41100975D01*
X13646130Y41270756D01*
X13625511Y41337511D01*
X13625499Y41339245D01*
X13625499Y41497871D01*
X13625498Y41497877D01*
X13624465Y41507483D01*
X13619091Y41557483D01*
X13602727Y41601356D01*
X13568797Y41692329D01*
X13568793Y41692336D01*
X13482547Y41807545D01*
X13482544Y41807548D01*
X13367335Y41893794D01*
X13367328Y41893798D01*
X13232482Y41944092D01*
X13232483Y41944092D01*
X13172883Y41950499D01*
X13172881Y41950500D01*
X13172873Y41950500D01*
X13172864Y41950500D01*
X12027129Y41950500D01*
X12027123Y41950499D01*
X11967516Y41944092D01*
X11832671Y41893798D01*
X11832664Y41893794D01*
X11717455Y41807548D01*
X11663266Y41735161D01*
X11607332Y41693291D01*
X11537640Y41688307D01*
X11476318Y41721793D01*
X11442833Y41783117D01*
X11440000Y41809473D01*
X11440000Y42300500D01*
X11459685Y42367539D01*
X11512489Y42413294D01*
X11564000Y42424500D01*
X11596244Y42424500D01*
X11658723Y42407610D01*
X11814463Y42316761D01*
X11814478Y42316754D01*
X11814479Y42316753D01*
X11816770Y42315610D01*
X11827001Y42309299D01*
X11832663Y42306207D01*
X11832666Y42306206D01*
X11832669Y42306204D01*
X11838204Y42304140D01*
X11850215Y42298921D01*
X11873416Y42287343D01*
X11876223Y42286164D01*
X11911275Y42276130D01*
X11915329Y42274969D01*
X11924536Y42271940D01*
X11967517Y42255909D01*
X11976076Y42254989D01*
X11985114Y42254017D01*
X11990150Y42253371D01*
X11991455Y42253177D01*
X11991457Y42253176D01*
X11991458Y42253176D01*
X11993437Y42252881D01*
X11998759Y42252551D01*
X12027127Y42249500D01*
X13172872Y42249501D01*
X13232483Y42255909D01*
X13367331Y42306204D01*
X13482546Y42392454D01*
X13568796Y42507669D01*
X13619091Y42642517D01*
X13625500Y42702127D01*
X13625499Y43397872D01*
X13619091Y43457483D01*
X13617245Y43462430D01*
X13612260Y43532121D01*
X13645744Y43593444D01*
X13707066Y43626931D01*
X13769422Y43624426D01*
G37*
G04 #@! TD.AperFunction*
G04 #@! TA.AperFunction,Conductor*
G36*
X58193039Y45154815D02*
G01*
X58238794Y45102011D01*
X58250000Y45050500D01*
X58250000Y41849500D01*
X58230315Y41782461D01*
X58177511Y41736706D01*
X58126000Y41725500D01*
X57253757Y41725500D01*
X57191277Y41742391D01*
X57174585Y41752128D01*
X57035534Y41833241D01*
X57035525Y41833246D01*
X57035517Y41833250D01*
X57033226Y41834393D01*
X57023002Y41840700D01*
X57017336Y41843793D01*
X57017334Y41843794D01*
X57017331Y41843796D01*
X57011787Y41845864D01*
X56999774Y41851085D01*
X56976559Y41862669D01*
X56973752Y41863848D01*
X56973754Y41863848D01*
X56934598Y41875058D01*
X56925398Y41878085D01*
X56912835Y41882771D01*
X56882483Y41894091D01*
X56882481Y41894092D01*
X56882479Y41894092D01*
X56864876Y41895985D01*
X56859852Y41896629D01*
X56856623Y41897111D01*
X56851343Y41897440D01*
X56822874Y41900500D01*
X55677129Y41900500D01*
X55677123Y41900499D01*
X55617516Y41894092D01*
X55482671Y41843798D01*
X55482664Y41843794D01*
X55367455Y41757548D01*
X55367452Y41757545D01*
X55281206Y41642336D01*
X55281202Y41642329D01*
X55230910Y41507487D01*
X55230909Y41507483D01*
X55224500Y41447873D01*
X55224500Y41447866D01*
X55224500Y41447865D01*
X55224500Y40752130D01*
X55224501Y40752124D01*
X55230909Y40692516D01*
X55244641Y40655697D01*
X55249625Y40586005D01*
X55216139Y40524683D01*
X55154816Y40491198D01*
X55116305Y40488962D01*
X54950000Y40505341D01*
X54753865Y40486024D01*
X54698392Y40469197D01*
X54628526Y40468574D01*
X54569413Y40505824D01*
X54539823Y40569118D01*
X54546217Y40631191D01*
X54569091Y40692517D01*
X54575500Y40752127D01*
X54575499Y41447872D01*
X54569091Y41507483D01*
X54560070Y41531667D01*
X54555085Y41601356D01*
X54560066Y41618323D01*
X54569091Y41642517D01*
X54575500Y41702127D01*
X54575499Y42397872D01*
X54569091Y42457483D01*
X54557928Y42487412D01*
X54518797Y42592329D01*
X54518793Y42592336D01*
X54438536Y42699544D01*
X54432546Y42707546D01*
X54424689Y42713428D01*
X54382818Y42769359D01*
X54374999Y42812698D01*
X54375000Y42850000D01*
X54134167Y42850000D01*
X54126188Y42850428D01*
X54126183Y42850322D01*
X54122879Y42850500D01*
X54122873Y42850500D01*
X54122866Y42850500D01*
X52977129Y42850500D01*
X52973805Y42850321D01*
X52973799Y42850427D01*
X52965837Y42850000D01*
X52725001Y42850000D01*
X52725000Y42812693D01*
X52705314Y42745654D01*
X52675318Y42713435D01*
X52667452Y42707546D01*
X52665616Y42705710D01*
X52641817Y42687117D01*
X52568079Y42642805D01*
X52551664Y42634530D01*
X52478710Y42604310D01*
X52376271Y42535862D01*
X52376269Y42535861D01*
X52348081Y42507672D01*
X52289142Y42448733D01*
X52037181Y42196772D01*
X51975858Y42163287D01*
X51906166Y42168271D01*
X51850233Y42210143D01*
X51825816Y42275607D01*
X51825500Y42284453D01*
X51825500Y43750500D01*
X51845185Y43817539D01*
X51897989Y43863294D01*
X51949500Y43874500D01*
X52312100Y43874500D01*
X52359792Y43864962D01*
X52757753Y43699146D01*
X52812062Y43655193D01*
X52833988Y43588853D01*
X52816567Y43521190D01*
X52797741Y43497006D01*
X52773212Y43472477D01*
X52773211Y43472475D01*
X52727910Y43369878D01*
X52727910Y43369876D01*
X52725000Y43344795D01*
X52725000Y43150000D01*
X54374999Y43150000D01*
X54374999Y43179054D01*
X54394684Y43246093D01*
X54447488Y43291848D01*
X54516646Y43301792D01*
X54532432Y43298462D01*
X54535037Y43297733D01*
X54535041Y43297731D01*
X54631887Y43270615D01*
X54634419Y43269876D01*
X54649683Y43265246D01*
X54653868Y43263976D01*
X54653882Y43263975D01*
X54655148Y43263723D01*
X54664392Y43261514D01*
X54958895Y43179054D01*
X55132957Y43130317D01*
X55192206Y43093285D01*
X55220260Y43039170D01*
X55221237Y43034996D01*
X55224500Y43006735D01*
X55224500Y42652131D01*
X55224501Y42652124D01*
X55230908Y42592517D01*
X55281202Y42457672D01*
X55281206Y42457665D01*
X55367452Y42342456D01*
X55367455Y42342453D01*
X55482664Y42256207D01*
X55482671Y42256203D01*
X55617517Y42205909D01*
X55617516Y42205909D01*
X55624444Y42205165D01*
X55677127Y42199500D01*
X56822872Y42199501D01*
X56882483Y42205909D01*
X57017331Y42256204D01*
X57132546Y42342454D01*
X57218796Y42457669D01*
X57269091Y42592517D01*
X57275500Y42652127D01*
X57275499Y43347872D01*
X57269091Y43407483D01*
X57250442Y43457483D01*
X57218797Y43542329D01*
X57218793Y43542336D01*
X57132547Y43657545D01*
X57132544Y43657548D01*
X57017335Y43743794D01*
X57017328Y43743798D01*
X56882482Y43794092D01*
X56882483Y43794092D01*
X56822883Y43800499D01*
X56822881Y43800500D01*
X56822873Y43800500D01*
X56822865Y43800500D01*
X56544659Y43800500D01*
X56485036Y43815775D01*
X56152575Y43998092D01*
X56103392Y44047343D01*
X55760540Y44674577D01*
X55760538Y44674579D01*
X55760529Y44674597D01*
X55747207Y44697519D01*
X55747206Y44697521D01*
X55744201Y44701811D01*
X55744634Y44702115D01*
X55735766Y44715263D01*
X55685910Y44808538D01*
X55685909Y44808539D01*
X55683038Y44813911D01*
X55684644Y44814770D01*
X55666320Y44873281D01*
X55684801Y44940662D01*
X55736777Y44987355D01*
X55790296Y44999501D01*
X56822872Y44999501D01*
X56836569Y45000974D01*
X56839512Y45001226D01*
X56839956Y45001286D01*
X56843494Y45001719D01*
X56882483Y45005909D01*
X56890720Y45008982D01*
X56898963Y45011732D01*
X56902195Y45012687D01*
X56902202Y45012688D01*
X56918284Y45019211D01*
X56921442Y45020441D01*
X57017331Y45056204D01*
X57017332Y45056206D01*
X57017335Y45056206D01*
X57023464Y45059554D01*
X57033992Y45066003D01*
X57035516Y45066753D01*
X57035535Y45066760D01*
X57136233Y45125500D01*
X57191278Y45157609D01*
X57253757Y45174500D01*
X58126000Y45174500D01*
X58193039Y45154815D01*
G37*
G04 #@! TD.AperFunction*
G04 #@! TA.AperFunction,Conductor*
G36*
X11759632Y45146803D02*
G01*
X11760355Y45147768D01*
X11764791Y45144448D01*
X11765203Y45144259D01*
X11765861Y45143646D01*
X11882664Y45056207D01*
X11882671Y45056203D01*
X11897962Y45050500D01*
X12017517Y45005909D01*
X12077127Y44999500D01*
X12350707Y44999501D01*
X12417746Y44979817D01*
X12419141Y44978907D01*
X12526484Y44907868D01*
X12695321Y44796132D01*
X12721230Y44778986D01*
X12759842Y44738167D01*
X13077090Y44195563D01*
X13077091Y44195562D01*
X13096543Y44162290D01*
X13106534Y44145925D01*
X13107973Y44143947D01*
X13117049Y44129466D01*
X13166961Y44036091D01*
X13165357Y44035234D01*
X13183679Y43976702D01*
X13165189Y43909324D01*
X13113205Y43862638D01*
X13059699Y43850500D01*
X12027126Y43850500D01*
X12013477Y43849033D01*
X12010484Y43848775D01*
X12009941Y43848701D01*
X12006535Y43848287D01*
X11967516Y43844091D01*
X11967511Y43844090D01*
X11959271Y43841017D01*
X11951072Y43838281D01*
X11947798Y43837315D01*
X11931684Y43830781D01*
X11928431Y43829515D01*
X11832665Y43793795D01*
X11826584Y43790475D01*
X11816055Y43784024D01*
X11814469Y43783245D01*
X11746480Y43743584D01*
X11678654Y43726807D01*
X11612526Y43749364D01*
X11569090Y43804091D01*
X11560000Y43850692D01*
X11560000Y45050546D01*
X11579685Y45117585D01*
X11632489Y45163340D01*
X11701647Y45173284D01*
X11759632Y45146803D01*
G37*
G04 #@! TD.AperFunction*
G04 #@! TA.AperFunction,Conductor*
G36*
X13797658Y48313986D02*
G01*
X13797893Y48315164D01*
X13803863Y48313977D01*
X13803865Y48313977D01*
X13803868Y48313976D01*
X14000000Y48294659D01*
X14196132Y48313976D01*
X14196134Y48313977D01*
X14196136Y48313977D01*
X14202107Y48315164D01*
X14202385Y48313762D01*
X14265079Y48314329D01*
X14324196Y48277088D01*
X14353794Y48213797D01*
X14347403Y48151709D01*
X14330910Y48107489D01*
X14330909Y48107485D01*
X14330909Y48107483D01*
X14324500Y48047873D01*
X14324500Y48047866D01*
X14324500Y48047865D01*
X14324500Y47352130D01*
X14324501Y47352124D01*
X14330909Y47292516D01*
X14339929Y47268330D01*
X14344911Y47198639D01*
X14339929Y47181670D01*
X14330910Y47157488D01*
X14330909Y47157485D01*
X14330909Y47157483D01*
X14324500Y47097873D01*
X14324500Y47097866D01*
X14324500Y47097865D01*
X14324500Y46402130D01*
X14324501Y46402124D01*
X14330908Y46342517D01*
X14381202Y46207672D01*
X14381206Y46207665D01*
X14467451Y46092457D01*
X14467452Y46092456D01*
X14467454Y46092454D01*
X14475312Y46086572D01*
X14517182Y46030639D01*
X14525000Y45987306D01*
X14525000Y45950000D01*
X14765833Y45950000D01*
X14773811Y45949573D01*
X14773817Y45949678D01*
X14777102Y45949503D01*
X14777127Y45949500D01*
X15922872Y45949501D01*
X15922880Y45949502D01*
X15926180Y45949679D01*
X15926185Y45949573D01*
X15934156Y45950000D01*
X16174999Y45950000D01*
X16174999Y45968559D01*
X16194684Y46035598D01*
X16236518Y46075668D01*
X16291279Y46107610D01*
X16353757Y46124500D01*
X16950500Y46124500D01*
X17017539Y46104815D01*
X17063294Y46052011D01*
X17074500Y46000500D01*
X17074500Y44907204D01*
X17054815Y44840165D01*
X17002011Y44794410D01*
X16932853Y44784466D01*
X16869297Y44813491D01*
X16841143Y44848749D01*
X16835911Y44858536D01*
X16835909Y44858540D01*
X16710883Y45010884D01*
X16558539Y45135910D01*
X16558532Y45135914D01*
X16384728Y45228814D01*
X16252818Y45268829D01*
X16194380Y45307126D01*
X16165923Y45370939D01*
X16172922Y45420232D01*
X16169641Y45421124D01*
X16172089Y45430125D01*
X16174999Y45455206D01*
X16175000Y45455209D01*
X16175000Y45650000D01*
X14525001Y45650000D01*
X14517286Y45642286D01*
X14505316Y45601520D01*
X14452512Y45555765D01*
X14383354Y45545821D01*
X14338416Y45561512D01*
X14304360Y45581423D01*
X14304353Y45581426D01*
X14187067Y45650000D01*
X13900416Y45817598D01*
X13791698Y45881163D01*
X13767350Y45899788D01*
X13712564Y45953653D01*
X13678561Y46014690D01*
X13675499Y46042074D01*
X13675499Y46147871D01*
X13675498Y46147877D01*
X13669091Y46207484D01*
X13618797Y46342329D01*
X13618793Y46342336D01*
X13532547Y46457545D01*
X13532544Y46457548D01*
X13417335Y46543794D01*
X13417328Y46543798D01*
X13282482Y46594092D01*
X13282483Y46594092D01*
X13222883Y46600499D01*
X13222881Y46600500D01*
X13222873Y46600500D01*
X13222864Y46600500D01*
X12077129Y46600500D01*
X12077123Y46600499D01*
X12017516Y46594092D01*
X11882671Y46543798D01*
X11882664Y46543794D01*
X11760355Y46452232D01*
X11758571Y46454615D01*
X11710358Y46428288D01*
X11640666Y46433272D01*
X11584733Y46475144D01*
X11560316Y46540608D01*
X11560000Y46549454D01*
X11560000Y46928476D01*
X11579685Y46995515D01*
X11632489Y47041270D01*
X11701647Y47051214D01*
X11746478Y47035586D01*
X11864463Y46966761D01*
X11864478Y46966754D01*
X11864479Y46966753D01*
X11866770Y46965610D01*
X11877001Y46959299D01*
X11882663Y46956207D01*
X11882666Y46956206D01*
X11882669Y46956204D01*
X11888204Y46954140D01*
X11900215Y46948921D01*
X11923416Y46937343D01*
X11926223Y46936164D01*
X11953079Y46928476D01*
X11965329Y46924969D01*
X11974536Y46921940D01*
X12017517Y46905909D01*
X12026076Y46904989D01*
X12035114Y46904017D01*
X12040150Y46903371D01*
X12041455Y46903177D01*
X12041457Y46903176D01*
X12041458Y46903176D01*
X12043437Y46902881D01*
X12048759Y46902551D01*
X12077127Y46899500D01*
X13222872Y46899501D01*
X13282483Y46905909D01*
X13417331Y46956204D01*
X13532546Y47042454D01*
X13618796Y47157669D01*
X13669091Y47292517D01*
X13675500Y47352127D01*
X13675499Y48047872D01*
X13669091Y48107483D01*
X13652595Y48151709D01*
X13647612Y48221399D01*
X13681097Y48282722D01*
X13742420Y48316207D01*
X13797658Y48313986D01*
G37*
G04 #@! TD.AperFunction*
G04 #@! TA.AperFunction,Conductor*
G36*
X58243039Y49854815D02*
G01*
X58288794Y49802011D01*
X58300000Y49750500D01*
X58300000Y46549500D01*
X58280315Y46482461D01*
X58227511Y46436706D01*
X58176000Y46425500D01*
X57253757Y46425500D01*
X57191277Y46442391D01*
X57174407Y46452232D01*
X57035534Y46533241D01*
X57035525Y46533246D01*
X57035517Y46533250D01*
X57033226Y46534393D01*
X57023002Y46540700D01*
X57017336Y46543793D01*
X57017334Y46543794D01*
X57017331Y46543796D01*
X57011787Y46545864D01*
X56999774Y46551085D01*
X56976559Y46562669D01*
X56973752Y46563848D01*
X56973754Y46563848D01*
X56934598Y46575058D01*
X56925398Y46578085D01*
X56912835Y46582771D01*
X56882483Y46594091D01*
X56882481Y46594092D01*
X56882479Y46594092D01*
X56864876Y46595985D01*
X56859852Y46596629D01*
X56856623Y46597111D01*
X56851343Y46597440D01*
X56822874Y46600500D01*
X55677129Y46600500D01*
X55677123Y46600499D01*
X55617516Y46594092D01*
X55482671Y46543798D01*
X55482664Y46543794D01*
X55367455Y46457548D01*
X55367452Y46457545D01*
X55281206Y46342336D01*
X55281202Y46342329D01*
X55230910Y46207487D01*
X55230909Y46207483D01*
X55224500Y46147873D01*
X55224500Y46147866D01*
X55224500Y46147865D01*
X55224500Y45452130D01*
X55224501Y45452124D01*
X55230908Y45392518D01*
X55232755Y45387567D01*
X55237738Y45317875D01*
X55204251Y45256553D01*
X55142927Y45223069D01*
X55080577Y45225575D01*
X55069900Y45228814D01*
X55046130Y45236025D01*
X54850000Y45255341D01*
X54701960Y45240761D01*
X54633314Y45253780D01*
X54582603Y45301845D01*
X54565929Y45369696D01*
X54569035Y45392007D01*
X54569089Y45392513D01*
X54569091Y45392517D01*
X54575500Y45452127D01*
X54575499Y46147872D01*
X54569091Y46207483D01*
X54560070Y46231667D01*
X54555085Y46301356D01*
X54560066Y46318323D01*
X54569091Y46342517D01*
X54575500Y46402127D01*
X54575499Y47097872D01*
X54569091Y47157483D01*
X54569089Y47157488D01*
X54518797Y47292329D01*
X54518793Y47292336D01*
X54439383Y47398413D01*
X54432546Y47407546D01*
X54424689Y47413428D01*
X54382818Y47469359D01*
X54374999Y47512698D01*
X54375000Y47550000D01*
X54134167Y47550000D01*
X54126188Y47550428D01*
X54126183Y47550322D01*
X54122879Y47550500D01*
X54122873Y47550500D01*
X54122866Y47550500D01*
X52977129Y47550500D01*
X52973805Y47550321D01*
X52973799Y47550427D01*
X52965837Y47550000D01*
X52725001Y47550000D01*
X52725000Y47512693D01*
X52705314Y47445654D01*
X52675318Y47413435D01*
X52667452Y47407546D01*
X52665616Y47405710D01*
X52641817Y47387117D01*
X52568079Y47342805D01*
X52551664Y47334530D01*
X52478713Y47304311D01*
X52388491Y47244027D01*
X52388492Y47244026D01*
X52376262Y47235855D01*
X52376260Y47235853D01*
X51587181Y46446773D01*
X51525858Y46413288D01*
X51456166Y46418272D01*
X51400233Y46460144D01*
X51375816Y46525608D01*
X51375500Y46534454D01*
X51375500Y48864548D01*
X51395185Y48931587D01*
X51411819Y48952229D01*
X51499819Y49040229D01*
X51561142Y49073714D01*
X51630834Y49068730D01*
X51675181Y49040229D01*
X51788147Y48927263D01*
X51791472Y48923807D01*
X51805862Y48908259D01*
X51807650Y48906809D01*
X51817246Y48898164D01*
X51961016Y48754394D01*
X51961045Y48754363D01*
X52051263Y48664145D01*
X52051267Y48664142D01*
X52153709Y48595692D01*
X52153710Y48595692D01*
X52153714Y48595689D01*
X52214115Y48570671D01*
X52244752Y48552432D01*
X52419948Y48410392D01*
X52441577Y48393804D01*
X52446021Y48390959D01*
X52445758Y48390549D01*
X52459005Y48381761D01*
X52541460Y48314091D01*
X52541467Y48314087D01*
X52678108Y48241051D01*
X52727952Y48192089D01*
X52743413Y48123952D01*
X52733090Y48081609D01*
X52727911Y48069881D01*
X52727910Y48069876D01*
X52725000Y48044795D01*
X52725000Y47850000D01*
X54374999Y47850000D01*
X54374999Y47942734D01*
X54394684Y48009773D01*
X54447488Y48055528D01*
X54516646Y48065472D01*
X54557450Y48052093D01*
X54615273Y48021186D01*
X54615279Y48021184D01*
X54620895Y48018858D01*
X54620738Y48018482D01*
X54622827Y48017652D01*
X54622916Y48017866D01*
X54627008Y48016181D01*
X54627010Y48016180D01*
X55018197Y47855103D01*
X55147713Y47801773D01*
X55202208Y47758046D01*
X55224411Y47691798D01*
X55224500Y47687113D01*
X55224500Y47352131D01*
X55224501Y47352124D01*
X55230908Y47292517D01*
X55281202Y47157672D01*
X55281206Y47157665D01*
X55367452Y47042456D01*
X55367455Y47042453D01*
X55482664Y46956207D01*
X55482671Y46956203D01*
X55617517Y46905909D01*
X55617516Y46905909D01*
X55624444Y46905165D01*
X55677127Y46899500D01*
X56822872Y46899501D01*
X56882483Y46905909D01*
X57017331Y46956204D01*
X57132546Y47042454D01*
X57218796Y47157669D01*
X57269091Y47292517D01*
X57275500Y47352127D01*
X57275499Y48047872D01*
X57269091Y48107483D01*
X57262948Y48123952D01*
X57218797Y48242329D01*
X57218793Y48242336D01*
X57132547Y48357545D01*
X57132544Y48357548D01*
X57017335Y48443794D01*
X57017328Y48443798D01*
X56882482Y48494092D01*
X56882483Y48494092D01*
X56822883Y48500499D01*
X56822881Y48500500D01*
X56822873Y48500500D01*
X56822865Y48500500D01*
X56544659Y48500500D01*
X56485036Y48515775D01*
X56240750Y48649738D01*
X56191434Y48699233D01*
X56185713Y48711250D01*
X56177880Y48730272D01*
X55933820Y49322990D01*
X55932905Y49325001D01*
X55931332Y49329172D01*
X55931146Y49329094D01*
X55928816Y49334719D01*
X55928814Y49334727D01*
X55928417Y49335470D01*
X55924911Y49342563D01*
X55918532Y49356579D01*
X55918527Y49356589D01*
X55910500Y49371977D01*
X55910430Y49372071D01*
X55900476Y49387743D01*
X55835910Y49508538D01*
X55835908Y49508541D01*
X55833038Y49513910D01*
X55834644Y49514769D01*
X55816320Y49573281D01*
X55834801Y49640662D01*
X55886777Y49687355D01*
X55940296Y49699501D01*
X56822872Y49699501D01*
X56836569Y49700974D01*
X56839512Y49701226D01*
X56839956Y49701286D01*
X56843494Y49701719D01*
X56882483Y49705909D01*
X56890720Y49708982D01*
X56898963Y49711732D01*
X56902195Y49712687D01*
X56902202Y49712688D01*
X56918284Y49719211D01*
X56921442Y49720441D01*
X57017331Y49756204D01*
X57017332Y49756206D01*
X57017335Y49756206D01*
X57023464Y49759554D01*
X57033992Y49766003D01*
X57035516Y49766753D01*
X57035535Y49766760D01*
X57128618Y49821058D01*
X57191278Y49857609D01*
X57253757Y49874500D01*
X58176000Y49874500D01*
X58243039Y49854815D01*
G37*
G04 #@! TD.AperFunction*
G04 #@! TA.AperFunction,Conductor*
G36*
X14309555Y52937803D02*
G01*
X14339147Y52874510D01*
X14332756Y52812437D01*
X14330910Y52807488D01*
X14330909Y52807485D01*
X14330909Y52807483D01*
X14324500Y52747873D01*
X14324500Y52747866D01*
X14324500Y52747865D01*
X14324500Y52052130D01*
X14324501Y52052124D01*
X14330909Y51992516D01*
X14339929Y51968330D01*
X14344911Y51898639D01*
X14339929Y51881670D01*
X14330910Y51857488D01*
X14330909Y51857485D01*
X14330909Y51857483D01*
X14324500Y51797873D01*
X14324500Y51797866D01*
X14324500Y51797865D01*
X14324500Y51102130D01*
X14324501Y51102124D01*
X14330908Y51042517D01*
X14381202Y50907672D01*
X14381206Y50907665D01*
X14467451Y50792457D01*
X14467452Y50792456D01*
X14467454Y50792454D01*
X14475312Y50786572D01*
X14517182Y50730639D01*
X14525000Y50687306D01*
X14525000Y50650000D01*
X14765833Y50650000D01*
X14773811Y50649573D01*
X14773817Y50649678D01*
X14777102Y50649503D01*
X14777127Y50649500D01*
X15922872Y50649501D01*
X15922880Y50649502D01*
X15926180Y50649679D01*
X15926185Y50649573D01*
X15934156Y50650000D01*
X16174999Y50650000D01*
X16174999Y50668559D01*
X16194684Y50735598D01*
X16236518Y50775668D01*
X16291279Y50807610D01*
X16353757Y50824500D01*
X17400500Y50824500D01*
X17467539Y50804815D01*
X17513294Y50752011D01*
X17524500Y50700500D01*
X17524500Y47499500D01*
X17504815Y47432461D01*
X17452011Y47386706D01*
X17400500Y47375500D01*
X16949500Y47375500D01*
X16882461Y47395185D01*
X16836706Y47447989D01*
X16825500Y47499500D01*
X16825500Y47960740D01*
X16830742Y47996414D01*
X16837573Y48019153D01*
X17043032Y48703120D01*
X17050371Y48730272D01*
X17050372Y48730287D01*
X17051310Y48735475D01*
X17051756Y48735395D01*
X17054826Y48751026D01*
X17054900Y48751267D01*
X17086024Y48853868D01*
X17105341Y49050000D01*
X17086024Y49246132D01*
X17028814Y49434727D01*
X17028811Y49434731D01*
X17028811Y49434734D01*
X16935913Y49608533D01*
X16935909Y49608540D01*
X16810883Y49760884D01*
X16658539Y49885910D01*
X16658532Y49885914D01*
X16484733Y49978812D01*
X16484727Y49978814D01*
X16307456Y50032589D01*
X16296129Y50036025D01*
X16286844Y50036939D01*
X16222057Y50063101D01*
X16181699Y50120136D01*
X16175000Y50160342D01*
X16175000Y50350000D01*
X14525001Y50350000D01*
X14522166Y50347166D01*
X14505316Y50289779D01*
X14452512Y50244024D01*
X14383354Y50234080D01*
X14352527Y50242685D01*
X13751025Y50498155D01*
X13697015Y50542481D01*
X13675543Y50608969D01*
X13675499Y50612288D01*
X13675499Y50847871D01*
X13675498Y50847877D01*
X13669091Y50907484D01*
X13618797Y51042329D01*
X13618793Y51042336D01*
X13532547Y51157545D01*
X13532544Y51157548D01*
X13417335Y51243794D01*
X13417328Y51243798D01*
X13282482Y51294092D01*
X13282483Y51294092D01*
X13222883Y51300499D01*
X13222881Y51300500D01*
X13222873Y51300500D01*
X13222864Y51300500D01*
X12077129Y51300500D01*
X12077123Y51300499D01*
X12017516Y51294092D01*
X11882671Y51243798D01*
X11882664Y51243794D01*
X11767455Y51157548D01*
X11767452Y51157545D01*
X11681206Y51042336D01*
X11681202Y51042329D01*
X11660182Y50985969D01*
X11618311Y50930035D01*
X11552847Y50905618D01*
X11484574Y50920469D01*
X11435168Y50969875D01*
X11420000Y51029302D01*
X11420000Y51650500D01*
X11439685Y51717539D01*
X11492489Y51763294D01*
X11544000Y51774500D01*
X11646244Y51774500D01*
X11708723Y51757610D01*
X11864463Y51666761D01*
X11864478Y51666754D01*
X11864479Y51666753D01*
X11866770Y51665610D01*
X11877001Y51659299D01*
X11882663Y51656207D01*
X11882666Y51656206D01*
X11882669Y51656204D01*
X11888204Y51654140D01*
X11900215Y51648921D01*
X11923416Y51637343D01*
X11926223Y51636164D01*
X11947685Y51630020D01*
X11965329Y51624969D01*
X11974536Y51621940D01*
X12017517Y51605909D01*
X12026076Y51604989D01*
X12035114Y51604017D01*
X12040150Y51603371D01*
X12041455Y51603177D01*
X12041457Y51603176D01*
X12041458Y51603176D01*
X12043437Y51602881D01*
X12048759Y51602551D01*
X12077127Y51599500D01*
X13222872Y51599501D01*
X13282483Y51605909D01*
X13417331Y51656204D01*
X13532546Y51742454D01*
X13618796Y51857669D01*
X13669091Y51992517D01*
X13675500Y52052127D01*
X13675499Y52747872D01*
X13669091Y52807483D01*
X13669091Y52807484D01*
X13668262Y52815196D01*
X13669559Y52815336D01*
X13672868Y52877087D01*
X13713733Y52933760D01*
X13778751Y52959343D01*
X13801953Y52959241D01*
X13950000Y52944659D01*
X14146132Y52963976D01*
X14180577Y52974426D01*
X14250441Y52975050D01*
X14309555Y52937803D01*
G37*
G04 #@! TD.AperFunction*
G04 #@! TA.AperFunction,Conductor*
G36*
X11625203Y50064412D02*
G01*
X11660182Y50014031D01*
X11681201Y49957674D01*
X11681206Y49957665D01*
X11767452Y49842456D01*
X11767455Y49842453D01*
X11882664Y49756207D01*
X11882671Y49756203D01*
X11927618Y49739439D01*
X12017517Y49705909D01*
X12077127Y49699500D01*
X12289234Y49699501D01*
X12356274Y49679817D01*
X12369332Y49670161D01*
X12478272Y49577981D01*
X12652166Y49430840D01*
X12651874Y49430496D01*
X12671789Y49410003D01*
X13134610Y48787618D01*
X13146206Y48772024D01*
X13156060Y48756485D01*
X13164090Y48741462D01*
X13164091Y48741461D01*
X13164090Y48741461D01*
X13195519Y48703165D01*
X13222832Y48638855D01*
X13211041Y48569987D01*
X13163889Y48518427D01*
X13099666Y48500500D01*
X12077126Y48500500D01*
X12063477Y48499033D01*
X12060484Y48498775D01*
X12059941Y48498701D01*
X12056535Y48498287D01*
X12017516Y48494091D01*
X12017511Y48494090D01*
X12009271Y48491017D01*
X12001072Y48488281D01*
X11997798Y48487315D01*
X11981684Y48480781D01*
X11978431Y48479515D01*
X11882665Y48443795D01*
X11876584Y48440475D01*
X11866055Y48434024D01*
X11864469Y48433245D01*
X11708723Y48342392D01*
X11646243Y48325500D01*
X11544000Y48325500D01*
X11476961Y48345185D01*
X11431206Y48397989D01*
X11420000Y48449500D01*
X11420000Y49970699D01*
X11439685Y50037738D01*
X11492489Y50083493D01*
X11561647Y50093437D01*
X11625203Y50064412D01*
G37*
G04 #@! TD.AperFunction*
G04 #@! TA.AperFunction,Conductor*
G36*
X11788311Y54626840D02*
G01*
X11882664Y54556207D01*
X11882671Y54556203D01*
X11897962Y54550500D01*
X12017517Y54505909D01*
X12077127Y54499500D01*
X12289234Y54499501D01*
X12356274Y54479817D01*
X12369332Y54470161D01*
X12468765Y54386025D01*
X12478272Y54377981D01*
X12650613Y54232154D01*
X12656718Y54227323D01*
X12689400Y54188027D01*
X12689995Y54186901D01*
X12696985Y54173674D01*
X13036159Y53531878D01*
X13036164Y53531870D01*
X13050994Y53505721D01*
X13050996Y53505719D01*
X13050997Y53505717D01*
X13054029Y53501305D01*
X13053714Y53501089D01*
X13062563Y53487861D01*
X13116961Y53386089D01*
X13115356Y53385232D01*
X13133678Y53326702D01*
X13115188Y53259324D01*
X13063204Y53212638D01*
X13009698Y53200500D01*
X12077126Y53200500D01*
X12063477Y53199033D01*
X12060484Y53198775D01*
X12059941Y53198701D01*
X12056535Y53198287D01*
X12017516Y53194091D01*
X12017511Y53194090D01*
X12009271Y53191017D01*
X12001072Y53188281D01*
X11997798Y53187315D01*
X11981684Y53180781D01*
X11978431Y53179515D01*
X11882665Y53143795D01*
X11876584Y53140475D01*
X11866055Y53134024D01*
X11864479Y53133250D01*
X11776480Y53081917D01*
X11708654Y53065141D01*
X11642525Y53087698D01*
X11599090Y53142426D01*
X11590000Y53189026D01*
X11590000Y54527574D01*
X11609685Y54594613D01*
X11662489Y54640368D01*
X11731647Y54650312D01*
X11788311Y54626840D01*
G37*
G04 #@! TD.AperFunction*
G04 #@! TA.AperFunction,Conductor*
G36*
X72392539Y74079815D02*
G01*
X72438294Y74027011D01*
X72449500Y73975500D01*
X72449500Y49740691D01*
X72429815Y49673652D01*
X72377011Y49627897D01*
X72307853Y49617953D01*
X72244297Y49646978D01*
X72219773Y49675901D01*
X72178436Y49743357D01*
X72178429Y49743366D01*
X72112587Y49820458D01*
X71541735Y49249606D01*
X71501401Y49309970D01*
X71389970Y49421401D01*
X71329604Y49461737D01*
X71900456Y50032589D01*
X71823365Y50098430D01*
X71823356Y50098436D01*
X71608631Y50230020D01*
X71375956Y50326397D01*
X71131072Y50385188D01*
X70880000Y50404948D01*
X70628927Y50385188D01*
X70384043Y50326397D01*
X70151368Y50230020D01*
X69936638Y50098433D01*
X69936627Y50098424D01*
X69859542Y50032590D01*
X70430395Y49461737D01*
X70370030Y49421401D01*
X70258599Y49309970D01*
X70218263Y49249605D01*
X69647410Y49820458D01*
X69581576Y49743373D01*
X69581567Y49743362D01*
X69449980Y49528632D01*
X69353603Y49295957D01*
X69294812Y49051073D01*
X69275052Y48800000D01*
X69294812Y48548928D01*
X69353603Y48304044D01*
X69449979Y48071371D01*
X69473025Y48033764D01*
X69491269Y47966318D01*
X69470152Y47899716D01*
X69416380Y47855103D01*
X69347024Y47846643D01*
X69313496Y47857255D01*
X69081325Y47969062D01*
X69081327Y47969062D01*
X68830623Y48046394D01*
X68830619Y48046395D01*
X68830615Y48046396D01*
X68705823Y48065206D01*
X68571187Y48085500D01*
X68571182Y48085500D01*
X68308818Y48085500D01*
X68308812Y48085500D01*
X68147247Y48061147D01*
X68049385Y48046396D01*
X68049382Y48046395D01*
X68049376Y48046394D01*
X67798673Y47969062D01*
X67562303Y47855233D01*
X67562302Y47855232D01*
X67345520Y47707433D01*
X67153198Y47528986D01*
X66989614Y47323857D01*
X66858432Y47096644D01*
X66762582Y46852422D01*
X66762576Y46852403D01*
X66733486Y46724948D01*
X66705082Y46600500D01*
X66704198Y46596629D01*
X66704196Y46596621D01*
X66684592Y46335005D01*
X66684592Y46334996D01*
X66704196Y46073380D01*
X66704197Y46073375D01*
X66704197Y46073371D01*
X66704198Y46073370D01*
X66709073Y46052011D01*
X66762576Y45817598D01*
X66762578Y45817589D01*
X66762580Y45817584D01*
X66858432Y45573357D01*
X66989614Y45346143D01*
X67077430Y45236025D01*
X67153198Y45141015D01*
X67318806Y44987355D01*
X67345521Y44962567D01*
X67562296Y44814772D01*
X67562301Y44814770D01*
X67562302Y44814769D01*
X67562303Y44814768D01*
X67687843Y44754312D01*
X67798673Y44700939D01*
X67798674Y44700939D01*
X67798677Y44700937D01*
X68049385Y44623604D01*
X68308818Y44584500D01*
X68571182Y44584500D01*
X68830615Y44623604D01*
X69081323Y44700937D01*
X69278998Y44796132D01*
X69317696Y44814768D01*
X69317696Y44814769D01*
X69317704Y44814772D01*
X69491883Y44933526D01*
X69558361Y44955025D01*
X69625911Y44937171D01*
X69673085Y44885631D01*
X69684905Y44816769D01*
X69657620Y44752447D01*
X69656023Y44750539D01*
X69581571Y44663368D01*
X69581568Y44663363D01*
X69449980Y44448632D01*
X69353603Y44215957D01*
X69294812Y43971073D01*
X69275052Y43720000D01*
X69294812Y43468928D01*
X69353603Y43224044D01*
X69449980Y42991369D01*
X69581564Y42776644D01*
X69581570Y42776635D01*
X69647410Y42699545D01*
X70218263Y43270397D01*
X70258599Y43210030D01*
X70370030Y43098599D01*
X70430395Y43058265D01*
X69859542Y42487413D01*
X69936634Y42421571D01*
X69936643Y42421565D01*
X70151368Y42289981D01*
X70384043Y42193604D01*
X70628927Y42134813D01*
X70880000Y42115053D01*
X71131072Y42134813D01*
X71375956Y42193604D01*
X71608631Y42289981D01*
X71823360Y42421567D01*
X71823368Y42421573D01*
X71900456Y42487412D01*
X71900456Y42487413D01*
X71329604Y43058265D01*
X71389970Y43098599D01*
X71501401Y43210030D01*
X71541735Y43270396D01*
X72112587Y42699544D01*
X72112588Y42699544D01*
X72178427Y42776632D01*
X72178433Y42776640D01*
X72219773Y42844100D01*
X72271584Y42890975D01*
X72340514Y42902398D01*
X72404677Y42874741D01*
X72443702Y42816785D01*
X72449500Y42779310D01*
X72449500Y-2875500D01*
X72429815Y-2942539D01*
X72377011Y-2988294D01*
X72325500Y-2999500D01*
X-2875500Y-2999500D01*
X-2942539Y-2979815D01*
X-2988294Y-2927011D01*
X-2999500Y-2875500D01*
X-2999500Y121289D01*
X-1850500Y121289D01*
X-1850500Y-121288D01*
X-1818839Y-361785D01*
X-1756053Y-596104D01*
X-1663227Y-820205D01*
X-1663224Y-820212D01*
X-1541936Y-1030289D01*
X-1541934Y-1030292D01*
X-1541933Y-1030293D01*
X-1394267Y-1222736D01*
X-1394261Y-1222743D01*
X-1222744Y-1394260D01*
X-1222738Y-1394265D01*
X-1030289Y-1541936D01*
X-820212Y-1663224D01*
X-596100Y-1756054D01*
X-361789Y-1818838D01*
X-181414Y-1842584D01*
X-121289Y-1850500D01*
X-121288Y-1850500D01*
X121289Y-1850500D01*
X169388Y-1844167D01*
X361789Y-1818838D01*
X596100Y-1756054D01*
X820212Y-1663224D01*
X1030289Y-1541936D01*
X1222738Y-1394265D01*
X1394265Y-1222738D01*
X1541936Y-1030289D01*
X1663224Y-820212D01*
X1756054Y-596100D01*
X1818838Y-361789D01*
X1850500Y-121288D01*
X1850500Y121288D01*
X1850500Y121289D01*
X67649500Y121289D01*
X67649500Y-121288D01*
X67681161Y-361785D01*
X67743947Y-596104D01*
X67836773Y-820205D01*
X67836776Y-820212D01*
X67958064Y-1030289D01*
X67958066Y-1030292D01*
X67958067Y-1030293D01*
X68105733Y-1222736D01*
X68105739Y-1222743D01*
X68277256Y-1394260D01*
X68277262Y-1394265D01*
X68469711Y-1541936D01*
X68679788Y-1663224D01*
X68903900Y-1756054D01*
X69138211Y-1818838D01*
X69318586Y-1842584D01*
X69378711Y-1850500D01*
X69378712Y-1850500D01*
X69621289Y-1850500D01*
X69669388Y-1844167D01*
X69861789Y-1818838D01*
X70096100Y-1756054D01*
X70320212Y-1663224D01*
X70530289Y-1541936D01*
X70722738Y-1394265D01*
X70894265Y-1222738D01*
X71041936Y-1030289D01*
X71163224Y-820212D01*
X71256054Y-596100D01*
X71318838Y-361789D01*
X71350500Y-121288D01*
X71350500Y121288D01*
X71318838Y361789D01*
X71256054Y596100D01*
X71163224Y820212D01*
X71041936Y1030289D01*
X70894265Y1222738D01*
X70894260Y1222744D01*
X70722743Y1394261D01*
X70722736Y1394267D01*
X70530293Y1541933D01*
X70530292Y1541934D01*
X70530289Y1541936D01*
X70320212Y1663224D01*
X70320205Y1663227D01*
X70096104Y1756053D01*
X69861785Y1818839D01*
X69621289Y1850500D01*
X69621288Y1850500D01*
X69378712Y1850500D01*
X69378711Y1850500D01*
X69138214Y1818839D01*
X68903895Y1756053D01*
X68679794Y1663227D01*
X68679785Y1663223D01*
X68469706Y1541933D01*
X68277263Y1394267D01*
X68277256Y1394261D01*
X68105739Y1222744D01*
X68105733Y1222737D01*
X67958067Y1030294D01*
X67836777Y820215D01*
X67836773Y820206D01*
X67743947Y596105D01*
X67681161Y361786D01*
X67649500Y121289D01*
X1850500Y121289D01*
X1818838Y361789D01*
X1756054Y596100D01*
X1663224Y820212D01*
X1541936Y1030289D01*
X1394265Y1222738D01*
X1394260Y1222744D01*
X1222743Y1394261D01*
X1222736Y1394267D01*
X1030293Y1541933D01*
X1030292Y1541934D01*
X1030289Y1541936D01*
X820212Y1663224D01*
X820205Y1663227D01*
X596104Y1756053D01*
X361785Y1818839D01*
X121289Y1850500D01*
X121288Y1850500D01*
X-121288Y1850500D01*
X-121289Y1850500D01*
X-361786Y1818839D01*
X-596105Y1756053D01*
X-820206Y1663227D01*
X-820215Y1663223D01*
X-1030294Y1541933D01*
X-1222737Y1394267D01*
X-1222744Y1394261D01*
X-1394261Y1222744D01*
X-1394267Y1222737D01*
X-1541933Y1030294D01*
X-1663223Y820215D01*
X-1663227Y820206D01*
X-1756053Y596105D01*
X-1818839Y361786D01*
X-1850500Y121289D01*
X-2999500Y121289D01*
X-2999500Y27590001D01*
X-1605659Y27590001D01*
X-1605659Y27590000D01*
X-1585064Y27354597D01*
X-1585062Y27354587D01*
X-1523906Y27126345D01*
X-1523904Y27126341D01*
X-1523903Y27126337D01*
X-1477731Y27027322D01*
X-1424035Y26912170D01*
X-1424033Y26912166D01*
X-1288499Y26718605D01*
X-1288494Y26718598D01*
X-1121403Y26551507D01*
X-1121397Y26551502D01*
X-935842Y26421575D01*
X-892217Y26366998D01*
X-885023Y26297500D01*
X-916546Y26235145D01*
X-935842Y26218425D01*
X-1121403Y26088495D01*
X-1288495Y25921403D01*
X-1424035Y25727831D01*
X-1424036Y25727829D01*
X-1523902Y25513665D01*
X-1523906Y25513656D01*
X-1585062Y25285414D01*
X-1585064Y25285404D01*
X-1605659Y25050001D01*
X-1605659Y25050000D01*
X-1585064Y24814597D01*
X-1585062Y24814587D01*
X-1523906Y24586345D01*
X-1523904Y24586341D01*
X-1523903Y24586337D01*
X-1443996Y24414977D01*
X-1424035Y24372170D01*
X-1424033Y24372166D01*
X-1404772Y24344659D01*
X-1288499Y24178604D01*
X-1288494Y24178598D01*
X-1121403Y24011507D01*
X-1121397Y24011502D01*
X-935842Y23881575D01*
X-892217Y23826998D01*
X-885023Y23757500D01*
X-916546Y23695145D01*
X-935842Y23678425D01*
X-1121403Y23548495D01*
X-1288495Y23381403D01*
X-1424035Y23187831D01*
X-1424036Y23187829D01*
X-1523902Y22973665D01*
X-1523906Y22973656D01*
X-1585062Y22745414D01*
X-1585064Y22745404D01*
X-1605659Y22510001D01*
X-1605659Y22510000D01*
X-1585064Y22274597D01*
X-1585062Y22274587D01*
X-1523906Y22046345D01*
X-1523904Y22046341D01*
X-1523903Y22046337D01*
X-1480785Y21953871D01*
X-1424035Y21832170D01*
X-1424033Y21832166D01*
X-1323868Y21689117D01*
X-1288495Y21638599D01*
X-1121401Y21471505D01*
X-1077074Y21440467D01*
X-927835Y21335968D01*
X-927833Y21335967D01*
X-927830Y21335965D01*
X-728445Y21242990D01*
X-676007Y21196819D01*
X-656855Y21129625D01*
X-677071Y21062744D01*
X-730236Y21017410D01*
X-736055Y21014983D01*
X-764790Y21003851D01*
X-764799Y21003847D01*
X-945995Y20891655D01*
X-946005Y20891648D01*
X-953074Y20885206D01*
X-953074Y20885205D01*
X-481539Y20413671D01*
X-557007Y20370099D01*
X-650099Y20277007D01*
X-693671Y20201540D01*
X-1162317Y20670186D01*
X-1231941Y20577990D01*
X-1326934Y20387217D01*
X-1326942Y20387197D01*
X-1385262Y20182220D01*
X-1385263Y20182217D01*
X-1404927Y19970001D01*
X-1385263Y19757784D01*
X-1385262Y19757781D01*
X-1326942Y19552804D01*
X-1326934Y19552784D01*
X-1231941Y19362011D01*
X-1162317Y19269816D01*
X-693671Y19738462D01*
X-650099Y19662993D01*
X-557007Y19569901D01*
X-481540Y19526330D01*
X-953074Y19054797D01*
X-945999Y19048348D01*
X-945997Y19048347D01*
X-764799Y18936154D01*
X-764790Y18936150D01*
X-566064Y18859164D01*
X-566059Y18859163D01*
X-356561Y18820000D01*
X-143439Y18820000D01*
X66058Y18859163D01*
X66063Y18859164D01*
X264789Y18936150D01*
X264798Y18936154D01*
X445995Y19048346D01*
X453071Y19054797D01*
X-18462Y19526330D01*
X57007Y19569901D01*
X150099Y19662993D01*
X193670Y19738462D01*
X662316Y19269816D01*
X731937Y19362007D01*
X731939Y19362011D01*
X798767Y19496221D01*
X846270Y19547458D01*
X913932Y19564880D01*
X980273Y19542955D01*
X1022150Y19493355D01*
X1072659Y19385039D01*
X1108073Y19309094D01*
X1115965Y19292171D01*
X1115967Y19292166D01*
X1224281Y19137479D01*
X1251505Y19098599D01*
X1418599Y18931505D01*
X1515384Y18863735D01*
X1612165Y18795968D01*
X1612167Y18795967D01*
X1612170Y18795965D01*
X1826337Y18696097D01*
X2054592Y18634937D01*
X2242918Y18618461D01*
X2289999Y18614341D01*
X2290000Y18614341D01*
X2290001Y18614341D01*
X2329234Y18617774D01*
X2525408Y18634937D01*
X2753663Y18696097D01*
X2967830Y18795965D01*
X3161401Y18931505D01*
X3328495Y19098599D01*
X3464035Y19292170D01*
X3563903Y19506337D01*
X3625063Y19734592D01*
X3645659Y19970000D01*
X3625063Y20205408D01*
X3563903Y20433663D01*
X3464035Y20647829D01*
X3448382Y20670185D01*
X3328494Y20841403D01*
X3161402Y21008494D01*
X3161401Y21008495D01*
X2981179Y21134688D01*
X2937555Y21189265D01*
X2930362Y21258764D01*
X2961884Y21321118D01*
X2998616Y21348038D01*
X3153815Y21422582D01*
X4025923Y21841468D01*
X4090062Y21872275D01*
X4143749Y21884500D01*
X4390531Y21884500D01*
X4457570Y21864815D01*
X4470066Y21855633D01*
X4578146Y21765267D01*
X4679346Y21680655D01*
X4717514Y21624529D01*
X4728377Y21591747D01*
X4732330Y21576723D01*
X4732965Y21573498D01*
X4738738Y21559490D01*
X4741796Y21551252D01*
X4758054Y21502188D01*
X4765188Y21480661D01*
X4778104Y21459720D01*
X4787203Y21441889D01*
X4787783Y21440482D01*
X4787787Y21440473D01*
X4787790Y21440467D01*
X5132254Y20857531D01*
X5132255Y20857530D01*
X5149500Y20794447D01*
X5149500Y18963391D01*
X5155654Y18932454D01*
X5155654Y18932452D01*
X5173535Y18842554D01*
X5173540Y18842538D01*
X5186352Y18811609D01*
X5186353Y18811607D01*
X5220688Y18728714D01*
X5242482Y18696097D01*
X5251599Y18682454D01*
X5251600Y18682452D01*
X5289141Y18626268D01*
X5289144Y18626264D01*
X5380586Y18534822D01*
X5380608Y18534802D01*
X6311016Y17604394D01*
X6311045Y17604363D01*
X6401266Y17514142D01*
X6476097Y17464142D01*
X6503715Y17445688D01*
X6552454Y17425500D01*
X6617548Y17398537D01*
X6677971Y17386519D01*
X6738393Y17374500D01*
X6738394Y17374500D01*
X14739548Y17374500D01*
X14806587Y17354815D01*
X14827229Y17338181D01*
X16911016Y15254394D01*
X16911045Y15254363D01*
X17001264Y15164144D01*
X17001267Y15164142D01*
X17078190Y15112744D01*
X17103710Y15095691D01*
X17103712Y15095690D01*
X17103715Y15095688D01*
X17170396Y15068069D01*
X17170398Y15068067D01*
X17210640Y15051399D01*
X17217548Y15048537D01*
X17277971Y15036519D01*
X17338393Y15024500D01*
X50861607Y15024500D01*
X50922029Y15036519D01*
X50982452Y15048537D01*
X50982455Y15048539D01*
X50982458Y15048539D01*
X51015787Y15062346D01*
X51015786Y15062346D01*
X51015792Y15062348D01*
X51096286Y15095688D01*
X51147509Y15129916D01*
X51198733Y15164142D01*
X51285858Y15251267D01*
X51285859Y15251269D01*
X51292925Y15258335D01*
X51292928Y15258339D01*
X52948729Y16914140D01*
X52948733Y16914142D01*
X53035858Y17001267D01*
X53104311Y17103714D01*
X53104312Y17103715D01*
X53143588Y17198537D01*
X53151463Y17217548D01*
X53175500Y17338394D01*
X53175500Y32439549D01*
X53195185Y32506588D01*
X53211814Y32527225D01*
X56104454Y35419866D01*
X56132505Y35440904D01*
X56409331Y35592711D01*
X56485035Y35634226D01*
X56544658Y35649501D01*
X56822872Y35649501D01*
X56836527Y35650970D01*
X56839499Y35651224D01*
X56839956Y35651286D01*
X56843494Y35651719D01*
X56882483Y35655909D01*
X56890720Y35658982D01*
X56898963Y35661732D01*
X56902195Y35662687D01*
X56902202Y35662688D01*
X56918284Y35669211D01*
X56921442Y35670441D01*
X57017331Y35706204D01*
X57017332Y35706206D01*
X57017335Y35706206D01*
X57023464Y35709554D01*
X57033992Y35716003D01*
X57035516Y35716753D01*
X57035535Y35716760D01*
X57118281Y35765029D01*
X57191278Y35807609D01*
X57253757Y35824500D01*
X60711607Y35824500D01*
X60711608Y35824501D01*
X60832452Y35848537D01*
X60946286Y35895689D01*
X61048733Y35964142D01*
X61135858Y36051267D01*
X61204311Y36153714D01*
X61251463Y36267548D01*
X61275500Y36388394D01*
X61275500Y37726000D01*
X61295185Y37793039D01*
X61347989Y37838794D01*
X61399500Y37850000D01*
X62900000Y37850000D01*
X62900000Y43720000D01*
X64195052Y43720000D01*
X64214812Y43468928D01*
X64273603Y43224044D01*
X64369980Y42991369D01*
X64501564Y42776644D01*
X64501570Y42776635D01*
X64567410Y42699545D01*
X65138263Y43270397D01*
X65178599Y43210030D01*
X65290030Y43098599D01*
X65350395Y43058265D01*
X64779542Y42487413D01*
X64856634Y42421571D01*
X64856643Y42421565D01*
X65071368Y42289981D01*
X65304043Y42193604D01*
X65548927Y42134813D01*
X65800000Y42115053D01*
X66051072Y42134813D01*
X66295956Y42193604D01*
X66528631Y42289981D01*
X66743360Y42421567D01*
X66743368Y42421573D01*
X66820456Y42487412D01*
X66820456Y42487413D01*
X66249604Y43058265D01*
X66309970Y43098599D01*
X66421401Y43210030D01*
X66461735Y43270396D01*
X67032587Y42699544D01*
X67032588Y42699544D01*
X67098427Y42776632D01*
X67098433Y42776640D01*
X67230019Y42991369D01*
X67326396Y43224044D01*
X67385187Y43468928D01*
X67404947Y43720000D01*
X67385187Y43971073D01*
X67326396Y44215957D01*
X67230019Y44448632D01*
X67098435Y44663357D01*
X67098429Y44663366D01*
X67032587Y44740458D01*
X66461735Y44169606D01*
X66421401Y44229970D01*
X66309970Y44341401D01*
X66249604Y44381737D01*
X66820456Y44952589D01*
X66743365Y45018430D01*
X66743356Y45018436D01*
X66528631Y45150020D01*
X66295956Y45246397D01*
X66051072Y45305188D01*
X65800000Y45324948D01*
X65548927Y45305188D01*
X65304043Y45246397D01*
X65071368Y45150020D01*
X64856638Y45018433D01*
X64856627Y45018424D01*
X64779542Y44952590D01*
X65350395Y44381737D01*
X65290030Y44341401D01*
X65178599Y44229970D01*
X65138263Y44169605D01*
X64567410Y44740458D01*
X64501576Y44663373D01*
X64501567Y44663362D01*
X64369980Y44448632D01*
X64273603Y44215957D01*
X64214812Y43971073D01*
X64195052Y43720000D01*
X62900000Y43720000D01*
X62900000Y48800000D01*
X64195052Y48800000D01*
X64214812Y48548928D01*
X64273603Y48304044D01*
X64369980Y48071369D01*
X64501564Y47856644D01*
X64501570Y47856635D01*
X64567410Y47779545D01*
X65138263Y48350397D01*
X65178599Y48290030D01*
X65290030Y48178599D01*
X65350395Y48138265D01*
X64779542Y47567413D01*
X64856634Y47501571D01*
X64856643Y47501565D01*
X65071368Y47369981D01*
X65304043Y47273604D01*
X65548927Y47214813D01*
X65800000Y47195053D01*
X66051072Y47214813D01*
X66295956Y47273604D01*
X66528631Y47369981D01*
X66743360Y47501567D01*
X66743368Y47501573D01*
X66820456Y47567412D01*
X66820456Y47567413D01*
X66249604Y48138265D01*
X66309970Y48178599D01*
X66421401Y48290030D01*
X66461735Y48350396D01*
X67032587Y47779544D01*
X67032588Y47779544D01*
X67098427Y47856632D01*
X67098433Y47856640D01*
X67230019Y48071369D01*
X67326396Y48304044D01*
X67385187Y48548928D01*
X67404947Y48800000D01*
X67385187Y49051073D01*
X67326396Y49295957D01*
X67230019Y49528632D01*
X67098435Y49743357D01*
X67098429Y49743366D01*
X67032587Y49820458D01*
X66461735Y49249606D01*
X66421401Y49309970D01*
X66309970Y49421401D01*
X66249604Y49461737D01*
X66820456Y50032589D01*
X66743365Y50098430D01*
X66743356Y50098436D01*
X66528631Y50230020D01*
X66295956Y50326397D01*
X66051072Y50385188D01*
X65800000Y50404948D01*
X65548927Y50385188D01*
X65304043Y50326397D01*
X65071368Y50230020D01*
X64856638Y50098433D01*
X64856627Y50098424D01*
X64779542Y50032590D01*
X65350395Y49461737D01*
X65290030Y49421401D01*
X65178599Y49309970D01*
X65138263Y49249605D01*
X64567410Y49820458D01*
X64501576Y49743373D01*
X64501567Y49743362D01*
X64369980Y49528632D01*
X64273603Y49295957D01*
X64214812Y49051073D01*
X64195052Y48800000D01*
X62900000Y48800000D01*
X62900000Y54950000D01*
X61399500Y54950000D01*
X61332461Y54969685D01*
X61286706Y55022489D01*
X61275500Y55074000D01*
X61275500Y55361607D01*
X61275499Y55361611D01*
X61257982Y55449678D01*
X61251463Y55482452D01*
X61204311Y55596286D01*
X61204310Y55596287D01*
X61204307Y55596293D01*
X61135858Y55698733D01*
X61135855Y55698737D01*
X61048736Y55785856D01*
X61048732Y55785859D01*
X60946292Y55854308D01*
X60946283Y55854313D01*
X60832454Y55901462D01*
X60832455Y55901462D01*
X60832452Y55901463D01*
X60832448Y55901464D01*
X60832444Y55901465D01*
X60711610Y55925500D01*
X60711606Y55925500D01*
X57253757Y55925500D01*
X57191277Y55942391D01*
X57165297Y55957546D01*
X57035534Y56033241D01*
X57035525Y56033246D01*
X57035517Y56033250D01*
X57033226Y56034393D01*
X57023002Y56040700D01*
X57017336Y56043793D01*
X57017334Y56043794D01*
X57017331Y56043796D01*
X57011787Y56045864D01*
X56999774Y56051085D01*
X56976559Y56062669D01*
X56973752Y56063848D01*
X56973754Y56063848D01*
X56934598Y56075058D01*
X56925398Y56078085D01*
X56912835Y56082771D01*
X56882483Y56094091D01*
X56882481Y56094092D01*
X56882479Y56094092D01*
X56864876Y56095985D01*
X56859852Y56096629D01*
X56856623Y56097111D01*
X56851343Y56097440D01*
X56822874Y56100500D01*
X55677129Y56100500D01*
X55677123Y56100499D01*
X55617516Y56094092D01*
X55482671Y56043798D01*
X55482664Y56043794D01*
X55367455Y55957548D01*
X55367452Y55957545D01*
X55281206Y55842336D01*
X55281202Y55842329D01*
X55230910Y55707487D01*
X55230909Y55707483D01*
X55224500Y55647873D01*
X55224500Y55647866D01*
X55224500Y55647865D01*
X55224500Y54952130D01*
X55224501Y54952124D01*
X55230908Y54892517D01*
X55281202Y54757672D01*
X55281206Y54757665D01*
X55367452Y54642456D01*
X55367455Y54642453D01*
X55482664Y54556207D01*
X55482671Y54556203D01*
X55617517Y54505909D01*
X55617516Y54505909D01*
X55624444Y54505165D01*
X55677127Y54499500D01*
X56822872Y54499501D01*
X56836569Y54500974D01*
X56839512Y54501226D01*
X56839956Y54501286D01*
X56843494Y54501719D01*
X56882483Y54505909D01*
X56890720Y54508982D01*
X56898963Y54511732D01*
X56902195Y54512687D01*
X56902202Y54512688D01*
X56918284Y54519211D01*
X56921442Y54520441D01*
X57017331Y54556204D01*
X57017332Y54556206D01*
X57017335Y54556206D01*
X57023464Y54559554D01*
X57033992Y54566003D01*
X57035516Y54566753D01*
X57035535Y54566760D01*
X57161721Y54640368D01*
X57191278Y54657609D01*
X57253757Y54674500D01*
X58176000Y54674500D01*
X58243039Y54654815D01*
X58288794Y54602011D01*
X58300000Y54550500D01*
X58300000Y51249500D01*
X58280315Y51182461D01*
X58227511Y51136706D01*
X58176000Y51125500D01*
X57253757Y51125500D01*
X57191277Y51142391D01*
X57165297Y51157546D01*
X57035534Y51233241D01*
X57035525Y51233246D01*
X57035517Y51233250D01*
X57033226Y51234393D01*
X57023002Y51240700D01*
X57017336Y51243793D01*
X57017334Y51243794D01*
X57017331Y51243796D01*
X57011787Y51245864D01*
X56999774Y51251085D01*
X56976559Y51262669D01*
X56973752Y51263848D01*
X56973754Y51263848D01*
X56934598Y51275058D01*
X56925398Y51278085D01*
X56912835Y51282771D01*
X56882483Y51294091D01*
X56882481Y51294092D01*
X56882479Y51294092D01*
X56864876Y51295985D01*
X56859852Y51296629D01*
X56856623Y51297111D01*
X56851343Y51297440D01*
X56822874Y51300500D01*
X55677129Y51300500D01*
X55677123Y51300499D01*
X55617516Y51294092D01*
X55482671Y51243798D01*
X55482664Y51243794D01*
X55367455Y51157548D01*
X55367452Y51157545D01*
X55281206Y51042336D01*
X55281202Y51042329D01*
X55230910Y50907487D01*
X55230909Y50907483D01*
X55224500Y50847873D01*
X55224500Y50847866D01*
X55224500Y50847865D01*
X55224500Y50152130D01*
X55224501Y50152124D01*
X55231738Y50084804D01*
X55228971Y50084507D01*
X55225936Y50027947D01*
X55185067Y49971277D01*
X55120047Y49945699D01*
X55096849Y49945803D01*
X55000001Y49955341D01*
X55000000Y49955341D01*
X54803869Y49936025D01*
X54713043Y49908473D01*
X54643176Y49907850D01*
X54584063Y49945099D01*
X54554472Y50008393D01*
X54560866Y50070466D01*
X54569091Y50092517D01*
X54575500Y50152127D01*
X54575499Y50847872D01*
X54569091Y50907483D01*
X54560070Y50931667D01*
X54555085Y51001356D01*
X54560066Y51018323D01*
X54569091Y51042517D01*
X54575500Y51102127D01*
X54575499Y51797872D01*
X54569091Y51857483D01*
X54569089Y51857488D01*
X54518797Y51992329D01*
X54518793Y51992336D01*
X54432548Y52107543D01*
X54432546Y52107546D01*
X54424689Y52113428D01*
X54382818Y52169359D01*
X54374999Y52212698D01*
X54375000Y52250000D01*
X54134167Y52250000D01*
X54126188Y52250428D01*
X54126183Y52250322D01*
X54122879Y52250500D01*
X54122873Y52250500D01*
X54122866Y52250500D01*
X53524000Y52250500D01*
X53456961Y52270185D01*
X53411206Y52322989D01*
X53400000Y52374500D01*
X53400000Y53000000D01*
X53700000Y53000000D01*
X53700000Y52550000D01*
X54286763Y52550000D01*
X54345214Y52535359D01*
X54442501Y52483358D01*
X54466537Y52459747D01*
X54509384Y52452850D01*
X55000979Y52250428D01*
X55133802Y52195736D01*
X55179341Y52163374D01*
X55193252Y52147696D01*
X55223022Y52084486D01*
X55224500Y52065405D01*
X55224500Y52052135D01*
X55224501Y52052123D01*
X55230908Y51992517D01*
X55281202Y51857672D01*
X55281206Y51857665D01*
X55367452Y51742456D01*
X55367455Y51742453D01*
X55482664Y51656207D01*
X55482671Y51656203D01*
X55617517Y51605909D01*
X55617516Y51605909D01*
X55624444Y51605165D01*
X55677127Y51599500D01*
X56822872Y51599501D01*
X56882483Y51605909D01*
X57017331Y51656204D01*
X57132546Y51742454D01*
X57218796Y51857669D01*
X57269091Y51992517D01*
X57275500Y52052127D01*
X57275499Y52747872D01*
X57269091Y52807483D01*
X57269089Y52807488D01*
X57218797Y52942329D01*
X57218793Y52942336D01*
X57132547Y53057545D01*
X57132544Y53057548D01*
X57017335Y53143794D01*
X57017328Y53143798D01*
X56882482Y53194092D01*
X56882483Y53194092D01*
X56822883Y53200499D01*
X56822881Y53200500D01*
X56822873Y53200500D01*
X56822865Y53200500D01*
X56397960Y53200500D01*
X56376470Y53202376D01*
X56058029Y53258411D01*
X55995416Y53289416D01*
X55964860Y53333320D01*
X55783820Y53772990D01*
X55782905Y53775001D01*
X55781332Y53779172D01*
X55781146Y53779094D01*
X55778816Y53784719D01*
X55778814Y53784727D01*
X55778417Y53785470D01*
X55774911Y53792563D01*
X55768532Y53806579D01*
X55768527Y53806589D01*
X55760500Y53821977D01*
X55760430Y53822071D01*
X55750476Y53837743D01*
X55685910Y53958538D01*
X55672786Y53974530D01*
X55560883Y54110884D01*
X55408539Y54235910D01*
X55408532Y54235914D01*
X55234733Y54328812D01*
X55234727Y54328814D01*
X55046132Y54386024D01*
X55046129Y54386025D01*
X54850000Y54405341D01*
X54653870Y54386025D01*
X54465266Y54328812D01*
X54291467Y54235914D01*
X54291460Y54235910D01*
X54139116Y54110884D01*
X54014090Y53958540D01*
X54014086Y53958533D01*
X53921188Y53784734D01*
X53863975Y53596130D01*
X53844659Y53400000D01*
X53863975Y53203870D01*
X53877285Y53159995D01*
X53877908Y53090129D01*
X53840660Y53031016D01*
X53777366Y53001425D01*
X53758624Y53000000D01*
X53700000Y53000000D01*
X53400000Y53000000D01*
X52999500Y53000000D01*
X52932461Y53019685D01*
X52886706Y53072489D01*
X52875500Y53124000D01*
X52875500Y54162101D01*
X52885038Y54209793D01*
X52885789Y54211594D01*
X52973954Y54423194D01*
X53017909Y54477505D01*
X53084249Y54499431D01*
X53088416Y54499501D01*
X54122871Y54499501D01*
X54122872Y54499501D01*
X54182483Y54505909D01*
X54317331Y54556204D01*
X54432546Y54642454D01*
X54518796Y54757669D01*
X54569091Y54892517D01*
X54575500Y54952127D01*
X54575499Y55647872D01*
X54569091Y55707483D01*
X54560070Y55731667D01*
X54555085Y55801356D01*
X54560066Y55818323D01*
X54569091Y55842517D01*
X54575500Y55902127D01*
X54575499Y56597872D01*
X54569091Y56657483D01*
X54569089Y56657488D01*
X54518797Y56792329D01*
X54518793Y56792336D01*
X54441799Y56895185D01*
X54432546Y56907546D01*
X54424689Y56913428D01*
X54382818Y56969359D01*
X54374999Y57012698D01*
X54375000Y57050000D01*
X54134167Y57050000D01*
X54126188Y57050428D01*
X54126183Y57050322D01*
X54122879Y57050500D01*
X54122873Y57050500D01*
X54122866Y57050500D01*
X52977129Y57050500D01*
X52973805Y57050321D01*
X52973799Y57050427D01*
X52965837Y57050000D01*
X52725001Y57050000D01*
X52725000Y57012692D01*
X52705314Y56945653D01*
X52675316Y56913432D01*
X52667453Y56907546D01*
X52667452Y56907545D01*
X52581206Y56792336D01*
X52581202Y56792329D01*
X52530908Y56657483D01*
X52524501Y56597884D01*
X52524501Y56597877D01*
X52524500Y56597865D01*
X52524500Y56583478D01*
X52504815Y56516439D01*
X52452011Y56470684D01*
X52447713Y56468818D01*
X51876987Y56233813D01*
X51876015Y56233360D01*
X51870803Y56231361D01*
X51870894Y56231142D01*
X51865264Y56228811D01*
X51691467Y56135914D01*
X51691460Y56135910D01*
X51539116Y56010884D01*
X51414090Y55858540D01*
X51414086Y55858533D01*
X51321188Y55684734D01*
X51263975Y55496130D01*
X51244659Y55300000D01*
X51263975Y55103871D01*
X51263976Y55103868D01*
X51316681Y54930123D01*
X51321188Y54915268D01*
X51323517Y54909646D01*
X51323132Y54909487D01*
X51324022Y54907429D01*
X51324243Y54907520D01*
X51325943Y54903439D01*
X51325945Y54903433D01*
X51415767Y54687860D01*
X51422504Y54671692D01*
X51430118Y54602238D01*
X51398973Y54539694D01*
X51338959Y54503916D01*
X51308042Y54500000D01*
X49824000Y54500000D01*
X49756961Y54519685D01*
X49711206Y54572489D01*
X49700000Y54624000D01*
X49700000Y57544795D01*
X52725000Y57544795D01*
X52725000Y57350000D01*
X53400000Y57350000D01*
X53400000Y57800000D01*
X53700000Y57800000D01*
X53700000Y57350000D01*
X54374999Y57350000D01*
X54374999Y57544786D01*
X54374998Y57544801D01*
X54372184Y57569060D01*
X54384012Y57637921D01*
X54431192Y57689455D01*
X54498744Y57707302D01*
X54542570Y57698009D01*
X55071852Y57480069D01*
X55112319Y57453090D01*
X55162912Y57402496D01*
X55195974Y57343047D01*
X55221244Y57234966D01*
X55224500Y57206735D01*
X55224500Y56852131D01*
X55224501Y56852124D01*
X55230908Y56792517D01*
X55281202Y56657672D01*
X55281206Y56657665D01*
X55367452Y56542456D01*
X55367455Y56542453D01*
X55482664Y56456207D01*
X55482671Y56456203D01*
X55617517Y56405909D01*
X55617516Y56405909D01*
X55624444Y56405165D01*
X55677127Y56399500D01*
X56822872Y56399501D01*
X56882483Y56405909D01*
X57017331Y56456204D01*
X57132546Y56542454D01*
X57218796Y56657669D01*
X57269091Y56792517D01*
X57275500Y56852127D01*
X57275499Y57547872D01*
X57269091Y57607483D01*
X57257738Y57637921D01*
X57218797Y57742329D01*
X57218793Y57742336D01*
X57132547Y57857545D01*
X57132544Y57857548D01*
X57017335Y57943794D01*
X57017328Y57943798D01*
X56882482Y57994092D01*
X56882483Y57994092D01*
X56822883Y58000499D01*
X56822881Y58000500D01*
X56822873Y58000500D01*
X56822865Y58000500D01*
X56544659Y58000500D01*
X56485036Y58015775D01*
X56132507Y58209097D01*
X56104449Y58230141D01*
X55996910Y58337680D01*
X55969931Y58378148D01*
X55838997Y58696130D01*
X55683820Y59072990D01*
X55682905Y59075001D01*
X55681332Y59079172D01*
X55681146Y59079094D01*
X55678816Y59084719D01*
X55678814Y59084727D01*
X55678417Y59085470D01*
X55674911Y59092563D01*
X55668532Y59106579D01*
X55668527Y59106589D01*
X55660500Y59121977D01*
X55660430Y59122071D01*
X55650476Y59137743D01*
X55585910Y59258538D01*
X55577947Y59268241D01*
X55460883Y59410884D01*
X55308539Y59535910D01*
X55308532Y59535914D01*
X55134733Y59628812D01*
X55134727Y59628814D01*
X54946132Y59686024D01*
X54946129Y59686025D01*
X54750000Y59705341D01*
X54553870Y59686025D01*
X54365266Y59628812D01*
X54191467Y59535914D01*
X54191460Y59535910D01*
X54039116Y59410884D01*
X53914090Y59258540D01*
X53914086Y59258533D01*
X53821188Y59084734D01*
X53763975Y58896130D01*
X53744659Y58700000D01*
X53763975Y58503871D01*
X53821188Y58315267D01*
X53914086Y58141468D01*
X53914090Y58141461D01*
X54027998Y58002665D01*
X54055311Y57938355D01*
X54043520Y57869488D01*
X53996368Y57817927D01*
X53932145Y57800000D01*
X53700000Y57800000D01*
X53400000Y57800000D01*
X52980214Y57800000D01*
X52980191Y57799998D01*
X52955130Y57797092D01*
X52955126Y57797091D01*
X52852525Y57751789D01*
X52852520Y57751786D01*
X52773214Y57672480D01*
X52773211Y57672475D01*
X52727910Y57569878D01*
X52727910Y57569876D01*
X52725000Y57544795D01*
X49700000Y57544795D01*
X49700000Y58900000D01*
X44600000Y58900000D01*
X44600000Y56350000D01*
X45926000Y56350000D01*
X45993039Y56330315D01*
X46038794Y56277511D01*
X46050000Y56226000D01*
X46050000Y54500000D01*
X46050000Y53000000D01*
X48474478Y53000000D01*
X48541517Y52980315D01*
X48587272Y52927511D01*
X48598469Y52874488D01*
X48572385Y50735598D01*
X48551830Y49050000D01*
X48551494Y49022488D01*
X48530993Y48955693D01*
X48477635Y48910586D01*
X48427503Y48900000D01*
X44300000Y48900000D01*
X44300000Y46150000D01*
X45826000Y46150000D01*
X45893039Y46130315D01*
X45938794Y46077511D01*
X45950000Y46026000D01*
X45950000Y43400000D01*
X49550500Y43400000D01*
X49617539Y43380315D01*
X49663294Y43327511D01*
X49674500Y43276000D01*
X49674500Y38974000D01*
X49654815Y38906961D01*
X49602011Y38861206D01*
X49550500Y38850000D01*
X44300000Y38850000D01*
X44300000Y36100000D01*
X46026000Y36100000D01*
X46093039Y36080315D01*
X46138794Y36027511D01*
X46150000Y35976000D01*
X46150000Y33600000D01*
X49550500Y33600000D01*
X49617539Y33580315D01*
X49663294Y33527511D01*
X49674500Y33476000D01*
X49674500Y28574000D01*
X49654815Y28506961D01*
X49602011Y28461206D01*
X49550500Y28450000D01*
X44300000Y28450000D01*
X44300000Y25950000D01*
X45926000Y25950000D01*
X45993039Y25930315D01*
X46038794Y25877511D01*
X46050000Y25826000D01*
X46050000Y23300000D01*
X49550500Y23300000D01*
X49617539Y23280315D01*
X49663294Y23227511D01*
X49674500Y23176000D01*
X49674500Y19760453D01*
X49654815Y19693414D01*
X49638181Y19672772D01*
X49377229Y19411819D01*
X49315906Y19378334D01*
X49289548Y19375500D01*
X20287902Y19375500D01*
X20240209Y19385039D01*
X19916677Y19519845D01*
X19862366Y19563800D01*
X19853995Y19577797D01*
X19777026Y19728135D01*
X19765784Y19760449D01*
X19751463Y19832452D01*
X19704311Y19946286D01*
X19688466Y19970000D01*
X19644482Y20035826D01*
X19635859Y20048732D01*
X19635858Y20048733D01*
X19548733Y20135858D01*
X19548732Y20135859D01*
X19261819Y20422772D01*
X19228334Y20484095D01*
X19225500Y20510453D01*
X19225500Y23400000D01*
X30750000Y23400000D01*
X37400000Y23400000D01*
X37400000Y28850000D01*
X30750000Y28850000D01*
X30750000Y23400000D01*
X19225500Y23400000D01*
X19225500Y23526000D01*
X19245185Y23593039D01*
X19297989Y23638794D01*
X19349500Y23650000D01*
X21750000Y23650000D01*
X21750000Y25676000D01*
X21769685Y25743039D01*
X21822489Y25788794D01*
X21874000Y25800000D01*
X23850000Y25800000D01*
X23850000Y28350000D01*
X19349500Y28350000D01*
X19282461Y28369685D01*
X19236706Y28422489D01*
X19225500Y28474000D01*
X19225500Y33450000D01*
X30700000Y33450000D01*
X37350000Y33450000D01*
X37350000Y39000000D01*
X30700000Y39000000D01*
X30700000Y33450000D01*
X19225500Y33450000D01*
X19225500Y34076000D01*
X19245185Y34143039D01*
X19297989Y34188794D01*
X19349500Y34200000D01*
X21700000Y34200000D01*
X21700000Y35976000D01*
X21719685Y36043039D01*
X21772489Y36088794D01*
X21824000Y36100000D01*
X23850000Y36100000D01*
X23850000Y38650000D01*
X19349500Y38650000D01*
X19282461Y38669685D01*
X19236706Y38722489D01*
X19225500Y38774000D01*
X19225500Y43500000D01*
X30750000Y43500000D01*
X37400000Y43500000D01*
X37400000Y49050000D01*
X30750000Y49050000D01*
X30750000Y43500000D01*
X19225500Y43500000D01*
X19225500Y43626000D01*
X19245185Y43693039D01*
X19297989Y43738794D01*
X19349500Y43750000D01*
X22250000Y43750000D01*
X22250000Y46026000D01*
X22269685Y46093039D01*
X22322489Y46138794D01*
X22374000Y46150000D01*
X23900000Y46150000D01*
X23900000Y48750000D01*
X19349500Y48750000D01*
X19282461Y48769685D01*
X19236706Y48822489D01*
X19225500Y48874000D01*
X19225500Y53900000D01*
X30750000Y53900000D01*
X37400000Y53900000D01*
X37400000Y59500000D01*
X30750000Y59500000D01*
X30750000Y53900000D01*
X19225500Y53900000D01*
X19225500Y54076000D01*
X19245185Y54143039D01*
X19297989Y54188794D01*
X19349500Y54200000D01*
X21800000Y54200000D01*
X21800000Y56176000D01*
X21819685Y56243039D01*
X21872489Y56288794D01*
X21924000Y56300000D01*
X23750000Y56300000D01*
X23750000Y59000000D01*
X18950000Y59000000D01*
X18950000Y56967642D01*
X18930315Y56900603D01*
X18877511Y56854848D01*
X18808353Y56844904D01*
X18788481Y56850352D01*
X18788282Y56849694D01*
X18782455Y56851462D01*
X18782452Y56851463D01*
X18782447Y56851464D01*
X18782444Y56851465D01*
X18661610Y56875500D01*
X18661606Y56875500D01*
X17399500Y56875500D01*
X17332461Y56895185D01*
X17286706Y56947989D01*
X17275500Y56999500D01*
X17275500Y57811602D01*
X17275500Y57811606D01*
X17274923Y57814505D01*
X17274921Y57814516D01*
X17274921Y57814519D01*
X17251465Y57932441D01*
X17251464Y57932442D01*
X17251463Y57932451D01*
X17247373Y57942324D01*
X17246762Y57943798D01*
X17231968Y57979515D01*
X17204311Y58046286D01*
X17204309Y58046288D01*
X17204309Y58046290D01*
X17135858Y58148733D01*
X17135855Y58148737D01*
X17045637Y58238955D01*
X17045606Y58238984D01*
X16561849Y58722741D01*
X16558553Y58726166D01*
X16544136Y58741743D01*
X16542338Y58743201D01*
X16532750Y58751840D01*
X16390198Y58894392D01*
X16390178Y58894414D01*
X16298735Y58985857D01*
X16277568Y59000000D01*
X16236127Y59027690D01*
X16236128Y59027690D01*
X16236126Y59027692D01*
X16196290Y59054310D01*
X16196286Y59054312D01*
X16186083Y59058538D01*
X16135883Y59079332D01*
X16105248Y59097569D01*
X15998465Y59184143D01*
X15930050Y59239610D01*
X15908425Y59256195D01*
X15903983Y59259038D01*
X15904243Y59259445D01*
X15890993Y59268241D01*
X15808539Y59335910D01*
X15808532Y59335914D01*
X15634733Y59428812D01*
X15634727Y59428814D01*
X15446132Y59486024D01*
X15446129Y59486025D01*
X15250000Y59505341D01*
X15053870Y59486025D01*
X14865266Y59428812D01*
X14691467Y59335914D01*
X14691460Y59335910D01*
X14539116Y59210884D01*
X14414090Y59058540D01*
X14414086Y59058533D01*
X14321188Y58884734D01*
X14263975Y58696130D01*
X14244659Y58500000D01*
X14263975Y58303871D01*
X14321188Y58115267D01*
X14414086Y57941468D01*
X14417473Y57936399D01*
X14416170Y57935529D01*
X14440489Y57878259D01*
X14428694Y57809392D01*
X14416589Y57789601D01*
X14381206Y57742336D01*
X14381202Y57742329D01*
X14330910Y57607487D01*
X14330909Y57607483D01*
X14324500Y57547873D01*
X14324500Y57547866D01*
X14324500Y57547865D01*
X14324500Y56852130D01*
X14324501Y56852124D01*
X14330909Y56792516D01*
X14339929Y56768330D01*
X14344911Y56698639D01*
X14339929Y56681670D01*
X14330910Y56657488D01*
X14330909Y56657485D01*
X14330909Y56657483D01*
X14324500Y56597873D01*
X14324500Y56597866D01*
X14324500Y56597865D01*
X14324500Y55902130D01*
X14324501Y55902124D01*
X14330908Y55842517D01*
X14381202Y55707672D01*
X14381206Y55707665D01*
X14467451Y55592457D01*
X14467452Y55592456D01*
X14467454Y55592454D01*
X14475312Y55586572D01*
X14517182Y55530639D01*
X14525000Y55487306D01*
X14525000Y55450000D01*
X14765833Y55450000D01*
X14773811Y55449573D01*
X14773817Y55449678D01*
X14777102Y55449503D01*
X14777127Y55449500D01*
X15922872Y55449501D01*
X15922880Y55449502D01*
X15926180Y55449679D01*
X15926185Y55449573D01*
X15934156Y55450000D01*
X16174999Y55450000D01*
X16174999Y55468559D01*
X16194684Y55535598D01*
X16236518Y55575668D01*
X16291279Y55607610D01*
X16353757Y55624500D01*
X16588394Y55624500D01*
X17850500Y55624500D01*
X17917539Y55604815D01*
X17963294Y55552011D01*
X17974500Y55500500D01*
X17974500Y52199500D01*
X17954815Y52132461D01*
X17902011Y52086706D01*
X17850500Y52075500D01*
X16949500Y52075500D01*
X16882461Y52095185D01*
X16836706Y52147989D01*
X16825500Y52199500D01*
X16825500Y52696931D01*
X16828682Y52724842D01*
X16829613Y52728873D01*
X16830190Y52735709D01*
X16830190Y52735715D01*
X16830191Y52735721D01*
X16830194Y52735751D01*
X16863781Y53134024D01*
X16874807Y53264765D01*
X16874807Y53264780D01*
X16899502Y53557615D01*
X16902641Y53594828D01*
X16902641Y53594834D01*
X16902644Y53594865D01*
X16903972Y53615774D01*
X16904013Y53616734D01*
X16903794Y53623737D01*
X16904330Y53639742D01*
X16905341Y53650000D01*
X16902281Y53681055D01*
X16901746Y53689348D01*
X16901685Y53691317D01*
X16901683Y53691325D01*
X16900749Y53697982D01*
X16901009Y53698019D01*
X16900096Y53703251D01*
X16886024Y53846132D01*
X16828814Y54034727D01*
X16828811Y54034731D01*
X16828811Y54034734D01*
X16735913Y54208533D01*
X16735909Y54208540D01*
X16610883Y54360884D01*
X16458539Y54485910D01*
X16458532Y54485914D01*
X16284728Y54578814D01*
X16170696Y54613406D01*
X16112258Y54651704D01*
X16083801Y54715516D01*
X16094362Y54784583D01*
X16119014Y54819750D01*
X16126786Y54827523D01*
X16126788Y54827526D01*
X16172089Y54930123D01*
X16172089Y54930125D01*
X16174999Y54955206D01*
X16175000Y54955209D01*
X16175000Y55150000D01*
X15500000Y55150000D01*
X15500000Y54648639D01*
X15497840Y54648639D01*
X15494570Y54602917D01*
X15452698Y54546984D01*
X15436842Y54536893D01*
X15341464Y54485912D01*
X15341460Y54485910D01*
X15189119Y54360886D01*
X15103934Y54257089D01*
X15046187Y54217755D01*
X14976343Y54215886D01*
X14916575Y54252073D01*
X14889421Y54299758D01*
X14878814Y54334727D01*
X14878812Y54334731D01*
X14783039Y54513911D01*
X14784491Y54514688D01*
X14765987Y54573792D01*
X14784474Y54641171D01*
X14836454Y54687860D01*
X14889967Y54700001D01*
X15199999Y54700001D01*
X15200000Y54700002D01*
X15200000Y55150000D01*
X14525001Y55150000D01*
X14525001Y54993060D01*
X14505316Y54926021D01*
X14452512Y54880266D01*
X14383354Y54870322D01*
X14334235Y54888569D01*
X14328056Y54892517D01*
X13997280Y55103871D01*
X13766973Y55251029D01*
X13732088Y55284506D01*
X13697848Y55333518D01*
X13675591Y55399748D01*
X13675499Y55404532D01*
X13675499Y55647871D01*
X13675498Y55647877D01*
X13669091Y55707484D01*
X13618797Y55842329D01*
X13618793Y55842336D01*
X13532547Y55957545D01*
X13532544Y55957548D01*
X13417335Y56043794D01*
X13417328Y56043798D01*
X13282482Y56094092D01*
X13282483Y56094092D01*
X13222883Y56100499D01*
X13222881Y56100500D01*
X13222873Y56100500D01*
X13222864Y56100500D01*
X12077129Y56100500D01*
X12077123Y56100499D01*
X12017516Y56094092D01*
X11882671Y56043798D01*
X11882668Y56043796D01*
X11788311Y55973160D01*
X11722846Y55948743D01*
X11654573Y55963595D01*
X11605168Y56013000D01*
X11590000Y56072427D01*
X11590000Y56410976D01*
X11609685Y56478015D01*
X11662489Y56523770D01*
X11731647Y56533714D01*
X11776478Y56518086D01*
X11864463Y56466761D01*
X11864478Y56466754D01*
X11864479Y56466753D01*
X11866770Y56465610D01*
X11877001Y56459299D01*
X11882663Y56456207D01*
X11882666Y56456206D01*
X11882669Y56456204D01*
X11888204Y56454140D01*
X11900215Y56448921D01*
X11923416Y56437343D01*
X11926223Y56436164D01*
X11961275Y56426130D01*
X11965329Y56424969D01*
X11974536Y56421940D01*
X12017517Y56405909D01*
X12026076Y56404989D01*
X12035114Y56404017D01*
X12040150Y56403371D01*
X12041455Y56403177D01*
X12041457Y56403176D01*
X12041458Y56403176D01*
X12043437Y56402881D01*
X12048759Y56402551D01*
X12077127Y56399500D01*
X13222872Y56399501D01*
X13282483Y56405909D01*
X13417331Y56456204D01*
X13532546Y56542454D01*
X13618796Y56657669D01*
X13669091Y56792517D01*
X13675500Y56852127D01*
X13675499Y57547872D01*
X13669091Y57607483D01*
X13657738Y57637921D01*
X13618797Y57742329D01*
X13618793Y57742336D01*
X13532547Y57857545D01*
X13532544Y57857548D01*
X13417335Y57943794D01*
X13417328Y57943798D01*
X13282482Y57994092D01*
X13282483Y57994092D01*
X13222883Y58000499D01*
X13222881Y58000500D01*
X13222873Y58000500D01*
X13222864Y58000500D01*
X12077126Y58000500D01*
X12063477Y57999033D01*
X12060484Y57998775D01*
X12059941Y57998701D01*
X12056535Y57998287D01*
X12017516Y57994091D01*
X12017511Y57994090D01*
X12009271Y57991017D01*
X12001072Y57988281D01*
X11997798Y57987315D01*
X11981684Y57980781D01*
X11978431Y57979515D01*
X11882665Y57943795D01*
X11876584Y57940475D01*
X11866055Y57934024D01*
X11864469Y57933245D01*
X11708723Y57842392D01*
X11646243Y57825500D01*
X8988389Y57825500D01*
X8867555Y57801465D01*
X8867545Y57801462D01*
X8753716Y57754313D01*
X8753707Y57754308D01*
X8651267Y57685859D01*
X8651263Y57685856D01*
X8564144Y57598737D01*
X8564141Y57598733D01*
X8495692Y57496293D01*
X8495687Y57496284D01*
X8448538Y57382455D01*
X8448535Y57382445D01*
X8424500Y57261611D01*
X8424500Y56074000D01*
X8404815Y56006961D01*
X8352011Y55961206D01*
X8300500Y55950000D01*
X6749999Y55950000D01*
X6699999Y39200000D01*
X8300500Y39200000D01*
X8367539Y39180315D01*
X8413294Y39127511D01*
X8424500Y39076000D01*
X8424500Y35088389D01*
X8448535Y34967556D01*
X8448540Y34967539D01*
X8495685Y34853719D01*
X8495688Y34853714D01*
X8521359Y34815296D01*
X8521360Y34815293D01*
X8521361Y34815293D01*
X8564140Y34751269D01*
X8564141Y34751268D01*
X8564142Y34751267D01*
X8651267Y34664142D01*
X8651268Y34664142D01*
X8658335Y34657075D01*
X8658334Y34657075D01*
X8658338Y34657072D01*
X13803088Y29512321D01*
X13830067Y29471853D01*
X14044957Y28949978D01*
X14044959Y28949973D01*
X14116179Y28777011D01*
X14117108Y28774970D01*
X14118680Y28770819D01*
X14118858Y28770892D01*
X14123514Y28759652D01*
X14123142Y28759499D01*
X14124034Y28757430D01*
X14124244Y28757517D01*
X14125943Y28753438D01*
X14125945Y28753433D01*
X14414028Y28062033D01*
X14414962Y28059791D01*
X14424500Y28012099D01*
X14424500Y23520043D01*
X14404815Y23453004D01*
X14352011Y23407249D01*
X14288346Y23396640D01*
X14200000Y23405341D01*
X14003870Y23386025D01*
X13815266Y23328812D01*
X13641467Y23235914D01*
X13641460Y23235910D01*
X13489116Y23110884D01*
X13364090Y22958540D01*
X13364086Y22958533D01*
X13271188Y22784734D01*
X13213975Y22596130D01*
X13194659Y22400000D01*
X13213975Y22203871D01*
X13271188Y22015267D01*
X13364086Y21841468D01*
X13364090Y21841461D01*
X13489116Y21689117D01*
X13641460Y21564091D01*
X13641467Y21564087D01*
X13815266Y21471189D01*
X13815269Y21471189D01*
X13815273Y21471186D01*
X14003868Y21413976D01*
X14200000Y21394659D01*
X14288348Y21403361D01*
X14356991Y21390343D01*
X14407702Y21342278D01*
X14424500Y21279958D01*
X14424500Y18749500D01*
X14404815Y18682461D01*
X14352011Y18636706D01*
X14300500Y18625500D01*
X7110452Y18625500D01*
X7043413Y18645185D01*
X7022771Y18661819D01*
X6436819Y19247771D01*
X6403334Y19309094D01*
X6400500Y19335452D01*
X6400500Y20794448D01*
X6417745Y20857531D01*
X6434098Y20885205D01*
X6762209Y21440468D01*
X6765971Y21448531D01*
X6772797Y21461184D01*
X6784814Y21480666D01*
X6791950Y21502205D01*
X6797282Y21515620D01*
X6803639Y21529238D01*
X6805143Y21533495D01*
X6807744Y21541048D01*
X6809073Y21548317D01*
X6840501Y21610717D01*
X6900677Y21646223D01*
X6931049Y21650000D01*
X7783537Y21650000D01*
X7850576Y21630315D01*
X7896331Y21577511D01*
X7898892Y21571490D01*
X7916079Y21527905D01*
X8007435Y21407436D01*
X8127904Y21316080D01*
X8268556Y21260614D01*
X8356946Y21250000D01*
X8575000Y21250000D01*
X8575000Y23650000D01*
X8875000Y23650000D01*
X8875000Y21250000D01*
X9093054Y21250000D01*
X9181443Y21260614D01*
X9322095Y21316080D01*
X9442564Y21407436D01*
X9533921Y21527906D01*
X9568945Y21616722D01*
X9611851Y21671866D01*
X9677758Y21695060D01*
X9745743Y21678940D01*
X9793658Y21629686D01*
X9814086Y21591468D01*
X9814090Y21591461D01*
X9939116Y21439117D01*
X10091460Y21314091D01*
X10091467Y21314087D01*
X10265266Y21221189D01*
X10265269Y21221189D01*
X10265273Y21221186D01*
X10453868Y21163976D01*
X10650000Y21144659D01*
X10846132Y21163976D01*
X11034727Y21221186D01*
X11062624Y21236097D01*
X11141447Y21278229D01*
X11208538Y21314090D01*
X11360883Y21439117D01*
X11485910Y21591462D01*
X11578814Y21765273D01*
X11636024Y21953868D01*
X11655341Y22150000D01*
X11636024Y22346132D01*
X11578814Y22534727D01*
X11578812Y22534731D01*
X11576481Y22540360D01*
X11576852Y22540514D01*
X11575969Y22542566D01*
X11575758Y22542477D01*
X11574053Y22546568D01*
X11486044Y22757793D01*
X11343377Y23100195D01*
X11335763Y23169649D01*
X11366908Y23232193D01*
X11370139Y23235549D01*
X11385857Y23251266D01*
X11412794Y23291579D01*
X11454311Y23353714D01*
X11501463Y23467548D01*
X11507101Y23495896D01*
X11512791Y23524497D01*
X11512791Y23524500D01*
X11525500Y23588393D01*
X11525500Y23711606D01*
X11525500Y25211606D01*
X11501463Y25332452D01*
X11484872Y25372506D01*
X11454312Y25446286D01*
X11409291Y25513663D01*
X11403698Y25522033D01*
X11385859Y25548732D01*
X11385855Y25548737D01*
X11295637Y25638955D01*
X11295606Y25638984D01*
X10853455Y26081135D01*
X10819970Y26142458D01*
X10817136Y26168816D01*
X10817136Y28020465D01*
X10826674Y28068157D01*
X11115690Y28761798D01*
X11116465Y28763869D01*
X11118300Y28767920D01*
X11118114Y28767997D01*
X11120448Y28773634D01*
X11120450Y28773637D01*
X11120698Y28774456D01*
X11123230Y28781940D01*
X11128633Y28796367D01*
X11128634Y28796370D01*
X11133827Y28812887D01*
X11133843Y28813002D01*
X11137886Y28831121D01*
X11177660Y28962232D01*
X11196977Y29158364D01*
X11177660Y29354496D01*
X11120450Y29543091D01*
X11120447Y29543095D01*
X11120447Y29543098D01*
X11027549Y29716897D01*
X11027545Y29716904D01*
X10902519Y29869248D01*
X10750175Y29994274D01*
X10750168Y29994278D01*
X10576369Y30087176D01*
X10576363Y30087178D01*
X10435195Y30130001D01*
X10387765Y30144389D01*
X10191636Y30163705D01*
X9995505Y30144389D01*
X9809995Y30088114D01*
X9740129Y30087491D01*
X9681016Y30124739D01*
X9651425Y30188033D01*
X9650000Y30206775D01*
X9650000Y30450000D01*
X8925000Y30450000D01*
X8925000Y29400000D01*
X9073281Y29400000D01*
X9140320Y29380315D01*
X9186075Y29327511D01*
X9196684Y29263846D01*
X9186295Y29158364D01*
X9205612Y28962230D01*
X9236625Y28859996D01*
X9237249Y28790129D01*
X9200001Y28731016D01*
X9136707Y28701425D01*
X9117965Y28700000D01*
X8975000Y28700000D01*
X8975000Y26300000D01*
X9193054Y26300000D01*
X9281443Y26310614D01*
X9396646Y26356044D01*
X9466233Y26362325D01*
X9528169Y26329988D01*
X9562790Y26269299D01*
X9566136Y26240689D01*
X9566136Y25796753D01*
X9574100Y25756716D01*
X9574100Y25756715D01*
X9590155Y25676000D01*
X9590173Y25675912D01*
X9592337Y25670688D01*
X9598694Y25655340D01*
X9637321Y25562083D01*
X9637324Y25562077D01*
X9646238Y25548737D01*
X9669673Y25513666D01*
X9669674Y25513662D01*
X9669676Y25513662D01*
X9705779Y25459629D01*
X9797222Y25368186D01*
X9797244Y25368166D01*
X10238181Y24927229D01*
X10271666Y24865906D01*
X10274500Y24839548D01*
X10274500Y23960454D01*
X10254815Y23893415D01*
X10238181Y23872773D01*
X10164144Y23798737D01*
X10164143Y23798736D01*
X10151625Y23780000D01*
X10132701Y23751678D01*
X10132529Y23751420D01*
X10095688Y23696287D01*
X10074303Y23644661D01*
X10074304Y23644660D01*
X10051002Y23588401D01*
X10050999Y23588393D01*
X10048537Y23582451D01*
X10048536Y23582450D01*
X10026579Y23472056D01*
X10024500Y23461604D01*
X10024500Y23287903D01*
X10014962Y23240211D01*
X9838462Y22816610D01*
X9794507Y22762298D01*
X9728167Y22740372D01*
X9660504Y22757793D01*
X9613000Y22809029D01*
X9600000Y22864302D01*
X9600000Y23143054D01*
X9589386Y23231444D01*
X9533920Y23372096D01*
X9442564Y23492565D01*
X9322095Y23583921D01*
X9181443Y23639387D01*
X9093054Y23650000D01*
X8875000Y23650000D01*
X8575000Y23650000D01*
X8356946Y23650000D01*
X8268556Y23639387D01*
X8127904Y23583921D01*
X8007432Y23492564D01*
X7936537Y23399074D01*
X7880345Y23357551D01*
X7837734Y23350000D01*
X6896142Y23350000D01*
X6829103Y23369685D01*
X6790227Y23414188D01*
X6788605Y23413187D01*
X6764046Y23453004D01*
X6692712Y23568656D01*
X6568656Y23692712D01*
X6419334Y23784814D01*
X6252797Y23839999D01*
X6252795Y23840000D01*
X6150010Y23850500D01*
X5399998Y23850500D01*
X5399980Y23850499D01*
X5297203Y23840000D01*
X5297200Y23839999D01*
X5130668Y23784815D01*
X5130663Y23784813D01*
X4981342Y23692711D01*
X4857289Y23568658D01*
X4765185Y23419333D01*
X4753453Y23383929D01*
X4713679Y23326485D01*
X4708980Y23322871D01*
X4485659Y23159435D01*
X4419934Y23135727D01*
X4412427Y23135500D01*
X4143749Y23135500D01*
X4090062Y23147725D01*
X2998616Y23671964D01*
X2946708Y23718733D01*
X2928326Y23786142D01*
X2949306Y23852787D01*
X2981176Y23885311D01*
X3161401Y24011505D01*
X3328495Y24178599D01*
X3464035Y24372170D01*
X3563903Y24586337D01*
X3625063Y24814592D01*
X3645659Y25050000D01*
X3625063Y25285408D01*
X3581276Y25448826D01*
X3582939Y25518674D01*
X3622102Y25576536D01*
X3676855Y25602534D01*
X3722029Y25611519D01*
X3782452Y25623537D01*
X3782455Y25623539D01*
X3782458Y25623539D01*
X3815787Y25637346D01*
X3815786Y25637346D01*
X3815792Y25637348D01*
X3896286Y25670688D01*
X3947509Y25704916D01*
X3998733Y25739142D01*
X4085858Y25826267D01*
X4085858Y25826269D01*
X4096066Y25836476D01*
X4096067Y25836479D01*
X4174821Y25915232D01*
X4236141Y25948715D01*
X4305833Y25943731D01*
X4350179Y25915231D01*
X4465409Y25800000D01*
X4553088Y25712321D01*
X4580067Y25671853D01*
X4794957Y25149978D01*
X4794959Y25149973D01*
X4866179Y24977011D01*
X4867108Y24974970D01*
X4868680Y24970819D01*
X4868858Y24970892D01*
X4871185Y24965273D01*
X4871589Y24964518D01*
X4875076Y24957462D01*
X4881471Y24943414D01*
X4881472Y24943412D01*
X4889499Y24928024D01*
X4889569Y24927930D01*
X4899525Y24912254D01*
X4964090Y24791461D01*
X5089116Y24639117D01*
X5241460Y24514091D01*
X5241467Y24514087D01*
X5415266Y24421189D01*
X5415269Y24421189D01*
X5415273Y24421186D01*
X5603868Y24363976D01*
X5800000Y24344659D01*
X5996132Y24363976D01*
X6184727Y24421186D01*
X6358538Y24514090D01*
X6510883Y24639117D01*
X6635910Y24791462D01*
X6708479Y24927229D01*
X6728811Y24965267D01*
X6728811Y24965268D01*
X6728814Y24965273D01*
X6786024Y25153868D01*
X6805341Y25350000D01*
X6786024Y25546132D01*
X6728814Y25734727D01*
X6728811Y25734731D01*
X6728811Y25734734D01*
X6635913Y25908533D01*
X6635909Y25908540D01*
X6546922Y26016970D01*
X6519609Y26081280D01*
X6531400Y26150147D01*
X6577677Y26201173D01*
X6668656Y26257288D01*
X6792712Y26381344D01*
X6884814Y26530666D01*
X6912761Y26615006D01*
X6952534Y26672449D01*
X7017050Y26699272D01*
X7030467Y26700000D01*
X7883537Y26700000D01*
X7950576Y26680315D01*
X7996331Y26627511D01*
X7998892Y26621490D01*
X8016079Y26577905D01*
X8107435Y26457436D01*
X8227904Y26366080D01*
X8368556Y26310614D01*
X8456946Y26300000D01*
X8675000Y26300000D01*
X8675000Y28700000D01*
X8456946Y28700000D01*
X8368556Y28689387D01*
X8227902Y28633920D01*
X8198925Y28611945D01*
X8133614Y28587122D01*
X8065250Y28601550D01*
X8015539Y28650648D01*
X8000000Y28710749D01*
X8000000Y29354132D01*
X8019685Y29421171D01*
X8072489Y29466926D01*
X8141647Y29476870D01*
X8169327Y29467448D01*
X8170015Y29469191D01*
X8318556Y29410614D01*
X8406946Y29400000D01*
X8625000Y29400000D01*
X8625000Y30750000D01*
X8925000Y30750000D01*
X9650000Y30750000D01*
X9650000Y31293054D01*
X9639386Y31381444D01*
X9583920Y31522096D01*
X9492564Y31642565D01*
X9372095Y31733921D01*
X9231443Y31789387D01*
X9143054Y31800000D01*
X8925000Y31800000D01*
X8925000Y30750000D01*
X8625000Y30750000D01*
X8625000Y31800000D01*
X8406946Y31800000D01*
X8318556Y31789387D01*
X8177904Y31733921D01*
X8057435Y31642565D01*
X7966079Y31522096D01*
X7948892Y31478510D01*
X7905986Y31423366D01*
X7840078Y31400173D01*
X7833537Y31400000D01*
X6980467Y31400000D01*
X6913428Y31419685D01*
X6867673Y31472489D01*
X6862761Y31484995D01*
X6859071Y31496130D01*
X6834814Y31569334D01*
X6742712Y31718656D01*
X6618656Y31842712D01*
X6469334Y31934814D01*
X6302797Y31989999D01*
X6302795Y31990000D01*
X6200010Y32000500D01*
X5449998Y32000500D01*
X5449980Y32000499D01*
X5347203Y31990000D01*
X5347200Y31989999D01*
X5180668Y31934815D01*
X5180663Y31934813D01*
X5031342Y31842711D01*
X4907289Y31718658D01*
X4815187Y31569337D01*
X4815186Y31569334D01*
X4760001Y31402797D01*
X4760001Y31402796D01*
X4760000Y31402796D01*
X4749500Y31300017D01*
X4749500Y31011200D01*
X4733722Y30950669D01*
X4259068Y30102048D01*
X4238528Y30074899D01*
X4150451Y29986820D01*
X4089128Y29953334D01*
X4062769Y29950500D01*
X3826082Y29950500D01*
X3788606Y29943046D01*
X3719014Y29949275D01*
X3663837Y29992138D01*
X3640594Y30058028D01*
X3640888Y30075472D01*
X3641181Y30078814D01*
X3645659Y30130000D01*
X3625063Y30365408D01*
X3563903Y30593663D01*
X3563900Y30593670D01*
X3551904Y30619396D01*
X3543510Y30643706D01*
X3542195Y30649362D01*
X3125826Y31718656D01*
X3048951Y31916083D01*
X3040500Y31961076D01*
X3040500Y32741531D01*
X3049327Y32787480D01*
X3193956Y33150000D01*
X3282504Y33371951D01*
X3325628Y33426921D01*
X3391628Y33449852D01*
X3397676Y33450000D01*
X4337734Y33450000D01*
X4404773Y33430315D01*
X4436537Y33400926D01*
X4507432Y33307437D01*
X4627904Y33216080D01*
X4768556Y33160614D01*
X4856946Y33150000D01*
X5075000Y33150000D01*
X5375000Y33150000D01*
X5593054Y33150000D01*
X5681443Y33160614D01*
X5822095Y33216080D01*
X5942564Y33307436D01*
X6033920Y33427905D01*
X6089386Y33568557D01*
X6100000Y33656947D01*
X6100000Y34200000D01*
X5375000Y34200000D01*
X5375000Y33150000D01*
X5075000Y33150000D01*
X5075000Y34500000D01*
X5375000Y34500000D01*
X6100000Y34500000D01*
X6100000Y35043054D01*
X6089386Y35131444D01*
X6033920Y35272096D01*
X5942564Y35392565D01*
X5822095Y35483921D01*
X5681443Y35539387D01*
X5593054Y35550000D01*
X5375000Y35550000D01*
X5375000Y34500000D01*
X5075000Y34500000D01*
X5075000Y35550000D01*
X4856946Y35550000D01*
X4768556Y35539387D01*
X4627904Y35483921D01*
X4507432Y35392563D01*
X4455495Y35324074D01*
X4399303Y35282551D01*
X4356692Y35275000D01*
X3381366Y35275000D01*
X3314327Y35294685D01*
X3275827Y35333904D01*
X3215081Y35432389D01*
X3192712Y35468656D01*
X3068656Y35592712D01*
X2966197Y35655909D01*
X2919336Y35684813D01*
X2919331Y35684815D01*
X2896272Y35692456D01*
X2752797Y35739999D01*
X2752795Y35740000D01*
X2650010Y35750500D01*
X1899998Y35750500D01*
X1899980Y35750499D01*
X1797203Y35740000D01*
X1797200Y35739999D01*
X1630668Y35684815D01*
X1630663Y35684813D01*
X1481342Y35592711D01*
X1357289Y35468658D01*
X1265187Y35319337D01*
X1265185Y35319332D01*
X1249533Y35272096D01*
X1210001Y35152797D01*
X1210001Y35152796D01*
X1210000Y35152796D01*
X1199500Y35050017D01*
X1199500Y33649999D01*
X1199501Y33649982D01*
X1210000Y33547204D01*
X1210001Y33547200D01*
X1250151Y33426036D01*
X1251892Y33420325D01*
X1259096Y33394478D01*
X1259099Y33394468D01*
X1528995Y32781196D01*
X1539500Y32731248D01*
X1539500Y31961078D01*
X1531049Y31916085D01*
X1222476Y31123630D01*
X1179808Y31068302D01*
X1114000Y31044825D01*
X1045947Y31060653D01*
X1001388Y31103526D01*
X1001177Y31103868D01*
X942712Y31198656D01*
X818656Y31322712D01*
X723436Y31381444D01*
X669336Y31414813D01*
X669331Y31414815D01*
X643526Y31423366D01*
X502797Y31469999D01*
X502795Y31470000D01*
X400010Y31480500D01*
X-900002Y31480500D01*
X-900019Y31480499D01*
X-1002797Y31470000D01*
X-1002800Y31469999D01*
X-1169332Y31414815D01*
X-1169337Y31414813D01*
X-1318658Y31322711D01*
X-1442711Y31198658D01*
X-1534813Y31049337D01*
X-1534815Y31049332D01*
X-1558161Y30978878D01*
X-1589999Y30882797D01*
X-1589999Y30882796D01*
X-1590000Y30882796D01*
X-1600500Y30780017D01*
X-1600500Y29479999D01*
X-1600499Y29479982D01*
X-1590000Y29377204D01*
X-1589999Y29377201D01*
X-1534815Y29210669D01*
X-1534813Y29210664D01*
X-1523410Y29192177D01*
X-1442712Y29061344D01*
X-1318656Y28937288D01*
X-1169334Y28845186D01*
X-1160736Y28842337D01*
X-1103293Y28802567D01*
X-1076469Y28738052D01*
X-1088783Y28669276D01*
X-1117766Y28632517D01*
X-1117573Y28632324D01*
X-1119202Y28630696D01*
X-1120025Y28629651D01*
X-1121401Y28628497D01*
X-1288495Y28461403D01*
X-1424035Y28267831D01*
X-1424036Y28267829D01*
X-1523902Y28053665D01*
X-1523906Y28053656D01*
X-1585062Y27825414D01*
X-1585064Y27825404D01*
X-1605659Y27590001D01*
X-2999500Y27590001D01*
X-2999500Y44797241D01*
X-2979815Y44864280D01*
X-2927011Y44910035D01*
X-2857853Y44919979D01*
X-2794297Y44890954D01*
X-2756523Y44832176D01*
X-2754926Y44826188D01*
X-2706397Y44624044D01*
X-2610020Y44391369D01*
X-2478436Y44176644D01*
X-2478430Y44176635D01*
X-2412590Y44099545D01*
X-1841737Y44670397D01*
X-1801401Y44610030D01*
X-1689970Y44498599D01*
X-1629605Y44458265D01*
X-2200458Y43887413D01*
X-2123366Y43821571D01*
X-2123357Y43821565D01*
X-1908632Y43689981D01*
X-1675957Y43593604D01*
X-1431073Y43534813D01*
X-1180000Y43515053D01*
X-928928Y43534813D01*
X-684044Y43593604D01*
X-451369Y43689981D01*
X-236640Y43821567D01*
X-236632Y43821573D01*
X-159544Y43887412D01*
X-159544Y43887413D01*
X-730396Y44458265D01*
X-670030Y44498599D01*
X-558599Y44610030D01*
X-518265Y44670396D01*
X52587Y44099544D01*
X52588Y44099544D01*
X118427Y44176632D01*
X118433Y44176640D01*
X250019Y44391369D01*
X346396Y44624044D01*
X405187Y44868928D01*
X424947Y45120000D01*
X405187Y45371073D01*
X346396Y45615957D01*
X250019Y45848632D01*
X118435Y46063357D01*
X118429Y46063366D01*
X52587Y46140458D01*
X-518265Y45569606D01*
X-558599Y45629970D01*
X-670030Y45741401D01*
X-730396Y45781737D01*
X-159544Y46352589D01*
X-236635Y46418430D01*
X-236644Y46418436D01*
X-451369Y46550020D01*
X-684044Y46646397D01*
X-928928Y46705188D01*
X-1180000Y46724948D01*
X-1431073Y46705188D01*
X-1675957Y46646397D01*
X-1908632Y46550020D01*
X-2123362Y46418433D01*
X-2123373Y46418424D01*
X-2200458Y46352590D01*
X-1629605Y45781737D01*
X-1689970Y45741401D01*
X-1801401Y45629970D01*
X-1841737Y45569605D01*
X-2412590Y46140458D01*
X-2478424Y46063373D01*
X-2478433Y46063362D01*
X-2610020Y45848632D01*
X-2706397Y45615957D01*
X-2754926Y45413813D01*
X-2789717Y45353221D01*
X-2851743Y45321057D01*
X-2921312Y45327533D01*
X-2976336Y45370592D01*
X-2999345Y45436565D01*
X-2999500Y45442760D01*
X-2999500Y47735005D01*
X-295408Y47735005D01*
X-295408Y47734996D01*
X-275804Y47473380D01*
X-275803Y47473375D01*
X-275803Y47473371D01*
X-275802Y47473370D01*
X-270009Y47447989D01*
X-217424Y47217598D01*
X-217422Y47217589D01*
X-217420Y47217584D01*
X-121568Y46973357D01*
X9614Y46746143D01*
X141736Y46580467D01*
X173198Y46541015D01*
X354753Y46372559D01*
X365521Y46362567D01*
X582296Y46214772D01*
X582301Y46214770D01*
X582302Y46214769D01*
X582303Y46214768D01*
X707843Y46154312D01*
X818673Y46100939D01*
X818674Y46100939D01*
X818677Y46100937D01*
X1069385Y46023604D01*
X1328818Y45984500D01*
X1591182Y45984500D01*
X1850615Y46023604D01*
X2101323Y46100937D01*
X2322568Y46207483D01*
X2337696Y46214768D01*
X2337696Y46214769D01*
X2337704Y46214772D01*
X2511883Y46333526D01*
X2578361Y46355025D01*
X2645911Y46337171D01*
X2693085Y46285631D01*
X2704905Y46216769D01*
X2677620Y46152447D01*
X2676023Y46150539D01*
X2601571Y46063368D01*
X2601568Y46063363D01*
X2469980Y45848632D01*
X2373603Y45615957D01*
X2314812Y45371073D01*
X2295052Y45120000D01*
X2314812Y44868928D01*
X2373603Y44624044D01*
X2469980Y44391369D01*
X2601564Y44176644D01*
X2601570Y44176635D01*
X2667410Y44099545D01*
X3238263Y44670397D01*
X3278599Y44610030D01*
X3390030Y44498599D01*
X3450395Y44458265D01*
X2879542Y43887413D01*
X2956634Y43821571D01*
X2956643Y43821565D01*
X3171368Y43689981D01*
X3404043Y43593604D01*
X3648927Y43534813D01*
X3900000Y43515053D01*
X4151072Y43534813D01*
X4395956Y43593604D01*
X4628631Y43689981D01*
X4843360Y43821567D01*
X4843368Y43821573D01*
X4920456Y43887412D01*
X4920456Y43887413D01*
X4349604Y44458265D01*
X4409970Y44498599D01*
X4521401Y44610030D01*
X4561735Y44670396D01*
X5132587Y44099544D01*
X5132588Y44099544D01*
X5198427Y44176632D01*
X5198433Y44176640D01*
X5330019Y44391369D01*
X5426396Y44624044D01*
X5485187Y44868928D01*
X5504947Y45120000D01*
X5485187Y45371073D01*
X5426396Y45615957D01*
X5330019Y45848632D01*
X5198435Y46063357D01*
X5198429Y46063366D01*
X5132587Y46140458D01*
X4561735Y45569606D01*
X4521401Y45629970D01*
X4409970Y45741401D01*
X4349603Y45781737D01*
X4920456Y46352589D01*
X4843365Y46418430D01*
X4843356Y46418436D01*
X4628631Y46550020D01*
X4395956Y46646397D01*
X4151072Y46705188D01*
X3900000Y46724948D01*
X3648927Y46705188D01*
X3404043Y46646397D01*
X3171373Y46550022D01*
X2956860Y46418568D01*
X2889414Y46400324D01*
X2822811Y46421441D01*
X2778198Y46475213D01*
X2769738Y46544568D01*
X2795121Y46601607D01*
X2910386Y46746143D01*
X3041568Y46973357D01*
X3137420Y47217584D01*
X3195802Y47473370D01*
X3197915Y47501567D01*
X3215408Y47734996D01*
X3215408Y47735005D01*
X3195803Y47996621D01*
X3195802Y47996626D01*
X3195802Y47996630D01*
X3137420Y48252416D01*
X3041568Y48496643D01*
X2970411Y48619891D01*
X2953938Y48687791D01*
X2976791Y48753818D01*
X3031712Y48797009D01*
X3101265Y48803650D01*
X3142589Y48787618D01*
X3171372Y48769980D01*
X3404043Y48673604D01*
X3648927Y48614813D01*
X3900000Y48595053D01*
X4151072Y48614813D01*
X4395956Y48673604D01*
X4628631Y48769981D01*
X4843360Y48901567D01*
X4843368Y48901573D01*
X4920456Y48967412D01*
X4920456Y48967413D01*
X4349604Y49538265D01*
X4409970Y49578599D01*
X4521401Y49690030D01*
X4561735Y49750396D01*
X5132587Y49179544D01*
X5132588Y49179544D01*
X5198427Y49256632D01*
X5198433Y49256640D01*
X5330019Y49471369D01*
X5426396Y49704044D01*
X5485187Y49948928D01*
X5504947Y50200000D01*
X5485187Y50451073D01*
X5426396Y50695957D01*
X5330019Y50928632D01*
X5198435Y51143357D01*
X5198429Y51143366D01*
X5132587Y51220458D01*
X4561735Y50649606D01*
X4521401Y50709970D01*
X4409970Y50821401D01*
X4349604Y50861737D01*
X4920456Y51432589D01*
X4843365Y51498430D01*
X4843356Y51498436D01*
X4628631Y51630020D01*
X4395956Y51726397D01*
X4151072Y51785188D01*
X3900000Y51804948D01*
X3648927Y51785188D01*
X3404043Y51726397D01*
X3171368Y51630020D01*
X2956638Y51498433D01*
X2956627Y51498424D01*
X2879542Y51432590D01*
X3450395Y50861737D01*
X3390030Y50821401D01*
X3278599Y50709970D01*
X3238263Y50649605D01*
X2667410Y51220458D01*
X2601576Y51143373D01*
X2601567Y51143362D01*
X2469980Y50928632D01*
X2373603Y50695957D01*
X2314812Y50451073D01*
X2295052Y50200000D01*
X2314812Y49948928D01*
X2373603Y49704044D01*
X2469979Y49471371D01*
X2493025Y49433764D01*
X2511269Y49366318D01*
X2490152Y49299716D01*
X2436380Y49255103D01*
X2367024Y49246643D01*
X2333496Y49257255D01*
X2101325Y49369062D01*
X2101327Y49369062D01*
X1850623Y49446394D01*
X1850619Y49446395D01*
X1850615Y49446396D01*
X1725823Y49465206D01*
X1591187Y49485500D01*
X1591182Y49485500D01*
X1328818Y49485500D01*
X1328812Y49485500D01*
X1167247Y49461147D01*
X1069385Y49446396D01*
X1069382Y49446395D01*
X1069376Y49446394D01*
X818673Y49369062D01*
X582303Y49255233D01*
X582302Y49255232D01*
X365520Y49107433D01*
X173198Y48928986D01*
X9614Y48723857D01*
X-121568Y48496644D01*
X-217418Y48252422D01*
X-217424Y48252403D01*
X-275803Y47996626D01*
X-275804Y47996621D01*
X-295408Y47735005D01*
X-2999500Y47735005D01*
X-2999500Y49877241D01*
X-2979815Y49944280D01*
X-2927011Y49990035D01*
X-2857853Y49999979D01*
X-2794297Y49970954D01*
X-2756523Y49912176D01*
X-2754926Y49906188D01*
X-2706397Y49704044D01*
X-2610020Y49471369D01*
X-2478436Y49256644D01*
X-2478430Y49256635D01*
X-2412590Y49179545D01*
X-1841737Y49750397D01*
X-1801401Y49690030D01*
X-1689970Y49578599D01*
X-1629605Y49538265D01*
X-2200458Y48967413D01*
X-2123366Y48901571D01*
X-2123357Y48901565D01*
X-1908632Y48769981D01*
X-1675957Y48673604D01*
X-1431073Y48614813D01*
X-1180000Y48595053D01*
X-928928Y48614813D01*
X-684044Y48673604D01*
X-451369Y48769981D01*
X-236640Y48901567D01*
X-236632Y48901573D01*
X-159544Y48967412D01*
X-159544Y48967413D01*
X-730396Y49538265D01*
X-670030Y49578599D01*
X-558599Y49690030D01*
X-518265Y49750396D01*
X52587Y49179544D01*
X52588Y49179544D01*
X118427Y49256632D01*
X118433Y49256640D01*
X250019Y49471369D01*
X346396Y49704044D01*
X405187Y49948928D01*
X424947Y50200000D01*
X405187Y50451073D01*
X346396Y50695957D01*
X250019Y50928632D01*
X118435Y51143357D01*
X118429Y51143366D01*
X52587Y51220458D01*
X-518265Y50649606D01*
X-558599Y50709970D01*
X-670030Y50821401D01*
X-730396Y50861737D01*
X-159544Y51432589D01*
X-236635Y51498430D01*
X-236644Y51498436D01*
X-451369Y51630020D01*
X-684044Y51726397D01*
X-928928Y51785188D01*
X-1180000Y51804948D01*
X-1431073Y51785188D01*
X-1675957Y51726397D01*
X-1908632Y51630020D01*
X-2123362Y51498433D01*
X-2123373Y51498424D01*
X-2200458Y51432590D01*
X-1629605Y50861737D01*
X-1689970Y50821401D01*
X-1801401Y50709970D01*
X-1841737Y50649605D01*
X-2412590Y51220458D01*
X-2478424Y51143373D01*
X-2478433Y51143362D01*
X-2610020Y50928632D01*
X-2706397Y50695957D01*
X-2754926Y50493813D01*
X-2789717Y50433221D01*
X-2851743Y50401057D01*
X-2921312Y50407533D01*
X-2976336Y50450592D01*
X-2999345Y50516565D01*
X-2999500Y50522760D01*
X-2999500Y63950000D01*
X30600000Y63950000D01*
X37750000Y63950000D01*
X37750000Y66250000D01*
X44450000Y66250000D01*
X46176000Y66250000D01*
X46243039Y66230315D01*
X46288794Y66177511D01*
X46300000Y66126000D01*
X46300000Y64500000D01*
X49850000Y64500000D01*
X49850000Y69100000D01*
X44450000Y69100000D01*
X44450000Y66250000D01*
X37750000Y66250000D01*
X37750000Y69700000D01*
X30600000Y69700000D01*
X30600000Y63950000D01*
X-2999500Y63950000D01*
X-2999500Y64350000D01*
X19100000Y64350000D01*
X22000000Y64350000D01*
X22000000Y66176000D01*
X22019685Y66243039D01*
X22072489Y66288794D01*
X22124000Y66300000D01*
X23850000Y66300000D01*
X23850000Y69200000D01*
X19100000Y69200000D01*
X19100000Y64350000D01*
X-2999500Y64350000D01*
X-2999500Y71271289D01*
X-1900500Y71271289D01*
X-1900500Y71028712D01*
X-1868839Y70788215D01*
X-1806053Y70553896D01*
X-1785342Y70503896D01*
X-1713224Y70329788D01*
X-1591936Y70119711D01*
X-1591934Y70119708D01*
X-1591933Y70119707D01*
X-1444267Y69927264D01*
X-1444261Y69927257D01*
X-1272744Y69755740D01*
X-1272738Y69755735D01*
X-1080289Y69608064D01*
X-870212Y69486776D01*
X-646100Y69393946D01*
X-411789Y69331162D01*
X-231414Y69307416D01*
X-171289Y69299500D01*
X-171288Y69299500D01*
X71289Y69299500D01*
X119388Y69305833D01*
X311789Y69331162D01*
X546100Y69393946D01*
X770212Y69486776D01*
X980289Y69608064D01*
X1172738Y69755735D01*
X1344265Y69927262D01*
X1491936Y70119711D01*
X1613224Y70329788D01*
X1706054Y70553900D01*
X1768838Y70788211D01*
X1800500Y71028712D01*
X1800500Y71221289D01*
X67649500Y71221289D01*
X67649500Y70978712D01*
X67681161Y70738215D01*
X67743947Y70503896D01*
X67816062Y70329795D01*
X67836776Y70279788D01*
X67958064Y70069711D01*
X67958066Y70069708D01*
X67958067Y70069707D01*
X68105733Y69877264D01*
X68105739Y69877257D01*
X68277256Y69705740D01*
X68277262Y69705735D01*
X68469711Y69558064D01*
X68679788Y69436776D01*
X68903900Y69343946D01*
X69138211Y69281162D01*
X69318586Y69257416D01*
X69378711Y69249500D01*
X69378712Y69249500D01*
X69621289Y69249500D01*
X69669388Y69255833D01*
X69861789Y69281162D01*
X70096100Y69343946D01*
X70320212Y69436776D01*
X70530289Y69558064D01*
X70722738Y69705735D01*
X70894265Y69877262D01*
X71041936Y70069711D01*
X71163224Y70279788D01*
X71256054Y70503900D01*
X71318838Y70738211D01*
X71350500Y70978712D01*
X71350500Y71221288D01*
X71343917Y71271288D01*
X71318838Y71461786D01*
X71318838Y71461789D01*
X71256054Y71696100D01*
X71163224Y71920212D01*
X71041936Y72130289D01*
X70894265Y72322738D01*
X70894260Y72322744D01*
X70722743Y72494261D01*
X70722736Y72494267D01*
X70530293Y72641933D01*
X70530292Y72641934D01*
X70530289Y72641936D01*
X70320212Y72763224D01*
X70320205Y72763227D01*
X70096104Y72856053D01*
X69861785Y72918839D01*
X69621289Y72950500D01*
X69621288Y72950500D01*
X69378712Y72950500D01*
X69378711Y72950500D01*
X69138214Y72918839D01*
X68903895Y72856053D01*
X68679794Y72763227D01*
X68679785Y72763223D01*
X68469706Y72641933D01*
X68277263Y72494267D01*
X68277256Y72494261D01*
X68105739Y72322744D01*
X68105733Y72322737D01*
X67958067Y72130294D01*
X67836777Y71920215D01*
X67836773Y71920206D01*
X67743947Y71696105D01*
X67681161Y71461786D01*
X67649500Y71221289D01*
X1800500Y71221289D01*
X1800500Y71271288D01*
X1768838Y71511789D01*
X1706054Y71746100D01*
X1613224Y71970212D01*
X1491936Y72180289D01*
X1344265Y72372738D01*
X1344260Y72372744D01*
X1172743Y72544261D01*
X1172736Y72544267D01*
X980293Y72691933D01*
X980292Y72691934D01*
X980289Y72691936D01*
X770212Y72813224D01*
X770205Y72813227D01*
X546104Y72906053D01*
X311785Y72968839D01*
X71289Y73000500D01*
X71288Y73000500D01*
X-171288Y73000500D01*
X-171289Y73000500D01*
X-411786Y72968839D01*
X-646105Y72906053D01*
X-870206Y72813227D01*
X-870215Y72813223D01*
X-1080294Y72691933D01*
X-1272737Y72544267D01*
X-1272744Y72544261D01*
X-1444261Y72372744D01*
X-1444267Y72372737D01*
X-1591933Y72180294D01*
X-1713223Y71970215D01*
X-1713227Y71970206D01*
X-1806053Y71746105D01*
X-1868839Y71511786D01*
X-1900500Y71271289D01*
X-2999500Y71271289D01*
X-2999500Y73975500D01*
X-2979815Y74042539D01*
X-2927011Y74088294D01*
X-2875500Y74099500D01*
X72325500Y74099500D01*
X72392539Y74079815D01*
G37*
G04 #@! TD.AperFunction*
G04 #@! TA.AperFunction,Conductor*
G36*
X72112587Y47779544D02*
G01*
X72112588Y47779544D01*
X72178427Y47856632D01*
X72178433Y47856640D01*
X72219773Y47924100D01*
X72271584Y47970975D01*
X72340514Y47982398D01*
X72404677Y47954741D01*
X72443702Y47896785D01*
X72449500Y47859310D01*
X72449500Y44660691D01*
X72429815Y44593652D01*
X72377011Y44547897D01*
X72307853Y44537953D01*
X72244297Y44566978D01*
X72219773Y44595901D01*
X72178436Y44663357D01*
X72178429Y44663366D01*
X72112587Y44740458D01*
X71541735Y44169606D01*
X71501401Y44229970D01*
X71389970Y44341401D01*
X71329603Y44381737D01*
X71900456Y44952589D01*
X71823365Y45018430D01*
X71823356Y45018436D01*
X71608631Y45150020D01*
X71375956Y45246397D01*
X71131072Y45305188D01*
X70880000Y45324948D01*
X70628927Y45305188D01*
X70384043Y45246397D01*
X70151373Y45150022D01*
X69936860Y45018568D01*
X69869414Y45000324D01*
X69802811Y45021441D01*
X69758198Y45075213D01*
X69749738Y45144568D01*
X69775121Y45201607D01*
X69890386Y45346143D01*
X70021568Y45573357D01*
X70117420Y45817584D01*
X70175802Y46073370D01*
X70175803Y46073380D01*
X70195408Y46334996D01*
X70195408Y46335005D01*
X70175803Y46596621D01*
X70175802Y46596629D01*
X70174918Y46600500D01*
X70117420Y46852416D01*
X70021568Y47096643D01*
X69950411Y47219891D01*
X69933938Y47287791D01*
X69956791Y47353818D01*
X70011712Y47397009D01*
X70081265Y47403650D01*
X70122589Y47387618D01*
X70151372Y47369980D01*
X70384043Y47273604D01*
X70628927Y47214813D01*
X70880000Y47195053D01*
X71131072Y47214813D01*
X71375956Y47273604D01*
X71608631Y47369981D01*
X71823360Y47501567D01*
X71823368Y47501573D01*
X71900456Y47567412D01*
X71900456Y47567413D01*
X71329604Y48138265D01*
X71389970Y48178599D01*
X71501401Y48290030D01*
X71541735Y48350396D01*
X72112587Y47779544D01*
G37*
G04 #@! TD.AperFunction*
G04 #@! TA.AperFunction,Conductor*
G36*
X12400000Y44900000D02*
G01*
X12400000Y44399000D01*
X11938060Y44208658D01*
X11575000Y44970231D01*
X11825000Y44970231D01*
X12400000Y44900000D01*
G37*
G04 #@! TD.AperFunction*
G04 #@! TA.AperFunction,Conductor*
G36*
X56741342Y49611940D02*
G01*
X56551000Y49150000D01*
X56088060Y48958658D01*
X55777818Y49575000D01*
X55777818Y49825000D01*
X56741342Y49611940D01*
G37*
G04 #@! TD.AperFunction*
G04 #@! TA.AperFunction,Conductor*
G36*
X56400000Y44950000D02*
G01*
X56400707Y44449293D01*
X56046447Y44096447D01*
X55482945Y44840279D01*
X55659721Y45017055D01*
X56400000Y44950000D01*
G37*
G04 #@! TD.AperFunction*
G04 #@! TA.AperFunction,Conductor*
G36*
X12600707Y39899293D02*
G01*
X12246447Y39546447D01*
X11628769Y40094454D01*
X11805546Y40271231D01*
X12600000Y40400000D01*
X12600707Y39899293D01*
G37*
G04 #@! TD.AperFunction*
G04 #@! TA.AperFunction,Conductor*
G36*
X56500000Y40250000D02*
G01*
X56501000Y39750000D01*
X56146447Y39396447D01*
X55648334Y40075000D01*
X55648334Y40325000D01*
X56500000Y40250000D01*
G37*
G04 #@! TD.AperFunction*
G04 #@! TA.AperFunction,Conductor*
G36*
X12350000Y49580000D02*
G01*
X12350000Y49079000D01*
X11888060Y48888658D01*
X11475000Y49669626D01*
X11725000Y49669626D01*
X12350000Y49580000D01*
G37*
G04 #@! TD.AperFunction*
G04 #@! TA.AperFunction,Conductor*
G36*
X13170342Y55200163D02*
G01*
X13177716Y55195376D01*
X13333291Y54972685D01*
X13335220Y54963940D01*
X13331973Y54957711D01*
X12992967Y54618705D01*
X12984694Y54615278D01*
X12977137Y54618046D01*
X12804796Y54763873D01*
X12532237Y54994500D01*
X12528135Y55002460D01*
X12528973Y55007879D01*
X12645655Y55291855D01*
X12651968Y55298203D01*
X12658690Y55298894D01*
X13170342Y55200163D01*
G37*
G04 #@! TD.AperFunction*
G04 #@! TA.AperFunction,Conductor*
G36*
X13457567Y54848847D02*
G01*
X14133096Y54417209D01*
X14138222Y54409867D01*
X14137614Y54402893D01*
X13952563Y53953798D01*
X13946242Y53947454D01*
X13946202Y53947437D01*
X13497892Y53762710D01*
X13488938Y53762727D01*
X13483091Y53768061D01*
X13143911Y54409867D01*
X13100123Y54492723D01*
X13099288Y54501638D01*
X13102193Y54506460D01*
X13442995Y54847262D01*
X13451267Y54850688D01*
X13457567Y54848847D01*
G37*
G04 #@! TD.AperFunction*
G04 #@! TA.AperFunction,Conductor*
G36*
X15602141Y31757440D02*
G01*
X15602144Y31757439D01*
X16392800Y31428000D01*
X16399119Y31421655D01*
X16400000Y31417200D01*
X16400000Y31182801D01*
X16396573Y31174528D01*
X16392800Y31172001D01*
X15602144Y30842562D01*
X15593189Y30842543D01*
X15586844Y30848862D01*
X15586843Y30848865D01*
X15400872Y31295503D01*
X15400855Y31304456D01*
X15586843Y31751137D01*
X15593187Y31757457D01*
X15602141Y31757440D01*
G37*
G04 #@! TD.AperFunction*
G04 #@! TA.AperFunction,Conductor*
G36*
X16690020Y39200020D02*
G01*
X16698287Y39196577D01*
X16701554Y39190142D01*
X16822868Y38420629D01*
X16820772Y38411923D01*
X16813133Y38407250D01*
X16811311Y38407107D01*
X16578168Y38407107D01*
X16572265Y38408705D01*
X16566758Y38411923D01*
X16349507Y38538879D01*
X16017463Y38732915D01*
X16012049Y38740048D01*
X16012552Y38747484D01*
X16197005Y39193756D01*
X16203331Y39200091D01*
X16207836Y39200985D01*
X16690020Y39200020D01*
G37*
G04 #@! TD.AperFunction*
G04 #@! TA.AperFunction,Conductor*
G36*
X15830827Y37596601D02*
G01*
X16119196Y37428386D01*
X16124615Y37421259D01*
X16125000Y37418281D01*
X16125000Y37181720D01*
X16121573Y37173447D01*
X16119195Y37171614D01*
X15830829Y37003401D01*
X15821956Y37002192D01*
X15819138Y37003344D01*
X15316820Y37289837D01*
X15311331Y37296912D01*
X15312453Y37305796D01*
X15316819Y37310163D01*
X15819139Y37596658D01*
X15828022Y37597779D01*
X15830827Y37596601D01*
G37*
G04 #@! TD.AperFunction*
G04 #@! TA.AperFunction,Conductor*
G36*
X53413155Y35751139D02*
G01*
X53413156Y35751136D01*
X53599127Y35304497D01*
X53599144Y35295543D01*
X53599127Y35295503D01*
X53413156Y34848865D01*
X53406812Y34842544D01*
X53397858Y34842561D01*
X53397855Y34842562D01*
X52607200Y35172001D01*
X52600881Y35178346D01*
X52600000Y35182801D01*
X52600000Y35417200D01*
X52603427Y35425473D01*
X52607200Y35428000D01*
X53382728Y35751136D01*
X53397855Y35757440D01*
X53406810Y35757458D01*
X53413155Y35751139D01*
G37*
G04 #@! TD.AperFunction*
G04 #@! TA.AperFunction,Conductor*
G36*
X53030859Y37696658D02*
G01*
X53236767Y37579221D01*
X53533180Y37410163D01*
X53538668Y37403088D01*
X53537546Y37394203D01*
X53533179Y37389837D01*
X53030861Y37103344D01*
X53021977Y37102222D01*
X53019170Y37103401D01*
X52730805Y37271614D01*
X52725385Y37278742D01*
X52725000Y37281720D01*
X52725000Y37518281D01*
X52728427Y37526554D01*
X52730800Y37528384D01*
X53019171Y37696601D01*
X53028043Y37697809D01*
X53030859Y37696658D01*
G37*
G04 #@! TD.AperFunction*
G04 #@! TA.AperFunction,Conductor*
G36*
X2540273Y31826573D02*
G01*
X2542903Y31822545D01*
X3071146Y30465942D01*
X3070954Y30456990D01*
X3064732Y30450892D01*
X2294489Y30130866D01*
X2285534Y30130857D01*
X2285511Y30130866D01*
X1515267Y30450892D01*
X1508942Y30457231D01*
X1508853Y30465942D01*
X2037097Y31822545D01*
X2043293Y31829011D01*
X2048000Y31830000D01*
X2532000Y31830000D01*
X2540273Y31826573D01*
G37*
G04 #@! TD.AperFunction*
G04 #@! TA.AperFunction,Conductor*
G36*
X2281988Y34340794D02*
G01*
X2284381Y34338401D01*
X2621742Y33885323D01*
X2827062Y33609577D01*
X2829255Y33600894D01*
X2828545Y33598254D01*
X2542938Y32882365D01*
X2536690Y32875950D01*
X2532071Y32875000D01*
X2047634Y32875000D01*
X2039361Y32878427D01*
X2036925Y32881987D01*
X1721774Y33598094D01*
X1721578Y33607047D01*
X1723096Y33609790D01*
X2265617Y34338399D01*
X2273305Y34342987D01*
X2281988Y34340794D01*
G37*
G04 #@! TD.AperFunction*
G04 #@! TA.AperFunction,Conductor*
G36*
X53463155Y40251139D02*
G01*
X53463156Y40251136D01*
X53649127Y39804497D01*
X53649144Y39795543D01*
X53649127Y39795503D01*
X53463156Y39348865D01*
X53456812Y39342544D01*
X53447858Y39342561D01*
X53447855Y39342562D01*
X52657200Y39672001D01*
X52650881Y39678346D01*
X52650000Y39682801D01*
X52650000Y39917200D01*
X52653427Y39925473D01*
X52657200Y39928000D01*
X53432728Y40251136D01*
X53447855Y40257440D01*
X53456810Y40257458D01*
X53463155Y40251139D01*
G37*
G04 #@! TD.AperFunction*
G04 #@! TA.AperFunction,Conductor*
G36*
X53030827Y42324561D02*
G01*
X53531857Y42060637D01*
X53537579Y42053749D01*
X53536756Y42044832D01*
X53532213Y42040129D01*
X53032323Y41754190D01*
X53023440Y41753057D01*
X53018712Y41755627D01*
X52828270Y41926045D01*
X52827799Y41926491D01*
X52661845Y42092445D01*
X52658418Y42100718D01*
X52661845Y42108991D01*
X52664082Y42110741D01*
X53019352Y42324237D01*
X53028208Y42325560D01*
X53030827Y42324561D01*
G37*
G04 #@! TD.AperFunction*
G04 #@! TA.AperFunction,Conductor*
G36*
X15830827Y42396601D02*
G01*
X16119196Y42228386D01*
X16124615Y42221259D01*
X16125000Y42218281D01*
X16125000Y41981720D01*
X16121573Y41973447D01*
X16119195Y41971614D01*
X15830829Y41803401D01*
X15821956Y41802192D01*
X15819138Y41803344D01*
X15316820Y42089837D01*
X15311331Y42096912D01*
X15312453Y42105796D01*
X15316819Y42110163D01*
X15819139Y42396658D01*
X15828022Y42397779D01*
X15830827Y42396601D01*
G37*
G04 #@! TD.AperFunction*
G04 #@! TA.AperFunction,Conductor*
G36*
X17366945Y27977334D02*
G01*
X17370372Y27969061D01*
X17369751Y27965300D01*
X17065948Y27070465D01*
X17060043Y27063732D01*
X17051108Y27063147D01*
X17050412Y27063408D01*
X17033285Y27070465D01*
X16604496Y27247148D01*
X16598153Y27253468D01*
X16413276Y27700768D01*
X16413283Y27709721D01*
X16419620Y27716048D01*
X16419926Y27716169D01*
X17123012Y27980016D01*
X17127123Y27980761D01*
X17358672Y27980761D01*
X17366945Y27977334D01*
G37*
G04 #@! TD.AperFunction*
G04 #@! TA.AperFunction,Conductor*
G36*
X16460073Y44486867D02*
G01*
X16466394Y44480523D01*
X16466395Y44480521D01*
X16792524Y43688495D01*
X16792505Y43679540D01*
X16789978Y43675767D01*
X16624233Y43510022D01*
X16615960Y43506595D01*
X16611505Y43507476D01*
X15819479Y43833605D01*
X15813134Y43839924D01*
X15813115Y43848877D01*
X15997437Y44296205D01*
X16003755Y44302546D01*
X16451120Y44486884D01*
X16460073Y44486867D01*
G37*
G04 #@! TD.AperFunction*
G04 #@! TA.AperFunction,Conductor*
G36*
X17051135Y27063157D02*
G01*
X17057456Y27056813D01*
X17057439Y27047859D01*
X17057438Y27047856D01*
X16728000Y26257200D01*
X16721655Y26250881D01*
X16717200Y26250000D01*
X16482800Y26250000D01*
X16474527Y26253427D01*
X16472000Y26257200D01*
X16142561Y27047856D01*
X16142542Y27056811D01*
X16148859Y27063155D01*
X16595504Y27249129D01*
X16604455Y27249145D01*
X17051135Y27063157D01*
G37*
G04 #@! TD.AperFunction*
G04 #@! TA.AperFunction,Conductor*
G36*
X5308353Y28053456D02*
G01*
X5866623Y27509167D01*
X5870154Y27500939D01*
X5866832Y27492623D01*
X5310791Y26922299D01*
X5302562Y26918768D01*
X5294246Y26922090D01*
X5292280Y26924621D01*
X4975000Y27475000D01*
X4752852Y27475000D01*
X4744579Y27478427D01*
X4741152Y27486700D01*
X4744497Y27494890D01*
X4907412Y27661093D01*
X5291833Y28053269D01*
X5300070Y28056777D01*
X5308353Y28053456D01*
G37*
G04 #@! TD.AperFunction*
G04 #@! TA.AperFunction,Conductor*
G36*
X5188490Y26142526D02*
G01*
X5859884Y25866070D01*
X5980520Y25816396D01*
X5986865Y25810077D01*
X5986884Y25801122D01*
X5986883Y25801120D01*
X5802563Y25353798D01*
X5796242Y25347454D01*
X5796202Y25347437D01*
X5348880Y25163117D01*
X5339926Y25163134D01*
X5333605Y25169478D01*
X5333604Y25169480D01*
X5257708Y25353798D01*
X5007475Y25961508D01*
X5007494Y25970461D01*
X5010018Y25974231D01*
X5175767Y26139980D01*
X5184039Y26143406D01*
X5188490Y26142526D01*
G37*
G04 #@! TD.AperFunction*
G04 #@! TA.AperFunction,Conductor*
G36*
X532838Y27910559D02*
G01*
X539163Y27904220D01*
X539388Y27903630D01*
X1038031Y26483252D01*
X1037539Y26474310D01*
X1035265Y26471103D01*
X868897Y26304735D01*
X860624Y26301308D01*
X856748Y26301969D01*
X-563630Y26800612D01*
X-570301Y26806585D01*
X-570793Y26815527D01*
X-570577Y26816095D01*
X-252562Y27586217D01*
X-246241Y27592552D01*
X523884Y27910568D01*
X532838Y27910559D01*
G37*
G04 #@! TD.AperFunction*
G04 #@! TA.AperFunction,Conductor*
G36*
X17815947Y25356623D02*
G01*
X17819374Y25348350D01*
X17818527Y25343979D01*
X17466346Y24469598D01*
X17460076Y24463204D01*
X17451122Y24463116D01*
X17451036Y24463151D01*
X17004497Y24647147D01*
X16998153Y24653468D01*
X16813493Y25100243D01*
X16813500Y25109195D01*
X16819837Y25115522D01*
X16820687Y25115835D01*
X17427533Y25312307D01*
X17573243Y25359481D01*
X17576847Y25360050D01*
X17807674Y25360050D01*
X17815947Y25356623D01*
G37*
G04 #@! TD.AperFunction*
G04 #@! TA.AperFunction,Conductor*
G36*
X53263155Y44951139D02*
G01*
X53263156Y44951136D01*
X53449127Y44504497D01*
X53449144Y44495543D01*
X53449127Y44495503D01*
X53263156Y44048865D01*
X53256812Y44042544D01*
X53247858Y44042561D01*
X53247855Y44042562D01*
X52457200Y44372001D01*
X52450881Y44378346D01*
X52450000Y44382801D01*
X52450000Y44617200D01*
X52453427Y44625473D01*
X52457200Y44628000D01*
X53232728Y44951136D01*
X53247855Y44957440D01*
X53256810Y44957458D01*
X53263155Y44951139D01*
G37*
G04 #@! TD.AperFunction*
G04 #@! TA.AperFunction,Conductor*
G36*
X17003408Y24647583D02*
G01*
X17344412Y24305614D01*
X17347827Y24297336D01*
X17344388Y24289068D01*
X17343512Y24288278D01*
X16753226Y23807955D01*
X16745841Y23805330D01*
X16511700Y23805330D01*
X16503427Y23808757D01*
X16500000Y23817030D01*
X16500000Y24638324D01*
X16503427Y24646597D01*
X16511675Y24650024D01*
X16995132Y24650991D01*
X17003408Y24647583D01*
G37*
G04 #@! TD.AperFunction*
G04 #@! TA.AperFunction,Conductor*
G36*
X15881287Y47044374D02*
G01*
X16071729Y46873956D01*
X16072200Y46873510D01*
X16238154Y46707556D01*
X16241581Y46699283D01*
X16238154Y46691010D01*
X16235907Y46689254D01*
X15880647Y46475766D01*
X15871791Y46474442D01*
X15869168Y46475443D01*
X15368142Y46739364D01*
X15362420Y46746252D01*
X15363243Y46755169D01*
X15367784Y46759870D01*
X15867676Y47045812D01*
X15876559Y47046944D01*
X15881287Y47044374D01*
G37*
G04 #@! TD.AperFunction*
G04 #@! TA.AperFunction,Conductor*
G36*
X16552195Y48862716D02*
G01*
X16558516Y48856372D01*
X16558903Y48848549D01*
X16327503Y48078225D01*
X16321841Y48071287D01*
X16316298Y48069891D01*
X16081894Y48069891D01*
X16073621Y48073318D01*
X16071659Y48075922D01*
X15644398Y48847217D01*
X15643387Y48856114D01*
X15648964Y48863121D01*
X15650123Y48863682D01*
X16095504Y49049129D01*
X16104455Y49049145D01*
X16552195Y48862716D01*
G37*
G04 #@! TD.AperFunction*
G04 #@! TA.AperFunction,Conductor*
G36*
X15880827Y47046601D02*
G01*
X16169196Y46878386D01*
X16174615Y46871259D01*
X16175000Y46868281D01*
X16175000Y46631720D01*
X16171573Y46623447D01*
X16169195Y46621614D01*
X15880829Y46453401D01*
X15871956Y46452192D01*
X15869138Y46453344D01*
X15366820Y46739837D01*
X15361331Y46746912D01*
X15362453Y46755796D01*
X15366819Y46760163D01*
X15869139Y47046658D01*
X15878022Y47047779D01*
X15880827Y47046601D01*
G37*
G04 #@! TD.AperFunction*
G04 #@! TA.AperFunction,Conductor*
G36*
X53030827Y47024561D02*
G01*
X53531857Y46760637D01*
X53537579Y46753749D01*
X53536756Y46744832D01*
X53532213Y46740129D01*
X53032323Y46454190D01*
X53023440Y46453057D01*
X53018712Y46455627D01*
X52828270Y46626045D01*
X52827799Y46626491D01*
X52661845Y46792445D01*
X52658418Y46800718D01*
X52661845Y46808991D01*
X52664082Y46810741D01*
X53019352Y47024237D01*
X53028208Y47025560D01*
X53030827Y47024561D01*
G37*
G04 #@! TD.AperFunction*
G04 #@! TA.AperFunction,Conductor*
G36*
X15880827Y56546601D02*
G01*
X16169196Y56378386D01*
X16174615Y56371259D01*
X16175000Y56368281D01*
X16175000Y56131720D01*
X16171573Y56123447D01*
X16169195Y56121614D01*
X15880829Y55953401D01*
X15871956Y55952192D01*
X15869138Y55953344D01*
X15366820Y56239837D01*
X15361331Y56246912D01*
X15362453Y56255796D01*
X15366819Y56260163D01*
X15869139Y56546658D01*
X15878022Y56547779D01*
X15880827Y56546601D01*
G37*
G04 #@! TD.AperFunction*
G04 #@! TA.AperFunction,Conductor*
G36*
X19352141Y19207440D02*
G01*
X19352144Y19207439D01*
X20142800Y18878000D01*
X20149119Y18871655D01*
X20150000Y18867200D01*
X20150000Y18632801D01*
X20146573Y18624528D01*
X20142800Y18622001D01*
X19352144Y18292562D01*
X19343189Y18292543D01*
X19336844Y18298862D01*
X19336843Y18298865D01*
X19150872Y18745503D01*
X19150855Y18754456D01*
X19336843Y19201137D01*
X19343187Y19207457D01*
X19352141Y19207440D01*
G37*
G04 #@! TD.AperFunction*
G04 #@! TA.AperFunction,Conductor*
G36*
X15611724Y58846928D02*
G01*
X16019617Y58516231D01*
X16047697Y58493465D01*
X16225787Y58349080D01*
X16230056Y58341208D01*
X16227507Y58332624D01*
X16226692Y58331719D01*
X16061586Y58166613D01*
X16055652Y58163422D01*
X15450790Y58039989D01*
X15441999Y58041693D01*
X15437645Y58046967D01*
X15252299Y58493465D01*
X15252292Y58502420D01*
X15254845Y58506238D01*
X15596101Y58846131D01*
X15604379Y58849540D01*
X15611724Y58846928D01*
G37*
G04 #@! TD.AperFunction*
G04 #@! TA.AperFunction,Conductor*
G36*
X10642771Y28971521D02*
G01*
X10649092Y28965177D01*
X10649075Y28956223D01*
X10649074Y28956220D01*
X10319636Y28165564D01*
X10313291Y28159245D01*
X10308836Y28158364D01*
X10074436Y28158364D01*
X10066163Y28161791D01*
X10063636Y28165564D01*
X9734197Y28956220D01*
X9734178Y28965175D01*
X9740495Y28971519D01*
X10187140Y29157493D01*
X10196091Y29157509D01*
X10642771Y28971521D01*
G37*
G04 #@! TD.AperFunction*
G04 #@! TA.AperFunction,Conductor*
G36*
X52701135Y55113157D02*
G01*
X52707456Y55106813D01*
X52707439Y55097859D01*
X52707438Y55097856D01*
X52378000Y54307200D01*
X52371655Y54300881D01*
X52367200Y54300000D01*
X52132800Y54300000D01*
X52124527Y54303427D01*
X52122000Y54307200D01*
X51792561Y55097856D01*
X51792542Y55106811D01*
X51798859Y55113155D01*
X52245504Y55299129D01*
X52254455Y55299145D01*
X52701135Y55113157D01*
G37*
G04 #@! TD.AperFunction*
G04 #@! TA.AperFunction,Conductor*
G36*
X10775473Y23146573D02*
G01*
X10778000Y23142800D01*
X11107438Y22352145D01*
X11107457Y22343190D01*
X11101138Y22336845D01*
X11101135Y22336844D01*
X10654497Y22150873D01*
X10645543Y22150856D01*
X10645503Y22150873D01*
X10198864Y22336844D01*
X10192543Y22343188D01*
X10192560Y22352142D01*
X10192561Y22352145D01*
X10522000Y23142800D01*
X10528345Y23149119D01*
X10532800Y23150000D01*
X10767200Y23150000D01*
X10775473Y23146573D01*
G37*
G04 #@! TD.AperFunction*
G04 #@! TA.AperFunction,Conductor*
G36*
X53031316Y56312543D02*
G01*
X53542629Y56251669D01*
X53550439Y56247288D01*
X53552618Y56242800D01*
X53620659Y55961359D01*
X53619273Y55952513D01*
X53612050Y55947241D01*
X53009674Y55800831D01*
X53006911Y55800500D01*
X53005252Y55800500D01*
X52976010Y55794684D01*
X52946768Y55788867D01*
X52946765Y55788866D01*
X52940670Y55784793D01*
X52936933Y55783152D01*
X52907644Y55776033D01*
X52898796Y55777409D01*
X52896608Y55779129D01*
X52732020Y55943717D01*
X52728593Y55951990D01*
X52731288Y55959460D01*
X53020935Y56308399D01*
X53028855Y56312574D01*
X53031316Y56312543D01*
G37*
G04 #@! TD.AperFunction*
G04 #@! TA.AperFunction,Conductor*
G36*
X52870460Y56092506D02*
G01*
X52874233Y56089979D01*
X53039978Y55924234D01*
X53043405Y55915961D01*
X53042524Y55911506D01*
X52998449Y55804470D01*
X52992130Y55798125D01*
X52989913Y55797450D01*
X52946769Y55788867D01*
X52946768Y55788867D01*
X52880448Y55744553D01*
X52880447Y55744552D01*
X52836133Y55678232D01*
X52824500Y55619748D01*
X52824500Y55384335D01*
X52823619Y55379880D01*
X52716395Y55119480D01*
X52710076Y55113135D01*
X52701121Y55113116D01*
X52701119Y55113117D01*
X52253797Y55297437D01*
X52247453Y55303758D01*
X52063116Y55751121D01*
X52063133Y55760074D01*
X52069477Y55766395D01*
X52069475Y55766395D01*
X52861507Y56092525D01*
X52870460Y56092506D01*
G37*
G04 #@! TD.AperFunction*
G04 #@! TA.AperFunction,Conductor*
G36*
X19172859Y19797736D02*
G01*
X19175000Y19794795D01*
X19606171Y18952610D01*
X19606891Y18943684D01*
X19601089Y18936864D01*
X19600254Y18936477D01*
X19155197Y18751163D01*
X19146243Y18751146D01*
X18699079Y18936768D01*
X18692752Y18943105D01*
X18692759Y18952060D01*
X18692815Y18952192D01*
X18990018Y19630311D01*
X18992456Y19633879D01*
X19156314Y19797737D01*
X19164586Y19801163D01*
X19172859Y19797736D01*
G37*
G04 #@! TD.AperFunction*
G04 #@! TA.AperFunction,Conductor*
G36*
X13170342Y50400163D02*
G01*
X13177716Y50395376D01*
X13333291Y50172685D01*
X13335220Y50163940D01*
X13331973Y50157711D01*
X12992967Y49818705D01*
X12984694Y49815278D01*
X12977137Y49818046D01*
X12804796Y49963873D01*
X12532237Y50194500D01*
X12528135Y50202460D01*
X12528973Y50207879D01*
X12645655Y50491855D01*
X12651968Y50498203D01*
X12658690Y50498894D01*
X13170342Y50400163D01*
G37*
G04 #@! TD.AperFunction*
G04 #@! TA.AperFunction,Conductor*
G36*
X13416851Y50090881D02*
G01*
X14180688Y49766465D01*
X14186963Y49760077D01*
X14186932Y49751239D01*
X14001603Y49301468D01*
X13999042Y49297635D01*
X13656025Y48955988D01*
X13647745Y48952578D01*
X13639478Y48956021D01*
X13638379Y48957296D01*
X13062065Y49732303D01*
X13059878Y49740987D01*
X13063179Y49747556D01*
X13404008Y50088385D01*
X13412280Y50091811D01*
X13416851Y50090881D01*
G37*
G04 #@! TD.AperFunction*
G04 #@! TA.AperFunction,Conductor*
G36*
X5259600Y30834213D02*
G01*
X5817683Y30604017D01*
X5824025Y30597694D01*
X5824867Y30592069D01*
X5738888Y29707371D01*
X5734677Y29699468D01*
X5731205Y29697494D01*
X5027176Y29444151D01*
X5018231Y29444574D01*
X5014941Y29446887D01*
X4672895Y29788933D01*
X4669468Y29797206D01*
X4670955Y29802913D01*
X5244930Y30829109D01*
X5251958Y30834655D01*
X5259600Y30834213D01*
G37*
G04 #@! TD.AperFunction*
G04 #@! TA.AperFunction,Conductor*
G36*
X15880827Y51746601D02*
G01*
X16169196Y51578386D01*
X16174615Y51571259D01*
X16175000Y51568281D01*
X16175000Y51331720D01*
X16171573Y51323447D01*
X16169195Y51321614D01*
X15880829Y51153401D01*
X15871956Y51152192D01*
X15869138Y51153344D01*
X15366820Y51439837D01*
X15361331Y51446912D01*
X15362453Y51455796D01*
X15366819Y51460163D01*
X15869139Y51746658D01*
X15878022Y51747779D01*
X15880827Y51746601D01*
G37*
G04 #@! TD.AperFunction*
G04 #@! TA.AperFunction,Conductor*
G36*
X18265947Y24156623D02*
G01*
X18269374Y24148350D01*
X18268527Y24143979D01*
X17916346Y23269598D01*
X17910076Y23263204D01*
X17901122Y23263116D01*
X17901036Y23263151D01*
X17454497Y23447147D01*
X17448153Y23453468D01*
X17263493Y23900243D01*
X17263500Y23909195D01*
X17269837Y23915522D01*
X17270687Y23915835D01*
X17877533Y24112307D01*
X18023243Y24159481D01*
X18026847Y24160050D01*
X18257674Y24160050D01*
X18265947Y24156623D01*
G37*
G04 #@! TD.AperFunction*
G04 #@! TA.AperFunction,Conductor*
G36*
X17909990Y23636833D02*
G01*
X17916311Y23630489D01*
X18170702Y22998896D01*
X18268527Y22756021D01*
X18268439Y22747067D01*
X18262045Y22740797D01*
X18257674Y22739950D01*
X18026847Y22739950D01*
X18023243Y22740519D01*
X17270702Y22984161D01*
X17263887Y22989969D01*
X17263175Y22998896D01*
X17263482Y22999734D01*
X17448142Y23446507D01*
X17454466Y23452841D01*
X17901038Y23636850D01*
X17909990Y23636833D01*
G37*
G04 #@! TD.AperFunction*
G04 #@! TA.AperFunction,Conductor*
G36*
X16387297Y53650026D02*
G01*
X16395563Y53646583D01*
X16398973Y53638303D01*
X16398932Y53637343D01*
X16370877Y53304664D01*
X16326482Y52778230D01*
X16325904Y52771381D01*
X16321794Y52763425D01*
X16314245Y52760664D01*
X16079893Y52760664D01*
X16071620Y52764091D01*
X16071564Y52764147D01*
X16067893Y52767868D01*
X16064747Y52773803D01*
X16063867Y52778231D01*
X16019552Y52844552D01*
X15953231Y52888867D01*
X15952361Y52889040D01*
X15950900Y52889331D01*
X15944855Y52892589D01*
X15554595Y53288187D01*
X15551225Y53296482D01*
X15554639Y53304663D01*
X15896562Y53647554D01*
X15904826Y53650991D01*
X16387297Y53650026D01*
G37*
G04 #@! TD.AperFunction*
G04 #@! TA.AperFunction,Conductor*
G36*
X53031521Y51609301D02*
G01*
X53543518Y51452903D01*
X53550428Y51447209D01*
X53551697Y51443255D01*
X53588903Y51163231D01*
X53586596Y51154579D01*
X53578846Y51150092D01*
X53577314Y51149990D01*
X52906108Y51149484D01*
X52897832Y51152905D01*
X52732975Y51317762D01*
X52729548Y51326035D01*
X52732975Y51334308D01*
X52733196Y51334524D01*
X53020052Y51606601D01*
X53028412Y51609807D01*
X53031521Y51609301D01*
G37*
G04 #@! TD.AperFunction*
G04 #@! TA.AperFunction,Conductor*
G36*
X52908000Y49608308D02*
G01*
X52912354Y49603034D01*
X53097700Y49156536D01*
X53097707Y49147581D01*
X53095151Y49143760D01*
X52753900Y48803871D01*
X52745620Y48800461D01*
X52738275Y48803073D01*
X52124212Y49300921D01*
X52119943Y49308793D01*
X52122492Y49317377D01*
X52123297Y49318272D01*
X52288415Y49483390D01*
X52294344Y49486578D01*
X52899209Y49610012D01*
X52908000Y49608308D01*
G37*
G04 #@! TD.AperFunction*
G04 #@! TA.AperFunction,Conductor*
G36*
X3320961Y28963202D02*
G01*
X3663201Y28620962D01*
X3666628Y28612689D01*
X3665639Y28607982D01*
X3079900Y27275193D01*
X3073434Y27268997D01*
X3064723Y27269086D01*
X2293785Y27587438D01*
X2287447Y27593762D01*
X1969085Y28364726D01*
X1969094Y28373679D01*
X1975191Y28379901D01*
X3307982Y28965641D01*
X3316933Y28965832D01*
X3320961Y28963202D01*
G37*
G04 #@! TD.AperFunction*
G04 #@! TA.AperFunction,Conductor*
G36*
X13170572Y45773508D02*
G01*
X13178161Y45770168D01*
X13480494Y45472918D01*
X13483991Y45464674D01*
X13480634Y45456372D01*
X13142114Y45117852D01*
X13133841Y45114425D01*
X13127384Y45116368D01*
X12555211Y45495030D01*
X12550203Y45502454D01*
X12550583Y45508532D01*
X12646455Y45792308D01*
X12652349Y45799047D01*
X12658148Y45800245D01*
X13170572Y45773508D01*
G37*
G04 #@! TD.AperFunction*
G04 #@! TA.AperFunction,Conductor*
G36*
X13477461Y45479328D02*
G01*
X14063454Y45136713D01*
X14182549Y45067081D01*
X14187962Y45059947D01*
X14187462Y45052524D01*
X14002563Y44603798D01*
X13996242Y44597454D01*
X13996202Y44597437D01*
X13547476Y44412538D01*
X13538522Y44412555D01*
X13532919Y44417451D01*
X13513475Y44450707D01*
X13120672Y45122538D01*
X13119455Y45131406D01*
X13122498Y45136711D01*
X13463288Y45477501D01*
X13471560Y45480927D01*
X13477461Y45479328D01*
G37*
G04 #@! TD.AperFunction*
G04 #@! TA.AperFunction,Conductor*
G36*
X55833950Y57796301D02*
G01*
X56365092Y57505030D01*
X56370698Y57498047D01*
X56370288Y57490324D01*
X56254345Y57208148D01*
X56248031Y57201798D01*
X56241306Y57201107D01*
X55732448Y57299299D01*
X55724974Y57304231D01*
X55723273Y57308119D01*
X55650961Y57617409D01*
X55652415Y57626244D01*
X55654077Y57628341D01*
X55820052Y57794316D01*
X55828324Y57797742D01*
X55833950Y57796301D01*
G37*
G04 #@! TD.AperFunction*
G04 #@! TA.AperFunction,Conductor*
G36*
X55210073Y58886867D02*
G01*
X55216394Y58880523D01*
X55216395Y58880521D01*
X55542524Y58088495D01*
X55542505Y58079540D01*
X55539978Y58075767D01*
X55374233Y57910022D01*
X55365960Y57906595D01*
X55361505Y57907476D01*
X54569479Y58233605D01*
X54563134Y58239924D01*
X54563115Y58248877D01*
X54747437Y58696205D01*
X54753755Y58702546D01*
X55201120Y58886884D01*
X55210073Y58886867D01*
G37*
G04 #@! TD.AperFunction*
G04 #@! TA.AperFunction,Conductor*
G36*
X55607252Y52824465D02*
G01*
X56302645Y52702100D01*
X56310198Y52697292D01*
X56312139Y52688550D01*
X56312061Y52688147D01*
X56252358Y52407067D01*
X56247287Y52399686D01*
X56242871Y52397963D01*
X55731400Y52311136D01*
X55722670Y52313130D01*
X55720690Y52314906D01*
X55431793Y52640501D01*
X55428867Y52648961D01*
X55432272Y52656536D01*
X55596952Y52821216D01*
X55605224Y52824642D01*
X55607252Y52824465D01*
G37*
G04 #@! TD.AperFunction*
G04 #@! TA.AperFunction,Conductor*
G36*
X55310073Y53586867D02*
G01*
X55316394Y53580523D01*
X55316395Y53580521D01*
X55642524Y52788495D01*
X55642505Y52779540D01*
X55639978Y52775767D01*
X55474233Y52610022D01*
X55465960Y52606595D01*
X55461505Y52607476D01*
X54669479Y52933605D01*
X54663134Y52939924D01*
X54663115Y52948877D01*
X54847437Y53396205D01*
X54853755Y53402546D01*
X55301120Y53586884D01*
X55310073Y53586867D01*
G37*
G04 #@! TD.AperFunction*
G04 #@! TA.AperFunction,Conductor*
G36*
X56250079Y36447097D02*
G01*
X56254345Y36441853D01*
X56370288Y36159677D01*
X56370263Y36150722D01*
X56365092Y36144971D01*
X55833950Y35853700D01*
X55825048Y35852727D01*
X55820051Y35855686D01*
X55654081Y36021656D01*
X55650654Y36029929D01*
X55650961Y36032593D01*
X55723273Y36341881D01*
X55728493Y36349153D01*
X55732443Y36350701D01*
X56241308Y36448894D01*
X56250079Y36447097D01*
G37*
G04 #@! TD.AperFunction*
G04 #@! TA.AperFunction,Conductor*
G36*
X5781988Y22440794D02*
G01*
X5784381Y22438401D01*
X6177150Y21910910D01*
X6326322Y21710571D01*
X6328515Y21701888D01*
X6327011Y21697631D01*
X5903397Y20980748D01*
X5896238Y20975369D01*
X5893324Y20975000D01*
X5656676Y20975000D01*
X5648403Y20978427D01*
X5646603Y20980748D01*
X5222988Y21697631D01*
X5221730Y21706497D01*
X5223675Y21710569D01*
X5765617Y22438399D01*
X5773305Y22442987D01*
X5781988Y22440794D01*
G37*
G04 #@! TD.AperFunction*
G04 #@! TA.AperFunction,Conductor*
G36*
X56780827Y55596601D02*
G01*
X57069196Y55428386D01*
X57074615Y55421259D01*
X57075000Y55418281D01*
X57075000Y55181720D01*
X57071573Y55173447D01*
X57069195Y55171614D01*
X56780829Y55003401D01*
X56771956Y55002192D01*
X56769138Y55003344D01*
X56266820Y55289837D01*
X56261331Y55296912D01*
X56262453Y55305796D01*
X56266819Y55310163D01*
X56769139Y55596658D01*
X56778022Y55597779D01*
X56780827Y55596601D01*
G37*
G04 #@! TD.AperFunction*
G04 #@! TA.AperFunction,Conductor*
G36*
X12080859Y38546658D02*
G01*
X12286767Y38429221D01*
X12583180Y38260163D01*
X12588668Y38253088D01*
X12587546Y38244203D01*
X12583179Y38239837D01*
X12080861Y37953344D01*
X12071977Y37952222D01*
X12069170Y37953401D01*
X11780805Y38121614D01*
X11775385Y38128742D01*
X11775000Y38131720D01*
X11775000Y38368281D01*
X11778427Y38376554D01*
X11780800Y38378384D01*
X12069171Y38546601D01*
X12078043Y38547809D01*
X12080859Y38546658D01*
G37*
G04 #@! TD.AperFunction*
G04 #@! TA.AperFunction,Conductor*
G36*
X12080859Y43346658D02*
G01*
X12286767Y43229221D01*
X12583180Y43060163D01*
X12588668Y43053088D01*
X12587546Y43044203D01*
X12583179Y43039837D01*
X12080861Y42753344D01*
X12071977Y42752222D01*
X12069170Y42753401D01*
X11780805Y42921614D01*
X11775385Y42928742D01*
X11775000Y42931720D01*
X11775000Y43168281D01*
X11778427Y43176554D01*
X11780800Y43178384D01*
X12069171Y43346601D01*
X12078043Y43347809D01*
X12080859Y43346658D01*
G37*
G04 #@! TD.AperFunction*
G04 #@! TA.AperFunction,Conductor*
G36*
X14438490Y29942526D02*
G01*
X15109884Y29666070D01*
X15230520Y29616396D01*
X15236865Y29610077D01*
X15236884Y29601122D01*
X15236883Y29601120D01*
X15052563Y29153798D01*
X15046242Y29147454D01*
X15046202Y29147437D01*
X14598880Y28963117D01*
X14589926Y28963134D01*
X14583605Y28969478D01*
X14583604Y28969480D01*
X14507708Y29153798D01*
X14257475Y29761508D01*
X14257494Y29770461D01*
X14260018Y29774231D01*
X14425767Y29939980D01*
X14434039Y29943406D01*
X14438490Y29942526D01*
G37*
G04 #@! TD.AperFunction*
G04 #@! TA.AperFunction,Conductor*
G36*
X56780827Y41396601D02*
G01*
X57069196Y41228386D01*
X57074615Y41221259D01*
X57075000Y41218281D01*
X57075000Y40981720D01*
X57071573Y40973447D01*
X57069195Y40971614D01*
X56780829Y40803401D01*
X56771956Y40802192D01*
X56769138Y40803344D01*
X56266820Y41089837D01*
X56261331Y41096912D01*
X56262453Y41105796D01*
X56266819Y41110163D01*
X56769139Y41396658D01*
X56778022Y41397779D01*
X56780827Y41396601D01*
G37*
G04 #@! TD.AperFunction*
G04 #@! TA.AperFunction,Conductor*
G36*
X5207086Y23048354D02*
G01*
X5767924Y22458494D01*
X5771141Y22450137D01*
X5767507Y22441953D01*
X5767492Y22441939D01*
X5207561Y21911411D01*
X5199199Y21908208D01*
X5192009Y21910928D01*
X4629195Y22381493D01*
X4625046Y22389429D01*
X4625000Y22390469D01*
X4625000Y22629064D01*
X4628427Y22637337D01*
X4629786Y22638503D01*
X5191701Y23049734D01*
X5200399Y23051853D01*
X5207086Y23048354D01*
G37*
G04 #@! TD.AperFunction*
G04 #@! TA.AperFunction,Conductor*
G36*
X2625836Y23290209D02*
G01*
X2626413Y23289951D01*
X3983366Y22638186D01*
X3989339Y22631516D01*
X3990000Y22627640D01*
X3990000Y22392361D01*
X3986573Y22384088D01*
X3983366Y22381814D01*
X2626413Y21730050D01*
X2617471Y21729558D01*
X2610800Y21735531D01*
X2610542Y21736108D01*
X2290865Y22505511D01*
X2290856Y22514466D01*
X2290865Y22514489D01*
X2610542Y23283893D01*
X2616881Y23290218D01*
X2625836Y23290209D01*
G37*
G04 #@! TD.AperFunction*
G04 #@! TA.AperFunction,Conductor*
G36*
X56780827Y36746601D02*
G01*
X57069196Y36578386D01*
X57074615Y36571259D01*
X57075000Y36568281D01*
X57075000Y36331720D01*
X57071573Y36323447D01*
X57069195Y36321614D01*
X56780829Y36153401D01*
X56771956Y36152192D01*
X56769138Y36153344D01*
X56266820Y36439837D01*
X56261331Y36446912D01*
X56262453Y36455796D01*
X56266819Y36460163D01*
X56769139Y36746658D01*
X56778022Y36747779D01*
X56780827Y36746601D01*
G37*
G04 #@! TD.AperFunction*
G04 #@! TA.AperFunction,Conductor*
G36*
X14402929Y22855167D02*
G01*
X14925000Y22550000D01*
X15141977Y22550000D01*
X15150250Y22546573D01*
X15153677Y22538300D01*
X15150250Y22530027D01*
X15149343Y22529210D01*
X14561728Y22053072D01*
X14553143Y22050526D01*
X14546102Y22053877D01*
X14205540Y22393476D01*
X14202101Y22401744D01*
X14202988Y22406230D01*
X14257575Y22538300D01*
X14386214Y22849535D01*
X14392541Y22855871D01*
X14401496Y22855878D01*
X14402929Y22855167D01*
G37*
G04 #@! TD.AperFunction*
G04 #@! TA.AperFunction,Conductor*
G36*
X12130859Y57496658D02*
G01*
X12336767Y57379221D01*
X12633180Y57210163D01*
X12638668Y57203088D01*
X12637546Y57194203D01*
X12633179Y57189837D01*
X12130861Y56903344D01*
X12121977Y56902222D01*
X12119170Y56903401D01*
X11830805Y57071614D01*
X11825385Y57078742D01*
X11825000Y57081720D01*
X11825000Y57318281D01*
X11828427Y57326554D01*
X11830800Y57328384D01*
X12119171Y57496601D01*
X12128043Y57497809D01*
X12130859Y57496658D01*
G37*
G04 #@! TD.AperFunction*
G04 #@! TA.AperFunction,Conductor*
G36*
X56780827Y46096601D02*
G01*
X57069196Y45928386D01*
X57074615Y45921259D01*
X57075000Y45918281D01*
X57075000Y45681720D01*
X57071573Y45673447D01*
X57069195Y45671614D01*
X56780829Y45503401D01*
X56771956Y45502192D01*
X56769138Y45503344D01*
X56266820Y45789837D01*
X56261331Y45796912D01*
X56262453Y45805796D01*
X56266819Y45810163D01*
X56769139Y46096658D01*
X56778022Y46097779D01*
X56780827Y46096601D01*
G37*
G04 #@! TD.AperFunction*
G04 #@! TA.AperFunction,Conductor*
G36*
X56780827Y50796601D02*
G01*
X57069196Y50628386D01*
X57074615Y50621259D01*
X57075000Y50618281D01*
X57075000Y50381720D01*
X57071573Y50373447D01*
X57069195Y50371614D01*
X56780829Y50203401D01*
X56771956Y50202192D01*
X56769138Y50203344D01*
X56266820Y50489837D01*
X56261331Y50496912D01*
X56262453Y50505796D01*
X56266819Y50510163D01*
X56769139Y50796658D01*
X56778022Y50797779D01*
X56780827Y50796601D01*
G37*
G04 #@! TD.AperFunction*
G04 #@! TA.AperFunction,Conductor*
G36*
X15501135Y28963157D02*
G01*
X15507456Y28956813D01*
X15507439Y28947859D01*
X15507438Y28947856D01*
X15178000Y28157200D01*
X15171655Y28150881D01*
X15167200Y28150000D01*
X14932800Y28150000D01*
X14924527Y28153427D01*
X14922000Y28157200D01*
X14592561Y28947856D01*
X14592542Y28956811D01*
X14598859Y28963155D01*
X15045504Y29149129D01*
X15054455Y29149145D01*
X15501135Y28963157D01*
G37*
G04 #@! TD.AperFunction*
G04 #@! TA.AperFunction,Conductor*
G36*
X12130859Y52696658D02*
G01*
X12336767Y52579221D01*
X12633180Y52410163D01*
X12638668Y52403088D01*
X12637546Y52394203D01*
X12633179Y52389837D01*
X12130861Y52103344D01*
X12121977Y52102222D01*
X12119170Y52103401D01*
X11830805Y52271614D01*
X11825385Y52278742D01*
X11825000Y52281720D01*
X11825000Y52518281D01*
X11828427Y52526554D01*
X11830800Y52528384D01*
X12119171Y52696601D01*
X12128043Y52697809D01*
X12130859Y52696658D01*
G37*
G04 #@! TD.AperFunction*
G04 #@! TA.AperFunction,Conductor*
G36*
X12130859Y47996658D02*
G01*
X12336767Y47879221D01*
X12633180Y47710163D01*
X12638668Y47703088D01*
X12637546Y47694203D01*
X12633179Y47689837D01*
X12130861Y47403344D01*
X12121977Y47402222D01*
X12119170Y47403401D01*
X11830805Y47571614D01*
X11825385Y47578742D01*
X11825000Y47581720D01*
X11825000Y47818281D01*
X11828427Y47826554D01*
X11830800Y47828384D01*
X12119171Y47996601D01*
X12128043Y47997809D01*
X12130859Y47996658D01*
G37*
G04 #@! TD.AperFunction*
G04 #@! TA.AperFunction,Conductor*
G36*
X13120513Y36302384D02*
G01*
X13128048Y36298649D01*
X13381322Y36022904D01*
X13384394Y36014492D01*
X13380978Y36006716D01*
X13042365Y35668103D01*
X13034092Y35664676D01*
X13027289Y35666857D01*
X12498376Y36044853D01*
X12493638Y36052451D01*
X12494169Y36058331D01*
X12596227Y36342183D01*
X12602250Y36348805D01*
X12608313Y36349871D01*
X13120513Y36302384D01*
G37*
G04 #@! TD.AperFunction*
G04 #@! TA.AperFunction,Conductor*
G36*
X13427461Y35979328D02*
G01*
X14013454Y35636713D01*
X14132549Y35567081D01*
X14137962Y35559947D01*
X14137462Y35552524D01*
X13952563Y35103798D01*
X13946242Y35097454D01*
X13946202Y35097437D01*
X13497476Y34912538D01*
X13488522Y34912555D01*
X13482919Y34917451D01*
X13463475Y34950707D01*
X13070672Y35622538D01*
X13069455Y35631406D01*
X13072498Y35636711D01*
X13413288Y35977501D01*
X13421560Y35980927D01*
X13427461Y35979328D01*
G37*
G04 #@! TD.AperFunction*
G04 #@! TA.AperFunction,Conductor*
G36*
X13118841Y41142170D02*
G01*
X13127056Y41138608D01*
X13128401Y41136935D01*
X13395237Y40734230D01*
X13396950Y40725441D01*
X13393757Y40719495D01*
X13229287Y40555025D01*
X13221014Y40551598D01*
X13216508Y40552500D01*
X12513469Y40845871D01*
X12507154Y40852220D01*
X12506826Y40860217D01*
X12596654Y41142418D01*
X12602428Y41149260D01*
X12607990Y41150565D01*
X13118841Y41142170D01*
G37*
G04 #@! TD.AperFunction*
G04 #@! TA.AperFunction,Conductor*
G36*
X13488490Y40642526D02*
G01*
X14159884Y40366070D01*
X14280520Y40316396D01*
X14286865Y40310077D01*
X14286884Y40301122D01*
X14286883Y40301120D01*
X14102563Y39853798D01*
X14096242Y39847454D01*
X14096202Y39847437D01*
X13648880Y39663117D01*
X13639926Y39663134D01*
X13633605Y39669478D01*
X13633604Y39669480D01*
X13557708Y39853798D01*
X13307475Y40461508D01*
X13307494Y40470461D01*
X13310018Y40474231D01*
X13475767Y40639980D01*
X13484039Y40643406D01*
X13488490Y40642526D01*
G37*
G04 #@! TD.AperFunction*
G04 #@! TA.AperFunction,Conductor*
G36*
X55833950Y38946301D02*
G01*
X56365092Y38655030D01*
X56370698Y38648047D01*
X56370288Y38640324D01*
X56254345Y38358148D01*
X56248031Y38351798D01*
X56241306Y38351107D01*
X55732448Y38449299D01*
X55724974Y38454231D01*
X55723273Y38458119D01*
X55650961Y38767409D01*
X55652415Y38776244D01*
X55654077Y38778341D01*
X55820052Y38944316D01*
X55828324Y38947742D01*
X55833950Y38946301D01*
G37*
G04 #@! TD.AperFunction*
G04 #@! TA.AperFunction,Conductor*
G36*
X55411200Y39687331D02*
G01*
X55416968Y39682143D01*
X55770970Y39034510D01*
X55801373Y38978890D01*
X55802335Y38969987D01*
X55799380Y38965005D01*
X55633638Y38799263D01*
X55625365Y38795836D01*
X55622211Y38796269D01*
X54771337Y39034510D01*
X54764295Y39040041D01*
X54763225Y39048932D01*
X54763674Y39050234D01*
X54947437Y39496205D01*
X54953755Y39502546D01*
X55402247Y39687348D01*
X55411200Y39687331D01*
G37*
G04 #@! TD.AperFunction*
G04 #@! TA.AperFunction,Conductor*
G36*
X55833950Y48296301D02*
G01*
X56365092Y48005030D01*
X56370698Y47998047D01*
X56370288Y47990324D01*
X56254345Y47708148D01*
X56248031Y47701798D01*
X56241306Y47701107D01*
X55732448Y47799299D01*
X55724974Y47804231D01*
X55723273Y47808119D01*
X55650961Y48117409D01*
X55652415Y48126244D01*
X55654077Y48128341D01*
X55820052Y48294316D01*
X55828324Y48297742D01*
X55833950Y48296301D01*
G37*
G04 #@! TD.AperFunction*
G04 #@! TA.AperFunction,Conductor*
G36*
X55460073Y49136867D02*
G01*
X55466394Y49130523D01*
X55466395Y49130521D01*
X55792524Y48338495D01*
X55792505Y48329540D01*
X55789978Y48325767D01*
X55624233Y48160022D01*
X55615960Y48156595D01*
X55611505Y48157476D01*
X54819479Y48483605D01*
X54813134Y48489924D01*
X54813115Y48498877D01*
X54997437Y48946205D01*
X55003755Y48952546D01*
X55451120Y49136884D01*
X55460073Y49136867D01*
G37*
G04 #@! TD.AperFunction*
G04 #@! TA.AperFunction,Conductor*
G36*
X55833950Y43596301D02*
G01*
X56365092Y43305030D01*
X56370698Y43298047D01*
X56370288Y43290324D01*
X56254345Y43008148D01*
X56248031Y43001798D01*
X56241306Y43001107D01*
X55732448Y43099299D01*
X55724974Y43104231D01*
X55723273Y43108119D01*
X55650961Y43417409D01*
X55652415Y43426244D01*
X55654077Y43428341D01*
X55820052Y43594316D01*
X55828324Y43597742D01*
X55833950Y43596301D01*
G37*
G04 #@! TD.AperFunction*
G04 #@! TA.AperFunction,Conductor*
G36*
X55311200Y44437331D02*
G01*
X55316968Y44432143D01*
X55670970Y43784510D01*
X55701373Y43728890D01*
X55702335Y43719987D01*
X55699380Y43715005D01*
X55533638Y43549263D01*
X55525365Y43545836D01*
X55522211Y43546269D01*
X54671337Y43784510D01*
X54664295Y43790041D01*
X54663225Y43798932D01*
X54663674Y43800234D01*
X54847437Y44246205D01*
X54853755Y44252546D01*
X55302247Y44437348D01*
X55311200Y44437331D01*
G37*
G04 #@! TD.AperFunction*
M02*
